<?xml version='1.0' encoding='utf-8'?>
<svg width="100.099744mm" height="153.879376mm" viewBox="-43.261241 -2.758735 87.559966 134.602471" version="1.1" xmlns="http://www.w3.org/2000/svg">
  <g transform="scale(1,-1)" stroke-linecap="round">
    <g fill="rgb(0,0,0)" stroke="rgb(0,0,0)" stroke-width="0.08747271709354425" id="Visible">
      <path d="M 35.105005,2.122502 L 34.199992,2.122502 L 34.199992,-2.027498 L 35.105005,-2.027498 L 35.105005,-1.742505 C 35.2714,-1.955522 35.509287,-2.080578 35.782072,-2.102606 C 35.998722,-2.121165 36.219166,-2.087234 36.412067,-1.997921 C 36.591695,-1.915918 36.744578,-1.80014 36.870714,-1.650584 C 37.076346,-1.405893 37.191977,-1.076981 37.189998,-0.73915 C 37.190545,-0.552668 37.158445,-0.375158 37.093696,-0.206622 C 36.976212,0.101501 36.758262,0.351686 36.464163,0.492755 C 36.258167,0.595682 36.014651,0.634015 35.775008,0.611068 C 35.516467,0.586414 35.283847,0.471981 35.105005,0.282495 L 35.105005,2.122502 M 36.244995,-0.752498 C 36.246829,-0.902112 36.175988,-1.048258 36.076761,-1.153047 C 35.974651,-1.261161 35.826552,-1.328115 35.666644,-1.327496 C 35.505298,-1.329732 35.351301,-1.255023 35.245212,-1.150303 C 35.142172,-1.048353 35.078764,-0.903046 35.080005,-0.746915 C 35.078427,-0.585729 35.153593,-0.431898 35.258653,-0.326241 C 35.366805,-0.217477 35.523638,-0.153987 35.689694,-0.163175 C 35.841188,-0.169125 35.972725,-0.237517 36.07217,-0.334687 C 36.179679,-0.440169 36.24603,-0.592875 36.244995,-0.752498" />
      <path d="M -31.487492,2.350008 L -32.032495,2.660002 C -32.28407,2.31185 -32.464501,1.885382 -32.582291,1.427443 C -32.696673,0.981514 -32.758316,0.506119 -32.757493,0.039256 C -32.758306,-0.490573 -32.696057,-0.9894 -32.570747,-1.457225 C -32.449025,-1.910919 -32.269608,-2.311844 -32.032495,-2.660002 L -31.487492,-2.349992 C -31.670895,-2.0687 -31.812224,-1.686358 -31.90941,-1.276076 C -32.005813,-0.865407 -32.063863,-0.412394 -32.062487,0.017845 C -32.062395,0.894473 -31.8776,1.687389 -31.487492,2.350008" />
      <path d="M -29.897502,1.300008 L -29.897502,-1.639998 L -28.917505,-1.639998 L -28.917505,2.130005 L -30.447502,2.130005 L -30.447502,1.300008 L -29.897502,1.300008" />
      <path d="M -27.922502,0.250008 Q -27.924345,-0.194567 -27.801032,-0.57981 Q -27.687296,-0.933215 -27.474238,-1.198452 Q -27.245247,-1.481254 -26.92152,-1.62495 Q -26.642989,-1.746275 -26.319929,-1.744993 Q -25.968262,-1.745172 -25.666395,-1.597078 Q -25.348283,-1.439519 -25.132021,-1.144758 Q -24.944109,-0.887194 -24.841034,-0.554953 Q -24.725721,-0.179464 -24.727498,0.250008 Q -24.726085,0.644876 -24.823185,0.99498 Q -24.931969,1.38133 -25.151659,1.668639 Q -25.356645,1.933785 -25.647571,2.082632 Q -25.957055,2.240166 -26.319929,2.239996 Q -26.682848,2.241361 -26.986934,2.089121 Q -27.274107,1.944252 -27.480971,1.687663 Q -27.696274,1.418209 -27.808499,1.056475 Q -27.924259,0.680573 -27.922502,0.250008 M -26.952498,0.250008 C -26.953251,0.56651 -26.892147,0.857862 -26.779751,1.057956 C -26.671333,1.250943 -26.51532,1.372588 -26.321611,1.369994 C -26.130211,1.371697 -25.961249,1.24264 -25.858078,1.039678 C -25.755004,0.839674 -25.696358,0.555579 -25.697502,0.249494 C -25.696359,-0.072466 -25.758754,-0.355401 -25.867535,-0.560057 C -25.970964,-0.756127 -26.136498,-0.876866 -26.322318,-0.874992 C -26.513546,-0.877064 -26.66791,-0.759442 -26.776081,-0.567064 C -26.890465,-0.362996 -26.953398,-0.077559 -26.952498,0.250008" />
      <path d="M -24.032495,-0.685002 L -24.682495,-2.339998 L -24.102498,-2.339998 L -23.182495,-0.685002 L -24.032495,-0.685002" />
      <path d="M -42.312492,2.510002 L -43.217505,2.510002 L -43.217505,-1.639998 L -42.312492,-1.639998 L -42.312492,-1.355005 C -42.146097,-1.568022 -41.90821,-1.693078 -41.635425,-1.715106 C -41.418775,-1.733665 -41.19833,-1.699734 -41.00543,-1.610421 C -40.825801,-1.528418 -40.672919,-1.41264 -40.546782,-1.263084 C -40.341151,-1.018393 -40.22552,-0.689481 -40.227499,-0.35165 C -40.226951,-0.165168 -40.259052,0.012342 -40.3238,0.180878 C -40.441284,0.489001 -40.659234,0.739186 -40.953334,0.880255 C -41.15933,0.983182 -41.402846,1.021515 -41.642489,0.998568 C -41.90103,0.973914 -42.133649,0.859481 -42.312492,0.669995 L -42.312492,2.510002 M -41.172502,-0.364998 C -41.170668,-0.514612 -41.241509,-0.660758 -41.340736,-0.765547 C -41.442846,-0.873661 -41.590945,-0.940615 -41.750852,-0.939996 C -41.912199,-0.942232 -42.066196,-0.867523 -42.172285,-0.762803 C -42.275325,-0.660853 -42.338732,-0.515546 -42.337492,-0.359415 C -42.33907,-0.198229 -42.263903,-0.044398 -42.158843,0.061259 C -42.050691,0.170023 -41.893859,0.233513 -41.727802,0.224325 C -41.576309,0.218375 -41.444772,0.149983 -41.345327,0.052813 C -41.237817,-0.052669 -41.171466,-0.205375 -41.172502,-0.364998" />
      <path d="M -39.812508,-0.335002 C -39.813065,-0.547033 -39.772923,-0.741861 -39.692081,-0.919485 C -39.613818,-1.090767 -39.505652,-1.238004 -39.367583,-1.361196 C -39.230571,-1.482646 -39.069885,-1.575322 -38.885527,-1.639225 C -38.676395,-1.712414 -38.445092,-1.74253 -38.205132,-1.733463 C -37.989541,-1.725607 -37.787618,-1.684677 -37.599364,-1.610674 C -37.420118,-1.54032 -37.265488,-1.442855 -37.135474,-1.318279 C -37.011241,-1.198944 -36.913301,-1.059239 -36.841654,-0.899165 C -36.759799,-0.716325 -36.724837,-0.510475 -36.733842,-0.294607 C -36.741078,-0.114084 -36.78053,0.053352 -36.852198,0.207701 C -36.943683,0.403564 -37.076553,0.567129 -37.250808,0.698396 C -37.375158,0.792016 -37.515394,0.866425 -37.671515,0.921625 C -37.881928,0.996518 -38.113816,1.027702 -38.353811,1.018419 C -38.548535,1.011108 -38.731203,0.975155 -38.901814,0.91056 C -39.086032,0.84099 -39.246498,0.744931 -39.383213,0.622382 C -39.513768,0.504852 -39.616631,0.36726 -39.691805,0.209606 C -39.772447,0.040296 -39.812681,-0.14124 -39.812508,-0.335002 M -38.857495,-0.344995 C -38.859324,-0.185616 -38.786085,-0.039487 -38.683587,0.066453 C -38.581786,0.171519 -38.429358,0.23617 -38.272048,0.235001 C -38.108055,0.235883 -37.950298,0.165745 -37.848343,0.052625 C -37.752885,-0.051915 -37.685364,-0.198564 -37.687509,-0.350898 C -37.686035,-0.521781 -37.763447,-0.675033 -37.871521,-0.781531 C -37.972782,-0.880462 -38.120791,-0.941193 -38.272937,-0.939998 C -38.436487,-0.940882 -38.5939,-0.871136 -38.695926,-0.758421 C -38.791663,-0.653233 -38.859459,-0.510881 -38.857495,-0.344995" />
      <path d="M -35.307495,2.510002 L -36.212508,2.510002 L -36.212508,-1.639998 L -35.307495,-1.639998 L -35.307495,2.510002" />
      <path d="M -33.677498,0.169995 L -33.162508,0.169995 L -33.162508,0.925008 L -33.677498,0.925008 L -33.677498,1.694995 L -34.582495,1.694995 L -34.582495,0.925008 L -34.882495,0.925008 L -34.882495,0.169995 L -34.582495,0.169995 L -34.582495,-1.639998 L -33.677498,-1.639998 L -33.677498,0.169995" />
      <path d="M -0.322493,-1.085002 L -1.197493,-2.714998 L -0.182503,-2.714998 L 1.877507,1.130005 L 0.8375,1.130005 L 0.172493,-0.185002 L -0.5125,1.130005 L -1.5625,1.130005 L -0.322493,-1.085002" />
      <path d="M 3.142513,2.714998 L 2.2375,2.714998 L 2.2375,-1.435002 L 3.142513,-1.435002 L 3.142513,2.714998" />
      <path d="M 4.577507,-0.305005 L 6.482503,-0.305005 L 6.482503,-0.210002 C 6.484475,0.218304 6.357913,0.596202 6.109991,0.847582 C 5.867014,1.097627 5.502407,1.22685 5.088308,1.224992 C 4.662212,1.227564 4.296118,1.093681 4.045537,0.848084 C 3.796462,0.605887 3.660402,0.246153 3.662501,-0.163003 C 3.659179,-0.569788 3.808785,-0.920482 4.073372,-1.162754 C 4.318415,-1.388664 4.66826,-1.517713 5.052898,-1.528866 C 5.483543,-1.541943 5.853452,-1.444524 6.105001,-1.216187 C 6.264108,-1.071761 6.378277,-0.883034 6.44751,-0.650008 L 5.57251,-0.650008 C 5.527671,-0.722145 5.472101,-0.778419 5.405801,-0.81883 C 5.325731,-0.866654 5.233031,-0.890377 5.127701,-0.889998 C 5.077608,-0.890058 5.030404,-0.886339 4.986089,-0.878842 C 4.882648,-0.861611 4.797961,-0.822264 4.732029,-0.760799 C 4.625437,-0.661247 4.577007,-0.501264 4.577507,-0.305005 M 5.6375,0.219995 L 4.602507,0.219995 Q 4.636534,0.417525 4.768873,0.529056 Q 4.903717,0.640577 5.112193,0.639998 Q 5.311996,0.640425 5.453546,0.524144 Q 5.59312,0.408491 5.6375,0.219995" />
      <path d="M -4.242497,1.369995 L -3.852507,2.135002 C -4.079529,2.257199 -4.325176,2.344101 -4.574209,2.393596 C -4.817738,2.442635 -5.060227,2.453762 -5.276483,2.422415 C -5.553901,2.382069 -5.794513,2.269763 -5.968672,2.103589 C -6.085703,1.991627 -6.17553,1.856988 -6.238152,1.699673 C -6.297718,1.54886 -6.327502,1.383426 -6.327503,1.203373 C -6.328588,1.017125 -6.298821,0.860586 -6.238203,0.733758 C -6.154329,0.556692 -6.024957,0.426871 -5.86702,0.332574 C -5.783598,0.280904 -5.689271,0.242528 -5.593247,0.207014 C -5.501009,0.17231 -5.407426,0.139972 -5.3125,0.110002 C -5.126711,0.044356 -4.987234,-0.002581 -4.891877,-0.063796 C -4.827983,-0.104294 -4.78357,-0.149751 -4.758638,-0.200167 C -4.733459,-0.251126 -4.722489,-0.317812 -4.729856,-0.389001 C -4.739046,-0.463528 -4.774599,-0.531149 -4.836516,-0.591865 C -4.911198,-0.666343 -5.023661,-0.705587 -5.173903,-0.709599 C -5.235685,-0.711483 -5.298056,-0.707146 -5.361016,-0.69659 C -5.594488,-0.657057 -5.828316,-0.533197 -6.0625,-0.325008 L -6.482503,-1.114998 C -6.079279,-1.399369 -5.604107,-1.550838 -5.116037,-1.53966 C -4.910055,-1.537653 -4.716326,-1.506348 -4.534851,-1.445745 C -4.289949,-1.362846 -4.0781,-1.222164 -3.933178,-1.028037 C -3.876562,-0.952552 -3.830061,-0.870469 -3.793676,-0.781788 C -3.731946,-0.628726 -3.699983,-0.465036 -3.697786,-0.290718 C -3.696229,-0.213418 -3.700352,-0.137916 -3.710155,-0.064215 C -3.738191,0.148419 -3.821577,0.339672 -3.963008,0.485692 C -4.127228,0.657545 -4.363019,0.778538 -4.62251,0.864998 C -4.702653,0.89172 -4.78362,0.916759 -4.865409,0.940116 C -4.983035,0.974394 -5.088143,1.016036 -5.167224,1.070213 C -5.211061,1.099585 -5.245541,1.133804 -5.270666,1.172873 C -5.292114,1.209497 -5.302726,1.252317 -5.302504,1.301333 C -5.30235,1.344689 -5.294085,1.384399 -5.277707,1.420461 C -5.250888,1.480843 -5.196803,1.533218 -5.127637,1.569548 C -5.054626,1.607562 -4.96705,1.62603 -4.864911,1.624952 C -4.665799,1.622569 -4.448603,1.539086 -4.242497,1.369995" />
      <path d="M -2.107503,0.374992 L -1.592513,0.374992 L -1.592513,1.130005 L -2.107503,1.130005 L -2.107503,1.899992 L -3.0125,1.899992 L -3.0125,1.130005 L -3.3125,1.130005 L -3.3125,0.374992 L -3.0125,0.374992 L -3.0125,-1.435002 L -2.107503,-1.435002 L -2.107503,0.374992" />
      <path d="M 37.604989,-0.722502 C 37.604432,-0.934533 37.644574,-1.129361 37.725416,-1.306985 C 37.803679,-1.478267 37.911845,-1.625504 38.049913,-1.748696 C 38.186926,-1.870146 38.347611,-1.962822 38.53197,-2.026725 C 38.741102,-2.099914 38.972404,-2.13003 39.212364,-2.120963 C 39.427956,-2.113107 39.629879,-2.072177 39.818133,-1.998174 C 39.997379,-1.92782 40.152009,-1.830355 40.282023,-1.705779 C 40.406255,-1.586444 40.504195,-1.446739 40.575842,-1.286665 C 40.657698,-1.103825 40.69266,-0.897975 40.683655,-0.682107 C 40.676418,-0.501584 40.636966,-0.334148 40.565299,-0.179799 C 40.473814,0.016064 40.340944,0.179629 40.166689,0.310896 C 40.042339,0.404516 39.902103,0.478925 39.745982,0.534125 C 39.535569,0.609018 39.303681,0.640202 39.063685,0.630919 C 38.868961,0.623608 38.686294,0.587655 38.515682,0.52306 C 38.331465,0.45349 38.170998,0.357431 38.034283,0.234882 C 37.903729,0.117352 37.800865,-0.02024 37.725692,-0.177894 C 37.64505,-0.347204 37.604815,-0.52874 37.604989,-0.722502 M 38.560002,-0.732495 C 38.558173,-0.573116 38.631412,-0.426987 38.73391,-0.321047 C 38.83571,-0.215981 38.988138,-0.15133 39.145448,-0.152499 C 39.309442,-0.151617 39.467199,-0.221755 39.569153,-0.334875 C 39.664612,-0.439415 39.732133,-0.586064 39.729988,-0.738398 C 39.731461,-0.909281 39.65405,-1.062533 39.545976,-1.169031 C 39.444715,-1.267962 39.296706,-1.328693 39.14456,-1.327498 C 38.98101,-1.328382 38.823596,-1.258636 38.721571,-1.145921 C 38.625834,-1.040733 38.558038,-0.898381 38.560002,-0.732495" />
      <path d="M 42.110002,2.122502 L 41.204989,2.122502 L 41.204989,-2.027498 L 42.110002,-2.027498 L 42.110002,2.122502" />
      <path d="M 43.739998,-0.217505 L 44.254989,-0.217505 L 44.254989,0.537508 L 43.739998,0.537508 L 43.739998,1.307495 L 42.835002,1.307495 L 42.835002,0.537508 L 42.535002,0.537508 L 42.535002,-0.217505 L 42.835002,-0.217505 L 42.835002,-2.027498 L 43.739998,-2.027498 L 43.739998,-0.217505" />
      <path d="M 23.155005,0.537508 L 22.145011,0.537508 L 23.460018,-2.027498 L 24.075008,-2.027498 L 24.685018,-0.622502 L 25.325008,-2.027498 L 25.930005,-2.027498 L 27.270011,0.537508 L 26.265015,0.537508 L 25.620011,-0.852498 L 24.980005,0.537508 L 24.410018,0.537508 L 23.770011,-0.812492 L 23.155005,0.537508" />
      <path d="M 28.275008,-0.897502 L 30.180005,-0.897502 L 30.180005,-0.802498 C 30.181977,-0.374193 30.055415,0.003705 29.807493,0.255085 C 29.564516,0.50513 29.199908,0.634353 28.785809,0.632495 C 28.359714,0.635067 27.99362,0.501185 27.743039,0.255587 C 27.493964,0.01339 27.357903,-0.346344 27.360003,-0.7555 C 27.356681,-1.162285 27.506286,-1.512979 27.770873,-1.755251 C 28.015916,-1.981161 28.365761,-2.11021 28.7504,-2.121363 C 29.181045,-2.13444 29.550953,-2.037021 29.802503,-1.808684 C 29.961609,-1.664257 30.075779,-1.475531 30.145011,-1.242505 L 29.270011,-1.242505 C 29.225172,-1.314642 29.169603,-1.370916 29.103303,-1.411326 C 29.023233,-1.459151 28.930533,-1.482874 28.825202,-1.482495 C 28.775109,-1.482554 28.727905,-1.478836 28.683591,-1.471339 C 28.58015,-1.454108 28.495463,-1.414761 28.429531,-1.353296 C 28.322938,-1.253744 28.274509,-1.093761 28.275008,-0.897502 M 29.335002,-0.372502 L 28.300008,-0.372502 Q 28.334036,-0.174971 28.466375,-0.063441 Q 28.601219,0.04808 28.809694,0.047502 Q 29.009497,0.047928 29.151047,-0.068352 Q 29.290622,-0.184005 29.335002,-0.372502" />
      <path d="M 31.600008,2.122502 L 30.694995,2.122502 L 30.694995,-2.027498 L 31.600008,-2.027498 L 31.600008,-1.742505 C 31.766403,-1.955522 32.00429,-2.080578 32.277075,-2.102606 C 32.493725,-2.121165 32.71417,-2.087234 32.90707,-1.997921 C 33.086699,-1.915918 33.239581,-1.80014 33.365718,-1.650584 C 33.571349,-1.405893 33.68698,-1.076981 33.685001,-0.73915 C 33.685549,-0.552668 33.653448,-0.375158 33.5887,-0.206622 C 33.471215,0.101501 33.253266,0.351686 32.959166,0.492755 C 32.75317,0.595682 32.509654,0.634015 32.270011,0.611068 C 32.01147,0.586414 31.778851,0.471981 31.600008,0.282495 L 31.600008,2.122502 M 32.739998,-0.752498 C 32.741832,-0.902112 32.670991,-1.048258 32.571764,-1.153047 C 32.469654,-1.261161 32.321555,-1.328115 32.161648,-1.327496 C 32.000301,-1.329732 31.846304,-1.255023 31.740215,-1.150303 C 31.637175,-1.048353 31.573768,-0.903046 31.575008,-0.746915 C 31.57343,-0.585729 31.648597,-0.431898 31.753657,-0.326241 C 31.861809,-0.217477 32.018641,-0.153987 32.184698,-0.163175 C 32.336191,-0.169125 32.467728,-0.237517 32.567173,-0.334687 C 32.674683,-0.440169 32.741033,-0.592875 32.739998,-0.752498" />
      <path d="M -38.777778,-8.2 A 2.0,2.0 0.0 0,1 -40.777778,-10.2 L -40.777778,-17.8 A 2.0,2.0 0.0 0,1 -38.777778,-19.8 L -35.622222,-19.8 L -35.622222,-16.577778 L -25.622222,-16.577778 L -25.622222,-11.422222 L -35.622222,-11.422222 L -35.622222,-8.2 L -38.777778,-8.2" />
      <path d="M -3.95249,-15.9625 L -3.95249,-14.432503 C -3.757377,-14.636406 -3.500345,-14.74969 -3.215058,-14.761067 C -3.011303,-14.770328 -2.812259,-14.735518 -2.633955,-14.653651 C -2.450125,-14.569744 -2.295381,-14.449195 -2.169721,-14.292004 C -1.976712,-14.051623 -1.864334,-13.737088 -1.867497,-13.406563 C -1.865321,-13.059444 -1.98718,-12.722384 -2.202637,-12.475889 C -2.325266,-12.335843 -2.472029,-12.226622 -2.642927,-12.148229 C -2.803993,-12.074632 -2.975557,-12.037726 -3.157619,-12.037508 C -3.208238,-12.03731 -3.257589,-12.039964 -3.305672,-12.045469 C -3.566262,-12.073596 -3.79199,-12.197517 -3.95249,-12.402507 L -3.95249,-12.117497 L -4.857503,-12.117497 L -4.857503,-15.9625 L -3.95249,-15.9625 M -2.8125,-13.407503 C -2.810666,-13.557117 -2.881507,-13.703263 -2.980734,-13.808052 C -3.082845,-13.916166 -3.230944,-13.98312 -3.390851,-13.982501 C -3.552198,-13.984737 -3.706194,-13.910028 -3.812284,-13.805307 C -3.915323,-13.703358 -3.978731,-13.558051 -3.97749,-13.40192 C -3.979068,-13.240734 -3.903902,-13.086903 -3.798842,-12.981246 C -3.690667,-12.872481 -3.533901,-12.808991 -3.367765,-12.81818 C -3.207244,-12.824761 -3.063746,-12.900154 -2.963248,-13.007294 C -2.866013,-13.11129 -2.811945,-13.256683 -2.8125,-13.407503" />
      <path d="M 0.627507,-12.117497 L 0.627507,-12.37251 C 0.436479,-12.166518 0.182071,-12.051308 -0.101549,-12.039119 C -0.31048,-12.029375 -0.513658,-12.063936 -0.692525,-12.147314 C -0.866207,-12.227537 -1.013482,-12.340221 -1.134351,-12.485366 C -1.338166,-12.73006 -1.454815,-13.059724 -1.452506,-13.393787 C -1.453018,-13.587993 -1.419914,-13.77077 -1.353195,-13.942119 C -1.235137,-14.24659 -1.012139,-14.495369 -0.728264,-14.634103 C -0.553878,-14.720106 -0.364141,-14.762904 -0.159053,-14.762499 C -0.10975,-14.762572 -0.061682,-14.759883 -0.014851,-14.754433 C 0.244062,-14.725844 0.467053,-14.602099 0.627507,-14.39751 L 0.627507,-14.682503 L 1.5375,-14.682503 L 1.5375,-12.117497 L 0.627507,-12.117497 M -0.5125,-13.392497 C -0.513884,-13.235417 -0.448684,-13.097043 -0.348741,-12.9914 C -0.246363,-12.883206 -0.094539,-12.816526 0.072107,-12.817497 C 0.236166,-12.816393 0.393987,-12.886318 0.49611,-12.999276 C 0.591684,-13.103681 0.6594,-13.250224 0.657503,-13.402507 C 0.659336,-13.561849 0.586096,-13.707981 0.483609,-13.813933 C 0.381821,-13.919009 0.229395,-13.983652 0.072107,-13.982503 C -0.086666,-13.983529 -0.232479,-13.922661 -0.334032,-13.823495 C -0.442814,-13.716848 -0.513775,-13.563364 -0.5125,-13.392497" />
      <path d="M 2.15249,-12.117497 L 2.15249,-14.682503 L 3.057503,-14.682503 L 3.057503,-13.3125 C 3.056452,-13.143993 3.098267,-13.012068 3.182948,-12.916727 C 3.26634,-12.826674 3.382668,-12.781933 3.531933,-12.782503 C 3.644969,-12.783191 3.749929,-12.812029 3.829176,-12.894196 C 3.876273,-12.942693 3.908473,-13.005762 3.925778,-13.083403 C 3.944245,-13.168938 3.953149,-13.270304 3.95249,-13.3875 L 3.95249,-14.682503 L 4.857503,-14.682503 L 4.857503,-13.052507 Q 4.857758,-12.850698 4.817816,-12.688789 Q 4.7778,-12.527796 4.667497,-12.39751 Q 4.53139,-12.23626 4.337218,-12.148743 Q 4.140501,-12.061636 3.878103,-12.0625 Q 3.625448,-12.061603 3.429594,-12.14119 Q 3.234094,-12.224945 3.057503,-12.442497 L 3.057503,-12.117497 L 2.15249,-12.117497" />
      <path d="M 40.45,-10.2 A 2.0,2.0 0.0 0,1 38.45,-8.2 L 33.2,-8.2 L 33.2,-11.1 L 32.595833,-10.6 L 31.991667,-11.1 L 31.3875,-10.6 L 30.783333,-11.1 L 30.179167,-10.6 L 29.575,-11.1 L 28.970833,-10.6 L 28.366667,-11.1 L 27.7625,-10.6 L 27.158333,-11.1 L 26.554167,-10.6 L 25.95,-11.1 L 25.95,-16.9 L 26.554167,-17.4 L 27.158333,-16.9 L 27.7625,-17.4 L 28.366667,-16.9 L 28.970833,-17.4 L 29.575,-16.9 L 30.179167,-17.4 L 30.783333,-16.9 L 31.3875,-17.4 L 31.991667,-16.9 L 32.595833,-17.4 L 33.2,-16.9 L 33.2,-19.8 L 38.45,-19.8 A 2.0,2.0 0.0 0,1 40.45,-17.8 L 40.45,-10.2" />
      <path d="M -35.622222,-22.2 L -40.777778,-22.2 L -40.777778,-33.8 L -35.622222,-33.8 L -35.622222,-30.577778 L -25.622222,-30.577778 L -25.622222,-25.422222 L -35.622222,-25.422222 L -35.622222,-22.2" />
      <path d="M 1.230013,-25.877498 L 0.325,-25.877498 L 0.325,-30.027498 L 1.230013,-30.027498 L 1.230013,-28.982495 L 2.225,-30.027498 L 3.495003,-30.027498 L 2.13501,-28.647502 L 3.420003,-27.462492 L 2.180013,-27.462492 L 1.230013,-28.387492 L 1.230013,-25.877498" />
      <path d="M 4.475016,-28.897502 L 6.380013,-28.897502 L 6.380013,-28.802498 C 6.381985,-28.374193 6.255423,-27.996295 6.007501,-27.744915 C 5.764524,-27.49487 5.399917,-27.365646 4.985817,-27.367505 C 4.559722,-27.364933 4.193628,-27.498815 3.943047,-27.744413 C 3.693972,-27.98661 3.557912,-28.346344 3.560011,-28.7555 C 3.556689,-29.162285 3.706295,-29.512979 3.970881,-29.755251 C 4.215925,-29.981161 4.565769,-30.11021 4.950408,-30.121363 C 5.381053,-30.13444 5.750961,-30.037021 6.002511,-29.808684 C 6.161618,-29.664257 6.275787,-29.475531 6.34502,-29.242505 L 5.47002,-29.242505 C 5.42518,-29.314642 5.369611,-29.370916 5.303311,-29.411326 C 5.223241,-29.459151 5.130541,-29.482874 5.025211,-29.482495 C 4.975118,-29.482554 4.927914,-29.478836 4.883599,-29.471339 C 4.780158,-29.454108 4.695471,-29.414761 4.629539,-29.353296 C 4.522947,-29.253744 4.474517,-29.093761 4.475016,-28.897502 M 5.53501,-28.372502 L 4.500016,-28.372502 Q 4.534044,-28.174971 4.666383,-28.063441 Q 4.801227,-27.951919 5.009703,-27.952498 Q 5.209506,-27.952072 5.351055,-28.068352 Q 5.49063,-28.184005 5.53501,-28.372502" />
      <path d="M 7.940007,-28.217505 L 8.454997,-28.217505 L 8.454997,-27.462492 L 7.940007,-27.462492 L 7.940007,-26.692505 L 7.03501,-26.692505 L 7.03501,-27.462492 L 6.73501,-27.462492 L 6.73501,-28.217505 L 7.03501,-28.217505 L 7.03501,-30.027498 L 7.940007,-30.027498 L 7.940007,-28.217505" />
      <path d="M -6.595003,-28.122502 L -6.28999,-27.532495 C -6.454346,-27.46457 -6.62295,-27.417504 -6.795802,-27.391299 C -6.982511,-27.363199 -7.181223,-27.359182 -7.360112,-27.383343 C -7.670123,-27.425786 -7.935728,-27.554262 -8.093023,-27.764307 C -8.203257,-27.910082 -8.26077,-28.094399 -8.259992,-28.295749 C -8.260345,-28.378329 -8.250285,-28.454739 -8.229812,-28.524979 C -8.202361,-28.618519 -8.155381,-28.698054 -8.088874,-28.763586 C -7.964529,-28.885299 -7.750212,-28.962915 -7.504997,-29.012492 C -7.347952,-29.044507 -7.24993,-29.069474 -7.193402,-29.104528 C -7.161443,-29.124621 -7.140995,-29.146833 -7.13206,-29.171164 C -7.124084,-29.192504 -7.120066,-29.219342 -7.120004,-29.251679 C -7.119914,-29.271748 -7.123158,-29.29057 -7.129737,-29.308146 C -7.145516,-29.349296 -7.178397,-29.383096 -7.22838,-29.409547 C -7.276004,-29.434348 -7.333442,-29.446994 -7.400694,-29.447485 C -7.446639,-29.447714 -7.493125,-29.444374 -7.540151,-29.437464 C -7.727277,-29.409758 -7.922227,-29.326434 -8.125,-29.187492 L -8.454997,-29.827498 C -8.1323,-30.017046 -7.781386,-30.124259 -7.425994,-30.122498 C -7.071172,-30.123267 -6.733688,-30.025863 -6.507051,-29.829997 C -6.419079,-29.753563 -6.349177,-29.662616 -6.297344,-29.557155 C -6.238819,-29.436183 -6.209704,-29.303806 -6.209996,-29.160025 C -6.209671,-29.09027 -6.217234,-29.023777 -6.232685,-28.960546 C -6.260965,-28.845856 -6.316004,-28.746373 -6.397802,-28.662096 C -6.530122,-28.525508 -6.729718,-28.442223 -6.954997,-28.397502 C -7.045487,-28.377402 -7.118802,-28.360536 -7.174941,-28.346905 C -7.278095,-28.32218 -7.329274,-28.289778 -7.349579,-28.25567 C -7.359974,-28.236513 -7.365112,-28.21038 -7.36499,-28.177271 C -7.364919,-28.124606 -7.342521,-28.082033 -7.297793,-28.049554 C -7.237762,-28.005509 -7.150151,-27.987587 -7.044197,-27.993441 C -6.897023,-28.00024 -6.747291,-28.04326 -6.595003,-28.122502" />
      <path d="M -5.85,-28.722502 C -5.850557,-28.934533 -5.810415,-29.129361 -5.729573,-29.306985 C -5.65131,-29.478267 -5.543144,-29.625504 -5.405075,-29.748696 C -5.268063,-29.870146 -5.107377,-29.962822 -4.923019,-30.026725 C -4.713886,-30.099914 -4.482584,-30.13003 -4.242624,-30.120963 C -4.027033,-30.113107 -3.82511,-30.072177 -3.636856,-29.998174 C -3.457609,-29.92782 -3.302979,-29.830355 -3.172966,-29.705779 C -3.048733,-29.586444 -2.950793,-29.446739 -2.879146,-29.286664 C -2.79729,-29.103825 -2.762329,-28.897975 -2.771334,-28.682107 C -2.77857,-28.501584 -2.818022,-28.334148 -2.88969,-28.179799 C -2.981175,-27.983936 -3.114045,-27.820371 -3.2883,-27.689103 C -3.41265,-27.595484 -3.552885,-27.521075 -3.709007,-27.465875 C -3.91942,-27.390982 -4.151308,-27.359798 -4.391303,-27.369081 C -4.586027,-27.376392 -4.768695,-27.412345 -4.939306,-27.47694 C -5.123524,-27.54651 -5.28399,-27.642569 -5.420705,-27.765118 C -5.55126,-27.882648 -5.654123,-28.02024 -5.729296,-28.177894 C -5.809939,-28.347204 -5.850173,-28.52874 -5.85,-28.722502 M -4.894987,-28.732495 C -4.896815,-28.573116 -4.823577,-28.426987 -4.721079,-28.321047 C -4.619278,-28.215981 -4.46685,-28.15133 -4.30954,-28.152498 C -4.145547,-28.151617 -3.98779,-28.221755 -3.885835,-28.334875 C -3.790377,-28.439415 -3.722856,-28.586064 -3.725001,-28.738398 C -3.723527,-28.909281 -3.800939,-29.062533 -3.909013,-29.169031 C -4.010274,-29.267962 -4.158283,-29.328693 -4.310428,-29.327498 C -4.473978,-29.328382 -4.631392,-29.258636 -4.733418,-29.145921 C -4.829155,-29.040733 -4.89695,-28.898381 -4.894987,-28.732495" />
      <path d="M -0.31499,-28.292505 L -0.31499,-27.522502 C -0.494076,-27.433322 -0.68698,-27.386759 -0.893702,-27.382812 C -1.104429,-27.378664 -1.303325,-27.413101 -1.49039,-27.486125 C -1.700554,-27.568412 -1.876534,-27.690398 -2.018328,-27.852082 C -2.111327,-27.958707 -2.186635,-28.079638 -2.24425,-28.214873 C -2.314961,-28.382596 -2.35021,-28.564324 -2.349998,-28.760056 C -2.350839,-28.964426 -2.311493,-29.151569 -2.231961,-29.321484 C -2.13446,-29.529991 -1.990206,-29.705469 -1.808822,-29.837455 C -1.579674,-30.004728 -1.289693,-30.100044 -0.99346,-30.106919 C -0.773371,-30.112627 -0.547214,-30.064485 -0.31499,-29.962492 L -0.31499,-29.192505 C -0.418749,-29.275468 -0.529945,-29.329137 -0.648579,-29.353512 C -0.778302,-29.379503 -0.9166,-29.369334 -1.034196,-29.322813 C -1.126202,-29.286919 -1.202785,-29.232971 -1.263944,-29.160969 C -1.355383,-29.053822 -1.411703,-28.91062 -1.409993,-28.751761 C -1.412625,-28.484411 -1.262296,-28.274438 -1.044209,-28.182321 C -0.958964,-28.146345 -0.866965,-28.129847 -0.768212,-28.132825 C -0.612732,-28.138512 -0.461658,-28.191739 -0.31499,-28.292505" />
      <path d="M 33.2,-33.8 L 40.45,-33.8 L 40.45,-22.2 L 33.2,-22.2 L 33.2,-25.1 L 32.595833,-24.6 L 31.991667,-25.1 L 31.3875,-24.6 L 30.783333,-25.1 L 30.179167,-24.6 L 29.575,-25.1 L 28.970833,-24.6 L 28.366667,-25.1 L 27.7625,-24.6 L 27.158333,-25.1 L 26.554167,-24.6 L 25.95,-25.1 L 25.95,-30.9 L 26.554167,-31.4 L 27.158333,-30.9 L 27.7625,-31.4 L 28.366667,-30.9 L 28.970833,-31.4 L 29.575,-30.9 L 30.179167,-31.4 L 30.783333,-30.9 L 31.3875,-31.4 L 31.991667,-30.9 L 32.595833,-31.4 L 33.2,-30.9 L 33.2,-33.8" />
      <path d="M -35.622222,-36.2 C -36.428953,-36.198609 -37.23214,-36.418016 -37.933887,-36.81572 C -38.321756,-37.035779 -38.675478,-37.301673 -38.995054,-37.6134 C -39.589719,-38.19172 -40.047601,-38.906257 -40.347301,-39.679831 C -40.633485,-40.417252 -40.77789,-41.208894 -40.777778,-42.0 C -40.77789,-42.791107 -40.633484,-43.582754 -40.347301,-44.320169 C -40.047601,-45.093743 -39.589719,-45.80828 -38.995054,-46.3866 C -38.675478,-46.698327 -38.321756,-46.964221 -37.933887,-47.18428 C -37.23214,-47.581984 -36.428953,-47.801391 -35.622222,-47.8 L -35.622222,-44.577778 L -25.622222,-44.577778 L -25.622222,-39.422222 L -35.622222,-39.422222 L -35.622222,-36.2" />
      <path d="M -0.947493,-41.462492 L -1.852507,-41.462492 L -1.852507,-43.082495 C -1.856773,-43.428804 -1.725827,-43.730391 -1.455992,-43.900518 C -1.202291,-44.065948 -0.853858,-44.122556 -0.4875,-44.122502 C -0.121142,-44.122556 0.227291,-44.065948 0.480992,-43.900518 C 0.750826,-43.730392 0.881773,-43.428804 0.877507,-43.082495 L 0.877507,-41.462492 L -0.027507,-41.462492 L -0.027507,-42.907495 C -0.026928,-43.056755 -0.063251,-43.188289 -0.149983,-43.271224 C -0.229865,-43.349491 -0.350622,-43.382987 -0.4875,-43.382495 C -0.624378,-43.382987 -0.745135,-43.349491 -0.825017,-43.271224 C -0.911749,-43.188289 -0.948072,-43.056755 -0.947493,-42.907495 L -0.947493,-41.462492" />
      <path d="M 1.492497,-41.462492 L 1.492497,-44.027498 L 2.39751,-44.027498 L 2.39751,-42.657495 C 2.396458,-42.488988 2.438273,-42.357063 2.522955,-42.261722 C 2.606346,-42.171669 2.722675,-42.126928 2.87194,-42.127499 C 2.984976,-42.128186 3.089935,-42.157024 3.169183,-42.239191 C 3.216279,-42.287688 3.24848,-42.350757 3.265784,-42.428398 C 3.284252,-42.513933 3.293156,-42.615299 3.292497,-42.732495 L 3.292497,-44.027498 L 4.19751,-44.027498 L 4.19751,-42.397502 Q 4.197765,-42.195693 4.157823,-42.033784 Q 4.117807,-41.872791 4.007503,-41.742505 Q 3.871396,-41.581255 3.677225,-41.493738 Q 3.480508,-41.406632 3.21811,-41.407495 Q 2.965455,-41.406598 2.769601,-41.486185 Q 2.5741,-41.56994 2.39751,-41.787492 L 2.39751,-41.462492 L 1.492497,-41.462492" />
      <path d="M 6.792513,-39.877498 L 6.792513,-41.717505 C 6.600284,-41.510166 6.343816,-41.394906 6.058055,-41.383857 C 5.850582,-41.374981 5.648965,-41.409799 5.470043,-41.492254 C 5.288888,-41.574987 5.13686,-41.692471 5.013958,-41.844707 C 4.905212,-41.980734 4.825091,-42.13539 4.773597,-42.308677 C 4.726835,-42.467411 4.706869,-42.631614 4.713698,-42.801285 C 4.724252,-43.128236 4.843617,-43.43792 5.043258,-43.669067 C 5.164356,-43.808987 5.308996,-43.91781 5.477179,-43.995537 C 5.640117,-44.070341 5.815732,-44.107659 6.004023,-44.107491 C 6.051682,-44.107629 6.098214,-44.10519 6.143621,-44.100172 C 6.405165,-44.072894 6.630814,-43.948806 6.792513,-43.742505 L 6.792513,-44.027498 L 7.702507,-44.027498 L 7.702507,-39.877498 L 6.792513,-39.877498 M 5.652507,-42.737492 C 5.6506,-42.580613 5.721497,-42.442503 5.820772,-42.336909 C 5.922345,-42.228746 6.076457,-42.161877 6.235952,-42.162494 C 6.38916,-42.161019 6.538073,-42.222265 6.639563,-42.322005 C 6.747352,-42.428211 6.824417,-42.584407 6.822509,-42.748154 C 6.824156,-42.907127 6.751056,-43.052899 6.648875,-43.158662 C 6.546542,-43.264446 6.393005,-43.329289 6.234649,-43.327493 C 6.072473,-43.327878 5.924253,-43.263872 5.822744,-43.160296 C 5.718857,-43.054238 5.651184,-42.904076 5.652507,-42.737492" />
      <path d="M -7.702507,-41.462492 L -7.702507,-44.027498 L -6.797493,-44.027498 L -6.797493,-42.927498 C -6.798379,-42.66437 -6.731647,-42.446737 -6.580673,-42.320643 C -6.486206,-42.24299 -6.366023,-42.200732 -6.220126,-42.193871 C -6.064464,-42.185405 -5.912309,-42.214459 -5.777507,-42.282495 L -5.777507,-41.417505 C -5.852413,-41.402937 -5.907087,-41.408623 -5.954849,-41.407497 C -6.129763,-41.407808 -6.284183,-41.444077 -6.418109,-41.516306 C -6.56885,-41.598283 -6.695311,-41.720346 -6.797493,-41.882495 L -6.797493,-41.462492 L -7.702507,-41.462492" />
      <path d="M -5.452507,-42.722502 C -5.453063,-42.934533 -5.412921,-43.129361 -5.33208,-43.306985 C -5.253816,-43.478267 -5.14565,-43.625504 -5.007582,-43.748696 C -4.870569,-43.870146 -4.709884,-43.962822 -4.525525,-44.026725 C -4.316393,-44.099914 -4.085091,-44.13003 -3.845131,-44.120963 C -3.629539,-44.113107 -3.427616,-44.072177 -3.239362,-43.998174 C -3.060116,-43.92782 -2.905486,-43.830355 -2.775472,-43.705779 C -2.65124,-43.586444 -2.5533,-43.446739 -2.481653,-43.286665 C -2.399797,-43.103825 -2.364835,-42.897975 -2.37384,-42.682107 C -2.381077,-42.501584 -2.420529,-42.334148 -2.492197,-42.179799 C -2.583681,-41.983936 -2.716551,-41.820371 -2.890806,-41.689104 C -3.015156,-41.595484 -3.155392,-41.521075 -3.311514,-41.465875 C -3.521926,-41.390982 -3.753814,-41.359798 -3.99381,-41.369081 C -4.188534,-41.376392 -4.371201,-41.412345 -4.541813,-41.47694 C -4.72603,-41.54651 -4.886497,-41.642569 -5.023212,-41.765118 C -5.153766,-41.882648 -5.25663,-42.02024 -5.331803,-42.177894 C -5.412445,-42.347204 -5.45268,-42.52874 -5.452507,-42.722502 M -4.497493,-42.732495 C -4.499322,-42.573116 -4.426083,-42.426987 -4.323585,-42.321047 C -4.221785,-42.215981 -4.069357,-42.15133 -3.912047,-42.152499 C -3.748054,-42.151617 -3.590297,-42.221755 -3.488342,-42.334875 C -3.392884,-42.439415 -3.325363,-42.586064 -3.327507,-42.738398 C -3.326034,-42.909281 -3.403446,-43.062533 -3.51152,-43.169031 C -3.61278,-43.267962 -3.76079,-43.328693 -3.912935,-43.327498 C -4.076485,-43.328382 -4.233899,-43.258636 -4.335924,-43.145921 C -4.431661,-43.040733 -4.499457,-42.898381 -4.497493,-42.732495" />
      <path d="M 34.65,-36.2 L 33.2,-36.2 L 33.2,-39.1 L 32.595833,-38.6 L 31.991667,-39.1 L 31.3875,-38.6 L 30.783333,-39.1 L 30.179167,-38.6 L 29.575,-39.1 L 28.970833,-38.6 L 28.366667,-39.1 L 27.7625,-38.6 L 27.158333,-39.1 L 26.554167,-38.6 L 25.95,-39.1 L 25.95,-44.9 L 26.554167,-45.4 L 27.158333,-44.9 L 27.7625,-45.4 L 28.366667,-44.9 L 28.970833,-45.4 L 29.575,-44.9 L 30.179167,-45.4 L 30.783333,-44.9 L 31.3875,-45.4 L 31.991667,-44.9 L 32.595833,-45.4 L 33.2,-44.9 L 33.2,-47.8 L 34.65,-47.8 A 5.8,5.8 -90.0 0,1 34.65,-36.2" />
      <path d="M -40.777778,-50.2 L -40.777778,-61.8 L -35.622222,-58.577778 L -25.622222,-58.577778 L -25.622222,-53.422222 L -35.622222,-53.422222 L -40.777778,-50.2" />
      <path d="M 7.350016,-55.462492 L 6.445003,-55.462492 L 6.445003,-57.082495 C 6.440736,-57.428804 6.571683,-57.730391 6.841518,-57.900518 C 7.095219,-58.065947 7.443652,-58.122556 7.81001,-58.122502 C 8.176368,-58.122556 8.524801,-58.065947 8.778501,-57.900518 C 9.048336,-57.730392 9.179283,-57.428804 9.175016,-57.082495 L 9.175016,-55.462492 L 8.270003,-55.462492 L 8.270003,-56.907495 C 8.270581,-57.056755 8.234259,-57.188289 8.147527,-57.271223 C 8.067645,-57.349491 7.946888,-57.382987 7.81001,-57.382495 C 7.673132,-57.382987 7.552375,-57.349491 7.472492,-57.271223 C 7.38576,-57.188289 7.349438,-57.056755 7.350016,-56.907495 L 7.350016,-55.462492" />
      <path d="M 9.790007,-55.462492 L 9.790007,-58.027498 L 10.69502,-58.027498 L 10.69502,-56.657495 C 10.693968,-56.488988 10.735783,-56.357063 10.820465,-56.261722 C 10.903856,-56.171669 11.020184,-56.126928 11.169449,-56.127499 C 11.282486,-56.128186 11.387445,-56.157024 11.466693,-56.239191 C 11.513789,-56.287688 11.54599,-56.350757 11.563294,-56.428398 C 11.581761,-56.513933 11.590665,-56.615299 11.590007,-56.732495 L 11.590007,-58.027498 L 12.49502,-58.027498 L 12.49502,-56.397502 Q 12.495275,-56.195693 12.455332,-56.033784 Q 12.415317,-55.872791 12.305013,-55.742505 Q 12.168906,-55.581255 11.974735,-55.493738 Q 11.778018,-55.406632 11.515619,-55.407495 Q 11.262965,-55.406598 11.067111,-55.486185 Q 10.87161,-55.56994 10.69502,-55.787492 L 10.69502,-55.462492 L 9.790007,-55.462492" />
      <path d="M 14.015023,-53.877498 L 13.11001,-53.877498 L 13.11001,-58.027498 L 14.015023,-58.027498 L 14.015023,-56.982495 L 15.01001,-58.027498 L 16.280013,-58.027498 L 14.92002,-56.647502 L 16.205013,-55.462492 L 14.965023,-55.462492 L 14.015023,-56.387492 L 14.015023,-53.877498" />
      <path d="M -14.245003,-56.292505 L -14.245003,-55.522502 C -14.424089,-55.433322 -14.616993,-55.386759 -14.823715,-55.382812 C -15.034442,-55.378664 -15.233338,-55.413101 -15.420403,-55.486125 C -15.630567,-55.568412 -15.806547,-55.690398 -15.948341,-55.852082 C -16.04134,-55.958707 -16.116648,-56.079638 -16.174263,-56.214873 C -16.244974,-56.382596 -16.280223,-56.564324 -16.280011,-56.760056 C -16.280852,-56.964426 -16.241506,-57.151569 -16.161974,-57.321484 C -16.064473,-57.529991 -15.920219,-57.705469 -15.738835,-57.837455 C -15.509687,-58.004728 -15.219706,-58.100044 -14.923473,-58.106919 C -14.703384,-58.112627 -14.477227,-58.064485 -14.245003,-57.962492 L -14.245003,-57.192505 C -14.348762,-57.275468 -14.459958,-57.329137 -14.578592,-57.353512 C -14.708315,-57.379503 -14.846614,-57.369334 -14.964209,-57.322813 C -15.056215,-57.286919 -15.132798,-57.232971 -15.193957,-57.160969 C -15.285396,-57.053822 -15.341716,-56.91062 -15.340006,-56.751761 C -15.342639,-56.484411 -15.192309,-56.274438 -14.974222,-56.182321 C -14.888977,-56.146345 -14.796978,-56.129847 -14.698225,-56.132825 C -14.542745,-56.138512 -14.391671,-56.191739 -14.245003,-56.292505" />
      <path d="M -13.830013,-56.722502 C -13.83057,-56.934533 -13.790428,-57.129361 -13.709586,-57.306985 C -13.631323,-57.478267 -13.523157,-57.625504 -13.385088,-57.748696 C -13.248076,-57.870146 -13.08739,-57.962822 -12.903032,-58.026725 C -12.693899,-58.099914 -12.462597,-58.13003 -12.222637,-58.120963 C -12.007046,-58.113107 -11.805123,-58.072177 -11.616869,-57.998174 C -11.437622,-57.92782 -11.282993,-57.830355 -11.152979,-57.705779 C -11.028746,-57.586444 -10.930806,-57.446739 -10.859159,-57.286664 C -10.777303,-57.103825 -10.742342,-56.897975 -10.751347,-56.682107 C -10.758583,-56.501584 -10.798035,-56.334148 -10.869703,-56.179799 C -10.961188,-55.983936 -11.094058,-55.820371 -11.268313,-55.689103 C -11.392663,-55.595484 -11.532898,-55.521075 -11.68902,-55.465875 C -11.899433,-55.390982 -12.131321,-55.359798 -12.371316,-55.369081 C -12.56604,-55.376392 -12.748708,-55.412345 -12.919319,-55.47694 C -13.103537,-55.54651 -13.264003,-55.642569 -13.400718,-55.765118 C -13.531273,-55.882648 -13.634136,-56.02024 -13.709309,-56.177894 C -13.789952,-56.347204 -13.830186,-56.52874 -13.830013,-56.722502 M -12.875,-56.732495 C -12.876829,-56.573116 -12.80359,-56.426987 -12.701092,-56.321047 C -12.599291,-56.215981 -12.446863,-56.15133 -12.289553,-56.152498 C -12.12556,-56.151617 -11.967803,-56.221755 -11.865848,-56.334875 C -11.77039,-56.439415 -11.702869,-56.586064 -11.705014,-56.738398 C -11.70354,-56.909281 -11.780952,-57.062533 -11.889026,-57.169031 C -11.990287,-57.267962 -12.138296,-57.328693 -12.290441,-57.327498 C -12.453991,-57.328382 -12.611405,-57.258636 -12.713431,-57.145921 C -12.809168,-57.040733 -12.876963,-56.898381 -12.875,-56.732495" />
      <path d="M -9.325,-55.462492 L -10.230013,-55.462492 L -10.230013,-57.082495 C -10.23428,-57.428804 -10.103333,-57.730391 -9.833498,-57.900518 C -9.579798,-58.065947 -9.231365,-58.122556 -8.865006,-58.122502 C -8.498648,-58.122556 -8.150215,-58.065947 -7.896515,-57.900518 C -7.626681,-57.730392 -7.495733,-57.428804 -7.5,-57.082495 L -7.5,-55.462492 L -8.405013,-55.462492 L -8.405013,-56.907495 C -8.404435,-57.056755 -8.440757,-57.188289 -8.527489,-57.271223 C -8.607372,-57.349491 -8.728128,-57.382987 -8.865006,-57.382495 C -9.001884,-57.382987 -9.122641,-57.349491 -9.202524,-57.271223 C -9.289256,-57.188289 -9.325578,-57.056755 -9.325,-56.907495 L -9.325,-55.462492" />
      <path d="M -6.88501,-55.462492 L -6.88501,-58.027498 L -5.979997,-58.027498 L -5.979997,-56.657495 C -5.981048,-56.488988 -5.939233,-56.357063 -5.854552,-56.261722 C -5.77116,-56.171669 -5.654832,-56.126928 -5.505567,-56.127499 C -5.392531,-56.128186 -5.287571,-56.157024 -5.208324,-56.239191 C -5.161227,-56.287688 -5.129027,-56.350757 -5.111722,-56.428398 C -5.093255,-56.513933 -5.084351,-56.615299 -5.08501,-56.732495 L -5.08501,-58.027498 L -4.179997,-58.027498 L -4.179997,-56.397502 Q -4.179742,-56.195693 -4.219684,-56.033784 Q -4.2597,-55.872791 -4.370003,-55.742505 Q -4.50611,-55.581255 -4.700282,-55.493738 Q -4.896999,-55.406632 -5.159397,-55.407495 Q -5.412052,-55.406598 -5.607906,-55.486185 Q -5.803406,-55.56994 -5.979997,-55.787492 L -5.979997,-55.462492 L -6.88501,-55.462492" />
      <path d="M -2.554997,-56.217505 L -2.040006,-56.217505 L -2.040006,-55.462492 L -2.554997,-55.462492 L -2.554997,-54.692505 L -3.459993,-54.692505 L -3.459993,-55.462492 L -3.759993,-55.462492 L -3.759993,-56.217505 L -3.459993,-56.217505 L -3.459993,-58.027498 L -2.554997,-58.027498 L -2.554997,-56.217505" />
      <path d="M -0.834993,-56.897502 L 1.070003,-56.897502 L 1.070003,-56.802498 C 1.071975,-56.374193 0.945413,-55.996295 0.697491,-55.744915 C 0.454514,-55.49487 0.089907,-55.365646 -0.324192,-55.367505 C -0.750288,-55.364933 -1.116382,-55.498815 -1.366963,-55.744413 C -1.616038,-55.98661 -1.752098,-56.346344 -1.749999,-56.7555 C -1.753321,-57.162285 -1.603715,-57.512979 -1.339128,-57.755251 C -1.094085,-57.981161 -0.74424,-58.11021 -0.359602,-58.121363 C 0.071043,-58.13444 0.440952,-58.037021 0.692501,-57.808684 C 0.851608,-57.664257 0.965777,-57.475531 1.03501,-57.242505 L 0.16001,-57.242505 C 0.115171,-57.314642 0.059601,-57.370916 -0.006698,-57.411326 C -0.086769,-57.459151 -0.179469,-57.482874 -0.284799,-57.482495 C -0.334892,-57.482554 -0.382096,-57.478836 -0.426411,-57.471339 C -0.529852,-57.454108 -0.614539,-57.414761 -0.680471,-57.353296 C -0.787063,-57.253744 -0.835493,-57.093761 -0.834993,-56.897502 M 0.225,-56.372502 L -0.809993,-56.372502 Q -0.775966,-56.174971 -0.643627,-56.063441 Q -0.508783,-55.951919 -0.300307,-55.952498 Q -0.100504,-55.952072 0.041046,-56.068352 Q 0.18062,-56.184005 0.225,-56.372502" />
      <path d="M 1.584994,-55.462492 L 1.584994,-58.027498 L 2.490007,-58.027498 L 2.490007,-56.927498 C 2.489121,-56.66437 2.555853,-56.446737 2.706827,-56.320643 C 2.801294,-56.24299 2.921477,-56.200732 3.067374,-56.193871 C 3.223036,-56.185405 3.375191,-56.214459 3.509994,-56.282495 L 3.509994,-55.417505 C 3.435087,-55.402937 3.380414,-55.408623 3.332651,-55.407497 C 3.157737,-55.407808 3.003317,-55.444077 2.869391,-55.516306 C 2.71865,-55.598283 2.592189,-55.720346 2.490007,-55.882495 L 2.490007,-55.462492 L 1.584994,-55.462492" />
      <path d="M 5.6,-56.122502 L 5.905013,-55.532495 C 5.740657,-55.46457 5.572053,-55.417504 5.399201,-55.391299 C 5.212492,-55.363199 5.01378,-55.359182 4.834891,-55.383343 C 4.52488,-55.425786 4.259275,-55.554262 4.101981,-55.764307 C 3.991747,-55.910082 3.934233,-56.094399 3.935011,-56.295749 C 3.934658,-56.378329 3.944718,-56.454739 3.965192,-56.524979 C 3.992643,-56.618519 4.039622,-56.698054 4.106129,-56.763586 C 4.230475,-56.885299 4.444791,-56.962915 4.690007,-57.012492 C 4.847051,-57.044507 4.945073,-57.069474 5.001602,-57.104528 C 5.033561,-57.124621 5.054008,-57.146833 5.062943,-57.171164 C 5.070919,-57.192504 5.074938,-57.219342 5.074999,-57.251679 C 5.07509,-57.271748 5.071845,-57.29057 5.065266,-57.308146 C 5.049487,-57.349296 5.016606,-57.383096 4.966623,-57.409547 C 4.918999,-57.434348 4.861562,-57.446994 4.79431,-57.447485 C 4.748364,-57.447714 4.701879,-57.444374 4.654852,-57.437464 C 4.467726,-57.409758 4.272776,-57.326434 4.070003,-57.187492 L 3.740007,-57.827498 C 4.062703,-58.017046 4.413618,-58.124259 4.769009,-58.122498 C 5.123831,-58.123267 5.461316,-58.025863 5.687952,-57.829997 C 5.775924,-57.753563 5.845826,-57.662616 5.897659,-57.557155 C 5.956184,-57.436183 5.9853,-57.303806 5.985007,-57.160025 C 5.985332,-57.09027 5.977769,-57.023777 5.962318,-56.960546 C 5.934038,-56.845856 5.878999,-56.746373 5.797201,-56.662096 C 5.664882,-56.525508 5.465285,-56.442223 5.240007,-56.397502 C 5.149516,-56.377402 5.076202,-56.360536 5.020063,-56.346905 C 4.916908,-56.32218 4.86573,-56.289778 4.845425,-56.25567 C 4.835029,-56.236513 4.829892,-56.21038 4.830013,-56.177271 C 4.830084,-56.124606 4.852483,-56.082033 4.89721,-56.049554 C 4.957241,-56.005509 5.044852,-55.987587 5.150806,-55.993441 C 5.297981,-56.00024 5.447712,-56.04326 5.6,-56.122502" />
      <path d="M 33.2,-58.9 L 40.45,-61.8 L 40.45,-50.2 L 33.2,-53.1 L 32.595833,-52.6 L 31.991667,-53.1 L 31.3875,-52.6 L 30.783333,-53.1 L 30.179167,-52.6 L 29.575,-53.1 L 28.970833,-52.6 L 28.366667,-53.1 L 27.7625,-52.6 L 27.158333,-53.1 L 26.554167,-52.6 L 25.95,-53.1 L 25.95,-58.9 L 26.554167,-59.4 L 27.158333,-58.9 L 27.7625,-59.4 L 28.366667,-58.9 L 28.970833,-59.4 L 29.575,-58.9 L 30.179167,-59.4 L 30.783333,-58.9 L 31.3875,-59.4 L 31.991667,-58.9 L 32.595833,-59.4 L 33.2,-58.9" />
      <path d="M -38.777778,-64.2 A 2.0,2.0 0.0 0,1 -40.777778,-66.2 L -40.777778,-73.8 A 2.0,2.0 0.0 0,1 -38.777778,-75.8 L -35.622222,-75.8 L -35.622222,-72.577778 L -28.2,-72.577778 L -25.622222,-70.0 L -28.2,-67.422222 L -35.622222,-67.422222 L -35.622222,-64.2 L -38.777778,-64.2" />
      <path d="M 2.394995,-67.834993 C 2.39362,-67.556441 2.626409,-67.323589 2.905054,-67.325 C 3.183583,-67.323633 3.416399,-67.556472 3.414998,-67.834993 C 3.416398,-68.11352 3.183578,-68.346354 2.905054,-68.344987 C 2.626472,-68.346418 2.393597,-68.113553 2.394995,-67.834993" />
      <path d="M 3.979989,-68.819987 L 3.979989,-71.384993 L 4.885002,-71.384993 L 4.885002,-70.01499 C 4.88395,-69.846483 4.925765,-69.714559 5.010447,-69.619217 C 5.093838,-69.529164 5.210166,-69.484423 5.359431,-69.484994 C 5.472468,-69.485681 5.577427,-69.514519 5.656675,-69.596686 C 5.703771,-69.645183 5.735972,-69.708252 5.753276,-69.785893 C 5.771743,-69.871428 5.780647,-69.972794 5.779989,-70.08999 L 5.779989,-71.384993 L 6.685002,-71.384993 L 6.685002,-69.754997 Q 6.685257,-69.553188 6.645314,-69.391279 Q 6.605299,-69.230287 6.494995,-69.1 Q 6.358888,-68.93875 6.164717,-68.851233 Q 5.968,-68.764127 5.705601,-68.76499 Q 5.452947,-68.764093 5.257093,-68.843681 Q 5.061592,-68.927435 4.885002,-69.144987 L 4.885002,-68.819987 L 3.979989,-68.819987" />
      <path d="M 10.169995,-68.819987 L 9.264998,-68.819987 L 9.264998,-69.08999 C 9.075494,-68.879132 8.825004,-68.759519 8.545645,-68.75087 C 8.34178,-68.743621 8.151181,-68.78048 7.973848,-68.861445 C 7.678412,-68.995334 7.451224,-69.24018 7.320402,-69.543362 C 7.239389,-69.72912 7.199253,-69.928371 7.199992,-70.141114 C 7.199232,-70.332261 7.231152,-70.510482 7.295752,-70.675776 C 7.410334,-70.970263 7.630684,-71.199051 7.914319,-71.324633 C 8.080186,-71.398567 8.259468,-71.435353 8.452166,-71.434991 C 8.514727,-71.43515 8.574444,-71.431867 8.631317,-71.425144 C 8.868505,-71.398332 9.063249,-71.291182 9.264998,-71.1 L 9.264998,-71.344987 C 9.266238,-71.529902 9.216025,-71.677587 9.114357,-71.788039 C 9.011553,-71.894593 8.869804,-71.948546 8.689112,-71.949901 C 8.467595,-71.955225 8.307848,-71.870455 8.244995,-71.694987 L 7.224992,-71.694987 C 7.277183,-71.976176 7.447918,-72.221849 7.696775,-72.395501 C 7.935684,-72.562167 8.253657,-72.664526 8.608489,-72.673913 C 8.800688,-72.680103 8.981891,-72.662211 9.152097,-72.620238 C 9.303116,-72.582359 9.440094,-72.528855 9.563032,-72.459728 C 9.806539,-72.322819 9.993505,-72.121725 10.074992,-71.894987 Q 10.168643,-71.629206 10.169995,-71.209993 L 10.169995,-68.819987 M 8.139998,-70.08999 C 8.138345,-69.93817 8.204267,-69.796461 8.302187,-69.695297 C 8.409448,-69.586122 8.560688,-69.507849 8.72643,-69.509995 C 8.879136,-69.509399 9.034253,-69.576196 9.138812,-69.68384 C 9.241582,-69.789298 9.311237,-69.930546 9.31,-70.093381 C 9.31215,-70.258525 9.234244,-70.415783 9.125177,-70.522309 C 9.017923,-70.626774 8.859097,-70.687634 8.698009,-70.679464 C 8.545676,-70.674139 8.406643,-70.611168 8.310253,-70.512811 C 8.206314,-70.406719 8.138669,-70.256493 8.139998,-70.08999" />
      <path d="M -8.964998,-69.575 L -8.450008,-69.575 L -8.450008,-68.819987 L -8.964998,-68.819987 L -8.964998,-68.05 L -9.869995,-68.05 L -9.869995,-68.819987 L -10.169995,-68.819987 L -10.169995,-69.575 L -9.869995,-69.575 L -9.869995,-71.384993 L -8.964998,-71.384993 L -8.964998,-69.575" />
      <path d="M -6.079989,-68.819987 L -6.079989,-69.075 C -6.271016,-68.869008 -6.525424,-68.753798 -6.809044,-68.74161 C -7.017975,-68.731865 -7.221153,-68.766426 -7.40002,-68.849805 C -7.573702,-68.930027 -7.720978,-69.042711 -7.841846,-69.187856 C -8.045661,-69.43255 -8.16231,-69.762214 -8.160001,-70.096277 C -8.160513,-70.290483 -8.127409,-70.47326 -8.06069,-70.644609 C -7.942632,-70.94908 -7.719634,-71.197859 -7.435759,-71.336593 C -7.261373,-71.422596 -7.071636,-71.465395 -6.866548,-71.464989 C -6.817245,-71.465062 -6.769177,-71.462373 -6.722346,-71.456923 C -6.463434,-71.428334 -6.240442,-71.30459 -6.079989,-71.1 L -6.079989,-71.384993 L -5.169995,-71.384993 L -5.169995,-68.819987 L -6.079989,-68.819987 M -7.219995,-70.094987 C -7.221379,-69.937908 -7.156179,-69.799533 -7.056237,-69.69389 C -6.953858,-69.585696 -6.802034,-69.519016 -6.635388,-69.519987 C -6.471329,-69.518883 -6.313508,-69.588808 -6.211385,-69.701766 C -6.115811,-69.806171 -6.048095,-69.952714 -6.049992,-70.104997 C -6.048159,-70.264339 -6.121399,-70.410472 -6.223887,-70.516423 C -6.325674,-70.621499 -6.4781,-70.686142 -6.635388,-70.684993 C -6.794161,-70.686019 -6.939975,-70.625152 -7.041527,-70.525985 C -7.150309,-70.419338 -7.22127,-70.265855 -7.219995,-70.094987" />
      <path d="M -3.649992,-72.66499 L -3.649992,-71.134993 C -3.454878,-71.338896 -3.197846,-71.45218 -2.912559,-71.463557 C -2.708804,-71.472818 -2.50976,-71.438008 -2.331457,-71.356141 C -2.147627,-71.272234 -1.992882,-71.151685 -1.867223,-70.994495 C -1.674214,-70.754114 -1.561835,-70.439578 -1.564999,-70.109054 C -1.562823,-69.761934 -1.684682,-69.424875 -1.900139,-69.178379 C -2.022768,-69.038333 -2.169531,-68.929113 -2.340428,-68.850719 C -2.501495,-68.777123 -2.673059,-68.740216 -2.855121,-68.739999 C -2.90574,-68.7398 -2.955091,-68.742454 -3.003173,-68.747959 C -3.263763,-68.776086 -3.489492,-68.900007 -3.649992,-69.104997 L -3.649992,-68.819987 L -4.555005,-68.819987 L -4.555005,-72.66499 L -3.649992,-72.66499 M -2.510002,-70.109993 C -2.508168,-70.259607 -2.579009,-70.405753 -2.678236,-70.510542 C -2.780346,-70.618656 -2.928445,-70.68561 -3.088352,-70.684991 C -3.249699,-70.687227 -3.403696,-70.612518 -3.509785,-70.507798 C -3.612825,-70.405848 -3.676232,-70.260541 -3.674992,-70.10441 C -3.67657,-69.943224 -3.601403,-69.789394 -3.496344,-69.683736 C -3.388169,-69.574971 -3.231403,-69.511481 -3.065266,-69.52067 C -2.904745,-69.527251 -2.761248,-69.602644 -2.66075,-69.709784 C -2.563515,-69.81378 -2.509447,-69.959173 -2.510002,-70.109993" />
      <path d="M -0.144995,-72.66499 L -0.144995,-71.134993 C 0.050118,-71.338896 0.30715,-71.45218 0.592437,-71.463557 C 0.796192,-71.472818 0.995236,-71.438008 1.17354,-71.356141 C 1.35737,-71.272234 1.512114,-71.151685 1.637774,-70.994495 C 1.830783,-70.754114 1.943161,-70.439578 1.939998,-70.109054 C 1.942174,-69.761934 1.820315,-69.424875 1.604858,-69.178379 C 1.482229,-69.038333 1.335466,-68.929113 1.164568,-68.850719 C 1.003502,-68.777123 0.831938,-68.740216 0.649876,-68.739999 C 0.599257,-68.7398 0.549906,-68.742454 0.501823,-68.747959 C 0.241233,-68.776086 0.015505,-68.900007 -0.144995,-69.104997 L -0.144995,-68.819987 L -1.050008,-68.819987 L -1.050008,-72.66499 L -0.144995,-72.66499 M 0.994995,-70.109993 C 0.996829,-70.259607 0.925988,-70.405753 0.826761,-70.510542 C 0.724651,-70.618656 0.576552,-70.68561 0.416644,-70.684991 C 0.255297,-70.687227 0.101301,-70.612518 -0.004788,-70.507798 C -0.107828,-70.405848 -0.171236,-70.260541 -0.169995,-70.10441 C -0.171573,-69.943224 -0.096407,-69.789394 0.008653,-69.683736 C 0.116828,-69.574971 0.273594,-69.511481 0.43973,-69.52067 C 0.600251,-69.527251 0.743749,-69.602644 0.844247,-69.709784 C 0.941482,-69.81378 0.99555,-69.959173 0.994995,-70.109993" />
      <path d="M 3.360002,-68.819987 L 2.454989,-68.819987 L 2.454989,-71.384993 L 3.360002,-71.384993 L 3.360002,-68.819987" />
      <path d="M 40.45,-66.2 A 2.0,2.0 0.0 0,1 38.45,-64.2 L 33.2,-64.2 L 33.2,-67.1 L 32.595833,-66.6 L 31.991667,-67.1 L 31.3875,-66.6 L 30.783333,-67.1 L 30.179167,-66.6 L 29.575,-67.1 L 28.970833,-66.6 L 28.366667,-67.1 L 28.166667,-67.1 L 25.95,-70.0 L 28.166667,-72.9 L 28.366667,-72.9 L 28.970833,-73.4 L 29.575,-72.9 L 30.179167,-73.4 L 30.783333,-72.9 L 31.3875,-73.4 L 31.991667,-72.9 L 32.595833,-73.4 L 33.2,-72.9 L 33.2,-75.8 L 38.45,-75.8 A 2.0,2.0 0.0 0,1 40.45,-73.8 L 40.45,-66.2" />
      <path d="M -25.622222,-80.2 A 2.0,2.0 180.0 0,1 -27.622222,-78.2 L -30.777778,-78.2 L -30.777778,-81.422222 L -40.777778,-81.422222 L -40.777778,-86.577778 L -30.777778,-86.577778 L -30.777778,-89.8 L -27.622222,-89.8 A 2.0,2.0 180.0 0,1 -25.622222,-87.8 L -25.622222,-80.2" />
      <path d="M 0.512508,-86.742497 L 0.512508,-85.2125 C 0.707622,-85.416403 0.964654,-85.529686 1.249941,-85.541064 C 1.453696,-85.550325 1.65274,-85.515514 1.831043,-85.433648 C 2.014873,-85.34974 2.169618,-85.229192 2.295277,-85.072001 C 2.488287,-84.83162 2.600665,-84.517085 2.597501,-84.18656 C 2.599677,-83.839441 2.477818,-83.502381 2.262361,-83.255886 C 2.139732,-83.115839 1.992969,-83.006619 1.822072,-82.928225 C 1.661005,-82.854629 1.489441,-82.817722 1.30738,-82.817505 C 1.25676,-82.817307 1.207409,-82.81996 1.159327,-82.825466 C 0.898737,-82.853593 0.673008,-82.977514 0.512508,-83.182503 L 0.512508,-82.897493 L -0.392505,-82.897493 L -0.392505,-86.742497 L 0.512508,-86.742497 M 1.652498,-84.1875 C 1.654332,-84.337113 1.583491,-84.48326 1.484264,-84.588049 C 1.382154,-84.696162 1.234055,-84.763117 1.074148,-84.762498 C 0.912801,-84.764733 0.758804,-84.690024 0.652715,-84.585304 C 0.549675,-84.483354 0.486268,-84.338048 0.487508,-84.181917 C 0.48593,-84.02073 0.561097,-83.8669 0.666157,-83.761243 C 0.774331,-83.652478 0.931098,-83.588988 1.097234,-83.598177 C 1.257755,-83.604757 1.401252,-83.68015 1.501751,-83.78729 C 1.598985,-83.891286 1.653053,-84.03668 1.652498,-84.1875" />
      <path d="M 3.927498,-84.332503 L 5.832495,-84.332503 L 5.832495,-84.2375 C 5.834467,-83.809194 5.707905,-83.431296 5.459983,-83.179916 C 5.217006,-82.929872 4.852399,-82.800648 4.438299,-82.802507 C 4.012204,-82.799934 3.64611,-82.933817 3.395529,-83.179414 C 3.146454,-83.421611 3.010394,-83.781346 3.012493,-84.190502 C 3.009171,-84.597287 3.158777,-84.947981 3.423363,-85.190253 C 3.668407,-85.416163 4.018251,-85.545211 4.40289,-85.556364 C 4.833535,-85.569442 5.203443,-85.472023 5.454993,-85.243685 C 5.6141,-85.099259 5.728269,-84.910533 5.797502,-84.677507 L 4.922502,-84.677507 C 4.877662,-84.749644 4.822093,-84.805918 4.755793,-84.846328 C 4.675723,-84.894153 4.583023,-84.917876 4.477693,-84.917497 C 4.4276,-84.917556 4.380396,-84.913837 4.336081,-84.906341 C 4.23264,-84.88911 4.147953,-84.849762 4.082021,-84.788298 C 3.975429,-84.688745 3.926999,-84.528763 3.927498,-84.332503 M 4.987492,-83.807503 L 3.952498,-83.807503 Q 3.986526,-83.609973 4.118865,-83.498443 Q 4.253709,-83.386921 4.462185,-83.3875 Q 4.661988,-83.387074 4.803538,-83.503354 Q 4.943112,-83.619007 4.987492,-83.807503" />
      <path d="M 8.327498,-81.3125 L 8.327498,-83.152507 C 8.135269,-82.945168 7.878801,-82.829908 7.59304,-82.818859 C 7.385567,-82.809983 7.183951,-82.844801 7.005028,-82.927256 C 6.823874,-83.009989 6.671845,-83.127473 6.548943,-83.279708 C 6.440197,-83.415735 6.360077,-83.570392 6.308582,-83.743679 C 6.26182,-83.902413 6.241854,-84.066615 6.248683,-84.236287 C 6.259237,-84.563238 6.378602,-84.872921 6.578243,-85.104068 C 6.699341,-85.243988 6.843982,-85.352812 7.012165,-85.430538 C 7.175103,-85.505343 7.350718,-85.542661 7.539009,-85.542493 C 7.586667,-85.542631 7.633199,-85.540191 7.678606,-85.535174 C 7.940151,-85.507896 8.1658,-85.383808 8.327498,-85.177507 L 8.327498,-85.4625 L 9.237492,-85.4625 L 9.237492,-81.3125 L 8.327498,-81.3125 M 7.187492,-84.172493 C 7.185585,-84.015614 7.256483,-83.877505 7.355757,-83.77191 C 7.457331,-83.663747 7.611442,-83.596878 7.770937,-83.597495 C 7.924145,-83.596021 8.073058,-83.657267 8.174549,-83.757007 C 8.282337,-83.863212 8.359402,-84.019408 8.357495,-84.183155 C 8.359142,-84.342129 8.286041,-84.4879 8.18386,-84.593663 C 8.081528,-84.699448 7.92799,-84.76429 7.769634,-84.762494 C 7.607458,-84.76288 7.459238,-84.698874 7.35773,-84.595297 C 7.253842,-84.48924 7.18617,-84.339077 7.187492,-84.172493" />
      <path d="M -8.007479,-83.652507 L -7.372485,-83.652507 L -7.372485,-82.897493 L -8.007479,-82.897493 L -8.007479,-82.577507 C -8.007571,-82.46823 -8.002305,-82.379192 -7.991682,-82.310395 C -7.981096,-82.24022 -7.959441,-82.185856 -7.926718,-82.147306 C -7.864135,-82.071975 -7.785021,-82.056429 -7.714293,-82.052707 C -7.59388,-82.050309 -7.49833,-82.080583 -7.372485,-82.142497 L -7.372485,-81.352507 C -7.50841,-81.292689 -7.62922,-81.256466 -7.785322,-81.257507 C -7.951422,-81.257169 -8.131562,-81.303579 -8.292965,-81.384235 C -8.410527,-81.443078 -8.515298,-81.518236 -8.607278,-81.609711 C -8.721142,-81.723203 -8.808181,-81.857548 -8.852482,-82.002507 Q -8.913947,-82.205131 -8.912492,-82.5125 L -8.912492,-82.897493 L -9.237492,-82.897493 L -9.237492,-83.652507 L -8.912492,-83.652507 L -8.912492,-85.4625 L -8.007479,-85.4625 L -8.007479,-83.652507" />
      <path d="M -6.042489,-81.3125 L -6.947502,-81.3125 L -6.947502,-85.4625 L -6.042489,-85.4625 L -6.042489,-81.3125" />
      <path d="M -5.482495,-81.9125 C -5.48387,-81.633948 -5.251081,-81.401096 -4.972437,-81.402507 C -4.693907,-81.40114 -4.461091,-81.633979 -4.462492,-81.9125 C -4.461092,-82.191026 -4.693912,-82.423861 -4.972437,-82.422493 C -5.251018,-82.423924 -5.483894,-82.19106 -5.482495,-81.9125" />
      <path d="M -4.517489,-82.897493 L -5.422502,-82.897493 L -5.422502,-85.4625 L -4.517489,-85.4625 L -4.517489,-82.897493" />
      <path d="M -2.992489,-86.742497 L -2.992489,-85.2125 C -2.797375,-85.416403 -2.540343,-85.529686 -2.255056,-85.541064 C -2.051301,-85.550325 -1.852257,-85.515514 -1.673953,-85.433648 C -1.490124,-85.34974 -1.335379,-85.229192 -1.20972,-85.072001 C -1.01671,-84.83162 -0.904332,-84.517085 -0.907495,-84.18656 C -0.90532,-83.839441 -1.027178,-83.502381 -1.242636,-83.255886 C -1.365264,-83.115839 -1.512027,-83.006619 -1.682925,-82.928225 C -1.843992,-82.854629 -2.015556,-82.817722 -2.197617,-82.817505 C -2.248237,-82.817307 -2.297588,-82.81996 -2.34567,-82.825466 C -2.60626,-82.853593 -2.831989,-82.977514 -2.992489,-83.182503 L -2.992489,-82.897493 L -3.897502,-82.897493 L -3.897502,-86.742497 L -2.992489,-86.742497 M -1.852498,-84.1875 C -1.850665,-84.337113 -1.921506,-84.48326 -2.020733,-84.588049 C -2.122843,-84.696162 -2.270942,-84.763117 -2.430849,-84.762498 C -2.592196,-84.764733 -2.746192,-84.690024 -2.852282,-84.585304 C -2.955321,-84.483354 -3.018729,-84.338048 -3.017488,-84.181917 C -3.019067,-84.02073 -2.9439,-83.8669 -2.83884,-83.761243 C -2.730666,-83.652478 -2.573899,-83.588988 -2.407763,-83.598177 C -2.247242,-83.604757 -2.103744,-83.68015 -2.003246,-83.78729 C -1.906011,-83.891286 -1.851944,-84.03668 -1.852498,-84.1875" />
      <path d="M 27.95,-78.2 A 2.0,2.0 180.0 0,1 25.95,-80.2 L 25.95,-87.8 A 2.0,2.0 180.0 0,1 27.95,-89.8 L 33.2,-89.8 L 33.2,-86.9 L 33.804167,-87.4 L 34.408333,-86.9 L 35.0125,-87.4 L 35.616667,-86.9 L 36.220833,-87.4 L 36.825,-86.9 L 37.429167,-87.4 L 38.033333,-86.9 L 38.6375,-87.4 L 39.241667,-86.9 L 39.845833,-87.4 L 40.45,-86.9 L 40.45,-81.1 L 39.845833,-80.6 L 39.241667,-81.1 L 38.6375,-80.6 L 38.033333,-81.1 L 37.429167,-80.6 L 36.825,-81.1 L 36.220833,-80.6 L 35.616667,-81.1 L 35.0125,-80.6 L 34.408333,-81.1 L 33.804167,-80.6 L 33.2,-81.1 L 33.2,-78.2 L 27.95,-78.2" />
      <path d="M -35.622222,-95.422222 L -35.622222,-92.2 L -38.777778,-92.2 A 2.0,2.0 0.0 0,1 -40.777778,-94.2 L -40.777778,-96.711111 L -38.2,-96.711111 L -38.2,-99.288889 L -40.777778,-99.288889 L -40.777778,-101.8 A 2.0,2.0 0.0 0,1 -38.777778,-103.8 L -35.622222,-103.8 L -35.622222,-100.577778 L -25.622222,-100.577778 L -25.622222,-95.422222 L -35.622222,-95.422222" />
      <path d="M -1.024992,-95.877498 L -1.930005,-95.877498 L -1.930005,-100.027498 L -1.024992,-100.027498 L -1.024992,-95.877498" />
      <path d="M -0.505005,-98.722502 C -0.505562,-98.934533 -0.465419,-99.129361 -0.384578,-99.306985 C -0.306315,-99.478267 -0.198149,-99.625504 -0.06008,-99.748696 C 0.076932,-99.870146 0.237618,-99.962822 0.421977,-100.026725 C 0.631109,-100.099914 0.862411,-100.13003 1.102371,-100.120963 C 1.317962,-100.113107 1.519885,-100.072177 1.708139,-99.998174 C 1.887386,-99.92782 2.042016,-99.830355 2.172029,-99.705779 C 2.296262,-99.586444 2.394202,-99.446739 2.465849,-99.286664 C 2.547705,-99.103825 2.582666,-98.897975 2.573661,-98.682107 C 2.566425,-98.501584 2.526973,-98.334148 2.455305,-98.179799 C 2.36382,-97.983936 2.23095,-97.820371 2.056695,-97.689103 C 1.932345,-97.595484 1.79211,-97.521075 1.635988,-97.465875 C 1.425576,-97.390982 1.193687,-97.359798 0.953692,-97.369081 C 0.758968,-97.376392 0.5763,-97.412345 0.405689,-97.47694 C 0.221471,-97.54651 0.061005,-97.642569 -0.07571,-97.765118 C -0.206264,-97.882648 -0.309128,-98.02024 -0.384301,-98.177894 C -0.464944,-98.347204 -0.505178,-98.52874 -0.505005,-98.722502 M 0.450008,-98.732495 C 0.44818,-98.573116 0.521418,-98.426987 0.623917,-98.321047 C 0.725717,-98.215981 0.878145,-98.15133 1.035455,-98.152498 C 1.199448,-98.151617 1.357205,-98.221755 1.45916,-98.334875 C 1.554618,-98.439415 1.622139,-98.586064 1.619995,-98.738398 C 1.621468,-98.909281 1.544056,-99.062533 1.435982,-99.169031 C 1.334721,-99.267962 1.186712,-99.328693 1.034567,-99.327498 C 0.871017,-99.328382 0.713603,-99.258636 0.611577,-99.145921 C 0.51584,-99.040733 0.448045,-98.898381 0.450008,-98.732495" />
      <path d="M 4.120011,-98.217505 L 4.635002,-98.217505 L 4.635002,-97.462492 L 4.120011,-97.462492 L 4.120011,-96.692505 L 3.215015,-96.692505 L 3.215015,-97.462492 L 2.915015,-97.462492 L 2.915015,-98.217505 L 3.215015,-98.217505 L 3.215015,-100.027498 L 4.120011,-100.027498 L 4.120011,-98.217505" />
      <path d="M -2.775008,-98.122502 L -2.469995,-97.532495 C -2.634351,-97.46457 -2.802955,-97.417504 -2.975807,-97.391299 C -3.162516,-97.363199 -3.361228,-97.359182 -3.540117,-97.383343 C -3.850128,-97.425786 -4.115733,-97.554262 -4.273028,-97.764307 C -4.383261,-97.910082 -4.440775,-98.094399 -4.439997,-98.295749 C -4.44035,-98.378329 -4.43029,-98.454739 -4.409816,-98.524979 C -4.382366,-98.618519 -4.335386,-98.698054 -4.268879,-98.763586 C -4.144533,-98.885299 -3.930217,-98.962915 -3.685002,-99.012492 C -3.527957,-99.044507 -3.429935,-99.069474 -3.373407,-99.104528 C -3.341448,-99.124621 -3.321,-99.146833 -3.312065,-99.171164 C -3.304089,-99.192504 -3.300071,-99.219342 -3.300009,-99.251679 C -3.299919,-99.271748 -3.303163,-99.29057 -3.309742,-99.308146 C -3.325521,-99.349296 -3.358402,-99.383096 -3.408385,-99.409547 C -3.456009,-99.434348 -3.513447,-99.446994 -3.580698,-99.447485 C -3.626644,-99.447714 -3.673129,-99.444374 -3.720156,-99.437464 C -3.907282,-99.409758 -4.102232,-99.326434 -4.305005,-99.187492 L -4.635002,-99.827498 C -4.312305,-100.017046 -3.961391,-100.124259 -3.605999,-100.122498 C -3.251177,-100.123267 -2.913693,-100.025863 -2.687056,-99.829997 C -2.599084,-99.753563 -2.529182,-99.662616 -2.477349,-99.557155 C -2.418824,-99.436183 -2.389708,-99.303806 -2.390001,-99.160025 C -2.389676,-99.09027 -2.397239,-99.023777 -2.41269,-98.960546 C -2.44097,-98.845856 -2.496009,-98.746373 -2.577807,-98.662096 C -2.710126,-98.525508 -2.909723,-98.442223 -3.135002,-98.397502 C -3.225492,-98.377402 -3.298807,-98.360536 -3.354945,-98.346905 C -3.4581,-98.32218 -3.509279,-98.289778 -3.529583,-98.25567 C -3.539979,-98.236513 -3.545116,-98.21038 -3.544995,-98.177271 C -3.544924,-98.124606 -3.522525,-98.082033 -3.477798,-98.049554 C -3.417767,-98.005509 -3.330156,-97.987587 -3.224202,-97.993441 C -3.077027,-98.00024 -2.927296,-98.04326 -2.775008,-98.122502" />
      <path d="M -36.911111,-106.2 L -36.911111,-107.918519 L -38.777778,-107.918519 A 2.0,2.0 0.0 0,1 -40.777778,-109.918519 L -40.777778,-114.081481 A 2.0,2.0 0.0 0,1 -38.777778,-116.081481 L -36.911111,-116.081481 L -36.911111,-117.8 L -35.622222,-117.8 L -35.622222,-114.577778 L -25.622222,-114.577778 L -25.622222,-109.422222 L -35.622222,-109.422222 L -35.622222,-106.2 L -36.911111,-106.2" />
      <path d="M 9.245003,-110.892489 L 8.340007,-110.892489 L 8.340007,-111.162492 C 8.150503,-110.951633 7.900012,-110.83202 7.620653,-110.823371 C 7.416788,-110.816123 7.226189,-110.852982 7.048856,-110.933947 C 6.75342,-111.067835 6.526233,-111.312681 6.39541,-111.615864 C 6.314397,-111.801622 6.274261,-112.000873 6.275,-112.213616 C 6.27424,-112.404763 6.30616,-112.582983 6.37076,-112.748277 C 6.485342,-113.042765 6.705692,-113.271552 6.989328,-113.397134 C 7.155194,-113.471069 7.334476,-113.507855 7.527174,-113.507493 C 7.589735,-113.507651 7.649452,-113.504369 7.706325,-113.497646 C 7.943514,-113.470834 8.138257,-113.363684 8.340007,-113.172502 L 8.340007,-113.417489 C 8.341247,-113.602404 8.291033,-113.750088 8.189365,-113.860541 C 8.086561,-113.967094 7.944813,-114.021048 7.764121,-114.022402 C 7.542603,-114.027727 7.382857,-113.942956 7.320003,-113.767489 L 6.3,-113.767489 C 6.352192,-114.048678 6.522926,-114.294351 6.771783,-114.468003 C 7.010693,-114.634669 7.328665,-114.737028 7.683498,-114.746414 C 7.875696,-114.752604 8.056899,-114.734713 8.227105,-114.69274 C 8.378124,-114.65486 8.515102,-114.601357 8.638041,-114.53223 C 8.881547,-114.395321 9.068514,-114.194227 9.15,-113.967489 Q 9.243651,-113.701708 9.245003,-113.282495 L 9.245003,-110.892489 M 7.215007,-112.162492 C 7.213354,-112.010671 7.279275,-111.868962 7.377195,-111.767799 C 7.484456,-111.658624 7.635696,-111.580351 7.801438,-111.582497 C 7.954144,-111.581901 8.109261,-111.648698 8.21382,-111.756342 C 8.31659,-111.8618 8.386245,-112.003048 8.385008,-112.165883 C 8.387158,-112.331027 8.309252,-112.488284 8.200185,-112.594811 C 8.092932,-112.699275 7.934105,-112.760135 7.773017,-112.751966 C 7.620684,-112.746641 7.481652,-112.68367 7.385261,-112.585313 C 7.281322,-112.47922 7.213677,-112.328995 7.215007,-112.162492" />
      <path d="M 10.734993,-112.327498 L 12.63999,-112.327498 L 12.63999,-112.232495 C 12.641962,-111.80419 12.5154,-111.426292 12.267478,-111.174912 C 12.024501,-110.924867 11.659894,-110.795643 11.245795,-110.797502 C 10.819699,-110.79493 10.453605,-110.928812 10.203024,-111.17441 C 9.953949,-111.416607 9.817889,-111.776341 9.819988,-112.185497 C 9.816666,-112.592282 9.966272,-112.942976 10.230859,-113.185248 C 10.475902,-113.411158 10.825747,-113.540206 11.210385,-113.551359 C 11.64103,-113.564437 12.010939,-113.467018 12.262488,-113.23868 C 12.421595,-113.094254 12.535764,-112.905528 12.604997,-112.672502 L 11.729997,-112.672502 C 11.685158,-112.744639 11.629588,-112.800913 11.563288,-112.841323 C 11.483218,-112.889148 11.390518,-112.912871 11.285188,-112.912492 C 11.235095,-112.912551 11.187891,-112.908832 11.143576,-112.901336 C 11.040135,-112.884105 10.955448,-112.844757 10.889516,-112.783293 C 10.782924,-112.68374 10.734494,-112.523758 10.734993,-112.327498 M 11.794987,-111.802498 L 10.759993,-111.802498 Q 10.794021,-111.604968 10.92636,-111.493438 Q 11.061204,-111.381916 11.26968,-111.382495 Q 11.469483,-111.382069 11.611033,-111.498349 Q 11.750607,-111.614002 11.794987,-111.802498" />
      <path d="M 15.134993,-109.307495 L 15.134993,-111.147502 C 14.942764,-110.940163 14.686296,-110.824903 14.400535,-110.813854 C 14.193062,-110.804978 13.991446,-110.839796 13.812524,-110.922251 C 13.631369,-111.004984 13.47934,-111.122468 13.356438,-111.274703 C 13.247692,-111.41073 13.167572,-111.565387 13.116077,-111.738674 C 13.069315,-111.897408 13.049349,-112.06161 13.056178,-112.231282 C 13.066732,-112.558233 13.186097,-112.867917 13.385738,-113.099063 C 13.506836,-113.238983 13.651477,-113.347807 13.81966,-113.425533 C 13.982598,-113.500338 14.158213,-113.537656 14.346504,-113.537488 C 14.394162,-113.537626 14.440695,-113.535187 14.486101,-113.530169 C 14.747646,-113.502891 14.973295,-113.378803 15.134993,-113.172502 L 15.134993,-113.457495 L 16.044987,-113.457495 L 16.044987,-109.307495 L 15.134993,-109.307495 M 13.994987,-112.167489 C 13.99308,-112.010609 14.063978,-111.8725 14.163252,-111.766905 C 14.264826,-111.658742 14.418937,-111.591873 14.578432,-111.59249 C 14.731641,-111.591016 14.880554,-111.652262 14.982044,-111.752002 C 15.089833,-111.858207 15.166898,-112.014403 15.16499,-112.178151 C 15.166637,-112.337124 15.093536,-112.482895 14.991355,-112.588658 C 14.889023,-112.694443 14.735486,-112.759285 14.577129,-112.757489 C 14.414953,-112.757875 14.266734,-112.693869 14.165225,-112.590293 C 14.061337,-112.484235 13.993665,-112.334072 13.994987,-112.167489" />
      <path d="M -15.139974,-114.737492 L -15.139974,-113.207495 C -14.94486,-113.411398 -14.687828,-113.524681 -14.402541,-113.536059 C -14.198787,-113.54532 -13.999742,-113.510509 -13.821439,-113.428643 C -13.637609,-113.344736 -13.482864,-113.224187 -13.357205,-113.066996 C -13.164196,-112.826615 -13.051817,-112.51208 -13.054981,-112.181555 C -13.052805,-111.834436 -13.174664,-111.497376 -13.390121,-111.250881 C -13.51275,-111.110835 -13.659513,-111.001614 -13.83041,-110.92322 C -13.991477,-110.849624 -14.163041,-110.812718 -14.345103,-110.8125 C -14.395722,-110.812302 -14.445073,-110.814956 -14.493155,-110.820461 C -14.753745,-110.848588 -14.979474,-110.972509 -15.139974,-111.177498 L -15.139974,-110.892489 L -16.044987,-110.892489 L -16.044987,-114.737492 L -15.139974,-114.737492 M -13.999984,-112.182495 C -13.99815,-112.332108 -14.068991,-112.478255 -14.168218,-112.583044 C -14.270328,-112.691157 -14.418427,-112.758112 -14.578334,-112.757493 C -14.739681,-112.759728 -14.893678,-112.685019 -14.999767,-112.580299 C -15.102807,-112.47835 -15.166215,-112.333043 -15.164974,-112.176912 C -15.166552,-112.015726 -15.091385,-111.861895 -14.986326,-111.756238 C -14.878151,-111.647473 -14.721385,-111.583983 -14.555248,-111.593172 C -14.394727,-111.599752 -14.25123,-111.675146 -14.150732,-111.782286 C -14.053497,-111.886282 -13.999429,-112.031675 -13.999984,-112.182495" />
      <path d="M -10.559977,-110.892489 L -10.559977,-111.147502 C -10.751005,-110.94151 -11.005412,-110.8263 -11.289033,-110.814111 C -11.497964,-110.804367 -11.701141,-110.838928 -11.880009,-110.922306 C -12.053691,-111.002529 -12.200966,-111.115213 -12.321835,-111.260358 C -12.525649,-111.505051 -12.642299,-111.834715 -12.63999,-112.168779 C -12.640502,-112.362984 -12.607398,-112.545762 -12.540679,-112.717111 C -12.422621,-113.021582 -12.199622,-113.270361 -11.915747,-113.409095 C -11.741362,-113.495097 -11.551625,-113.537896 -11.346537,-113.537491 C -11.297233,-113.537564 -11.249166,-113.534875 -11.202334,-113.529425 C -10.943422,-113.500836 -10.72043,-113.377091 -10.559977,-113.172502 L -10.559977,-113.457495 L -9.649984,-113.457495 L -9.649984,-110.892489 L -10.559977,-110.892489 M -11.699984,-112.167489 C -11.701368,-112.010409 -11.636167,-111.872035 -11.536225,-111.766392 C -11.433846,-111.658198 -11.282023,-111.591518 -11.115377,-111.592489 C -10.951317,-111.591384 -10.793497,-111.66131 -10.691373,-111.774268 C -10.595799,-111.878673 -10.528084,-112.025216 -10.52998,-112.177498 C -10.528148,-112.336841 -10.601388,-112.482973 -10.703875,-112.588925 C -10.805663,-112.694001 -10.958089,-112.758644 -11.115377,-112.757495 C -11.274149,-112.758521 -11.419963,-112.697653 -11.521516,-112.598487 C -11.630298,-112.49184 -11.701258,-112.338356 -11.699984,-112.167489" />
      <path d="M -9.034993,-110.892489 L -9.034993,-113.457495 L -8.12998,-113.457495 L -8.12998,-112.087492 C -8.131032,-111.918985 -8.089217,-111.78706 -8.004535,-111.691719 C -7.921144,-111.601666 -7.804816,-111.556925 -7.655551,-111.557495 C -7.542514,-111.558183 -7.437555,-111.587021 -7.358307,-111.669188 C -7.311211,-111.717685 -7.27901,-111.780754 -7.261706,-111.858395 C -7.243239,-111.94393 -7.234335,-112.045296 -7.234993,-112.162492 L -7.234993,-113.457495 L -6.32998,-113.457495 L -6.32998,-111.827498 Q -6.329725,-111.62569 -6.369668,-111.463781 Q -6.409683,-111.302788 -6.519987,-111.172502 Q -6.656094,-111.011252 -6.850265,-110.923735 Q -7.046983,-110.836628 -7.309381,-110.837492 Q -7.562035,-110.836595 -7.757889,-110.916182 Q -7.95339,-110.999937 -8.12998,-111.217489 L -8.12998,-110.892489 L -9.034993,-110.892489" />
      <path d="M -5.434977,-112.502498 L -6.084977,-114.157495 L -5.50498,-114.157495 L -4.584977,-112.502498 L -5.434977,-112.502498" />
      <path d="M -3.034977,-111.647502 L -2.399984,-111.647502 L -2.399984,-110.892489 L -3.034977,-110.892489 L -3.034977,-110.572502 C -3.035069,-110.463225 -3.029803,-110.374188 -3.019181,-110.30539 C -3.008594,-110.235215 -2.98694,-110.180852 -2.954216,-110.142301 C -2.891634,-110.06697 -2.81252,-110.051424 -2.741792,-110.047702 C -2.621379,-110.045304 -2.525829,-110.075578 -2.399984,-110.137492 L -2.399984,-109.347502 C -2.535908,-109.287685 -2.656718,-109.251461 -2.81282,-109.252502 C -2.978921,-109.252164 -3.15906,-109.298574 -3.320463,-109.37923 C -3.47453,-109.456359 -3.612049,-109.564962 -3.718076,-109.69762 C -3.792319,-109.789817 -3.846287,-109.889778 -3.87998,-109.997502 Q -3.941446,-110.200126 -3.93999,-110.507495 L -3.93999,-110.892489 L -4.26499,-110.892489 L -4.26499,-111.647502 L -3.93999,-111.647502 L -3.93999,-113.457495 L -3.034977,-113.457495 L -3.034977,-111.647502" />
      <path d="M -1.069987,-109.307495 L -1.975,-109.307495 L -1.975,-113.457495 L -1.069987,-113.457495 L -1.069987,-109.307495" />
      <path d="M 1.530013,-110.892489 L 1.530013,-111.147502 C 1.338986,-110.94151 1.084578,-110.8263 0.800957,-110.814111 C 0.592027,-110.804367 0.388849,-110.838928 0.209981,-110.922306 C 0.0363,-111.002529 -0.110976,-111.115213 -0.231845,-111.260358 C -0.435659,-111.505051 -0.552308,-111.834715 -0.55,-112.168779 C -0.550511,-112.362984 -0.517408,-112.545762 -0.450688,-112.717111 C -0.33263,-113.021582 -0.109632,-113.270361 0.174243,-113.409095 C 0.348629,-113.495097 0.538366,-113.537896 0.743454,-113.537491 C 0.792757,-113.537564 0.840824,-113.534875 0.887656,-113.529425 C 1.146568,-113.500836 1.36956,-113.377091 1.530013,-113.172502 L 1.530013,-113.457495 L 2.440007,-113.457495 L 2.440007,-110.892489 L 1.530013,-110.892489 M 0.390007,-112.167489 C 0.388623,-112.010409 0.453823,-111.872035 0.553765,-111.766392 C 0.656144,-111.658198 0.807968,-111.591518 0.974613,-111.592489 C 1.138673,-111.591384 1.296494,-111.66131 1.398617,-111.774268 C 1.494191,-111.878673 1.561906,-112.025216 1.56001,-112.177498 C 1.561843,-112.336841 1.488603,-112.482973 1.386115,-112.588925 C 1.284327,-112.694001 1.131901,-112.758644 0.974613,-112.757495 C 0.815841,-112.758521 0.670027,-112.697653 0.568474,-112.598487 C 0.459693,-112.49184 0.388732,-112.338356 0.390007,-112.167489" />
      <path d="M 3.054997,-110.892489 L 3.054997,-113.457495 L 3.96001,-113.457495 L 3.96001,-112.087492 C 3.958958,-111.918985 4.000773,-111.78706 4.085455,-111.691719 C 4.168846,-111.601666 4.285175,-111.556925 4.43444,-111.557495 C 4.547476,-111.558183 4.652435,-111.587021 4.731683,-111.669188 C 4.778779,-111.717685 4.81098,-111.780754 4.828284,-111.858395 C 4.846752,-111.94393 4.855656,-112.045296 4.854997,-112.162492 L 4.854997,-113.457495 L 5.76001,-113.457495 L 5.76001,-111.827498 Q 5.760265,-111.62569 5.720323,-111.463781 Q 5.680307,-111.302788 5.570003,-111.172502 Q 5.433896,-111.011252 5.239725,-110.923735 Q 5.043008,-110.836628 4.78061,-110.837492 Q 4.527955,-110.836595 4.332101,-110.916182 Q 4.1366,-110.999937 3.96001,-111.217489 L 3.96001,-110.892489 L 3.054997,-110.892489" />
      <path d="M 10.5125,-124.869995 L 9.607487,-124.869995 L 9.607487,-127.435002 L 10.5125,-127.435002 L 10.5125,-124.869995" />
      <path d="M 9.547494,-123.885002 C 9.546119,-123.606449 9.778908,-123.373598 10.057552,-123.375008 C 10.336081,-123.373641 10.568897,-123.606481 10.567497,-123.885002 C 10.568897,-124.163528 10.336076,-124.396363 10.057552,-124.394995 C 9.778971,-124.396426 9.546095,-124.163562 9.547494,-123.885002" />
      <path d="M 12.142497,-125.625008 L 12.657487,-125.625008 L 12.657487,-124.869995 L 12.142497,-124.869995 L 12.142497,-124.100008 L 11.2375,-124.100008 L 11.2375,-124.869995 L 10.9375,-124.869995 L 10.9375,-125.625008 L 11.2375,-125.625008 L 11.2375,-127.435002 L 12.142497,-127.435002 L 12.142497,-125.625008" />
      <path d="M 13.927507,-127.085002 L 13.052507,-128.714998 L 14.067497,-128.714998 L 16.127507,-124.869995 L 15.0875,-124.869995 L 14.422494,-126.185002 L 13.7375,-124.869995 L 12.6875,-124.869995 L 13.927507,-127.085002" />
      <path d="M -16.127506,-123.285002 L -16.127506,-127.435002 L -15.222493,-127.435002 L -15.222493,-126.064998 C -15.223274,-125.870236 -15.166563,-125.716377 -15.049931,-125.625496 C -14.970993,-125.564708 -14.870258,-125.534543 -14.747726,-125.535002 C -14.63481,-125.534808 -14.538069,-125.569807 -14.457503,-125.639998 C -14.361255,-125.729371 -14.328335,-125.886215 -14.327506,-126.139998 L -14.327506,-127.435002 L -13.422493,-127.435002 L -13.422493,-125.805005 C -13.421332,-125.52129 -13.498283,-125.267658 -13.667424,-125.085294 C -13.837644,-124.896486 -14.102239,-124.81364 -14.401285,-124.814999 C -14.566154,-124.813684 -14.715844,-124.839907 -14.850354,-124.893669 C -14.985804,-124.949602 -15.110771,-125.058963 -15.222493,-125.194995 L -15.222493,-123.285002 L -16.127506,-123.285002" />
      <path d="M -11.992497,-126.305005 L -10.0875,-126.305005 L -10.0875,-126.210002 C -10.085528,-125.781696 -10.21209,-125.403798 -10.460012,-125.152418 C -10.702989,-124.902373 -11.067596,-124.77315 -11.481696,-124.775008 C -11.907791,-124.772436 -12.273885,-124.906319 -12.524466,-125.151916 C -12.773541,-125.394113 -12.909601,-125.753847 -12.907502,-126.163003 C -12.910824,-126.569789 -12.761218,-126.920482 -12.496632,-127.162754 C -12.251588,-127.388664 -11.901744,-127.517713 -11.517105,-127.528866 C -11.08646,-127.541944 -10.716552,-127.444524 -10.465002,-127.216187 C -10.305895,-127.071761 -10.191726,-126.883034 -10.122493,-126.650008 L -10.997493,-126.650008 C -11.042333,-126.722145 -11.097902,-126.778419 -11.164202,-126.81883 C -11.244272,-126.866655 -11.336972,-126.890377 -11.442302,-126.889998 C -11.492396,-126.890058 -11.539599,-126.886339 -11.583914,-126.878842 C -11.687355,-126.861612 -11.772042,-126.822264 -11.837974,-126.760799 C -11.944566,-126.661247 -11.992996,-126.501264 -11.992497,-126.305005 M -10.932503,-125.780005 L -11.967497,-125.780005 Q -11.933469,-125.582475 -11.80113,-125.470945 Q -11.666286,-125.359423 -11.45781,-125.360002 Q -11.258007,-125.359575 -11.116458,-125.475856 Q -10.976883,-125.591509 -10.932503,-125.780005" />
      <path d="M -8.7375,-126.044995 L -10.017497,-127.435002 L -8.822493,-127.435002 L -8.1625,-126.675008 L -7.507503,-127.435002 L -6.307503,-127.435002 L -7.592497,-126.044995 L -6.52749,-124.869995 L -7.707503,-124.869995 L -8.157503,-125.400008 L -8.597493,-124.869995 L -9.77749,-124.869995 L -8.7375,-126.044995" />
      <path d="M -5.717497,-126.480005 L -6.367497,-128.135002 L -5.7875,-128.135002 L -4.867497,-126.480005 L -5.717497,-126.480005" />
      <path d="M -2.59751,-125.530005 L -2.292497,-124.939998 C -2.456853,-124.872073 -2.625457,-124.825008 -2.798309,-124.798802 C -2.985018,-124.770702 -3.18373,-124.766685 -3.362618,-124.790847 C -3.67263,-124.833289 -3.938235,-124.961765 -4.095529,-125.17181 C -4.205763,-125.317586 -4.263277,-125.501903 -4.262499,-125.703253 C -4.262852,-125.785833 -4.252791,-125.862242 -4.232318,-125.932482 C -4.204867,-126.026022 -4.157888,-126.105558 -4.09138,-126.171089 C -3.967035,-126.292802 -3.752718,-126.370418 -3.507503,-126.419995 C -3.350459,-126.45201 -3.252437,-126.476977 -3.195908,-126.512031 C -3.163949,-126.532124 -3.143502,-126.554336 -3.134566,-126.578667 C -3.126591,-126.600007 -3.122572,-126.626846 -3.122511,-126.659182 C -3.12242,-126.679251 -3.125665,-126.698073 -3.132244,-126.715649 C -3.148023,-126.756799 -3.180903,-126.7906 -3.230887,-126.81705 C -3.27851,-126.841851 -3.335948,-126.854497 -3.4032,-126.854989 C -3.449145,-126.855217 -3.495631,-126.851877 -3.542657,-126.844967 C -3.729784,-126.817261 -3.924734,-126.733937 -4.127506,-126.594995 L -4.457503,-127.235002 C -4.134807,-127.424549 -3.783892,-127.531762 -3.428501,-127.530001 C -3.073679,-127.53077 -2.736194,-127.433367 -2.509558,-127.2375 C -2.421586,-127.161067 -2.351683,-127.070119 -2.299851,-126.964658 C -2.241326,-126.843686 -2.21221,-126.71131 -2.212503,-126.567529 C -2.212177,-126.497774 -2.21974,-126.431281 -2.235192,-126.36805 C -2.263471,-126.25336 -2.31851,-126.153876 -2.400308,-126.069599 C -2.532628,-125.933012 -2.732225,-125.849726 -2.957503,-125.805005 C -3.047994,-125.784905 -3.121308,-125.76804 -3.177447,-125.754408 C -3.280602,-125.729684 -3.33178,-125.697281 -3.352085,-125.663174 C -3.362481,-125.644016 -3.367618,-125.617883 -3.367497,-125.584775 C -3.367426,-125.532109 -3.345027,-125.489537 -3.3003,-125.457057 C -3.240269,-125.413012 -3.152657,-125.39509 -3.046704,-125.400944 C -2.899529,-125.407743 -2.749798,-125.450764 -2.59751,-125.530005" />
      <path d="M -0.9375,-126.305005 L 0.967497,-126.305005 L 0.967497,-126.210002 C 0.969469,-125.781696 0.842906,-125.403798 0.594985,-125.152418 C 0.352008,-124.902373 -0.0126,-124.77315 -0.426699,-124.775008 C -0.852795,-124.772436 -1.218888,-124.906319 -1.469469,-125.151916 C -1.718544,-125.394113 -1.854605,-125.753847 -1.852505,-126.163003 C -1.855827,-126.569789 -1.706222,-126.920482 -1.441635,-127.162754 C -1.196592,-127.388664 -0.846747,-127.517713 -0.462108,-127.528866 C -0.031463,-127.541944 0.338445,-127.444524 0.589995,-127.216187 C 0.749101,-127.071761 0.863271,-126.883034 0.932503,-126.650008 L 0.057503,-126.650008 C 0.012664,-126.722145 -0.042905,-126.778419 -0.109205,-126.81883 C -0.189275,-126.866655 -0.281975,-126.890377 -0.387306,-126.889998 C -0.437399,-126.890058 -0.484603,-126.886339 -0.528917,-126.878842 C -0.632358,-126.861612 -0.717045,-126.822264 -0.782977,-126.760799 C -0.88957,-126.661247 -0.937999,-126.501264 -0.9375,-126.305005 M 0.122494,-125.780005 L -0.9125,-125.780005 Q -0.878472,-125.582475 -0.746133,-125.470945 Q -0.61129,-125.359423 -0.402814,-125.360002 Q -0.203011,-125.359575 -0.061461,-125.475856 Q 0.078114,-125.591509 0.122494,-125.780005" />
      <path d="M 3.417497,-125.700008 L 3.417497,-124.930005 C 3.238411,-124.840826 3.045507,-124.794263 2.838785,-124.790316 C 2.628058,-124.786167 2.429162,-124.820605 2.242097,-124.893629 C 2.031933,-124.975916 1.855953,-125.097901 1.714159,-125.259585 C 1.62116,-125.366211 1.545852,-125.487141 1.488237,-125.622376 C 1.417526,-125.7901 1.382277,-125.971827 1.382489,-126.16756 C 1.381648,-126.371929 1.420994,-126.559072 1.500526,-126.728987 C 1.598027,-126.937495 1.742281,-127.112972 1.923665,-127.244958 C 2.152813,-127.412232 2.442794,-127.507547 2.739027,-127.514422 C 2.959116,-127.520131 3.185273,-127.471989 3.417497,-127.369995 L 3.417497,-126.600008 C 3.313738,-126.682971 3.202542,-126.736641 3.083908,-126.761016 C 2.954185,-126.787006 2.815886,-126.776837 2.698291,-126.730316 C 2.606285,-126.694422 2.529702,-126.640474 2.468543,-126.568472 C 2.377104,-126.461326 2.320784,-126.318123 2.322494,-126.159265 C 2.319861,-125.891914 2.470191,-125.681941 2.688278,-125.589824 C 2.773523,-125.553849 2.865522,-125.53735 2.964275,-125.540328 C 3.119755,-125.546016 3.270829,-125.599242 3.417497,-125.700008" />
      <path d="M 4.8375,-124.869995 L 3.932487,-124.869995 L 3.932487,-126.489998 C 3.92822,-126.836307 4.059167,-127.137894 4.329002,-127.308022 C 4.582702,-127.473451 4.931135,-127.530059 5.297494,-127.530005 C 5.663852,-127.530059 6.012285,-127.473451 6.265985,-127.308022 C 6.535819,-127.137895 6.666767,-126.836308 6.6625,-126.489998 L 6.6625,-124.869995 L 5.757487,-124.869995 L 5.757487,-126.314998 C 5.758065,-126.464258 5.721743,-126.595792 5.635011,-126.678727 C 5.555128,-126.756995 5.434372,-126.790491 5.297494,-126.789998 C 5.160616,-126.790491 5.039859,-126.756995 4.959976,-126.678727 C 4.873244,-126.595792 4.836922,-126.464258 4.8375,-126.314998 L 4.8375,-124.869995" />
      <path d="M 7.27749,-124.869995 L 7.27749,-127.435002 L 8.182503,-127.435002 L 8.182503,-126.335002 C 8.181618,-126.071873 8.24835,-125.854241 8.399323,-125.728146 C 8.493791,-125.650493 8.613974,-125.608236 8.759871,-125.601374 C 8.915532,-125.592908 9.067687,-125.621962 9.20249,-125.689998 L 9.20249,-124.825008 C 9.127583,-124.810441 9.07291,-124.816126 9.025148,-124.815001 C 8.850233,-124.815311 8.695814,-124.851581 8.561888,-124.923809 C 8.411147,-125.005786 8.284686,-125.127849 8.182503,-125.289998 L 8.182503,-124.869995 L 7.27749,-124.869995" />
      <path d="M 40.45,-122.2 A 2.0,2.0 0.0 0,1 38.45,-120.2 L 33.2,-120.2 L 33.2,-123.1 L 32.595833,-122.6 L 31.991667,-123.1 L 31.3875,-122.6 L 30.783333,-123.1 L 30.179167,-122.6 L 29.575,-123.1 L 28.970833,-122.6 L 28.366667,-123.1 L 27.7625,-122.6 L 27.158333,-123.1 L 26.554167,-122.6 L 25.95,-123.1 L 25.95,-128.9 L 26.554167,-129.4 L 27.158333,-128.9 L 27.7625,-129.4 L 28.366667,-128.9 L 28.970833,-129.4 L 29.575,-128.9 L 30.179167,-129.4 L 30.783333,-128.9 L 31.3875,-129.4 L 31.991667,-128.9 L 32.595833,-129.4 L 33.2,-128.9 L 33.2,-131.8 L 38.45,-131.8 A 2.0,2.0 0.0 0,1 40.45,-129.8 L 40.45,-122.2 M 38.20625,-123.174592 L 39.8375,-126.0 L 38.20625,-128.825408 L 34.94375,-128.825408 L 33.3125,-126.0 L 34.94375,-123.174592 L 38.20625,-123.174592" />
      <circle cx="36.575" cy="-126.0" r="0.6525000000000001" />
    </g>
  </g>
</svg>