<?xml version='1.0' encoding='utf-8'?>
<svg width="55.979173mm" height="100.09mm" viewBox="-41.219547 -2.412857 82.931013 148.279523" version="1.1" xmlns="http://www.w3.org/2000/svg">
  <g transform="scale(1,-1)" stroke-linecap="round">
    <g fill="rgb(0,0,0)" stroke="rgb(0,0,0)" stroke-width="0.0" id="Shapes">
      <path d="M 41.6448,-136.2 A 2.0,2.0 0.0 0,1 39.6448,-134.2 L 34.6848,-134.2 L 34.6848,-137.1 L 33.857333,-136.27988 L 33.029867,-137.1 L 32.2024,-136.27988 L 31.374933,-137.1 L 30.547467,-136.27988 L 29.72,-137.1 L 28.892533,-136.27988 L 28.065067,-137.1 L 27.2376,-136.27988 L 26.410133,-137.1 L 25.582667,-136.27988 L 24.7552,-137.1 L 24.7552,-142.9 L 25.582667,-143.72012 L 26.410133,-142.9 L 27.2376,-143.72012 L 28.065067,-142.9 L 28.892533,-143.72012 L 29.72,-142.9 L 30.547467,-143.72012 L 31.374933,-142.9 L 32.2024,-143.72012 L 33.029867,-142.9 L 33.857333,-143.72012 L 34.6848,-142.9 L 34.6848,-145.8 L 39.6448,-145.8 A 2.0,2.0 0.0 0,1 41.6448,-143.8 L 41.6448,-136.2 M 39.32074,-137.287608 L 40.88674,-140.0 L 39.32074,-142.712392 L 36.18874,-142.712392 L 34.62274,-140.0 L 36.18874,-137.287608 L 39.32074,-137.287608" />
      <path d="M -33.455127,-1.289062 L -33.518604,-0.900879 Q -33.638232,-0.917969 -33.711475,-0.917969 Q -33.809131,-0.917969 -33.861621,-0.88623 Q -33.914111,-0.854492 -33.937305,-0.800781 Q -33.960498,-0.74707 -33.960498,-0.559082 L -33.960498,0.957031 L -33.518604,0.957031 L -33.518604,1.298828 L -33.960498,1.298828 L -33.960498,2.20459 L -34.39751,1.940918 L -34.39751,1.298828 L -34.719775,1.298828 L -34.719775,0.957031 L -34.39751,0.957031 L -34.39751,-0.534668 C -34.39751,-0.79834 -34.379606,-0.971273 -34.343799,-1.053467 C -34.307992,-1.135661 -34.246143,-1.201986 -34.158252,-1.252441 C -34.016866,-1.330985 -33.780901,-1.357313 -33.455127,-1.289062" />
      <path d="M -32.249072,-2.346191 L -31.934131,-2.346191 Q -32.664111,-1.174316 -32.664111,0.0 Q -32.664111,0.461426 -32.559131,0.917969 Q -32.473682,1.28418 -32.324756,1.621094 Q -32.229541,1.838379 -31.934131,2.346191 L -32.249072,2.346191 Q -32.708057,1.733398 -32.927783,1.115723 Q -33.115771,0.583496 -33.115771,0.002441 Q -33.115771,-0.656738 -32.864307,-1.271973 Q -32.612842,-1.887207 -32.249072,-2.346191" />
      <path d="M -29.890674,-1.293945 L -29.890674,2.299805 L -30.173877,2.299805 Q -30.288623,2.067871 -30.564502,1.821289 Q -30.840381,1.574707 -31.209033,1.401367 L -31.209033,0.976562 Q -31.003955,1.052246 -30.746387,1.203613 Q -30.488818,1.35498 -30.330127,1.506348 L -30.330127,-1.293945 L -29.890674,-1.293945" />
      <path d="M -28.411182,-0.983887 C -28.214242,-1.231283 -27.943245,-1.35498 -27.598193,-1.35498 C -27.336149,-1.35498 -27.119271,-1.284587 -26.947559,-1.143799 C -26.775846,-1.003011 -26.646859,-0.80363 -26.560596,-0.545654 C -26.474333,-0.287679 -26.431201,0.05127 -26.431201,0.471191 C -26.431201,0.826009 -26.458057,1.107992 -26.511768,1.317139 C -26.620715,1.73467 -26.801583,2.029978 -27.092822,2.183838 C -27.237679,2.261149 -27.406136,2.299805 -27.598193,2.299805 C -27.85861,2.299805 -28.074674,2.229818 -28.246387,2.089844 C -28.418099,1.94987 -28.547493,1.750895 -28.63457,1.49292 C -28.721647,1.234945 -28.765186,0.894368 -28.765186,0.471191 C -28.765186,-0.201009 -28.647184,-0.686035 -28.411182,-0.983887 M -28.086475,1.679688 Q -27.905811,1.936035 -27.603076,1.936035 Q -27.295459,1.936035 -27.08916,1.645508 Q -26.882861,1.35498 -26.882861,0.471191 Q -26.882861,-0.407715 -27.08916,-0.700684 Q -27.295459,-0.993652 -27.598193,-0.993652 Q -27.900928,-0.993652 -28.107227,-0.701904 Q -28.313525,-0.410156 -28.313525,0.471191 Q -28.313525,1.352539 -28.086475,1.679688" />
      <path d="M -25.747607,-1.293945 L -25.498584,-1.293945 Q -25.505908,-1.516113 -25.571826,-1.634521 Q -25.637744,-1.75293 -25.776904,-1.813965 L -25.654834,-2.001953 Q -25.442432,-1.90918 -25.344775,-1.739502 Q -25.247119,-1.569824 -25.247119,-1.293945 L -25.247119,-0.793457 L -25.747607,-0.793457 L -25.747607,-1.293945" />
      <path d="M -40.745166,-1.293945 L -40.745166,-0.969238 C -40.571012,-1.224772 -40.330941,-1.352539 -40.024951,-1.352539 C -39.717334,-1.352539 -39.453662,-1.231283 -39.233936,-0.98877 C -39.014209,-0.746257 -38.904346,-0.402832 -38.904346,0.041504 C -38.904346,0.228678 -38.930387,0.40446 -38.982471,0.568848 C -39.088291,0.896988 -39.263614,1.133041 -39.550098,1.260986 C -39.692513,1.325277 -39.843473,1.357422 -40.002979,1.357422 C -40.291064,1.357422 -40.527881,1.241048 -40.713428,1.008301 L -40.713428,2.285156 L -41.152881,2.285156 L -41.152881,-1.293945 L -40.745166,-1.293945 M -40.623096,-0.651855 Q -40.750049,-0.444336 -40.750049,0.021973 Q -40.750049,0.495605 -40.540088,0.74585 Q -40.330127,0.996094 -40.042041,0.996094 Q -39.756396,0.996094 -39.55498,0.754395 Q -39.353564,0.512695 -39.353564,0.004883 Q -39.353564,-0.490723 -39.563525,-0.740967 Q -39.773486,-0.991211 -40.061572,-0.991211 Q -40.415576,-0.991211 -40.623096,-0.651855" />
      <path d="M -38.132861,1.069336 Q -38.533252,0.722656 -38.533252,0.002441 Q -38.533252,-0.654297 -38.197559,-1.003418 Q -37.861865,-1.352539 -37.317432,-1.352539 Q -36.978076,-1.352539 -36.691211,-1.193848 Q -36.404346,-1.035156 -36.254199,-0.748291 Q -36.104053,-0.461426 -36.104053,0.039062 Q -36.104053,0.656738 -36.443408,1.00708 Q -36.782764,1.357422 -37.317432,1.357422 Q -37.798389,1.357422 -38.132861,1.069336 M -38.081592,0.002441 Q -38.081592,0.500488 -37.864307,0.74707 Q -37.647021,0.993652 -37.317432,0.993652 Q -36.992725,0.993652 -36.774219,0.74585 Q -36.555713,0.498047 -36.555713,0.01709 Q -36.555713,-0.493164 -36.772998,-0.742188 Q -36.990283,-0.991211 -37.317432,-0.991211 Q -37.647021,-0.991211 -37.864307,-0.743408 Q -38.081592,-0.495605 -38.081592,0.002441" />
      <path d="M -35.598682,-1.293945 L -35.159229,-1.293945 L -35.159229,2.285156 L -35.598682,2.285156 L -35.598682,-1.293945" />
      <path d="M -0.878906,-1.289062 L -0.942383,-0.900879 Q -1.062012,-0.917969 -1.135254,-0.917969 Q -1.23291,-0.917969 -1.2854,-0.88623 Q -1.337891,-0.854492 -1.361084,-0.800781 Q -1.384277,-0.74707 -1.384277,-0.559082 L -1.384277,0.957031 L -0.942383,0.957031 L -0.942383,1.298828 L -1.384277,1.298828 L -1.384277,2.20459 L -1.821289,1.940918 L -1.821289,1.298828 L -2.143555,1.298828 L -2.143555,0.957031 L -1.821289,0.957031 L -1.821289,-0.534668 C -1.821289,-0.79834 -1.803385,-0.971273 -1.767578,-1.053467 C -1.731771,-1.135661 -1.669922,-1.201986 -1.582031,-1.252441 C -1.440646,-1.330985 -1.204681,-1.357313 -0.878906,-1.289062" />
      <path d="M -0.581055,-1.879883 L -0.532227,-2.29248 Q -0.375977,-2.346191 -0.249023,-2.346191 Q -0.039063,-2.346191 0.112305,-2.244873 Q 0.263672,-2.143555 0.380859,-1.92627 Q 0.46875,-1.765137 0.627441,-1.337891 L 1.61377,1.298828 L 1.174316,1.298828 L 0.620117,-0.212402 Q 0.515137,-0.500488 0.439453,-0.803223 Q 0.356445,-0.488281 0.251465,-0.202637 L -0.288086,1.298828 L -0.761719,1.298828 L 0.222168,-1.298828 Q 0.195312,-1.369629 0.183105,-1.40625 Q 0.090332,-1.66748 0.048828,-1.733398 C 0.011393,-1.791992 -0.036621,-1.837565 -0.095215,-1.870117 C -0.197809,-1.923957 -0.353849,-1.94201 -0.581055,-1.879883" />
      <path d="M 1.977539,-1.293945 L 2.416992,-1.293945 L 2.416992,2.285156 L 1.977539,2.285156 L 1.977539,-1.293945" />
      <path d="M 5.327148,-0.515137 L 4.873047,-0.458984 C 4.739583,-0.832621 4.511719,-0.988668 4.189453,-0.991211 C 3.972982,-0.991211 3.792318,-0.915527 3.647461,-0.76416 C 3.502604,-0.612793 3.422038,-0.394694 3.405762,-0.109863 L 5.339355,-0.109863 Q 5.341797,-0.031738 5.341797,0.007324 Q 5.341797,0.649414 5.012207,1.003418 Q 4.682617,1.357422 4.162598,1.357422 Q 3.625488,1.357422 3.288574,0.996094 Q 2.95166,0.634766 2.95166,-0.019531 Q 2.95166,-0.651855 3.284912,-1.002197 Q 3.618164,-1.352539 4.187012,-1.352539 Q 4.638672,-1.352539 4.929199,-1.132812 Q 5.219727,-0.913086 5.327148,-0.515137 M 4.87793,0.251465 L 3.430176,0.251465 Q 3.452148,0.59082 3.658447,0.793457 Q 3.864746,0.996094 4.16748,0.996094 Q 4.501953,0.996094 4.711914,0.742188 Q 4.848633,0.578613 4.87793,0.251465" />
      <path d="M -4.89502,-0.10498 L -5.341797,-0.144043 C -5.335286,-0.383301 -5.269775,-0.597738 -5.145264,-0.787354 C -5.020752,-0.976969 -4.84904,-1.118978 -4.630127,-1.213379 C -4.411214,-1.30778 -4.139811,-1.35498 -3.815918,-1.35498 C -3.560384,-1.35498 -3.330485,-1.308187 -3.126221,-1.2146 C -2.921956,-1.121012 -2.765299,-0.98999 -2.65625,-0.821533 C -2.547201,-0.653076 -2.492676,-0.473633 -2.492676,-0.283203 C -2.494202,0.099894 -2.684835,0.39978 -3.103027,0.59082 Q -3.317871,0.688477 -3.895264,0.819092 Q -4.472656,0.949707 -4.609375,1.074219 C -4.702148,1.157227 -4.748535,1.263021 -4.748535,1.391602 C -4.748535,1.539714 -4.683024,1.66626 -4.552002,1.77124 C -4.42098,1.876221 -4.21224,1.928711 -3.925781,1.928711 C -3.372853,1.929474 -3.105825,1.694387 -3.054199,1.242676 L -2.600098,1.276855 C -2.608236,1.486816 -2.666829,1.674805 -2.775879,1.84082 C -2.884928,2.006836 -3.040771,2.132568 -3.243408,2.218018 C -3.446045,2.303467 -3.680013,2.346191 -3.945313,2.346191 C -4.186198,2.346191 -4.405111,2.305501 -4.602051,2.224121 C -4.798991,2.142741 -4.94873,2.023519 -5.05127,1.866455 C -5.153809,1.709391 -5.205078,1.540527 -5.205078,1.359863 C -5.204569,1.032868 -5.039571,0.758311 -4.697266,0.581055 Q -4.499512,0.476074 -4.006348,0.357666 Q -3.513184,0.239258 -3.369141,0.183105 C -3.066609,0.068919 -2.952271,-0.097402 -2.949219,-0.322266 C -2.949219,-0.432943 -2.982992,-0.535075 -3.050537,-0.628662 C -3.118083,-0.722249 -3.221029,-0.795898 -3.359375,-0.849609 C -3.497721,-0.90332 -3.657227,-0.930176 -3.837891,-0.930176 C -4.041341,-0.930176 -4.224447,-0.894775 -4.387207,-0.823975 C -4.549967,-0.753174 -4.670003,-0.6604 -4.747314,-0.545654 C -4.824626,-0.430908 -4.873861,-0.284017 -4.89502,-0.10498" />
      <path d="M 33.575977,-1.760254 L 33.575977,-1.435547 C 33.75013,-1.691081 33.990202,-1.818848 34.296191,-1.818848 C 34.603809,-1.818848 34.86748,-1.697591 35.087207,-1.455078 C 35.306934,-1.212565 35.416797,-0.869141 35.416797,-0.424805 C 35.416797,-0.23763 35.390755,-0.061849 35.338672,0.102539 C 35.232852,0.430679 35.057529,0.666733 34.771045,0.794678 C 34.62863,0.858968 34.477669,0.891113 34.318164,0.891113 C 34.030078,0.891113 33.793262,0.77474 33.607715,0.541992 L 33.607715,1.818848 L 33.168262,1.818848 L 33.168262,-1.760254 L 33.575977,-1.760254 M 33.698047,-1.118164 Q 33.571094,-0.910645 33.571094,-0.444336 Q 33.571094,0.029297 33.781055,0.279541 Q 33.991016,0.529785 34.279102,0.529785 Q 34.564746,0.529785 34.766162,0.288086 Q 34.967578,0.046387 34.967578,-0.461426 Q 34.967578,-0.957031 34.757617,-1.207275 Q 34.547656,-1.45752 34.25957,-1.45752 Q 33.905566,-1.45752 33.698047,-1.118164" />
      <path d="M 36.188281,0.603027 Q 35.787891,0.256348 35.787891,-0.463867 Q 35.787891,-1.120605 36.123584,-1.469727 Q 36.459277,-1.818848 37.003711,-1.818848 Q 37.343066,-1.818848 37.629932,-1.660156 Q 37.916797,-1.501465 38.066943,-1.2146 Q 38.21709,-0.927734 38.21709,-0.427246 Q 38.21709,0.19043 37.877734,0.540771 Q 37.538379,0.891113 37.003711,0.891113 Q 36.522754,0.891113 36.188281,0.603027 M 36.239551,-0.463867 Q 36.239551,0.03418 36.456836,0.280762 Q 36.674121,0.527344 37.003711,0.527344 Q 37.328418,0.527344 37.546924,0.279541 Q 37.76543,0.031738 37.76543,-0.449219 Q 37.76543,-0.959473 37.548145,-1.208496 Q 37.330859,-1.45752 37.003711,-1.45752 Q 36.674121,-1.45752 36.456836,-1.209717 Q 36.239551,-0.961914 36.239551,-0.463867" />
      <path d="M 38.722461,-1.760254 L 39.161914,-1.760254 L 39.161914,1.818848 L 38.722461,1.818848 L 38.722461,-1.760254" />
      <path d="M 40.866016,-1.755371 L 40.802539,-1.367188 Q 40.68291,-1.384277 40.609668,-1.384277 Q 40.512012,-1.384277 40.459521,-1.352539 Q 40.407031,-1.320801 40.383838,-1.26709 Q 40.360645,-1.213379 40.360645,-1.025391 L 40.360645,0.490723 L 40.802539,0.490723 L 40.802539,0.83252 L 40.360645,0.83252 L 40.360645,1.738281 L 39.923633,1.474609 L 39.923633,0.83252 L 39.601367,0.83252 L 39.601367,0.490723 L 39.923633,0.490723 L 39.923633,-1.000977 C 39.923633,-1.264648 39.941536,-1.437581 39.977344,-1.519775 C 40.013151,-1.601969 40.075,-1.668294 40.162891,-1.71875 C 40.304276,-1.797293 40.540241,-1.823622 40.866016,-1.755371" />
      <path d="M 27.792285,-0.866699 L 27.360156,-0.810547 C 27.329232,-1.030273 27.25599,-1.193034 27.14043,-1.298828 C 27.02487,-1.404622 26.880827,-1.45752 26.708301,-1.45752 C 26.493457,-1.45752 26.319303,-1.378581 26.18584,-1.220703 C 26.052376,-1.062826 25.985645,-0.809733 25.985645,-0.461426 C 25.985645,-0.118001 26.054818,0.133057 26.193164,0.291748 C 26.33151,0.450439 26.511361,0.529785 26.732715,0.529785 C 27.022632,0.530039 27.245207,0.352936 27.323535,0.004883 L 27.750781,0.070801 Q 27.675098,0.463867 27.406543,0.67749 Q 27.137988,0.891113 26.715625,0.891113 Q 26.381152,0.891113 26.096729,0.733643 Q 25.812305,0.576172 25.673145,0.26123 Q 25.533984,-0.053711 25.533984,-0.473633 Q 25.533984,-1.123047 25.857471,-1.470947 Q 26.180957,-1.818848 26.713184,-1.818848 Q 27.137988,-1.818848 27.429736,-1.566162 Q 27.721484,-1.313477 27.792285,-0.866699" />
      <path d="M 29.86748,-1.760254 L 30.260547,-1.760254 L 30.260547,0.83252 L 29.821094,0.83252 L 29.821094,-0.556641 Q 29.821094,-0.888672 29.749072,-1.063232 Q 29.677051,-1.237793 29.503711,-1.339111 Q 29.330371,-1.44043 29.132617,-1.44043 Q 28.934863,-1.44043 28.800586,-1.341553 Q 28.666309,-1.242676 28.624805,-1.069336 Q 28.597949,-0.949707 28.597949,-0.605469 L 28.597949,0.83252 L 28.158496,0.83252 L 28.158496,-0.773926 Q 28.158496,-1.054688 28.185352,-1.184082 Q 28.224414,-1.376953 28.32085,-1.51001 Q 28.417285,-1.643066 28.61626,-1.730957 Q 28.815234,-1.818848 29.044727,-1.818848 Q 29.564746,-1.818848 29.86748,-1.379395 L 29.86748,-1.760254" />
      <path d="M 30.939258,-1.760254 L 31.378711,-1.760254 L 31.378711,1.818848 L 30.939258,1.818848 L 30.939258,-1.760254" />
      <path d="M 32.050098,-1.760254 L 32.489551,-1.760254 L 32.489551,1.818848 L 32.050098,1.818848 L 32.050098,-1.760254" />
      <path d="M -38.777778,-8.2 A 2.0,2.0 0.0 0,1 -40.777778,-10.2 L -40.777778,-17.8 A 2.0,2.0 0.0 0,1 -38.777778,-19.8 L -35.622222,-19.8 L -35.622222,-16.577778 L -25.622222,-16.577778 L -25.622222,-11.422222 L -35.622222,-11.422222 L -35.622222,-8.2 L -38.777778,-8.2" />
      <path d="M 1.727295,-14.828857 L 2.166748,-14.828857 L 2.166748,-13.412842 Q 2.166748,-12.914795 2.370605,-12.736572 Q 2.574463,-12.55835 2.855225,-12.55835 Q 3.031006,-12.55835 3.161621,-12.637695 Q 3.292236,-12.717041 3.343506,-12.850098 Q 3.394775,-12.983154 3.394775,-13.251709 L 3.394775,-14.828857 L 3.834229,-14.828857 L 3.834229,-13.234619 Q 3.834229,-12.929443 3.809814,-12.807373 Q 3.770752,-12.619385 3.673096,-12.482666 Q 3.575439,-12.345947 3.378906,-12.261719 Q 3.182373,-12.17749 2.947998,-12.17749 Q 2.408447,-12.17749 2.122803,-12.604736 L 2.122803,-12.236084 L 1.727295,-12.236084 L 1.727295,-14.828857" />
      <path d="M -3.834229,-15.82251 L -3.394775,-15.82251 L -3.394775,-14.560303 Q -3.282471,-14.701904 -3.10791,-14.794678 Q -2.93335,-14.887451 -2.713623,-14.887451 Q -2.41333,-14.887451 -2.141113,-14.717773 Q -1.868896,-14.548096 -1.726074,-14.229492 Q -1.583252,-13.910889 -1.583252,-13.512939 Q -1.583252,-13.141846 -1.712646,-12.830566 Q -1.842041,-12.519287 -2.095947,-12.348389 Q -2.349854,-12.17749 -2.681885,-12.17749 Q -2.935791,-12.17749 -3.114014,-12.276367 Q -3.292236,-12.375244 -3.433838,-12.572998 L -3.433838,-12.236084 L -3.834229,-12.236084 L -3.834229,-15.82251 M -3.436279,-13.547119 Q -3.436279,-13.046631 -3.220215,-12.78418 Q -3.00415,-12.521729 -2.723389,-12.521729 Q -2.440186,-12.521729 -2.236328,-12.768311 Q -2.032471,-13.014893 -2.032471,-13.510498 Q -2.032471,-14.030518 -2.241211,-14.27832 Q -2.449951,-14.526123 -2.74292,-14.526123 Q -3.031006,-14.526123 -3.233643,-14.286865 Q -3.436279,-14.047607 -3.436279,-13.547119" />
      <path d="M -0.57251,-13.400635 C -0.804977,-13.467392 -1.00207,-13.585749 -1.115723,-13.797363 C -1.173503,-13.902344 -1.202393,-14.018311 -1.202393,-14.145264 C -1.202393,-14.361735 -1.125895,-14.539551 -0.9729,-14.678711 C -0.819906,-14.817871 -0.600993,-14.887451 -0.316162,-14.887451 C -0.143636,-14.887451 0.017904,-14.858968 0.168457,-14.802002 C 0.31901,-14.745036 0.475667,-14.64738 0.638428,-14.509033 Q 0.657959,-14.692139 0.726318,-14.828857 L 1.185303,-14.828857 Q 1.102295,-14.679932 1.074219,-14.517578 Q 1.046143,-14.355225 1.046143,-13.742432 L 1.046143,-13.156494 Q 1.046143,-12.863525 1.02417,-12.751221 Q 0.985107,-12.570557 0.887451,-12.452148 Q 0.789795,-12.33374 0.582275,-12.255615 Q 0.374756,-12.17749 0.042725,-12.17749 Q -0.291748,-12.17749 -0.545654,-12.269043 Q -0.799561,-12.360596 -0.933838,-12.530273 Q -1.068115,-12.699951 -1.126709,-12.97583 L -0.697021,-13.034424 Q -0.626221,-12.758545 -0.478516,-12.649902 Q -0.330811,-12.54126 -0.020752,-12.54126 Q 0.311279,-12.54126 0.479736,-12.690186 Q 0.604248,-12.800049 0.604248,-13.068604 Q 0.604248,-13.093018 0.601807,-13.18335 Q 0.350342,-13.27124 -0.181885,-13.334717 Q -0.443115,-13.366455 -0.57251,-13.400635 M 0.601807,-13.527588 L 0.601807,-13.688721 Q 0.601807,-13.979248 0.531006,-14.128174 Q 0.438232,-14.321045 0.240479,-14.432129 Q 0.042725,-14.543213 -0.211182,-14.543213 Q -0.467529,-14.543213 -0.600586,-14.426025 Q -0.733643,-14.308838 -0.733643,-14.133057 Q -0.733643,-14.018311 -0.672607,-13.924316 Q -0.611572,-13.830322 -0.499268,-13.781494 Q -0.386963,-13.732666 -0.115967,-13.693604 Q 0.362549,-13.625244 0.601807,-13.527588" />
      <path d="M 41.6448,-10.2 A 2.0,2.0 0.0 0,1 39.6448,-8.2 L 34.6848,-8.2 L 34.6848,-11.1 L 33.857333,-10.27988 L 33.029867,-11.1 L 32.2024,-10.27988 L 31.374933,-11.1 L 30.547467,-10.27988 L 29.72,-11.1 L 28.892533,-10.27988 L 28.065067,-11.1 L 27.2376,-10.27988 L 26.410133,-11.1 L 25.582667,-10.27988 L 24.7552,-11.1 L 24.7552,-16.9 L 25.582667,-17.72012 L 26.410133,-16.9 L 27.2376,-17.72012 L 28.065067,-16.9 L 28.892533,-17.72012 L 29.72,-16.9 L 30.547467,-17.72012 L 31.374933,-16.9 L 32.2024,-17.72012 L 33.029867,-16.9 L 33.857333,-17.72012 L 34.6848,-16.9 L 34.6848,-19.8 L 39.6448,-19.8 A 2.0,2.0 0.0 0,1 41.6448,-17.8 L 41.6448,-10.2" />
      <path d="M -35.622222,-22.2 L -40.777778,-22.2 L -40.777778,-33.8 L -35.622222,-33.8 L -35.622222,-30.577778 L -25.622222,-30.577778 L -25.622222,-25.422222 L -35.622222,-25.422222 L -35.622222,-22.2" />
      <path d="M 0.450439,-28.866699 L 0.018311,-28.810547 C -0.012614,-29.030273 -0.085856,-29.193034 -0.201416,-29.298828 C -0.316976,-29.404622 -0.461019,-29.457519 -0.633545,-29.457519 C -0.848389,-29.457519 -1.022542,-29.378581 -1.156006,-29.220703 C -1.289469,-29.062825 -1.356201,-28.809733 -1.356201,-28.461426 C -1.356201,-28.118001 -1.287028,-27.866943 -1.148682,-27.708252 C -1.010335,-27.54956 -0.830485,-27.470215 -0.609131,-27.470215 C -0.319214,-27.46996 -0.096639,-27.647064 -0.018311,-27.995117 L 0.408936,-27.929199 Q 0.333252,-27.536133 0.064697,-27.32251 Q -0.203857,-27.108887 -0.626221,-27.108887 Q -0.960693,-27.108887 -1.245117,-27.266357 Q -1.529541,-27.423828 -1.668701,-27.738769 Q -1.807861,-28.053711 -1.807861,-28.473633 Q -1.807861,-29.123047 -1.484375,-29.470947 Q -1.160889,-29.818848 -0.628662,-29.818848 Q -0.203857,-29.818848 0.087891,-29.566162 Q 0.379639,-29.313477 0.450439,-28.866699" />
      <path d="M 0.828857,-29.760254 L 1.268311,-29.760254 L 1.268311,-28.732422 L 1.578369,-28.43457 L 2.435303,-29.760254 L 2.977295,-29.760254 L 1.885986,-28.129394 L 2.877197,-27.16748 L 2.30835,-27.16748 L 1.268311,-28.222168 L 1.268311,-26.181152 L 0.828857,-26.181152 L 0.828857,-29.760254" />
      <path d="M 5.55542,-28.981445 L 5.101318,-28.925293 C 4.967855,-29.29893 4.73999,-29.454976 4.417725,-29.457519 C 4.201253,-29.457519 4.020589,-29.381836 3.875732,-29.230469 C 3.730876,-29.079102 3.650309,-28.861003 3.634033,-28.576172 L 5.567627,-28.576172 Q 5.570068,-28.498047 5.570068,-28.458984 Q 5.570068,-27.816894 5.240479,-27.462891 Q 4.910889,-27.108887 4.390869,-27.108887 Q 3.85376,-27.108887 3.516846,-27.470215 Q 3.179932,-27.831543 3.179932,-28.48584 Q 3.179932,-29.118164 3.513184,-29.468506 Q 3.846436,-29.818848 4.415283,-29.818848 Q 4.866943,-29.818848 5.157471,-29.599121 Q 5.447998,-29.379394 5.55542,-28.981445 M 5.106201,-28.214844 L 3.658447,-28.214844 Q 3.68042,-27.875488 3.886719,-27.672852 Q 4.093018,-27.470215 4.395752,-27.470215 Q 4.730225,-27.470215 4.940186,-27.724121 Q 5.076904,-27.887695 5.106201,-28.214844" />
      <path d="M 7.130127,-29.755371 L 7.06665,-29.367187 Q 6.947021,-29.384277 6.873779,-29.384277 Q 6.776123,-29.384277 6.723633,-29.352539 Q 6.671143,-29.320801 6.647949,-29.26709 Q 6.624756,-29.213379 6.624756,-29.025391 L 6.624756,-27.509277 L 7.06665,-27.509277 L 7.06665,-27.16748 L 6.624756,-27.16748 L 6.624756,-26.261719 L 6.187744,-26.525391 L 6.187744,-27.16748 L 5.865479,-27.16748 L 5.865479,-27.509277 L 6.187744,-27.509277 L 6.187744,-29.000977 C 6.187744,-29.264648 6.205648,-29.437581 6.241455,-29.519775 C 6.277262,-29.601969 6.339111,-29.668294 6.427002,-29.71875 C 6.568387,-29.797293 6.804352,-29.823622 7.130127,-29.755371" />
      <path d="M -6.695557,-28.917969 L -7.130127,-28.986328 Q -7.056885,-29.398926 -6.791992,-29.608887 Q -6.5271,-29.818848 -6.021729,-29.818848 Q -5.716553,-29.818848 -5.474854,-29.712646 Q -5.233154,-29.606445 -5.10498,-29.412353 Q -4.976807,-29.218262 -4.976807,-28.998535 Q -4.976807,-28.773926 -5.081787,-28.622559 Q -5.186768,-28.471191 -5.371094,-28.391846 Q -5.55542,-28.3125 -6.021729,-28.187988 Q -6.343994,-28.100098 -6.409912,-28.075684 Q -6.524658,-28.029297 -6.578369,-27.958496 C -6.614176,-27.912923 -6.63208,-27.861654 -6.63208,-27.804687 C -6.63208,-27.715169 -6.588949,-27.637044 -6.502686,-27.570312 C -6.416423,-27.503581 -6.27238,-27.470215 -6.070557,-27.470215 C -5.728251,-27.467671 -5.543722,-27.630636 -5.50415,-27.895019 L -5.074463,-27.836426 Q -5.115967,-27.584961 -5.22583,-27.434814 Q -5.335693,-27.284668 -5.566406,-27.196777 Q -5.797119,-27.108887 -6.102295,-27.108887 Q -6.304932,-27.108887 -6.481934,-27.161377 Q -6.658936,-27.213867 -6.761475,-27.289551 C -6.941477,-27.417216 -7.059174,-27.62738 -7.056885,-27.855957 C -7.056885,-27.98291 -7.02474,-28.098877 -6.960449,-28.203857 C -6.896159,-28.308838 -6.801758,-28.391032 -6.677246,-28.450439 C -6.552734,-28.509847 -6.329346,-28.580241 -6.00708,-28.661621 Q -5.648193,-28.751953 -5.557861,-28.810547 C -5.471598,-28.867513 -5.428467,-28.945638 -5.428467,-29.044922 C -5.428467,-29.155599 -5.477295,-29.252034 -5.574951,-29.334228 C -5.672607,-29.416422 -5.822347,-29.457519 -6.02417,-29.457519 C -6.424815,-29.4593 -6.646474,-29.264496 -6.695557,-28.917969" />
      <path d="M -4.217529,-27.396973 Q -4.61792,-27.743652 -4.61792,-28.463867 Q -4.61792,-29.120605 -4.282227,-29.469727 Q -3.946533,-29.818848 -3.4021,-29.818848 Q -3.062744,-29.818848 -2.775879,-29.660156 Q -2.489014,-29.501465 -2.338867,-29.2146 Q -2.188721,-28.927734 -2.188721,-28.427246 Q -2.188721,-27.80957 -2.528076,-27.459228 Q -2.867432,-27.108887 -3.4021,-27.108887 Q -3.883057,-27.108887 -4.217529,-27.396973 M -4.16626,-28.463867 Q -4.16626,-27.96582 -3.948975,-27.719238 Q -3.731689,-27.472656 -3.4021,-27.472656 Q -3.077393,-27.472656 -2.858887,-27.720459 Q -2.640381,-27.968262 -2.640381,-28.449219 Q -2.640381,-28.959473 -2.857666,-29.208496 Q -3.074951,-29.457519 -3.4021,-29.457519 Q -3.731689,-29.457519 -3.948975,-29.209717 Q -4.16626,-28.961914 -4.16626,-28.463867" />
      <path d="M 41.6448,-33.8 L 41.6448,-22.2 L 34.6848,-22.2 L 34.6848,-25.1 L 33.857333,-24.27988 L 33.029867,-25.1 L 32.2024,-24.27988 L 31.374933,-25.1 L 30.547467,-24.27988 L 29.72,-25.1 L 28.892533,-24.27988 L 28.065067,-25.1 L 27.2376,-24.27988 L 26.410133,-25.1 L 25.582667,-24.27988 L 24.7552,-25.1 L 24.7552,-30.9 L 25.582667,-31.72012 L 26.410133,-30.9 L 27.2376,-31.72012 L 28.065067,-30.9 L 28.892533,-31.72012 L 29.72,-30.9 L 30.547467,-31.72012 L 31.374933,-30.9 L 32.2024,-31.72012 L 33.029867,-30.9 L 33.857333,-31.72012 L 34.6848,-30.9 L 34.6848,-33.8 L 41.6448,-33.8" />
      <path d="M -35.622222,-36.2 A 5.8,5.155555555555555 90.0 0,1 -35.622222,-47.8 L -35.622222,-44.577778 L -25.622222,-44.577778 L -25.622222,-39.422222 L -35.622222,-39.422222 L -35.622222,-36.2" />
      <path d="M -4.144287,-41.396973 Q -4.544678,-41.743652 -4.544678,-42.463867 Q -4.544678,-43.120605 -4.208984,-43.469727 Q -3.873291,-43.818848 -3.328857,-43.818848 Q -2.989502,-43.818848 -2.702637,-43.660156 Q -2.415771,-43.501465 -2.265625,-43.2146 Q -2.115479,-42.927734 -2.115479,-42.427246 Q -2.115479,-41.80957 -2.454834,-41.459229 Q -2.794189,-41.108887 -3.328857,-41.108887 Q -3.809814,-41.108887 -4.144287,-41.396973 M -4.093018,-42.463867 Q -4.093018,-41.96582 -3.875732,-41.719238 Q -3.658447,-41.472656 -3.328857,-41.472656 Q -3.00415,-41.472656 -2.785645,-41.720459 Q -2.567139,-41.968262 -2.567139,-42.449219 Q -2.567139,-42.959473 -2.784424,-43.208496 Q -3.001709,-43.45752 -3.328857,-43.45752 Q -3.658447,-43.45752 -3.875732,-43.209717 Q -4.093018,-42.961914 -4.093018,-42.463867" />
      <path d="M 0.098877,-43.760254 L 0.491943,-43.760254 L 0.491943,-41.16748 L 0.05249,-41.16748 L 0.05249,-42.556641 Q 0.05249,-42.888672 -0.019531,-43.063232 Q -0.091553,-43.237793 -0.264893,-43.339111 Q -0.438232,-43.44043 -0.635986,-43.44043 Q -0.83374,-43.44043 -0.968018,-43.341553 Q -1.102295,-43.242676 -1.143799,-43.069336 Q -1.170654,-42.949707 -1.170654,-42.605469 L -1.170654,-41.16748 L -1.610107,-41.16748 L -1.610107,-42.773926 Q -1.610107,-43.054688 -1.583252,-43.184082 Q -1.544189,-43.376953 -1.447754,-43.51001 Q -1.351318,-43.643066 -1.152344,-43.730957 Q -0.953369,-43.818848 -0.723877,-43.818848 Q -0.203857,-43.818848 0.098877,-43.379395 L 0.098877,-43.760254" />
      <path d="M 1.18042,-43.760254 L 1.619873,-43.760254 L 1.619873,-42.344238 Q 1.619873,-41.846191 1.82373,-41.667969 Q 2.027588,-41.489746 2.30835,-41.489746 Q 2.484131,-41.489746 2.614746,-41.569092 Q 2.745361,-41.648438 2.796631,-41.781494 Q 2.8479,-41.914551 2.8479,-42.183105 L 2.8479,-43.760254 L 3.287354,-43.760254 L 3.287354,-42.166016 Q 3.287354,-41.86084 3.262939,-41.73877 Q 3.223877,-41.550781 3.126221,-41.414062 Q 3.028564,-41.277344 2.832031,-41.193115 Q 2.635498,-41.108887 2.401123,-41.108887 Q 1.861572,-41.108887 1.575928,-41.536133 L 1.575928,-41.16748 L 1.18042,-41.16748 L 1.18042,-43.760254" />
      <path d="M 5.643311,-43.760254 L 6.051025,-43.760254 L 6.051025,-40.181152 L 5.614014,-40.181152 L 5.614014,-41.465332 Q 5.499268,-41.306641 5.316162,-41.207764 Q 5.133057,-41.108887 4.898682,-41.108887 Q 4.578857,-41.108887 4.320068,-41.277344 Q 4.061279,-41.445801 3.931885,-41.761963 Q 3.80249,-42.078125 3.80249,-42.466309 Q 3.80249,-42.864258 3.945312,-43.170654 Q 4.088135,-43.477051 4.348145,-43.647949 Q 4.608154,-43.818848 4.918213,-43.818848 Q 5.396729,-43.818848 5.643311,-43.433105 L 5.643311,-43.760254 M 4.25415,-42.466309 Q 4.25415,-41.951172 4.450684,-41.711914 Q 4.647217,-41.472656 4.940186,-41.472656 Q 5.240479,-41.472656 5.445557,-41.72168 Q 5.650635,-41.970703 5.650635,-42.50293 Q 5.650635,-42.986328 5.449219,-43.221924 Q 5.247803,-43.45752 4.959717,-43.45752 Q 4.674072,-43.45752 4.464111,-43.210938 Q 4.25415,-42.964355 4.25415,-42.466309" />
      <path d="M -6.051025,-43.760254 L -5.611572,-43.760254 L -5.611572,-42.402832 Q -5.611572,-42.124512 -5.53833,-41.890137 Q -5.489502,-41.736328 -5.374756,-41.649658 Q -5.26001,-41.562988 -5.115967,-41.562988 Q -4.954834,-41.562988 -4.793701,-41.658203 L -4.642334,-41.250488 Q -4.871826,-41.108887 -5.093994,-41.108887 Q -5.247803,-41.108887 -5.375977,-41.196777 Q -5.50415,-41.284668 -5.655518,-41.560547 L -5.655518,-41.16748 L -6.051025,-41.16748 L -6.051025,-43.760254" />
      <path d="M 35.8448,-36.2 L 34.6848,-36.2 L 34.6848,-39.1 L 33.857333,-38.27988 L 33.029867,-39.1 L 32.2024,-38.27988 L 31.374933,-39.1 L 30.547467,-38.27988 L 29.72,-39.1 L 28.892533,-38.27988 L 28.065067,-39.1 L 27.2376,-38.27988 L 26.410133,-39.1 L 25.582667,-38.27988 L 24.7552,-39.1 L 24.7552,-44.9 L 25.582667,-45.72012 L 26.410133,-44.9 L 27.2376,-45.72012 L 28.065067,-44.9 L 28.892533,-45.72012 L 29.72,-44.9 L 30.547467,-45.72012 L 31.374933,-44.9 L 32.2024,-45.72012 L 33.029867,-44.9 L 33.857333,-45.72012 L 34.6848,-44.9 L 34.6848,-47.8 L 35.8448,-47.8 A 5.8,5.8 -90.0 0,1 35.8448,-36.2" />
      <path d="M -38.2,-50.2 L -38.2,-61.8 L -33.044444,-58.577778 L -28.2,-58.577778 L -28.2,-53.422222 L -33.044444,-53.422222 L -38.2,-50.2" />
      <path d="M 3.55835,-56.917969 L 3.123779,-56.986328 Q 3.197022,-57.398926 3.461914,-57.608887 Q 3.726807,-57.818848 4.232178,-57.818848 Q 4.537354,-57.818848 4.779053,-57.712646 Q 5.020752,-57.606445 5.148926,-57.412353 Q 5.2771,-57.218262 5.2771,-56.998535 Q 5.2771,-56.773926 5.172119,-56.622559 Q 5.067139,-56.471191 4.882813,-56.391846 Q 4.698486,-56.3125 4.232178,-56.187988 Q 3.909912,-56.100098 3.843994,-56.075684 Q 3.729248,-56.029297 3.675537,-55.958496 C 3.63973,-55.912923 3.621826,-55.861654 3.621826,-55.804687 C 3.621826,-55.715169 3.664958,-55.637044 3.751221,-55.570312 C 3.837484,-55.503581 3.981527,-55.470215 4.18335,-55.470215 C 4.525655,-55.467671 4.710185,-55.630636 4.749756,-55.895019 L 5.179443,-55.836426 Q 5.13794,-55.584961 5.028076,-55.434814 Q 4.918213,-55.284668 4.6875,-55.196777 Q 4.456787,-55.108887 4.151611,-55.108887 Q 3.948975,-55.108887 3.771973,-55.161377 Q 3.594971,-55.213867 3.492432,-55.289551 C 3.312429,-55.417216 3.194733,-55.62738 3.197022,-55.855957 C 3.197022,-55.98291 3.229167,-56.098877 3.293457,-56.203857 C 3.357747,-56.308838 3.452148,-56.391032 3.57666,-56.450439 C 3.701172,-56.509847 3.924561,-56.580241 4.246826,-56.661621 Q 4.605713,-56.751953 4.696045,-56.810547 C 4.782308,-56.867513 4.82544,-56.945638 4.82544,-57.044922 C 4.82544,-57.155599 4.776611,-57.252034 4.678955,-57.334228 C 4.581299,-57.416422 4.431559,-57.457519 4.229736,-57.457519 C 3.829091,-57.4593 3.607432,-57.264496 3.55835,-56.917969" />
      <path d="M 7.498779,-57.760254 L 7.891846,-57.760254 L 7.891846,-55.16748 L 7.452393,-55.16748 L 7.452393,-56.556641 Q 7.452393,-56.888672 7.380371,-57.063232 Q 7.30835,-57.237793 7.13501,-57.339111 Q 6.96167,-57.44043 6.763916,-57.44043 Q 6.566162,-57.44043 6.431885,-57.341553 Q 6.297607,-57.242676 6.256104,-57.069336 Q 6.229248,-56.949707 6.229248,-56.605469 L 6.229248,-55.16748 L 5.789795,-55.16748 L 5.789795,-56.773926 Q 5.789795,-57.054687 5.81665,-57.184082 Q 5.855713,-57.376953 5.952148,-57.51001 Q 6.048584,-57.643066 6.247559,-57.730957 Q 6.446533,-57.818848 6.676025,-57.818848 Q 7.196045,-57.818848 7.498779,-57.379394 L 7.498779,-57.760254" />
      <path d="M 8.580322,-57.760254 L 9.019775,-57.760254 L 9.019775,-56.344238 Q 9.019775,-55.846191 9.223633,-55.667969 Q 9.42749,-55.489746 9.708252,-55.489746 Q 9.884033,-55.489746 10.014648,-55.569092 Q 10.145264,-55.648437 10.196533,-55.781494 Q 10.247803,-55.914551 10.247803,-56.183105 L 10.247803,-57.760254 L 10.687256,-57.760254 L 10.687256,-56.166016 Q 10.687256,-55.86084 10.662842,-55.738769 Q 10.623779,-55.550781 10.526123,-55.414062 Q 10.428467,-55.277344 10.231934,-55.193115 Q 10.0354,-55.108887 9.801025,-55.108887 Q 9.261475,-55.108887 8.97583,-55.536133 L 8.97583,-55.16748 L 8.580322,-55.16748 L 8.580322,-57.760254" />
      <path d="M 11.363525,-57.760254 L 11.802979,-57.760254 L 11.802979,-56.732422 L 12.113037,-56.43457 L 12.969971,-57.760254 L 13.511963,-57.760254 L 12.420654,-56.129394 L 13.411865,-55.16748 L 12.843018,-55.16748 L 11.802979,-56.222168 L 11.802979,-54.181152 L 11.363525,-54.181152 L 11.363525,-57.760254" />
      <path d="M -11.253662,-56.866699 L -11.685791,-56.810547 C -11.716715,-57.030273 -11.789958,-57.193034 -11.905518,-57.298828 C -12.021077,-57.404622 -12.16512,-57.457519 -12.337646,-57.457519 C -12.55249,-57.457519 -12.726644,-57.378581 -12.860107,-57.220703 C -12.993571,-57.062825 -13.060303,-56.809733 -13.060303,-56.461426 C -13.060303,-56.118001 -12.99113,-55.866943 -12.852783,-55.708252 C -12.714437,-55.54956 -12.534587,-55.470215 -12.313232,-55.470215 C -12.023316,-55.46996 -11.80074,-55.647064 -11.722412,-55.995117 L -11.295166,-55.929199 Q -11.37085,-55.536133 -11.639404,-55.32251 Q -11.907959,-55.108887 -12.330322,-55.108887 Q -12.664795,-55.108887 -12.949219,-55.266357 Q -13.233643,-55.423828 -13.372803,-55.738769 Q -13.511963,-56.053711 -13.511963,-56.473633 Q -13.511963,-57.123047 -13.188477,-57.470947 Q -12.86499,-57.818848 -12.332764,-57.818848 Q -11.907959,-57.818848 -11.616211,-57.566162 Q -11.324463,-57.313477 -11.253662,-56.866699" />
      <path d="M -10.640869,-55.396973 Q -11.04126,-55.743652 -11.04126,-56.463867 Q -11.04126,-57.120605 -10.705566,-57.469727 Q -10.369873,-57.818848 -9.825439,-57.818848 Q -9.486084,-57.818848 -9.199219,-57.660156 Q -8.912353,-57.501465 -8.762207,-57.2146 Q -8.61206,-56.927734 -8.61206,-56.427246 Q -8.61206,-55.80957 -8.951416,-55.459228 Q -9.290771,-55.108887 -9.825439,-55.108887 Q -10.306396,-55.108887 -10.640869,-55.396973 M -10.5896,-56.463867 Q -10.5896,-55.96582 -10.372314,-55.719238 Q -10.155029,-55.472656 -9.825439,-55.472656 Q -9.500732,-55.472656 -9.282227,-55.720459 Q -9.063721,-55.968262 -9.063721,-56.449219 Q -9.063721,-56.959473 -9.281006,-57.208496 Q -9.498291,-57.457519 -9.825439,-57.457519 Q -10.155029,-57.457519 -10.372314,-57.209717 Q -10.5896,-56.961914 -10.5896,-56.463867" />
      <path d="M -6.397705,-57.760254 L -6.004639,-57.760254 L -6.004639,-55.16748 L -6.444092,-55.16748 L -6.444092,-56.556641 Q -6.444092,-56.888672 -6.516113,-57.063232 Q -6.588135,-57.237793 -6.761475,-57.339111 Q -6.934814,-57.44043 -7.132568,-57.44043 Q -7.330322,-57.44043 -7.4646,-57.341553 Q -7.598877,-57.242676 -7.640381,-57.069336 Q -7.667236,-56.949707 -7.667236,-56.605469 L -7.667236,-55.16748 L -8.106689,-55.16748 L -8.106689,-56.773926 Q -8.106689,-57.054687 -8.079834,-57.184082 Q -8.040771,-57.376953 -7.944336,-57.51001 Q -7.8479,-57.643066 -7.648926,-57.730957 Q -7.449951,-57.818848 -7.220459,-57.818848 Q -6.700439,-57.818848 -6.397705,-57.379394 L -6.397705,-57.760254" />
      <path d="M -5.316162,-57.760254 L -4.876709,-57.760254 L -4.876709,-56.344238 Q -4.876709,-55.846191 -4.672852,-55.667969 Q -4.468994,-55.489746 -4.188232,-55.489746 Q -4.012451,-55.489746 -3.881836,-55.569092 Q -3.751221,-55.648437 -3.699951,-55.781494 Q -3.648682,-55.914551 -3.648682,-56.183105 L -3.648682,-57.760254 L -3.209228,-57.760254 L -3.209228,-56.166016 Q -3.209228,-55.86084 -3.233643,-55.738769 Q -3.272705,-55.550781 -3.370361,-55.414062 Q -3.468018,-55.277344 -3.664551,-55.193115 Q -3.861084,-55.108887 -4.095459,-55.108887 Q -4.63501,-55.108887 -4.920654,-55.536133 L -4.920654,-55.16748 L -5.316162,-55.16748 L -5.316162,-57.760254" />
      <path d="M -1.512451,-57.755371 L -1.575928,-57.367187 Q -1.695557,-57.384277 -1.768799,-57.384277 Q -1.866455,-57.384277 -1.918945,-57.352539 Q -1.971435,-57.320801 -1.994629,-57.26709 Q -2.017822,-57.213379 -2.017822,-57.025391 L -2.017822,-55.509277 L -1.575928,-55.509277 L -1.575928,-55.16748 L -2.017822,-55.16748 L -2.017822,-54.261719 L -2.454834,-54.525391 L -2.454834,-55.16748 L -2.7771,-55.16748 L -2.7771,-55.509277 L -2.454834,-55.509277 L -2.454834,-57.000977 C -2.454834,-57.264648 -2.43693,-57.437581 -2.401123,-57.519775 C -2.365316,-57.601969 -2.303467,-57.668294 -2.215576,-57.71875 C -2.074191,-57.797293 -1.838226,-57.823622 -1.512451,-57.755371" />
      <path d="M 1.082764,-56.981445 L 0.628662,-56.925293 C 0.495199,-57.29893 0.267334,-57.454976 -0.054932,-57.457519 C -0.271403,-57.457519 -0.452067,-57.381836 -0.596924,-57.230469 C -0.741781,-57.079102 -0.822347,-56.861003 -0.838623,-56.576172 L 1.094971,-56.576172 Q 1.097412,-56.498047 1.097412,-56.458984 Q 1.097412,-55.816894 0.767822,-55.462891 Q 0.438232,-55.108887 -0.081787,-55.108887 Q -0.618896,-55.108887 -0.95581,-55.470215 Q -1.292725,-55.831543 -1.292725,-56.48584 Q -1.292725,-57.118164 -0.959473,-57.468506 Q -0.626221,-57.818848 -0.057373,-57.818848 Q 0.394287,-57.818848 0.684815,-57.599121 Q 0.975342,-57.379394 1.082764,-56.981445 M 0.633545,-56.214844 L -0.814209,-56.214844 Q -0.792236,-55.875488 -0.585937,-55.672852 Q -0.379639,-55.470215 -0.076904,-55.470215 Q 0.257568,-55.470215 0.467529,-55.724121 Q 0.604248,-55.887695 0.633545,-56.214844" />
      <path d="M 1.629639,-57.760254 L 2.069092,-57.760254 L 2.069092,-56.402832 Q 2.069092,-56.124512 2.142334,-55.890137 Q 2.191162,-55.736328 2.305908,-55.649658 Q 2.420654,-55.562988 2.564697,-55.562988 Q 2.72583,-55.562988 2.886963,-55.658203 L 3.03833,-55.250488 Q 2.808838,-55.108887 2.58667,-55.108887 Q 2.432861,-55.108887 2.304688,-55.196777 Q 2.176514,-55.284668 2.025147,-55.560547 L 2.025147,-55.16748 L 1.629639,-55.16748 L 1.629639,-57.760254" />
      <path d="M 41.6448,-61.8 L 41.6448,-50.2 L 34.6848,-53.1 L 33.857333,-52.27988 L 33.029867,-53.1 L 32.2024,-52.27988 L 31.374933,-53.1 L 30.547467,-52.27988 L 29.72,-53.1 L 28.892533,-52.27988 L 28.065067,-53.1 L 27.2376,-52.27988 L 26.410133,-53.1 L 25.582667,-52.27988 L 24.7552,-53.1 L 24.7552,-58.9 L 25.582667,-59.72012 L 26.410133,-58.9 L 27.2376,-59.72012 L 28.065067,-58.9 L 28.892533,-59.72012 L 29.72,-58.9 L 30.547467,-59.72012 L 31.374933,-58.9 L 32.2024,-59.72012 L 33.029867,-58.9 L 33.857333,-59.72012 L 34.6848,-58.9 L 41.6448,-61.8" />
      <path d="M -38.777778,-64.2 A 2.0,2.0 0.0 0,1 -40.777778,-66.2 L -40.777778,-73.8 A 2.0,2.0 0.0 0,1 -38.777778,-75.8 L -35.622222,-75.8 L -35.622222,-72.577778 L -28.2,-72.577778 L -25.622222,-70.0 L -28.2,-67.422222 L -35.622222,-67.422222 L -35.622222,-64.2 L -38.777778,-64.2" />
      <path d="M 1.984863,-71.263428 L 2.424316,-71.263428 L 2.424316,-68.670654 L 1.984863,-68.670654 L 1.984863,-71.263428" />
      <path d="M 1.984863,-68.189697 L 2.424316,-68.189697 L 2.424316,-67.684326 L 1.984863,-67.684326 L 1.984863,-68.189697" />
      <path d="M 3.093262,-71.263428 L 3.532715,-71.263428 L 3.532715,-69.847412 Q 3.532715,-69.349365 3.736572,-69.171143 Q 3.94043,-68.99292 4.221191,-68.99292 Q 4.396973,-68.99292 4.527588,-69.072266 Q 4.658203,-69.151611 4.709473,-69.284668 Q 4.760742,-69.417725 4.760742,-69.686279 L 4.760742,-71.263428 L 5.200195,-71.263428 L 5.200195,-69.669189 Q 5.200195,-69.364014 5.175781,-69.241943 Q 5.136719,-69.053955 5.039062,-68.917236 Q 4.941406,-68.780518 4.744873,-68.696289 Q 4.54834,-68.61206 4.313965,-68.61206 Q 3.774414,-68.61206 3.48877,-69.039307 L 3.48877,-68.670654 L 3.093262,-68.670654 L 3.093262,-71.263428" />
      <path d="M 6.220703,-71.541748 L 5.793457,-71.478271 Q 5.783691,-71.898193 6.069336,-72.106934 Q 6.35498,-72.315674 6.818848,-72.315674 Q 7.209473,-72.315674 7.476807,-72.169189 Q 7.744141,-72.022705 7.867432,-71.770019 Q 7.990723,-71.517334 7.990723,-70.911865 L 7.990723,-68.670654 L 7.585449,-68.670654 L 7.585449,-68.983154 Q 7.287598,-68.61206 6.828613,-68.61206 Q 6.484375,-68.61206 6.229248,-68.782959 Q 5.974121,-68.953857 5.839844,-69.267578 Q 5.705566,-69.581299 5.705566,-69.952393 Q 5.705566,-70.491943 5.998535,-70.877685 Q 6.291504,-71.263428 6.826172,-71.263428 Q 7.255859,-71.263428 7.543945,-70.924072 Q 7.546387,-71.35376 7.512207,-71.488037 Q 7.453613,-71.707764 7.287598,-71.829834 Q 7.121582,-71.951904 6.816406,-71.951904 Q 6.533203,-71.951904 6.369629,-71.829834 Q 6.247559,-71.739502 6.220703,-71.541748 M 6.157227,-69.920654 Q 6.157227,-69.451904 6.362305,-69.213867 Q 6.567383,-68.97583 6.860352,-68.97583 Q 7.158203,-68.97583 7.369385,-69.217529 Q 7.580566,-69.459228 7.580566,-69.935303 Q 7.580566,-70.43335 7.375488,-70.666504 Q 7.17041,-70.899658 6.867676,-70.899658 Q 6.5625,-70.899658 6.359863,-70.665283 Q 6.157227,-70.430908 6.157227,-69.920654" />
      <path d="M -6.726074,-71.258545 L -6.789551,-70.870361 Q -6.90918,-70.887451 -6.982422,-70.887451 Q -7.080078,-70.887451 -7.132568,-70.855713 Q -7.185059,-70.823975 -7.208252,-70.770264 Q -7.231445,-70.716553 -7.231445,-70.528564 L -7.231445,-69.012451 L -6.789551,-69.012451 L -6.789551,-68.670654 L -7.231445,-68.670654 L -7.231445,-67.764893 L -7.668457,-68.028564 L -7.668457,-68.670654 L -7.990723,-68.670654 L -7.990723,-69.012451 L -7.668457,-69.012451 L -7.668457,-70.50415 C -7.668457,-70.767822 -7.650553,-70.940755 -7.614746,-71.022949 C -7.578939,-71.105143 -7.51709,-71.171468 -7.429199,-71.221924 C -7.287814,-71.300467 -7.051849,-71.326796 -6.726074,-71.258545" />
      <path d="M -5.878906,-69.835205 C -6.111374,-69.901962 -6.308467,-70.020319 -6.422119,-70.231934 C -6.479899,-70.336914 -6.508789,-70.452881 -6.508789,-70.579834 C -6.508789,-70.796305 -6.432292,-70.974121 -6.279297,-71.113281 C -6.126302,-71.252441 -5.907389,-71.322021 -5.622559,-71.322021 C -5.450033,-71.322021 -5.288493,-71.293538 -5.137939,-71.236572 C -4.987386,-71.179606 -4.830729,-71.08195 -4.667969,-70.943603 Q -4.648438,-71.126709 -4.580078,-71.263428 L -4.121094,-71.263428 Q -4.204102,-71.114502 -4.232178,-70.952148 Q -4.260254,-70.789795 -4.260254,-70.177002 L -4.260254,-69.591064 Q -4.260254,-69.298096 -4.282227,-69.185791 Q -4.321289,-69.005127 -4.418945,-68.886719 Q -4.516602,-68.76831 -4.724121,-68.690185 Q -4.931641,-68.61206 -5.263672,-68.61206 Q -5.598145,-68.61206 -5.852051,-68.703613 Q -6.105957,-68.795166 -6.240234,-68.964844 Q -6.374512,-69.134521 -6.433105,-69.4104 L -6.003418,-69.468994 Q -5.932617,-69.193115 -5.784912,-69.084473 Q -5.637207,-68.97583 -5.327148,-68.97583 Q -4.995117,-68.97583 -4.82666,-69.124756 Q -4.702148,-69.234619 -4.702148,-69.503174 Q -4.702148,-69.527588 -4.70459,-69.61792 Q -4.956055,-69.70581 -5.488281,-69.769287 Q -5.749512,-69.801025 -5.878906,-69.835205 M -4.70459,-69.962158 L -4.70459,-70.123291 Q -4.70459,-70.413818 -4.775391,-70.562744 Q -4.868164,-70.755615 -5.065918,-70.866699 Q -5.263672,-70.977783 -5.517578,-70.977783 Q -5.773926,-70.977783 -5.906982,-70.860596 Q -6.040039,-70.743408 -6.040039,-70.567627 Q -6.040039,-70.452881 -5.979004,-70.358887 Q -5.917969,-70.264893 -5.805664,-70.216064 Q -5.693359,-70.167236 -5.422363,-70.128174 Q -4.943848,-70.059814 -4.70459,-69.962158" />
      <path d="M -3.579102,-72.25708 L -3.139648,-72.25708 L -3.139648,-70.994873 Q -3.027344,-71.136475 -2.852783,-71.229248 Q -2.678223,-71.322021 -2.458496,-71.322021 Q -2.158203,-71.322021 -1.885986,-71.152344 Q -1.61377,-70.982666 -1.470947,-70.664062 Q -1.328125,-70.345459 -1.328125,-69.94751 Q -1.328125,-69.576416 -1.45752,-69.265137 Q -1.586914,-68.953857 -1.84082,-68.782959 Q -2.094727,-68.61206 -2.426758,-68.61206 Q -2.680664,-68.61206 -2.858887,-68.710937 Q -3.037109,-68.809814 -3.178711,-69.007568 L -3.178711,-68.670654 L -3.579102,-68.670654 L -3.579102,-72.25708 M -3.181152,-69.981689 Q -3.181152,-69.481201 -2.965088,-69.21875 Q -2.749023,-68.956299 -2.468262,-68.956299 Q -2.185059,-68.956299 -1.981201,-69.202881 Q -1.777344,-69.449463 -1.777344,-69.945068 Q -1.777344,-70.465088 -1.986084,-70.712891 Q -2.194824,-70.960693 -2.487793,-70.960693 Q -2.775879,-70.960693 -2.978516,-70.721435 Q -3.181152,-70.482178 -3.181152,-69.981689" />
      <path d="M -0.79834,-72.25708 L -0.358887,-72.25708 L -0.358887,-70.994873 Q -0.246582,-71.136475 -0.072021,-71.229248 Q 0.102539,-71.322021 0.322266,-71.322021 Q 0.622559,-71.322021 0.894775,-71.152344 Q 1.166992,-70.982666 1.309814,-70.664062 Q 1.452637,-70.345459 1.452637,-69.94751 Q 1.452637,-69.576416 1.323242,-69.265137 Q 1.193848,-68.953857 0.939941,-68.782959 Q 0.686035,-68.61206 0.354004,-68.61206 Q 0.100098,-68.61206 -0.078125,-68.710937 Q -0.256348,-68.809814 -0.397949,-69.007568 L -0.397949,-68.670654 L -0.79834,-68.670654 L -0.79834,-72.25708 M -0.400391,-69.981689 Q -0.400391,-69.481201 -0.184326,-69.21875 Q 0.031738,-68.956299 0.3125,-68.956299 Q 0.595703,-68.956299 0.799561,-69.202881 Q 1.003418,-69.449463 1.003418,-69.945068 Q 1.003418,-70.465088 0.794678,-70.712891 Q 0.585937,-70.960693 0.292969,-70.960693 Q 0.004883,-70.960693 -0.197754,-70.721435 Q -0.400391,-70.482178 -0.400391,-69.981689" />
      <path d="M 41.6448,-66.2 A 2.0,2.0 0.0 0,1 39.6448,-64.2 L 34.6848,-64.2 L 34.6848,-67.1 L 33.857333,-66.27988 L 33.029867,-67.1 L 32.2024,-66.27988 L 31.374933,-67.1 L 30.547467,-66.27988 L 29.72,-67.1 L 28.892533,-66.27988 L 28.065067,-67.1 L 27.865067,-67.1 L 24.7552,-70.0 L 27.865067,-72.9 L 28.065067,-72.9 L 28.892533,-73.72012 L 29.72,-72.9 L 30.547467,-73.72012 L 31.374933,-72.9 L 32.2024,-73.72012 L 33.029867,-72.9 L 33.857333,-73.72012 L 34.6848,-72.9 L 34.6848,-75.8 L 39.6448,-75.8 A 2.0,2.0 0.0 0,1 41.6448,-73.8 L 41.6448,-66.2" />
      <path d="M -27.622222,-89.8 A 2.0,2.0 180.0 0,1 -25.622222,-87.8 L -25.622222,-80.2 A 2.0,2.0 180.0 0,1 -27.622222,-78.2 L -30.777778,-78.2 L -30.777778,-81.422222 L -40.777778,-81.422222 L -40.777778,-86.577778 L -30.777778,-86.577778 L -30.777778,-89.8 L -27.622222,-89.8" />
      <path d="M -3.269043,-86.316895 L -2.82959,-86.316895 L -2.82959,-85.054688 Q -2.717285,-85.196289 -2.542725,-85.289062 Q -2.368164,-85.381836 -2.148438,-85.381836 Q -1.848145,-85.381836 -1.575928,-85.212158 Q -1.303711,-85.04248 -1.160889,-84.723877 Q -1.018066,-84.405273 -1.018066,-84.007324 Q -1.018066,-83.63623 -1.147461,-83.324951 Q -1.276855,-83.013672 -1.530762,-82.842773 Q -1.784668,-82.671875 -2.116699,-82.671875 Q -2.370605,-82.671875 -2.548828,-82.770752 Q -2.727051,-82.869629 -2.868652,-83.067383 L -2.868652,-82.730469 L -3.269043,-82.730469 L -3.269043,-86.316895 M -2.871094,-84.041504 Q -2.871094,-83.541016 -2.655029,-83.278564 Q -2.438965,-83.016113 -2.158203,-83.016113 Q -1.875,-83.016113 -1.671143,-83.262695 Q -1.467285,-83.509277 -1.467285,-84.004883 Q -1.467285,-84.524902 -1.676025,-84.772705 Q -1.884766,-85.020508 -2.177734,-85.020508 Q -2.46582,-85.020508 -2.668457,-84.78125 Q -2.871094,-84.541992 -2.871094,-84.041504" />
      <path d="M -0.488281,-86.316895 L -0.048828,-86.316895 L -0.048828,-85.054688 Q 0.063477,-85.196289 0.238037,-85.289062 Q 0.412598,-85.381836 0.632324,-85.381836 Q 0.932617,-85.381836 1.204834,-85.212158 Q 1.477051,-85.04248 1.619873,-84.723877 Q 1.762695,-84.405273 1.762695,-84.007324 Q 1.762695,-83.63623 1.633301,-83.324951 Q 1.503906,-83.013672 1.25,-82.842773 Q 0.996094,-82.671875 0.664062,-82.671875 Q 0.410156,-82.671875 0.231934,-82.770752 Q 0.053711,-82.869629 -0.087891,-83.067383 L -0.087891,-82.730469 L -0.488281,-82.730469 L -0.488281,-86.316895 M -0.090332,-84.041504 Q -0.090332,-83.541016 0.125732,-83.278564 Q 0.341797,-83.016113 0.622559,-83.016113 Q 0.905762,-83.016113 1.109619,-83.262695 Q 1.313477,-83.509277 1.313477,-84.004883 Q 1.313477,-84.524902 1.104736,-84.772705 Q 0.895996,-85.020508 0.603027,-85.020508 Q 0.314941,-85.020508 0.112305,-84.78125 Q -0.090332,-84.541992 -0.090332,-84.041504" />
      <path d="M 4.521484,-84.544434 L 4.067383,-84.488281 C 3.933919,-84.861918 3.706055,-85.017965 3.383789,-85.020508 C 3.167318,-85.020508 2.986654,-84.944824 2.841797,-84.793457 C 2.69694,-84.64209 2.616374,-84.423991 2.600098,-84.13916 L 4.533691,-84.13916 Q 4.536133,-84.061035 4.536133,-84.021973 Q 4.536133,-83.379883 4.206543,-83.025879 Q 3.876953,-82.671875 3.356934,-82.671875 Q 2.819824,-82.671875 2.48291,-83.033203 Q 2.145996,-83.394531 2.145996,-84.048828 Q 2.145996,-84.681152 2.479248,-85.031494 Q 2.8125,-85.381836 3.381348,-85.381836 Q 3.833008,-85.381836 4.123535,-85.162109 Q 4.414062,-84.942383 4.521484,-84.544434 M 4.072266,-83.777832 L 2.624512,-83.777832 Q 2.646484,-83.438477 2.852783,-83.23584 Q 3.059082,-83.033203 3.361816,-83.033203 Q 3.696289,-83.033203 3.90625,-83.287109 Q 4.042969,-83.450684 4.072266,-83.777832" />
      <path d="M 6.755371,-85.323242 L 7.163086,-85.323242 L 7.163086,-81.744141 L 6.726074,-81.744141 L 6.726074,-83.02832 Q 6.611328,-82.869629 6.428223,-82.770752 Q 6.245117,-82.671875 6.010742,-82.671875 Q 5.690918,-82.671875 5.432129,-82.840332 Q 5.17334,-83.008789 5.043945,-83.324951 Q 4.914551,-83.641113 4.914551,-84.029297 Q 4.914551,-84.427246 5.057373,-84.733643 Q 5.200195,-85.040039 5.460205,-85.210938 Q 5.720215,-85.381836 6.030273,-85.381836 Q 6.508789,-85.381836 6.755371,-84.996094 L 6.755371,-85.323242 M 5.366211,-84.029297 Q 5.366211,-83.51416 5.562744,-83.274902 Q 5.759277,-83.035645 6.052246,-83.035645 Q 6.352539,-83.035645 6.557617,-83.284668 Q 6.762695,-83.533691 6.762695,-84.065918 Q 6.762695,-84.549316 6.561279,-84.784912 Q 6.359863,-85.020508 6.071777,-85.020508 Q 5.786133,-85.020508 5.576172,-84.773926 Q 5.366211,-84.527344 5.366211,-84.029297" />
      <path d="M -6.774902,-85.323242 L -6.337891,-85.323242 L -6.337891,-83.072266 L -5.83252,-83.072266 L -5.83252,-82.730469 L -6.337891,-82.730469 L -6.337891,-82.491211 Q -6.337891,-82.256836 -6.254883,-82.171387 Q -6.171875,-82.085938 -5.97168,-82.085938 Q -5.849609,-82.085938 -5.712891,-82.110352 L -5.646973,-81.727051 Q -5.871582,-81.683105 -6.057129,-81.683105 Q -6.345215,-81.683105 -6.505127,-81.789307 Q -6.665039,-81.895508 -6.728516,-82.066406 Q -6.774902,-82.193359 -6.774902,-82.45459 L -6.774902,-82.730469 L -7.163086,-82.730469 L -7.163086,-83.072266 L -6.774902,-83.072266 L -6.774902,-85.323242" />
      <path d="M -5.500488,-85.323242 L -5.061035,-85.323242 L -5.061035,-81.744141 L -5.500488,-81.744141 L -5.500488,-85.323242" />
      <path d="M -4.377441,-85.323242 L -3.937988,-85.323242 L -3.937988,-82.730469 L -4.377441,-82.730469 L -4.377441,-85.323242" />
      <path d="M -4.377441,-82.249512 L -3.937988,-82.249512 L -3.937988,-81.744141 L -4.377441,-81.744141 L -4.377441,-82.249512" />
      <path d="M 24.7552,-87.8 A 2.0,2.0 180.0 0,1 26.7552,-89.8 L 31.7152,-89.8 L 31.7152,-86.9 L 32.542667,-87.72012 L 33.370133,-86.9 L 34.1976,-87.72012 L 35.025067,-86.9 L 35.852533,-87.72012 L 36.68,-86.9 L 37.507467,-87.72012 L 38.334933,-86.9 L 39.1624,-87.72012 L 39.989867,-86.9 L 40.817333,-87.72012 L 41.6448,-86.9 L 41.6448,-81.1 L 40.817333,-80.27988 L 39.989867,-81.1 L 39.1624,-80.27988 L 38.334933,-81.1 L 37.507467,-80.27988 L 36.68,-81.1 L 35.852533,-80.27988 L 35.025067,-81.1 L 34.1976,-80.27988 L 33.370133,-81.1 L 32.542667,-80.27988 L 31.7152,-81.1 L 31.7152,-78.2 L 26.7552,-78.2 A 2.0,2.0 180.0 0,1 24.7552,-80.2 L 24.7552,-87.8" />
      <path d="M -35.622222,-92.2 L -38.777778,-92.2 A 2.0,2.0 0.0 0,1 -40.777778,-94.2 L -40.777778,-96.711111 L -38.2,-96.711111 L -38.2,-99.288889 L -40.777778,-99.288889 L -40.777778,-101.8 A 2.0,2.0 0.0 0,1 -38.777778,-103.8 L -35.622222,-103.8 L -35.622222,-100.577778 L -25.622222,-100.577778 L -25.622222,-95.422222 L -35.622222,-95.422222 L -35.622222,-92.2" />
      <path d="M -3.360596,-98.917969 L -3.795166,-98.986328 Q -3.721924,-99.398926 -3.457031,-99.608887 Q -3.192139,-99.818848 -2.686768,-99.818848 Q -2.381592,-99.818848 -2.139893,-99.712646 Q -1.898193,-99.606445 -1.77002,-99.412353 Q -1.641846,-99.218262 -1.641846,-98.998535 Q -1.641846,-98.773926 -1.746826,-98.622559 Q -1.851807,-98.471191 -2.036133,-98.391846 Q -2.220459,-98.3125 -2.686768,-98.187988 Q -3.009033,-98.100098 -3.074951,-98.075684 Q -3.189697,-98.029297 -3.243408,-97.958496 C -3.279215,-97.912923 -3.297119,-97.861654 -3.297119,-97.804687 C -3.297119,-97.715169 -3.253988,-97.637044 -3.167725,-97.570312 C -3.081462,-97.503581 -2.937419,-97.470215 -2.735596,-97.470215 C -2.39329,-97.467671 -2.208761,-97.630636 -2.169189,-97.895019 L -1.739502,-97.836426 Q -1.781006,-97.584961 -1.890869,-97.434814 Q -2.000732,-97.284668 -2.231445,-97.196777 Q -2.462158,-97.108887 -2.767334,-97.108887 Q -2.969971,-97.108887 -3.146973,-97.161377 Q -3.323975,-97.213867 -3.426514,-97.289551 C -3.606516,-97.417216 -3.724213,-97.62738 -3.721924,-97.855957 C -3.721924,-97.98291 -3.689779,-98.098877 -3.625488,-98.203857 C -3.561198,-98.308838 -3.466797,-98.391032 -3.342285,-98.450439 C -3.217773,-98.509847 -2.994385,-98.580241 -2.672119,-98.661621 Q -2.313232,-98.751953 -2.2229,-98.810547 C -2.136637,-98.867513 -2.093506,-98.945638 -2.093506,-99.044922 C -2.093506,-99.155599 -2.142334,-99.252034 -2.23999,-99.334228 C -2.337646,-99.416422 -2.487386,-99.457519 -2.689209,-99.457519 C -3.089854,-99.4593 -3.311513,-99.264496 -3.360596,-98.917969" />
      <path d="M -1.12915,-99.760254 L -0.689697,-99.760254 L -0.689697,-96.181152 L -1.12915,-96.181152 L -1.12915,-99.760254" />
      <path d="M 0.228271,-97.396973 Q -0.172119,-97.743652 -0.172119,-98.463867 Q -0.172119,-99.120605 0.163574,-99.469727 Q 0.499268,-99.818848 1.043701,-99.818848 Q 1.383057,-99.818848 1.669922,-99.660156 Q 1.956787,-99.501465 2.106934,-99.2146 Q 2.25708,-98.927734 2.25708,-98.427246 Q 2.25708,-97.80957 1.917725,-97.459228 Q 1.578369,-97.108887 1.043701,-97.108887 Q 0.562744,-97.108887 0.228271,-97.396973 M 0.279541,-98.463867 Q 0.279541,-97.96582 0.496826,-97.719238 Q 0.714111,-97.472656 1.043701,-97.472656 Q 1.368408,-97.472656 1.586914,-97.720459 Q 1.80542,-97.968262 1.80542,-98.449219 Q 1.80542,-98.959473 1.588135,-99.208496 Q 1.37085,-99.457519 1.043701,-99.457519 Q 0.714111,-99.457519 0.496826,-99.209717 Q 0.279541,-98.961914 0.279541,-98.463867" />
      <path d="M 3.795166,-99.755371 L 3.731689,-99.367187 Q 3.612061,-99.384277 3.538818,-99.384277 Q 3.441162,-99.384277 3.388672,-99.352539 Q 3.336182,-99.320801 3.312988,-99.26709 Q 3.289795,-99.213379 3.289795,-99.025391 L 3.289795,-97.509277 L 3.731689,-97.509277 L 3.731689,-97.16748 L 3.289795,-97.16748 L 3.289795,-96.261719 L 2.852783,-96.525391 L 2.852783,-97.16748 L 2.530518,-97.16748 L 2.530518,-97.509277 L 2.852783,-97.509277 L 2.852783,-99.000977 C 2.852783,-99.264648 2.870687,-99.437581 2.906494,-99.519775 C 2.942301,-99.601969 3.00415,-99.668294 3.092041,-99.71875 C 3.233427,-99.797293 3.469391,-99.823622 3.795166,-99.755371" />
      <path d="M -36.911111,-107.918519 L -38.777778,-107.918519 A 2.0,2.0 0.0 0,1 -40.777778,-109.918519 L -40.777778,-114.081481 A 2.0,2.0 0.0 0,1 -38.777778,-116.081481 L -36.911111,-116.081481 L -36.911111,-117.8 L -35.622222,-117.8 L -35.622222,-114.577778 L -25.622222,-114.577778 L -25.622222,-109.422222 L -35.622222,-109.422222 L -35.622222,-106.2 L -36.911111,-106.2 L -36.911111,-107.918519" />
      <path d="M 2.290039,-113.293945 L 2.729492,-113.293945 L 2.729492,-111.87793 Q 2.729492,-111.379883 2.93335,-111.20166 Q 3.137207,-111.023438 3.417969,-111.023438 Q 3.59375,-111.023438 3.724365,-111.102783 Q 3.85498,-111.182129 3.90625,-111.315186 Q 3.95752,-111.448242 3.95752,-111.716797 L 3.95752,-113.293945 L 4.396973,-113.293945 L 4.396973,-111.699707 Q 4.396973,-111.394531 4.372559,-111.272461 Q 4.333496,-111.084473 4.23584,-110.947754 Q 4.138184,-110.811035 3.94165,-110.726807 Q 3.745117,-110.642578 3.510742,-110.642578 Q 2.971191,-110.642578 2.685547,-111.069824 L 2.685547,-110.701172 L 2.290039,-110.701172 L 2.290039,-113.293945" />
      <path d="M 5.41748,-113.572266 L 4.990234,-113.508789 Q 4.980469,-113.928711 5.266113,-114.137451 Q 5.551758,-114.346191 6.015625,-114.346191 Q 6.40625,-114.346191 6.673584,-114.199707 Q 6.940918,-114.053223 7.064209,-113.800537 Q 7.1875,-113.547852 7.1875,-112.942383 L 7.1875,-110.701172 L 6.782227,-110.701172 L 6.782227,-111.013672 Q 6.484375,-110.642578 6.025391,-110.642578 Q 5.681152,-110.642578 5.426025,-110.813477 Q 5.170898,-110.984375 5.036621,-111.298096 Q 4.902344,-111.611816 4.902344,-111.98291 Q 4.902344,-112.522461 5.195312,-112.908203 Q 5.488281,-113.293945 6.022949,-113.293945 Q 6.452637,-113.293945 6.740723,-112.95459 Q 6.743164,-113.384277 6.708984,-113.518555 Q 6.650391,-113.738281 6.484375,-113.860352 Q 6.318359,-113.982422 6.013184,-113.982422 Q 5.72998,-113.982422 5.566406,-113.860352 Q 5.444336,-113.77002 5.41748,-113.572266 M 5.354004,-111.951172 Q 5.354004,-111.482422 5.559082,-111.244385 Q 5.76416,-111.006348 6.057129,-111.006348 Q 6.35498,-111.006348 6.566162,-111.248047 Q 6.777344,-111.489746 6.777344,-111.96582 Q 6.777344,-112.463867 6.572266,-112.697021 Q 6.367187,-112.930176 6.064453,-112.930176 Q 5.759277,-112.930176 5.556641,-112.695801 Q 5.354004,-112.461426 5.354004,-111.951172" />
      <path d="M 10.080566,-112.515137 L 9.626465,-112.458984 C 9.493001,-112.832621 9.265137,-112.988668 8.942871,-112.991211 C 8.7264,-112.991211 8.545736,-112.915527 8.400879,-112.76416 C 8.256022,-112.612793 8.175456,-112.394694 8.15918,-112.109863 L 10.092773,-112.109863 Q 10.095215,-112.031738 10.095215,-111.992676 Q 10.095215,-111.350586 9.765625,-110.996582 Q 9.436035,-110.642578 8.916016,-110.642578 Q 8.378906,-110.642578 8.041992,-111.003906 Q 7.705078,-111.365234 7.705078,-112.019531 Q 7.705078,-112.651855 8.03833,-113.002197 Q 8.371582,-113.352539 8.94043,-113.352539 Q 9.39209,-113.352539 9.682617,-113.132812 Q 9.973145,-112.913086 10.080566,-112.515137 M 9.631348,-111.748535 L 8.183594,-111.748535 Q 8.205566,-111.40918 8.411865,-111.206543 Q 8.618164,-111.003906 8.920898,-111.003906 Q 9.255371,-111.003906 9.465332,-111.257812 Q 9.602051,-111.421387 9.631348,-111.748535" />
      <path d="M 12.314453,-113.293945 L 12.722168,-113.293945 L 12.722168,-109.714844 L 12.285156,-109.714844 L 12.285156,-110.999023 Q 12.17041,-110.840332 11.987305,-110.741455 Q 11.804199,-110.642578 11.569824,-110.642578 Q 11.25,-110.642578 10.991211,-110.811035 Q 10.732422,-110.979492 10.603027,-111.295654 Q 10.473633,-111.611816 10.473633,-112.0 Q 10.473633,-112.397949 10.616455,-112.704346 Q 10.759277,-113.010742 11.019287,-113.181641 Q 11.279297,-113.352539 11.589355,-113.352539 Q 12.067871,-113.352539 12.314453,-112.966797 L 12.314453,-113.293945 M 10.925293,-112.0 Q 10.925293,-111.484863 11.121826,-111.245605 Q 11.318359,-111.006348 11.611328,-111.006348 Q 11.911621,-111.006348 12.116699,-111.255371 Q 12.321777,-111.504395 12.321777,-112.036621 Q 12.321777,-112.52002 12.120361,-112.755615 Q 11.918945,-112.991211 11.630859,-112.991211 Q 11.345215,-112.991211 11.135254,-112.744629 Q 10.925293,-112.498047 10.925293,-112.0" />
      <path d="M -12.722168,-114.287598 L -12.282715,-114.287598 L -12.282715,-113.025391 Q -12.17041,-113.166992 -11.99585,-113.259766 Q -11.821289,-113.352539 -11.601563,-113.352539 Q -11.30127,-113.352539 -11.029053,-113.182861 Q -10.756836,-113.013184 -10.614014,-112.69458 Q -10.471191,-112.375977 -10.471191,-111.978027 Q -10.471191,-111.606934 -10.600586,-111.295654 Q -10.72998,-110.984375 -10.983887,-110.813477 Q -11.237793,-110.642578 -11.569824,-110.642578 Q -11.82373,-110.642578 -12.001953,-110.741455 Q -12.180176,-110.840332 -12.321777,-111.038086 L -12.321777,-110.701172 L -12.722168,-110.701172 L -12.722168,-114.287598 M -12.324219,-112.012207 Q -12.324219,-111.511719 -12.108154,-111.249268 Q -11.89209,-110.986816 -11.611328,-110.986816 Q -11.328125,-110.986816 -11.124268,-111.233398 Q -10.92041,-111.47998 -10.92041,-111.975586 Q -10.92041,-112.495605 -11.12915,-112.743408 Q -11.337891,-112.991211 -11.630859,-112.991211 Q -11.918945,-112.991211 -12.121582,-112.751953 Q -12.324219,-112.512695 -12.324219,-112.012207" />
      <path d="M -9.460449,-111.865723 C -9.692917,-111.93248 -9.89001,-112.050837 -10.003662,-112.262451 C -10.061442,-112.367432 -10.090332,-112.483398 -10.090332,-112.610352 C -10.090332,-112.826823 -10.013835,-113.004639 -9.86084,-113.143799 C -9.707845,-113.282959 -9.488932,-113.352539 -9.204102,-113.352539 C -9.031576,-113.352539 -8.870036,-113.324056 -8.719482,-113.26709 C -8.568929,-113.210124 -8.412272,-113.112467 -8.249512,-112.974121 Q -8.22998,-113.157227 -8.161621,-113.293945 L -7.702637,-113.293945 Q -7.785645,-113.14502 -7.813721,-112.982666 Q -7.841797,-112.820312 -7.841797,-112.20752 L -7.841797,-111.621582 Q -7.841797,-111.328613 -7.86377,-111.216309 Q -7.902832,-111.035645 -8.000488,-110.917236 Q -8.098145,-110.798828 -8.305664,-110.720703 Q -8.513184,-110.642578 -8.845215,-110.642578 Q -9.179688,-110.642578 -9.433594,-110.734131 Q -9.6875,-110.825684 -9.821777,-110.995361 Q -9.956055,-111.165039 -10.014648,-111.440918 L -9.584961,-111.499512 Q -9.51416,-111.223633 -9.366455,-111.11499 Q -9.21875,-111.006348 -8.908691,-111.006348 Q -8.57666,-111.006348 -8.408203,-111.155273 Q -8.283691,-111.265137 -8.283691,-111.533691 Q -8.283691,-111.558105 -8.286133,-111.648438 Q -8.537598,-111.736328 -9.069824,-111.799805 Q -9.331055,-111.831543 -9.460449,-111.865723 M -8.286133,-111.992676 L -8.286133,-112.153809 Q -8.286133,-112.444336 -8.356934,-112.593262 Q -8.449707,-112.786133 -8.647461,-112.897217 Q -8.845215,-113.008301 -9.099121,-113.008301 Q -9.355469,-113.008301 -9.488525,-112.891113 Q -9.621582,-112.773926 -9.621582,-112.598145 Q -9.621582,-112.483398 -9.560547,-112.389404 Q -9.499512,-112.29541 -9.387207,-112.246582 Q -9.274902,-112.197754 -9.003906,-112.158691 Q -8.525391,-112.090332 -8.286133,-111.992676" />
      <path d="M -7.160645,-113.293945 L -6.721191,-113.293945 L -6.721191,-111.87793 Q -6.721191,-111.379883 -6.517334,-111.20166 Q -6.313477,-111.023438 -6.032715,-111.023438 Q -5.856934,-111.023438 -5.726318,-111.102783 Q -5.595703,-111.182129 -5.544434,-111.315186 Q -5.493164,-111.448242 -5.493164,-111.716797 L -5.493164,-113.293945 L -5.053711,-113.293945 L -5.053711,-111.699707 Q -5.053711,-111.394531 -5.078125,-111.272461 Q -5.117188,-111.084473 -5.214844,-110.947754 Q -5.3125,-110.811035 -5.509033,-110.726807 Q -5.705566,-110.642578 -5.939941,-110.642578 Q -6.479492,-110.642578 -6.765137,-111.069824 L -6.765137,-110.701172 L -7.160645,-110.701172 L -7.160645,-113.293945" />
      <path d="M -4.265137,-113.293945 L -4.016113,-113.293945 Q -4.023438,-113.516113 -4.089355,-113.634521 Q -4.155273,-113.75293 -4.294434,-113.813965 L -4.172363,-114.001953 Q -3.959961,-113.90918 -3.862305,-113.739502 Q -3.764648,-113.569824 -3.764648,-113.293945 L -3.764648,-112.793457 L -4.265137,-112.793457 L -4.265137,-113.293945" />
      <path d="M -2.885742,-113.293945 L -2.44873,-113.293945 L -2.44873,-111.042969 L -1.943359,-111.042969 L -1.943359,-110.701172 L -2.44873,-110.701172 L -2.44873,-110.461914 Q -2.44873,-110.227539 -2.365723,-110.14209 Q -2.282715,-110.056641 -2.08252,-110.056641 Q -1.960449,-110.056641 -1.82373,-110.081055 L -1.757813,-109.697754 Q -1.982422,-109.653809 -2.167969,-109.653809 Q -2.456055,-109.653809 -2.615967,-109.76001 Q -2.775879,-109.866211 -2.839355,-110.037109 Q -2.885742,-110.164062 -2.885742,-110.425293 L -2.885742,-110.701172 L -3.273926,-110.701172 L -3.273926,-111.042969 L -2.885742,-111.042969 L -2.885742,-113.293945" />
      <path d="M -1.611328,-113.293945 L -1.171875,-113.293945 L -1.171875,-109.714844 L -1.611328,-109.714844 L -1.611328,-113.293945" />
      <path d="M -0.009766,-111.865723 C -0.242233,-111.93248 -0.439326,-112.050837 -0.552979,-112.262451 C -0.610758,-112.367432 -0.639648,-112.483398 -0.639648,-112.610352 C -0.639648,-112.826823 -0.563151,-113.004639 -0.410156,-113.143799 C -0.257161,-113.282959 -0.038249,-113.352539 0.246582,-113.352539 C 0.419108,-113.352539 0.580648,-113.324056 0.731201,-113.26709 C 0.881755,-113.210124 1.038411,-113.112467 1.201172,-112.974121 Q 1.220703,-113.157227 1.289062,-113.293945 L 1.748047,-113.293945 Q 1.665039,-113.14502 1.636963,-112.982666 Q 1.608887,-112.820312 1.608887,-112.20752 L 1.608887,-111.621582 Q 1.608887,-111.328613 1.586914,-111.216309 Q 1.547852,-111.035645 1.450195,-110.917236 Q 1.352539,-110.798828 1.14502,-110.720703 Q 0.9375,-110.642578 0.605469,-110.642578 Q 0.270996,-110.642578 0.01709,-110.734131 Q -0.236816,-110.825684 -0.371094,-110.995361 Q -0.505371,-111.165039 -0.563965,-111.440918 L -0.134277,-111.499512 Q -0.063477,-111.223633 0.084229,-111.11499 Q 0.231934,-111.006348 0.541992,-111.006348 Q 0.874023,-111.006348 1.04248,-111.155273 Q 1.166992,-111.265137 1.166992,-111.533691 Q 1.166992,-111.558105 1.164551,-111.648438 Q 0.913086,-111.736328 0.380859,-111.799805 Q 0.119629,-111.831543 -0.009766,-111.865723 M 1.164551,-111.992676 L 1.164551,-112.153809 Q 1.164551,-112.444336 1.09375,-112.593262 Q 1.000977,-112.786133 0.803223,-112.897217 Q 0.605469,-113.008301 0.351562,-113.008301 Q 0.095215,-113.008301 -0.037842,-112.891113 Q -0.170898,-112.773926 -0.170898,-112.598145 Q -0.170898,-112.483398 -0.109863,-112.389404 Q -0.048828,-112.29541 0.063477,-112.246582 Q 0.175781,-112.197754 0.446777,-112.158691 Q 0.925293,-112.090332 1.164551,-111.992676" />
      <path d="M 1.781006,-127.287842 L 1.717529,-126.899658 Q 1.5979,-126.916748 1.524658,-126.916748 Q 1.427002,-126.916748 1.374512,-126.88501 Q 1.322022,-126.853271 1.298828,-126.79956 Q 1.275635,-126.74585 1.275635,-126.557861 L 1.275635,-125.041748 L 1.717529,-125.041748 L 1.717529,-124.699951 L 1.275635,-124.699951 L 1.275635,-123.794189 L 0.838623,-124.057861 L 0.838623,-124.699951 L 0.516357,-124.699951 L 0.516357,-125.041748 L 0.838623,-125.041748 L 0.838623,-126.533447 C 0.838623,-126.797119 0.856527,-126.970052 0.892334,-127.052246 C 0.928141,-127.13444 0.98999,-127.200765 1.077881,-127.251221 C 1.219266,-127.329764 1.455231,-127.356092 1.781006,-127.287842" />
      <path d="M 2.149658,-124.218994 L 2.589111,-124.218994 L 2.589111,-123.713623 L 2.149658,-123.713623 L 2.149658,-124.218994" />
      <path d="M 2.149658,-127.292725 L 2.589111,-127.292725 L 2.589111,-124.699951 L 2.149658,-124.699951 L 2.149658,-127.292725" />
      <path d="M 3.739014,-125.864502 C 3.506546,-125.931259 3.309453,-126.049616 3.195801,-126.26123 C 3.138021,-126.366211 3.109131,-126.482178 3.109131,-126.609131 C 3.109131,-126.825602 3.185628,-127.003418 3.338623,-127.142578 C 3.491618,-127.281738 3.710531,-127.351318 3.995361,-127.351318 C 4.167887,-127.351318 4.329427,-127.322835 4.479981,-127.265869 C 4.630534,-127.208903 4.787191,-127.111247 4.949951,-126.9729 Q 4.969482,-127.156006 5.037842,-127.292725 L 5.496826,-127.292725 Q 5.413818,-127.143799 5.385742,-126.981445 Q 5.357666,-126.819092 5.357666,-126.206299 L 5.357666,-125.620361 Q 5.357666,-125.327393 5.335693,-125.215088 Q 5.296631,-125.034424 5.198975,-124.916016 Q 5.101318,-124.797607 4.893799,-124.719482 Q 4.686279,-124.641357 4.354248,-124.641357 Q 4.019775,-124.641357 3.765869,-124.73291 Q 3.511963,-124.824463 3.377686,-124.994141 Q 3.243408,-125.163818 3.184815,-125.439697 L 3.614502,-125.498291 Q 3.685303,-125.222412 3.833008,-125.113769 Q 3.980713,-125.005127 4.290772,-125.005127 Q 4.622803,-125.005127 4.79126,-125.154053 Q 4.915772,-125.263916 4.915772,-125.532471 Q 4.915772,-125.556885 4.91333,-125.647217 Q 4.661865,-125.735107 4.129639,-125.798584 Q 3.868408,-125.830322 3.739014,-125.864502 M 4.91333,-125.991455 L 4.91333,-126.152588 Q 4.91333,-126.443115 4.842529,-126.592041 Q 4.749756,-126.784912 4.552002,-126.895996 Q 4.354248,-127.00708 4.100342,-127.00708 Q 3.843994,-127.00708 3.710938,-126.889893 Q 3.577881,-126.772705 3.577881,-126.596924 Q 3.577881,-126.482178 3.638916,-126.388184 Q 3.699951,-126.294189 3.812256,-126.245361 Q 3.924561,-126.196533 4.195557,-126.157471 Q 4.674072,-126.089111 4.91333,-125.991455" />
      <path d="M 6.029053,-127.292725 L 6.468506,-127.292725 L 6.468506,-123.713623 L 6.029053,-123.713623 L 6.029053,-127.292725" />
      <path d="M -6.468506,-128.286377 L -6.029053,-128.286377 L -6.029053,-127.02417 Q -5.916748,-127.165771 -5.742187,-127.258545 Q -5.567627,-127.351318 -5.3479,-127.351318 Q -5.047607,-127.351318 -4.775391,-127.181641 Q -4.503174,-127.011963 -4.360352,-126.693359 Q -4.217529,-126.374756 -4.217529,-125.976807 Q -4.217529,-125.605713 -4.346924,-125.294434 Q -4.476318,-124.983154 -4.730225,-124.812256 Q -4.984131,-124.641357 -5.316162,-124.641357 Q -5.570068,-124.641357 -5.748291,-124.740234 Q -5.926514,-124.839111 -6.068115,-125.036865 L -6.068115,-124.699951 L -6.468506,-124.699951 L -6.468506,-128.286377 M -6.070557,-126.010986 Q -6.070557,-125.510498 -5.854492,-125.248047 Q -5.638428,-124.985596 -5.357666,-124.985596 Q -5.074463,-124.985596 -4.870605,-125.232178 Q -4.666748,-125.47876 -4.666748,-125.974365 Q -4.666748,-126.494385 -4.875488,-126.742187 Q -5.084228,-126.98999 -5.377197,-126.98999 Q -5.665283,-126.98999 -5.86792,-126.750732 Q -6.070557,-126.511475 -6.070557,-126.010986" />
      <path d="M -3.206787,-125.864502 C -3.439255,-125.931259 -3.636348,-126.049616 -3.75,-126.26123 C -3.80778,-126.366211 -3.83667,-126.482178 -3.83667,-126.609131 C -3.83667,-126.825602 -3.760172,-127.003418 -3.607178,-127.142578 C -3.454183,-127.281738 -3.23527,-127.351318 -2.950439,-127.351318 C -2.777913,-127.351318 -2.616374,-127.322835 -2.46582,-127.265869 C -2.315267,-127.208903 -2.15861,-127.111247 -1.99585,-126.9729 Q -1.976318,-127.156006 -1.907959,-127.292725 L -1.448975,-127.292725 Q -1.531982,-127.143799 -1.560059,-126.981445 Q -1.588135,-126.819092 -1.588135,-126.206299 L -1.588135,-125.620361 Q -1.588135,-125.327393 -1.610107,-125.215088 Q -1.64917,-125.034424 -1.746826,-124.916016 Q -1.844482,-124.797607 -2.052002,-124.719482 Q -2.259521,-124.641357 -2.591553,-124.641357 Q -2.926025,-124.641357 -3.179932,-124.73291 Q -3.433838,-124.824463 -3.568115,-124.994141 Q -3.702393,-125.163818 -3.760986,-125.439697 L -3.331299,-125.498291 Q -3.260498,-125.222412 -3.112793,-125.113769 Q -2.965088,-125.005127 -2.655029,-125.005127 Q -2.322998,-125.005127 -2.154541,-125.154053 Q -2.030029,-125.263916 -2.030029,-125.532471 Q -2.030029,-125.556885 -2.032471,-125.647217 Q -2.283935,-125.735107 -2.816162,-125.798584 Q -3.077393,-125.830322 -3.206787,-125.864502 M -2.032471,-125.991455 L -2.032471,-126.152588 Q -2.032471,-126.443115 -2.103271,-126.592041 Q -2.196045,-126.784912 -2.393799,-126.895996 Q -2.591553,-127.00708 -2.845459,-127.00708 Q -3.101807,-127.00708 -3.234863,-126.889893 Q -3.36792,-126.772705 -3.36792,-126.596924 Q -3.36792,-126.482178 -3.306885,-126.388184 Q -3.24585,-126.294189 -3.133545,-126.245361 Q -3.02124,-126.196533 -2.750244,-126.157471 Q -2.271728,-126.089111 -2.032471,-125.991455" />
      <path d="M -0.911865,-127.292725 L -0.472412,-127.292725 L -0.472412,-125.935303 Q -0.472412,-125.656982 -0.39917,-125.422607 Q -0.350342,-125.268799 -0.235596,-125.182129 Q -0.12085,-125.095459 0.023193,-125.095459 Q 0.184326,-125.095459 0.345459,-125.190674 L 0.496826,-124.782959 Q 0.267334,-124.641357 0.045166,-124.641357 Q -0.108643,-124.641357 -0.236816,-124.729248 Q -0.36499,-124.817139 -0.516357,-125.093018 L -0.516357,-124.699951 L -0.911865,-124.699951 L -0.911865,-127.292725" />
      <path d="M 41.6448,-122.2 A 2.0,2.0 0.0 0,1 39.6448,-120.2 L 34.6848,-120.2 L 34.6848,-123.1 L 29.72,-123.1 L 28.892533,-122.27988 L 28.065067,-123.1 L 27.2376,-122.27988 L 26.410133,-123.1 L 25.582667,-122.27988 L 24.7552,-123.1 L 24.7552,-128.9 L 25.582667,-129.72012 L 26.410133,-128.9 L 27.2376,-129.72012 L 28.065067,-128.9 L 28.892533,-129.72012 L 29.72,-128.9 L 34.6848,-128.9 L 34.6848,-131.8 L 39.6448,-131.8 A 2.0,2.0 0.0 0,1 41.6448,-129.8 L 41.6448,-122.2" />
      <path d="M 6.855469,-141.263428 L 7.294922,-141.263428 L 7.294922,-139.906006 Q 7.294922,-139.627686 7.368164,-139.393311 Q 7.416992,-139.239502 7.531738,-139.152832 Q 7.646484,-139.066162 7.790527,-139.066162 Q 7.95166,-139.066162 8.112793,-139.161377 L 8.26416,-138.753662 Q 8.034668,-138.612061 7.8125,-138.612061 Q 7.658691,-138.612061 7.530518,-138.699951 Q 7.402344,-138.787842 7.250977,-139.063721 L 7.250977,-138.670654 L 6.855469,-138.670654 L 6.855469,-141.263428" />
      <path d="M 8.527832,-141.263428 L 8.967285,-141.263428 L 8.967285,-138.670654 L 8.527832,-138.670654 L 8.527832,-141.263428" />
      <path d="M 8.527832,-138.189697 L 8.967285,-138.189697 L 8.967285,-137.684326 L 8.527832,-137.684326 L 8.527832,-138.189697" />
      <path d="M 10.65918,-141.258545 L 10.595703,-140.870361 Q 10.476074,-140.887451 10.402832,-140.887451 Q 10.305176,-140.887451 10.252686,-140.855713 Q 10.200195,-140.823975 10.177002,-140.770264 Q 10.153809,-140.716553 10.153809,-140.528564 L 10.153809,-139.012451 L 10.595703,-139.012451 L 10.595703,-138.670654 L 10.153809,-138.670654 L 10.153809,-137.764893 L 9.716797,-138.028564 L 9.716797,-138.670654 L 9.394531,-138.670654 L 9.394531,-139.012451 L 9.716797,-139.012451 L 9.716797,-140.50415 C 9.716797,-140.767822 9.734701,-140.940755 9.770508,-141.022949 C 9.806315,-141.105143 9.868164,-141.171468 9.956055,-141.221924 C 10.09744,-141.300467 10.333405,-141.326796 10.65918,-141.258545" />
      <path d="M 10.957031,-141.849365 L 11.005859,-142.261963 Q 11.162109,-142.315674 11.289062,-142.315674 Q 11.499023,-142.315674 11.650391,-142.214355 Q 11.801758,-142.113037 11.918945,-141.895752 Q 12.006836,-141.734619 12.165527,-141.307373 L 13.151855,-138.670654 L 12.712402,-138.670654 L 12.158203,-140.181885 Q 12.053223,-140.469971 11.977539,-140.772705 Q 11.894531,-140.457764 11.789551,-140.172119 L 11.25,-138.670654 L 10.776367,-138.670654 L 11.760254,-141.268311 Q 11.733398,-141.339111 11.721191,-141.375732 Q 11.628418,-141.636963 11.586914,-141.702881 C 11.549479,-141.761475 11.501465,-141.807048 11.442871,-141.8396 C 11.340277,-141.89344 11.184237,-141.911493 10.957031,-141.849365" />
      <path d="M -13.151855,-141.263428 L -12.712402,-141.263428 L -12.712402,-139.844971 Q -12.712402,-139.539795 -12.63916,-139.366455 Q -12.565918,-139.193115 -12.393799,-139.091797 Q -12.22168,-138.990479 -12.026367,-138.990479 Q -11.765137,-138.990479 -11.622314,-139.140625 Q -11.479492,-139.290771 -11.479492,-139.620361 L -11.479492,-141.263428 L -11.040039,-141.263428 L -11.040039,-139.620361 Q -11.040039,-139.239502 -11.131592,-139.039307 Q -11.223145,-138.839111 -11.435547,-138.725586 Q -11.647949,-138.612061 -11.936035,-138.612061 Q -12.404785,-138.612061 -12.712402,-138.968506 L -12.712402,-137.684326 L -13.151855,-137.684326 L -13.151855,-141.263428" />
      <path d="M -8.14209,-140.484619 L -8.596191,-140.428467 C -8.729655,-140.802104 -8.95752,-140.95815 -9.279785,-140.960693 C -9.496257,-140.960693 -9.676921,-140.88501 -9.821777,-140.733643 C -9.966634,-140.582275 -10.047201,-140.364176 -10.063477,-140.079346 L -8.129883,-140.079346 Q -8.127441,-140.001221 -8.127441,-139.962158 Q -8.127441,-139.320068 -8.457031,-138.966064 Q -8.786621,-138.612061 -9.306641,-138.612061 Q -9.84375,-138.612061 -10.180664,-138.973389 Q -10.517578,-139.334717 -10.517578,-139.989014 Q -10.517578,-140.621338 -10.184326,-140.97168 Q -9.851074,-141.322021 -9.282227,-141.322021 Q -8.830566,-141.322021 -8.540039,-141.102295 Q -8.249512,-140.882568 -8.14209,-140.484619 M -8.591309,-139.718018 L -10.039063,-139.718018 Q -10.01709,-139.378662 -9.810791,-139.176025 Q -9.604492,-138.973389 -9.301758,-138.973389 Q -8.967285,-138.973389 -8.757324,-139.227295 Q -8.620605,-139.390869 -8.591309,-139.718018" />
      <path d="M -7.883301,-141.263428 L -7.351074,-141.263428 L -6.669922,-140.240479 L -6.52832,-140.457764 L -5.996094,-141.263428 L -5.456543,-141.263428 L -6.420898,-139.891357 L -5.524902,-138.670654 L -6.049805,-138.670654 L -6.486816,-139.283447 Q -6.577148,-139.407959 -6.68457,-139.569092 Q -6.75293,-139.451904 -6.865234,-139.278564 L -7.263184,-138.670654 L -7.8125,-138.670654 L -6.936035,-139.915771 L -7.883301,-141.263428" />
      <path d="M -4.975586,-141.263428 L -4.726563,-141.263428 Q -4.733887,-141.485596 -4.799805,-141.604004 Q -4.865723,-141.722412 -5.004883,-141.783447 L -4.882813,-141.971436 Q -4.67041,-141.878662 -4.572754,-141.708984 Q -4.475098,-141.539307 -4.475098,-141.263428 L -4.475098,-140.762939 L -4.975586,-140.762939 L -4.975586,-141.263428" />
      <path d="M -3.442383,-140.421143 L -3.876953,-140.489502 Q -3.803711,-140.9021 -3.538818,-141.112061 Q -3.273926,-141.322021 -2.768555,-141.322021 Q -2.463379,-141.322021 -2.22168,-141.21582 Q -1.97998,-141.109619 -1.851807,-140.915527 Q -1.723633,-140.721436 -1.723633,-140.501709 Q -1.723633,-140.2771 -1.828613,-140.125732 Q -1.933594,-139.974365 -2.11792,-139.89502 Q -2.302246,-139.815674 -2.768555,-139.691162 Q -3.09082,-139.603271 -3.156738,-139.578857 Q -3.271484,-139.532471 -3.325195,-139.46167 C -3.361003,-139.416097 -3.378906,-139.364827 -3.378906,-139.307861 C -3.378906,-139.218343 -3.335775,-139.140218 -3.249512,-139.073486 C -3.163249,-139.006755 -3.019206,-138.973389 -2.817383,-138.973389 C -2.475077,-138.970845 -2.290548,-139.13381 -2.250977,-139.398193 L -1.821289,-139.3396 Q -1.862793,-139.088135 -1.972656,-138.937988 Q -2.08252,-138.787842 -2.313232,-138.699951 Q -2.543945,-138.612061 -2.849121,-138.612061 Q -3.051758,-138.612061 -3.22876,-138.664551 Q -3.405762,-138.717041 -3.508301,-138.792725 C -3.688303,-138.92039 -3.806,-139.130554 -3.803711,-139.359131 C -3.803711,-139.486084 -3.771566,-139.602051 -3.707275,-139.707031 C -3.642985,-139.812012 -3.548584,-139.894206 -3.424072,-139.953613 C -3.299561,-140.013021 -3.076172,-140.083415 -2.753906,-140.164795 Q -2.39502,-140.255127 -2.304688,-140.313721 C -2.218424,-140.370687 -2.175293,-140.448812 -2.175293,-140.548096 C -2.175293,-140.658773 -2.224121,-140.755208 -2.321777,-140.837402 C -2.419434,-140.919596 -2.569173,-140.960693 -2.770996,-140.960693 C -3.171641,-140.962474 -3.3933,-140.76767 -3.442383,-140.421143" />
      <path d="M 1.027832,-140.484619 L 0.57373,-140.428467 C 0.440267,-140.802104 0.212402,-140.95815 -0.109863,-140.960693 C -0.326335,-140.960693 -0.506999,-140.88501 -0.651855,-140.733643 C -0.796712,-140.582275 -0.877279,-140.364176 -0.893555,-140.079346 L 1.040039,-140.079346 Q 1.04248,-140.001221 1.04248,-139.962158 Q 1.04248,-139.320068 0.712891,-138.966064 Q 0.383301,-138.612061 -0.136719,-138.612061 Q -0.673828,-138.612061 -1.010742,-138.973389 Q -1.347656,-139.334717 -1.347656,-139.989014 Q -1.347656,-140.621338 -1.014404,-140.97168 Q -0.681152,-141.322021 -0.112305,-141.322021 Q 0.339355,-141.322021 0.629883,-141.102295 Q 0.92041,-140.882568 1.027832,-140.484619 M 0.578613,-139.718018 L -0.869141,-139.718018 Q -0.847168,-139.378662 -0.640869,-139.176025 Q -0.43457,-138.973389 -0.131836,-138.973389 Q 0.202637,-138.973389 0.412598,-139.227295 Q 0.549316,-139.390869 0.578613,-139.718018" />
      <path d="M 3.703613,-140.369873 L 3.271484,-140.313721 C 3.24056,-140.533447 3.167318,-140.696208 3.051758,-140.802002 C 2.936198,-140.907796 2.792155,-140.960693 2.619629,-140.960693 C 2.404785,-140.960693 2.230632,-140.881755 2.097168,-140.723877 C 1.963704,-140.565999 1.896973,-140.312907 1.896973,-139.9646 C 1.896973,-139.621175 1.966146,-139.370117 2.104492,-139.211426 C 2.242839,-139.052734 2.422689,-138.973389 2.644043,-138.973389 C 2.93396,-138.973134 3.156535,-139.150238 3.234863,-139.498291 L 3.662109,-139.432373 Q 3.586426,-139.039307 3.317871,-138.825684 Q 3.049316,-138.612061 2.626953,-138.612061 Q 2.29248,-138.612061 2.008057,-138.769531 Q 1.723633,-138.927002 1.584473,-139.241943 Q 1.445312,-139.556885 1.445312,-139.976807 Q 1.445312,-140.626221 1.768799,-140.974121 Q 2.092285,-141.322021 2.624512,-141.322021 Q 3.049316,-141.322021 3.341064,-141.069336 Q 3.632812,-140.81665 3.703613,-140.369873" />
      <path d="M 5.778809,-141.263428 L 6.171875,-141.263428 L 6.171875,-138.670654 L 5.732422,-138.670654 L 5.732422,-140.059814 Q 5.732422,-140.391846 5.6604,-140.566406 Q 5.588379,-140.740967 5.415039,-140.842285 Q 5.241699,-140.943604 5.043945,-140.943604 Q 4.846191,-140.943604 4.711914,-140.844727 Q 4.577637,-140.74585 4.536133,-140.57251 Q 4.509277,-140.452881 4.509277,-140.108643 L 4.509277,-138.670654 L 4.069824,-138.670654 L 4.069824,-140.2771 Q 4.069824,-140.557861 4.09668,-140.687256 Q 4.135742,-140.880127 4.232178,-141.013184 Q 4.328613,-141.14624 4.527588,-141.234131 Q 4.726562,-141.322021 4.956055,-141.322021 Q 5.476074,-141.322021 5.778809,-140.882568 L 5.778809,-141.263428" />
      <circle cx="37.75474" cy="-140.0" r="0.6264" />
    </g>
  </g>
</svg>