<?xml version='1.0' encoding='utf-8'?>
<svg width="51.302701mm" height="100.09mm" viewBox="-41.28428 -2.06133 83.001884 161.934135" version="1.1" xmlns="http://www.w3.org/2000/svg">
  <g transform="scale(1,-1)" stroke-linecap="round">
    <g fill="rgb(0,0,0)" stroke="rgb(0,0,0)" stroke-width="0.0" id="Shapes">
      <path d="M 41.6448,-150.2 A 2.0,2.0 0.0 0,1 39.6448,-148.2 L 34.6848,-148.2 L 34.6848,-151.1 L 33.857333,-150.27988 L 33.029867,-151.1 L 32.2024,-150.27988 L 31.374933,-151.1 L 30.547467,-150.27988 L 29.72,-151.1 L 28.892533,-150.27988 L 28.065067,-151.1 L 27.2376,-150.27988 L 26.410133,-151.1 L 25.582667,-150.27988 L 24.7552,-151.1 L 24.7552,-156.9 L 25.582667,-157.72012 L 26.410133,-156.9 L 27.2376,-157.72012 L 28.065067,-156.9 L 28.892533,-157.72012 L 29.72,-156.9 L 30.547467,-157.72012 L 31.374933,-156.9 L 32.2024,-157.72012 L 33.029867,-156.9 L 33.857333,-157.72012 L 34.6848,-156.9 L 34.6848,-159.8 L 39.6448,-159.8 A 2.0,2.0 0.0 0,1 41.6448,-157.8 L 41.6448,-150.2 M 39.32074,-151.287608 L 40.88674,-154.0 L 39.32074,-156.712392 L 36.18874,-156.712392 L 34.62274,-154.0 L 36.18874,-151.287608 L 39.32074,-151.287608" />
      <path d="M -33.513721,-1.646729 L -33.577197,-1.258545 Q -33.696826,-1.275635 -33.770068,-1.275635 Q -33.867725,-1.275635 -33.920215,-1.243896 Q -33.972705,-1.212158 -33.995898,-1.158447 Q -34.019092,-1.104736 -34.019092,-0.916748 L -34.019092,0.599365 L -33.577197,0.599365 L -33.577197,0.941162 L -34.019092,0.941162 L -34.019092,1.846924 L -34.456104,1.583252 L -34.456104,0.941162 L -34.778369,0.941162 L -34.778369,0.599365 L -34.456104,0.599365 L -34.456104,-0.892334 C -34.456104,-1.156006 -34.4382,-1.328939 -34.402393,-1.411133 C -34.366585,-1.493327 -34.304736,-1.559652 -34.216846,-1.610107 C -34.07546,-1.688651 -33.839495,-1.714979 -33.513721,-1.646729" />
      <path d="M -32.307666,-2.703857 L -31.992725,-2.703857 Q -32.722705,-1.531982 -32.722705,-0.357666 Q -32.722705,0.10376 -32.617725,0.560303 Q -32.532275,0.926514 -32.38335,1.263428 Q -32.288135,1.480713 -31.992725,1.988525 L -32.307666,1.988525 Q -32.76665,1.375732 -32.986377,0.758057 Q -33.174365,0.22583 -33.174365,-0.355225 Q -33.174365,-1.014404 -32.9229,-1.629639 Q -32.671436,-2.244873 -32.307666,-2.703857" />
      <path d="M -29.949268,-1.651611 L -29.949268,1.942139 L -30.232471,1.942139 Q -30.347217,1.710205 -30.623096,1.463623 Q -30.898975,1.217041 -31.267627,1.043701 L -31.267627,0.618896 Q -31.062549,0.69458 -30.80498,0.845947 Q -30.547412,0.997314 -30.388721,1.148682 L -30.388721,-1.651611 L -29.949268,-1.651611" />
      <path d="M -28.469775,-1.341553 C -28.272835,-1.588949 -28.001839,-1.712646 -27.656787,-1.712646 C -27.394743,-1.712646 -27.177865,-1.642253 -27.006152,-1.501465 C -26.83444,-1.360677 -26.705452,-1.161296 -26.619189,-0.90332 C -26.532926,-0.645345 -26.489795,-0.306396 -26.489795,0.113525 C -26.489795,0.468343 -26.51665,0.750326 -26.570361,0.959473 C -26.679309,1.377004 -26.860176,1.672312 -27.151416,1.826172 C -27.296273,1.903483 -27.46473,1.942139 -27.656787,1.942139 C -27.917204,1.942139 -28.133268,1.872152 -28.30498,1.732178 C -28.476693,1.592204 -28.606087,1.393229 -28.693164,1.135254 C -28.780241,0.877279 -28.823779,0.536702 -28.823779,0.113525 C -28.823779,-0.558675 -28.705778,-1.043701 -28.469775,-1.341553 M -28.145068,1.322021 Q -27.964404,1.578369 -27.66167,1.578369 Q -27.354053,1.578369 -27.147754,1.287842 Q -26.941455,0.997314 -26.941455,0.113525 Q -26.941455,-0.765381 -27.147754,-1.05835 Q -27.354053,-1.351318 -27.656787,-1.351318 Q -27.959521,-1.351318 -28.16582,-1.05957 Q -28.372119,-0.767822 -28.372119,0.113525 Q -28.372119,0.994873 -28.145068,1.322021" />
      <path d="M -25.806201,-1.651611 L -25.557178,-1.651611 Q -25.564502,-1.873779 -25.63042,-1.992188 Q -25.696338,-2.110596 -25.835498,-2.171631 L -25.713428,-2.359619 Q -25.501025,-2.266846 -25.403369,-2.097168 Q -25.305713,-1.92749 -25.305713,-1.651611 L -25.305713,-1.151123 L -25.806201,-1.151123 L -25.806201,-1.651611" />
      <path d="M -40.80376,-1.651611 L -40.80376,-1.326904 C -40.629606,-1.582438 -40.389535,-1.710205 -40.083545,-1.710205 C -39.775928,-1.710205 -39.512256,-1.588949 -39.292529,-1.346436 C -39.072803,-1.103923 -38.962939,-0.760498 -38.962939,-0.316162 C -38.962939,-0.128988 -38.988981,0.046794 -39.041064,0.211182 C -39.146884,0.539322 -39.322208,0.775375 -39.608691,0.90332 C -39.751107,0.967611 -39.902067,0.999756 -40.061572,0.999756 C -40.349658,0.999756 -40.586475,0.883382 -40.772021,0.650635 L -40.772021,1.92749 L -41.211475,1.92749 L -41.211475,-1.651611 L -40.80376,-1.651611 M -40.681689,-1.009521 Q -40.808643,-0.802002 -40.808643,-0.335693 Q -40.808643,0.137939 -40.598682,0.388184 Q -40.388721,0.638428 -40.100635,0.638428 Q -39.81499,0.638428 -39.613574,0.396729 Q -39.412158,0.155029 -39.412158,-0.352783 Q -39.412158,-0.848389 -39.622119,-1.098633 Q -39.83208,-1.348877 -40.120166,-1.348877 Q -40.47417,-1.348877 -40.681689,-1.009521" />
      <path d="M -38.191455,0.71167 Q -38.591846,0.36499 -38.591846,-0.355225 Q -38.591846,-1.011963 -38.256152,-1.361084 Q -37.920459,-1.710205 -37.376025,-1.710205 Q -37.03667,-1.710205 -36.749805,-1.551514 Q -36.462939,-1.392822 -36.312793,-1.105957 Q -36.162646,-0.819092 -36.162646,-0.318604 Q -36.162646,0.299072 -36.502002,0.649414 Q -36.841357,0.999756 -37.376025,0.999756 Q -37.856982,0.999756 -38.191455,0.71167 M -38.140186,-0.355225 Q -38.140186,0.142822 -37.9229,0.389404 Q -37.705615,0.635986 -37.376025,0.635986 Q -37.051318,0.635986 -36.832813,0.388184 Q -36.614307,0.140381 -36.614307,-0.340576 Q -36.614307,-0.85083 -36.831592,-1.099854 Q -37.048877,-1.348877 -37.376025,-1.348877 Q -37.705615,-1.348877 -37.9229,-1.101074 Q -38.140186,-0.853271 -38.140186,-0.355225" />
      <path d="M -35.657275,-1.651611 L -35.217822,-1.651611 L -35.217822,1.92749 L -35.657275,1.92749 L -35.657275,-1.651611" />
      <path d="M -0.870361,-1.646729 L -0.933838,-1.258545 Q -1.053467,-1.275635 -1.126709,-1.275635 Q -1.224365,-1.275635 -1.276855,-1.243896 Q -1.329346,-1.212158 -1.352539,-1.158447 Q -1.375732,-1.104736 -1.375732,-0.916748 L -1.375732,0.599365 L -0.933838,0.599365 L -0.933838,0.941162 L -1.375732,0.941162 L -1.375732,1.846924 L -1.812744,1.583252 L -1.812744,0.941162 L -2.13501,0.941162 L -2.13501,0.599365 L -1.812744,0.599365 L -1.812744,-0.892334 C -1.812744,-1.156006 -1.79484,-1.328939 -1.759033,-1.411133 C -1.723226,-1.493327 -1.661377,-1.559652 -1.573486,-1.610107 C -1.432101,-1.688651 -1.196136,-1.714979 -0.870361,-1.646729" />
      <path d="M -0.57251,-2.237549 L -0.523682,-2.650146 Q -0.367432,-2.703857 -0.240479,-2.703857 Q -0.030518,-2.703857 0.12085,-2.602539 Q 0.272217,-2.501221 0.389404,-2.283936 Q 0.477295,-2.122803 0.635986,-1.695557 L 1.622314,0.941162 L 1.182861,0.941162 L 0.628662,-0.570068 Q 0.523682,-0.858154 0.447998,-1.160889 Q 0.36499,-0.845947 0.26001,-0.560303 L -0.279541,0.941162 L -0.753174,0.941162 L 0.230713,-1.656494 Q 0.203857,-1.727295 0.19165,-1.763916 Q 0.098877,-2.025146 0.057373,-2.091064 C 0.019938,-2.149658 -0.028076,-2.195231 -0.08667,-2.227783 C -0.189264,-2.281623 -0.345304,-2.299676 -0.57251,-2.237549" />
      <path d="M 1.986084,-1.651611 L 2.425537,-1.651611 L 2.425537,1.92749 L 1.986084,1.92749 L 1.986084,-1.651611" />
      <path d="M 5.335693,-0.872803 L 4.881592,-0.81665 C 4.748128,-1.190287 4.520264,-1.346334 4.197998,-1.348877 C 3.981527,-1.348877 3.800863,-1.273193 3.656006,-1.121826 C 3.511149,-0.970459 3.430583,-0.75236 3.414307,-0.467529 L 5.3479,-0.467529 Q 5.350342,-0.389404 5.350342,-0.350342 Q 5.350342,0.291748 5.020752,0.645752 Q 4.691162,0.999756 4.171143,0.999756 Q 3.634033,0.999756 3.297119,0.638428 Q 2.960205,0.2771 2.960205,-0.377197 Q 2.960205,-1.009521 3.293457,-1.359863 Q 3.626709,-1.710205 4.195557,-1.710205 Q 4.647217,-1.710205 4.937744,-1.490479 Q 5.228271,-1.270752 5.335693,-0.872803 M 4.886475,-0.106201 L 3.438721,-0.106201 Q 3.460693,0.233154 3.666992,0.435791 Q 3.873291,0.638428 4.176025,0.638428 Q 4.510498,0.638428 4.720459,0.384521 Q 4.857178,0.220947 4.886475,-0.106201" />
      <path d="M -4.886475,-0.462646 L -5.333252,-0.501709 C -5.326742,-0.740967 -5.26123,-0.955404 -5.136719,-1.14502 C -5.012207,-1.334635 -4.840495,-1.476644 -4.621582,-1.571045 C -4.402669,-1.665446 -4.131266,-1.712646 -3.807373,-1.712646 C -3.551839,-1.712646 -3.32194,-1.665853 -3.117676,-1.572266 C -2.913411,-1.478678 -2.756755,-1.347656 -2.647705,-1.179199 C -2.538656,-1.010742 -2.484131,-0.831299 -2.484131,-0.640869 C -2.485657,-0.257772 -2.67629,0.042114 -3.094482,0.233154 Q -3.309326,0.330811 -3.886719,0.461426 Q -4.464111,0.592041 -4.60083,0.716553 C -4.693604,0.799561 -4.73999,0.905355 -4.73999,1.033936 C -4.73999,1.182048 -4.674479,1.308594 -4.543457,1.413574 C -4.412435,1.518555 -4.203695,1.571045 -3.917236,1.571045 C -3.364308,1.571808 -3.09728,1.336721 -3.045654,0.88501 L -2.591553,0.919189 C -2.599691,1.12915 -2.658285,1.317139 -2.767334,1.483154 C -2.876383,1.64917 -3.032227,1.774902 -3.234863,1.860352 C -3.4375,1.945801 -3.671468,1.988525 -3.936768,1.988525 C -4.177653,1.988525 -4.396566,1.947835 -4.593506,1.866455 C -4.790446,1.785075 -4.940186,1.665853 -5.042725,1.508789 C -5.145264,1.351725 -5.196533,1.182861 -5.196533,1.002197 C -5.196025,0.675202 -5.031026,0.400645 -4.688721,0.223389 Q -4.490967,0.118408 -3.997803,0.0 Q -3.504639,-0.118408 -3.360596,-0.174561 C -3.058065,-0.288747 -2.943726,-0.455068 -2.940674,-0.679932 C -2.940674,-0.790609 -2.974447,-0.892741 -3.041992,-0.986328 C -3.109538,-1.079915 -3.212484,-1.153564 -3.35083,-1.207275 C -3.489176,-1.260986 -3.648682,-1.287842 -3.829346,-1.287842 C -4.032796,-1.287842 -4.215902,-1.252441 -4.378662,-1.181641 C -4.541423,-1.11084 -4.661458,-1.018066 -4.73877,-0.90332 C -4.816081,-0.788574 -4.865316,-0.641683 -4.886475,-0.462646" />
      <path d="M 33.655322,-1.651611 L 33.655322,-1.326904 C 33.829476,-1.582438 34.069548,-1.710205 34.375537,-1.710205 C 34.683154,-1.710205 34.946826,-1.588949 35.166553,-1.346436 C 35.386279,-1.103923 35.496143,-0.760498 35.496143,-0.316162 C 35.496143,-0.128988 35.470101,0.046794 35.418018,0.211182 C 35.312198,0.539322 35.136875,0.775375 34.850391,0.90332 C 34.707975,0.967611 34.557015,0.999756 34.39751,0.999756 C 34.109424,0.999756 33.872607,0.883382 33.687061,0.650635 L 33.687061,1.92749 L 33.247607,1.92749 L 33.247607,-1.651611 L 33.655322,-1.651611 M 33.777393,-1.009521 Q 33.650439,-0.802002 33.650439,-0.335693 Q 33.650439,0.137939 33.8604,0.388184 Q 34.070361,0.638428 34.358447,0.638428 Q 34.644092,0.638428 34.845508,0.396729 Q 35.046924,0.155029 35.046924,-0.352783 Q 35.046924,-0.848389 34.836963,-1.098633 Q 34.627002,-1.348877 34.338916,-1.348877 Q 33.984912,-1.348877 33.777393,-1.009521" />
      <path d="M 36.267627,0.71167 Q 35.867236,0.36499 35.867236,-0.355225 Q 35.867236,-1.011963 36.20293,-1.361084 Q 36.538623,-1.710205 37.083057,-1.710205 Q 37.422412,-1.710205 37.709277,-1.551514 Q 37.996143,-1.392822 38.146289,-1.105957 Q 38.296436,-0.819092 38.296436,-0.318604 Q 38.296436,0.299072 37.95708,0.649414 Q 37.617725,0.999756 37.083057,0.999756 Q 36.6021,0.999756 36.267627,0.71167 M 36.318896,-0.355225 Q 36.318896,0.142822 36.536182,0.389404 Q 36.753467,0.635986 37.083057,0.635986 Q 37.407764,0.635986 37.62627,0.388184 Q 37.844775,0.140381 37.844775,-0.340576 Q 37.844775,-0.85083 37.62749,-1.099854 Q 37.410205,-1.348877 37.083057,-1.348877 Q 36.753467,-1.348877 36.536182,-1.101074 Q 36.318896,-0.853271 36.318896,-0.355225" />
      <path d="M 38.801807,-1.651611 L 39.24126,-1.651611 L 39.24126,1.92749 L 38.801807,1.92749 L 38.801807,-1.651611" />
      <path d="M 40.945361,-1.646729 L 40.881885,-1.258545 Q 40.762256,-1.275635 40.689014,-1.275635 Q 40.591357,-1.275635 40.538867,-1.243896 Q 40.486377,-1.212158 40.463184,-1.158447 Q 40.43999,-1.104736 40.43999,-0.916748 L 40.43999,0.599365 L 40.881885,0.599365 L 40.881885,0.941162 L 40.43999,0.941162 L 40.43999,1.846924 L 40.002979,1.583252 L 40.002979,0.941162 L 39.680713,0.941162 L 39.680713,0.599365 L 40.002979,0.599365 L 40.002979,-0.892334 C 40.002979,-1.156006 40.020882,-1.328939 40.056689,-1.411133 C 40.092497,-1.493327 40.154346,-1.559652 40.242236,-1.610107 C 40.383622,-1.688651 40.619587,-1.714979 40.945361,-1.646729" />
      <path d="M 27.871631,-0.758057 L 27.439502,-0.701904 C 27.408577,-0.921631 27.335335,-1.084391 27.219775,-1.190186 C 27.104215,-1.29598 26.960173,-1.348877 26.787646,-1.348877 C 26.572803,-1.348877 26.398649,-1.269938 26.265186,-1.112061 C 26.131722,-0.954183 26.06499,-0.70109 26.06499,-0.352783 C 26.06499,-0.009359 26.134163,0.241699 26.27251,0.400391 C 26.410856,0.559082 26.590706,0.638428 26.812061,0.638428 C 27.101977,0.638682 27.324553,0.461578 27.402881,0.113525 L 27.830127,0.179443 Q 27.754443,0.57251 27.485889,0.786133 Q 27.217334,0.999756 26.794971,0.999756 Q 26.460498,0.999756 26.176074,0.842285 Q 25.89165,0.684814 25.75249,0.369873 Q 25.61333,0.054932 25.61333,-0.36499 Q 25.61333,-1.014404 25.936816,-1.362305 Q 26.260303,-1.710205 26.792529,-1.710205 Q 27.217334,-1.710205 27.509082,-1.45752 Q 27.80083,-1.204834 27.871631,-0.758057" />
      <path d="M 29.946826,-1.651611 L 30.339893,-1.651611 L 30.339893,0.941162 L 29.900439,0.941162 L 29.900439,-0.447998 Q 29.900439,-0.780029 29.828418,-0.95459 Q 29.756396,-1.12915 29.583057,-1.230469 Q 29.409717,-1.331787 29.211963,-1.331787 Q 29.014209,-1.331787 28.879932,-1.23291 Q 28.745654,-1.134033 28.70415,-0.960693 Q 28.677295,-0.841064 28.677295,-0.496826 L 28.677295,0.941162 L 28.237842,0.941162 L 28.237842,-0.665283 Q 28.237842,-0.946045 28.264697,-1.075439 Q 28.30376,-1.268311 28.400195,-1.401367 Q 28.496631,-1.534424 28.695605,-1.622314 Q 28.89458,-1.710205 29.124072,-1.710205 Q 29.644092,-1.710205 29.946826,-1.270752 L 29.946826,-1.651611" />
      <path d="M 31.018604,-1.651611 L 31.458057,-1.651611 L 31.458057,1.92749 L 31.018604,1.92749 L 31.018604,-1.651611" />
      <path d="M 32.129443,-1.651611 L 32.568896,-1.651611 L 32.568896,1.92749 L 32.129443,1.92749 L 32.129443,-1.651611" />
      <path d="M -38.777778,-8.2 A 2.0,2.0 0.0 0,1 -40.777778,-10.2 L -40.777778,-17.8 A 2.0,2.0 0.0 0,1 -38.777778,-19.8 L -35.622222,-19.8 L -35.622222,-16.577778 L -25.622222,-16.577778 L -25.622222,-11.422222 L -35.622222,-11.422222 L -35.622222,-8.2 L -38.777778,-8.2" />
      <path d="M 1.719971,-15.651611 L 2.159424,-15.651611 L 2.159424,-14.235596 Q 2.159424,-13.737549 2.363281,-13.559326 Q 2.567139,-13.381104 2.8479,-13.381104 Q 3.023682,-13.381104 3.154297,-13.460449 Q 3.284912,-13.539795 3.336182,-13.672852 Q 3.387451,-13.805908 3.387451,-14.074463 L 3.387451,-15.651611 L 3.826904,-15.651611 L 3.826904,-14.057373 Q 3.826904,-13.752197 3.80249,-13.630127 Q 3.763428,-13.442139 3.665771,-13.30542 Q 3.568115,-13.168701 3.371582,-13.084473 Q 3.175049,-13.000244 2.940674,-13.000244 Q 2.401123,-13.000244 2.115479,-13.42749 L 2.115479,-13.058838 L 1.719971,-13.058838 L 1.719971,-15.651611" />
      <path d="M -3.841553,-16.645264 L -3.4021,-16.645264 L -3.4021,-15.383057 Q -3.289795,-15.524658 -3.115234,-15.617432 Q -2.940674,-15.710205 -2.720947,-15.710205 Q -2.420654,-15.710205 -2.148438,-15.540527 Q -1.876221,-15.37085 -1.733398,-15.052246 Q -1.590576,-14.733643 -1.590576,-14.335693 Q -1.590576,-13.9646 -1.719971,-13.65332 Q -1.849365,-13.342041 -2.103271,-13.171143 Q -2.357178,-13.000244 -2.689209,-13.000244 Q -2.943115,-13.000244 -3.121338,-13.099121 Q -3.299561,-13.197998 -3.441162,-13.395752 L -3.441162,-13.058838 L -3.841553,-13.058838 L -3.841553,-16.645264 M -3.443604,-14.369873 Q -3.443604,-13.869385 -3.227539,-13.606934 Q -3.011475,-13.344482 -2.730713,-13.344482 Q -2.44751,-13.344482 -2.243652,-13.591064 Q -2.039795,-13.837646 -2.039795,-14.333252 Q -2.039795,-14.853271 -2.248535,-15.101074 Q -2.457275,-15.348877 -2.750244,-15.348877 Q -3.03833,-15.348877 -3.240967,-15.109619 Q -3.443604,-14.870361 -3.443604,-14.369873" />
      <path d="M -0.579834,-14.223389 C -0.812302,-14.290146 -1.009394,-14.408503 -1.123047,-14.620117 C -1.180827,-14.725098 -1.209717,-14.841064 -1.209717,-14.968018 C -1.209717,-15.184489 -1.133219,-15.362305 -0.980225,-15.501465 C -0.82723,-15.640625 -0.608317,-15.710205 -0.323486,-15.710205 C -0.15096,-15.710205 0.010579,-15.681722 0.161133,-15.624756 C 0.311686,-15.56779 0.468343,-15.470133 0.631104,-15.331787 Q 0.650635,-15.514893 0.718994,-15.651611 L 1.177979,-15.651611 Q 1.094971,-15.502686 1.066895,-15.340332 Q 1.038818,-15.177979 1.038818,-14.565186 L 1.038818,-13.979248 Q 1.038818,-13.686279 1.016846,-13.573975 Q 0.977783,-13.393311 0.880127,-13.274902 Q 0.782471,-13.156494 0.574951,-13.078369 Q 0.367432,-13.000244 0.0354,-13.000244 Q -0.299072,-13.000244 -0.552979,-13.091797 Q -0.806885,-13.18335 -0.941162,-13.353027 Q -1.075439,-13.522705 -1.134033,-13.798584 L -0.704346,-13.857178 Q -0.633545,-13.581299 -0.48584,-13.472656 Q -0.338135,-13.364014 -0.028076,-13.364014 Q 0.303955,-13.364014 0.472412,-13.512939 Q 0.596924,-13.622803 0.596924,-13.891357 Q 0.596924,-13.915771 0.594482,-14.006104 Q 0.343018,-14.093994 -0.189209,-14.157471 Q -0.450439,-14.189209 -0.579834,-14.223389 M 0.594482,-14.350342 L 0.594482,-14.511475 Q 0.594482,-14.802002 0.523682,-14.950928 Q 0.430908,-15.143799 0.233154,-15.254883 Q 0.0354,-15.365967 -0.218506,-15.365967 Q -0.474854,-15.365967 -0.60791,-15.248779 Q -0.740967,-15.131592 -0.740967,-14.955811 Q -0.740967,-14.841064 -0.679932,-14.74707 Q -0.618896,-14.653076 -0.506592,-14.604248 Q -0.394287,-14.55542 -0.123291,-14.516357 Q 0.355225,-14.447998 0.594482,-14.350342" />
      <path d="M 41.6448,-10.2 A 2.0,2.0 0.0 0,1 39.6448,-8.2 L 34.6848,-8.2 L 34.6848,-11.1 L 33.857333,-10.27988 L 33.029867,-11.1 L 32.2024,-10.27988 L 31.374933,-11.1 L 30.547467,-10.27988 L 29.72,-11.1 L 28.892533,-10.27988 L 28.065067,-11.1 L 27.2376,-10.27988 L 26.410133,-11.1 L 25.582667,-10.27988 L 24.7552,-11.1 L 24.7552,-16.9 L 25.582667,-17.72012 L 26.410133,-16.9 L 27.2376,-17.72012 L 28.065067,-16.9 L 28.892533,-17.72012 L 29.72,-16.9 L 30.547467,-17.72012 L 31.374933,-16.9 L 32.2024,-17.72012 L 33.029867,-16.9 L 33.857333,-17.72012 L 34.6848,-16.9 L 34.6848,-19.8 L 39.6448,-19.8 A 2.0,2.0 0.0 0,1 41.6448,-17.8 L 41.6448,-10.2" />
      <path d="M -35.622222,-22.2 L -40.777778,-22.2 L -40.777778,-33.8 L -35.622222,-33.8 L -35.622222,-30.577778 L -25.622222,-30.577778 L -25.622222,-25.422222 L -35.622222,-25.422222 L -35.622222,-22.2" />
      <path d="M 0.509033,-28.758057 L 0.076904,-28.701904 C 0.04598,-28.921631 -0.027262,-29.084391 -0.142822,-29.190186 C -0.258382,-29.29598 -0.402425,-29.348877 -0.574951,-29.348877 C -0.789795,-29.348877 -0.963949,-29.269938 -1.097412,-29.112061 C -1.230876,-28.954183 -1.297607,-28.70109 -1.297607,-28.352783 C -1.297607,-28.009359 -1.228434,-27.758301 -1.090088,-27.599609 C -0.951742,-27.440918 -0.771891,-27.361572 -0.550537,-27.361572 C -0.26062,-27.361318 -0.038045,-27.538422 0.040283,-27.886475 L 0.467529,-27.820557 Q 0.391846,-27.42749 0.123291,-27.213867 Q -0.145264,-27.000244 -0.567627,-27.000244 Q -0.9021,-27.000244 -1.186523,-27.157715 Q -1.470947,-27.315186 -1.610107,-27.630127 Q -1.749268,-27.945068 -1.749268,-28.36499 Q -1.749268,-29.014404 -1.425781,-29.362305 Q -1.102295,-29.710205 -0.570068,-29.710205 Q -0.145264,-29.710205 0.146484,-29.45752 Q 0.438232,-29.204834 0.509033,-28.758057" />
      <path d="M 0.887451,-29.651611 L 1.326904,-29.651611 L 1.326904,-28.623779 L 1.636963,-28.325928 L 2.493896,-29.651611 L 3.035889,-29.651611 L 1.94458,-28.020752 L 2.935791,-27.058838 L 2.366943,-27.058838 L 1.326904,-28.113525 L 1.326904,-26.07251 L 0.887451,-26.07251 L 0.887451,-29.651611" />
      <path d="M 5.614014,-28.872803 L 5.159912,-28.81665 C 5.026449,-29.190287 4.798584,-29.346334 4.476318,-29.348877 C 4.259847,-29.348877 4.079183,-29.273193 3.934326,-29.121826 C 3.789469,-28.970459 3.708903,-28.75236 3.692627,-28.467529 L 5.626221,-28.467529 Q 5.628662,-28.389404 5.628662,-28.350342 Q 5.628662,-27.708252 5.299072,-27.354248 Q 4.969482,-27.000244 4.449463,-27.000244 Q 3.912354,-27.000244 3.575439,-27.361572 Q 3.238525,-27.7229 3.238525,-28.377197 Q 3.238525,-29.009521 3.571777,-29.359863 Q 3.905029,-29.710205 4.473877,-29.710205 Q 4.925537,-29.710205 5.216064,-29.490479 Q 5.506592,-29.270752 5.614014,-28.872803 M 5.164795,-28.106201 L 3.717041,-28.106201 Q 3.739014,-27.766846 3.945312,-27.564209 Q 4.151611,-27.361572 4.454346,-27.361572 Q 4.788818,-27.361572 4.998779,-27.615479 Q 5.135498,-27.779053 5.164795,-28.106201" />
      <path d="M 7.188721,-29.646729 L 7.125244,-29.258545 Q 7.005615,-29.275635 6.932373,-29.275635 Q 6.834717,-29.275635 6.782227,-29.243896 Q 6.729736,-29.212158 6.706543,-29.158447 Q 6.68335,-29.104736 6.68335,-28.916748 L 6.68335,-27.400635 L 7.125244,-27.400635 L 7.125244,-27.058838 L 6.68335,-27.058838 L 6.68335,-26.153076 L 6.246338,-26.416748 L 6.246338,-27.058838 L 5.924072,-27.058838 L 5.924072,-27.400635 L 6.246338,-27.400635 L 6.246338,-28.892334 C 6.246338,-29.156006 6.264242,-29.328939 6.300049,-29.411133 C 6.335856,-29.493327 6.397705,-29.559652 6.485596,-29.610107 C 6.626981,-29.688651 6.862946,-29.714979 7.188721,-29.646729" />
      <path d="M -6.636963,-28.809326 L -7.071533,-28.877686 Q -6.998291,-29.290283 -6.733398,-29.500244 Q -6.468506,-29.710205 -5.963135,-29.710205 Q -5.657959,-29.710205 -5.41626,-29.604004 Q -5.174561,-29.497803 -5.046387,-29.303711 Q -4.918213,-29.109619 -4.918213,-28.889893 Q -4.918213,-28.665283 -5.023193,-28.513916 Q -5.128174,-28.362549 -5.3125,-28.283203 Q -5.496826,-28.203857 -5.963135,-28.079346 Q -6.2854,-27.991455 -6.351318,-27.967041 Q -6.466064,-27.920654 -6.519775,-27.849854 C -6.555583,-27.804281 -6.573486,-27.753011 -6.573486,-27.696045 C -6.573486,-27.606527 -6.530355,-27.528402 -6.444092,-27.46167 C -6.357829,-27.394938 -6.213786,-27.361572 -6.011963,-27.361572 C -5.669657,-27.359029 -5.485128,-27.521993 -5.445557,-27.786377 L -5.015869,-27.727783 Q -5.057373,-27.476318 -5.167236,-27.326172 Q -5.2771,-27.176025 -5.507813,-27.088135 Q -5.738525,-27.000244 -6.043701,-27.000244 Q -6.246338,-27.000244 -6.42334,-27.052734 Q -6.600342,-27.105225 -6.702881,-27.180908 C -6.882884,-27.308573 -7.00058,-27.518738 -6.998291,-27.747314 C -6.998291,-27.874268 -6.966146,-27.990234 -6.901855,-28.095215 C -6.837565,-28.200195 -6.743164,-28.282389 -6.618652,-28.341797 C -6.494141,-28.401204 -6.270752,-28.471598 -5.948486,-28.552979 Q -5.5896,-28.643311 -5.499268,-28.701904 C -5.413005,-28.75887 -5.369873,-28.836995 -5.369873,-28.936279 C -5.369873,-29.046956 -5.418701,-29.143392 -5.516357,-29.225586 C -5.614014,-29.30778 -5.763753,-29.348877 -5.965576,-29.348877 C -6.366221,-29.350657 -6.58788,-29.155853 -6.636963,-28.809326" />
      <path d="M -4.158936,-27.28833 Q -4.559326,-27.63501 -4.559326,-28.355225 Q -4.559326,-29.011963 -4.223633,-29.361084 Q -3.887939,-29.710205 -3.343506,-29.710205 Q -3.00415,-29.710205 -2.717285,-29.551514 Q -2.43042,-29.392822 -2.280273,-29.105957 Q -2.130127,-28.819092 -2.130127,-28.318604 Q -2.130127,-27.700928 -2.469482,-27.350586 Q -2.808838,-27.000244 -3.343506,-27.000244 Q -3.824463,-27.000244 -4.158936,-27.28833 M -4.107666,-28.355225 Q -4.107666,-27.857178 -3.890381,-27.610596 Q -3.673096,-27.364014 -3.343506,-27.364014 Q -3.018799,-27.364014 -2.800293,-27.611816 Q -2.581787,-27.859619 -2.581787,-28.340576 Q -2.581787,-28.85083 -2.799072,-29.099854 Q -3.016357,-29.348877 -3.343506,-29.348877 Q -3.673096,-29.348877 -3.890381,-29.101074 Q -4.107666,-28.853271 -4.107666,-28.355225" />
      <path d="M 41.6448,-33.8 L 41.6448,-22.2 L 34.6848,-22.2 L 34.6848,-25.1 L 33.857333,-24.27988 L 33.029867,-25.1 L 32.2024,-24.27988 L 31.374933,-25.1 L 30.547467,-24.27988 L 29.72,-25.1 L 28.892533,-24.27988 L 28.065067,-25.1 L 27.2376,-24.27988 L 26.410133,-25.1 L 25.582667,-24.27988 L 24.7552,-25.1 L 24.7552,-30.9 L 25.582667,-31.72012 L 26.410133,-30.9 L 27.2376,-31.72012 L 28.065067,-30.9 L 28.892533,-31.72012 L 29.72,-30.9 L 30.547467,-31.72012 L 31.374933,-30.9 L 32.2024,-31.72012 L 33.029867,-30.9 L 33.857333,-31.72012 L 34.6848,-30.9 L 34.6848,-33.8 L 41.6448,-33.8" />
      <path d="M -35.622222,-36.2 A 5.8,5.155555555555555 90.0 0,1 -35.622222,-47.8 L -35.622222,-44.577778 L -25.622222,-44.577778 L -25.622222,-39.422222 L -35.622222,-39.422222 L -35.622222,-36.2" />
      <path d="M -4.162598,-41.28833 Q -4.562988,-41.63501 -4.562988,-42.355225 Q -4.562988,-43.011963 -4.227295,-43.361084 Q -3.891602,-43.710205 -3.347168,-43.710205 Q -3.007813,-43.710205 -2.720947,-43.551514 Q -2.434082,-43.392822 -2.283936,-43.105957 Q -2.133789,-42.819092 -2.133789,-42.318604 Q -2.133789,-41.700928 -2.473145,-41.350586 Q -2.8125,-41.000244 -3.347168,-41.000244 Q -3.828125,-41.000244 -4.162598,-41.28833 M -4.111328,-42.355225 Q -4.111328,-41.857178 -3.894043,-41.610596 Q -3.676758,-41.364014 -3.347168,-41.364014 Q -3.022461,-41.364014 -2.803955,-41.611816 Q -2.585449,-41.859619 -2.585449,-42.340576 Q -2.585449,-42.85083 -2.802734,-43.099854 Q -3.02002,-43.348877 -3.347168,-43.348877 Q -3.676758,-43.348877 -3.894043,-43.101074 Q -4.111328,-42.853271 -4.111328,-42.355225" />
      <path d="M 0.080566,-43.651611 L 0.473633,-43.651611 L 0.473633,-41.058838 L 0.03418,-41.058838 L 0.03418,-42.447998 Q 0.03418,-42.780029 -0.037842,-42.95459 Q -0.109863,-43.12915 -0.283203,-43.230469 Q -0.456543,-43.331787 -0.654297,-43.331787 Q -0.852051,-43.331787 -0.986328,-43.23291 Q -1.120605,-43.134033 -1.162109,-42.960693 Q -1.188965,-42.841064 -1.188965,-42.496826 L -1.188965,-41.058838 L -1.628418,-41.058838 L -1.628418,-42.665283 Q -1.628418,-42.946045 -1.601563,-43.075439 Q -1.5625,-43.268311 -1.466064,-43.401367 Q -1.369629,-43.534424 -1.170654,-43.622314 Q -0.97168,-43.710205 -0.742188,-43.710205 Q -0.222168,-43.710205 0.080566,-43.270752 L 0.080566,-43.651611" />
      <path d="M 1.162109,-43.651611 L 1.601562,-43.651611 L 1.601562,-42.235596 Q 1.601562,-41.737549 1.80542,-41.559326 Q 2.009277,-41.381104 2.290039,-41.381104 Q 2.46582,-41.381104 2.596436,-41.460449 Q 2.727051,-41.539795 2.77832,-41.672852 Q 2.82959,-41.805908 2.82959,-42.074463 L 2.82959,-43.651611 L 3.269043,-43.651611 L 3.269043,-42.057373 Q 3.269043,-41.752197 3.244629,-41.630127 Q 3.205566,-41.442139 3.10791,-41.30542 Q 3.010254,-41.168701 2.813721,-41.084473 Q 2.617187,-41.000244 2.382812,-41.000244 Q 1.843262,-41.000244 1.557617,-41.42749 L 1.557617,-41.058838 L 1.162109,-41.058838 L 1.162109,-43.651611" />
      <path d="M 5.625,-43.651611 L 6.032715,-43.651611 L 6.032715,-40.07251 L 5.595703,-40.07251 L 5.595703,-41.356689 Q 5.480957,-41.197998 5.297852,-41.099121 Q 5.114746,-41.000244 4.880371,-41.000244 Q 4.560547,-41.000244 4.301758,-41.168701 Q 4.042969,-41.337158 3.913574,-41.65332 Q 3.78418,-41.969482 3.78418,-42.357666 Q 3.78418,-42.755615 3.927002,-43.062012 Q 4.069824,-43.368408 4.329834,-43.539307 Q 4.589844,-43.710205 4.899902,-43.710205 Q 5.378418,-43.710205 5.625,-43.324463 L 5.625,-43.651611 M 4.23584,-42.357666 Q 4.23584,-41.842529 4.432373,-41.603271 Q 4.628906,-41.364014 4.921875,-41.364014 Q 5.222168,-41.364014 5.427246,-41.613037 Q 5.632324,-41.862061 5.632324,-42.394287 Q 5.632324,-42.877686 5.430908,-43.113281 Q 5.229492,-43.348877 4.941406,-43.348877 Q 4.655762,-43.348877 4.445801,-43.102295 Q 4.23584,-42.855713 4.23584,-42.357666" />
      <path d="M -6.069336,-43.651611 L -5.629883,-43.651611 L -5.629883,-42.294189 Q -5.629883,-42.015869 -5.556641,-41.781494 Q -5.507813,-41.627686 -5.393066,-41.541016 Q -5.27832,-41.454346 -5.134277,-41.454346 Q -4.973145,-41.454346 -4.812012,-41.549561 L -4.660645,-41.141846 Q -4.890137,-41.000244 -5.112305,-41.000244 Q -5.266113,-41.000244 -5.394287,-41.088135 Q -5.522461,-41.176025 -5.673828,-41.451904 L -5.673828,-41.058838 L -6.069336,-41.058838 L -6.069336,-43.651611" />
      <path d="M 35.8448,-36.2 L 34.6848,-36.2 L 34.6848,-39.1 L 33.857333,-38.27988 L 33.029867,-39.1 L 32.2024,-38.27988 L 31.374933,-39.1 L 30.547467,-38.27988 L 29.72,-39.1 L 28.892533,-38.27988 L 28.065067,-39.1 L 27.2376,-38.27988 L 26.410133,-39.1 L 25.582667,-38.27988 L 24.7552,-39.1 L 24.7552,-44.9 L 25.582667,-45.72012 L 26.410133,-44.9 L 27.2376,-45.72012 L 28.065067,-44.9 L 28.892533,-45.72012 L 29.72,-44.9 L 30.547467,-45.72012 L 31.374933,-44.9 L 32.2024,-45.72012 L 33.029867,-44.9 L 33.857333,-45.72012 L 34.6848,-44.9 L 34.6848,-47.8 L 35.8448,-47.8 A 5.8,5.8 -90.0 0,1 35.8448,-36.2" />
      <path d="M -38.2,-50.2 L -38.2,-61.8 L -33.044444,-58.577778 L -28.2,-58.577778 L -28.2,-53.422222 L -33.044444,-53.422222 L -38.2,-50.2" />
      <path d="M 3.64624,-56.809326 L 3.21167,-56.877686 Q 3.284912,-57.290283 3.549805,-57.500244 Q 3.814697,-57.710205 4.320068,-57.710205 Q 4.625244,-57.710205 4.866943,-57.604004 Q 5.108643,-57.497803 5.236816,-57.303711 Q 5.36499,-57.109619 5.36499,-56.889893 Q 5.36499,-56.665283 5.26001,-56.513916 Q 5.155029,-56.362549 4.970703,-56.283203 Q 4.786377,-56.203857 4.320068,-56.079346 Q 3.997803,-55.991455 3.931885,-55.967041 Q 3.817139,-55.920654 3.763428,-55.849854 C 3.72762,-55.804281 3.709717,-55.753011 3.709717,-55.696045 C 3.709717,-55.606527 3.752848,-55.528402 3.839111,-55.46167 C 3.925374,-55.394938 4.069417,-55.361572 4.27124,-55.361572 C 4.613546,-55.359029 4.798075,-55.521993 4.837646,-55.786377 L 5.267334,-55.727783 Q 5.22583,-55.476318 5.115967,-55.326172 Q 5.006104,-55.176025 4.775391,-55.088135 Q 4.544678,-55.000244 4.239502,-55.000244 Q 4.036865,-55.000244 3.859863,-55.052734 Q 3.682861,-55.105225 3.580322,-55.180908 C 3.40032,-55.308573 3.282623,-55.518738 3.284912,-55.747314 C 3.284912,-55.874268 3.317057,-55.990234 3.381348,-56.095215 C 3.445638,-56.200195 3.540039,-56.282389 3.664551,-56.341797 C 3.789062,-56.401204 4.012451,-56.471598 4.334717,-56.552979 Q 4.693604,-56.643311 4.783936,-56.701904 C 4.870199,-56.75887 4.91333,-56.836995 4.91333,-56.936279 C 4.91333,-57.046956 4.864502,-57.143392 4.766846,-57.225586 C 4.669189,-57.30778 4.51945,-57.348877 4.317627,-57.348877 C 3.916982,-57.350657 3.695323,-57.155853 3.64624,-56.809326" />
      <path d="M 7.58667,-57.651611 L 7.979736,-57.651611 L 7.979736,-55.058838 L 7.540283,-55.058838 L 7.540283,-56.447998 Q 7.540283,-56.780029 7.468262,-56.95459 Q 7.39624,-57.12915 7.2229,-57.230469 Q 7.049561,-57.331787 6.851807,-57.331787 Q 6.654053,-57.331787 6.519775,-57.23291 Q 6.385498,-57.134033 6.343994,-56.960693 Q 6.317139,-56.841064 6.317139,-56.496826 L 6.317139,-55.058838 L 5.877686,-55.058838 L 5.877686,-56.665283 Q 5.877686,-56.946045 5.904541,-57.075439 Q 5.943604,-57.268311 6.040039,-57.401367 Q 6.136475,-57.534424 6.335449,-57.622314 Q 6.534424,-57.710205 6.763916,-57.710205 Q 7.283936,-57.710205 7.58667,-57.270752 L 7.58667,-57.651611" />
      <path d="M 8.668213,-57.651611 L 9.107666,-57.651611 L 9.107666,-56.235596 Q 9.107666,-55.737549 9.311523,-55.559326 Q 9.515381,-55.381104 9.796143,-55.381104 Q 9.971924,-55.381104 10.102539,-55.460449 Q 10.233154,-55.539795 10.284424,-55.672852 Q 10.335693,-55.805908 10.335693,-56.074463 L 10.335693,-57.651611 L 10.775146,-57.651611 L 10.775146,-56.057373 Q 10.775146,-55.752197 10.750732,-55.630127 Q 10.71167,-55.442139 10.614014,-55.30542 Q 10.516357,-55.168701 10.319824,-55.084473 Q 10.123291,-55.000244 9.888916,-55.000244 Q 9.349365,-55.000244 9.063721,-55.42749 L 9.063721,-55.058838 L 8.668213,-55.058838 L 8.668213,-57.651611" />
      <path d="M 11.451416,-57.651611 L 11.890869,-57.651611 L 11.890869,-56.623779 L 12.200928,-56.325928 L 13.057861,-57.651611 L 13.599854,-57.651611 L 12.508545,-56.020752 L 13.499756,-55.058838 L 12.930908,-55.058838 L 11.890869,-56.113525 L 11.890869,-54.07251 L 11.451416,-54.07251 L 11.451416,-57.651611" />
      <path d="M -11.165771,-56.758057 L -11.5979,-56.701904 C -11.628825,-56.921631 -11.702067,-57.084391 -11.817627,-57.190186 C -11.933187,-57.29598 -12.07723,-57.348877 -12.249756,-57.348877 C -12.4646,-57.348877 -12.638753,-57.269938 -12.772217,-57.112061 C -12.90568,-56.954183 -12.972412,-56.70109 -12.972412,-56.352783 C -12.972412,-56.009359 -12.903239,-55.758301 -12.764893,-55.599609 C -12.626546,-55.440918 -12.446696,-55.361572 -12.225342,-55.361572 C -11.935425,-55.361318 -11.71285,-55.538422 -11.634521,-55.886475 L -11.207275,-55.820557 Q -11.282959,-55.42749 -11.551514,-55.213867 Q -11.820068,-55.000244 -12.242432,-55.000244 Q -12.576904,-55.000244 -12.861328,-55.157715 Q -13.145752,-55.315186 -13.284912,-55.630127 Q -13.424072,-55.945068 -13.424072,-56.36499 Q -13.424072,-57.014404 -13.100586,-57.362305 Q -12.7771,-57.710205 -12.244873,-57.710205 Q -11.820068,-57.710205 -11.52832,-57.45752 Q -11.236572,-57.204834 -11.165771,-56.758057" />
      <path d="M -10.552979,-55.28833 Q -10.953369,-55.63501 -10.953369,-56.355225 Q -10.953369,-57.011963 -10.617676,-57.361084 Q -10.281982,-57.710205 -9.737549,-57.710205 Q -9.398193,-57.710205 -9.111328,-57.551514 Q -8.824463,-57.392822 -8.674316,-57.105957 Q -8.52417,-56.819092 -8.52417,-56.318604 Q -8.52417,-55.700928 -8.863525,-55.350586 Q -9.202881,-55.000244 -9.737549,-55.000244 Q -10.218506,-55.000244 -10.552979,-55.28833 M -10.501709,-56.355225 Q -10.501709,-55.857178 -10.284424,-55.610596 Q -10.067139,-55.364014 -9.737549,-55.364014 Q -9.412842,-55.364014 -9.194336,-55.611816 Q -8.97583,-55.859619 -8.97583,-56.340576 Q -8.97583,-56.85083 -9.193115,-57.099854 Q -9.4104,-57.348877 -9.737549,-57.348877 Q -10.067139,-57.348877 -10.284424,-57.101074 Q -10.501709,-56.853271 -10.501709,-56.355225" />
      <path d="M -6.309814,-57.651611 L -5.916748,-57.651611 L -5.916748,-55.058838 L -6.356201,-55.058838 L -6.356201,-56.447998 Q -6.356201,-56.780029 -6.428223,-56.95459 Q -6.500244,-57.12915 -6.673584,-57.230469 Q -6.846924,-57.331787 -7.044678,-57.331787 Q -7.242432,-57.331787 -7.376709,-57.23291 Q -7.510986,-57.134033 -7.55249,-56.960693 Q -7.579346,-56.841064 -7.579346,-56.496826 L -7.579346,-55.058838 L -8.018799,-55.058838 L -8.018799,-56.665283 Q -8.018799,-56.946045 -7.991943,-57.075439 Q -7.952881,-57.268311 -7.856445,-57.401367 Q -7.76001,-57.534424 -7.561035,-57.622314 Q -7.362061,-57.710205 -7.132568,-57.710205 Q -6.612549,-57.710205 -6.309814,-57.270752 L -6.309814,-57.651611" />
      <path d="M -5.228271,-57.651611 L -4.788818,-57.651611 L -4.788818,-56.235596 Q -4.788818,-55.737549 -4.584961,-55.559326 Q -4.381104,-55.381104 -4.100342,-55.381104 Q -3.924561,-55.381104 -3.793945,-55.460449 Q -3.66333,-55.539795 -3.612061,-55.672852 Q -3.560791,-55.805908 -3.560791,-56.074463 L -3.560791,-57.651611 L -3.121338,-57.651611 L -3.121338,-56.057373 Q -3.121338,-55.752197 -3.145752,-55.630127 Q -3.184814,-55.442139 -3.282471,-55.30542 Q -3.380127,-55.168701 -3.57666,-55.084473 Q -3.773193,-55.000244 -4.007568,-55.000244 Q -4.547119,-55.000244 -4.832764,-55.42749 L -4.832764,-55.058838 L -5.228271,-55.058838 L -5.228271,-57.651611" />
      <path d="M -1.424561,-57.646729 L -1.488037,-57.258545 Q -1.607666,-57.275635 -1.680908,-57.275635 Q -1.778564,-57.275635 -1.831055,-57.243896 Q -1.883545,-57.212158 -1.906738,-57.158447 Q -1.929932,-57.104736 -1.929932,-56.916748 L -1.929932,-55.400635 L -1.488037,-55.400635 L -1.488037,-55.058838 L -1.929932,-55.058838 L -1.929932,-54.153076 L -2.366943,-54.416748 L -2.366943,-55.058838 L -2.689209,-55.058838 L -2.689209,-55.400635 L -2.366943,-55.400635 L -2.366943,-56.892334 C -2.366943,-57.156006 -2.34904,-57.328939 -2.313232,-57.411133 C -2.277425,-57.493327 -2.215576,-57.559652 -2.127686,-57.610107 C -1.9863,-57.688651 -1.750335,-57.714979 -1.424561,-57.646729" />
      <path d="M 1.170654,-56.872803 L 0.716553,-56.81665 C 0.583089,-57.190287 0.355225,-57.346334 0.032959,-57.348877 C -0.183512,-57.348877 -0.364176,-57.273193 -0.509033,-57.121826 C -0.65389,-56.970459 -0.734456,-56.75236 -0.750732,-56.467529 L 1.182861,-56.467529 Q 1.185303,-56.389404 1.185303,-56.350342 Q 1.185303,-55.708252 0.855713,-55.354248 Q 0.526123,-55.000244 0.006104,-55.000244 Q -0.531006,-55.000244 -0.86792,-55.361572 Q -1.204834,-55.7229 -1.204834,-56.377197 Q -1.204834,-57.009521 -0.871582,-57.359863 Q -0.53833,-57.710205 0.030518,-57.710205 Q 0.482178,-57.710205 0.772705,-57.490479 Q 1.063232,-57.270752 1.170654,-56.872803 M 0.721436,-56.106201 L -0.726318,-56.106201 Q -0.704346,-55.766846 -0.498047,-55.564209 Q -0.291748,-55.361572 0.010986,-55.361572 Q 0.345459,-55.361572 0.55542,-55.615479 Q 0.692139,-55.779053 0.721436,-56.106201" />
      <path d="M 1.717529,-57.651611 L 2.156982,-57.651611 L 2.156982,-56.294189 Q 2.156982,-56.015869 2.230225,-55.781494 Q 2.279053,-55.627686 2.393799,-55.541016 Q 2.508545,-55.454346 2.652588,-55.454346 Q 2.813721,-55.454346 2.974854,-55.549561 L 3.126221,-55.141846 Q 2.896729,-55.000244 2.674561,-55.000244 Q 2.520752,-55.000244 2.392578,-55.088135 Q 2.264404,-55.176025 2.113037,-55.451904 L 2.113037,-55.058838 L 1.717529,-55.058838 L 1.717529,-57.651611" />
      <path d="M 41.6448,-61.8 L 41.6448,-50.2 L 34.6848,-53.1 L 33.857333,-52.27988 L 33.029867,-53.1 L 32.2024,-52.27988 L 31.374933,-53.1 L 30.547467,-52.27988 L 29.72,-53.1 L 28.892533,-52.27988 L 28.065067,-53.1 L 27.2376,-52.27988 L 26.410133,-53.1 L 25.582667,-52.27988 L 24.7552,-53.1 L 24.7552,-58.9 L 25.582667,-59.72012 L 26.410133,-58.9 L 27.2376,-59.72012 L 28.065067,-58.9 L 28.892533,-59.72012 L 29.72,-58.9 L 30.547467,-59.72012 L 31.374933,-58.9 L 32.2024,-59.72012 L 33.029867,-58.9 L 33.857333,-59.72012 L 34.6848,-58.9 L 41.6448,-61.8" />
      <path d="M -38.777778,-64.2 A 2.0,2.0 0.0 0,1 -40.777778,-66.2 L -40.777778,-73.8 A 2.0,2.0 0.0 0,1 -38.777778,-75.8 L -35.622222,-75.8 L -35.622222,-72.577778 L -28.2,-72.577778 L -25.622222,-70.0 L -28.2,-67.422222 L -35.622222,-67.422222 L -35.622222,-64.2 L -38.777778,-64.2" />
      <path d="M 1.861572,-71.651611 L 2.301025,-71.651611 L 2.301025,-69.058838 L 1.861572,-69.058838 L 1.861572,-71.651611" />
      <path d="M 1.861572,-68.577881 L 2.301025,-68.577881 L 2.301025,-68.07251 L 1.861572,-68.07251 L 1.861572,-68.577881" />
      <path d="M 2.969971,-71.651611 L 3.409424,-71.651611 L 3.409424,-70.235596 Q 3.409424,-69.737549 3.613281,-69.559326 Q 3.817139,-69.381104 4.0979,-69.381104 Q 4.273682,-69.381104 4.404297,-69.460449 Q 4.534912,-69.539795 4.586182,-69.672852 Q 4.637451,-69.805908 4.637451,-70.074463 L 4.637451,-71.651611 L 5.076904,-71.651611 L 5.076904,-70.057373 Q 5.076904,-69.752197 5.05249,-69.630127 Q 5.013428,-69.442139 4.915771,-69.30542 Q 4.818115,-69.168701 4.621582,-69.084473 Q 4.425049,-69.000244 4.190674,-69.000244 Q 3.651123,-69.000244 3.365479,-69.42749 L 3.365479,-69.058838 L 2.969971,-69.058838 L 2.969971,-71.651611" />
      <path d="M 6.097412,-71.929932 L 5.670166,-71.866455 Q 5.6604,-72.286377 5.946045,-72.495117 Q 6.231689,-72.703857 6.695557,-72.703857 Q 7.086182,-72.703857 7.353516,-72.557373 Q 7.62085,-72.410889 7.744141,-72.158203 Q 7.867432,-71.905518 7.867432,-71.300049 L 7.867432,-69.058838 L 7.462158,-69.058838 L 7.462158,-69.371338 Q 7.164307,-69.000244 6.705322,-69.000244 Q 6.361084,-69.000244 6.105957,-69.171143 Q 5.85083,-69.342041 5.716553,-69.655762 Q 5.582275,-69.969482 5.582275,-70.340576 Q 5.582275,-70.880127 5.875244,-71.265869 Q 6.168213,-71.651611 6.702881,-71.651611 Q 7.132568,-71.651611 7.420654,-71.312256 Q 7.423096,-71.741943 7.388916,-71.876221 Q 7.330322,-72.095947 7.164307,-72.218018 Q 6.998291,-72.340088 6.693115,-72.340088 Q 6.409912,-72.340088 6.246338,-72.218018 Q 6.124268,-72.127686 6.097412,-71.929932 M 6.033936,-70.308838 Q 6.033936,-69.840088 6.239014,-69.602051 Q 6.444092,-69.364014 6.737061,-69.364014 Q 7.034912,-69.364014 7.246094,-69.605713 Q 7.457275,-69.847412 7.457275,-70.323486 Q 7.457275,-70.821533 7.252197,-71.054688 Q 7.047119,-71.287842 6.744385,-71.287842 Q 6.439209,-71.287842 6.236572,-71.053467 Q 6.033936,-70.819092 6.033936,-70.308838" />
      <path d="M -6.849365,-71.646729 L -6.912842,-71.258545 Q -7.032471,-71.275635 -7.105713,-71.275635 Q -7.203369,-71.275635 -7.255859,-71.243896 Q -7.30835,-71.212158 -7.331543,-71.158447 Q -7.354736,-71.104736 -7.354736,-70.916748 L -7.354736,-69.400635 L -6.912842,-69.400635 L -6.912842,-69.058838 L -7.354736,-69.058838 L -7.354736,-68.153076 L -7.791748,-68.416748 L -7.791748,-69.058838 L -8.114014,-69.058838 L -8.114014,-69.400635 L -7.791748,-69.400635 L -7.791748,-70.892334 C -7.791748,-71.156006 -7.773844,-71.328939 -7.738037,-71.411133 C -7.70223,-71.493327 -7.640381,-71.559652 -7.55249,-71.610107 C -7.411105,-71.688651 -7.17514,-71.714979 -6.849365,-71.646729" />
      <path d="M -6.002197,-70.223389 C -6.234665,-70.290146 -6.431758,-70.408503 -6.54541,-70.620117 C -6.60319,-70.725098 -6.63208,-70.841064 -6.63208,-70.968018 C -6.63208,-71.184489 -6.555583,-71.362305 -6.402588,-71.501465 C -6.249593,-71.640625 -6.03068,-71.710205 -5.74585,-71.710205 C -5.573324,-71.710205 -5.411784,-71.681722 -5.26123,-71.624756 C -5.110677,-71.56779 -4.95402,-71.470133 -4.79126,-71.331787 Q -4.771729,-71.514893 -4.703369,-71.651611 L -4.244385,-71.651611 Q -4.327393,-71.502686 -4.355469,-71.340332 Q -4.383545,-71.177979 -4.383545,-70.565186 L -4.383545,-69.979248 Q -4.383545,-69.686279 -4.405518,-69.573975 Q -4.44458,-69.393311 -4.542236,-69.274902 Q -4.639893,-69.156494 -4.847412,-69.078369 Q -5.054932,-69.000244 -5.386963,-69.000244 Q -5.721436,-69.000244 -5.975342,-69.091797 Q -6.229248,-69.18335 -6.363525,-69.353027 Q -6.497803,-69.522705 -6.556396,-69.798584 L -6.126709,-69.857178 Q -6.055908,-69.581299 -5.908203,-69.472656 Q -5.760498,-69.364014 -5.450439,-69.364014 Q -5.118408,-69.364014 -4.949951,-69.512939 Q -4.825439,-69.622803 -4.825439,-69.891357 Q -4.825439,-69.915771 -4.827881,-70.006104 Q -5.079346,-70.093994 -5.611572,-70.157471 Q -5.872803,-70.189209 -6.002197,-70.223389 M -4.827881,-70.350342 L -4.827881,-70.511475 Q -4.827881,-70.802002 -4.898682,-70.950928 Q -4.991455,-71.143799 -5.189209,-71.254883 Q -5.386963,-71.365967 -5.640869,-71.365967 Q -5.897217,-71.365967 -6.030273,-71.248779 Q -6.16333,-71.131592 -6.16333,-70.955811 Q -6.16333,-70.841064 -6.102295,-70.74707 Q -6.04126,-70.653076 -5.928955,-70.604248 Q -5.81665,-70.55542 -5.545654,-70.516357 Q -5.067139,-70.447998 -4.827881,-70.350342" />
      <path d="M -3.702393,-72.645264 L -3.262939,-72.645264 L -3.262939,-71.383057 Q -3.150635,-71.524658 -2.976074,-71.617432 Q -2.801514,-71.710205 -2.581787,-71.710205 Q -2.281494,-71.710205 -2.009277,-71.540527 Q -1.737061,-71.37085 -1.594238,-71.052246 Q -1.451416,-70.733643 -1.451416,-70.335693 Q -1.451416,-69.9646 -1.580811,-69.65332 Q -1.710205,-69.342041 -1.964111,-69.171143 Q -2.218018,-69.000244 -2.550049,-69.000244 Q -2.803955,-69.000244 -2.982178,-69.099121 Q -3.1604,-69.197998 -3.302002,-69.395752 L -3.302002,-69.058838 L -3.702393,-69.058838 L -3.702393,-72.645264 M -3.304443,-70.369873 Q -3.304443,-69.869385 -3.088379,-69.606934 Q -2.872314,-69.344482 -2.591553,-69.344482 Q -2.30835,-69.344482 -2.104492,-69.591064 Q -1.900635,-69.837646 -1.900635,-70.333252 Q -1.900635,-70.853271 -2.109375,-71.101074 Q -2.318115,-71.348877 -2.611084,-71.348877 Q -2.89917,-71.348877 -3.101807,-71.109619 Q -3.304443,-70.870361 -3.304443,-70.369873" />
      <path d="M -0.921631,-72.645264 L -0.482178,-72.645264 L -0.482178,-71.383057 Q -0.369873,-71.524658 -0.195313,-71.617432 Q -0.020752,-71.710205 0.198975,-71.710205 Q 0.499268,-71.710205 0.771484,-71.540527 Q 1.043701,-71.37085 1.186523,-71.052246 Q 1.329346,-70.733643 1.329346,-70.335693 Q 1.329346,-69.9646 1.199951,-69.65332 Q 1.070557,-69.342041 0.81665,-69.171143 Q 0.562744,-69.000244 0.230713,-69.000244 Q -0.023193,-69.000244 -0.201416,-69.099121 Q -0.379639,-69.197998 -0.52124,-69.395752 L -0.52124,-69.058838 L -0.921631,-69.058838 L -0.921631,-72.645264 M -0.523682,-70.369873 Q -0.523682,-69.869385 -0.307617,-69.606934 Q -0.091553,-69.344482 0.189209,-69.344482 Q 0.472412,-69.344482 0.67627,-69.591064 Q 0.880127,-69.837646 0.880127,-70.333252 Q 0.880127,-70.853271 0.671387,-71.101074 Q 0.462646,-71.348877 0.169678,-71.348877 Q -0.118408,-71.348877 -0.321045,-71.109619 Q -0.523682,-70.870361 -0.523682,-70.369873" />
      <path d="M 41.6448,-66.2 A 2.0,2.0 0.0 0,1 39.6448,-64.2 L 34.6848,-64.2 L 34.6848,-67.1 L 33.857333,-66.27988 L 33.029867,-67.1 L 32.2024,-66.27988 L 31.374933,-67.1 L 30.547467,-66.27988 L 29.72,-67.1 L 28.892533,-66.27988 L 28.065067,-67.1 L 27.865067,-67.1 L 24.7552,-70.0 L 27.865067,-72.9 L 28.065067,-72.9 L 28.892533,-73.72012 L 29.72,-72.9 L 30.547467,-73.72012 L 31.374933,-72.9 L 32.2024,-73.72012 L 33.029867,-72.9 L 33.857333,-73.72012 L 34.6848,-72.9 L 34.6848,-75.8 L 39.6448,-75.8 A 2.0,2.0 0.0 0,1 41.6448,-73.8 L 41.6448,-66.2" />
      <path d="M -27.622222,-89.8 A 2.0,2.0 180.0 0,1 -25.622222,-87.8 L -25.622222,-80.2 A 2.0,2.0 180.0 0,1 -27.622222,-78.2 L -30.777778,-78.2 L -30.777778,-81.422222 L -40.777778,-81.422222 L -40.777778,-86.577778 L -30.777778,-86.577778 L -30.777778,-89.8 L -27.622222,-89.8" />
      <path d="M -3.426514,-86.645264 L -2.987061,-86.645264 L -2.987061,-85.383057 Q -2.874756,-85.524658 -2.700195,-85.617432 Q -2.525635,-85.710205 -2.305908,-85.710205 Q -2.005615,-85.710205 -1.733398,-85.540527 Q -1.461182,-85.37085 -1.318359,-85.052246 Q -1.175537,-84.733643 -1.175537,-84.335693 Q -1.175537,-83.9646 -1.304932,-83.65332 Q -1.434326,-83.342041 -1.688232,-83.171143 Q -1.942139,-83.000244 -2.27417,-83.000244 Q -2.528076,-83.000244 -2.706299,-83.099121 Q -2.884521,-83.197998 -3.026123,-83.395752 L -3.026123,-83.058838 L -3.426514,-83.058838 L -3.426514,-86.645264 M -3.028564,-84.369873 Q -3.028564,-83.869385 -2.8125,-83.606934 Q -2.596436,-83.344482 -2.315674,-83.344482 Q -2.032471,-83.344482 -1.828613,-83.591064 Q -1.624756,-83.837646 -1.624756,-84.333252 Q -1.624756,-84.853271 -1.833496,-85.101074 Q -2.042236,-85.348877 -2.335205,-85.348877 Q -2.623291,-85.348877 -2.825928,-85.109619 Q -3.028564,-84.870361 -3.028564,-84.369873" />
      <path d="M -0.645752,-86.645264 L -0.206299,-86.645264 L -0.206299,-85.383057 Q -0.093994,-85.524658 0.080566,-85.617432 Q 0.255127,-85.710205 0.474854,-85.710205 Q 0.775146,-85.710205 1.047363,-85.540527 Q 1.31958,-85.37085 1.462402,-85.052246 Q 1.605225,-84.733643 1.605225,-84.335693 Q 1.605225,-83.9646 1.47583,-83.65332 Q 1.346436,-83.342041 1.092529,-83.171143 Q 0.838623,-83.000244 0.506592,-83.000244 Q 0.252686,-83.000244 0.074463,-83.099121 Q -0.10376,-83.197998 -0.245361,-83.395752 L -0.245361,-83.058838 L -0.645752,-83.058838 L -0.645752,-86.645264 M -0.247803,-84.369873 Q -0.247803,-83.869385 -0.031738,-83.606934 Q 0.184326,-83.344482 0.465088,-83.344482 Q 0.748291,-83.344482 0.952148,-83.591064 Q 1.156006,-83.837646 1.156006,-84.333252 Q 1.156006,-84.853271 0.947266,-85.101074 Q 0.738525,-85.348877 0.445557,-85.348877 Q 0.157471,-85.348877 -0.045166,-85.109619 Q -0.247803,-84.870361 -0.247803,-84.369873" />
      <path d="M 4.364014,-84.872803 L 3.909912,-84.81665 C 3.776449,-85.190287 3.548584,-85.346334 3.226318,-85.348877 C 3.009847,-85.348877 2.829183,-85.273193 2.684326,-85.121826 C 2.539469,-84.970459 2.458903,-84.75236 2.442627,-84.467529 L 4.376221,-84.467529 Q 4.378662,-84.389404 4.378662,-84.350342 Q 4.378662,-83.708252 4.049072,-83.354248 Q 3.719482,-83.000244 3.199463,-83.000244 Q 2.662354,-83.000244 2.325439,-83.361572 Q 1.988525,-83.7229 1.988525,-84.377197 Q 1.988525,-85.009521 2.321777,-85.359863 Q 2.655029,-85.710205 3.223877,-85.710205 Q 3.675537,-85.710205 3.966064,-85.490479 Q 4.256592,-85.270752 4.364014,-84.872803 M 3.914795,-84.106201 L 2.467041,-84.106201 Q 2.489014,-83.766846 2.695312,-83.564209 Q 2.901611,-83.361572 3.204346,-83.361572 Q 3.538818,-83.361572 3.748779,-83.615479 Q 3.885498,-83.779053 3.914795,-84.106201" />
      <path d="M 6.5979,-85.651611 L 7.005615,-85.651611 L 7.005615,-82.07251 L 6.568604,-82.07251 L 6.568604,-83.356689 Q 6.453857,-83.197998 6.270752,-83.099121 Q 6.087646,-83.000244 5.853271,-83.000244 Q 5.533447,-83.000244 5.274658,-83.168701 Q 5.015869,-83.337158 4.886475,-83.65332 Q 4.75708,-83.969482 4.75708,-84.357666 Q 4.75708,-84.755615 4.899902,-85.062012 Q 5.042725,-85.368408 5.302734,-85.539307 Q 5.562744,-85.710205 5.872803,-85.710205 Q 6.351318,-85.710205 6.5979,-85.324463 L 6.5979,-85.651611 M 5.20874,-84.357666 Q 5.20874,-83.842529 5.405273,-83.603271 Q 5.601807,-83.364014 5.894775,-83.364014 Q 6.195068,-83.364014 6.400146,-83.613037 Q 6.605225,-83.862061 6.605225,-84.394287 Q 6.605225,-84.877686 6.403809,-85.113281 Q 6.202393,-85.348877 5.914307,-85.348877 Q 5.628662,-85.348877 5.418701,-85.102295 Q 5.20874,-84.855713 5.20874,-84.357666" />
      <path d="M -6.932373,-85.651611 L -6.495361,-85.651611 L -6.495361,-83.400635 L -5.98999,-83.400635 L -5.98999,-83.058838 L -6.495361,-83.058838 L -6.495361,-82.81958 Q -6.495361,-82.585205 -6.412354,-82.499756 Q -6.329346,-82.414307 -6.12915,-82.414307 Q -6.00708,-82.414307 -5.870361,-82.438721 L -5.804443,-82.05542 Q -6.029053,-82.011475 -6.2146,-82.011475 Q -6.502686,-82.011475 -6.662598,-82.117676 Q -6.82251,-82.223877 -6.885986,-82.394775 Q -6.932373,-82.521729 -6.932373,-82.782959 L -6.932373,-83.058838 L -7.320557,-83.058838 L -7.320557,-83.400635 L -6.932373,-83.400635 L -6.932373,-85.651611" />
      <path d="M -5.657959,-85.651611 L -5.218506,-85.651611 L -5.218506,-82.07251 L -5.657959,-82.07251 L -5.657959,-85.651611" />
      <path d="M -4.534912,-82.577881 L -4.095459,-82.577881 L -4.095459,-82.07251 L -4.534912,-82.07251 L -4.534912,-82.577881" />
      <path d="M -4.534912,-85.651611 L -4.095459,-85.651611 L -4.095459,-83.058838 L -4.534912,-83.058838 L -4.534912,-85.651611" />
      <path d="M 24.7552,-87.8 A 2.0,2.0 180.0 0,1 26.7552,-89.8 L 31.7152,-89.8 L 31.7152,-86.9 L 32.542667,-87.72012 L 33.370133,-86.9 L 34.1976,-87.72012 L 35.025067,-86.9 L 35.852533,-87.72012 L 36.68,-86.9 L 37.507467,-87.72012 L 38.334933,-86.9 L 39.1624,-87.72012 L 39.989867,-86.9 L 40.817333,-87.72012 L 41.6448,-86.9 L 41.6448,-81.1 L 40.817333,-80.27988 L 39.989867,-81.1 L 39.1624,-80.27988 L 38.334933,-81.1 L 37.507467,-80.27988 L 36.68,-81.1 L 35.852533,-80.27988 L 35.025067,-81.1 L 34.1976,-80.27988 L 33.370133,-81.1 L 32.542667,-80.27988 L 31.7152,-81.1 L 31.7152,-78.2 L 26.7552,-78.2 A 2.0,2.0 180.0 0,1 24.7552,-80.2 L 24.7552,-87.8" />
      <path d="M -35.622222,-92.2 L -38.777778,-92.2 A 2.0,2.0 0.0 0,1 -40.777778,-94.2 L -40.777778,-96.711111 L -38.2,-96.711111 L -38.2,-99.288889 L -40.777778,-99.288889 L -40.777778,-101.8 A 2.0,2.0 0.0 0,1 -38.777778,-103.8 L -35.622222,-103.8 L -35.622222,-100.577778 L -25.622222,-100.577778 L -25.622222,-95.422222 L -35.622222,-95.422222 L -35.622222,-92.2" />
      <path d="M -3.302002,-98.809326 L -3.736572,-98.877686 Q -3.66333,-99.290283 -3.398438,-99.500244 Q -3.133545,-99.710205 -2.628174,-99.710205 Q -2.322998,-99.710205 -2.081299,-99.604004 Q -1.8396,-99.497803 -1.711426,-99.303711 Q -1.583252,-99.109619 -1.583252,-98.889893 Q -1.583252,-98.665283 -1.688232,-98.513916 Q -1.793213,-98.362549 -1.977539,-98.283203 Q -2.161865,-98.203857 -2.628174,-98.079346 Q -2.950439,-97.991455 -3.016357,-97.967041 Q -3.131104,-97.920654 -3.184814,-97.849854 C -3.220622,-97.804281 -3.238525,-97.753011 -3.238525,-97.696045 C -3.238525,-97.606527 -3.195394,-97.528402 -3.109131,-97.46167 C -3.022868,-97.394938 -2.878825,-97.361572 -2.677002,-97.361572 C -2.334696,-97.359029 -2.150167,-97.521993 -2.110596,-97.786377 L -1.680908,-97.727783 Q -1.722412,-97.476318 -1.832275,-97.326172 Q -1.942139,-97.176025 -2.172852,-97.088135 Q -2.403564,-97.000244 -2.70874,-97.000244 Q -2.911377,-97.000244 -3.088379,-97.052734 Q -3.265381,-97.105225 -3.36792,-97.180908 C -3.547923,-97.308573 -3.665619,-97.518738 -3.66333,-97.747314 C -3.66333,-97.874268 -3.631185,-97.990234 -3.566895,-98.095215 C -3.502604,-98.200195 -3.408203,-98.282389 -3.283691,-98.341797 C -3.15918,-98.401204 -2.935791,-98.471598 -2.613525,-98.552979 Q -2.254639,-98.643311 -2.164307,-98.701904 C -2.078044,-98.75887 -2.034912,-98.836995 -2.034912,-98.936279 C -2.034912,-99.046956 -2.08374,-99.143392 -2.181396,-99.225586 C -2.279053,-99.30778 -2.428792,-99.348877 -2.630615,-99.348877 C -3.03126,-99.350657 -3.252919,-99.155853 -3.302002,-98.809326" />
      <path d="M -1.070557,-99.651611 L -0.631104,-99.651611 L -0.631104,-96.07251 L -1.070557,-96.07251 L -1.070557,-99.651611" />
      <path d="M 0.286865,-97.28833 Q -0.113525,-97.63501 -0.113525,-98.355225 Q -0.113525,-99.011963 0.222168,-99.361084 Q 0.557861,-99.710205 1.102295,-99.710205 Q 1.44165,-99.710205 1.728516,-99.551514 Q 2.015381,-99.392822 2.165527,-99.105957 Q 2.315674,-98.819092 2.315674,-98.318604 Q 2.315674,-97.700928 1.976318,-97.350586 Q 1.636963,-97.000244 1.102295,-97.000244 Q 0.621338,-97.000244 0.286865,-97.28833 M 0.338135,-98.355225 Q 0.338135,-97.857178 0.55542,-97.610596 Q 0.772705,-97.364014 1.102295,-97.364014 Q 1.427002,-97.364014 1.645508,-97.611816 Q 1.864014,-97.859619 1.864014,-98.340576 Q 1.864014,-98.85083 1.646729,-99.099854 Q 1.429443,-99.348877 1.102295,-99.348877 Q 0.772705,-99.348877 0.55542,-99.101074 Q 0.338135,-98.853271 0.338135,-98.355225" />
      <path d="M 3.85376,-99.646729 L 3.790283,-99.258545 Q 3.670654,-99.275635 3.597412,-99.275635 Q 3.499756,-99.275635 3.447266,-99.243896 Q 3.394775,-99.212158 3.371582,-99.158447 Q 3.348389,-99.104736 3.348389,-98.916748 L 3.348389,-97.400635 L 3.790283,-97.400635 L 3.790283,-97.058838 L 3.348389,-97.058838 L 3.348389,-96.153076 L 2.911377,-96.416748 L 2.911377,-97.058838 L 2.589111,-97.058838 L 2.589111,-97.400635 L 2.911377,-97.400635 L 2.911377,-98.892334 C 2.911377,-99.156006 2.929281,-99.328939 2.965088,-99.411133 C 3.000895,-99.493327 3.062744,-99.559652 3.150635,-99.610107 C 3.29202,-99.688651 3.527985,-99.714979 3.85376,-99.646729" />
      <path d="M -36.911111,-107.918519 L -38.777778,-107.918519 A 2.0,2.0 0.0 0,1 -40.777778,-109.918519 L -40.777778,-114.081481 A 2.0,2.0 0.0 0,1 -38.777778,-116.081481 L -36.911111,-116.081481 L -36.911111,-117.8 L -35.622222,-117.8 L -35.622222,-114.577778 L -25.622222,-114.577778 L -25.622222,-109.422222 L -35.622222,-109.422222 L -35.622222,-106.2 L -36.911111,-106.2 L -36.911111,-107.918519" />
      <path d="M 2.27417,-113.651611 L 2.713623,-113.651611 L 2.713623,-112.235596 Q 2.713623,-111.737549 2.91748,-111.559326 Q 3.121338,-111.381104 3.4021,-111.381104 Q 3.577881,-111.381104 3.708496,-111.460449 Q 3.839111,-111.539795 3.890381,-111.672852 Q 3.94165,-111.805908 3.94165,-112.074463 L 3.94165,-113.651611 L 4.381104,-113.651611 L 4.381104,-112.057373 Q 4.381104,-111.752197 4.356689,-111.630127 Q 4.317627,-111.442139 4.219971,-111.30542 Q 4.122314,-111.168701 3.925781,-111.084473 Q 3.729248,-111.000244 3.494873,-111.000244 Q 2.955322,-111.000244 2.669678,-111.42749 L 2.669678,-111.058838 L 2.27417,-111.058838 L 2.27417,-113.651611" />
      <path d="M 5.401611,-113.929932 L 4.974365,-113.866455 Q 4.9646,-114.286377 5.250244,-114.495117 Q 5.535889,-114.703857 5.999756,-114.703857 Q 6.390381,-114.703857 6.657715,-114.557373 Q 6.925049,-114.410889 7.04834,-114.158203 Q 7.171631,-113.905518 7.171631,-113.300049 L 7.171631,-111.058838 L 6.766357,-111.058838 L 6.766357,-111.371338 Q 6.468506,-111.000244 6.009521,-111.000244 Q 5.665283,-111.000244 5.410156,-111.171143 Q 5.155029,-111.342041 5.020752,-111.655762 Q 4.886475,-111.969482 4.886475,-112.340576 Q 4.886475,-112.880127 5.179443,-113.265869 Q 5.472412,-113.651611 6.00708,-113.651611 Q 6.436768,-113.651611 6.724854,-113.312256 Q 6.727295,-113.741943 6.693115,-113.876221 Q 6.634521,-114.095947 6.468506,-114.218018 Q 6.30249,-114.340088 5.997314,-114.340088 Q 5.714111,-114.340088 5.550537,-114.218018 Q 5.428467,-114.127686 5.401611,-113.929932 M 5.338135,-112.308838 Q 5.338135,-111.840088 5.543213,-111.602051 Q 5.748291,-111.364014 6.04126,-111.364014 Q 6.339111,-111.364014 6.550293,-111.605713 Q 6.761475,-111.847412 6.761475,-112.323486 Q 6.761475,-112.821533 6.556396,-113.054688 Q 6.351318,-113.287842 6.048584,-113.287842 Q 5.743408,-113.287842 5.540771,-113.053467 Q 5.338135,-112.819092 5.338135,-112.308838" />
      <path d="M 10.064697,-112.872803 L 9.610596,-112.81665 C 9.477132,-113.190287 9.249268,-113.346334 8.927002,-113.348877 C 8.710531,-113.348877 8.529867,-113.273193 8.38501,-113.121826 C 8.240153,-112.970459 8.159587,-112.75236 8.143311,-112.467529 L 10.076904,-112.467529 Q 10.079346,-112.389404 10.079346,-112.350342 Q 10.079346,-111.708252 9.749756,-111.354248 Q 9.420166,-111.000244 8.900146,-111.000244 Q 8.363037,-111.000244 8.026123,-111.361572 Q 7.689209,-111.7229 7.689209,-112.377197 Q 7.689209,-113.009521 8.022461,-113.359863 Q 8.355713,-113.710205 8.924561,-113.710205 Q 9.376221,-113.710205 9.666748,-113.490479 Q 9.957275,-113.270752 10.064697,-112.872803 M 9.615479,-112.106201 L 8.167725,-112.106201 Q 8.189697,-111.766846 8.395996,-111.564209 Q 8.602295,-111.361572 8.905029,-111.361572 Q 9.239502,-111.361572 9.449463,-111.615479 Q 9.586182,-111.779053 9.615479,-112.106201" />
      <path d="M 12.298584,-113.651611 L 12.706299,-113.651611 L 12.706299,-110.07251 L 12.269287,-110.07251 L 12.269287,-111.356689 Q 12.154541,-111.197998 11.971436,-111.099121 Q 11.78833,-111.000244 11.553955,-111.000244 Q 11.234131,-111.000244 10.975342,-111.168701 Q 10.716553,-111.337158 10.587158,-111.65332 Q 10.457764,-111.969482 10.457764,-112.357666 Q 10.457764,-112.755615 10.600586,-113.062012 Q 10.743408,-113.368408 11.003418,-113.539307 Q 11.263428,-113.710205 11.573486,-113.710205 Q 12.052002,-113.710205 12.298584,-113.324463 L 12.298584,-113.651611 M 10.909424,-112.357666 Q 10.909424,-111.842529 11.105957,-111.603271 Q 11.30249,-111.364014 11.595459,-111.364014 Q 11.895752,-111.364014 12.10083,-111.613037 Q 12.305908,-111.862061 12.305908,-112.394287 Q 12.305908,-112.877686 12.104492,-113.113281 Q 11.903076,-113.348877 11.61499,-113.348877 Q 11.329346,-113.348877 11.119385,-113.102295 Q 10.909424,-112.855713 10.909424,-112.357666" />
      <path d="M -12.738037,-114.645264 L -12.298584,-114.645264 L -12.298584,-113.383057 Q -12.186279,-113.524658 -12.011719,-113.617432 Q -11.837158,-113.710205 -11.617432,-113.710205 Q -11.317139,-113.710205 -11.044922,-113.540527 Q -10.772705,-113.37085 -10.629883,-113.052246 Q -10.487061,-112.733643 -10.487061,-112.335693 Q -10.487061,-111.9646 -10.616455,-111.65332 Q -10.74585,-111.342041 -10.999756,-111.171143 Q -11.253662,-111.000244 -11.585693,-111.000244 Q -11.8396,-111.000244 -12.017822,-111.099121 Q -12.196045,-111.197998 -12.337646,-111.395752 L -12.337646,-111.058838 L -12.738037,-111.058838 L -12.738037,-114.645264 M -12.340088,-112.369873 Q -12.340088,-111.869385 -12.124023,-111.606934 Q -11.907959,-111.344482 -11.627197,-111.344482 Q -11.343994,-111.344482 -11.140137,-111.591064 Q -10.936279,-111.837646 -10.936279,-112.333252 Q -10.936279,-112.853271 -11.14502,-113.101074 Q -11.35376,-113.348877 -11.646729,-113.348877 Q -11.934814,-113.348877 -12.137451,-113.109619 Q -12.340088,-112.870361 -12.340088,-112.369873" />
      <path d="M -9.476318,-112.223389 C -9.708786,-112.290146 -9.905879,-112.408503 -10.019531,-112.620117 C -10.077311,-112.725098 -10.106201,-112.841064 -10.106201,-112.968018 C -10.106201,-113.184489 -10.029704,-113.362305 -9.876709,-113.501465 C -9.723714,-113.640625 -9.504801,-113.710205 -9.219971,-113.710205 C -9.047445,-113.710205 -8.885905,-113.681722 -8.735352,-113.624756 C -8.584798,-113.56779 -8.428141,-113.470133 -8.265381,-113.331787 Q -8.24585,-113.514893 -8.17749,-113.651611 L -7.718506,-113.651611 Q -7.801514,-113.502686 -7.82959,-113.340332 Q -7.857666,-113.177979 -7.857666,-112.565186 L -7.857666,-111.979248 Q -7.857666,-111.686279 -7.879639,-111.573975 Q -7.918701,-111.393311 -8.016357,-111.274902 Q -8.114014,-111.156494 -8.321533,-111.078369 Q -8.529053,-111.000244 -8.861084,-111.000244 Q -9.195557,-111.000244 -9.449463,-111.091797 Q -9.703369,-111.18335 -9.837646,-111.353027 Q -9.971924,-111.522705 -10.030518,-111.798584 L -9.60083,-111.857178 Q -9.530029,-111.581299 -9.382324,-111.472656 Q -9.234619,-111.364014 -8.924561,-111.364014 Q -8.592529,-111.364014 -8.424072,-111.512939 Q -8.299561,-111.622803 -8.299561,-111.891357 Q -8.299561,-111.915771 -8.302002,-112.006104 Q -8.553467,-112.093994 -9.085693,-112.157471 Q -9.346924,-112.189209 -9.476318,-112.223389 M -8.302002,-112.350342 L -8.302002,-112.511475 Q -8.302002,-112.802002 -8.372803,-112.950928 Q -8.465576,-113.143799 -8.66333,-113.254883 Q -8.861084,-113.365967 -9.11499,-113.365967 Q -9.371338,-113.365967 -9.504395,-113.248779 Q -9.637451,-113.131592 -9.637451,-112.955811 Q -9.637451,-112.841064 -9.576416,-112.74707 Q -9.515381,-112.653076 -9.403076,-112.604248 Q -9.290771,-112.55542 -9.019775,-112.516357 Q -8.54126,-112.447998 -8.302002,-112.350342" />
      <path d="M -7.176514,-113.651611 L -6.737061,-113.651611 L -6.737061,-112.235596 Q -6.737061,-111.737549 -6.533203,-111.559326 Q -6.329346,-111.381104 -6.048584,-111.381104 Q -5.872803,-111.381104 -5.742188,-111.460449 Q -5.611572,-111.539795 -5.560303,-111.672852 Q -5.509033,-111.805908 -5.509033,-112.074463 L -5.509033,-113.651611 L -5.06958,-113.651611 L -5.06958,-112.057373 Q -5.06958,-111.752197 -5.093994,-111.630127 Q -5.133057,-111.442139 -5.230713,-111.30542 Q -5.328369,-111.168701 -5.524902,-111.084473 Q -5.721436,-111.000244 -5.955811,-111.000244 Q -6.495361,-111.000244 -6.781006,-111.42749 L -6.781006,-111.058838 L -7.176514,-111.058838 L -7.176514,-113.651611" />
      <path d="M -4.281006,-113.651611 L -4.031982,-113.651611 Q -4.039307,-113.873779 -4.105225,-113.992188 Q -4.171143,-114.110596 -4.310303,-114.171631 L -4.188232,-114.359619 Q -3.97583,-114.266846 -3.878174,-114.097168 Q -3.780518,-113.92749 -3.780518,-113.651611 L -3.780518,-113.151123 L -4.281006,-113.151123 L -4.281006,-113.651611" />
      <path d="M -2.901611,-113.651611 L -2.4646,-113.651611 L -2.4646,-111.400635 L -1.959229,-111.400635 L -1.959229,-111.058838 L -2.4646,-111.058838 L -2.4646,-110.81958 Q -2.4646,-110.585205 -2.381592,-110.499756 Q -2.298584,-110.414307 -2.098389,-110.414307 Q -1.976318,-110.414307 -1.8396,-110.438721 L -1.773682,-110.05542 Q -1.998291,-110.011475 -2.183838,-110.011475 Q -2.471924,-110.011475 -2.631836,-110.117676 Q -2.791748,-110.223877 -2.855225,-110.394775 Q -2.901611,-110.521729 -2.901611,-110.782959 L -2.901611,-111.058838 L -3.289795,-111.058838 L -3.289795,-111.400635 L -2.901611,-111.400635 L -2.901611,-113.651611" />
      <path d="M -1.627197,-113.651611 L -1.187744,-113.651611 L -1.187744,-110.07251 L -1.627197,-110.07251 L -1.627197,-113.651611" />
      <path d="M -0.025635,-112.223389 C -0.258102,-112.290146 -0.455195,-112.408503 -0.568848,-112.620117 C -0.626628,-112.725098 -0.655518,-112.841064 -0.655518,-112.968018 C -0.655518,-113.184489 -0.57902,-113.362305 -0.426025,-113.501465 C -0.273031,-113.640625 -0.054118,-113.710205 0.230713,-113.710205 C 0.403239,-113.710205 0.564779,-113.681722 0.715332,-113.624756 C 0.865885,-113.56779 1.022542,-113.470133 1.185303,-113.331787 Q 1.204834,-113.514893 1.273193,-113.651611 L 1.732178,-113.651611 Q 1.64917,-113.502686 1.621094,-113.340332 Q 1.593018,-113.177979 1.593018,-112.565186 L 1.593018,-111.979248 Q 1.593018,-111.686279 1.571045,-111.573975 Q 1.531982,-111.393311 1.434326,-111.274902 Q 1.33667,-111.156494 1.12915,-111.078369 Q 0.921631,-111.000244 0.5896,-111.000244 Q 0.255127,-111.000244 0.001221,-111.091797 Q -0.252686,-111.18335 -0.386963,-111.353027 Q -0.52124,-111.522705 -0.579834,-111.798584 L -0.150146,-111.857178 Q -0.079346,-111.581299 0.068359,-111.472656 Q 0.216064,-111.364014 0.526123,-111.364014 Q 0.858154,-111.364014 1.026611,-111.512939 Q 1.151123,-111.622803 1.151123,-111.891357 Q 1.151123,-111.915771 1.148682,-112.006104 Q 0.897217,-112.093994 0.36499,-112.157471 Q 0.10376,-112.189209 -0.025635,-112.223389 M 1.148682,-112.350342 L 1.148682,-112.511475 Q 1.148682,-112.802002 1.077881,-112.950928 Q 0.985107,-113.143799 0.787354,-113.254883 Q 0.5896,-113.365967 0.335693,-113.365967 Q 0.079346,-113.365967 -0.053711,-113.248779 Q -0.186768,-113.131592 -0.186768,-112.955811 Q -0.186768,-112.841064 -0.125732,-112.74707 Q -0.064697,-112.653076 0.047607,-112.604248 Q 0.159912,-112.55542 0.430908,-112.516357 Q 0.909424,-112.447998 1.148682,-112.350342" />
      <path d="M -35.622222,-120.2 L -37.340741,-120.2 L -37.340741,-131.8 L -35.622222,-131.8 L -35.622222,-128.577778 L -25.622222,-128.577778 L -25.622222,-123.422222 L -35.622222,-123.422222 L -35.622222,-120.2" />
      <path d="M -1.691895,-126.223389 C -1.924362,-126.290146 -2.121455,-126.408503 -2.235107,-126.620117 C -2.292887,-126.725098 -2.321777,-126.841064 -2.321777,-126.968018 C -2.321777,-127.184489 -2.24528,-127.362305 -2.092285,-127.501465 C -1.93929,-127.640625 -1.720378,-127.710205 -1.435547,-127.710205 C -1.263021,-127.710205 -1.101481,-127.681722 -0.950928,-127.624756 C -0.800374,-127.56779 -0.643717,-127.470133 -0.480957,-127.331787 Q -0.461426,-127.514893 -0.393066,-127.651611 L 0.065918,-127.651611 Q -0.01709,-127.502686 -0.045166,-127.340332 Q -0.073242,-127.177979 -0.073242,-126.565186 L -0.073242,-125.979248 Q -0.073242,-125.686279 -0.095215,-125.573975 Q -0.134277,-125.393311 -0.231934,-125.274902 Q -0.32959,-125.156494 -0.537109,-125.078369 Q -0.744629,-125.000244 -1.07666,-125.000244 Q -1.411133,-125.000244 -1.665039,-125.091797 Q -1.918945,-125.18335 -2.053223,-125.353027 Q -2.1875,-125.522705 -2.246094,-125.798584 L -1.816406,-125.857178 Q -1.745605,-125.581299 -1.5979,-125.472656 Q -1.450195,-125.364014 -1.140137,-125.364014 Q -0.808105,-125.364014 -0.639648,-125.512939 Q -0.515137,-125.622803 -0.515137,-125.891357 Q -0.515137,-125.915771 -0.517578,-126.006104 Q -0.769043,-126.093994 -1.30127,-126.157471 Q -1.5625,-126.189209 -1.691895,-126.223389 M -0.517578,-126.350342 L -0.517578,-126.511475 Q -0.517578,-126.802002 -0.588379,-126.950928 Q -0.681152,-127.143799 -0.878906,-127.254883 Q -1.07666,-127.365967 -1.330566,-127.365967 Q -1.586914,-127.365967 -1.719971,-127.248779 Q -1.853027,-127.131592 -1.853027,-126.955811 Q -1.853027,-126.841064 -1.791992,-126.74707 Q -1.730957,-126.653076 -1.618652,-126.604248 Q -1.506348,-126.55542 -1.235352,-126.516357 Q -0.756836,-126.447998 -0.517578,-126.350342" />
      <path d="M 0.712891,-127.651611 L 1.149902,-127.651611 L 1.149902,-125.400635 L 1.655273,-125.400635 L 1.655273,-125.058838 L 1.149902,-125.058838 L 1.149902,-124.81958 Q 1.149902,-124.585205 1.23291,-124.499756 Q 1.315918,-124.414307 1.516113,-124.414307 Q 1.638184,-124.414307 1.774902,-124.438721 L 1.84082,-124.05542 Q 1.616211,-124.011475 1.430664,-124.011475 Q 1.142578,-124.011475 0.982666,-124.117676 Q 0.822754,-124.223877 0.759277,-124.394775 Q 0.712891,-124.521729 0.712891,-124.782959 L 0.712891,-125.058838 L 0.324707,-125.058838 L 0.324707,-125.400635 L 0.712891,-125.400635 L 0.712891,-127.651611" />
      <path d="M 4.226074,-126.872803 L 3.771973,-126.81665 C 3.638509,-127.190287 3.410645,-127.346334 3.088379,-127.348877 C 2.871908,-127.348877 2.691243,-127.273193 2.546387,-127.121826 C 2.40153,-126.970459 2.320964,-126.75236 2.304687,-126.467529 L 4.238281,-126.467529 Q 4.240723,-126.389404 4.240723,-126.350342 Q 4.240723,-125.708252 3.911133,-125.354248 Q 3.581543,-125.000244 3.061523,-125.000244 Q 2.524414,-125.000244 2.1875,-125.361572 Q 1.850586,-125.7229 1.850586,-126.377197 Q 1.850586,-127.009521 2.183838,-127.359863 Q 2.51709,-127.710205 3.085937,-127.710205 Q 3.537598,-127.710205 3.828125,-127.490479 Q 4.118652,-127.270752 4.226074,-126.872803 M 3.776855,-126.106201 L 2.329102,-126.106201 Q 2.351074,-125.766846 2.557373,-125.564209 Q 2.763672,-125.361572 3.066406,-125.361572 Q 3.400879,-125.361572 3.61084,-125.615479 Q 3.747559,-125.779053 3.776855,-126.106201" />
      <path d="M 4.772949,-127.651611 L 5.212402,-127.651611 L 5.212402,-126.294189 Q 5.212402,-126.015869 5.285645,-125.781494 Q 5.334473,-125.627686 5.449219,-125.541016 Q 5.563965,-125.454346 5.708008,-125.454346 Q 5.869141,-125.454346 6.030273,-125.549561 L 6.181641,-125.141846 Q 5.952148,-125.000244 5.72998,-125.000244 Q 5.576172,-125.000244 5.447998,-125.088135 Q 5.319824,-125.176025 5.168457,-125.451904 L 5.168457,-125.058838 L 4.772949,-125.058838 L 4.772949,-127.651611" />
      <path d="M -5.305176,-127.651611 L -4.846191,-127.651611 L -4.321289,-125.656982 L -4.221191,-126.098877 L -3.808594,-127.651611 L -3.352051,-127.651611 L -2.541504,-125.058838 L -2.96875,-125.058838 L -3.413086,-126.557861 L -3.562012,-127.05835 L -3.691406,-126.562744 L -4.07959,-125.058838 L -4.53125,-125.058838 L -4.943848,-126.577393 Q -5.068359,-127.070557 -5.078125,-127.112061 L -5.231934,-126.55542 L -5.644531,-125.058838 L -6.098633,-125.058838 L -5.305176,-127.651611" />
      <path d="M 1.77002,-141.646729 L 1.706543,-141.258545 Q 1.586914,-141.275635 1.513672,-141.275635 Q 1.416016,-141.275635 1.363525,-141.243896 Q 1.311035,-141.212158 1.287842,-141.158447 Q 1.264648,-141.104736 1.264648,-140.916748 L 1.264648,-139.400635 L 1.706543,-139.400635 L 1.706543,-139.058838 L 1.264648,-139.058838 L 1.264648,-138.153076 L 0.827637,-138.416748 L 0.827637,-139.058838 L 0.505371,-139.058838 L 0.505371,-139.400635 L 0.827637,-139.400635 L 0.827637,-140.892334 C 0.827637,-141.156006 0.84554,-141.328939 0.881348,-141.411133 C 0.917155,-141.493327 0.979004,-141.559652 1.066895,-141.610107 C 1.20828,-141.688651 1.444245,-141.714979 1.77002,-141.646729" />
      <path d="M 2.138672,-138.577881 L 2.578125,-138.577881 L 2.578125,-138.07251 L 2.138672,-138.07251 L 2.138672,-138.577881" />
      <path d="M 2.138672,-141.651611 L 2.578125,-141.651611 L 2.578125,-139.058838 L 2.138672,-139.058838 L 2.138672,-141.651611" />
      <path d="M 3.728027,-140.223389 C 3.49556,-140.290146 3.298467,-140.408503 3.184814,-140.620117 C 3.127035,-140.725098 3.098145,-140.841064 3.098145,-140.968018 C 3.098145,-141.184489 3.174642,-141.362305 3.327637,-141.501465 C 3.480632,-141.640625 3.699544,-141.710205 3.984375,-141.710205 C 4.156901,-141.710205 4.318441,-141.681722 4.468994,-141.624756 C 4.619548,-141.56779 4.776204,-141.470133 4.938965,-141.331787 Q 4.958496,-141.514893 5.026855,-141.651611 L 5.48584,-141.651611 Q 5.402832,-141.502686 5.374756,-141.340332 Q 5.34668,-141.177979 5.34668,-140.565186 L 5.34668,-139.979248 Q 5.34668,-139.686279 5.324707,-139.573975 Q 5.285645,-139.393311 5.187988,-139.274902 Q 5.090332,-139.156494 4.882812,-139.078369 Q 4.675293,-139.000244 4.343262,-139.000244 Q 4.008789,-139.000244 3.754883,-139.091797 Q 3.500977,-139.18335 3.366699,-139.353027 Q 3.232422,-139.522705 3.173828,-139.798584 L 3.603516,-139.857178 Q 3.674316,-139.581299 3.822021,-139.472656 Q 3.969727,-139.364014 4.279785,-139.364014 Q 4.611816,-139.364014 4.780273,-139.512939 Q 4.904785,-139.622803 4.904785,-139.891357 Q 4.904785,-139.915771 4.902344,-140.006104 Q 4.650879,-140.093994 4.118652,-140.157471 Q 3.857422,-140.189209 3.728027,-140.223389 M 4.902344,-140.350342 L 4.902344,-140.511475 Q 4.902344,-140.802002 4.831543,-140.950928 Q 4.73877,-141.143799 4.541016,-141.254883 Q 4.343262,-141.365967 4.089355,-141.365967 Q 3.833008,-141.365967 3.699951,-141.248779 Q 3.566895,-141.131592 3.566895,-140.955811 Q 3.566895,-140.841064 3.62793,-140.74707 Q 3.688965,-140.653076 3.80127,-140.604248 Q 3.913574,-140.55542 4.18457,-140.516357 Q 4.663086,-140.447998 4.902344,-140.350342" />
      <path d="M 6.018066,-141.651611 L 6.45752,-141.651611 L 6.45752,-138.07251 L 6.018066,-138.07251 L 6.018066,-141.651611" />
      <path d="M -6.479492,-142.645264 L -6.040039,-142.645264 L -6.040039,-141.383057 Q -5.927734,-141.524658 -5.753174,-141.617432 Q -5.578613,-141.710205 -5.358887,-141.710205 Q -5.058594,-141.710205 -4.786377,-141.540527 Q -4.51416,-141.37085 -4.371338,-141.052246 Q -4.228516,-140.733643 -4.228516,-140.335693 Q -4.228516,-139.9646 -4.35791,-139.65332 Q -4.487305,-139.342041 -4.741211,-139.171143 Q -4.995117,-139.000244 -5.327148,-139.000244 Q -5.581055,-139.000244 -5.759277,-139.099121 Q -5.9375,-139.197998 -6.079102,-139.395752 L -6.079102,-139.058838 L -6.479492,-139.058838 L -6.479492,-142.645264 M -6.081543,-140.369873 Q -6.081543,-139.869385 -5.865479,-139.606934 Q -5.649414,-139.344482 -5.368652,-139.344482 Q -5.085449,-139.344482 -4.881592,-139.591064 Q -4.677734,-139.837646 -4.677734,-140.333252 Q -4.677734,-140.853271 -4.886475,-141.101074 Q -5.095215,-141.348877 -5.388184,-141.348877 Q -5.67627,-141.348877 -5.878906,-141.109619 Q -6.081543,-140.870361 -6.081543,-140.369873" />
      <path d="M -3.217773,-140.223389 C -3.450241,-140.290146 -3.647334,-140.408503 -3.760986,-140.620117 C -3.818766,-140.725098 -3.847656,-140.841064 -3.847656,-140.968018 C -3.847656,-141.184489 -3.771159,-141.362305 -3.618164,-141.501465 C -3.465169,-141.640625 -3.246257,-141.710205 -2.961426,-141.710205 C -2.7889,-141.710205 -2.62736,-141.681722 -2.476807,-141.624756 C -2.326253,-141.56779 -2.169596,-141.470133 -2.006836,-141.331787 Q -1.987305,-141.514893 -1.918945,-141.651611 L -1.459961,-141.651611 Q -1.542969,-141.502686 -1.571045,-141.340332 Q -1.599121,-141.177979 -1.599121,-140.565186 L -1.599121,-139.979248 Q -1.599121,-139.686279 -1.621094,-139.573975 Q -1.660156,-139.393311 -1.757813,-139.274902 Q -1.855469,-139.156494 -2.062988,-139.078369 Q -2.270508,-139.000244 -2.602539,-139.000244 Q -2.937012,-139.000244 -3.190918,-139.091797 Q -3.444824,-139.18335 -3.579102,-139.353027 Q -3.713379,-139.522705 -3.771973,-139.798584 L -3.342285,-139.857178 Q -3.271484,-139.581299 -3.123779,-139.472656 Q -2.976074,-139.364014 -2.666016,-139.364014 Q -2.333984,-139.364014 -2.165527,-139.512939 Q -2.041016,-139.622803 -2.041016,-139.891357 Q -2.041016,-139.915771 -2.043457,-140.006104 Q -2.294922,-140.093994 -2.827148,-140.157471 Q -3.088379,-140.189209 -3.217773,-140.223389 M -2.043457,-140.350342 L -2.043457,-140.511475 Q -2.043457,-140.802002 -2.114258,-140.950928 Q -2.207031,-141.143799 -2.404785,-141.254883 Q -2.602539,-141.365967 -2.856445,-141.365967 Q -3.112793,-141.365967 -3.24585,-141.248779 Q -3.378906,-141.131592 -3.378906,-140.955811 Q -3.378906,-140.841064 -3.317871,-140.74707 Q -3.256836,-140.653076 -3.144531,-140.604248 Q -3.032227,-140.55542 -2.76123,-140.516357 Q -2.282715,-140.447998 -2.043457,-140.350342" />
      <path d="M -0.922852,-141.651611 L -0.483398,-141.651611 L -0.483398,-140.294189 Q -0.483398,-140.015869 -0.410156,-139.781494 Q -0.361328,-139.627686 -0.246582,-139.541016 Q -0.131836,-139.454346 0.012207,-139.454346 Q 0.17334,-139.454346 0.334473,-139.549561 L 0.48584,-139.141846 Q 0.256348,-139.000244 0.03418,-139.000244 Q -0.119629,-139.000244 -0.247803,-139.088135 Q -0.375977,-139.176025 -0.527344,-139.451904 L -0.527344,-139.058838 L -0.922852,-139.058838 L -0.922852,-141.651611" />
      <path d="M 41.6448,-136.2 A 2.0,2.0 0.0 0,1 39.6448,-134.2 L 34.6848,-134.2 L 34.6848,-137.1 L 29.72,-137.1 L 28.892533,-136.27988 L 28.065067,-137.1 L 27.2376,-136.27988 L 26.410133,-137.1 L 25.582667,-136.27988 L 24.7552,-137.1 L 24.7552,-142.9 L 25.582667,-143.72012 L 26.410133,-142.9 L 27.2376,-143.72012 L 28.065067,-142.9 L 28.892533,-143.72012 L 29.72,-142.9 L 34.6848,-142.9 L 34.6848,-145.8 L 39.6448,-145.8 A 2.0,2.0 0.0 0,1 41.6448,-143.8 L 41.6448,-136.2" />
      <path d="M 6.998291,-155.651611 L 7.437744,-155.651611 L 7.437744,-154.294189 Q 7.437744,-154.015869 7.510986,-153.781494 Q 7.559814,-153.627686 7.674561,-153.541016 Q 7.789307,-153.454346 7.93335,-153.454346 Q 8.094482,-153.454346 8.255615,-153.549561 L 8.406982,-153.141846 Q 8.17749,-153.000244 7.955322,-153.000244 Q 7.801514,-153.000244 7.67334,-153.088135 Q 7.545166,-153.176025 7.393799,-153.451904 L 7.393799,-153.058838 L 6.998291,-153.058838 L 6.998291,-155.651611" />
      <path d="M 8.670654,-152.577881 L 9.110107,-152.577881 L 9.110107,-152.07251 L 8.670654,-152.07251 L 8.670654,-152.577881" />
      <path d="M 8.670654,-155.651611 L 9.110107,-155.651611 L 9.110107,-153.058838 L 8.670654,-153.058838 L 8.670654,-155.651611" />
      <path d="M 10.802002,-155.646729 L 10.738525,-155.258545 Q 10.618896,-155.275635 10.545654,-155.275635 Q 10.447998,-155.275635 10.395508,-155.243896 Q 10.343018,-155.212158 10.319824,-155.158447 Q 10.296631,-155.104736 10.296631,-154.916748 L 10.296631,-153.400635 L 10.738525,-153.400635 L 10.738525,-153.058838 L 10.296631,-153.058838 L 10.296631,-152.153076 L 9.859619,-152.416748 L 9.859619,-153.058838 L 9.537354,-153.058838 L 9.537354,-153.400635 L 9.859619,-153.400635 L 9.859619,-154.892334 C 9.859619,-155.156006 9.877523,-155.328939 9.91333,-155.411133 C 9.949137,-155.493327 10.010986,-155.559652 10.098877,-155.610107 C 10.240262,-155.688651 10.476227,-155.714979 10.802002,-155.646729" />
      <path d="M 11.099854,-156.237549 L 11.148682,-156.650146 Q 11.304932,-156.703857 11.431885,-156.703857 Q 11.641846,-156.703857 11.793213,-156.602539 Q 11.94458,-156.501221 12.061768,-156.283936 Q 12.149658,-156.122803 12.30835,-155.695557 L 13.294678,-153.058838 L 12.855225,-153.058838 L 12.301025,-154.570068 Q 12.196045,-154.858154 12.120361,-155.160889 Q 12.037354,-154.845947 11.932373,-154.560303 L 11.392822,-153.058838 L 10.919189,-153.058838 L 11.903076,-155.656494 Q 11.876221,-155.727295 11.864014,-155.763916 Q 11.77124,-156.025146 11.729736,-156.091064 C 11.692301,-156.149658 11.644287,-156.195231 11.585693,-156.227783 C 11.4831,-156.281623 11.32706,-156.299676 11.099854,-156.237549" />
      <path d="M -13.009033,-155.651611 L -12.56958,-155.651611 L -12.56958,-154.233154 Q -12.56958,-153.927979 -12.496338,-153.754639 Q -12.423096,-153.581299 -12.250977,-153.47998 Q -12.078857,-153.378662 -11.883545,-153.378662 Q -11.622314,-153.378662 -11.479492,-153.528809 Q -11.33667,-153.678955 -11.33667,-154.008545 L -11.33667,-155.651611 L -10.897217,-155.651611 L -10.897217,-154.008545 Q -10.897217,-153.627686 -10.98877,-153.42749 Q -11.080322,-153.227295 -11.292725,-153.11377 Q -11.505127,-153.000244 -11.793213,-153.000244 Q -12.261963,-153.000244 -12.56958,-153.356689 L -12.56958,-152.07251 L -13.009033,-152.07251 L -13.009033,-155.651611" />
      <path d="M -7.999268,-154.872803 L -8.453369,-154.81665 C -8.586833,-155.190287 -8.814697,-155.346334 -9.136963,-155.348877 C -9.353434,-155.348877 -9.534098,-155.273193 -9.678955,-155.121826 C -9.823812,-154.970459 -9.904378,-154.75236 -9.920654,-154.467529 L -7.987061,-154.467529 Q -7.984619,-154.389404 -7.984619,-154.350342 Q -7.984619,-153.708252 -8.314209,-153.354248 Q -8.643799,-153.000244 -9.163818,-153.000244 Q -9.700928,-153.000244 -10.037842,-153.361572 Q -10.374756,-153.7229 -10.374756,-154.377197 Q -10.374756,-155.009521 -10.041504,-155.359863 Q -9.708252,-155.710205 -9.139404,-155.710205 Q -8.687744,-155.710205 -8.397217,-155.490479 Q -8.106689,-155.270752 -7.999268,-154.872803 M -8.448486,-154.106201 L -9.89624,-154.106201 Q -9.874268,-153.766846 -9.667969,-153.564209 Q -9.46167,-153.361572 -9.158936,-153.361572 Q -8.824463,-153.361572 -8.614502,-153.615479 Q -8.477783,-153.779053 -8.448486,-154.106201" />
      <path d="M -7.740479,-155.651611 L -7.208252,-155.651611 L -6.5271,-154.628662 L -6.385498,-154.845947 L -5.853271,-155.651611 L -5.313721,-155.651611 L -6.278076,-154.279541 L -5.38208,-153.058838 L -5.906982,-153.058838 L -6.343994,-153.671631 Q -6.434326,-153.796143 -6.541748,-153.957275 Q -6.610107,-153.840088 -6.722412,-153.666748 L -7.120361,-153.058838 L -7.669678,-153.058838 L -6.793213,-154.303955 L -7.740479,-155.651611" />
      <path d="M -4.832764,-155.651611 L -4.58374,-155.651611 Q -4.591064,-155.873779 -4.656982,-155.992188 Q -4.7229,-156.110596 -4.862061,-156.171631 L -4.73999,-156.359619 Q -4.527588,-156.266846 -4.429932,-156.097168 Q -4.332275,-155.92749 -4.332275,-155.651611 L -4.332275,-155.151123 L -4.832764,-155.151123 L -4.832764,-155.651611" />
      <path d="M -3.299561,-154.809326 L -3.734131,-154.877686 Q -3.660889,-155.290283 -3.395996,-155.500244 Q -3.131104,-155.710205 -2.625732,-155.710205 Q -2.320557,-155.710205 -2.078857,-155.604004 Q -1.837158,-155.497803 -1.708984,-155.303711 Q -1.580811,-155.109619 -1.580811,-154.889893 Q -1.580811,-154.665283 -1.685791,-154.513916 Q -1.790771,-154.362549 -1.975098,-154.283203 Q -2.159424,-154.203857 -2.625732,-154.079346 Q -2.947998,-153.991455 -3.013916,-153.967041 Q -3.128662,-153.920654 -3.182373,-153.849854 C -3.21818,-153.804281 -3.236084,-153.753011 -3.236084,-153.696045 C -3.236084,-153.606527 -3.192952,-153.528402 -3.106689,-153.46167 C -3.020426,-153.394938 -2.876383,-153.361572 -2.674561,-153.361572 C -2.332255,-153.359029 -2.147725,-153.521993 -2.108154,-153.786377 L -1.678467,-153.727783 Q -1.719971,-153.476318 -1.829834,-153.326172 Q -1.939697,-153.176025 -2.17041,-153.088135 Q -2.401123,-153.000244 -2.706299,-153.000244 Q -2.908936,-153.000244 -3.085938,-153.052734 Q -3.262939,-153.105225 -3.365479,-153.180908 C -3.545481,-153.308573 -3.663178,-153.518738 -3.660889,-153.747314 C -3.660889,-153.874268 -3.628743,-153.990234 -3.564453,-154.095215 C -3.500163,-154.200195 -3.405762,-154.282389 -3.28125,-154.341797 C -3.156738,-154.401204 -2.93335,-154.471598 -2.611084,-154.552979 Q -2.252197,-154.643311 -2.161865,-154.701904 C -2.075602,-154.75887 -2.032471,-154.836995 -2.032471,-154.936279 C -2.032471,-155.046956 -2.081299,-155.143392 -2.178955,-155.225586 C -2.276611,-155.30778 -2.426351,-155.348877 -2.628174,-155.348877 C -3.028819,-155.350657 -3.250478,-155.155853 -3.299561,-154.809326" />
      <path d="M 1.170654,-154.872803 L 0.716553,-154.81665 C 0.583089,-155.190287 0.355225,-155.346334 0.032959,-155.348877 C -0.183512,-155.348877 -0.364176,-155.273193 -0.509033,-155.121826 C -0.65389,-154.970459 -0.734456,-154.75236 -0.750732,-154.467529 L 1.182861,-154.467529 Q 1.185303,-154.389404 1.185303,-154.350342 Q 1.185303,-153.708252 0.855713,-153.354248 Q 0.526123,-153.000244 0.006104,-153.000244 Q -0.531006,-153.000244 -0.86792,-153.361572 Q -1.204834,-153.7229 -1.204834,-154.377197 Q -1.204834,-155.009521 -0.871582,-155.359863 Q -0.53833,-155.710205 0.030518,-155.710205 Q 0.482178,-155.710205 0.772705,-155.490479 Q 1.063232,-155.270752 1.170654,-154.872803 M 0.721436,-154.106201 L -0.726318,-154.106201 Q -0.704346,-153.766846 -0.498047,-153.564209 Q -0.291748,-153.361572 0.010986,-153.361572 Q 0.345459,-153.361572 0.55542,-153.615479 Q 0.692139,-153.779053 0.721436,-154.106201" />
      <path d="M 3.846436,-154.758057 L 3.414307,-154.701904 C 3.383382,-154.921631 3.31014,-155.084391 3.19458,-155.190186 C 3.07902,-155.29598 2.934977,-155.348877 2.762451,-155.348877 C 2.547607,-155.348877 2.373454,-155.269938 2.23999,-155.112061 C 2.106527,-154.954183 2.039795,-154.70109 2.039795,-154.352783 C 2.039795,-154.009359 2.108968,-153.758301 2.247314,-153.599609 C 2.385661,-153.440918 2.565511,-153.361572 2.786865,-153.361572 C 3.076782,-153.361318 3.299357,-153.538422 3.377686,-153.886475 L 3.804932,-153.820557 Q 3.729248,-153.42749 3.460693,-153.213867 Q 3.192139,-153.000244 2.769775,-153.000244 Q 2.435303,-153.000244 2.150879,-153.157715 Q 1.866455,-153.315186 1.727295,-153.630127 Q 1.588135,-153.945068 1.588135,-154.36499 Q 1.588135,-155.014404 1.911621,-155.362305 Q 2.235107,-155.710205 2.767334,-155.710205 Q 3.192139,-155.710205 3.483887,-155.45752 Q 3.775635,-155.204834 3.846436,-154.758057" />
      <path d="M 5.921631,-155.651611 L 6.314697,-155.651611 L 6.314697,-153.058838 L 5.875244,-153.058838 L 5.875244,-154.447998 Q 5.875244,-154.780029 5.803223,-154.95459 Q 5.731201,-155.12915 5.557861,-155.230469 Q 5.384521,-155.331787 5.186768,-155.331787 Q 4.989014,-155.331787 4.854736,-155.23291 Q 4.720459,-155.134033 4.678955,-154.960693 Q 4.6521,-154.841064 4.6521,-154.496826 L 4.6521,-153.058838 L 4.212646,-153.058838 L 4.212646,-154.665283 Q 4.212646,-154.946045 4.239502,-155.075439 Q 4.278564,-155.268311 4.375,-155.401367 Q 4.471436,-155.534424 4.67041,-155.622314 Q 4.869385,-155.710205 5.098877,-155.710205 Q 5.618896,-155.710205 5.921631,-155.270752 L 5.921631,-155.651611" />
      <circle cx="37.75474" cy="-154.0" r="0.6264" />
    </g>
  </g>
</svg>