<svg xmlns="http://www.w3.org/2000/svg" width="344.5" height="91.73" viewBox="-30.58 -7.91 61.16 16.29"><g stroke="none" stroke-linecap="round" stroke-width="0"><path d="M19.47 8.01q.27.33.74.33.7-.02.93-.72.12-.35.12-.92 0-.48-.08-.76-.14-.57-.52-.78a1 1 0 0 0-.45-.1 1 1 0 0 0-.59.18q-.23.19-.35.54t-.11.92q0 .9.31 1.31m.3-2.4q.16-.23.43-.23.28 0 .46.26.19.27.19 1.06 0 .8-.19 1.06-.18.26-.45.26-.28 0-.46-.26-.19-.27-.19-1.06 0-.8.2-1.09M21.88 8.29h.45v-.45h-.45zM-19.12 8.29h.45v-.45h-.45zM-23.51-1.33h.9l.7-1.95h2.7l.75 1.95h.97l-2.63-6.44h-.92zm1.85-2.64.71-1.9q.23-.6.35-1.22.15.52.46 1.33l.67 1.79zM-16.6 8.29V5.06h-.26q-.1.2-.35.43t-.58.37v.39q.19-.07.42-.2.23-.14.37-.28v2.52z"/><path d="M-30.55 3.43v2.24h.4v-.92h19.3v.92h.4V3.43h-.4v.92h-19.3v-.92z"/><path d="M-22.27 7.91h-1.58l.17-.21q.1-.11.46-.41.42-.36.6-.57.19-.2.27-.39t.08-.38q0-.38-.27-.64-.27-.25-.74-.25t-.73.23-.31.7l.4.04q0-.3.18-.48t.45-.17q.27 0 .44.16.17.17.17.4 0 .22-.18.48-.19.25-.71.68-.34.28-.52.49t-.26.43q-.05.13-.05.27h2.13zM-21.53 8.01q.27.33.74.33.7-.02.93-.72.12-.35.12-.92 0-.48-.08-.76-.14-.57-.52-.78a1 1 0 0 0-.45-.1 1 1 0 0 0-.59.18q-.23.19-.35.54t-.11.92q0 .9.31 1.31m.3-2.4q.16-.23.43-.23.28 0 .46.26.19.27.19 1.06 0 .8-.19 1.06-.18.26-.45.26-.28 0-.46-.26-.19-.27-.19-1.06 0-.8.2-1.09M-2.43-1.33H.02q.62 0 1.04-.1t.7-.33q.29-.2.48-.6.2-.38.2-.84 0-.56-.32-.97-.32-.42-.9-.59.45-.22.68-.59.22-.36.22-.77 0-.45-.25-.85-.26-.41-.7-.6-.45-.2-1.19-.2h-2.41zm.85-3.73v-1.95h1.29q.7 0 .98.09t.44.33.15.57q0 .68-.65.88-.25.08-.82.08zm0 2.97V-4.3h1.49q.62 0 .94.1.33.11.51.38.19.26.19.62 0 .31-.13.55-.13.23-.32.35-.2.13-.5.18-.16.03-.58.03zM3.9 8.29V5.06h-.26q-.1.2-.35.43t-.58.37v.39q.19-.07.42-.2.23-.14.37-.28v2.52z"/><path d="M-10.05 3.43v2.24h.4v-.92h19.3v.92h.4V3.43h-.4v.92h-19.3v-.92z"/><path d="M-1.77 7.91h-1.58l.17-.21q.1-.11.46-.41.42-.36.6-.57.19-.2.27-.39t.08-.38q0-.38-.27-.64-.27-.25-.74-.25t-.73.23-.31.7l.4.04q0-.3.18-.48t.45-.17q.27 0 .44.16.17.17.17.4 0 .22-.18.48-.19.25-.71.68-.34.28-.52.49t-.26.43q-.05.13-.05.27h2.13zM-1.03 8.01q.27.33.74.33.7-.02.93-.72.12-.35.12-.92 0-.48-.08-.76-.14-.57-.52-.78a1 1 0 0 0-.45-.1 1 1 0 0 0-.59.18q-.23.19-.35.54t-.11.92q0 .9.31 1.31m.3-2.4q.16-.23.43-.23.28 0 .46.26.19.27.19 1.06 0 .8-.19 1.06-.18.26-.45.26-.28 0-.46-.26-.19-.27-.19-1.06 0-.8.2-1.09M1.38 8.29h.45v-.45h-.45zM23.35-3.37l-.85-.22q-.18.82-.68 1.23t-1.21.41q-.59 0-1.1-.3-.5-.3-.74-.92-.24-.61-.24-1.43 0-.64.2-1.24t.7-.96 1.25-.35q.64 0 1.07.32.42.32.65 1.02l.84-.2q-.26-.89-.92-1.38-.66-.5-1.63-.5-.85 0-1.56.4-.7.39-1.1 1.14-.38.75-.38 1.75 0 .92.34 1.73t1 1.23 1.69.42q1 0 1.7-.55t.97-1.6M24.4 8.29V5.06h-.26q-.1.2-.35.43t-.58.37v.39q.19-.07.42-.2.23-.14.37-.28v2.52z"/><path d="M10.45 3.43v2.24h.4v-.92h19.3v.92h.4V3.43h-.4v.92h-19.3v-.92z"/><path d="M18.73 7.91h-1.58l.17-.21q.1-.11.46-.41.42-.36.6-.57.19-.2.27-.39t.08-.38q0-.38-.27-.64-.27-.25-.74-.25t-.73.23-.31.7l.4.04q0-.3.18-.48t.45-.17q.27 0 .44.16.17.17.17.4 0 .22-.18.48-.19.25-.71.68-.34.28-.52.49t-.26.43q-.05.13-.05.27h2.13z"/></g></svg>