<svg xmlns="http://www.w3.org/2000/svg" width="344.5" height="91.74" viewBox="-30.58 -7.91 61.16 16.29"><g stroke="none" stroke-linecap="round" stroke-width="0"><path d="M20.15 5.52h1.57q-.3.34-.56.84t-.41 1.04-.15.92h.4q.04-.48.15-.89.17-.57.47-1.11t.61-.87v-.31h-2.08zM22.84 8.32h.45v-.45h-.45zM-12.3 8.29h.46v-.45h-.45zM-16.34-1.33h.9l.72-1.95h2.7l.74 1.95h.97l-2.63-6.44h-.92zm1.86-2.64.71-1.9q.22-.6.35-1.22.15.52.45 1.33l.68 1.79zM-10.85 7.41l-.41.03q.04.41.31.66.28.24.72.24.54 0 .85-.39.25-.32.25-.75 0-.46-.29-.75-.29-.3-.7-.3-.33 0-.62.2l.18-.86h1.28V5.1h-1.6l-.31 1.66.37.04q.09-.13.24-.22t.35-.09q.3 0 .5.2.18.2.18.53 0 .36-.2.57-.2.22-.48.22-.23 0-.4-.15-.17-.16-.22-.46"/><path d="M-30.55 3.43v2.24h.4v-.92H3.51v.92h.4V3.43h-.4v.92h-33.66v-.92z"/><path d="m-17.12 7.39-.4.05q.04.4.32.65.28.26.7.26.48 0 .79-.3.3-.3.3-.71 0-.31-.15-.52-.16-.21-.45-.28a.7.7 0 0 0 .45-.65.82.82 0 0 0-.46-.72 1 1 0 0 0-.49-.12 1 1 0 0 0-.64.22q-.26.22-.33.62l.4.07c.05-.39.28-.58.58-.58q.23 0 .38.14t.15.36q0 .28-.2.4a1 1 0 0 1-.52.14l-.05.34q.17-.04.28-.04.28 0 .46.18t.17.45-.19.48q-.2.19-.47.19-.23 0-.4-.15-.16-.15-.23-.48M-13.75 8.29h.4v-.77h.43v-.37h-.43V5.07h-.33l-1.47 2.08v.37h1.4zm0-1.14h-1l1-1.45zM6.18-1.33h2.46q.61 0 1.04-.1.42-.11.7-.33.28-.2.48-.6.19-.38.19-.84 0-.56-.32-.97-.31-.42-.9-.59.46-.22.68-.59.22-.36.22-.77 0-.45-.25-.85-.25-.41-.7-.6-.44-.2-1.18-.2H6.18zm.85-3.73v-1.95h1.3q.68 0 .97.09.3.09.44.33.16.25.16.57 0 .68-.66.88-.25.08-.81.08zm0 2.97V-4.3h1.5q.6 0 .94.1.32.11.5.38.2.26.2.62 0 .31-.13.55-.13.23-.33.35-.2.13-.5.18-.16.03-.57.03zM11.1 5.89l.4-.03q-.06-.38-.3-.6-.24-.2-.62-.2-.51 0-.81.36-.35.43-.35 1.36 0 .84.31 1.2t.8.36q.3 0 .53-.13.23-.14.36-.4t.13-.57q0-.46-.28-.75t-.67-.29q-.23 0-.44.1t-.35.33q0-.48.12-.75.1-.26.29-.4.14-.1.33-.1.24 0 .4.17.1.1.15.34M9.88 7.25q0-.32.18-.5.19-.2.46-.2t.45.2q.17.18.17.52t-.18.55-.43.2q-.17 0-.32-.1-.16-.1-.25-.28t-.08-.4"/><path d="M4.3 3.43v2.24h.4v-.92h7.82v.92h.4V3.43h-.4v.92H4.71v-.92z"/><path d="M7.2 6.54q.48-.2.47-.64a.8.8 0 0 0-.26-.6 1 1 0 0 0-.67-.24q-.42 0-.68.23a.8.8 0 0 0-.25.6q0 .46.48.65-.29.08-.45.3-.16.2-.16.52 0 .42.3.7.29.28.76.28t.77-.28.3-.7q0-.29-.16-.5t-.45-.32m-.99-.67q0-.2.15-.34t.38-.15.37.15q.16.15.16.36t-.15.36q-.15.14-.38.14t-.38-.14-.15-.38M6.1 7.36q0-.28.18-.46.18-.19.46-.19t.48.2.19.46q0 .28-.19.47-.18.18-.46.18-.19 0-.34-.09t-.24-.24-.08-.33M8.41 8.29h.45v-.45h-.45zM24.78-3.37l-.85-.22q-.17.82-.67 1.23t-1.21.41q-.6 0-1.1-.3t-.74-.92q-.24-.61-.24-1.43 0-.64.2-1.24t.7-.96 1.24-.35q.65 0 1.07.32t.65 1.02l.84-.2q-.26-.89-.91-1.38-.66-.5-1.63-.5-.85 0-1.56.4-.71.39-1.1 1.14-.38.75-.38 1.75 0 .92.34 1.73t1 1.23q.64.42 1.69.42 1 0 1.7-.55t.96-1.6M25.95 7.94h-1.58q.07-.11.17-.22l.46-.4q.42-.36.6-.57.19-.2.27-.4.08-.18.08-.37 0-.38-.27-.64t-.74-.26-.73.24-.31.7l.4.04q0-.3.18-.48t.45-.17q.27 0 .44.16t.17.4q0 .22-.18.47-.19.26-.71.69-.34.27-.52.48t-.26.43q-.05.13-.05.28h2.13z"/><path d="M13.32 3.43v2.24h.4v-.92h16.43v.92h.4V3.43h-.4v.92H13.72v-.92z"/><path d="M19.1 8.32V5.08h-.25q-.1.21-.35.43-.25.23-.58.38v.38q.18-.06.42-.2t.37-.27v2.52z"/></g></svg>