<svg xmlns="http://www.w3.org/2000/svg" width="381.73" height="139.53" viewBox="-33.89 -12.39 67.77 24.77"><g stroke-linecap="round"><g stroke="none" stroke-width="0"><path d="M19.04 8.01q.26.33.73.33.7-.02.93-.72.12-.35.12-.92 0-.48-.07-.76-.14-.57-.53-.78a1 1 0 0 0-.45-.1 1 1 0 0 0-.59.18q-.23.19-.34.54t-.12.92q0 .9.32 1.31m.29-2.4q.16-.23.43-.23.28 0 .47.26.18.27.18 1.06 0 .8-.18 1.06-.19.26-.46.26t-.46-.26-.19-1.06q0-.8.2-1.09M-21.7 8.01q.27.33.73.33.71-.02.94-.72.12-.35.12-.92 0-.48-.08-.76-.14-.57-.52-.78a1 1 0 0 0-.46-.1 1 1 0 0 0-.58.18q-.23.19-.35.54t-.12.92q0 .9.32 1.31m.3-2.4q.16-.23.43-.23.28 0 .46.26.19.27.19 1.06 0 .8-.19 1.06-.18.26-.46.26-.27 0-.45-.26-.19-.27-.19-1.06 0-.8.2-1.09M-19.3 8.29h.46v-.45h-.45zM-23.38-1.33h.9l.71-1.95h2.7l.75 1.95h.97L-20-7.77h-.92zm1.86-2.64.7-1.9q.23-.6.35-1.22.15.52.46 1.33l.67 1.79zM-17 8.29h.4v-.77h.44v-.36h-.44v-2.1h-.32l-1.47 2.1v.36h1.4zm0-1.13H-18l1-1.46z"/><path d="M-30.55 3.43v2.24h.4v-.92h19.57v.92h.8v-.92H9.78v.92h.8v-.92h19.57v.92h.4V3.43h-.4v.92H10.58v-.92h-.8v.92H-9.78v-.92h-.8v.92h-19.57v-.92z"/><path d="M-22.44 7.91h-1.58l.17-.21q.1-.11.45-.41.43-.36.61-.57.19-.2.27-.39t.08-.38q0-.38-.27-.64-.27-.25-.74-.25t-.73.23-.31.7l.4.04q0-.3.18-.48t.45-.17q.27 0 .44.16.17.17.17.4 0 .22-.19.48-.18.25-.7.68-.34.28-.52.49t-.26.43q-.05.13-.05.27h2.13zM1.08 8.29h.45v-.45h-.45zM-2.43-1.33H.02q.62 0 1.04-.1t.7-.33q.29-.2.48-.6.2-.38.2-.84 0-.56-.32-.97-.32-.42-.9-.59.45-.22.68-.59.22-.36.22-.77 0-.45-.25-.85-.26-.41-.7-.6-.45-.2-1.19-.2h-2.41zm.85-3.73v-1.95h1.29q.7 0 .98.09t.44.33.15.57q0 .68-.65.88-.25.08-.82.08zm0 2.97V-4.3h1.49q.62 0 .94.1.33.11.51.38.19.26.19.62 0 .31-.13.55-.13.23-.32.35-.2.13-.5.18-.16.03-.58.03zM3.37 8.29h.4v-.77h.43v-.36h-.43v-2.1h-.33l-1.47 2.1v.36h1.4zm0-1.13h-1l1-1.46zM-2.07 7.91h-1.58q.06-.1.16-.21t.46-.41q.43-.36.61-.57t.26-.39.08-.38q0-.38-.27-.64-.27-.25-.73-.25t-.73.23q-.28.24-.32.7l.4.04q.01-.3.18-.48t.46-.17q.27 0 .44.16.17.17.17.4 0 .22-.19.48-.18.25-.7.68-.35.28-.53.49-.17.2-.26.43-.05.13-.04.27h2.13zM-1.33 8.01q.27.33.73.33.7-.02.94-.72.1-.35.11-.92 0-.48-.07-.76-.14-.57-.52-.78a1 1 0 0 0-.46-.1 1 1 0 0 0-.58.18q-.23.19-.35.54t-.12.92q0 .9.32 1.31m.3-2.4q.15-.23.43-.23.27 0 .46.26.19.27.19 1.06 0 .8-.19 1.06t-.46.26-.46-.26-.18-1.06q0-.8.2-1.09M21.44 8.29h.45v-.45h-.45zM23.21-3.37l-.85-.22q-.17.82-.67 1.23t-1.21.41q-.6 0-1.1-.3t-.74-.92q-.24-.61-.24-1.43 0-.64.2-1.24t.7-.96 1.24-.35q.65 0 1.07.32t.66 1.02l.83-.2q-.25-.89-.91-1.38-.66-.5-1.63-.5-.85 0-1.56.4-.71.39-1.1 1.14-.38.75-.38 1.75 0 .92.34 1.73t1 1.23 1.69.42q1 0 1.7-.55t.96-1.6M23.74 8.29h.4v-.77h.43v-.36h-.44v-2.1h-.32l-1.47 2.1v.36h1.4zm0-1.13h-1.01l1-1.46zM18.3 7.91H16.7l.17-.21q.1-.11.46-.41.42-.36.6-.57.2-.2.27-.39t.08-.38q0-.38-.27-.64-.27-.25-.73-.25t-.74.23-.31.7l.4.04q0-.3.18-.48t.46-.17q.27 0 .43.16.17.17.17.4 0 .22-.18.48-.19.25-.71.68-.34.28-.52.49t-.26.43q-.05.13-.05.27h2.13z"/></g><path fill="none" stroke="#000" stroke-width=".67" d="M-33.55-9.64V9.64a2.4 2.4 0 0 0 2.41 2.41h62.28a2.4 2.4 0 0 0 2.41-2.41V-9.64a2.4 2.4 0 0 0-2.41-2.41h-62.28a2.4 2.4 0 0 0-2.41 2.41"/></g></svg>