<?xml version='1.0' encoding='utf-8'?>
<svg width="92.23668mm" height="81.69mm" viewBox="-49.04168 -5.845 92.23668 81.69" version="1.1" xmlns="http://www.w3.org/2000/svg">
  <g transform="scale(1,-1)" stroke-linecap="round">
    <g fill="rgb(0,0,0)" stroke="rgb(0,0,0)" stroke-width="0.0" id="Shapes">
      <path d="M 43.15,-70.0 A 5.8,5.8 0.0 0,1 31.55,-70.0 A 5.8,5.8 0.0 0,1 43.15,-70.0 M 40.253681,-69.2286 L 40.6792,-69.2286 A 0.7714,0.7714 180.0 0,0 40.6792,-70.7714 L 40.253681,-70.7714 A 3.0043999999999995,3.0043999999999995 0.0 0,0 40.253618,-70.771634 A 0.8931999999999999,0.8931999999999999 -30.00000000000003 0,1 39.470064,-72.12879 A 3.0043999999999995,3.0043999999999995 0.0 0,0 39.469892,-72.128961 L 39.682652,-72.497472 A 0.7714000030490012,0.7714000030490012 119.99999999999999 0,0 38.346548,-73.268872 L 38.133788,-72.900361 A 3.0043999999999995,3.0043999999999995 0.0 0,0 38.133555,-72.900424 A 0.8931999999999999,0.8931999999999999 -90.00000000000001 0,1 36.566445,-72.900424 A 3.0043999999999995,3.0043999999999995 0.0 0,0 36.566212,-72.900361 L 36.353452,-73.268872 A 0.7714000030490014,0.7714000030490014 59.99999999999997 0,0 35.017348,-72.497472 L 35.230108,-72.128961 A 3.0043999999999995,3.0043999999999995 0.0 0,0 35.229936,-72.12879 A 0.8931999999999999,0.8931999999999999 -149.99999999999997 0,1 34.446382,-70.771634 A 3.0043999999999995,3.0043999999999995 0.0 0,0 34.446319,-70.7714 L 34.0208,-70.7714 A 0.7714,0.7714 0.0 0,0 34.0208,-69.2286 L 34.446319,-69.2286 A 3.0043999999999995,3.0043999999999995 0.0 0,0 34.446382,-69.228366 A 0.8931999999999999,0.8931999999999999 150.0 0,1 35.229936,-67.87121 A 3.0043999999999995,3.0043999999999995 0.0 0,0 35.230108,-67.871039 L 35.017348,-67.502528 A 0.7714000030490012,0.7714000030490012 -60.00000000000002 0,0 36.353452,-66.731128 L 36.566212,-67.099639 A 3.0043999999999995,3.0043999999999995 0.0 0,0 36.566445,-67.099576 A 0.8931999999999999,0.8931999999999999 90.0 0,1 38.133555,-67.099576 A 3.0043999999999995,3.0043999999999995 0.0 0,0 38.133788,-67.099639 L 38.346548,-66.731128 A 0.7714000030490014,0.7714000030490014 -120.00000000000004 0,0 39.682652,-67.502528 L 39.469892,-67.871039 A 3.0043999999999995,3.0043999999999995 0.0 0,0 39.470064,-67.87121 A 0.8931999999999999,0.8931999999999999 29.999999999999993 0,1 40.253618,-69.228366 A 3.0043999999999995,3.0043999999999995 0.0 0,0 40.253681,-69.2286" />
      <path d="M -34.199317,-0.402832 L -34.631445,-0.34668 C -34.66237,-0.566406 -34.735612,-0.729167 -34.851172,-0.834961 C -34.966732,-0.940755 -35.110775,-0.993652 -35.283301,-0.993652 C -35.498145,-0.993652 -35.672298,-0.914714 -35.805762,-0.756836 C -35.939225,-0.598958 -36.005957,-0.345866 -36.005957,0.002441 C -36.005957,0.345866 -35.936784,0.596924 -35.798438,0.755615 C -35.660091,0.914307 -35.480241,0.993652 -35.258887,0.993652 C -34.96897,0.993907 -34.746395,0.816803 -34.668067,0.46875 L -34.24082,0.534668 Q -34.316504,0.927734 -34.585059,1.141357 Q -34.853613,1.35498 -35.275977,1.35498 Q -35.610449,1.35498 -35.894873,1.19751 Q -36.179297,1.040039 -36.318457,0.725098 Q -36.457617,0.410156 -36.457617,-0.009766 Q -36.457617,-0.65918 -36.134131,-1.00708 Q -35.810645,-1.35498 -35.278418,-1.35498 Q -34.853613,-1.35498 -34.561865,-1.102295 Q -34.270117,-0.849609 -34.199317,-0.402832" />
      <path d="M -33.828223,-1.296387 L -33.38877,-1.296387 L -33.38877,0.061035 Q -33.38877,0.339355 -33.315527,0.57373 Q -33.266699,0.727539 -33.151953,0.814209 Q -33.037207,0.900879 -32.893164,0.900879 Q -32.732031,0.900879 -32.570899,0.805664 L -32.419531,1.213379 Q -32.649024,1.35498 -32.871192,1.35498 Q -33.025,1.35498 -33.153174,1.26709 Q -33.281348,1.179199 -33.432715,0.90332 L -33.432715,1.296387 L -33.828223,1.296387 L -33.828223,-1.296387" />
      <path d="M -31.921484,1.066895 Q -32.321875,0.720215 -32.321875,-0.0 Q -32.321875,-0.656738 -31.986182,-1.005859 Q -31.650488,-1.35498 -31.106055,-1.35498 Q -30.766699,-1.35498 -30.479834,-1.196289 Q -30.192969,-1.037598 -30.042822,-0.750732 Q -29.892676,-0.463867 -29.892676,0.036621 Q -29.892676,0.654297 -30.232031,1.004639 Q -30.571387,1.35498 -31.106055,1.35498 Q -31.587012,1.35498 -31.921484,1.066895 M -31.870215,0.0 Q -31.870215,0.498047 -31.65293,0.744629 Q -31.435645,0.991211 -31.106055,0.991211 Q -30.781348,0.991211 -30.562842,0.743408 Q -30.344336,0.495605 -30.344336,0.014648 Q -30.344336,-0.495605 -30.561621,-0.744629 Q -30.778906,-0.993652 -31.106055,-0.993652 Q -31.435645,-0.993652 -31.65293,-0.74585 Q -31.870215,-0.498047 -31.870215,0.0" />
      <path d="M -29.11875,-0.454102 L -29.55332,-0.522461 Q -29.480078,-0.935059 -29.215186,-1.14502 Q -28.950293,-1.35498 -28.444922,-1.35498 Q -28.139746,-1.35498 -27.898047,-1.248779 Q -27.656348,-1.142578 -27.528174,-0.948486 Q -27.4,-0.754395 -27.4,-0.534668 Q -27.4,-0.310059 -27.504981,-0.158691 Q -27.609961,-0.007324 -27.794287,0.072021 Q -27.978613,0.151367 -28.444922,0.275879 Q -28.767188,0.36377 -28.833106,0.388184 Q -28.947852,0.43457 -29.001563,0.505371 C -29.03737,0.550944 -29.055274,0.602214 -29.055274,0.65918 C -29.055274,0.748698 -29.012142,0.826823 -28.925879,0.893555 C -28.839616,0.960286 -28.695573,0.993652 -28.49375,0.993652 C -28.151445,0.996196 -27.966915,0.833231 -27.927344,0.568848 L -27.497656,0.627441 Q -27.53916,0.878906 -27.649024,1.029053 Q -27.758887,1.179199 -27.9896,1.26709 Q -28.220313,1.35498 -28.525488,1.35498 Q -28.728125,1.35498 -28.905127,1.30249 Q -29.082129,1.25 -29.184668,1.174316 C -29.364671,1.046651 -29.482367,0.836487 -29.480078,0.60791 C -29.480078,0.480957 -29.447933,0.36499 -29.383643,0.26001 C -29.319352,0.155029 -29.224951,0.072835 -29.10044,0.013428 C -28.975928,-0.04598 -28.752539,-0.116374 -28.430274,-0.197754 Q -28.071387,-0.288086 -27.981055,-0.34668 C -27.894792,-0.403646 -27.85166,-0.481771 -27.85166,-0.581055 C -27.85166,-0.691732 -27.900488,-0.788167 -27.998145,-0.870361 C -28.095801,-0.952555 -28.24554,-0.993652 -28.447363,-0.993652 C -28.848008,-0.995433 -29.069668,-0.800629 -29.11875,-0.454102" />
      <path d="M -26.61875,-0.454102 L -27.05332,-0.522461 Q -26.980078,-0.935059 -26.715186,-1.14502 Q -26.450293,-1.35498 -25.944922,-1.35498 Q -25.639746,-1.35498 -25.398047,-1.248779 Q -25.156348,-1.142578 -25.028174,-0.948486 Q -24.9,-0.754395 -24.9,-0.534668 Q -24.9,-0.310059 -25.004981,-0.158691 Q -25.109961,-0.007324 -25.294287,0.072021 Q -25.478613,0.151367 -25.944922,0.275879 Q -26.267188,0.36377 -26.333106,0.388184 Q -26.447852,0.43457 -26.501563,0.505371 C -26.53737,0.550944 -26.555274,0.602214 -26.555274,0.65918 C -26.555274,0.748698 -26.512142,0.826823 -26.425879,0.893555 C -26.339616,0.960286 -26.195573,0.993652 -25.99375,0.993652 C -25.651445,0.996196 -25.466915,0.833231 -25.427344,0.568848 L -24.997656,0.627441 Q -25.03916,0.878906 -25.149024,1.029053 Q -25.258887,1.179199 -25.4896,1.26709 Q -25.720313,1.35498 -26.025488,1.35498 Q -26.228125,1.35498 -26.405127,1.30249 Q -26.582129,1.25 -26.684668,1.174316 C -26.864671,1.046651 -26.982367,0.836487 -26.980078,0.60791 C -26.980078,0.480957 -26.947933,0.36499 -26.883643,0.26001 C -26.819352,0.155029 -26.724951,0.072835 -26.60044,0.013428 C -26.475928,-0.04598 -26.252539,-0.116374 -25.930274,-0.197754 Q -25.571387,-0.288086 -25.481055,-0.34668 C -25.394792,-0.403646 -25.35166,-0.481771 -25.35166,-0.581055 C -25.35166,-0.691732 -25.400488,-0.788167 -25.498145,-0.870361 C -25.595801,-0.952555 -25.74554,-0.993652 -25.947363,-0.993652 C -26.348008,-0.995433 -26.569668,-0.800629 -26.61875,-0.454102" />
      <path d="M -6.65,0.0 A 5.8,5.8 0.0 0,1 -18.25,0.0 A 5.8,5.8 0.0 0,1 -6.65,-0.0 M -13.262,-0.812 L -16.51,-0.812 L -16.51,0.812 L -13.262,0.812 L -13.262,4.06 L -11.638,4.06 L -11.638,0.812 L -8.39,0.812 L -8.39,-0.812 L -11.638,-0.812 L -11.638,-4.06 L -13.262,-4.06 L -13.262,-0.812" />
      <path d="M 22.473242,-1.760254 L 23.005469,-1.760254 L 23.686621,-0.737305 L 23.828223,-0.95459 L 24.360449,-1.760254 L 24.9,-1.760254 L 23.935644,-0.388184 L 24.831641,0.83252 L 24.306738,0.83252 L 23.869726,0.219727 Q 23.779394,0.095215 23.671973,-0.065918 Q 23.603613,0.05127 23.491308,0.224609 L 23.093359,0.83252 L 22.544043,0.83252 L 23.420508,-0.412598 L 22.473242,-1.760254" />
      <path d="M 17.204687,-1.760254 L 17.644141,-1.760254 L 17.644141,-0.341797 Q 17.644141,-0.036621 17.717383,0.136719 Q 17.790625,0.310059 17.962744,0.411377 Q 18.134863,0.512695 18.330176,0.512695 Q 18.591406,0.512695 18.734228,0.362549 Q 18.877051,0.212402 18.877051,-0.117187 M 18.877051,-0.117188 L 18.877051,-1.760254 L 19.316504,-1.760254 L 19.316504,-0.117188 M 19.316504,-0.117187 Q 19.316504,0.263672 19.224951,0.463867 Q 19.133398,0.664062 18.920996,0.777588 Q 18.708594,0.891113 18.420508,0.891113 Q 17.951758,0.891113 17.644141,0.534668 L 17.644141,1.818848 L 17.204687,1.818848 L 17.204687,-1.760254" />
      <path d="M 22.214453,-0.981445 L 21.760351,-0.925293 C 21.626888,-1.29893 21.399023,-1.454976 21.076758,-1.45752 C 20.860286,-1.45752 20.679622,-1.381836 20.534766,-1.230469 C 20.389909,-1.079102 20.309342,-0.861003 20.293066,-0.576172 L 22.22666,-0.576172 Q 22.229101,-0.498047 22.229101,-0.458984 Q 22.229101,0.183105 21.899512,0.537109 Q 21.569922,0.891113 21.049902,0.891113 Q 20.512793,0.891113 20.175879,0.529785 Q 19.838965,0.168457 19.838965,-0.48584 Q 19.838965,-1.118164 20.172217,-1.468506 Q 20.505469,-1.818848 21.074316,-1.818848 Q 21.525976,-1.818848 21.816504,-1.599121 Q 22.107031,-1.379395 22.214453,-0.981445 M 21.765234,-0.214844 L 20.31748,-0.214844 Q 20.339453,0.124512 20.545752,0.327148 Q 20.752051,0.529785 21.054785,0.529785 Q 21.389258,0.529785 21.599219,0.275879 Q 21.735937,0.112305 21.765234,-0.214844" />
      <path d="M 43.15,0.0 A 5.8,5.8 0.0 0,1 31.55,0.0 A 5.8,5.8 0.0 0,1 43.15,-0.0 M 39.38,3.516063 L 41.41,0.0 L 39.38,-3.516063 L 35.32,-3.516063 L 33.29,0.0 L 35.32,3.516063 L 39.38,3.516063" />
      <path d="M -31.889746,-15.292725 L -31.450293,-15.292725 L -31.450293,-11.713623 L -31.889746,-11.713623 L -31.889746,-15.292725" />
      <path d="M -30.766699,-15.292725 L -30.327246,-15.292725 L -30.327246,-12.699951 L -30.766699,-12.699951 L -30.766699,-15.292725" />
      <path d="M -30.766699,-12.218994 L -30.327246,-12.218994 L -30.327246,-11.713623 L -30.766699,-11.713623 L -30.766699,-12.218994" />
      <path d="M -29.658301,-16.286377 L -29.218848,-16.286377 L -29.218848,-15.02417 Q -29.106543,-15.165771 -28.931983,-15.258545 Q -28.757422,-15.351318 -28.537695,-15.351318 Q -28.237402,-15.351318 -27.965186,-15.181641 Q -27.692969,-15.011963 -27.550147,-14.693359 Q -27.407324,-14.374756 -27.407324,-13.976807 Q -27.407324,-13.605713 -27.536719,-13.294434 Q -27.666113,-12.983154 -27.92002,-12.812256 Q -28.173926,-12.641357 -28.505957,-12.641357 Q -28.759863,-12.641357 -28.938086,-12.740234 Q -29.116309,-12.839111 -29.25791,-13.036865 L -29.25791,-12.699951 L -29.658301,-12.699951 L -29.658301,-16.286377 M -29.260352,-14.010986 Q -29.260352,-13.510498 -29.044287,-13.248047 Q -28.828223,-12.985596 -28.547461,-12.985596 Q -28.264258,-12.985596 -28.0604,-13.232178 Q -27.856543,-13.47876 -27.856543,-13.974365 Q -27.856543,-14.494385 -28.065283,-14.742188 Q -28.274024,-14.98999 -28.566992,-14.98999 Q -28.855078,-14.98999 -29.057715,-14.750732 Q -29.260352,-14.511475 -29.260352,-14.010986" />
      <path d="M -26.61875,-14.450439 L -27.05332,-14.518799 Q -26.980078,-14.931396 -26.715186,-15.141357 Q -26.450293,-15.351318 -25.944922,-15.351318 Q -25.639746,-15.351318 -25.398047,-15.245117 Q -25.156348,-15.138916 -25.028174,-14.944824 Q -24.9,-14.750732 -24.9,-14.531006 Q -24.9,-14.306396 -25.004981,-14.155029 Q -25.109961,-14.003662 -25.294287,-13.924316 Q -25.478613,-13.844971 -25.944922,-13.720459 Q -26.267188,-13.632568 -26.333106,-13.608154 Q -26.447852,-13.561768 -26.501563,-13.490967 C -26.53737,-13.445394 -26.555274,-13.394124 -26.555274,-13.337158 C -26.555274,-13.24764 -26.512142,-13.169515 -26.425879,-13.102783 C -26.339616,-13.036051 -26.195573,-13.002686 -25.99375,-13.002686 C -25.651445,-13.000142 -25.466915,-13.163106 -25.427344,-13.42749 L -24.997656,-13.368896 Q -25.03916,-13.117432 -25.149024,-12.967285 Q -25.258887,-12.817139 -25.4896,-12.729248 Q -25.720313,-12.641357 -26.025488,-12.641357 Q -26.228125,-12.641357 -26.405127,-12.693848 Q -26.582129,-12.746338 -26.684668,-12.822021 C -26.864671,-12.949687 -26.982367,-13.159851 -26.980078,-13.388428 C -26.980078,-13.515381 -26.947933,-13.631348 -26.883643,-13.736328 C -26.819352,-13.841309 -26.724951,-13.923503 -26.60044,-13.98291 C -26.475928,-14.042318 -26.252539,-14.112712 -25.930274,-14.194092 Q -25.571387,-14.284424 -25.481055,-14.343018 C -25.394792,-14.399984 -25.35166,-14.478109 -25.35166,-14.577393 C -25.35166,-14.68807 -25.400488,-14.784505 -25.498145,-14.866699 C -25.595801,-14.948893 -25.74554,-14.98999 -25.947363,-14.98999 C -26.348008,-14.991771 -26.569668,-14.796966 -26.61875,-14.450439" />
      <path d="M -39.663184,-16.286377 L -39.223731,-16.286377 L -39.223731,-15.02417 Q -39.111426,-15.165771 -38.936865,-15.258545 Q -38.762305,-15.351318 -38.542578,-15.351318 Q -38.242285,-15.351318 -37.970068,-15.181641 Q -37.697852,-15.011963 -37.555029,-14.693359 Q -37.412207,-14.374756 -37.412207,-13.976807 Q -37.412207,-13.605713 -37.541602,-13.294434 Q -37.670996,-12.983154 -37.924902,-12.812256 Q -38.178809,-12.641357 -38.51084,-12.641357 Q -38.764746,-12.641357 -38.942969,-12.740234 Q -39.121192,-12.839111 -39.262793,-13.036865 L -39.262793,-12.699951 L -39.663184,-12.699951 L -39.663184,-16.286377 M -39.265234,-14.010986 Q -39.265234,-13.510498 -39.04917,-13.248047 Q -38.833106,-12.985596 -38.552344,-12.985596 Q -38.269141,-12.985596 -38.065283,-13.232178 Q -37.861426,-13.47876 -37.861426,-13.974365 Q -37.861426,-14.494385 -38.070166,-14.742188 Q -38.278906,-14.98999 -38.571875,-14.98999 Q -38.859961,-14.98999 -39.062598,-14.750732 Q -39.265234,-14.511475 -39.265234,-14.010986" />
      <path d="M -36.882422,-15.292725 L -36.442969,-15.292725 L -36.442969,-13.874268 Q -36.442969,-13.569092 -36.369727,-13.395752 Q -36.296484,-13.222412 -36.124365,-13.121094 Q -35.952246,-13.019775 -35.756934,-13.019775 Q -35.495703,-13.019775 -35.352881,-13.169922 Q -35.210059,-13.320068 -35.210059,-13.649658 L -35.210059,-15.292725 L -34.770606,-15.292725 L -34.770606,-13.649658 Q -34.770606,-13.268799 -34.862158,-13.068604 Q -34.953711,-12.868408 -35.166113,-12.754883 Q -35.378516,-12.641357 -35.666602,-12.641357 Q -36.135352,-12.641357 -36.442969,-12.997803 L -36.442969,-11.713623 L -36.882422,-11.713623 L -36.882422,-15.292725" />
      <path d="M -34.099219,-15.292725 L -33.659766,-15.292725 L -33.659766,-12.699951 L -34.099219,-12.699951 L -34.099219,-15.292725" />
      <path d="M -34.099219,-12.218994 L -33.659766,-12.218994 L -33.659766,-11.713623 L -34.099219,-11.713623 L -34.099219,-12.218994" />
      <path d="M -33.000586,-15.292725 L -32.561133,-15.292725 L -32.561133,-11.713623 L -33.000586,-11.713623 L -33.000586,-15.292725" />
      <path d="M -6.65,-14.0 A 5.8,5.8 0.0 0,1 -18.25,-14.0 A 5.8,5.8 0.0 0,1 -6.65,-14.0 M -13.934683,-14.812 L -16.51,-14.812 L -16.51,-13.188 L -13.934683,-13.188 L -13.262,-12.515317 L -13.262,-9.94 L -11.638,-9.94 L -11.638,-12.515317 L -10.965317,-13.188 L -8.39,-13.188 L -8.39,-14.812 L -10.965317,-14.812 L -11.638,-15.484683 L -11.638,-18.06 L -13.262,-18.06 L -13.262,-15.484683 L -13.934683,-14.812" />
      <path d="M 17.744238,-14.450439 L 17.309668,-14.518799 Q 17.38291,-14.931396 17.647803,-15.141357 Q 17.912695,-15.351318 18.418066,-15.351318 Q 18.723242,-15.351318 18.964941,-15.245117 Q 19.206641,-15.138916 19.334814,-14.944824 Q 19.462988,-14.750732 19.462988,-14.531006 Q 19.462988,-14.306396 19.358008,-14.155029 Q 19.253027,-14.003662 19.068701,-13.924316 Q 18.884375,-13.844971 18.418066,-13.720459 Q 18.095801,-13.632568 18.029883,-13.608154 Q 17.915137,-13.561768 17.861426,-13.490967 C 17.825618,-13.445394 17.807715,-13.394124 17.807715,-13.337158 C 17.807715,-13.24764 17.850846,-13.169515 17.937109,-13.102783 C 18.023372,-13.036051 18.167415,-13.002686 18.369238,-13.002686 C 18.711544,-13.000142 18.896073,-13.163106 18.935644,-13.42749 L 19.365332,-13.368896 Q 19.323828,-13.117432 19.213965,-12.967285 Q 19.104101,-12.817139 18.873389,-12.729248 Q 18.642676,-12.641357 18.3375,-12.641357 Q 18.134863,-12.641357 17.957861,-12.693848 Q 17.780859,-12.746338 17.67832,-12.822021 C 17.498318,-12.949687 17.380621,-13.159851 17.38291,-13.388428 C 17.38291,-13.515381 17.415055,-13.631348 17.479346,-13.736328 C 17.543636,-13.841309 17.638037,-13.923503 17.762549,-13.98291 C 17.88706,-14.042318 18.110449,-14.112712 18.432715,-14.194092 Q 18.791601,-14.284424 18.881933,-14.343018 C 18.968197,-14.399984 19.011328,-14.478109 19.011328,-14.577393 C 19.011328,-14.68807 18.9625,-14.784505 18.864844,-14.866699 C 18.767187,-14.948893 18.617448,-14.98999 18.415625,-14.98999 C 18.01498,-14.991771 17.793321,-14.796966 17.744238,-14.450439" />
      <path d="M 19.975683,-15.292725 L 20.415137,-15.292725 L 20.415137,-11.713623 L 19.975683,-11.713623 L 19.975683,-15.292725" />
      <path d="M 21.333105,-12.929443 Q 20.932715,-13.276123 20.932715,-13.996338 Q 20.932715,-14.653076 21.268408,-15.002197 Q 21.604101,-15.351318 22.148535,-15.351318 Q 22.487891,-15.351318 22.774756,-15.192627 Q 23.061621,-15.033936 23.211767,-14.74707 Q 23.361914,-14.460205 23.361914,-13.959717 Q 23.361914,-13.342041 23.022558,-12.991699 Q 22.683203,-12.641357 22.148535,-12.641357 Q 21.667578,-12.641357 21.333105,-12.929443 M 21.384375,-13.996338 Q 21.384375,-13.498291 21.60166,-13.251709 Q 21.818945,-13.005127 22.148535,-13.005127 Q 22.473242,-13.005127 22.691748,-13.25293 Q 22.910254,-13.500732 22.910254,-13.981689 Q 22.910254,-14.491943 22.692969,-14.740967 Q 22.475683,-14.98999 22.148535,-14.98999 Q 21.818945,-14.98999 21.60166,-14.742188 Q 21.384375,-14.494385 21.384375,-13.996338" />
      <path d="M 24.9,-15.287842 L 24.836523,-14.899658 Q 24.716894,-14.916748 24.643652,-14.916748 Q 24.545996,-14.916748 24.493506,-14.88501 Q 24.441016,-14.853271 24.417822,-14.799561 Q 24.394629,-14.74585 24.394629,-14.557861 L 24.394629,-13.041748 L 24.836523,-13.041748 L 24.836523,-12.699951 L 24.394629,-12.699951 L 24.394629,-11.794189 L 23.957617,-12.057861 L 23.957617,-12.699951 L 23.635351,-12.699951 L 23.635351,-13.041748 L 23.957617,-13.041748 L 23.957617,-14.533447 C 23.957617,-14.797119 23.975521,-14.970052 24.011328,-15.052246 C 24.047135,-15.13444 24.108984,-15.200765 24.196875,-15.251221 C 24.33826,-15.329764 24.574225,-15.356092 24.9,-15.287842" />
      <path d="M 2.199805,-16.286377 L 2.639258,-16.286377 L 2.639258,-15.02417 Q 2.751562,-15.165771 2.926123,-15.258545 Q 3.100683,-15.351318 3.32041,-15.351318 Q 3.620703,-15.351318 3.89292,-15.181641 Q 4.165137,-15.011963 4.307959,-14.693359 Q 4.450781,-14.374756 4.450781,-13.976807 Q 4.450781,-13.605713 4.321387,-13.294434 Q 4.191992,-12.983154 3.938086,-12.812256 Q 3.68418,-12.641357 3.352148,-12.641357 Q 3.098242,-12.641357 2.920019,-12.740234 Q 2.741797,-12.839111 2.600195,-13.036865 L 2.600195,-12.699951 L 2.199805,-12.699951 L 2.199805,-16.286377 M 2.597754,-14.010986 Q 2.597754,-13.510498 2.813818,-13.248047 Q 3.029883,-12.985596 3.310644,-12.985596 Q 3.593848,-12.985596 3.797705,-13.232178 Q 4.001562,-13.47876 4.001562,-13.974365 Q 4.001562,-14.494385 3.792822,-14.742188 Q 3.584082,-14.98999 3.291113,-14.98999 Q 3.003027,-14.98999 2.800391,-14.750732 Q 2.597754,-14.511475 2.597754,-14.010986" />
      <path d="M 4.980566,-15.292725 L 5.420019,-15.292725 L 5.420019,-13.874268 Q 5.420019,-13.569092 5.493262,-13.395752 Q 5.566504,-13.222412 5.738623,-13.121094 Q 5.910742,-13.019775 6.106055,-13.019775 Q 6.367285,-13.019775 6.510107,-13.169922 Q 6.65293,-13.320068 6.65293,-13.649658 L 6.65293,-15.292725 L 7.092383,-15.292725 L 7.092383,-13.649658 Q 7.092383,-13.268799 7.00083,-13.068604 Q 6.909277,-12.868408 6.696875,-12.754883 Q 6.484473,-12.641357 6.196387,-12.641357 Q 5.727637,-12.641357 5.420019,-12.997803 L 5.420019,-11.713623 L 4.980566,-11.713623 L 4.980566,-15.292725" />
      <path d="M 7.763769,-15.292725 L 8.203223,-15.292725 L 8.203223,-12.699951 L 7.763769,-12.699951 L 7.763769,-15.292725" />
      <path d="M 7.763769,-12.218994 L 8.203223,-12.218994 L 8.203223,-11.713623 L 7.763769,-11.713623 L 7.763769,-12.218994" />
      <path d="M 8.862402,-15.292725 L 9.301855,-15.292725 L 9.301855,-11.713623 L 8.862402,-11.713623 L 8.862402,-15.292725" />
      <path d="M 9.973242,-15.292725 L 10.412695,-15.292725 L 10.412695,-11.713623 L 9.973242,-11.713623 L 9.973242,-15.292725" />
      <path d="M 11.096289,-15.292725 L 11.535742,-15.292725 L 11.535742,-12.699951 L 11.096289,-12.699951 L 11.096289,-15.292725" />
      <path d="M 11.096289,-12.218994 L 11.535742,-12.218994 L 11.535742,-11.713623 L 11.096289,-11.713623 L 11.096289,-12.218994" />
      <path d="M 12.204687,-16.286377 L 12.644141,-16.286377 L 12.644141,-15.02417 Q 12.756445,-15.165771 12.931006,-15.258545 Q 13.105566,-15.351318 13.325293,-15.351318 Q 13.625586,-15.351318 13.897803,-15.181641 Q 14.170019,-15.011963 14.312842,-14.693359 Q 14.455664,-14.374756 14.455664,-13.976807 Q 14.455664,-13.605713 14.326269,-13.294434 Q 14.196875,-12.983154 13.942969,-12.812256 Q 13.689062,-12.641357 13.357031,-12.641357 Q 13.103125,-12.641357 12.924902,-12.740234 Q 12.74668,-12.839111 12.605078,-13.036865 L 12.605078,-12.699951 L 12.204687,-12.699951 L 12.204687,-16.286377 M 12.602637,-14.010986 Q 12.602637,-13.510498 12.818701,-13.248047 Q 13.034766,-12.985596 13.315527,-12.985596 Q 13.59873,-12.985596 13.802588,-13.232178 Q 14.006445,-13.47876 14.006445,-13.974365 Q 14.006445,-14.494385 13.797705,-14.742188 Q 13.588965,-14.98999 13.295996,-14.98999 Q 13.00791,-14.98999 12.805273,-14.750732 Q 12.602637,-14.511475 12.602637,-14.010986" />
      <path d="M 15.244238,-14.450439 L 14.809668,-14.518799 Q 14.88291,-14.931396 15.147803,-15.141357 Q 15.412695,-15.351318 15.918066,-15.351318 Q 16.223242,-15.351318 16.464941,-15.245117 Q 16.706641,-15.138916 16.834814,-14.944824 Q 16.962988,-14.750732 16.962988,-14.531006 Q 16.962988,-14.306396 16.858008,-14.155029 Q 16.753027,-14.003662 16.568701,-13.924316 Q 16.384375,-13.844971 15.918066,-13.720459 Q 15.595801,-13.632568 15.529883,-13.608154 Q 15.415137,-13.561768 15.361426,-13.490967 C 15.325618,-13.445394 15.307715,-13.394124 15.307715,-13.337158 C 15.307715,-13.24764 15.350846,-13.169515 15.437109,-13.102783 C 15.523372,-13.036051 15.667415,-13.002686 15.869238,-13.002686 C 16.211544,-13.000142 16.396073,-13.163106 16.435644,-13.42749 L 16.865332,-13.368896 Q 16.823828,-13.117432 16.713965,-12.967285 Q 16.604101,-12.817139 16.373389,-12.729248 Q 16.142676,-12.641357 15.8375,-12.641357 Q 15.634863,-12.641357 15.457861,-12.693848 Q 15.280859,-12.746338 15.17832,-12.822021 C 14.998318,-12.949687 14.880621,-13.159851 14.88291,-13.388428 C 14.88291,-13.515381 14.915055,-13.631348 14.979346,-13.736328 C 15.043636,-13.841309 15.138037,-13.923503 15.262549,-13.98291 C 15.38706,-14.042318 15.610449,-14.112712 15.932715,-14.194092 Q 16.291601,-14.284424 16.381933,-14.343018 C 16.468197,-14.399984 16.511328,-14.478109 16.511328,-14.577393 C 16.511328,-14.68807 16.4625,-14.784505 16.364844,-14.866699 C 16.267187,-14.948893 16.117448,-14.98999 15.915625,-14.98999 C 15.51498,-14.991771 15.293321,-14.796966 15.244238,-14.450439" />
      <path d="M 31.607121,-14.812 A 5.8,5.8 0.0 0,1 43.092879,-14.812 L 38.834683,-14.812 L 38.162,-15.484683 L 38.162,-18.06 L 36.538,-18.06 L 36.538,-15.484683 L 35.865317,-14.812 L 31.607121,-14.812" />
      <path d="M 38.834683,-13.188 L 43.092879,-13.188 A 5.8,5.8 0.0 0,1 31.607121,-13.188 L 35.865317,-13.188 L 36.538,-12.515317 L 36.538,-9.94 L 38.162,-9.94 L 38.162,-12.515317 L 38.834683,-13.188" />
      <path d="M -32.424414,-29.292725 L -31.984961,-29.292725 L -31.984961,-27.935303 Q -31.984961,-27.656982 -31.911719,-27.422607 Q -31.862891,-27.268799 -31.748145,-27.182129 Q -31.633399,-27.095459 -31.489356,-27.095459 Q -31.328223,-27.095459 -31.16709,-27.190674 L -31.015723,-26.782959 Q -31.245215,-26.641357 -31.467383,-26.641357 Q -31.621192,-26.641357 -31.749365,-26.729248 Q -31.877539,-26.817139 -32.028906,-27.093018 L -32.028906,-26.699951 L -32.424414,-26.699951 L -32.424414,-29.292725" />
      <path d="M -30.752051,-26.218994 L -30.312598,-26.218994 L -30.312598,-25.713623 L -30.752051,-25.713623 L -30.752051,-26.218994" />
      <path d="M -30.752051,-29.292725 L -30.312598,-29.292725 L -30.312598,-26.699951 L -30.752051,-26.699951 L -30.752051,-29.292725" />
      <path d="M -28.923438,-29.292725 L -28.513281,-29.292725 L -27.531836,-26.699951 L -27.983496,-26.699951 L -28.559668,-28.281982 Q -28.664649,-28.570068 -28.723242,-28.775146 Q -28.798926,-28.50415 -28.889258,-28.252686 L -29.445899,-26.699951 L -29.909766,-26.699951 L -28.923438,-29.292725" />
      <path d="M -24.914649,-28.513916 L -25.36875,-28.457764 C -25.502214,-28.831401 -25.730078,-28.987447 -26.052344,-28.98999 C -26.268815,-28.98999 -26.449479,-28.914307 -26.594336,-28.762939 C -26.739193,-28.611572 -26.819759,-28.393473 -26.836035,-28.108643 L -24.902442,-28.108643 Q -24.9,-28.030518 -24.9,-27.991455 Q -24.9,-27.349365 -25.22959,-26.995361 Q -25.55918,-26.641357 -26.079199,-26.641357 Q -26.616309,-26.641357 -26.953223,-27.002686 Q -27.290137,-27.364014 -27.290137,-28.018311 Q -27.290137,-28.650635 -26.956885,-29.000977 Q -26.623633,-29.351318 -26.054785,-29.351318 Q -25.603125,-29.351318 -25.312598,-29.131592 Q -25.02207,-28.911865 -24.914649,-28.513916 M -25.363867,-27.747314 L -26.811621,-27.747314 Q -26.789649,-27.407959 -26.58335,-27.205322 Q -26.377051,-27.002686 -26.074317,-27.002686 Q -25.739844,-27.002686 -25.529883,-27.256592 Q -25.393164,-27.420166 -25.363867,-27.747314" />
      <path d="M -44.372656,-30.286377 L -43.933203,-30.286377 L -43.933203,-29.02417 Q -43.820899,-29.165771 -43.646338,-29.258545 Q -43.471777,-29.351318 -43.252051,-29.351318 Q -42.951758,-29.351318 -42.679541,-29.181641 Q -42.407324,-29.011963 -42.264502,-28.693359 Q -42.12168,-28.374756 -42.12168,-27.976807 Q -42.12168,-27.605713 -42.251074,-27.294434 Q -42.380469,-26.983154 -42.634375,-26.812256 Q -42.888281,-26.641357 -43.220313,-26.641357 Q -43.474219,-26.641357 -43.652442,-26.740234 Q -43.830664,-26.839111 -43.972266,-27.036865 L -43.972266,-26.699951 L -44.372656,-26.699951 L -44.372656,-30.286377 M -43.974707,-28.010986 Q -43.974707,-27.510498 -43.758643,-27.248047 Q -43.542578,-26.985596 -43.261817,-26.985596 Q -42.978613,-26.985596 -42.774756,-27.232178 Q -42.570899,-27.47876 -42.570899,-27.974365 Q -42.570899,-28.494385 -42.779639,-28.742188 Q -42.988379,-28.98999 -43.281348,-28.98999 Q -43.569434,-28.98999 -43.77207,-28.750732 Q -43.974707,-28.511475 -43.974707,-28.010986" />
      <path d="M -41.355078,-26.929443 Q -41.755469,-27.276123 -41.755469,-27.996338 Q -41.755469,-28.653076 -41.419775,-29.002197 Q -41.084082,-29.351318 -40.539649,-29.351318 Q -40.200293,-29.351318 -39.913428,-29.192627 Q -39.626563,-29.033936 -39.476416,-28.74707 Q -39.32627,-28.460205 -39.32627,-27.959717 Q -39.32627,-27.342041 -39.665625,-26.991699 Q -40.004981,-26.641357 -40.539649,-26.641357 Q -41.020606,-26.641357 -41.355078,-26.929443 M -41.303809,-27.996338 Q -41.303809,-27.498291 -41.086524,-27.251709 Q -40.869238,-27.005127 -40.539649,-27.005127 Q -40.214942,-27.005127 -39.996436,-27.25293 Q -39.77793,-27.500732 -39.77793,-27.981689 Q -39.77793,-28.491943 -39.995215,-28.740967 Q -40.2125,-28.98999 -40.539649,-28.98999 Q -40.869238,-28.98999 -41.086524,-28.742188 Q -41.303809,-28.494385 -41.303809,-27.996338" />
      <path d="M -39.043067,-29.292725 L -36.748145,-29.292725 L -36.748145,-28.914307 L -37.946875,-28.914307 Q -38.205664,-28.914307 -38.501074,-28.936279 L -38.230078,-28.635986 L -36.82627,-26.990479 L -36.82627,-26.699951 L -38.94541,-26.699951 L -38.94541,-27.056396 L -37.888281,-27.056396 Q -37.673438,-27.056396 -37.392676,-27.041748 L -39.043067,-28.936279 L -39.043067,-29.292725" />
      <path d="M -36.308692,-26.218994 L -35.869238,-26.218994 L -35.869238,-25.713623 L -36.308692,-25.713623 L -36.308692,-26.218994" />
      <path d="M -36.308692,-29.292725 L -35.869238,-29.292725 L -35.869238,-26.699951 L -36.308692,-26.699951 L -36.308692,-29.292725" />
      <path d="M -33.518164,-29.292725 L -33.110449,-29.292725 L -33.110449,-25.713623 L -33.547461,-25.713623 L -33.547461,-26.997803 Q -33.662207,-26.839111 -33.845313,-26.740234 Q -34.028418,-26.641357 -34.262793,-26.641357 Q -34.582617,-26.641357 -34.841406,-26.809814 Q -35.100195,-26.978271 -35.22959,-27.294434 Q -35.358984,-27.610596 -35.358984,-27.998779 Q -35.358984,-28.396729 -35.216162,-28.703125 Q -35.07334,-29.009521 -34.81333,-29.18042 Q -34.55332,-29.351318 -34.243262,-29.351318 Q -33.764746,-29.351318 -33.518164,-28.965576 L -33.518164,-29.292725 M -34.907324,-27.998779 Q -34.907324,-27.483643 -34.710791,-27.244385 Q -34.514258,-27.005127 -34.221289,-27.005127 Q -33.920996,-27.005127 -33.715918,-27.25415 Q -33.51084,-27.503174 -33.51084,-28.0354 Q -33.51084,-28.518799 -33.712256,-28.754395 Q -33.913672,-28.98999 -34.201758,-28.98999 Q -34.487402,-28.98999 -34.697363,-28.743408 Q -34.907324,-28.496826 -34.907324,-27.998779" />
      <path d="M -6.65,-28.0 A 5.8,5.8 0.0 0,1 -18.25,-28.0 A 5.8,5.8 0.0 0,1 -6.65,-28.0 M -13.934683,-28.812 L -16.51,-28.812 L -16.51,-27.188 L -13.934683,-27.188 L -13.885427,-27.138744 L -15.607939,-25.416232 L -15.033768,-24.842061 L -13.311256,-26.564573 L -13.262,-26.515317 L -13.262,-23.94 L -11.638,-23.94 L -11.638,-26.515317 L -11.588744,-26.564573 L -9.866232,-24.842061 L -9.292061,-25.416232 L -11.014573,-27.138744 L -10.965317,-27.188 L -8.39,-27.188 L -8.39,-28.812 L -10.965317,-28.812 L -11.014573,-28.861256 L -9.292061,-30.583768 L -9.866232,-31.157939 L -11.588744,-29.435427 L -11.638,-29.484683 L -11.638,-32.06 L -13.262,-32.06 L -13.262,-29.484683 L -13.311256,-29.435427 L -15.033768,-31.157939 L -15.607939,-30.583768 L -13.885427,-28.861256 L -13.934683,-28.812" />
      <path d="M 17.744238,-28.917969 L 17.309668,-28.986328 Q 17.38291,-29.398926 17.647803,-29.608887 Q 17.912695,-29.818848 18.418066,-29.818848 Q 18.723242,-29.818848 18.964941,-29.712646 Q 19.206641,-29.606445 19.334814,-29.412353 Q 19.462988,-29.218262 19.462988,-28.998535 Q 19.462988,-28.773926 19.358008,-28.622559 Q 19.253027,-28.471191 19.068701,-28.391846 Q 18.884375,-28.3125 18.418066,-28.187988 Q 18.095801,-28.100098 18.029883,-28.075684 Q 17.915137,-28.029297 17.861426,-27.958496 C 17.825618,-27.912923 17.807715,-27.861654 17.807715,-27.804687 C 17.807715,-27.715169 17.850846,-27.637044 17.937109,-27.570312 C 18.023372,-27.503581 18.167415,-27.470215 18.369238,-27.470215 C 18.711544,-27.467671 18.896073,-27.630636 18.935644,-27.895019 L 19.365332,-27.836426 Q 19.323828,-27.584961 19.213965,-27.434814 Q 19.104101,-27.284668 18.873389,-27.196777 Q 18.642676,-27.108887 18.3375,-27.108887 Q 18.134863,-27.108887 17.957861,-27.161377 Q 17.780859,-27.213867 17.67832,-27.289551 C 17.498318,-27.417216 17.380621,-27.62738 17.38291,-27.855957 C 17.38291,-27.98291 17.415055,-28.098877 17.479346,-28.203857 C 17.543636,-28.308838 17.638037,-28.391032 17.762549,-28.450439 C 17.88706,-28.509847 18.110449,-28.580241 18.432715,-28.661621 Q 18.791601,-28.751953 18.881933,-28.810547 C 18.968197,-28.867513 19.011328,-28.945638 19.011328,-29.044922 C 19.011328,-29.155599 18.9625,-29.252034 18.864844,-29.334228 C 18.767187,-29.416422 18.617448,-29.457519 18.415625,-29.457519 C 18.01498,-29.4593 17.793321,-29.264496 17.744238,-28.917969" />
      <path d="M 19.975683,-29.760254 L 20.415137,-29.760254 L 20.415137,-26.181152 L 19.975683,-26.181152 L 19.975683,-29.760254" />
      <path d="M 21.333105,-27.396973 Q 20.932715,-27.743652 20.932715,-28.463867 Q 20.932715,-29.120605 21.268408,-29.469727 Q 21.604101,-29.818848 22.148535,-29.818848 Q 22.487891,-29.818848 22.774756,-29.660156 Q 23.061621,-29.501465 23.211767,-29.2146 Q 23.361914,-28.927734 23.361914,-28.427246 Q 23.361914,-27.80957 23.022558,-27.459228 Q 22.683203,-27.108887 22.148535,-27.108887 Q 21.667578,-27.108887 21.333105,-27.396973 M 21.384375,-28.463867 Q 21.384375,-27.96582 21.60166,-27.719238 Q 21.818945,-27.472656 22.148535,-27.472656 Q 22.473242,-27.472656 22.691748,-27.720459 Q 22.910254,-27.968262 22.910254,-28.449219 Q 22.910254,-28.959473 22.692969,-29.208496 Q 22.475683,-29.457519 22.148535,-29.457519 Q 21.818945,-29.457519 21.60166,-29.209717 Q 21.384375,-28.961914 21.384375,-28.463867" />
      <path d="M 24.9,-29.755371 L 24.836523,-29.367187 Q 24.716894,-29.384277 24.643652,-29.384277 Q 24.545996,-29.384277 24.493506,-29.352539 Q 24.441016,-29.320801 24.417822,-29.26709 Q 24.394629,-29.213379 24.394629,-29.025391 L 24.394629,-27.509277 L 24.836523,-27.509277 L 24.836523,-27.16748 L 24.394629,-27.16748 L 24.394629,-26.261719 L 23.957617,-26.525391 L 23.957617,-27.16748 L 23.635351,-27.16748 L 23.635351,-27.509277 L 23.957617,-27.509277 L 23.957617,-29.000977 C 23.957617,-29.264648 23.975521,-29.437581 24.011328,-29.519775 C 24.047135,-29.601969 24.108984,-29.668294 24.196875,-29.71875 C 24.33826,-29.797293 24.574225,-29.823622 24.9,-29.755371" />
      <path d="M 31.607121,-28.812 A 5.8,5.8 0.0 0,1 43.092879,-28.812 L 31.607121,-28.812" />
      <path d="M 31.607121,-27.188 L 43.092879,-27.188 A 5.8,5.8 0.0 0,1 31.607121,-27.188" />
      <path d="M -35.498145,-43.82251 L -35.058692,-43.82251 L -35.058692,-40.236084 L -35.454199,-40.236084 L -35.454199,-40.582764 Q -35.730078,-40.17749 -36.211035,-40.17749 Q -36.518652,-40.17749 -36.776221,-40.337402 Q -37.033789,-40.497314 -37.169287,-40.807373 Q -37.304785,-41.117432 -37.304785,-41.508057 Q -37.304785,-42.150146 -36.971533,-42.518799 Q -36.638281,-42.887451 -36.176856,-42.887451 Q -35.969336,-42.887451 -35.78501,-42.792236 Q -35.600684,-42.697021 -35.498145,-42.552979 L -35.498145,-43.82251 M -36.853125,-41.525146 Q -36.853125,-41.01001 -36.65415,-40.76709 Q -36.455176,-40.52417 -36.169531,-40.52417 Q -35.881445,-40.52417 -35.667822,-40.7854 Q -35.454199,-41.046631 -35.454199,-41.564209 Q -35.454199,-42.050049 -35.656836,-42.288086 Q -35.859473,-42.526123 -36.140234,-42.526123 Q -36.433203,-42.526123 -36.643164,-42.275879 Q -36.853125,-42.025635 -36.853125,-41.525146" />
      <path d="M -32.670996,-42.828857 L -32.27793,-42.828857 L -32.27793,-40.236084 L -32.717383,-40.236084 L -32.717383,-41.625244 Q -32.717383,-41.957275 -32.789404,-42.131836 Q -32.861426,-42.306396 -33.034766,-42.407715 Q -33.208106,-42.509033 -33.405859,-42.509033 Q -33.603613,-42.509033 -33.737891,-42.410156 Q -33.872168,-42.311279 -33.913672,-42.137939 Q -33.940527,-42.018311 -33.940527,-41.674072 L -33.940527,-40.236084 L -34.379981,-40.236084 L -34.379981,-41.842529 Q -34.379981,-42.123291 -34.353125,-42.252686 Q -34.314063,-42.445557 -34.217627,-42.578613 Q -34.121192,-42.71167 -33.922217,-42.799561 Q -33.723242,-42.887451 -33.49375,-42.887451 Q -32.973731,-42.887451 -32.670996,-42.447998 L -32.670996,-42.828857" />
      <path d="M -31.108496,-41.400635 C -31.340964,-41.467392 -31.538057,-41.585749 -31.651709,-41.797363 C -31.709489,-41.902344 -31.738379,-42.018311 -31.738379,-42.145264 C -31.738379,-42.361735 -31.661882,-42.539551 -31.508887,-42.678711 C -31.355892,-42.817871 -31.136979,-42.887451 -30.852149,-42.887451 C -30.679622,-42.887451 -30.518083,-42.858968 -30.367529,-42.802002 C -30.216976,-42.745036 -30.060319,-42.64738 -29.897559,-42.509033 Q -29.878027,-42.692139 -29.809668,-42.828857 L -29.350684,-42.828857 Q -29.433692,-42.679932 -29.461768,-42.517578 Q -29.489844,-42.355225 -29.489844,-41.742432 L -29.489844,-41.156494 Q -29.489844,-40.863525 -29.511817,-40.751221 Q -29.550879,-40.570557 -29.648535,-40.452148 Q -29.746192,-40.33374 -29.953711,-40.255615 Q -30.161231,-40.17749 -30.493262,-40.17749 Q -30.827734,-40.17749 -31.081641,-40.269043 Q -31.335547,-40.360596 -31.469824,-40.530273 Q -31.604102,-40.699951 -31.662695,-40.97583 L -31.233008,-41.034424 Q -31.162207,-40.758545 -31.014502,-40.649902 Q -30.866797,-40.54126 -30.556738,-40.54126 Q -30.224707,-40.54126 -30.05625,-40.690186 Q -29.931738,-40.800049 -29.931738,-41.068604 Q -29.931738,-41.093018 -29.93418,-41.18335 Q -30.185645,-41.27124 -30.717871,-41.334717 Q -30.979102,-41.366455 -31.108496,-41.400635 M -29.93418,-41.527588 L -29.93418,-41.688721 Q -29.93418,-41.979248 -30.004981,-42.128174 Q -30.097754,-42.321045 -30.295508,-42.432129 Q -30.493262,-42.543213 -30.747168,-42.543213 Q -31.003516,-42.543213 -31.136572,-42.426025 Q -31.269629,-42.308838 -31.269629,-42.133057 Q -31.269629,-42.018311 -31.208594,-41.924316 Q -31.147559,-41.830322 -31.035254,-41.781494 Q -30.922949,-41.732666 -30.651953,-41.693604 Q -30.173438,-41.625244 -29.93418,-41.527588" />
      <path d="M -28.813574,-42.828857 L -28.374121,-42.828857 L -28.374121,-41.471436 Q -28.374121,-41.193115 -28.300879,-40.95874 Q -28.252051,-40.804932 -28.137305,-40.718262 Q -28.022559,-40.631592 -27.878516,-40.631592 Q -27.717383,-40.631592 -27.55625,-40.726807 L -27.404883,-40.319092 Q -27.634375,-40.17749 -27.856543,-40.17749 Q -28.010352,-40.17749 -28.138525,-40.265381 Q -28.266699,-40.353271 -28.418067,-40.62915 L -28.418067,-40.236084 L -28.813574,-40.236084 L -28.813574,-42.828857" />
      <path d="M -24.914649,-42.050049 L -25.36875,-41.993896 C -25.502214,-42.367534 -25.730078,-42.52358 -26.052344,-42.526123 C -26.268815,-42.526123 -26.449479,-42.450439 -26.594336,-42.299072 C -26.739193,-42.147705 -26.819759,-41.929606 -26.836035,-41.644775 L -24.902442,-41.644775 Q -24.9,-41.56665 -24.9,-41.527588 Q -24.9,-40.885498 -25.22959,-40.531494 Q -25.55918,-40.17749 -26.079199,-40.17749 Q -26.616309,-40.17749 -26.953223,-40.538818 Q -27.290137,-40.900146 -27.290137,-41.554443 Q -27.290137,-42.186768 -26.956885,-42.537109 Q -26.623633,-42.887451 -26.054785,-42.887451 Q -25.603125,-42.887451 -25.312598,-42.667725 Q -25.02207,-42.447998 -24.914649,-42.050049 M -25.363867,-41.283447 L -26.811621,-41.283447 Q -26.789649,-40.944092 -26.58335,-40.741455 Q -26.377051,-40.538818 -26.074317,-40.538818 Q -25.739844,-40.538818 -25.529883,-40.792725 Q -25.393164,-40.956299 -25.363867,-41.283447" />
      <path d="M -39.392188,-41.986572 L -39.826758,-42.054932 Q -39.753516,-42.467529 -39.488623,-42.67749 Q -39.223731,-42.887451 -38.718359,-42.887451 Q -38.413184,-42.887451 -38.171484,-42.78125 Q -37.929785,-42.675049 -37.801611,-42.480957 Q -37.673438,-42.286865 -37.673438,-42.067139 Q -37.673438,-41.842529 -37.778418,-41.691162 Q -37.883399,-41.539795 -38.067725,-41.460449 Q -38.252051,-41.381104 -38.718359,-41.256592 Q -39.040625,-41.168701 -39.106543,-41.144287 Q -39.221289,-41.0979 -39.275,-41.0271 C -39.310807,-40.981527 -39.328711,-40.930257 -39.328711,-40.873291 C -39.328711,-40.783773 -39.28558,-40.705648 -39.199317,-40.638916 C -39.113053,-40.572184 -38.969011,-40.538818 -38.767188,-40.538818 C -38.424882,-40.536275 -38.240353,-40.699239 -38.200781,-40.963623 L -37.771094,-40.905029 Q -37.812598,-40.653564 -37.922461,-40.503418 Q -38.032324,-40.353271 -38.263037,-40.265381 Q -38.49375,-40.17749 -38.798926,-40.17749 Q -39.001563,-40.17749 -39.178565,-40.22998 Q -39.355567,-40.282471 -39.458106,-40.358154 C -39.638108,-40.485819 -39.755805,-40.695984 -39.753516,-40.924561 C -39.753516,-41.051514 -39.721371,-41.16748 -39.65708,-41.272461 C -39.59279,-41.377441 -39.498389,-41.459635 -39.373877,-41.519043 C -39.249365,-41.578451 -39.025977,-41.648844 -38.703711,-41.730225 Q -38.344824,-41.820557 -38.254492,-41.87915 C -38.168229,-41.936117 -38.125098,-42.014242 -38.125098,-42.113525 C -38.125098,-42.224202 -38.173926,-42.320638 -38.271582,-42.402832 C -38.369238,-42.485026 -38.518978,-42.526123 -38.720801,-42.526123 C -39.121446,-42.527903 -39.343105,-42.333099 -39.392188,-41.986572" />
      <path d="M -6.65,-42.0 A 5.8,5.8 0.0 0,1 -18.25,-42.0 A 5.8,5.8 0.0 0,1 -6.65,-42.0 M -9.004976,-42.0 L -12.45,-45.445024 L -15.895024,-42.0 L -12.45,-38.554976 L -9.004976,-42.0" />
      <path d="M 17.954199,-43.715088 L 17.890723,-43.326904 Q 17.771094,-43.343994 17.697851,-43.343994 Q 17.600195,-43.343994 17.547705,-43.312256 Q 17.495215,-43.280518 17.472021,-43.226807 Q 17.448828,-43.173096 17.448828,-42.985107 L 17.448828,-41.468994 L 17.890723,-41.468994 L 17.890723,-41.127197 L 17.448828,-41.127197 L 17.448828,-40.221436 L 17.011816,-40.485107 L 17.011816,-41.127197 L 16.689551,-41.127197 L 16.689551,-41.468994 L 17.011816,-41.468994 L 17.011816,-42.960693 C 17.011816,-43.224365 17.02972,-43.397298 17.065527,-43.479492 C 17.101335,-43.561686 17.163183,-43.628011 17.251074,-43.678467 C 17.39246,-43.75701 17.628425,-43.783339 17.954199,-43.715088" />
      <path d="M 18.557226,-41.356689 Q 18.156836,-41.703369 18.156836,-42.423584 Q 18.156836,-43.080322 18.492529,-43.429443 Q 18.828223,-43.778564 19.372656,-43.778564 Q 19.712012,-43.778564 19.998877,-43.619873 Q 20.285742,-43.461182 20.435889,-43.174316 Q 20.586035,-42.887451 20.586035,-42.386963 Q 20.586035,-41.769287 20.24668,-41.418945 Q 19.907324,-41.068604 19.372656,-41.068604 Q 18.891699,-41.068604 18.557226,-41.356689 M 18.608496,-42.423584 Q 18.608496,-41.925537 18.825781,-41.678955 Q 19.043066,-41.432373 19.372656,-41.432373 Q 19.697363,-41.432373 19.915869,-41.680176 Q 20.134375,-41.927979 20.134375,-42.408936 Q 20.134375,-42.919189 19.91709,-43.168213 Q 19.699805,-43.417236 19.372656,-43.417236 Q 19.043066,-43.417236 18.825781,-43.169434 Q 18.608496,-42.921631 18.608496,-42.423584" />
      <path d="M 21.096289,-43.719971 L 21.535742,-43.719971 L 21.535742,-42.362549 Q 21.535742,-42.084229 21.608984,-41.849854 Q 21.657812,-41.696045 21.772558,-41.609375 Q 21.887305,-41.522705 22.031348,-41.522705 Q 22.19248,-41.522705 22.353613,-41.61792 L 22.50498,-41.210205 Q 22.275488,-41.068604 22.05332,-41.068604 Q 21.899512,-41.068604 21.771338,-41.156494 Q 21.643164,-41.244385 21.491797,-41.520264 L 21.491797,-41.127197 L 21.096289,-41.127197 L 21.096289,-43.719971" />
      <path d="M 22.473242,-43.719971 L 23.005469,-43.719971 L 23.686621,-42.697021 L 23.828223,-42.914307 L 24.360449,-43.719971 L 24.9,-43.719971 L 23.935644,-42.3479 L 24.831641,-41.127197 L 24.306738,-41.127197 L 23.869726,-41.73999 Q 23.779394,-41.864502 23.671973,-42.025635 Q 23.603613,-41.908447 23.491308,-41.735107 L 23.093359,-41.127197 L 22.544043,-41.127197 L 23.420508,-42.372314 L 22.473242,-43.719971" />
      <path d="M 43.15,-42.0 A 5.8,5.8 0.0 0,1 31.55,-42.0 A 5.8,5.8 0.0 0,1 43.15,-42.0 M 40.253681,-41.2286 L 40.6792,-41.2286 A 0.7714,0.7714 180.0 0,0 40.6792,-42.7714 L 40.253681,-42.7714 A 3.0043999999999995,3.0043999999999995 0.0 0,0 40.253618,-42.771634 A 0.8931999999999999,0.8931999999999999 -30.00000000000003 0,1 39.470064,-44.12879 A 3.0043999999999995,3.0043999999999995 0.0 0,0 39.469892,-44.128961 L 39.682652,-44.497472 A 0.7714000030490012,0.7714000030490012 119.99999999999999 0,0 38.346548,-45.268872 L 38.133788,-44.900361 A 3.0043999999999995,3.0043999999999995 0.0 0,0 38.133555,-44.900424 A 0.8931999999999999,0.8931999999999999 -90.00000000000001 0,1 36.566445,-44.900424 A 3.0043999999999995,3.0043999999999995 0.0 0,0 36.566212,-44.900361 L 36.353452,-45.268872 A 0.7714000030490014,0.7714000030490014 59.99999999999997 0,0 35.017348,-44.497472 L 35.230108,-44.128961 A 3.0043999999999995,3.0043999999999995 0.0 0,0 35.229936,-44.12879 A 0.8931999999999999,0.8931999999999999 -149.99999999999997 0,1 34.446382,-42.771634 A 3.0043999999999995,3.0043999999999995 0.0 0,0 34.446319,-42.7714 L 34.0208,-42.7714 A 0.7714,0.7714 0.0 0,0 34.0208,-41.2286 L 34.446319,-41.2286 A 3.0043999999999995,3.0043999999999995 0.0 0,0 34.446382,-41.228366 A 0.8931999999999999,0.8931999999999999 150.0 0,1 35.229936,-39.87121 A 3.0043999999999995,3.0043999999999995 0.0 0,0 35.230108,-39.871039 L 35.017348,-39.502528 A 0.7714000030490012,0.7714000030490012 -60.00000000000002 0,0 36.353452,-38.731128 L 36.566212,-39.099639 A 3.0043999999999995,3.0043999999999995 0.0 0,0 36.566445,-39.099576 A 0.8931999999999999,0.8931999999999999 90.0 0,1 38.133555,-39.099576 A 3.0043999999999995,3.0043999999999995 0.0 0,0 38.133788,-39.099639 L 38.346548,-38.731128 A 0.7714000030490014,0.7714000030490014 -120.00000000000004 0,0 39.682652,-39.502528 L 39.469892,-39.871039 A 3.0043999999999995,3.0043999999999995 0.0 0,0 39.470064,-39.87121 A 0.8931999999999999,0.8931999999999999 29.999999999999993 0,1 40.253618,-41.228366 A 3.0043999999999995,3.0043999999999995 0.0 0,0 40.253681,-41.2286" />
      <path d="M -36.11582,-55.835205 C -36.348288,-55.901962 -36.545381,-56.020319 -36.659033,-56.231934 C -36.716813,-56.336914 -36.745703,-56.452881 -36.745703,-56.579834 C -36.745703,-56.796305 -36.669206,-56.974121 -36.516211,-57.113281 C -36.363216,-57.252441 -36.144303,-57.322021 -35.859473,-57.322021 C -35.686947,-57.322021 -35.525407,-57.293538 -35.374854,-57.236572 C -35.2243,-57.179606 -35.067643,-57.08195 -34.904883,-56.943603 Q -34.885352,-57.126709 -34.816992,-57.263428 L -34.358008,-57.263428 Q -34.441016,-57.114502 -34.469092,-56.952148 Q -34.497168,-56.789795 -34.497168,-56.177002 L -34.497168,-55.591064 Q -34.497168,-55.298096 -34.519141,-55.185791 Q -34.558203,-55.005127 -34.655859,-54.886719 Q -34.753516,-54.76831 -34.961035,-54.690185 Q -35.168555,-54.61206 -35.500586,-54.61206 Q -35.835059,-54.61206 -36.088965,-54.703613 Q -36.342871,-54.795166 -36.477149,-54.964844 Q -36.611426,-55.134521 -36.67002,-55.4104 L -36.240332,-55.468994 Q -36.169531,-55.193115 -36.021826,-55.084473 Q -35.874121,-54.97583 -35.564063,-54.97583 Q -35.232031,-54.97583 -35.063574,-55.124756 Q -34.939063,-55.234619 -34.939063,-55.503174 Q -34.939063,-55.527588 -34.941504,-55.61792 Q -35.192969,-55.70581 -35.725195,-55.769287 Q -35.986426,-55.801025 -36.11582,-55.835205 M -34.941504,-55.962158 L -34.941504,-56.123291 Q -34.941504,-56.413818 -35.012305,-56.562744 Q -35.105078,-56.755615 -35.302832,-56.866699 Q -35.500586,-56.977783 -35.754492,-56.977783 Q -36.01084,-56.977783 -36.143897,-56.860596 Q -36.276953,-56.743408 -36.276953,-56.567627 Q -36.276953,-56.452881 -36.215918,-56.358887 Q -36.154883,-56.264893 -36.042578,-56.216064 Q -35.930274,-56.167236 -35.659277,-56.128174 Q -35.180762,-56.059814 -34.941504,-55.962158" />
      <path d="M -33.816016,-57.263428 L -33.376563,-57.263428 L -33.376563,-55.847412 Q -33.376563,-55.349365 -33.172705,-55.171143 Q -32.968848,-54.99292 -32.688086,-54.99292 Q -32.512305,-54.99292 -32.38169,-55.072266 Q -32.251074,-55.151611 -32.199805,-55.284668 Q -32.148535,-55.417725 -32.148535,-55.686279 L -32.148535,-57.263428 L -31.709082,-57.263428 L -31.709082,-55.669189 Q -31.709082,-55.364014 -31.733496,-55.241943 Q -31.772559,-55.053955 -31.870215,-54.917236 Q -31.967871,-54.780518 -32.164404,-54.696289 Q -32.360938,-54.61206 -32.595313,-54.61206 Q -33.134863,-54.61206 -33.420508,-55.039307 L -33.420508,-54.670654 L -33.816016,-54.670654 L -33.816016,-57.263428" />
      <path d="M -30.688574,-57.541748 L -31.11582,-57.478271 Q -31.125586,-57.898193 -30.839942,-58.106934 Q -30.554297,-58.315674 -30.09043,-58.315674 Q -29.699805,-58.315674 -29.432471,-58.169189 Q -29.165137,-58.022705 -29.041846,-57.770019 Q -28.918555,-57.517334 -28.918555,-56.911865 L -28.918555,-54.670654 L -29.323828,-54.670654 L -29.323828,-54.983154 Q -29.62168,-54.61206 -30.080664,-54.61206 Q -30.424902,-54.61206 -30.680029,-54.782959 Q -30.935156,-54.953857 -31.069434,-55.267578 Q -31.203711,-55.581299 -31.203711,-55.952393 Q -31.203711,-56.491943 -30.910742,-56.877685 Q -30.617774,-57.263428 -30.083106,-57.263428 Q -29.653418,-57.263428 -29.365332,-56.924072 Q -29.362891,-57.35376 -29.39707,-57.488037 Q -29.455664,-57.707764 -29.62168,-57.829834 Q -29.787695,-57.951904 -30.092871,-57.951904 Q -30.376074,-57.951904 -30.539649,-57.829834 Q -30.661719,-57.739502 -30.688574,-57.541748 M -30.752051,-55.920654 Q -30.752051,-55.451904 -30.546973,-55.213867 Q -30.341895,-54.97583 -30.048926,-54.97583 Q -29.751074,-54.97583 -29.539893,-55.217529 Q -29.328711,-55.459228 -29.328711,-55.935303 Q -29.328711,-56.43335 -29.533789,-56.666504 Q -29.738867,-56.899658 -30.041602,-56.899658 Q -30.346777,-56.899658 -30.549414,-56.665283 Q -30.752051,-56.430908 -30.752051,-55.920654" />
      <path d="M -28.264258,-57.263428 L -27.824805,-57.263428 L -27.824805,-53.684326 L -28.264258,-53.684326 L -28.264258,-57.263428" />
      <path d="M -24.914649,-56.484619 L -25.36875,-56.428467 C -25.502214,-56.802104 -25.730078,-56.95815 -26.052344,-56.960693 C -26.268815,-56.960693 -26.449479,-56.88501 -26.594336,-56.733643 C -26.739193,-56.582275 -26.819759,-56.364176 -26.836035,-56.079346 L -24.902442,-56.079346 Q -24.9,-56.001221 -24.9,-55.962158 Q -24.9,-55.320068 -25.22959,-54.966064 Q -25.55918,-54.61206 -26.079199,-54.61206 Q -26.616309,-54.61206 -26.953223,-54.973389 Q -27.290137,-55.334717 -27.290137,-55.989014 Q -27.290137,-56.621338 -26.956885,-56.97168 Q -26.623633,-57.322021 -26.054785,-57.322021 Q -25.603125,-57.322021 -25.312598,-57.102295 Q -25.02207,-56.882568 -24.914649,-56.484619 M -25.363867,-55.718018 L -26.811621,-55.718018 Q -26.789649,-55.378662 -26.58335,-55.176025 Q -26.377051,-54.973389 -26.074317,-54.973389 Q -25.739844,-54.973389 -25.529883,-55.227295 Q -25.393164,-55.390869 -25.363867,-55.718018" />
      <path d="M -39.738867,-57.258545 L -39.802344,-56.870361 Q -39.921973,-56.887451 -39.995215,-56.887451 Q -40.092871,-56.887451 -40.145361,-56.855713 Q -40.197852,-56.823975 -40.221045,-56.770264 Q -40.244238,-56.716553 -40.244238,-56.528564 L -40.244238,-55.012451 L -39.802344,-55.012451 L -39.802344,-54.670654 L -40.244238,-54.670654 L -40.244238,-53.764893 L -40.68125,-54.028564 L -40.68125,-54.670654 L -41.003516,-54.670654 L -41.003516,-55.012451 L -40.68125,-55.012451 L -40.68125,-56.50415 C -40.68125,-56.767822 -40.663346,-56.940755 -40.627539,-57.022949 C -40.591732,-57.105143 -40.529883,-57.171468 -40.441992,-57.221924 C -40.300607,-57.300467 -40.064642,-57.326796 -39.738867,-57.258545" />
      <path d="M -39.377539,-57.263428 L -38.938086,-57.263428 L -38.938086,-55.906006 Q -38.938086,-55.627685 -38.864844,-55.39331 Q -38.816016,-55.239502 -38.70127,-55.152832 Q -38.586524,-55.066162 -38.442481,-55.066162 Q -38.281348,-55.066162 -38.120215,-55.161377 L -37.968848,-54.753662 Q -38.19834,-54.61206 -38.420508,-54.61206 Q -38.574317,-54.61206 -38.70249,-54.699951 Q -38.830664,-54.787842 -38.982031,-55.063721 L -38.982031,-54.670654 L -39.377539,-54.670654 L -39.377539,-57.263428" />
      <path d="M -37.705176,-57.263428 L -37.265723,-57.263428 L -37.265723,-54.670654 L -37.705176,-54.670654 L -37.705176,-57.263428" />
      <path d="M -37.705176,-54.189697 L -37.265723,-54.189697 L -37.265723,-53.684326 L -37.705176,-53.684326 L -37.705176,-54.189697" />
      <path d="M -6.65,-56.0 A 5.8,5.8 0.0 0,1 -18.25,-56.0 A 5.8,5.8 0.0 0,1 -6.65,-56.0 M -8.593,-58.22684 L -16.307,-58.22684 L -12.45,-51.54632 L -8.593,-58.22684" />
      <path d="M 16.137744,-57.263428 L 16.577197,-57.263428 L 16.577197,-55.847412 Q 16.577197,-55.349365 16.781055,-55.171143 Q 16.984912,-54.99292 17.265674,-54.99292 Q 17.441455,-54.99292 17.57207,-55.072266 Q 17.702686,-55.151611 17.753955,-55.284668 Q 17.805225,-55.417725 17.805225,-55.686279 L 17.805225,-57.263428 L 18.244678,-57.263428 L 18.244678,-55.669189 Q 18.244678,-55.364014 18.220264,-55.241943 Q 18.181201,-55.053955 18.083545,-54.917236 Q 17.985889,-54.780518 17.789355,-54.696289 Q 17.592822,-54.61206 17.358447,-54.61206 Q 16.818896,-54.61206 16.533252,-55.039307 L 16.533252,-54.670654 L 16.137744,-54.670654 L 16.137744,-57.263428" />
      <path d="M 19.265186,-57.541748 L 18.837939,-57.478271 Q 18.828174,-57.898193 19.113818,-58.106934 Q 19.399463,-58.315674 19.86333,-58.315674 Q 20.253955,-58.315674 20.521289,-58.169189 Q 20.788623,-58.022705 20.911914,-57.770019 Q 21.035205,-57.517334 21.035205,-56.911865 L 21.035205,-54.670654 L 20.629932,-54.670654 L 20.629932,-54.983154 Q 20.33208,-54.61206 19.873096,-54.61206 Q 19.528857,-54.61206 19.27373,-54.782959 Q 19.018604,-54.953857 18.884326,-55.267578 Q 18.750049,-55.581299 18.750049,-55.952393 Q 18.750049,-56.491943 19.043018,-56.877685 Q 19.335986,-57.263428 19.870654,-57.263428 Q 20.300342,-57.263428 20.588428,-56.924072 Q 20.590869,-57.35376 20.556689,-57.488037 Q 20.498096,-57.707764 20.33208,-57.829834 Q 20.166064,-57.951904 19.860889,-57.951904 Q 19.577686,-57.951904 19.414111,-57.829834 Q 19.292041,-57.739502 19.265186,-57.541748 M 19.201709,-55.920654 Q 19.201709,-55.451904 19.406787,-55.213867 Q 19.611865,-54.97583 19.904834,-54.97583 Q 20.202686,-54.97583 20.413867,-55.217529 Q 20.625049,-55.459228 20.625049,-55.935303 Q 20.625049,-56.43335 20.419971,-56.666504 Q 20.214893,-56.899658 19.912158,-56.899658 Q 19.606982,-56.899658 19.404346,-56.665283 Q 19.201709,-56.430908 19.201709,-55.920654" />
      <path d="M 21.689502,-57.263428 L 22.128955,-57.263428 L 22.128955,-53.684326 L 21.689502,-53.684326 L 21.689502,-57.263428" />
      <path d="M 25.039111,-56.484619 L 24.58501,-56.428467 C 24.451546,-56.802104 24.223682,-56.95815 23.901416,-56.960693 C 23.684945,-56.960693 23.504281,-56.88501 23.359424,-56.733643 C 23.214567,-56.582275 23.134001,-56.364176 23.117725,-56.079346 L 25.051318,-56.079346 Q 25.05376,-56.001221 25.05376,-55.962158 Q 25.05376,-55.320068 24.72417,-54.966064 Q 24.39458,-54.61206 23.874561,-54.61206 Q 23.337451,-54.61206 23.000537,-54.973389 Q 22.663623,-55.334717 22.663623,-55.989014 Q 22.663623,-56.621338 22.996875,-56.97168 Q 23.330127,-57.322021 23.898975,-57.322021 Q 24.350635,-57.322021 24.641162,-57.102295 Q 24.931689,-56.882568 25.039111,-56.484619 M 24.589893,-55.718018 L 23.142139,-55.718018 Q 23.164111,-55.378662 23.37041,-55.176025 Q 23.576709,-54.973389 23.879443,-54.973389 Q 24.213916,-54.973389 24.423877,-55.227295 Q 24.560596,-55.390869 24.589893,-55.718018" />
      <path d="M 0.280811,-56.421143 L -0.15376,-56.489502 Q -0.080518,-56.9021 0.184375,-57.11206 Q 0.449268,-57.322021 0.954639,-57.322021 Q 1.259814,-57.322021 1.501514,-57.21582 Q 1.743213,-57.109619 1.871387,-56.915527 Q 1.999561,-56.721435 1.999561,-56.501709 Q 1.999561,-56.2771 1.89458,-56.125732 Q 1.7896,-55.974365 1.605273,-55.895019 Q 1.420947,-55.815674 0.954639,-55.691162 Q 0.632373,-55.603271 0.566455,-55.578857 Q 0.451709,-55.532471 0.397998,-55.46167 C 0.362191,-55.416097 0.344287,-55.364827 0.344287,-55.307861 C 0.344287,-55.218343 0.387419,-55.140218 0.473682,-55.073486 C 0.559945,-55.006755 0.703988,-54.973389 0.905811,-54.973389 C 1.248116,-54.970845 1.432646,-55.13381 1.472217,-55.398193 L 1.901904,-55.3396 Q 1.8604,-55.088135 1.750537,-54.937988 Q 1.640674,-54.787842 1.409961,-54.699951 Q 1.179248,-54.61206 0.874072,-54.61206 Q 0.671436,-54.61206 0.494434,-54.664551 Q 0.317432,-54.717041 0.214893,-54.792725 C 0.03489,-54.92039 -0.082807,-55.130554 -0.080518,-55.359131 C -0.080518,-55.486084 -0.048372,-55.602051 0.015918,-55.707031 C 0.080208,-55.812012 0.174609,-55.894206 0.299121,-55.953613 C 0.423633,-56.013021 0.647021,-56.083415 0.969287,-56.164795 Q 1.328174,-56.255127 1.418506,-56.313721 C 1.504769,-56.370687 1.5479,-56.448812 1.5479,-56.548096 C 1.5479,-56.658773 1.499072,-56.755208 1.401416,-56.837402 C 1.30376,-56.919596 1.15402,-56.960693 0.952197,-56.960693 C 0.551552,-56.962474 0.329893,-56.76767 0.280811,-56.421143" />
      <path d="M 2.512256,-57.263428 L 2.951709,-57.263428 L 2.951709,-53.684326 L 2.512256,-53.684326 L 2.512256,-57.263428" />
      <path d="M 3.869678,-54.900146 Q 3.469287,-55.246826 3.469287,-55.967041 Q 3.469287,-56.623779 3.80498,-56.9729 Q 4.140674,-57.322021 4.685107,-57.322021 Q 5.024463,-57.322021 5.311328,-57.16333 Q 5.598193,-57.004639 5.74834,-56.717773 Q 5.898486,-56.430908 5.898486,-55.93042 Q 5.898486,-55.312744 5.559131,-54.962402 Q 5.219775,-54.61206 4.685107,-54.61206 Q 4.20415,-54.61206 3.869678,-54.900146 M 3.920947,-55.967041 Q 3.920947,-55.468994 4.138232,-55.222412 Q 4.355518,-54.97583 4.685107,-54.97583 Q 5.009814,-54.97583 5.22832,-55.223633 Q 5.446826,-55.471435 5.446826,-55.952393 Q 5.446826,-56.462646 5.229541,-56.71167 Q 5.012256,-56.960693 4.685107,-56.960693 Q 4.355518,-56.960693 4.138232,-56.712891 Q 3.920947,-56.465088 3.920947,-55.967041" />
      <path d="M 7.436572,-57.258545 L 7.373096,-56.870361 Q 7.253467,-56.887451 7.180225,-56.887451 Q 7.082568,-56.887451 7.030078,-56.855713 Q 6.977588,-56.823975 6.954395,-56.770264 Q 6.931201,-56.716553 6.931201,-56.528564 L 6.931201,-55.012451 L 7.373096,-55.012451 L 7.373096,-54.670654 L 6.931201,-54.670654 L 6.931201,-53.764893 L 6.494189,-54.028564 L 6.494189,-54.670654 L 6.171924,-54.670654 L 6.171924,-55.012451 L 6.494189,-55.012451 L 6.494189,-56.50415 C 6.494189,-56.767822 6.512093,-56.940755 6.5479,-57.022949 C 6.583708,-57.105143 6.645557,-57.171468 6.733447,-57.221924 C 6.874833,-57.300467 7.110798,-57.326796 7.436572,-57.258545" />
      <path d="M 7.917529,-57.263428 L 8.166553,-57.263428 Q 8.159229,-57.485596 8.093311,-57.604004 Q 8.027393,-57.722412 7.888232,-57.783447 L 8.010303,-57.971435 Q 8.222705,-57.878662 8.320361,-57.708984 Q 8.418018,-57.539307 8.418018,-57.263428 L 8.418018,-56.762939 L 7.917529,-56.762939 L 7.917529,-57.263428" />
      <path d="M 10.214893,-57.258545 L 10.151416,-56.870361 Q 10.031787,-56.887451 9.958545,-56.887451 Q 9.860889,-56.887451 9.808398,-56.855713 Q 9.755908,-56.823975 9.732715,-56.770264 Q 9.709521,-56.716553 9.709521,-56.528564 L 9.709521,-55.012451 L 10.151416,-55.012451 L 10.151416,-54.670654 L 9.709521,-54.670654 L 9.709521,-53.764893 L 9.27251,-54.028564 L 9.27251,-54.670654 L 8.950244,-54.670654 L 8.950244,-55.012451 L 9.27251,-55.012451 L 9.27251,-56.50415 C 9.27251,-56.767822 9.290413,-56.940755 9.326221,-57.022949 C 9.362028,-57.105143 9.423877,-57.171468 9.511768,-57.221924 C 9.653153,-57.300467 9.889118,-57.326796 10.214893,-57.258545" />
      <path d="M 10.576221,-57.263428 L 11.015674,-57.263428 L 11.015674,-55.906006 Q 11.015674,-55.627685 11.088916,-55.39331 Q 11.137744,-55.239502 11.25249,-55.152832 Q 11.367236,-55.066162 11.511279,-55.066162 Q 11.672412,-55.066162 11.833545,-55.161377 L 11.984912,-54.753662 Q 11.75542,-54.61206 11.533252,-54.61206 Q 11.379443,-54.61206 11.25127,-54.699951 Q 11.123096,-54.787842 10.971729,-55.063721 L 10.971729,-54.670654 L 10.576221,-54.670654 L 10.576221,-57.263428" />
      <path d="M 12.248584,-54.189697 L 12.688037,-54.189697 L 12.688037,-53.684326 L 12.248584,-53.684326 L 12.248584,-54.189697" />
      <path d="M 12.248584,-57.263428 L 12.688037,-57.263428 L 12.688037,-54.670654 L 12.248584,-54.670654 L 12.248584,-57.263428" />
      <path d="M 13.837939,-55.835205 C 13.605472,-55.901962 13.408379,-56.020319 13.294727,-56.231934 C 13.236947,-56.336914 13.208057,-56.452881 13.208057,-56.579834 C 13.208057,-56.796305 13.284554,-56.974121 13.437549,-57.113281 C 13.590544,-57.252441 13.809456,-57.322021 14.094287,-57.322021 C 14.266813,-57.322021 14.428353,-57.293538 14.578906,-57.236572 C 14.72946,-57.179606 14.886117,-57.08195 15.048877,-56.943603 Q 15.068408,-57.126709 15.136768,-57.263428 L 15.595752,-57.263428 Q 15.512744,-57.114502 15.484668,-56.952148 Q 15.456592,-56.789795 15.456592,-56.177002 L 15.456592,-55.591064 Q 15.456592,-55.298096 15.434619,-55.185791 Q 15.395557,-55.005127 15.2979,-54.886719 Q 15.200244,-54.76831 14.992725,-54.690185 Q 14.785205,-54.61206 14.453174,-54.61206 Q 14.118701,-54.61206 13.864795,-54.703613 Q 13.610889,-54.795166 13.476611,-54.964844 Q 13.342334,-55.134521 13.28374,-55.4104 L 13.713428,-55.468994 Q 13.784229,-55.193115 13.931934,-55.084473 Q 14.079639,-54.97583 14.389697,-54.97583 Q 14.721729,-54.97583 14.890186,-55.124756 Q 15.014697,-55.234619 15.014697,-55.503174 Q 15.014697,-55.527588 15.012256,-55.61792 Q 14.760791,-55.70581 14.228564,-55.769287 Q 13.967334,-55.801025 13.837939,-55.835205 M 15.012256,-55.962158 L 15.012256,-56.123291 Q 15.012256,-56.413818 14.941455,-56.562744 Q 14.848682,-56.755615 14.650928,-56.866699 Q 14.453174,-56.977783 14.199268,-56.977783 Q 13.94292,-56.977783 13.809863,-56.860596 Q 13.676807,-56.743408 13.676807,-56.567627 Q 13.676807,-56.452881 13.737842,-56.358887 Q 13.798877,-56.264893 13.911182,-56.216064 Q 14.023486,-56.167236 14.294482,-56.128174 Q 14.772998,-56.059814 15.012256,-55.962158" />
      <path d="M 31.607121,-56.812 A 5.8,5.8 0.0 0,1 43.092879,-56.812 L 40.390142,-56.812 L 41.207,-58.22684 L 33.493,-58.22684 L 34.309858,-56.812 L 31.607121,-56.812" />
      <path d="M 39.452525,-55.188 L 43.092879,-55.188 A 5.8,5.8 0.0 0,1 31.607121,-55.188 L 35.247475,-55.188 L 37.35,-51.54632 L 39.452525,-55.188" />
      <path d="M -35.498145,-72.286377 L -35.058692,-72.286377 L -35.058692,-68.699951 L -35.454199,-68.699951 L -35.454199,-69.046631 Q -35.730078,-68.641357 -36.211035,-68.641357 Q -36.518652,-68.641357 -36.776221,-68.801269 Q -37.033789,-68.961182 -37.169287,-69.27124 Q -37.304785,-69.581299 -37.304785,-69.971924 Q -37.304785,-70.614014 -36.971533,-70.982666 Q -36.638281,-71.351318 -36.176856,-71.351318 Q -35.969336,-71.351318 -35.78501,-71.256103 Q -35.600684,-71.160889 -35.498145,-71.016846 L -35.498145,-72.286377 M -36.853125,-69.989014 Q -36.853125,-69.473877 -36.65415,-69.230957 Q -36.455176,-68.988037 -36.169531,-68.988037 Q -35.881445,-68.988037 -35.667822,-69.249268 Q -35.454199,-69.510498 -35.454199,-70.028076 Q -35.454199,-70.513916 -35.656836,-70.751953 Q -35.859473,-70.98999 -36.140234,-70.98999 Q -36.433203,-70.98999 -36.643164,-70.739746 Q -36.853125,-70.489502 -36.853125,-69.989014" />
      <path d="M -32.670996,-71.292725 L -32.27793,-71.292725 L -32.27793,-68.699951 L -32.717383,-68.699951 L -32.717383,-70.089111 Q -32.717383,-70.421143 -32.789404,-70.595703 Q -32.861426,-70.770264 -33.034766,-70.871582 Q -33.208106,-70.9729 -33.405859,-70.9729 Q -33.603613,-70.9729 -33.737891,-70.874023 Q -33.872168,-70.775146 -33.913672,-70.601807 Q -33.940527,-70.482178 -33.940527,-70.137939 L -33.940527,-68.699951 L -34.379981,-68.699951 L -34.379981,-70.306396 Q -34.379981,-70.587158 -34.353125,-70.716553 Q -34.314063,-70.909424 -34.217627,-71.04248 Q -34.121192,-71.175537 -33.922217,-71.263428 Q -33.723242,-71.351318 -33.49375,-71.351318 Q -32.973731,-71.351318 -32.670996,-70.911865 L -32.670996,-71.292725" />
      <path d="M -31.108496,-69.864502 C -31.340964,-69.931259 -31.538057,-70.049616 -31.651709,-70.26123 C -31.709489,-70.366211 -31.738379,-70.482178 -31.738379,-70.609131 C -31.738379,-70.825602 -31.661882,-71.003418 -31.508887,-71.142578 C -31.355892,-71.281738 -31.136979,-71.351318 -30.852149,-71.351318 C -30.679622,-71.351318 -30.518083,-71.322835 -30.367529,-71.265869 C -30.216976,-71.208903 -30.060319,-71.111247 -29.897559,-70.9729 Q -29.878027,-71.156006 -29.809668,-71.292725 L -29.350684,-71.292725 Q -29.433692,-71.143799 -29.461768,-70.981445 Q -29.489844,-70.819092 -29.489844,-70.206299 L -29.489844,-69.620361 Q -29.489844,-69.327393 -29.511817,-69.215088 Q -29.550879,-69.034424 -29.648535,-68.916016 Q -29.746192,-68.797607 -29.953711,-68.719482 Q -30.161231,-68.641357 -30.493262,-68.641357 Q -30.827734,-68.641357 -31.081641,-68.73291 Q -31.335547,-68.824463 -31.469824,-68.994141 Q -31.604102,-69.163818 -31.662695,-69.439697 L -31.233008,-69.498291 Q -31.162207,-69.222412 -31.014502,-69.113769 Q -30.866797,-69.005127 -30.556738,-69.005127 Q -30.224707,-69.005127 -30.05625,-69.154053 Q -29.931738,-69.263916 -29.931738,-69.532471 Q -29.931738,-69.556885 -29.93418,-69.647217 Q -30.185645,-69.735107 -30.717871,-69.798584 Q -30.979102,-69.830322 -31.108496,-69.864502 M -29.93418,-69.991455 L -29.93418,-70.152588 Q -29.93418,-70.443115 -30.004981,-70.592041 Q -30.097754,-70.784912 -30.295508,-70.895996 Q -30.493262,-71.00708 -30.747168,-71.00708 Q -31.003516,-71.00708 -31.136572,-70.889893 Q -31.269629,-70.772705 -31.269629,-70.596924 Q -31.269629,-70.482178 -31.208594,-70.388184 Q -31.147559,-70.294189 -31.035254,-70.245361 Q -30.922949,-70.196533 -30.651953,-70.157471 Q -30.173438,-70.089111 -29.93418,-69.991455" />
      <path d="M -28.813574,-71.292725 L -28.374121,-71.292725 L -28.374121,-69.935303 Q -28.374121,-69.656982 -28.300879,-69.422607 Q -28.252051,-69.268799 -28.137305,-69.182129 Q -28.022559,-69.095459 -27.878516,-69.095459 Q -27.717383,-69.095459 -27.55625,-69.190674 L -27.404883,-68.782959 Q -27.634375,-68.641357 -27.856543,-68.641357 Q -28.010352,-68.641357 -28.138525,-68.729248 Q -28.266699,-68.817139 -28.418067,-69.093018 L -28.418067,-68.699951 L -28.813574,-68.699951 L -28.813574,-71.292725" />
      <path d="M -24.914649,-70.513916 L -25.36875,-70.457764 C -25.502214,-70.831401 -25.730078,-70.987447 -26.052344,-70.98999 C -26.268815,-70.98999 -26.449479,-70.914307 -26.594336,-70.762939 C -26.739193,-70.611572 -26.819759,-70.393473 -26.836035,-70.108643 L -24.902442,-70.108643 Q -24.9,-70.030518 -24.9,-69.991455 Q -24.9,-69.349365 -25.22959,-68.995361 Q -25.55918,-68.641357 -26.079199,-68.641357 Q -26.616309,-68.641357 -26.953223,-69.002685 Q -27.290137,-69.364014 -27.290137,-70.01831 Q -27.290137,-70.650635 -26.956885,-71.000977 Q -26.623633,-71.351318 -26.054785,-71.351318 Q -25.603125,-71.351318 -25.312598,-71.131592 Q -25.02207,-70.911865 -24.914649,-70.513916 M -25.363867,-69.747314 L -26.811621,-69.747314 Q -26.789649,-69.407959 -26.58335,-69.205322 Q -26.377051,-69.002685 -26.074317,-69.002685 Q -25.739844,-69.002685 -25.529883,-69.256592 Q -25.393164,-69.420166 -25.363867,-69.747314" />
      <path d="M -48.562109,-70.450439 L -48.99668,-70.518799 Q -48.923438,-70.931396 -48.658545,-71.141357 Q -48.393652,-71.351318 -47.888281,-71.351318 Q -47.583106,-71.351318 -47.341406,-71.245117 Q -47.099707,-71.138916 -46.971533,-70.944824 Q -46.843359,-70.750732 -46.843359,-70.531006 Q -46.843359,-70.306396 -46.94834,-70.155029 Q -47.05332,-70.003662 -47.237647,-69.924316 Q -47.421973,-69.844971 -47.888281,-69.720459 Q -48.210547,-69.632568 -48.276465,-69.608154 Q -48.391211,-69.561768 -48.444922,-69.490967 C -48.480729,-69.445394 -48.498633,-69.394124 -48.498633,-69.337158 C -48.498633,-69.24764 -48.455501,-69.169515 -48.369238,-69.102783 C -48.282975,-69.036051 -48.138932,-69.002685 -47.937109,-69.002685 C -47.594804,-69.000142 -47.410274,-69.163106 -47.370703,-69.42749 L -46.941016,-69.368896 Q -46.98252,-69.117432 -47.092383,-68.967285 Q -47.202246,-68.817139 -47.432959,-68.729248 Q -47.663672,-68.641357 -47.968848,-68.641357 Q -48.171484,-68.641357 -48.348486,-68.693848 Q -48.525488,-68.746338 -48.628027,-68.822021 C -48.80803,-68.949686 -48.925727,-69.159851 -48.923438,-69.388428 C -48.923438,-69.515381 -48.891292,-69.631348 -48.827002,-69.736328 C -48.762712,-69.841309 -48.668311,-69.923503 -48.543799,-69.98291 C -48.419287,-70.042318 -48.195899,-70.112712 -47.873633,-70.194092 Q -47.514746,-70.284424 -47.424414,-70.343018 C -47.338151,-70.399984 -47.29502,-70.478109 -47.29502,-70.577393 C -47.29502,-70.68807 -47.343848,-70.784505 -47.441504,-70.866699 C -47.53916,-70.948893 -47.6889,-70.98999 -47.890723,-70.98999 C -48.291368,-70.991771 -48.513027,-70.796966 -48.562109,-70.450439" />
      <path d="M -46.330664,-71.292725 L -45.891211,-71.292725 L -45.891211,-67.713623 L -46.330664,-67.713623 L -46.330664,-71.292725" />
      <path d="M -44.973242,-68.929443 Q -45.373633,-69.276123 -45.373633,-69.996338 Q -45.373633,-70.653076 -45.03794,-71.002197 Q -44.702246,-71.351318 -44.157813,-71.351318 Q -43.818457,-71.351318 -43.531592,-71.192627 Q -43.244727,-71.033935 -43.09458,-70.74707 Q -42.944434,-70.460205 -42.944434,-69.959717 Q -42.944434,-69.342041 -43.283789,-68.991699 Q -43.623145,-68.641357 -44.157813,-68.641357 Q -44.63877,-68.641357 -44.973242,-68.929443 M -44.921973,-69.996338 Q -44.921973,-69.498291 -44.704688,-69.251709 Q -44.487402,-69.005127 -44.157813,-69.005127 Q -43.833106,-69.005127 -43.6146,-69.25293 Q -43.396094,-69.500732 -43.396094,-69.981689 Q -43.396094,-70.491943 -43.613379,-70.740967 Q -43.830664,-70.98999 -44.157813,-70.98999 Q -44.487402,-70.98999 -44.704688,-70.742187 Q -44.921973,-70.494385 -44.921973,-69.996338" />
      <path d="M -41.406348,-71.287842 L -41.469824,-70.899658 Q -41.589453,-70.916748 -41.662695,-70.916748 Q -41.760352,-70.916748 -41.812842,-70.88501 Q -41.865332,-70.853271 -41.888525,-70.79956 Q -41.911719,-70.74585 -41.911719,-70.557861 L -41.911719,-69.041748 L -41.469824,-69.041748 L -41.469824,-68.699951 L -41.911719,-68.699951 L -41.911719,-67.794189 L -42.348731,-68.057861 L -42.348731,-68.699951 L -42.670996,-68.699951 L -42.670996,-69.041748 L -42.348731,-69.041748 L -42.348731,-70.533447 C -42.348731,-70.797119 -42.330827,-70.970052 -42.29502,-71.052246 C -42.259212,-71.13444 -42.197363,-71.200765 -42.109473,-71.251221 C -41.968087,-71.329764 -41.732122,-71.356092 -41.406348,-71.287842" />
      <path d="M -40.925391,-71.292725 L -40.676367,-71.292725 Q -40.683692,-71.514893 -40.749609,-71.633301 Q -40.815527,-71.751709 -40.954688,-71.812744 L -40.832617,-72.000732 Q -40.620215,-71.907959 -40.522559,-71.738281 Q -40.424902,-71.568603 -40.424902,-71.292725 L -40.424902,-70.792236 L -40.925391,-70.792236 L -40.925391,-71.292725" />
      <path d="M -39.392188,-70.450439 L -39.826758,-70.518799 Q -39.753516,-70.931396 -39.488623,-71.141357 Q -39.223731,-71.351318 -38.718359,-71.351318 Q -38.413184,-71.351318 -38.171484,-71.245117 Q -37.929785,-71.138916 -37.801611,-70.944824 Q -37.673438,-70.750732 -37.673438,-70.531006 Q -37.673438,-70.306396 -37.778418,-70.155029 Q -37.883399,-70.003662 -38.067725,-69.924316 Q -38.252051,-69.844971 -38.718359,-69.720459 Q -39.040625,-69.632568 -39.106543,-69.608154 Q -39.221289,-69.561768 -39.275,-69.490967 C -39.310807,-69.445394 -39.328711,-69.394124 -39.328711,-69.337158 C -39.328711,-69.24764 -39.28558,-69.169515 -39.199317,-69.102783 C -39.113053,-69.036051 -38.969011,-69.002685 -38.767188,-69.002685 C -38.424882,-69.000142 -38.240353,-69.163106 -38.200781,-69.42749 L -37.771094,-69.368896 Q -37.812598,-69.117432 -37.922461,-68.967285 Q -38.032324,-68.817139 -38.263037,-68.729248 Q -38.49375,-68.641357 -38.798926,-68.641357 Q -39.001563,-68.641357 -39.178565,-68.693848 Q -39.355567,-68.746338 -39.458106,-68.822021 C -39.638108,-68.949686 -39.755805,-69.159851 -39.753516,-69.388428 C -39.753516,-69.515381 -39.721371,-69.631348 -39.65708,-69.736328 C -39.59279,-69.841309 -39.498389,-69.923503 -39.373877,-69.98291 C -39.249365,-70.042318 -39.025977,-70.112712 -38.703711,-70.194092 Q -38.344824,-70.284424 -38.254492,-70.343018 C -38.168229,-70.399984 -38.125098,-70.478109 -38.125098,-70.577393 C -38.125098,-70.68807 -38.173926,-70.784505 -38.271582,-70.866699 C -38.369238,-70.948893 -38.518978,-70.98999 -38.720801,-70.98999 C -39.121446,-70.991771 -39.343105,-70.796966 -39.392188,-70.450439" />
      <path d="M -18.192879,-70.812 A 5.8,5.8 0.0 0,1 -6.707121,-70.812 L -9.816976,-70.812 L -12.45,-73.445024 L -15.083024,-70.812 L -18.192879,-70.812" />
      <path d="M -9.816976,-69.188 L -6.707121,-69.188 A 5.8,5.8 0.0 0,1 -18.192879,-69.188 L -15.083024,-69.188 L -12.45,-66.554976 L -9.816976,-69.188" />
      <path d="M 21.2354,-71.263428 L 21.674854,-71.263428 L 21.674854,-68.670654 L 21.2354,-68.670654 L 21.2354,-71.263428" />
      <path d="M 21.2354,-68.189697 L 21.674854,-68.189697 L 21.674854,-67.684326 L 21.2354,-67.684326 L 21.2354,-68.189697" />
      <path d="M 23.366748,-71.258545 L 23.303271,-70.870361 Q 23.183643,-70.887451 23.1104,-70.887451 Q 23.012744,-70.887451 22.960254,-70.855713 Q 22.907764,-70.823975 22.88457,-70.770264 Q 22.861377,-70.716553 22.861377,-70.528564 L 22.861377,-69.012451 L 23.303271,-69.012451 L 23.303271,-68.670654 L 22.861377,-68.670654 L 22.861377,-67.764893 L 22.424365,-68.028564 L 22.424365,-68.670654 L 22.1021,-68.670654 L 22.1021,-69.012451 L 22.424365,-69.012451 L 22.424365,-70.50415 C 22.424365,-70.767822 22.442269,-70.940755 22.478076,-71.022949 C 22.513883,-71.105143 22.575732,-71.171468 22.663623,-71.221924 C 22.805009,-71.300467 23.040974,-71.326796 23.366748,-71.258545" />
      <path d="M 23.6646,-71.849365 L 23.713428,-72.261963 Q 23.869678,-72.315674 23.996631,-72.315674 Q 24.206592,-72.315674 24.357959,-72.214355 Q 24.509326,-72.113037 24.626514,-71.895752 Q 24.714404,-71.734619 24.873096,-71.307373 L 25.859424,-68.670654 L 25.419971,-68.670654 L 24.865771,-70.181885 Q 24.760791,-70.469971 24.685107,-70.772705 Q 24.6021,-70.457764 24.497119,-70.172119 L 23.957568,-68.670654 L 23.483936,-68.670654 L 24.467822,-71.26831 Q 24.440967,-71.339111 24.42876,-71.375732 Q 24.335986,-71.636963 24.294482,-71.702881 C 24.257048,-71.761475 24.209033,-71.807047 24.150439,-71.8396 C 24.047846,-71.89344 23.891806,-71.911493 23.6646,-71.849365" />
      <path d="M 0.305225,-71.258545 L 0.241748,-70.870361 Q 0.122119,-70.887451 0.048877,-70.887451 Q -0.048779,-70.887451 -0.10127,-70.855713 Q -0.15376,-70.823975 -0.176953,-70.770264 Q -0.200146,-70.716553 -0.200146,-70.528564 L -0.200146,-69.012451 L 0.241748,-69.012451 L 0.241748,-68.670654 L -0.200146,-68.670654 L -0.200146,-67.764893 L -0.637158,-68.028564 L -0.637158,-68.670654 L -0.959424,-68.670654 L -0.959424,-69.012451 L -0.637158,-69.012451 L -0.637158,-70.50415 C -0.637158,-70.767822 -0.619255,-70.940755 -0.583447,-71.022949 C -0.54764,-71.105143 -0.485791,-71.171468 -0.3979,-71.221924 C -0.256515,-71.300467 -0.02055,-71.326796 0.305225,-71.258545" />
      <path d="M 0.908252,-68.900146 Q 0.507861,-69.246826 0.507861,-69.967041 Q 0.507861,-70.623779 0.843555,-70.9729 Q 1.179248,-71.322021 1.723682,-71.322021 Q 2.063037,-71.322021 2.349902,-71.16333 Q 2.636768,-71.004639 2.786914,-70.717773 Q 2.937061,-70.430908 2.937061,-69.93042 Q 2.937061,-69.312744 2.597705,-68.962402 Q 2.25835,-68.61206 1.723682,-68.61206 Q 1.242725,-68.61206 0.908252,-68.900146 M 0.959521,-69.967041 Q 0.959521,-69.468994 1.176807,-69.222412 Q 1.394092,-68.97583 1.723682,-68.97583 Q 2.048389,-68.97583 2.266895,-69.223633 Q 2.4854,-69.471435 2.4854,-69.952393 Q 2.4854,-70.462646 2.268115,-70.71167 Q 2.05083,-70.960693 1.723682,-70.960693 Q 1.394092,-70.960693 1.176807,-70.712891 Q 0.959521,-70.465088 0.959521,-69.967041" />
      <path d="M 3.447314,-71.263428 L 3.886768,-71.263428 L 3.886768,-69.906006 Q 3.886768,-69.627685 3.96001,-69.39331 Q 4.008838,-69.239502 4.123584,-69.152832 Q 4.23833,-69.066162 4.382373,-69.066162 Q 4.543506,-69.066162 4.704639,-69.161377 L 4.856006,-68.753662 Q 4.626514,-68.61206 4.404346,-68.61206 Q 4.250537,-68.61206 4.122363,-68.699951 Q 3.994189,-68.787842 3.842822,-69.063721 L 3.842822,-68.670654 L 3.447314,-68.670654 L 3.447314,-71.263428" />
      <path d="M 4.824268,-71.263428 L 5.356494,-71.263428 L 6.037646,-70.240478 L 6.179248,-70.457764 L 6.711475,-71.263428 L 7.251025,-71.263428 L 6.28667,-69.891357 L 7.182666,-68.670654 L 6.657764,-68.670654 L 6.220752,-69.283447 Q 6.13042,-69.407959 6.022998,-69.569092 Q 5.954639,-69.451904 5.842334,-69.278564 L 5.444385,-68.670654 L 4.895068,-68.670654 L 5.771533,-69.915771 L 4.824268,-71.263428" />
      <path d="M 7.731982,-71.263428 L 7.981006,-71.263428 Q 7.973682,-71.485596 7.907764,-71.604004 Q 7.841846,-71.722412 7.702686,-71.783447 L 7.824756,-71.971435 Q 8.037158,-71.878662 8.134814,-71.708984 Q 8.232471,-71.539307 8.232471,-71.263428 L 8.232471,-70.762939 L 7.731982,-70.762939 L 7.731982,-71.263428" />
      <path d="M 9.265186,-70.421143 L 8.830615,-70.489502 Q 8.903857,-70.9021 9.16875,-71.11206 Q 9.433643,-71.322021 9.939014,-71.322021 Q 10.244189,-71.322021 10.485889,-71.21582 Q 10.727588,-71.109619 10.855762,-70.915527 Q 10.983936,-70.721435 10.983936,-70.501709 Q 10.983936,-70.2771 10.878955,-70.125732 Q 10.773975,-69.974365 10.589648,-69.895019 Q 10.405322,-69.815674 9.939014,-69.691162 Q 9.616748,-69.603271 9.55083,-69.578857 Q 9.436084,-69.532471 9.382373,-69.46167 C 9.346566,-69.416097 9.328662,-69.364827 9.328662,-69.307861 C 9.328662,-69.218343 9.371794,-69.140218 9.458057,-69.073486 C 9.54432,-69.006755 9.688363,-68.973389 9.890186,-68.973389 C 10.232491,-68.970845 10.417021,-69.13381 10.456592,-69.398193 L 10.886279,-69.3396 Q 10.844775,-69.088135 10.734912,-68.937988 Q 10.625049,-68.787842 10.394336,-68.699951 Q 10.163623,-68.61206 9.858447,-68.61206 Q 9.655811,-68.61206 9.478809,-68.664551 Q 9.301807,-68.717041 9.199268,-68.792725 C 9.019265,-68.92039 8.901568,-69.130554 8.903857,-69.359131 C 8.903857,-69.486084 8.936003,-69.602051 9.000293,-69.707031 C 9.064583,-69.812012 9.158984,-69.894206 9.283496,-69.953613 C 9.408008,-70.013021 9.631396,-70.083415 9.953662,-70.164795 Q 10.312549,-70.255127 10.402881,-70.313721 C 10.489144,-70.370687 10.532275,-70.448812 10.532275,-70.548096 C 10.532275,-70.658773 10.483447,-70.755208 10.385791,-70.837402 C 10.288135,-70.919596 10.138395,-70.960693 9.936572,-70.960693 C 9.535927,-70.962474 9.314268,-70.76767 9.265186,-70.421143" />
      <path d="M 13.7354,-70.484619 L 13.281299,-70.428467 C 13.147835,-70.802104 12.919971,-70.95815 12.597705,-70.960693 C 12.381234,-70.960693 12.20057,-70.88501 12.055713,-70.733643 C 11.910856,-70.582275 11.83029,-70.364176 11.814014,-70.079346 L 13.747607,-70.079346 Q 13.750049,-70.001221 13.750049,-69.962158 Q 13.750049,-69.320068 13.420459,-68.966064 Q 13.090869,-68.61206 12.57085,-68.61206 Q 12.03374,-68.61206 11.696826,-68.973389 Q 11.359912,-69.334717 11.359912,-69.989014 Q 11.359912,-70.621338 11.693164,-70.97168 Q 12.026416,-71.322021 12.595264,-71.322021 Q 13.046924,-71.322021 13.337451,-71.102295 Q 13.627979,-70.882568 13.7354,-70.484619 M 13.286182,-69.718018 L 11.838428,-69.718018 Q 11.8604,-69.378662 12.066699,-69.176025 Q 12.272998,-68.973389 12.575732,-68.973389 Q 12.910205,-68.973389 13.120166,-69.227295 Q 13.256885,-69.390869 13.286182,-69.718018" />
      <path d="M 16.411182,-70.369873 L 15.979053,-70.313721 C 15.948128,-70.533447 15.874886,-70.696208 15.759326,-70.802002 C 15.643766,-70.907796 15.499723,-70.960693 15.327197,-70.960693 C 15.112354,-70.960693 14.9382,-70.881755 14.804736,-70.723877 C 14.671273,-70.565999 14.604541,-70.312907 14.604541,-69.9646 C 14.604541,-69.621175 14.673714,-69.370117 14.812061,-69.211426 C 14.950407,-69.052734 15.130257,-68.973389 15.351611,-68.973389 C 15.641528,-68.973134 15.864103,-69.150238 15.942432,-69.498291 L 16.369678,-69.432373 Q 16.293994,-69.039307 16.025439,-68.825684 Q 15.756885,-68.61206 15.334521,-68.61206 Q 15.000049,-68.61206 14.715625,-68.769531 Q 14.431201,-68.927002 14.292041,-69.241943 Q 14.152881,-69.556885 14.152881,-69.976807 Q 14.152881,-70.626221 14.476367,-70.974121 Q 14.799854,-71.322021 15.33208,-71.322021 Q 15.756885,-71.322021 16.048633,-71.069336 Q 16.340381,-70.81665 16.411182,-70.369873" />
      <path d="M 18.486377,-71.263428 L 18.879443,-71.263428 L 18.879443,-68.670654 L 18.43999,-68.670654 L 18.43999,-70.059814 Q 18.43999,-70.391846 18.367969,-70.566406 Q 18.295947,-70.740967 18.122607,-70.842285 Q 17.949268,-70.943603 17.751514,-70.943603 Q 17.55376,-70.943603 17.419482,-70.844727 Q 17.285205,-70.74585 17.243701,-70.57251 Q 17.216846,-70.452881 17.216846,-70.108643 L 17.216846,-68.670654 L 16.777393,-68.670654 L 16.777393,-70.2771 Q 16.777393,-70.557861 16.804248,-70.687256 Q 16.843311,-70.880127 16.939746,-71.013184 Q 17.036182,-71.14624 17.235156,-71.234131 Q 17.434131,-71.322021 17.663623,-71.322021 Q 18.183643,-71.322021 18.486377,-70.882568 L 18.486377,-71.263428" />
      <path d="M 19.563037,-71.263428 L 20.00249,-71.263428 L 20.00249,-69.906006 Q 20.00249,-69.627685 20.075732,-69.39331 Q 20.124561,-69.239502 20.239307,-69.152832 Q 20.354053,-69.066162 20.498096,-69.066162 Q 20.659229,-69.066162 20.820361,-69.161377 L 20.971729,-68.753662 Q 20.742236,-68.61206 20.520068,-68.61206 Q 20.36626,-68.61206 20.238086,-68.699951 Q 20.109912,-68.787842 19.958545,-69.063721 L 19.958545,-68.670654 L 19.563037,-68.670654 L 19.563037,-71.263428" />
      <circle cx="37.35" cy="-70.0" r="0.8119999999999999" />
    </g>
  </g>
</svg>