<svg xmlns="http://www.w3.org/2000/svg" width="233.63" height="378.29" viewBox="-67.33 -3.37 118.12 191.26"><g stroke="none" stroke-linecap="round" stroke-width="0"><path d="M39 182a5.8 5.8 0 0 0-11.6 0 5.8 5.8 0 0 0 11.6 0m-2.61 0a3.19 3.19 0 0 1-6.38 0 3.19 3.19 0 0 1 6.38 0M-36.27 1.81h.7v-.7h-.7zM-34.33 1.81h.7v-.7h-.7zM-32.38 1.81h.7v-.7h-.7zM-28.94.28v-.56a.7.7 0 0 1-.43-.14.7.7 0 0 1-.22-.37 5 5 0 0 1-.05-.85q0-.61-.05-.89a.8.8 0 0 0-.55-.7q-.15-.05-.48-.05h-.2v.53h.11q.33 0 .44.1.1.08.13.31.02.13.02.8 0 .73.16 1.04t.55.5q-.3.13-.46.35-.17.23-.22.61-.03.23-.03 1.08 0 .45-.12.58t-.47.13h-.1v.53h.19q.29 0 .42-.03.2-.06.31-.16.13-.1.21-.28.09-.17.12-.46l.02-.75q0-.57.05-.8t.22-.38.43-.14M-28.19 1.81h.67V-.4h.76q.26 0 .37.02.16.04.3.13.15.1.34.34t.48.69l.66 1.04h.84l-.87-1.36q-.26-.4-.55-.67-.14-.12-.4-.25.72-.1 1.06-.46.35-.37.35-.9 0-.42-.21-.76t-.56-.47-1.02-.14h-2.22zm.67-2.8v-1.66h1.58q.56 0 .82.23t.25.59q0 .24-.13.45-.13.2-.39.3-.25.1-.7.1zM-42.63 1.81h3.13v-.59h-2.47V-3.2h-.66zM-39.05-.28v.56q.26 0 .43.14t.22.37q.05.24.05.85t.05.89c.05.36.26.6.55.7q.15.05.48.05h.2v-.53h-.11q-.32 0-.44-.1-.1-.09-.13-.32-.02-.13-.02-.8 0-.73-.17-1.05t-.54-.48q.32-.15.46-.35t.21-.57q.04-.23.04-1.13 0-.44.12-.57t.47-.13h.1v-.53h-.19q-.29 0-.42.03-.2.05-.31.16-.13.1-.21.28-.08.17-.12.46l-.02.75q0 .57-.05.8-.12.5-.65.52M16.6 2.5h3.13v-.59h-2.47V-2.5h-.66zM45.38 2.5h.67V.29h.77q.25 0 .37.02.15.04.3.14t.33.33q.2.24.48.7l.67 1.04h.83l-.87-1.37q-.26-.4-.55-.66-.14-.13-.4-.25.72-.1 1.06-.47.35-.36.35-.9 0-.41-.2-.75-.22-.35-.57-.48-.34-.14-1.01-.14h-2.23zm.67-2.8v-1.66h1.58q.56 0 .82.23t.26.58q0 .24-.14.45-.13.2-.39.3-.25.1-.7.1zM-32.6 15.22h-2.46q.1-.17.26-.33.15-.17.7-.63.67-.56.96-.89t.4-.6q.13-.3.13-.6 0-.59-.42-.99t-1.14-.4-1.14.37q-.43.37-.5 1.08l.64.06q0-.47.27-.73.27-.27.71-.27.42 0 .68.25t.27.62q0 .35-.3.74-.28.39-1.1 1.06-.52.43-.8.76t-.4.66q-.08.2-.08.43h3.31zM-31.6 15.81h.7v-.7h-.7zM-29.35 14.44l-.65.06q.06.63.5 1.01.43.39 1.1.39.84 0 1.32-.61.4-.5.4-1.18 0-.71-.45-1.17t-1.1-.45q-.5 0-.95.31l.27-1.34h2v-.6h-2.5l-.48 2.58.58.08q.13-.22.37-.35.24-.14.54-.14.48 0 .77.3.3.31.3.84 0 .55-.3.89-.32.33-.76.33-.37 0-.63-.24t-.33-.7M-24.26 14.28v-.56a.7.7 0 0 1-.43-.14.7.7 0 0 1-.22-.37 5 5 0 0 1-.06-.85q0-.61-.04-.89a.8.8 0 0 0-.55-.7q-.15-.05-.49-.05h-.19v.53h.1q.33 0 .44.1.12.08.14.31.02.13.02.8 0 .73.16 1.04t.55.5q-.3.13-.46.35-.17.23-.22.61-.03.23-.03 1.08 0 .45-.12.58t-.47.13h-.1v.53h.18q.3 0 .43-.03.19-.06.31-.16.13-.1.2-.28.1-.17.12-.46.02-.18.02-.75t.06-.8.22-.38.43-.14M-23.59 17.2h1.36v-.5h-.74V11.3h.74v-.5h-1.36zM-42.81 17.2v-6.4h-1.36v.51h.74v5.38h-.74v.51zM-42.17 13.72v.56q.27 0 .43.14.17.15.22.37.06.24.06.85t.05.89q.1.55.55.7.15.05.48.05h.2v-.53h-.11q-.33 0-.44-.1-.1-.09-.14-.32l-.01-.8q0-.73-.17-1.05t-.54-.48q.31-.15.46-.35t.21-.57q.04-.23.04-1.13 0-.44.12-.57t.47-.13h.1v-.53h-.19q-.3 0-.42.03-.2.05-.32.16t-.2.28-.12.46q-.01.18-.02.75 0 .57-.06.8-.12.5-.65.52M-37.41 15.81v-5.03h-.4q-.16.32-.55.67-.38.35-.9.59v.6q.29-.11.65-.33.36-.2.58-.42v3.92zM26.95 17.2v-6.4h-1.36v.5h.74v5.4h-.74v.5zM39.45 17.2h1.36v-.5h-.74v-5.4h.74v-.5h-1.36zM-37.33 29.09h.61v-.71h-.61zM-35.78 33.39h.62V31.4q0-.7.28-.95t.68-.25q.25 0 .43.11t.25.3.08.56v2.2h.61v-2.22q0-.43-.03-.6-.06-.26-.2-.46-.13-.19-.4-.3-.28-.12-.61-.12-.76 0-1.16.6v-.52h-.55zM-27.25 25.8l-.64-.08q-.14.39-.38.56t-.58.18q-.45 0-.75-.32-.3-.31-.34-.91h2.7v-.17q0-.9-.45-1.39-.47-.5-1.2-.5-.75 0-1.22.51-.47.5-.47 1.42 0 .89.47 1.38t1.26.49q.63 0 1.04-.3.4-.32.56-.87m-.63-1.08h-2.03q.03-.47.32-.76.29-.28.71-.28.47 0 .77.36.19.22.23.68M-26.33 26.89h.6v-3.15h.72v-.48h-.71v-.34q0-.33.11-.45t.4-.12q.17 0 .36.04l.1-.54q-.32-.06-.58-.06-.4 0-.63.15t-.3.39q-.07.17-.07.54v.39h-.55v.48h.55zM-23.1 26.88l-.1-.54-.26.02q-.14 0-.21-.04-.08-.05-.1-.12-.04-.08-.04-.34v-2.12h.62v-.48h-.62v-1.27l-.61.37v.9h-.45v.48h.45v2.08q0 .56.07.73t.26.28q.19.1.52.1.2 0 .47-.05M-43.3 24.8v.55q.27 0 .43.15.17.13.22.37.06.24.06.85 0 .6.05.88c.05.36.26.6.55.7q.15.06.48.06h.2v-.54h-.11q-.33 0-.44-.09-.11-.1-.14-.32l-.01-.8q0-.73-.17-1.05t-.55-.48q.32-.16.47-.36t.21-.56q.04-.24.04-1.13 0-.45.11-.57.12-.13.48-.13h.1v-.54h-.19q-.3 0-.42.03-.2.06-.32.16t-.2.28-.12.46q-.02.18-.02.76 0 .56-.06.8-.11.48-.65.51M-40.77 24.7l3.32 1.41v-.6l-2.63-1.1 2.63-1.08v-.61l-3.32 1.4zM-34.93 25.35v-.56a.7.7 0 0 1-.43-.14.7.7 0 0 1-.22-.37 5 5 0 0 1-.05-.85q0-.6-.05-.88a.8.8 0 0 0-.55-.7q-.15-.06-.48-.06h-.2v.54h.11q.33 0 .44.09t.13.32q.02.13.02.8 0 .73.16 1.04.16.3.55.5-.3.12-.46.35t-.22.6q-.03.23-.03 1.09 0 .45-.12.57-.11.13-.47.13h-.1v.54h.19q.29 0 .42-.04.2-.05.31-.16.13-.1.21-.27.09-.18.12-.47l.02-.75q0-.57.05-.8t.22-.37.43-.15M-34.22 26.89h3.14v-.6h-2.47v-4.41h-.67zM-28.77 32.3l-.63-.08q-.14.39-.38.57t-.58.18q-.45 0-.76-.32-.3-.32-.34-.92h2.71v-.16q0-.9-.46-1.4t-1.19-.5q-.75 0-1.22.51-.47.5-.47 1.43 0 .88.47 1.37t1.26.5q.63 0 1.04-.32.4-.3.55-.86m-.62-1.07h-2.03q.03-.48.32-.76t.71-.29q.47 0 .76.36.2.23.24.69M-27.63 32.21l-.6.1q.1.57.46.87.38.3 1.08.3.43 0 .77-.16.34-.15.52-.42t.18-.58-.15-.52-.4-.33-.92-.28q-.45-.12-.54-.16-.16-.06-.24-.16t-.07-.22q0-.19.18-.33t.6-.14q.36 0 .56.16t.24.44l.6-.08q-.06-.36-.21-.57-.16-.2-.48-.33-.32-.12-.75-.12-.28 0-.53.07t-.4.18q-.18.14-.3.34-.1.21-.1.45 0 .27.13.49t.4.35.93.3q.5.12.63.2.18.12.18.33 0 .23-.2.4t-.63.18q-.84-.01-.94-.76M-41.18 33.39h3.14v-.6h-2.47v-4.41h-.67zM-37.33 33.39h.61v-3.63h-.61zM22 33.39h.61V31.4q0-.7.29-.95t.68-.25q.24 0 .43.11.18.11.25.3t.07.56v2.2h.62v-2.22q0-.43-.04-.6-.05-.26-.19-.46-.14-.19-.41-.3-.28-.12-.6-.12-.76 0-1.16.6v-.52H22zM23.56 26.5l-.63-.09q-.14.4-.38.57-.24.18-.58.18-.45 0-.76-.32-.3-.32-.34-.92h2.7l.01-.16q0-.9-.46-1.4t-1.19-.49q-.75 0-1.22.5-.47.51-.47 1.43 0 .88.46 1.37t1.27.5q.63 0 1.04-.31.4-.31.55-.87m-.63-1.07h-2.02q.03-.48.32-.76t.7-.28q.48 0 .77.35.2.23.23.69M24.48 27.58h.61v-3.15h.71v-.48h-.7v-.33q0-.33.11-.45t.4-.12q.17 0 .36.03l.1-.53q-.32-.06-.58-.06-.4 0-.63.14t-.31.4q-.07.17-.07.54v.38h-.54v.48h.54zM27.71 27.58l-.09-.55q-.16.03-.27.03-.13 0-.2-.05-.08-.04-.11-.12-.04-.07-.04-.34v-2.12h.62v-.48H27v-1.27l-.6.37v.9h-.46v.48h.45v2.09q0 .55.08.73t.26.27.52.11q.2 0 .46-.05M16.6 27.58h3.13V27h-2.47v-4.42h-.66zM29.01 32.3l-.64-.08q-.14.39-.37.57-.24.18-.58.18-.46 0-.76-.32t-.34-.92h2.7l.01-.16q0-.9-.46-1.4t-1.19-.5q-.75 0-1.22.51-.48.5-.48 1.43 0 .88.47 1.37t1.26.5q.64 0 1.04-.32.41-.3.56-.86m-.63-1.07h-2.03q.04-.48.32-.76.3-.29.72-.29.47 0 .76.36.2.23.23.69M30.15 32.21l-.61.1q.1.57.47.87t1.08.3q.43 0 .76-.16.34-.15.52-.42t.18-.58-.15-.52-.4-.33-.91-.28q-.45-.12-.54-.16-.17-.06-.24-.16-.08-.1-.08-.22 0-.19.19-.33.18-.14.6-.14.36 0 .56.16t.23.44l.6-.08q-.05-.36-.2-.57t-.48-.33q-.33-.12-.75-.12-.29 0-.54.07-.24.07-.39.18-.19.14-.3.34t-.11.45q0 .27.13.49.14.22.4.35t.94.3q.5.12.63.2.18.12.18.33 0 .23-.2.4t-.63.18q-.85-.01-.94-.76M16.6 33.39h3.13v-.6h-2.47v-4.41h-.66zM20.45 29.09h.61v-.71h-.61zM20.45 33.39h.61v-3.63h-.61zM-31.54 39.5h.61v-.7h-.61zM-31.54 43.81h.61v-3.63h-.61zM-29.5 44.2l-.6-.09q-.02.59.38.88t1.05.3q.55 0 .93-.21.37-.2.54-.56.17-.35.17-1.2v-3.14h-.56v.44q-.42-.52-1.06-.52-.48 0-.84.24t-.55.68-.18.96q0 .75.4 1.3.42.53 1.16.53.6 0 1-.47.01.6-.04.79-.08.3-.31.47-.23.18-.66.18-.4 0-.62-.18-.18-.12-.21-.4m-.1-2.27q0-.65.3-.99.28-.33.7-.33.4 0 .7.34t.3 1q0 .7-.29 1.03-.28.32-.7.32-.43 0-.72-.33-.28-.32-.28-1.04M-26.1 43.81h.62v-1.98q0-.43.1-.67t.35-.39.51-.14q.37 0 .57.21t.2.67v2.3h.61v-2.3q0-.53-.13-.81t-.42-.44-.7-.16q-.66 0-1.1.5v-1.8h-.6zM-20.77 43.8l-.09-.54q-.17.03-.27.03-.14 0-.21-.05-.07-.04-.1-.12-.04-.07-.04-.34v-2.12h.62v-.48h-.62v-1.27l-.61.37v.9h-.45v.48h.45v2.09q0 .55.08.72.07.18.26.28.18.1.51.1.21 0 .47-.05M-45.63 41.72v.56q.27 0 .43.14t.22.37q.06.24.06.85t.04.89q.1.55.55.7.15.05.49.05h.19v-.53h-.1q-.33 0-.44-.1-.11-.09-.14-.32l-.01-.8q0-.73-.17-1.05t-.55-.48q.32-.15.47-.35t.2-.57q.05-.23.05-1.13 0-.44.11-.57t.47-.13h.11v-.53h-.2q-.29 0-.42.03-.19.05-.31.16t-.2.28q-.1.17-.12.46-.02.18-.02.75t-.06.8q-.11.5-.65.52M-39.78 41.62v-.57l-3.32-1.4v.6l2.62 1.09-2.62 1.09v.6zM-37.26 42.28v-.56a.7.7 0 0 1-.43-.14.7.7 0 0 1-.22-.37 5 5 0 0 1-.06-.85q0-.61-.04-.89a.8.8 0 0 0-.55-.7q-.15-.05-.49-.05h-.19v.53h.1q.33 0 .44.1.11.08.14.31.02.13.02.8 0 .73.16 1.04t.55.5q-.3.13-.46.35-.17.23-.22.61-.03.23-.03 1.08 0 .45-.12.58t-.47.13h-.1v.53h.18q.3 0 .43-.03.19-.06.31-.16t.2-.28q.1-.17.12-.46.02-.18.02-.75t.06-.8.22-.38.43-.14M-36.51 43.81h.66V41.6h.77q.26 0 .37.02.15.04.3.13.15.1.34.34t.48.69l.66 1.04h.84l-.88-1.36q-.26-.4-.55-.67-.13-.12-.4-.25.73-.1 1.07-.46.35-.37.35-.9 0-.42-.21-.76t-.56-.47-1.02-.14h-2.22zm.66-2.8v-1.66h1.59q.56 0 .81.23.26.23.26.59 0 .24-.13.45-.13.2-.4.3-.25.1-.7.1zM39.03 39.47h.62v-.71h-.62zM41.07 44.16l-.6-.09q-.01.59.39.88t1.04.3q.55 0 .93-.21.37-.2.54-.56t.18-1.2v-3.14h-.57v.44q-.42-.52-1.06-.52-.48 0-.84.24t-.55.67-.18.96q0 .76.4 1.3.42.54 1.16.54.6 0 1.01-.48 0 .6-.04.8-.09.3-.32.47t-.66.17q-.4 0-.62-.17-.18-.12-.21-.4m-.1-2.27q0-.66.3-1 .28-.32.7-.32t.7.33q.3.34.3 1 0 .7-.29 1.03t-.7.33-.72-.33-.28-1.04M44.47 43.77h.62v-1.99q0-.42.1-.67.1-.24.35-.38t.51-.14q.37 0 .57.2.2.22.2.68v2.3h.61v-2.3q0-.53-.13-.81-.12-.29-.42-.44t-.7-.16q-.66 0-1.09.5v-1.8h-.62zM49.8 43.76l-.09-.54-.27.02q-.14 0-.2-.04-.08-.05-.12-.12-.03-.08-.03-.34v-2.12h.62v-.48h-.62v-1.27l-.6.37v.9h-.46v.48h.45v2.09q0 .55.08.72t.26.28.52.1q.2 0 .46-.05M34.06 43.77h.66v-2.23h.77q.26 0 .37.03.16.04.3.13.15.1.34.34t.48.69l.66 1.04h.84l-.88-1.36q-.26-.4-.55-.67-.13-.12-.4-.25.73-.1 1.07-.47.35-.36.35-.9 0-.4-.21-.75t-.56-.48-1.02-.13h-2.22zm.66-2.8v-1.65h1.59q.56 0 .81.23.26.23.26.59 0 .24-.13.44t-.39.3-.71.1zM39.03 43.77h.62v-3.63h-.62zM-32.14 59.28h.44q-1.02-1.64-1.02-3.28 0-.65.14-1.29.12-.5.33-.98.14-.3.55-1.01h-.44q-.64.85-.95 1.72-.27.74-.27 1.56 0 .92.36 1.78.35.86.86 1.5M-30.54 56.4l-.61.09q.06.62.5 1.02.43.39 1.09.39.73 0 1.2-.46.49-.45.49-1.1 0-.5-.25-.82t-.69-.42q.34-.16.52-.43.17-.26.17-.59 0-.34-.18-.64t-.53-.48-.76-.18q-.59 0-.99.34t-.51.96l.61.1q.07-.44.31-.67.24-.22.6-.22t.59.22.23.56q0 .43-.32.63-.31.2-.7.2h-.1l-.07.54q.26-.07.43-.07.43 0 .7.28.28.27.28.7 0 .44-.3.74t-.73.3q-.36 0-.62-.23-.25-.23-.36-.75M-26.62 56.44l-.64.06q.06.63.49 1.01.43.39 1.12.39.83 0 1.31-.61.4-.5.4-1.18 0-.71-.45-1.17t-1.11-.45q-.5 0-.95.31l.27-1.34h2v-.6h-2.49l-.49 2.58.58.08q.14-.22.38-.35.24-.14.53-.14.48 0 .78.3.3.31.3.84 0 .55-.31.89t-.75.33q-.37 0-.64-.24-.26-.23-.33-.7M-23.24 59.28h.44q.5-.64.86-1.5t.36-1.78q0-.82-.27-1.56-.3-.87-.95-1.72h-.44q.42.71.55 1.02.21.47.33.99.14.63.14 1.27 0 1.64-1.02 3.28M-19.2 56.28v-.56a.7.7 0 0 1-.42-.14.7.7 0 0 1-.22-.37 5 5 0 0 1-.06-.85q0-.61-.05-.89a.8.8 0 0 0-.54-.7q-.15-.05-.49-.05h-.19v.53h.1q.33 0 .44.1.11.08.14.31l.01.8q0 .73.16 1.04t.56.5q-.3.13-.47.35-.16.23-.22.61-.03.23-.03 1.08 0 .45-.11.58t-.47.13h-.11v.53h.2q.28 0 .41-.03.2-.06.32-.16t.2-.28.12-.46q.02-.18.02-.75t.06-.8.22-.38.43-.14M-47.2 55.72v.56q.26 0 .42.14t.22.37q.06.24.06.85t.05.89q.09.55.54.7.15.05.49.05h.19v-.53h-.1q-.33 0-.44-.1-.11-.09-.14-.32l-.01-.8q0-.73-.17-1.05t-.55-.48q.32-.15.47-.35t.2-.57q.05-.23.05-1.13 0-.44.11-.57t.47-.13h.11v-.53h-.2q-.28 0-.41.03-.2.05-.32.16t-.2.28-.12.46q-.02.18-.02.75t-.06.8q-.12.5-.65.52M-44.04 57.81v-.45q.37.53 1.01.53.65 0 1.1-.5.47-.52.47-1.45 0-.38-.1-.74c-.16-.46-.4-.79-.8-.97q-.3-.13-.64-.13-.6 0-1 .49V52.8h-.6v5.01zm.17-.9q-.17-.29-.17-.94 0-.66.29-1.01.3-.35.7-.35t.68.33.28 1.05q0 .7-.3 1.05-.29.35-.69.35-.5 0-.79-.48M-40.38 54.5q-.56.49-.56 1.5 0 .92.47 1.4.47.5 1.23.5.48 0 .88-.23.4-.22.61-.62t.21-1.1q0-.87-.47-1.36-.48-.49-1.23-.49-.67 0-1.14.4m.07 1.5q0-.7.3-1.05.31-.34.77-.34t.76.35q.3.34.3 1.02 0 .71-.3 1.06t-.76.35-.76-.35-.3-1.04M-37.23 57.81h.75l.95-1.43.2.3.74 1.13h.76l-1.35-1.92 1.25-1.7h-.73l-.61.85-.28.4-.25-.4-.56-.86h-.77l1.23 1.74zM15.7 50.77v10.46h35V50.77zM-34.88 71.81h.62v-1.98q0-.43.1-.67t.34-.39.52-.14q.36 0 .56.21t.2.67v2.3h.62v-2.3q0-.53-.13-.81t-.43-.44-.7-.16q-.65 0-1.08.5v-1.8h-.62zM-27.87 70.72l-.63-.08q-.14.4-.38.57-.24.18-.58.18-.45 0-.76-.32-.3-.32-.34-.92h2.71V70q0-.9-.46-1.4t-1.19-.49q-.75 0-1.22.5-.47.51-.47 1.43 0 .88.46 1.37t1.27.5q.63 0 1.04-.31.4-.31.55-.87m-.63-1.07h-2.02q.03-.48.32-.76t.71-.28q.47 0 .76.35.2.23.23.69M-26.42 69.81q-.25.07-.44.2-.2.14-.32.36t-.12.48q0 .46.32.75.32.3.92.3.36 0 .68-.13.31-.12.65-.4.03.25.13.44h.64q-.12-.2-.16-.43-.03-.23-.03-1.09v-.82q0-.41-.04-.57-.05-.25-.19-.42-.13-.16-.42-.27-.3-.11-.76-.11t-.82.13-.55.36-.27.63l.6.08q.1-.39.31-.54t.64-.15q.47 0 .7.2.18.16.18.54v.16q-.36.12-1.1.21-.37.04-.55.1m1.64.17v.23q0 .4-.1.61-.13.27-.4.43-.28.15-.63.15-.36 0-.55-.16-.19-.17-.19-.41 0-.16.09-.3t.24-.2.54-.12q.67-.1 1-.23M-20.85 71.81h.58v-5h-.62v1.79q-.16-.22-.41-.36-.26-.14-.59-.14-.45 0-.8.24-.37.23-.55.67t-.18.99q0 .56.2.99t.56.66.8.24q.67 0 1.01-.54zM-22.79 70q0-.72.27-1.06.28-.33.69-.33.42 0 .7.35.3.35.3 1.1 0 .67-.29 1t-.68.33-.7-.35-.3-1.04M-17.63 70.28v-.56a.7.7 0 0 1-.43-.14.7.7 0 0 1-.22-.37 5 5 0 0 1-.06-.85q0-.61-.04-.89a.8.8 0 0 0-.55-.7q-.15-.05-.49-.05h-.19v.53h.1q.33 0 .44.1.11.08.14.31.02.13.02.8 0 .73.16 1.04t.55.5q-.3.13-.47.35-.16.23-.21.61-.03.23-.03 1.08 0 .45-.12.58t-.47.13h-.1v.53h.18q.3 0 .43-.03.19-.06.31-.16t.2-.28q.1-.17.12-.46.02-.18.02-.75t.06-.8.22-.38.43-.14M-48.77 69.72v.56q.26 0 .43.14t.22.37q.05.24.06.85t.04.89q.1.55.55.7.15.05.49.05h.19v-.53h-.1q-.33 0-.44-.1-.11-.09-.14-.32-.02-.13-.02-.8 0-.73-.16-1.05-.17-.32-.55-.48.32-.15.47-.35t.2-.57q.04-.23.04-1.13 0-.44.12-.57t.47-.13h.1v-.53h-.18q-.3 0-.43.03-.19.05-.31.16t-.2.28q-.1.17-.12.46-.02.18-.02.75t-.06.8q-.11.5-.65.52M-46.17 71.81h.62v-1.98q0-.43.1-.67t.35-.39.51-.14q.37 0 .57.21t.2.67v2.3h.61v-2.3q0-.53-.13-.81t-.42-.44-.7-.16q-.66 0-1.1.5v-1.8h-.6zM-39.15 70.72l-.64-.08q-.14.4-.38.57-.24.18-.58.18-.45 0-.75-.32t-.34-.92h2.7V70q0-.9-.45-1.4-.46-.49-1.2-.49t-1.22.5q-.47.51-.47 1.43 0 .88.47 1.37t1.26.5q.63 0 1.04-.31.4-.31.56-.87m-.63-1.07h-2.03q.03-.48.32-.76t.71-.28q.47 0 .77.35.19.23.23.69M-38.79 71.81h.75l.95-1.43.2.3.74 1.13h.76l-1.35-1.92 1.25-1.7h-.73l-.62.85-.27.4-.25-.4-.56-.86h-.77l1.23 1.74zM39 70l-2.9-5.02h-5.8L27.4 70l2.9 5.02h5.8zM-40.2 83.72v.56q.26 0 .42.14.17.15.22.37.06.24.06.85t.05.89c.05.36.26.6.55.7q.15.05.48.05h.2v-.53h-.11q-.33 0-.44-.1-.11-.09-.14-.32l-.01-.8q0-.73-.17-1.05t-.55-.48q.32-.15.47-.35t.21-.57q.04-.23.04-1.13 0-.44.11-.57t.48-.13h.1v-.53h-.19q-.3 0-.42.03-.2.05-.32.16t-.2.28-.12.46q-.02.18-.02.75t-.06.8q-.12.5-.65.52M-37.6 85.81h.61v-1.98q0-.7.29-.95t.68-.25q.24 0 .43.11.18.11.25.3t.07.56v2.21h.62v-2.23q0-.43-.04-.6-.05-.26-.19-.45-.13-.2-.41-.31-.28-.12-.6-.12-.76 0-1.16.6v-.52h-.55zM-31.33 85.81h.55v-3.63h-.62v1.95q0 .46-.1.7-.1.25-.34.4-.24.13-.52.13t-.46-.13q-.2-.14-.25-.39-.04-.16-.04-.65v-2h-.61v2.24q0 .4.03.57.06.27.2.46.13.19.4.31.29.12.6.12.74 0 1.16-.61zM-28.38 85.8l-.1-.54q-.16.03-.26.03-.14 0-.21-.05-.08-.04-.1-.12-.04-.07-.04-.34v-2.12h.62v-.48h-.62v-1.27l-.61.37v.9h-.45v.48h.45v2.09q0 .55.07.72.08.18.26.28.19.1.52.1.2 0 .47-.05M-26.2 84.28v-.56a.7.7 0 0 1-.42-.14.7.7 0 0 1-.22-.37 5 5 0 0 1-.06-.85q0-.61-.05-.89a.8.8 0 0 0-.55-.7q-.15-.05-.48-.05h-.2v.53h.11q.33 0 .44.1.11.08.13.31.02.13.02.8 0 .73.16 1.04t.56.5q-.3.13-.47.35-.16.23-.22.61-.03.23-.03 1.08 0 .45-.11.58t-.48.13h-.1v.53h.19q.3 0 .42-.03.2-.06.32-.16t.2-.28.12-.46q.02-.18.02-.75t.06-.8.22-.38.43-.14M39 84l-2.9-5.02h-5.8L27.4 84l2.9 5.02h5.8zm-3.48 0a2.32 2.32 0 0 1-4.64 0 2.32 2.32 0 0 1 4.64 0M-28.48 98.63l-.61.1q.1.58.47.87t1.08.3q.43 0 .76-.16.34-.14.52-.42t.18-.57q0-.32-.15-.53t-.4-.32-.91-.29q-.45-.12-.55-.16-.16-.06-.23-.16t-.08-.22q0-.18.19-.32.18-.14.6-.14.36 0 .56.15.2.16.23.44l.6-.08q-.05-.35-.2-.56t-.48-.34q-.33-.12-.75-.12-.29 0-.54.07-.24.08-.39.18-.19.14-.3.35t-.11.45q0 .26.13.48.14.22.4.35t.94.3q.5.12.63.2.18.13.18.33 0 .24-.2.4-.21.18-.63.18-.85-.01-.94-.76M-25.35 99.81h.62v-1.98q0-.43.1-.67t.34-.39.52-.14q.36 0 .56.21t.2.67v2.3h.62v-2.3q0-.53-.13-.81t-.42-.44-.7-.16q-.66 0-1.1.5v-1.8h-.6zM-18.33 98.72l-.64-.08q-.14.4-.38.57-.24.18-.58.18-.45 0-.76-.32-.3-.32-.33-.92h2.7V98q0-.9-.45-1.4-.47-.49-1.2-.49-.75 0-1.22.5-.47.51-.47 1.43 0 .88.47 1.37t1.26.5q.63 0 1.04-.31.4-.31.56-.87m-.63-1.07H-21q.03-.48.32-.76t.71-.28q.47 0 .77.35.19.23.23.69M-17.57 99.81h.62v-1.9q0-.39.1-.72.07-.21.23-.33t.36-.12q.23 0 .45.13l.21-.57q-.32-.2-.63-.2-.21 0-.4.12-.17.13-.38.51v-.55h-.56zM-13.55 98.28v-.56a.7.7 0 0 1-.43-.14.7.7 0 0 1-.22-.37 5 5 0 0 1-.06-.85q0-.61-.05-.89a.8.8 0 0 0-.54-.7q-.15-.05-.49-.05h-.2v.53h.12q.32 0 .43.1.11.08.14.31l.01.8q0 .73.16 1.04t.56.5q-.3.13-.47.35-.16.23-.22.61-.03.23-.03 1.08 0 .45-.11.58t-.47.13h-.11v.53h.2q.28 0 .41-.03.2-.06.32-.16t.2-.28.12-.46q.02-.18.02-.75t.06-.8.22-.38.43-.14M-52.85 97.72v.56q.27 0 .43.14t.22.37q.06.24.06.85t.05.89c.05.36.26.6.54.7q.15.05.49.05h.2v-.53h-.12q-.32 0-.43-.1-.11-.09-.14-.32l-.01-.8q0-.73-.17-1.05t-.55-.48q.32-.15.47-.35t.2-.57q.05-.23.05-1.13 0-.44.11-.57t.47-.13h.11v-.53h-.2q-.28 0-.41.03-.2.05-.32.16t-.2.28-.12.46q-.02.18-.02.75t-.06.8q-.11.5-.65.52M-50.26 99.81h.62v-5h-.62zM-48.36 96.5q-.56.49-.56 1.5 0 .92.47 1.4.47.5 1.23.5.48 0 .88-.23.4-.22.61-.62t.21-1.1q0-.87-.47-1.36-.48-.49-1.23-.49-.67 0-1.14.4m.07 1.5q0-.7.3-1.05.31-.34.77-.34t.77.35q.3.34.3 1.02 0 .71-.3 1.06t-.77.35-.76-.35-.3-1.04M-41.82 98.56l-.6-.08q-.07.46-.31.69-.25.22-.6.22-.46 0-.74-.33-.28-.34-.28-1.07 0-.72.29-1.05t.75-.33q.31 0 .53.18t.3.55l.6-.1q-.1-.54-.48-.84t-.97-.3q-.47 0-.87.22t-.59.66-.2 1.03q0 .9.46 1.4.45.48 1.2.48.6 0 1-.35t.5-.98M-41.3 99.81h.62v-1.44l.44-.41 1.2 1.85h.76l-1.53-2.28 1.39-1.35h-.8l-1.46 1.48V94.8h-.61zM-37.13 99.81h.65l.73-2.8.14.63.58 2.17h.64l1.13-3.63h-.6l-.62 2.1-.2.7-.19-.7-.54-2.1h-.63l-.58 2.13-.19.75-.21-.78-.58-2.1h-.64zM-32.07 97.81q-.24.07-.44.2-.2.14-.32.36t-.12.48q0 .46.32.75.32.3.92.3.36 0 .68-.13.32-.12.66-.4.03.25.12.44h.64q-.11-.2-.15-.43t-.04-1.09v-.82q0-.41-.03-.57-.06-.25-.2-.42-.13-.16-.42-.27-.3-.11-.76-.11t-.82.13q-.35.13-.54.36-.2.24-.27.63l.6.08q.1-.39.3-.54.21-.15.65-.15.46 0 .7.2.17.16.17.54v.16q-.35.12-1.1.21-.37.04-.55.1m1.65.17v.23q0 .4-.1.61-.13.27-.4.43-.29.15-.64.15t-.55-.16q-.18-.17-.18-.41 0-.16.08-.3t.25-.2.53-.12q.67-.1 1-.23M29.36 93.65a5.8 5.8 0 1 0 1.36-.9l2.08 2.08a3.19 3.19 0 1 1-1.58.67zM-34.2 114.2l-.6-.09q-.01.59.39.88t1.05.3q.54 0 .92-.21.37-.2.54-.56.18-.35.18-1.2v-3.14h-.57v.44q-.42-.52-1.06-.52-.48 0-.84.24t-.54.68q-.2.44-.2.96 0 .75.42 1.3.4.53 1.16.53.6 0 1-.47 0 .6-.04.79-.09.3-.32.47-.23.18-.66.18-.4 0-.62-.18-.17-.12-.21-.4m-.09-2.27q0-.65.29-.99t.7-.33.7.34.3 1q0 .7-.28 1.03-.3.32-.72.32t-.7-.33q-.29-.32-.29-1.04M-30.8 113.81h.62v-1.98q0-.7.29-.95t.68-.25q.24 0 .42.11.19.11.26.3t.07.56v2.21h.62v-2.23q0-.43-.04-.6-.05-.26-.19-.45-.14-.2-.41-.31-.28-.12-.6-.12-.76 0-1.16.6v-.52h-.55zM-23.78 112.72l-.64-.08q-.14.4-.38.57-.23.18-.57.18-.46 0-.76-.32t-.34-.92h2.7l.01-.16q0-.9-.46-1.4t-1.19-.49q-.75 0-1.22.5-.48.51-.48 1.43 0 .88.47 1.37t1.26.5q.64 0 1.04-.31t.56-.87m-.63-1.07h-2.03q.03-.48.32-.76t.72-.28q.46 0 .76.35.19.23.23.69M-21.58 113.8l-.08-.54q-.17.03-.27.03-.14 0-.21-.05-.08-.04-.11-.12t-.03-.34v-2.12h.62v-.48h-.62v-1.27l-.61.37v.9h-.46v.48h.46v2.09q0 .55.07.72.08.18.26.28t.52.1q.2 0 .46-.05M-19.38 112.28v-.56a.7.7 0 0 1-.43-.14.7.7 0 0 1-.22-.37 5 5 0 0 1-.06-.85q0-.61-.05-.89a.8.8 0 0 0-.55-.7q-.15-.05-.48-.05h-.2v.53h.11q.33 0 .44.1.1.08.13.31.02.13.02.8 0 .73.16 1.04t.55.5q-.3.13-.46.35-.16.23-.22.61-.03.23-.03 1.08 0 .45-.12.58t-.47.13h-.1v.53h.19q.3 0 .42-.03.2-.06.32-.16t.2-.28.12-.46l.02-.75q0-.57.06-.8t.22-.38.43-.14M-47.02 111.72v.56q.27 0 .43.14.17.15.22.37.06.24.06.85t.05.89c.05.36.26.6.55.7q.15.05.48.05h.2v-.53h-.11q-.33 0-.44-.1-.1-.09-.14-.32l-.01-.8q0-.73-.17-1.05t-.54-.48q.31-.15.46-.35t.21-.57q.04-.23.04-1.13 0-.44.12-.57t.47-.13h.1v-.53h-.19q-.3 0-.42.03-.2.05-.32.16t-.2.28-.12.46q-.01.18-.02.75 0 .57-.06.8-.11.5-.65.52M-44.41 113.81h.61v-1.88q0-.5.1-.76t.32-.4.48-.14q.35 0 .5.2t.15.62v2.36h.61v-2.1q0-.57.25-.82.26-.26.64-.26.21 0 .37.1t.22.26.06.53v2.3h.6v-2.5q0-.62-.28-.92-.3-.3-.83-.3-.7 0-1.12.64-.11-.3-.37-.47t-.66-.17q-.36 0-.65.16-.28.16-.45.43v-.5h-.55zM-37.9 111.81q-.25.07-.45.2-.2.14-.32.36t-.12.48q0 .46.32.75.32.3.92.3.36 0 .68-.13.32-.12.66-.4.03.25.12.44h.64q-.11-.2-.15-.43t-.04-1.09v-.82q0-.41-.03-.57-.06-.25-.2-.42-.13-.16-.42-.27t-.76-.11-.82.13q-.35.13-.54.36-.19.24-.27.63l.6.08q.1-.39.3-.54.21-.15.65-.15.46 0 .7.2.17.16.17.54v.16q-.35.12-1.1.21-.37.04-.55.1m1.65.17v.23q0 .4-.1.61-.13.27-.4.43-.29.15-.64.15t-.55-.16q-.18-.17-.18-.41 0-.16.08-.3t.25-.2.53-.12q.67-.1 1-.23M34.84 113.64a2.32 2.32 0 1 1-3.28-3.28l2.73-2.73-1.09-1.1-2.73 2.74a3.87 3.87 0 0 0 5.46 5.46l2.74-2.73-1.1-1.1zM-14.09 126.63l-.6.1q.1.58.47.87t1.08.3q.43 0 .76-.16.34-.14.52-.42t.18-.57q0-.32-.15-.53t-.4-.32-.91-.29q-.45-.12-.55-.16-.16-.06-.23-.16t-.08-.22q0-.18.19-.32.18-.14.6-.14.36 0 .56.15.2.16.23.44l.6-.08q-.05-.35-.2-.56t-.48-.34q-.33-.12-.75-.12-.29 0-.54.07-.24.08-.39.18-.19.14-.3.35t-.11.45q0 .26.13.48.14.22.4.35t.94.3q.5.12.63.2.18.13.18.33 0 .24-.2.4-.2.18-.64.18-.84-.01-.94-.76M-8.57 127.81h.55v-3.63h-.61v1.95q0 .46-.1.7-.1.25-.35.4-.24.13-.52.13-.27 0-.46-.13-.19-.14-.25-.39-.04-.16-.04-.65v-2h-.61v2.24q0 .4.04.57.05.27.19.46.13.19.41.31t.6.12q.73 0 1.15-.61zM-7.06 127.81h.61v-1.9q0-.39.1-.72.08-.21.24-.33t.36-.12.45.13l.21-.57q-.32-.2-.63-.2-.22 0-.4.12-.18.13-.39.51v-.55h-.55zM-1.6 126.72l-.64-.08q-.14.4-.38.57-.24.18-.58.18-.45 0-.75-.32t-.34-.92h2.7V126q0-.9-.45-1.4-.46-.49-1.2-.49t-1.22.5q-.47.51-.47 1.43 0 .88.47 1.37t1.26.5q.63 0 1.04-.31.4-.31.56-.87m-.63-1.07h-2.03q.03-.48.32-.76t.71-.28q.47 0 .77.35.19.23.23.69M.85 126.28v-.56a.7.7 0 0 1-.43-.14.7.7 0 0 1-.22-.37 5 5 0 0 1-.06-.85q0-.61-.05-.89a.8.8 0 0 0-.54-.7q-.15-.05-.49-.05h-.2v.53h.12q.32 0 .43.1.11.08.14.31l.01.8q0 .73.16 1.04t.56.5q-.3.13-.47.35-.16.23-.22.61-.03.23-.03 1.08 0 .45-.11.58t-.47.13h-.11v.53h.19q.3 0 .42-.03.2-.06.32-.16t.2-.28.12-.46q.02-.18.02-.75t.06-.8.22-.38.43-.14M-67.25 125.72v.56q.27 0 .43.14t.22.37q.06.24.06.85t.05.89c.05.36.26.6.54.7q.15.05.49.05h.2v-.53h-.12q-.32 0-.43-.1-.11-.09-.14-.32l-.01-.8q0-.73-.17-1.05t-.55-.48q.32-.15.47-.35t.2-.57q.05-.23.05-1.13 0-.44.11-.57t.47-.13h.11v-.53h-.19q-.3 0-.42.03-.2.05-.32.16t-.2.28-.12.46q-.02.18-.02.75t-.06.8q-.11.5-.65.52M-64.64 127.81h.61v-1.88q0-.5.1-.76t.32-.4.48-.14q.34 0 .5.2.14.21.14.62v2.36h.62v-2.1q0-.57.25-.82.25-.26.64-.26.2 0 .37.1.15.1.21.26.06.17.06.53v2.3h.61v-2.5q0-.62-.29-.92t-.83-.3q-.69 0-1.12.64-.1-.3-.36-.47t-.66-.17q-.37 0-.65.16t-.45.43v-.5h-.55zM-55.7 126.72l-.63-.08q-.14.4-.38.57-.24.18-.57.18-.46 0-.76-.32t-.34-.92h2.7V126q0-.9-.45-1.4-.46-.49-1.2-.49t-1.22.5q-.47.51-.47 1.43 0 .88.47 1.37t1.26.5q.63 0 1.04-.31.4-.31.56-.87m-.63-1.07h-2.03q.03-.48.32-.76t.71-.28q.47 0 .77.35.19.23.23.69M-54.25 125.81q-.24.07-.44.2-.2.14-.32.36t-.12.48q0 .46.32.75.32.3.92.3.37 0 .68-.13.32-.12.66-.4.03.25.12.44h.64q-.11-.2-.15-.43t-.04-1.09v-.82q0-.41-.03-.57-.06-.25-.2-.42-.13-.16-.42-.27t-.75-.11q-.47 0-.83.13-.35.13-.54.36-.19.24-.27.63l.6.08q.1-.39.3-.54.21-.15.65-.15.46 0 .7.2.17.16.17.54v.16q-.35.12-1.1.21-.36.04-.55.1m1.65.17v.23q0 .4-.1.61-.13.27-.4.43-.28.15-.64.15t-.55-.16q-.18-.17-.18-.41 0-.16.08-.3t.25-.2.53-.12q.67-.1 1-.23M-50.66 126.63l-.61.1q.1.58.47.87t1.08.3q.43 0 .76-.16.34-.14.52-.42t.18-.57q0-.32-.14-.53t-.41-.32-.91-.29q-.45-.12-.54-.16-.16-.06-.24-.16t-.08-.22q0-.18.19-.32.18-.14.6-.14.36 0 .56.15.2.16.23.44l.6-.08q-.05-.35-.2-.56t-.48-.34q-.33-.12-.75-.12-.29 0-.54.07-.24.08-.39.18-.19.14-.3.35t-.11.45q0 .26.14.48.13.22.4.35.25.12.93.3.5.12.63.2.18.13.18.33 0 .24-.2.4-.21.18-.63.18-.85-.01-.94-.76M-45.15 127.81h.55v-3.63h-.61v1.95q0 .46-.1.7-.1.25-.35.4-.24.13-.52.13-.27 0-.46-.13-.19-.14-.25-.39-.03-.16-.03-.65v-2h-.62v2.24q0 .4.04.57.05.27.19.46.13.19.41.31t.6.12q.73 0 1.15-.61zM-43.64 127.81h.62v-1.9q0-.39.1-.72.07-.21.23-.33t.36-.12q.22 0 .45.13l.21-.57q-.32-.2-.63-.2-.22 0-.4.12-.17.13-.39.51v-.55h-.55zM-38.18 126.72l-.64-.08q-.14.4-.38.57-.24.18-.57.18-.46 0-.76-.32t-.34-.92h2.7V126q0-.9-.45-1.4-.46-.49-1.2-.49t-1.22.5q-.47.51-.47 1.43 0 .88.47 1.37t1.26.5q.63 0 1.04-.31.4-.31.56-.87m-.63-1.07h-2.03q.03-.48.32-.76t.71-.28q.47 0 .77.35.19.23.23.69M-35.73 126.28v-.56a.7.7 0 0 1-.43-.14.7.7 0 0 1-.22-.37 5 5 0 0 1-.06-.85q0-.61-.04-.89a.8.8 0 0 0-.55-.7q-.15-.05-.49-.05h-.19v.53h.1q.33 0 .44.1.11.08.14.31l.01.8q0 .73.16 1.04.17.31.56.5-.3.13-.47.35-.16.23-.22.61-.03.23-.03 1.08 0 .45-.11.58t-.47.13h-.11v.53h.2q.29 0 .42-.03.19-.06.31-.16t.2-.28.12-.46q.02-.18.02-.75t.06-.8.22-.38.43-.14M-35.54 127.81h.7l.55-1.52h2.1l.58 1.52h.76l-2.05-5h-.72zm1.44-2.06.55-1.47q.18-.47.27-.95.12.4.36 1.04l.52 1.38zM-30.67 125.72v.56q.27 0 .43.14t.22.37q.06.24.06.85t.04.89q.1.54.55.7.15.05.49.05h.19v-.53h-.1q-.33 0-.44-.1-.11-.09-.14-.32l-.01-.8q0-.73-.17-1.05t-.55-.48q.32-.15.47-.35t.2-.57q.05-.23.05-1.13 0-.44.11-.57t.47-.13h.11v-.53h-.2q-.29 0-.42.03-.19.05-.31.16t-.2.28-.12.46q-.02.18-.02.75t-.06.8q-.12.5-.65.52M-28.06 127.81h.61v-1.88q0-.5.1-.76t.32-.4.48-.14q.34 0 .5.2.14.21.14.62v2.36h.62v-2.1q0-.57.25-.82.25-.26.64-.26.2 0 .37.1.15.1.21.26.06.17.06.53v2.3h.61v-2.5q0-.62-.29-.92t-.83-.3q-.69 0-1.12.64-.1-.3-.36-.47t-.66-.17q-.37 0-.65.16t-.45.43v-.5h-.55zM-19.11 126.72l-.64-.08q-.14.4-.38.57-.24.18-.58.18-.45 0-.75-.32t-.34-.92h2.7V126q0-.9-.45-1.4-.47-.49-1.2-.49-.75 0-1.22.5-.47.51-.47 1.43 0 .88.47 1.37t1.26.5q.63 0 1.04-.31.4-.31.56-.87m-.63-1.07h-2.03q.03-.48.32-.76t.71-.28q.47 0 .77.35.19.23.23.69M-17.67 125.81q-.24.07-.44.2-.2.14-.32.36t-.12.48q0 .46.32.75.32.3.92.3.36 0 .68-.13.32-.12.66-.4.03.25.12.44h.64q-.11-.2-.15-.43t-.04-1.09v-.82q0-.41-.03-.57-.06-.25-.2-.42-.13-.16-.42-.27-.3-.11-.76-.11t-.82.13q-.35.13-.54.36-.2.24-.27.63l.6.08q.1-.39.3-.54.21-.15.65-.15.46 0 .7.2.17.16.17.54v.16q-.36.12-1.1.21-.37.04-.55.1m1.65.17v.23q0 .4-.1.61-.13.27-.4.43-.29.15-.64.15t-.55-.16q-.18-.17-.18-.41 0-.16.08-.3t.25-.2.53-.12q.67-.1 1-.23M43.82 130.85h.58v-.58h-.58zM45.66 129.68l-.51.07q.05.52.41.85t.91.32q.6 0 1-.38.4-.37.4-.92 0-.4-.2-.67t-.58-.35q.29-.13.43-.35t.15-.5q0-.28-.16-.53-.15-.25-.43-.4-.29-.14-.63-.14-.5 0-.82.28-.34.28-.43.8l.51.09q.06-.38.26-.57t.5-.18.48.18q.2.19.2.47 0 .35-.27.52-.26.17-.59.17h-.08l-.05.44q.21-.05.36-.05.35 0 .58.22.23.23.23.58 0 .37-.25.62t-.6.25q-.31 0-.52-.2-.21-.18-.3-.62M26.72 129.68l-.51.07q.05.52.4.85.37.32.92.32.6 0 1-.38.4-.37.4-.92 0-.4-.2-.67t-.58-.35q.28-.13.43-.35t.14-.5q0-.28-.15-.53t-.44-.4-.62-.14q-.5 0-.83.28t-.42.8l.5.09q.06-.38.26-.57t.5-.18.49.18.19.47q0 .35-.26.52t-.59.17h-.08l-.06.44q.22-.05.36-.05.35 0 .58.22.23.23.23.58 0 .37-.24.62-.25.25-.61.25-.3 0-.52-.2-.2-.18-.3-.62"/><path d="M16.6 124.55v2.9h.4v-1.25h13.46v1.25h.4v-2.9h-.4v1.25H17v-1.25z"/><path d="M20.06 130.85v-4.17h-.33q-.13.27-.45.55t-.75.5v.48q.24-.08.54-.26t.48-.35v3.25zM23 130.85h.51v-1h.56v-.46h-.56v-2.7h-.42l-1.9 2.7v.46H23zm0-1.46h-1.3l1.3-1.88zM24.88 130.85h.58v-.58h-.58zM30.86 128.5h.7l.55-1.51h2.1l.58 1.52h.75l-2.05-5.02h-.71zm1.44-2.06.55-1.47q.18-.48.27-.96.12.4.36 1.04l.52 1.39zM35.54 124.55v2.9h.4v-1.25H49.4v1.25h.4v-2.9h-.4v1.25H35.94v-1.25z"/><path d="M39 130.85v-4.17h-.32q-.14.27-.46.55t-.74.5v.48q.23-.08.53-.26t.49-.35v3.25zM41.94 130.85h.51v-1h.57v-.46h-.57v-2.7h-.41l-1.9 2.7v.46h1.8zm0-1.46h-1.3l1.3-1.88zM-18.17 140.63l-.6.1q.1.58.47.87t1.07.3q.43 0 .77-.16.34-.14.52-.42t.18-.57q0-.32-.15-.53t-.4-.32-.92-.29q-.45-.12-.54-.16-.16-.06-.24-.16t-.07-.22q0-.18.18-.32t.6-.14q.36 0 .56.15.2.16.24.44l.6-.08q-.06-.35-.21-.56-.16-.21-.48-.34-.32-.12-.75-.12-.28 0-.53.07t-.4.18q-.18.14-.3.35-.1.2-.1.45 0 .26.13.48t.4.35.93.3q.5.12.63.2.18.13.18.33 0 .24-.2.4-.21.18-.63.18-.84-.01-.94-.76M-12.65 141.81h.55v-3.63h-.62v1.95q0 .46-.1.7-.1.25-.34.4-.24.13-.52.13t-.47-.13q-.18-.14-.24-.39-.04-.16-.04-.65v-2h-.62v2.24q0 .4.04.57.06.27.2.46.13.19.4.31.28.12.6.12.73 0 1.16-.61zM-11.15 141.81h.62v-1.9q0-.39.1-.72.07-.21.23-.33t.36-.12q.23 0 .45.13l.22-.57q-.32-.2-.64-.2-.21 0-.39.12-.18.13-.4.51v-.55h-.55zM-5.69 140.72l-.63-.08q-.14.4-.38.57-.24.18-.58.18-.45 0-.76-.32-.3-.32-.34-.92h2.71V140q0-.9-.46-1.4t-1.19-.49q-.75 0-1.22.5-.47.51-.47 1.43 0 .88.46 1.37t1.27.5q.63 0 1.04-.31.4-.31.55-.87m-.63-1.07h-2.02q.03-.48.32-.76t.7-.28q.48 0 .77.35.2.23.23.69M-3.24 140.28v-.56a.7.7 0 0 1-.43-.14.7.7 0 0 1-.22-.37 5 5 0 0 1-.05-.85q0-.61-.05-.89a.8.8 0 0 0-.55-.7q-.15-.05-.48-.05h-.2v.53h.11q.33 0 .44.1.1.08.13.31.02.13.02.8 0 .73.16 1.04t.55.5q-.3.13-.46.35-.17.23-.22.61-.03.23-.03 1.08 0 .45-.12.58t-.47.13h-.1v.53h.19q.29 0 .42-.03.2-.06.31-.16.13-.1.21-.28.08-.17.12-.46l.02-.75q0-.57.05-.8t.22-.38.43-.14M-63.16 139.72v.56q.25 0 .43.14.16.15.22.37.05.24.05.85t.05.89c.05.36.26.6.55.7q.15.05.48.05h.2v-.53h-.11q-.33 0-.44-.1-.1-.09-.13-.32-.02-.13-.02-.8 0-.73-.17-1.05t-.54-.48q.32-.15.46-.35t.21-.57q.04-.23.04-1.13 0-.44.12-.57t.47-.13h.1v-.53h-.19q-.29 0-.42.03-.2.05-.31.16-.13.1-.21.28-.08.17-.12.46l-.02.75q0 .57-.05.8-.12.5-.65.52M-60 141.81v-.45q.38.53 1.02.53.65 0 1.1-.5.47-.52.47-1.45 0-.38-.11-.74-.21-.7-.8-.97-.3-.13-.63-.13-.6 0-1 .49v-1.79h-.61v5.01zm.17-.9q-.18-.29-.18-.94 0-.66.3-1.01.29-.35.7-.35t.67.33q.29.34.29 1.05 0 .7-.3 1.05t-.7.35q-.49 0-.78-.48M-56.33 138.5q-.57.49-.57 1.5 0 .92.47 1.4.47.5 1.24.5.47 0 .87-.23.4-.22.62-.62.2-.4.2-1.1 0-.87-.47-1.36t-1.22-.49q-.68 0-1.14.4m.07 1.5q0-.7.3-1.05.3-.34.77-.34.45 0 .76.35.3.34.3 1.02 0 .71-.3 1.06t-.76.35-.77-.35-.3-1.04M-52.79 141.81h.62v-5h-.62zM-49.79 141.8l-.08-.54q-.17.03-.27.03-.14 0-.21-.05-.08-.04-.11-.12t-.03-.34v-2.12h.62v-.48h-.62v-1.27l-.62.37v.9h-.45v.48h.45v2.09q0 .55.08.72.08.18.26.28t.52.1q.2 0 .46-.05M-48.1 143.28h.44q-1.02-1.64-1.02-3.28 0-.65.15-1.29.12-.5.33-.98.13-.3.54-1.01h-.44q-.64.85-.95 1.72-.26.74-.26 1.56 0 .92.35 1.78t.86 1.5M-44.8 141.81v-5.03h-.4q-.15.32-.54.67t-.9.59v.6q.29-.11.65-.33.36-.2.58-.42v3.92zM-42.72 141.38q.4.52 1.13.52.55 0 .91-.3.37-.3.55-.84t.18-1.42q0-.75-.11-1.18-.22-.89-.82-1.22-.3-.16-.7-.16-.55 0-.91.3-.37.29-.55.83t-.18 1.43q0 1.41.5 2.04m.45-3.73q.25-.36.68-.36t.72.4.29 1.65-.3 1.64-.7.41-.72-.4-.29-1.65.32-1.7M-39.2 143.28h.45q.5-.64.86-1.5.35-.86.35-1.78 0-.82-.26-1.56-.31-.87-.95-1.72h-.44q.41.71.55 1.02.2.47.32.99.15.63.15 1.27 0 1.64-1.02 3.28M-35.15 140.28v-.56a.7.7 0 0 1-.43-.14.7.7 0 0 1-.22-.37 5 5 0 0 1-.05-.85q0-.61-.05-.89a.8.8 0 0 0-.55-.7q-.15-.05-.48-.05h-.2v.53h.11q.33 0 .44.1.1.08.13.31.02.13.02.8 0 .73.16 1.04t.55.5q-.3.13-.46.35-.17.23-.22.61-.03.23-.03 1.08 0 .45-.12.58t-.47.13h-.1v.53h.19q.29 0 .42-.03.2-.06.31-.16.13-.1.21-.28.08-.17.12-.46l.02-.75q0-.57.05-.8t.22-.38.43-.14M-34.75 139.72v.56q.25 0 .43.14.16.15.22.37.05.24.05.85t.05.89c.05.36.26.6.55.7q.15.05.48.05h.2v-.53h-.11q-.33 0-.44-.1-.1-.09-.13-.32-.02-.13-.02-.8 0-.73-.17-1.05t-.54-.48q.32-.15.46-.35t.21-.57q.04-.23.04-1.13 0-.44.12-.57t.47-.13h.1v-.53h-.19q-.29 0-.42.03-.2.05-.31.16-.13.1-.21.28-.08.17-.12.46l-.02.75q0 .57-.05.8-.12.5-.65.52M-32.15 141.81h.62v-1.88q0-.5.1-.76t.31-.4.49-.14q.34 0 .49.2t.15.62v2.36h.61v-2.1q0-.57.26-.82.25-.26.63-.26.21 0 .37.1t.22.26.06.53v2.3h.6v-2.5q0-.62-.28-.92-.3-.3-.83-.3-.7 0-1.12.64-.1-.3-.37-.47-.25-.17-.66-.17-.36 0-.64.16t-.46.43v-.5h-.55zM-23.2 140.72l-.63-.08q-.14.4-.38.57-.24.18-.58.18-.45 0-.76-.32-.3-.32-.34-.92h2.71V140q0-.9-.46-1.4t-1.19-.49q-.75 0-1.22.5-.47.51-.47 1.43 0 .88.46 1.37t1.27.5q.63 0 1.04-.31.4-.31.55-.87m-.63-1.07h-2.02q.03-.48.32-.76t.7-.28q.48 0 .77.35.2.23.23.69M-21.75 139.81q-.25.07-.44.2-.2.14-.32.36t-.12.48q0 .46.32.75.32.3.92.3.36 0 .68-.13.31-.12.65-.4.03.25.13.44h.64q-.12-.2-.16-.43t-.04-1.09v-.82q0-.41-.03-.57-.05-.25-.19-.42-.13-.16-.42-.27-.3-.11-.76-.11t-.82.13-.55.36q-.19.24-.27.63l.6.08q.1-.39.31-.54t.64-.15q.47 0 .7.2.18.16.18.54v.16q-.36.12-1.1.21-.37.04-.55.1m1.64.17v.23q0 .4-.1.61-.13.27-.4.43-.28.15-.64.15-.35 0-.54-.16-.19-.17-.19-.41 0-.16.09-.3t.24-.2.54-.12q.67-.1 1-.23M41.93 144.85h.59v-.58h-.59zM43.67 144.49q.34.43.94.43.45 0 .76-.25.3-.24.45-.69t.15-1.18q0-.62-.1-.98-.17-.73-.67-1a1 1 0 0 0-.59-.14q-.45 0-.75.24-.3.25-.45.7-.15.46-.15 1.18 0 1.17.41 1.69m.38-3.09q.2-.3.56-.3.35 0 .6.34.23.34.23 1.36t-.24 1.36-.59.34-.59-.34-.24-1.36.27-1.4"/><path d="M18.6 134.2a2 2 0 0 0-2 2v7.6a2 2 0 0 0 2 2h3.16v-3.22h10v-1.13h.4v-1.25H49.4v1.25h.4v-2.9h-.4v1.25H32.16v-1.25h-.4v-1.13h-10v-3.22z"/><path d="M37.12 144.85v-4.17h-.33q-.13.27-.45.56-.32.28-.75.48v.5q.24-.1.53-.27t.49-.35v3.25zM40.37 142.6q.61-.24.61-.84 0-.45-.33-.76a1.2 1.2 0 0 0-.87-.32q-.54 0-.87.3a1 1 0 0 0-.33.77q0 .61.63.85-.38.1-.59.37t-.2.68q0 .54.37.9.38.37 1 .37.61 0 .99-.36.37-.37.37-.9 0-.38-.2-.66t-.58-.4m-1.26-.87q0-.26.19-.44.2-.2.48-.2.3 0 .49.2t.19.47q0 .27-.19.46-.19.18-.48.18-.3 0-.5-.18-.18-.2-.18-.49m-.17 1.92q0-.36.24-.6t.6-.23.6.24.25.6-.24.6-.6.24q-.23 0-.44-.11t-.3-.32-.1-.42M-19.72 154.63l-.61.1q.1.58.47.87t1.08.3q.43 0 .77-.16.34-.14.52-.42t.18-.57q0-.32-.15-.53t-.4-.32q-.27-.12-.92-.29-.45-.12-.54-.16-.16-.06-.24-.16t-.07-.22q0-.18.18-.32t.6-.14q.36 0 .56.15.2.16.24.44l.6-.08q-.06-.35-.21-.56-.16-.21-.48-.34-.32-.12-.75-.12-.28 0-.53.07t-.4.18q-.18.14-.3.35-.1.2-.1.45 0 .26.13.48t.4.35.93.3q.5.12.63.2.18.13.18.33 0 .24-.2.4-.21.18-.63.18-.84-.01-.94-.76M-13.46 154.72l-.64-.08q-.14.4-.38.57-.24.18-.58.18-.45 0-.75-.32t-.34-.92h2.7V154q0-.9-.45-1.4-.47-.49-1.2-.49-.75 0-1.22.5-.47.51-.47 1.43 0 .88.47 1.37t1.26.5q.63 0 1.04-.31.4-.31.56-.87m-.63-1.07h-2.03q.03-.48.32-.76t.71-.28q.47 0 .77.35.19.23.23.69M-12.7 155.81h.62v-1.9q0-.39.1-.72.07-.21.23-.33t.36-.12q.23 0 .45.13l.21-.57q-.32-.2-.63-.2-.21 0-.4.12-.17.13-.38.51v-.55h-.56zM-8.93 155.8l-.09-.54q-.16.03-.27.03-.13 0-.2-.05-.08-.04-.11-.12t-.03-.34v-2.12h.61v-.48h-.61v-1.27l-.62.37v.9h-.45v.48h.45v2.09q0 .55.08.72.07.18.26.28.18.1.52.1.2 0 .46-.05M-6.74 154.28v-.56a.7.7 0 0 1-.43-.14.7.7 0 0 1-.22-.37 5 5 0 0 1-.05-.85q0-.61-.05-.89a.8.8 0 0 0-.55-.7q-.15-.05-.48-.05h-.2v.53h.11q.33 0 .44.1.1.08.13.31.02.13.02.8 0 .73.16 1.04t.55.5q-.3.13-.46.35-.17.23-.22.61-.03.23-.03 1.08 0 .45-.12.58t-.47.13h-.1v.53h.19q.29 0 .42-.03.2-.06.31-.16.13-.1.21-.28.08-.17.12-.46l.02-.75q0-.57.05-.8t.22-.38.43-.14M-59.66 153.72v.56q.25 0 .43.14.16.15.22.37.05.24.05.85t.05.89c.05.36.26.6.55.7q.15.05.48.05h.2v-.53h-.11q-.33 0-.44-.1-.1-.09-.13-.32-.02-.13-.02-.8 0-.73-.17-1.05t-.54-.48q.32-.15.46-.35t.21-.57q.04-.23.04-1.13 0-.44.12-.57t.47-.13h.1v-.53h-.19q-.29 0-.42.03-.2.05-.31.16-.13.1-.21.28-.08.17-.12.46l-.02.75q0 .57-.05.8-.12.5-.65.52M-55.63 155.8l-.09-.54q-.16.03-.27.03-.13 0-.2-.05-.08-.04-.11-.12t-.03-.34v-2.12h.61v-.48h-.61v-1.27l-.62.37v.9h-.45v.48h.45v2.09q0 .55.08.72.07.18.26.28.18.1.52.1.2 0 .46-.05M-55.11 155.81h.61v-1.98q0-.43.1-.67t.35-.39.51-.14q.37 0 .57.21t.2.67v2.3h.61v-2.3q0-.53-.13-.81-.12-.28-.42-.44t-.7-.16q-.66 0-1.09.5v-1.8h-.61zM-51.23 155.81h.62v-1.9q0-.39.1-.72.07-.21.23-.33t.36-.12q.23 0 .45.13l.21-.57q-.32-.2-.63-.2-.21 0-.4.12-.17.13-.38.51v-.55h-.56zM-45.77 154.72l-.64-.08q-.14.4-.37.57-.24.18-.58.18-.46 0-.76-.32t-.34-.92h2.7l.01-.16q0-.9-.46-1.4t-1.19-.49q-.75 0-1.22.5-.48.51-.48 1.43 0 .88.47 1.37t1.26.5q.64 0 1.04-.31t.56-.87m-.63-1.07h-2.03q.04-.48.32-.76.3-.28.72-.28.47 0 .76.35.19.23.23.69M-44.32 153.81q-.25.07-.45.2-.2.14-.31.36-.13.22-.13.48 0 .46.33.75.32.3.92.3.36 0 .67-.13.32-.12.66-.4.03.25.12.44h.65q-.12-.2-.16-.43t-.04-1.09v-.82q0-.41-.03-.57-.05-.25-.19-.42t-.43-.27-.75-.11-.83.13-.54.36-.27.63l.6.08q.1-.39.3-.54.21-.15.65-.15.46 0 .7.2.17.16.17.54v.16q-.35.12-1.1.21-.36.04-.54.1m1.64.17v.23q0 .4-.1.61-.13.27-.4.43-.28.15-.64.15t-.54-.16-.19-.41q0-.16.09-.3t.24-.2.54-.12q.67-.1 1-.23M-38.75 155.81h.57v-5h-.61v1.79q-.16-.22-.42-.36-.25-.14-.58-.14-.45 0-.81.24t-.55.67-.18.99q0 .56.2.99t.57.66.8.24q.67 0 1.01-.54zm-1.94-1.81q0-.72.27-1.06.28-.33.69-.33.42 0 .7.35.3.35.3 1.1 0 .67-.3 1-.27.33-.68.33-.4 0-.69-.35-.3-.34-.3-1.04M-34.09 154.72l-.64-.08q-.14.4-.38.57-.23.18-.57.18-.46 0-.76-.32t-.34-.92h2.7l.01-.16q0-.9-.46-1.4t-1.2-.49q-.74 0-1.21.5-.48.51-.48 1.43 0 .88.47 1.37t1.26.5q.64 0 1.04-.31t.56-.87m-.63-1.07h-2.03q.03-.48.32-.76t.72-.28q.46 0 .76.35.19.23.23.69M-30.96 155.81h.57v-5H-31v1.79q-.16-.22-.42-.36t-.59-.14q-.44 0-.8.24t-.55.67-.18.99q0 .56.2.99t.56.66.8.24q.67 0 1.02-.54zm-1.95-1.81q0-.72.28-1.06.27-.33.68-.33t.71.35.29 1.1q0 .67-.28 1t-.69.33-.7-.35-.29-1.04M-30 157.2h4.09v-.44H-30zM-25.53 155.81h.62v-3.63h-.62zM-25.53 151.5h.62v-.7h-.62zM-23.98 155.81h.62v-1.98q0-.7.28-.95t.68-.25q.25 0 .43.11t.26.3.07.56v2.21h.61v-2.23q0-.43-.03-.6-.06-.26-.2-.45-.13-.2-.4-.31-.28-.12-.6-.12-.76 0-1.16.6v-.52h-.56zM38.77 148.2H27.63a.23.23 0 0 0-.23.23v2.44a.23.23 0 0 0 .23.23h1.86a.23.23 0 0 1 .23.23v5.34a.23.23 0 0 1-.23.23h-1.86a.23.23 0 0 0-.23.23v2.44a.23.23 0 0 0 .23.23h11.14a.23.23 0 0 0 .23-.23v-2.44a.23.23 0 0 0-.23-.23H36.9a.23.23 0 0 1-.23-.23v-5.34a.23.23 0 0 1 .23-.23h1.86a.23.23 0 0 0 .23-.23v-2.44a.23.23 0 0 0-.23-.23m-.55 10.9h-.99l-1.5-1.5h.98zm-1.88 0h-.98l-1.51-1.5h.98zm-1.88 0h-.99l-1.5-1.5h.98zm-1.88 0h-.98l-1.51-1.5h.98zm-1.88 0h-.99l-1.5-1.5h.98zm7.55-8.7h-.99l-1.5-1.5h.98zm-1.88 0h-.98l-1.51-1.5h.98zm-1.88 0h-.99l-1.5-1.5h.98zm-1.88 0h-.98l-1.51-1.5h.98zm-1.88 0h-.99l-1.5-1.5h.98zM-18.37 168.63l-.6.1q.1.58.47.87t1.08.3q.42 0 .76-.16.34-.14.52-.42t.18-.57q0-.32-.15-.53t-.4-.32-.91-.29q-.45-.12-.55-.16-.16-.06-.23-.16t-.08-.22q0-.18.18-.32.19-.14.6-.14.37 0 .56.15.2.16.24.44l.6-.08q-.05-.35-.2-.56t-.49-.34-.75-.12q-.28 0-.53.07-.24.08-.39.18-.19.14-.3.35t-.11.45q0 .26.13.48.14.22.4.35t.94.3q.5.12.63.2.18.13.18.33 0 .24-.2.4-.2.18-.64.18-.84-.01-.94-.76M-13.8 169.8l-.09-.54q-.16.03-.27.03-.13 0-.2-.05-.08-.04-.11-.12t-.03-.34v-2.12h.61v-.48h-.61v-1.27l-.62.37v.9h-.45v.48h.45v2.09q0 .55.08.72.07.18.26.28.18.1.52.1.2 0 .46-.05M-12.95 166.5q-.56.49-.56 1.5 0 .92.47 1.4.47.5 1.23.5.47 0 .88-.23.4-.22.6-.62.22-.4.22-1.1 0-.87-.48-1.36-.47-.49-1.22-.49-.67 0-1.14.4m.07 1.5q0-.7.3-1.05.3-.34.77-.34.45 0 .76.35.3.34.3 1.02 0 .71-.3 1.06t-.76.35-.77-.35-.3-1.04M-9.4 169.81h.62v-1.9q0-.39.1-.72.07-.21.23-.33t.36-.12q.23 0 .45.13l.21-.57q-.32-.2-.63-.2-.21 0-.4.12-.17.13-.38.51v-.55h-.56zM-5.38 168.28v-.56a.7.7 0 0 1-.43-.14.7.7 0 0 1-.22-.37 5 5 0 0 1-.06-.85q0-.61-.04-.89a.8.8 0 0 0-.55-.7q-.15-.05-.49-.05h-.19v.53h.1q.33 0 .44.1.11.08.14.31l.01.8q0 .73.16 1.04t.56.5q-.3.13-.47.35-.16.23-.22.61-.03.23-.03 1.08 0 .45-.11.58t-.47.13h-.11v.53h.2q.29 0 .42-.03.19-.06.31-.16t.2-.28.12-.46q.02-.18.02-.75t.06-.8.22-.38.43-.14M-61.02 167.72v.56q.27 0 .43.14t.22.37q.06.24.06.85t.04.89q.1.55.55.7.15.05.49.05h.19v-.53h-.1q-.33 0-.44-.1-.11-.09-.14-.32l-.01-.8q0-.73-.17-1.05t-.55-.48q.32-.15.47-.35t.2-.57q.05-.23.05-1.13 0-.44.11-.57t.47-.13h.11v-.53h-.2q-.29 0-.42.03-.19.05-.31.16t-.2.28-.12.46q-.02.18-.02.75t-.06.8q-.11.5-.65.52M-57.4 169.81h.57l1.37-3.63h-.63l-.8 2.22q-.15.4-.24.69-.1-.38-.23-.73l-.78-2.18h-.65zM-54.24 167.81q-.25.07-.44.2-.2.14-.32.36t-.12.48q0 .46.32.75.32.3.92.3.36 0 .68-.13.31-.12.65-.4.03.25.13.44h.64q-.12-.2-.16-.43-.03-.23-.03-1.09v-.82q0-.41-.04-.57-.05-.25-.19-.42-.13-.16-.42-.27-.3-.11-.76-.11t-.82.13-.55.36-.27.63l.6.08q.1-.39.31-.54t.64-.15q.47 0 .7.2.18.16.18.54v.16q-.36.12-1.1.21-.37.04-.55.1m1.64.17v.23q0 .4-.1.61-.13.27-.4.43-.28.15-.64.15-.35 0-.54-.16-.19-.17-.19-.41 0-.16.09-.3t.24-.2.54-.12q.67-.1 1-.23M-51.03 169.81h.62v-1.9q0-.39.1-.72.07-.21.23-.33t.36-.12q.23 0 .45.13l.21-.57q-.32-.2-.63-.2-.21 0-.4.12-.17.13-.38.51v-.55h-.56zM-48.69 165.5h.62v-.7h-.62zM-48.69 169.81h.62v-3.63h-.62zM-46.46 167.81q-.25.07-.44.2-.2.14-.32.36t-.12.48q0 .46.32.75.32.3.92.3.36 0 .68-.13.31-.12.65-.4.03.25.13.44h.64q-.12-.2-.16-.43t-.04-1.09v-.82q0-.41-.03-.57-.05-.25-.19-.42-.13-.16-.43-.27-.29-.11-.75-.11t-.82.13-.55.36-.27.63l.6.08q.1-.39.31-.54t.64-.15q.47 0 .7.2.18.16.18.54v.16q-.36.12-1.1.21-.37.04-.55.1m1.64.17v.23q0 .4-.1.61-.13.27-.4.43-.28.15-.64.15-.35 0-.54-.16-.19-.17-.19-.41 0-.16.09-.3t.24-.2.54-.12q.67-.1 1-.23M-42.67 169.81v-.45q.37.53 1 .53.64 0 1.11-.5.45-.52.46-1.45 0-.38-.1-.74-.21-.7-.8-.97-.3-.13-.64-.13-.6 0-.99.49v-1.79h-.62v5.01zm.17-.9q-.18-.29-.18-.94 0-.66.3-1.01.29-.35.69-.35t.68.33.28 1.05q0 .7-.29 1.05-.3.35-.7.35-.5 0-.78-.48M-39.36 169.81h.61v-5h-.61zM-34.67 168.72l-.64-.08q-.14.4-.38.57-.24.18-.58.18-.45 0-.75-.32t-.34-.92h2.7V168q0-.9-.45-1.4-.47-.49-1.2-.49-.75 0-1.22.5-.47.51-.47 1.43 0 .88.47 1.37t1.26.5q.63 0 1.04-.31.4-.31.56-.87m-.63-1.07h-2.03q.03-.48.32-.76t.71-.28q.47 0 .77.35.19.23.23.69M-34.47 171.2h4.08v-.44h-4.08zM-30.01 169.81h.61v-1.9q0-.39.1-.72.07-.21.23-.33t.36-.12q.23 0 .46.13l.2-.57q-.31-.2-.62-.2-.22 0-.4.12-.18.13-.4.51v-.55H-30zM-24.56 168.72l-.63-.08q-.14.4-.38.57-.24.18-.58.18-.45 0-.76-.32-.3-.32-.34-.92h2.71V168q0-.9-.46-1.4t-1.19-.49q-.75 0-1.22.5-.47.51-.47 1.43 0 .88.46 1.37t1.27.5q.63 0 1.04-.31.4-.31.55-.87m-.62-1.07h-2.03q.03-.48.32-.76t.71-.28q.47 0 .76.35.2.23.24.69M-23.42 168.63l-.61.1q.1.58.47.87t1.08.3q.43 0 .77-.16.34-.14.52-.42t.18-.57q0-.32-.15-.53t-.4-.32q-.27-.12-.92-.29-.45-.12-.54-.16-.16-.06-.24-.16t-.07-.22q0-.18.18-.32t.6-.14q.36 0 .56.15.2.16.24.44l.6-.08q-.06-.35-.21-.56-.16-.21-.48-.34-.32-.12-.75-.12-.28 0-.53.07t-.4.18q-.18.14-.3.35-.1.2-.1.45 0 .26.13.48t.4.35.93.3q.5.12.63.2.18.13.18.33 0 .24-.2.4-.21.18-.63.18-.84-.01-.94-.76M-20.28 165.5h.62v-.7h-.62zM-20.28 169.81h.62v-3.63h-.62zM22.43 167.64v.72h4.58v1.8h4.53l-1.8 3.1a.36.36 0 0 0 .63.36l2-3.47h7.02v-1.8h4.58v-.7h-4.58v-1.8h-4.53l1.12-1.95v1.35a.36.36 0 0 0 .72 0v-2.7a.36.36 0 0 0-.54-.3l-2.33 1.34a.36.36 0 0 0 .36.63l1.17-.68-1.33 2.3H27v1.8zm9.53 1.8h-4.23v-2.88h5.88zm2.48-2.88h4.23v2.88H32.8zM-34.7 182.63l-.62.1q.1.58.48.87.37.3 1.07.3.43 0 .77-.16.34-.14.52-.42t.18-.57q0-.32-.15-.53t-.4-.32-.92-.29q-.45-.12-.54-.16-.16-.06-.23-.16t-.08-.22q0-.18.18-.32t.6-.14q.36 0 .56.15.2.16.24.44l.6-.08q-.06-.35-.21-.56-.16-.21-.48-.34-.32-.12-.75-.12-.28 0-.53.07t-.4.18q-.18.14-.3.35-.1.2-.1.45 0 .26.13.48.14.22.4.35t.93.3q.5.12.63.2.18.13.18.33 0 .24-.2.4-.21.18-.63.18-.84-.01-.94-.76M-31.57 183.81h.61v-1.98q0-.43.1-.67t.35-.39.51-.14q.37 0 .57.21t.2.67v2.3h.62v-2.3q0-.53-.13-.81t-.43-.44-.7-.16q-.66 0-1.09.5v-1.8h-.61zM-24.56 182.72l-.63-.08q-.14.4-.38.57-.24.18-.58.18-.46 0-.76-.32t-.34-.92h2.7l.01-.16q0-.9-.46-1.4t-1.19-.49q-.75 0-1.22.5-.47.51-.47 1.43 0 .88.46 1.37t1.27.5q.63 0 1.04-.31.4-.31.55-.87m-.63-1.07h-2.02q.03-.48.32-.76.28-.28.7-.28.48 0 .77.35.2.23.23.69M-23.8 183.81h.62v-1.9q0-.39.1-.72.07-.21.23-.33.17-.12.37-.12.22 0 .45.13l.21-.57q-.32-.2-.63-.2-.22 0-.4.12-.18.13-.39.51v-.55h-.55zM-19.78 182.28v-.56a.7.7 0 0 1-.42-.14.7.7 0 0 1-.23-.37 5 5 0 0 1-.05-.85q0-.61-.05-.89a.8.8 0 0 0-.55-.7q-.15-.05-.48-.05h-.2v.53h.11q.33 0 .44.1.1.08.13.31.02.13.02.8 0 .73.16 1.04t.55.5q-.3.13-.46.35-.17.23-.22.61-.03.23-.03 1.08 0 .45-.12.58t-.47.13h-.1v.53h.19q.29 0 .42-.03.2-.06.31-.16.13-.1.21-.28.09-.17.12-.46l.02-.75q0-.57.05-.8t.23-.38.42-.14M-46.62 181.72v.56q.26 0 .42.14.18.15.23.37.05.24.05.85t.05.89c.05.36.26.6.55.7q.15.05.48.05h.2v-.53h-.11q-.33 0-.44-.1-.1-.09-.14-.32v-.8q0-.73-.18-1.05t-.54-.48q.31-.15.46-.35t.21-.57q.04-.23.04-1.13 0-.44.12-.57t.47-.13h.1v-.53h-.19q-.29 0-.42.03-.2.05-.31.16-.13.1-.21.28-.09.17-.12.46l-.02.75q0 .57-.05.8-.12.5-.65.52M-43.35 183.81h.64l.74-2.8.14.63.58 2.17h.63l1.14-3.63h-.6l-.62 2.1-.2.7-.19-.7-.54-2.1h-.64l-.57 2.13-.2.75-.2-.78-.58-2.1h-.64zM-38.3 181.81q-.24.07-.43.2-.2.14-.32.36t-.12.48q0 .46.32.75.32.3.92.3.36 0 .68-.13.31-.12.65-.4.03.25.13.44h.64q-.12-.2-.16-.43-.03-.23-.03-1.09v-.82q0-.41-.04-.57-.05-.25-.19-.42-.13-.16-.42-.27-.3-.11-.76-.11t-.82.13-.55.36-.27.63l.6.08q.1-.39.31-.54t.64-.15q.47 0 .7.2.18.16.18.54v.16q-.36.12-1.1.21-.37.04-.55.1m1.64.17v.23q0 .4-.1.61-.13.27-.4.43-.28.15-.64.15-.35 0-.54-.16-.19-.17-.19-.41 0-.16.09-.3t.24-.2.54-.12q.67-.1 1-.23"/></g></svg>