<svg xmlns="http://www.w3.org/2000/svg" width="161.18" height="378.29" viewBox="-72.23 -2.91 123.06 288.84"><g stroke="none" stroke-linecap="round" stroke-width="0" transform="scale(1 -1)"><path d="M39-280a5.8 5.8 0 0 1-11.6 0 5.8 5.8 0 0 1 11.6 0m-2.61 0a3.19 3.19 0 0 0-6.38 0 3.19 3.19 0 0 0 6.38 0M-36.06-2.31h.7v.7h-.7zM-34.12-2.31h.7v.7h-.7zM-32.17-2.31h.7v.7h-.7zM-28.72-.78v.56a.7.7 0 0 0-.43.14.7.7 0 0 0-.22.37q-.06.24-.06.85t-.05.89a.8.8 0 0 1-.55.7q-.15.05-.48.05h-.2v-.53h.11q.33 0 .44-.1.11-.08.13-.31.02-.13.02-.8 0-.73.16-1.04t.56-.5q-.3-.13-.47-.35-.16-.23-.22-.61Q-30-1.7-30-2.54q0-.45-.12-.58t-.47-.13h-.1v-.54h.19q.3 0 .42.04.2.06.32.16t.2.28.12.46l.02.75q0 .57.06.8t.22.38.43.14M-27.98-2.31h.67V-.1h.77q.25 0 .37-.02.15-.04.3-.13.15-.1.33-.34.2-.24.48-.69l.67-1.04h.83l-.87 1.36q-.26.4-.55.67-.14.12-.4.25.72.1 1.07.46.34.37.34.9 0 .41-.2.76-.22.34-.57.47-.34.14-1.01.14h-2.23zm.67 2.8v1.65h1.58q.56 0 .82-.22.26-.23.26-.59 0-.24-.14-.45-.13-.2-.39-.3-.25-.1-.7-.1zM-42.42-2.31h3.13v.59h-2.46V2.7h-.67zM-38.84-.22v-.56q.26 0 .43-.14t.22-.37q.05-.24.06-.85 0-.62.04-.89.1-.54.55-.7.15-.06.49-.06h.19v.54h-.1q-.33 0-.44.1-.12.09-.14.32-.02.12-.02.8 0 .73-.17 1.05-.16.32-.54.48.32.15.47.35t.2.57q.04.23.04 1.13 0 .44.12.57t.47.13h.1v.53h-.18q-.3 0-.43-.03-.19-.05-.31-.16-.13-.1-.2-.28-.1-.17-.12-.46-.02-.18-.02-.75t-.06-.8q-.12-.5-.65-.52M16.73-2.31h3.13v.59H17.4V2.7h-.66zM45.61-2.31h.67V-.1h.77q.25 0 .37-.02.15-.04.3-.13.15-.1.34-.34.18-.24.47-.69l.67-1.04h.83l-.87 1.36q-.26.4-.55.67-.14.12-.4.25.72.1 1.07.46.34.37.34.9 0 .41-.2.76-.22.34-.57.47-.34.14-1.01.14H45.6zm.67 2.8v1.65h1.58q.56 0 .82-.22.26-.23.26-.59 0-.24-.14-.45-.13-.2-.39-.3-.25-.1-.7-.1zM-32.6-15.72h-2.45q.1.17.26.33.15.17.7.63.67.56.96.88.28.33.4.62.13.29.13.59 0 .59-.42.99t-1.14.4-1.14-.37q-.43-.37-.5-1.08l.64-.07q0 .48.27.74.27.27.71.27.42 0 .68-.25t.27-.62q0-.35-.3-.74-.28-.39-1.1-1.06-.52-.43-.8-.76t-.4-.67q-.08-.2-.08-.42h3.31zM-31.59-16.31h.7v.7h-.7zM-29.34-14.95-30-15q.06-.63.5-1.01.43-.39 1.1-.39.84 0 1.33.61.4.5.4 1.18 0 .71-.46 1.17-.45.45-1.1.45-.5 0-.95-.31l.27 1.34h2v.59h-2.5l-.48-2.57.58-.08q.13.22.37.35.24.14.54.14.48 0 .77-.3.3-.31.3-.84 0-.55-.3-.89-.32-.33-.76-.33-.37 0-.63.24t-.33.7M-24.25-14.78v.56a.7.7 0 0 0-.43.14.7.7 0 0 0-.22.37q-.05.24-.06.85t-.04.89a.8.8 0 0 1-.55.7q-.15.05-.49.05h-.19v-.53h.1q.33 0 .44-.1.12-.08.14-.31.02-.13.02-.8 0-.73.16-1.04t.55-.5q-.3-.13-.46-.35-.17-.23-.22-.61-.03-.23-.03-1.08 0-.45-.12-.58t-.47-.13h-.1v-.54h.18q.3 0 .43.04.19.06.31.16.13.1.2.28.1.17.12.46.02.18.02.75t.06.8.22.38.43.14M-23.57-17.7h1.35v.5h-.74v5.39h.74v.5h-1.36zM-42.8-17.7v6.4h-1.36v-.51h.74v-5.38h-.74v-.51zM-42.16-14.22v-.56q.27 0 .43-.14.17-.15.22-.37.06-.24.06-.85 0-.62.05-.89.1-.55.55-.7.15-.06.48-.06h.2v.54h-.11q-.33 0-.44.1-.1.09-.14.32l-.01.8q0 .73-.17 1.05t-.54.48q.31.15.46.35t.21.57q.04.23.04 1.13 0 .44.12.57t.47.13h.1v.53h-.19q-.3 0-.42-.03-.2-.05-.32-.16t-.2-.28-.12-.46q-.01-.18-.02-.75 0-.57-.06-.8-.11-.5-.65-.52M-37.4-16.31v5.03h-.4q-.16-.33-.55-.67-.38-.35-.9-.59v-.6q.29.11.65.32t.58.43v-3.92zM26.79-17.7v6.4h-1.36v-.51h.74v-5.38h-.74v-.51zM39.63-17.7H41v.5h-.74v5.39h.74v.5h-1.36zM-37.2-33.24h.6v3.63h-.6zM-35.66-33.24h.62v1.99q0 .7.28.94.29.25.68.25.25 0 .43-.11t.26-.3.07-.56v-2.2h.61v2.22q0 .43-.03.6-.06.27-.2.46-.13.19-.4.3-.28.12-.6.12-.76 0-1.16-.6v.52h-.56zM-27.18-26.3l-.64.08q-.14-.39-.38-.57t-.57-.17q-.46 0-.76.31-.3.32-.34.92h2.7l.01.16q0 .9-.46 1.4t-1.2.5q-.74 0-1.21-.51-.48-.5-.48-1.42 0-.89.47-1.38t1.26-.49q.64 0 1.04.3.4.32.56.87m-.63 1.08h-2.03q.03.47.32.76.3.28.72.28.46 0 .76-.36.19-.23.23-.68M-26.26-27.39h.61v3.15h.7v.48h-.7v.34q0 .33.12.45t.4.11q.16 0 .36-.03l.09.54q-.32.06-.58.06-.4 0-.62-.15-.23-.15-.32-.39-.06-.18-.06-.54v-.39h-.54v-.48h.54zM-23.03-27.38l-.09.54-.27-.02q-.14 0-.21.04-.07.05-.1.12-.04.08-.04.34v2.12h.62v.48h-.62v1.27l-.61-.37v-.9h-.45v-.48h.45v-2.08q0-.56.07-.73t.26-.28q.19-.1.52-.1.2 0 .47.05M-43.22-25.3v-.55q.25 0 .42-.15.17-.13.22-.37.06-.24.06-.85t.05-.89c.05-.35.26-.6.55-.7q.15-.05.48-.05h.2v.54h-.11q-.33 0-.44.09-.1.1-.14.32l-.01.8q0 .73-.17 1.05t-.54.48q.31.16.46.36t.21.56q.04.24.04 1.13 0 .45.12.57.11.13.47.13h.1v.54h-.19q-.3 0-.42-.04-.2-.05-.32-.15t-.2-.28q-.09-.18-.12-.46l-.02-.76q0-.57-.06-.8-.12-.48-.64-.52M-40.7-25.2l3.32-1.41v.6l-2.63 1.1 2.63 1.08v.6l-3.32-1.4zM-34.85-25.85v.55a.7.7 0 0 0-.43.15.7.7 0 0 0-.22.37q-.06.24-.06.85 0 .6-.05.88a.8.8 0 0 1-.55.7q-.15.06-.48.06h-.2v-.54h.11q.33 0 .44-.09t.13-.32q.02-.13.02-.8 0-.73.16-1.04.16-.3.55-.5-.3-.12-.46-.35t-.22-.6q-.03-.24-.03-1.09 0-.45-.12-.58-.09-.1-.33-.12v.1h-.62v-.71h.62v.07q.25 0 .37.04.2.05.32.16t.2.27q.09.18.12.47l.02.75q0 .57.06.8t.22.37.43.15M-34.14-27.39h3.13v.6h-2.47v4.41h-.66zM-28.64-32.15l-.64.08q-.14-.39-.38-.57t-.58-.17q-.45 0-.76.31-.3.32-.33.92h2.7v.16q0 .9-.45 1.4-.47.5-1.2.5-.75 0-1.22-.51-.47-.5-.47-1.42 0-.89.47-1.38t1.26-.49q.63 0 1.04.3.4.32.56.87m-.63 1.08h-2.03q.03.47.32.76.29.28.71.28.47 0 .76-.36.2-.23.24-.68M-27.5-32.06l-.62-.1q.1-.57.48-.87.37-.29 1.07-.29.43 0 .77.15t.52.42.18.58-.15.53q-.15.2-.4.32-.26.11-.92.28l-.54.16q-.16.07-.24.17t-.07.21q0 .19.18.33t.6.14q.36 0 .56-.16t.24-.44l.6.09q-.06.35-.21.56-.16.2-.48.33-.32.12-.75.12-.28 0-.53-.07t-.4-.18q-.18-.13-.3-.34-.1-.2-.1-.45 0-.27.13-.49.14-.22.4-.34t.93-.3q.5-.13.63-.2a.4.4 0 0 0 .18-.34.5.5 0 0 0-.2-.4q-.21-.17-.63-.17-.84.02-.94.75M-41.05-33.24h3.13v.6h-2.47v4.41h-.66zM22.12-33.24h.61v1.99q0 .7.29.94.28.25.68.25.24 0 .43-.11.18-.11.25-.3.07-.18.07-.56v-2.2h.62v2.22q0 .43-.04.6-.05.27-.19.46-.13.19-.4.3-.28.12-.61.12-.76 0-1.16-.6v.52h-.55zM23.8-26.3l-.64.08q-.14-.39-.38-.57t-.58-.17q-.45 0-.76.31-.3.32-.34.92h2.71v.16q0 .9-.46 1.4t-1.19.5q-.75 0-1.22-.51-.47-.5-.47-1.42 0-.89.46-1.38t1.27-.49q.63 0 1.04.3.4.32.55.87m-.63 1.08h-2.02q.03.47.32.76.29.28.71.28.47 0 .76-.36.2-.23.23-.68M24.71-27.39h.61v3.15h.71v.48h-.7v.34q0 .33.11.45t.4.11q.17 0 .36-.03l.1.54q-.32.06-.58.06-.4 0-.63-.15t-.31-.39q-.07-.18-.07-.54v-.39h-.54v-.48h.54zM27.94-27.38l-.09.54-.27-.02q-.13 0-.2.04-.08.05-.11.12-.03.08-.03.34v2.12h.61v.48h-.61v1.27l-.62-.37v-.9h-.45v-.48h.45v-2.08q0-.56.08-.73t.26-.28q.18-.1.52-.1.2 0 .46.05M16.83-27.39h3.13v.6H17.5v4.41h-.66zM29.13-32.15l-.63.08q-.14-.39-.38-.57t-.58-.17q-.46 0-.76.31-.3.32-.34.92h2.7l.01.16q0 .9-.46 1.4t-1.19.5q-.75 0-1.22-.51-.47-.5-.47-1.42 0-.89.46-1.38t1.27-.49q.63 0 1.03.3.41.32.56.87m-.63 1.08h-2.02q.03.47.32.76.28.28.7.28.48 0 .77-.36.2-.23.23-.68M30.27-32.06l-.61-.1q.1-.57.47-.87.37-.29 1.08-.29.43 0 .77.15.33.15.51.42t.18.58-.14.53q-.15.2-.4.32-.27.11-.92.28l-.54.16q-.16.07-.24.17t-.07.21q0 .19.18.33t.6.14q.36 0 .56-.16t.23-.44l.6.09q-.05.35-.2.56-.16.2-.48.33-.33.12-.75.12-.29 0-.53-.07t-.4-.18q-.19-.13-.3-.34-.1-.2-.1-.45 0-.27.13-.49t.4-.34q.25-.13.93-.3.5-.13.63-.2a.4.4 0 0 0 .18-.34.5.5 0 0 0-.2-.4q-.21-.17-.63-.17-.84.02-.94.75M16.72-33.24h3.13v.6h-2.47v4.41h-.66zM20.57-28.93h.61v.7h-.61zM20.57-33.24h.61v3.63h-.61zM-31.47-40h.62v.7h-.62zM-31.47-44.31h.62v3.63h-.62zM-29.43-44.7l-.6.09q-.01-.6.39-.88.4-.3 1.05-.3.54 0 .92.21.37.2.54.56.18.35.18 1.2v3.14h-.57v-.44q-.42.52-1.06.52-.48 0-.84-.24t-.54-.68q-.2-.44-.2-.96 0-.75.42-1.3.4-.53 1.16-.53.6 0 1 .47 0-.6-.04-.79-.09-.3-.32-.48t-.66-.17q-.4 0-.62.17-.17.13-.21.4m-.1 2.28q0 .65.3.99.28.33.7.33t.7-.34.3-1q0-.7-.28-1.03-.3-.32-.72-.32t-.7.33q-.3.32-.3 1.04M-26.02-44.31h.61v1.98q0 .43.1.67t.35.39.51.14q.37 0 .57-.21t.2-.67v-2.3h.61v2.3q0 .53-.13.81-.12.28-.42.44t-.7.16q-.66 0-1.09-.5v1.8h-.61zM-20.7-44.3l-.09.54q-.17-.03-.27-.03-.13 0-.2.05-.08.04-.11.12-.04.07-.04.34v2.12h.62v.48h-.62v1.27l-.6-.37v-.9h-.46v-.48h.45v-2.09q0-.55.08-.73t.26-.27.52-.11q.2 0 .46.05M-45.56-42.22v-.56q.27 0 .43-.14.17-.15.22-.37.06-.24.06-.85 0-.62.05-.89c.05-.36.26-.6.54-.7q.15-.06.49-.06h.2v.54h-.11q-.33 0-.44.1-.11.09-.14.32l-.01.8q0 .73-.17 1.05t-.55.48q.32.15.47.35t.21.57q.04.23.04 1.13 0 .44.11.57t.48.13h.1v.53h-.19q-.3 0-.42-.03-.2-.05-.32-.16t-.2-.28-.12-.46q-.02-.18-.02-.75t-.06-.8q-.12-.5-.65-.52M-39.71-42.12v.57l-3.32 1.4v-.6l2.63-1.09-2.63-1.09v-.61zM-37.19-42.78v.56a.7.7 0 0 0-.43.14.7.7 0 0 0-.22.37q-.05.24-.05.85t-.05.89a.8.8 0 0 1-.55.7q-.15.05-.48.05h-.2v-.53h.11q.32 0 .44-.1.1-.08.13-.31.02-.13.02-.8 0-.73.16-1.04t.55-.5q-.3-.13-.46-.35-.17-.23-.22-.61-.03-.23-.03-1.08 0-.45-.12-.58t-.47-.13h-.1v-.54h.19q.29 0 .42.04.2.06.31.16.13.1.21.28.08.17.11.46.02.18.03.75t.05.8.22.38.43.14M-36.44-44.31h.66v2.22h.77q.26 0 .37-.02.16-.04.3-.13.15-.1.34-.34t.48-.69l.66-1.04h.84l-.87 1.36q-.26.4-.55.67-.14.12-.4.25.72.1 1.06.46.35.37.35.9 0 .41-.21.76-.21.34-.56.47-.35.14-1.02.14h-2.22zm.66 2.8v1.65h1.59q.56 0 .82-.22.25-.23.25-.59 0-.24-.13-.45-.13-.2-.39-.3t-.71-.1zM39.28-44.31h.61v3.63h-.61zM41.32-44.7l-.6.09q-.02-.6.38-.88.4-.3 1.05-.3.55 0 .93.21.37.2.54.56.17.35.17 1.2v3.14h-.56v-.44q-.42.52-1.06.52-.48 0-.84-.24t-.55-.68-.18-.96q0-.75.4-1.3.42-.53 1.16-.53.6 0 1 .47.01-.6-.04-.79-.08-.3-.31-.48t-.66-.17q-.4 0-.62.17-.18.13-.21.4m-.1 2.28q0 .65.3.99.28.33.7.33.4 0 .7-.34t.3-1q0-.7-.29-1.03-.28-.32-.7-.32-.43 0-.72.33-.28.32-.28 1.04M44.72-44.31h.62v1.98q0 .43.1.67t.35.39.51.14q.37 0 .57-.21t.2-.67v-2.3h.61v2.3q0 .53-.13.81t-.42.44-.7.16q-.66 0-1.09-.5v1.8h-.62zM50.05-44.3l-.09.54q-.17-.03-.27-.03-.14 0-.21.05-.07.04-.1.12-.04.07-.04.34v2.12h.62v.48h-.62v1.27l-.61-.37v-.9h-.45v-.48h.45v-2.09q0-.55.08-.73t.26-.27.51-.11q.21 0 .47.05M34.31-44.31h.66v2.22h.77q.26 0 .37-.02.15-.04.3-.13.15-.1.34-.34t.48-.69l.66-1.04h.84l-.88 1.36q-.26.4-.55.67-.13.12-.4.25.73.1 1.07.46.35.37.35.9 0 .41-.21.76-.21.34-.56.47-.35.14-1.02.14h-2.22zm.66 2.8v1.65h1.59q.56 0 .81-.22.26-.23.26-.59 0-.24-.13-.45-.13-.2-.4-.3-.25-.1-.7-.1zM39.28-40h.61v.7h-.61zM-32.14-59.79h.44q-1.02 1.65-1.02 3.29 0 .65.14 1.28.12.52.33.99.13.3.55 1.01h-.44q-.65-.85-.95-1.72-.27-.74-.27-1.56 0-.92.35-1.78.36-.86.87-1.5M-30.54-56.9l-.62-.09q.07-.62.5-1.02.44-.4 1.1-.4.73 0 1.2.47.49.45.49 1.1 0 .5-.25.82t-.7.42q.35.16.52.43.18.26.18.59 0 .34-.18.64-.19.3-.53.48t-.76.18q-.6 0-1-.34t-.5-.96l.61-.1q.07.44.3.67.25.22.6.22.37 0 .6-.22t.23-.56q0-.43-.32-.63-.31-.2-.7-.2h-.1l-.07-.54q.26.07.43.07.43 0 .7-.28.28-.27.28-.7 0-.44-.3-.74t-.73-.3q-.37 0-.62.23t-.36.75M-26.62-56.95l-.65-.05q.07-.63.5-1.01.43-.39 1.11-.39.84 0 1.32.61.4.5.4 1.18 0 .71-.46 1.17-.45.45-1.1.45-.5 0-.95-.31l.27 1.34h2v.59h-2.5l-.48-2.57.58-.08q.14.22.38.35.24.14.53.14.48 0 .78-.3.3-.31.3-.84 0-.55-.31-.89t-.76-.33q-.37 0-.63.24t-.33.7M-23.24-59.79h.44q.5.65.86 1.5.35.87.35 1.8 0 .8-.26 1.55-.3.87-.95 1.72h-.44q.42-.71.55-1.02.2-.47.32-.99.15-.63.15-1.27 0-1.64-1.02-3.29M-19.2-56.78v.56a.7.7 0 0 0-.42.14.7.7 0 0 0-.22.37q-.06.24-.06.85t-.05.89a.8.8 0 0 1-.55.7q-.15.05-.48.05h-.2v-.53h.11q.33 0 .44-.1.11-.08.13-.31.02-.13.02-.8 0-.73.16-1.04t.56-.5q-.3-.13-.47-.35-.16-.23-.22-.61-.03-.23-.03-1.08 0-.45-.11-.58t-.48-.13h-.1v-.54h.19q.3 0 .42.04.2.06.32.16t.2.28.12.46q.02.18.02.75t.06.8.22.38.43.14M-47.21-56.22v-.56q.27 0 .43-.14t.22-.37q.05-.24.06-.85 0-.62.04-.89.1-.55.55-.7.15-.06.49-.06h.19v.54h-.1q-.33 0-.44.1-.11.09-.14.32-.02.12-.02.8 0 .73-.16 1.05-.17.32-.55.48.32.15.47.35t.2.57q.04.23.04 1.13 0 .44.12.57t.47.13h.1v.53h-.18q-.3 0-.43-.03-.19-.05-.31-.16t-.2-.28q-.1-.17-.12-.46-.02-.18-.02-.75t-.06-.8q-.11-.5-.65-.52M-44.04-58.31v.45q.37-.54 1.01-.53.65 0 1.1.5.47.52.47 1.45 0 .39-.11.74-.21.7-.8.96-.3.15-.63.14-.6 0-1-.49v1.79h-.6v-5.01zm.17.9q-.18.29-.18.94 0 .66.3 1.01t.7.35.68-.33.28-1.05q0-.7-.3-1.05-.29-.35-.7-.35-.49 0-.78.48M-40.38-55q-.56-.49-.56-1.5 0-.92.47-1.4.47-.5 1.23-.5.48 0 .88.23.4.22.6.62.22.4.22 1.1 0 .87-.48 1.36-.47.49-1.22.49-.67 0-1.14-.4m.07-1.5q0 .7.3 1.05.3.34.77.34.46 0 .76-.35t.3-1.02q0-.71-.3-1.06t-.76-.35-.77.35-.3 1.04M-37.23-58.31h.75l.95 1.43.2-.3.74-1.13h.76l-1.35 1.92 1.25 1.7h-.73l-.61-.85-.28-.4-.25.4-.56.86h-.77l1.23-1.75zM15.7-50.77v-10.46h35v10.46zM-35.86-72.31h.62v1.9q0 .39.1.72.07.21.23.33t.36.12q.23 0 .45-.13l.21.57q-.32.2-.63.2-.21 0-.4-.12-.17-.13-.38-.51v.55h-.56zM-30.55-71.06l-.6.08q-.07-.46-.3-.69-.25-.22-.61-.22-.45 0-.73.33-.29.33-.29 1.07 0 .72.3 1.05.29.33.75.33.3 0 .53-.18.21-.19.3-.55l.6.1q-.11.54-.49.84-.37.3-.96.3-.47 0-.87-.22t-.6-.66-.19-1.03q0-.91.46-1.4.45-.48 1.2-.48.59 0 1 .35.4.35.5.98M-30.03-72.31h.61v5h-.61zM-25.34-71.22l-.64.08q-.14-.4-.38-.57-.24-.18-.58-.18-.45 0-.76.32-.3.32-.33.92h2.7v.16q0 .9-.45 1.4-.47.49-1.2.49-.75 0-1.22-.5-.47-.51-.47-1.43 0-.88.47-1.37t1.26-.5q.63 0 1.04.31.4.31.56.87m-.63 1.07H-28q.03.48.32.76t.71.28q.47 0 .76-.35.2-.23.24-.69M-22.9-70.78v.56a.7.7 0 0 0-.42.14.7.7 0 0 0-.22.37q-.06.24-.06.85t-.05.89a.8.8 0 0 1-.55.7q-.15.05-.48.05h-.2v-.53h.11q.33 0 .44-.1.11-.08.13-.31.02-.13.02-.8 0-.73.16-1.04t.56-.5q-.3-.13-.47-.35-.16-.23-.22-.61-.03-.23-.03-1.08 0-.45-.11-.58t-.48-.13h-.1v-.54h.19q.3 0 .42.04.2.06.32.16t.2.28.12.46q.02.18.02.75t.06.8.22.38.43.14M-43.51-70.22v-.56q.27 0 .43-.14t.22-.37q.05-.24.06-.85 0-.62.04-.89.1-.55.55-.7.15-.06.49-.06h.19v.54h-.1q-.33 0-.44.1-.11.09-.14.32-.02.12-.02.8 0 .73-.16 1.05-.17.32-.55.48.32.15.47.35t.2.57q.04.23.04 1.13 0 .44.12.57t.47.13h.1v.53h-.18q-.3 0-.43-.03-.19-.05-.31-.16t-.2-.28q-.1-.17-.12-.46-.02-.18-.02-.75t-.06-.8q-.11-.5-.65-.52M-37.93-71.06l-.6.08q-.07-.46-.31-.69-.25-.22-.61-.22-.45 0-.73.33t-.28 1.07q0 .72.29 1.05t.75.33q.31 0 .53-.18.22-.19.3-.55l.6.1q-.1.54-.48.84t-.97.3q-.47 0-.87-.22t-.59-.66-.2-1.03q0-.91.46-1.4.45-.48 1.2-.48.6 0 1 .35t.5.98M-37.4-72.31h.61v3.63h-.61zM-37.4-68h.61v.7h-.61z"/><circle cx="33.2" cy="-70" r="5.8"/><path d="M-34.88-86.31h.61v1.98q0 .43.1.67t.35.39.51.14q.37 0 .57-.21t.2-.67v-2.3h.61v2.3q0 .53-.12.81-.13.28-.43.44t-.7.16q-.66 0-1.09-.5v1.8h-.61zM-27.87-85.22l-.63.08q-.14-.4-.38-.57-.24-.18-.58-.18-.46 0-.76.32t-.34.92h2.7l.01.16q0 .9-.46 1.4t-1.19.49q-.75 0-1.22-.5-.47-.51-.47-1.43 0-.88.46-1.37t1.27-.5q.63 0 1.03.31t.56.87m-.63 1.07h-2.02q.03.48.32.76.28.28.7.28.48 0 .77-.35.2-.23.23-.69M-26.42-84.31q-.25-.07-.44-.2-.2-.14-.32-.36t-.12-.49q0-.45.32-.74.32-.3.92-.3.36 0 .68.13.31.11.65.4.03-.25.13-.44h.64q-.12.2-.16.43t-.04 1.09v.82q0 .4-.03.57-.05.25-.19.42-.13.16-.43.27-.29.11-.75.11t-.82-.13-.55-.36-.27-.63l.6-.08q.1.39.3.54.22.15.65.15.47 0 .7-.2.18-.16.18-.54V-84q-.36-.12-1.1-.21-.37-.04-.55-.1m1.64-.17v-.23q0-.4-.1-.61-.13-.27-.4-.43-.28-.15-.64-.15t-.54.16-.19.41q0 .16.09.3t.24.2.54.12q.67.1 1 .23M-20.85-86.31h.57v5h-.6v-1.79q-.17.22-.43.36-.25.14-.58.14-.45 0-.81-.24t-.54-.67-.18-1 .2-.98q.2-.43.56-.67.36-.23.8-.23.67 0 1.01.54zm-1.94 1.8q0 .73.27 1.07.28.33.69.33.42 0 .7-.35.3-.35.3-1.1 0-.67-.29-1t-.68-.33-.7.35-.3 1.04M-17.63-84.78v.56a.7.7 0 0 0-.43.14.7.7 0 0 0-.22.37q-.06.24-.06.85t-.04.89a.8.8 0 0 1-.55.7q-.15.05-.49.05h-.19v-.53h.1q.33 0 .44-.1.11-.08.14-.31l.01-.8q0-.73.16-1.04t.56-.5q-.3-.13-.47-.35-.16-.23-.22-.61-.03-.23-.03-1.08 0-.45-.11-.58t-.47-.13h-.11v-.54h.2q.29 0 .42.04.19.06.31.16t.2.28.12.46q.02.18.02.75t.06.8.22.38.43.14M-48.77-84.22v-.56q.26 0 .43-.14t.22-.37q.04-.24.06-.85 0-.62.04-.89.1-.54.55-.7.15-.06.49-.06h.19v.54h-.1q-.33 0-.45.1-.1.09-.13.32-.02.12-.02.8 0 .73-.17 1.05t-.54.48q.32.15.47.35t.2.57q.04.23.04 1.13 0 .44.12.57t.47.13h.1v.53h-.18q-.3 0-.43-.03-.19-.05-.31-.16-.13-.1-.21-.28-.08-.17-.11-.46-.03-.18-.02-.75t-.06-.8q-.11-.5-.65-.52M-46.17-86.31h.62v1.98q0 .43.1.67t.34.39.52.14q.36 0 .56-.21t.2-.67v-2.3h.62v2.3q0 .53-.13.81t-.42.44-.7.16q-.66 0-1.1-.5v1.8h-.6zM-39.15-85.22l-.64.08q-.14-.4-.38-.57-.24-.18-.58-.18-.45 0-.76.32-.3.32-.33.92h2.7v.16q0 .9-.46 1.4t-1.18.49q-.76 0-1.23-.5-.47-.51-.47-1.43 0-.88.47-1.37t1.26-.5q.63 0 1.04.31.4.31.56.87m-.63 1.07h-2.03q.03.48.32.76t.71.28q.47 0 .76-.35.2-.23.24-.69M-38.8-86.31h.75l.96 1.43.2-.3.74-1.13h.76l-1.35 1.92 1.25 1.7h-.73l-.62-.85-.27-.4-.26.4-.55.86h-.77l1.22-1.75zM39-84l-2.9 5.02h-5.8L27.4-84l2.9-5.02h5.8zM-40.2-98.22v-.56q.26 0 .42-.14t.22-.37q.06-.24.06-.85 0-.62.05-.89.09-.54.54-.7.15-.06.49-.06h.19v.54h-.1q-.33 0-.44.1-.11.09-.14.32l-.01.8q0 .73-.17 1.05t-.55.48q.32.15.47.35t.2.57q.05.23.05 1.13 0 .44.11.57t.47.13h.11v.53h-.2q-.28 0-.41-.03-.2-.05-.32-.16t-.2-.28-.12-.46q-.02-.18-.02-.75t-.06-.8q-.12-.5-.65-.52M-37.6-100.31h.61v1.98q0 .7.29.95t.68.25q.24 0 .42-.11.19-.12.26-.3.07-.19.07-.56v-2.21h.62v2.23q0 .43-.04.6-.05.26-.19.45-.14.2-.41.31-.28.12-.6.12-.76 0-1.16-.6v.52h-.55zM-31.33-100.31h.55v3.63h-.62v-1.95q0-.46-.1-.7-.1-.25-.34-.4-.24-.13-.52-.13t-.47.13q-.18.14-.24.39-.04.16-.04.64v2.02h-.61v-2.25q0-.4.03-.58.06-.27.2-.45.13-.19.4-.31.28-.12.6-.12.73 0 1.16.61zM-28.39-100.3l-.08.54q-.17-.03-.27-.03-.14 0-.21.05-.08.04-.11.12t-.03.34v2.12h.62v.48h-.62v1.27l-.62-.37v-.9h-.45v-.48h.45v-2.09q0-.55.08-.73t.26-.27.52-.11q.2 0 .46.05M-26.2-98.78v.56a.7.7 0 0 0-.42.14.7.7 0 0 0-.22.37q-.06.24-.06.85t-.05.89a.8.8 0 0 1-.55.7q-.15.05-.48.05h-.2v-.53h.11q.33 0 .44-.1.1-.08.13-.31.02-.13.02-.8 0-.73.16-1.04t.55-.5q-.3-.13-.46-.35-.16-.23-.22-.61-.03-.23-.03-1.08 0-.45-.12-.58t-.47-.13h-.1v-.54h.19q.3 0 .42.04.2.06.32.16t.2.28.12.46l.02.75q0 .57.06.8t.22.38.43.14M39-98l-2.9 5.02h-5.8L27.4-98l2.9-5.02h5.8zm-3.48 0a2.32 2.32 0 0 0-4.64 0 2.32 2.32 0 0 0 4.64 0M-17.17-114.31h.62v3.63h-.62zM-17.17-110h.62v.7h-.62zM-15.63-114.31h.61v5h-.61zM-10.94-113.22l-.64.08q-.14-.4-.38-.57-.24-.18-.57-.18-.46 0-.76.32t-.34.92h2.7v.16q0 .9-.45 1.4-.46.49-1.2.49t-1.22-.5q-.47-.51-.47-1.43 0-.88.47-1.37t1.26-.5q.63 0 1.04.31.4.31.56.87m-.63 1.07h-2.03q.03.48.32.76t.71.28q.47 0 .77-.35.19-.23.23-.69M-8.5-112.78v.56a.7.7 0 0 0-.42.14.7.7 0 0 0-.22.37q-.06.24-.06.85t-.05.89a.8.8 0 0 1-.54.7q-.15.05-.49.05h-.2v-.53h.12q.32 0 .43-.1.11-.08.14-.31l.01-.8q0-.73.16-1.04t.56-.5q-.3-.13-.47-.35-.16-.23-.22-.61-.03-.23-.03-1.08 0-.45-.11-.58t-.47-.13h-.11v-.54h.2q.28 0 .41.04.2.06.32.16t.2.28.12.46q.02.18.02.75t.06.8.22.38.43.14M-57.91-112.22v-.56q.26 0 .43-.14.15-.15.22-.37.05-.24.06-.85 0-.62.04-.89.1-.54.55-.7.15-.06.49-.06h.19v.54h-.1q-.33 0-.44.1-.12.09-.14.32-.02.12-.02.8 0 .73-.17 1.05t-.54.48q.32.15.47.35t.2.57q.04.23.04 1.13 0 .44.12.57t.47.13h.1v.53h-.18q-.3 0-.43-.03-.19-.05-.31-.16-.13-.1-.2-.28-.1-.17-.12-.46-.02-.18-.02-.75t-.06-.8q-.11-.5-.65-.52M-55.32-114.31h.61v5h-.61zM-53.42-111q-.56-.49-.56-1.5 0-.92.47-1.4.47-.5 1.23-.5.48 0 .88.23.4.22.6.62.22.4.22 1.1 0 .87-.48 1.36-.47.49-1.22.49-.67 0-1.14-.4m.07-1.5q0 .7.3 1.05.3.34.77.34.46 0 .76-.35t.3-1.02q0-.71-.3-1.06t-.76-.35-.76.35-.3 1.04M-46.89-113.06l-.6.08q-.07-.46-.3-.69-.25-.22-.61-.22-.45 0-.73.33t-.28 1.07q0 .72.29 1.05t.75.33q.3 0 .53-.18.21-.19.3-.55l.6.1q-.11.54-.49.84-.37.3-.96.3-.47 0-.87-.22t-.6-.66-.19-1.03q0-.91.46-1.4.45-.48 1.2-.48.59 0 1 .35.4.35.5.98M-46.36-114.31h.62v1.44l.43.41 1.2-1.85h.76l-1.53 2.28 1.4 1.35h-.8l-1.46-1.48v2.86h-.62zM-42.86-114.31h.62v1.98q0 .7.28.95t.68.25q.25 0 .43-.11t.25-.3.08-.56v-2.21h.61v2.23q0 .43-.03.6-.06.26-.2.45-.13.2-.4.31-.28.12-.61.12-.76 0-1.16-.6v.52h-.55zM-36.59-114.31h.55v3.63h-.61v-1.95q0-.46-.1-.7-.1-.25-.35-.4-.24-.13-.52-.13-.27 0-.46.13-.19.14-.25.39-.03.16-.03.64v2.02h-.62v-2.25q0-.4.04-.58.05-.27.19-.45.13-.19.41-.31t.6-.12q.73 0 1.15.61zM-33.64-114.3l-.09.54q-.17-.03-.27-.03-.14 0-.21.05-.07.04-.1.12-.04.07-.04.34v2.12h.62v.48h-.62v1.27l-.61-.37v-.9h-.45v-.48h.45v-2.09q0-.55.07-.73t.26-.27.52-.11q.2 0 .47.05M-33.7-115.7h4.08v.44h-4.08zM-29.24-115.7h.62v1.76q.16-.2.4-.32.25-.13.55-.13.42 0 .8.23t.59.69.2 1q0 .52-.18.96-.19.43-.54.67t-.82.24q-.36 0-.6-.14-.26-.14-.45-.41v.47h-.57zm.56 3.18q0 .7.3 1.07t.7.37.68-.35.29-1.04q0-.72-.3-1.07-.29-.35-.7-.35t-.68.34q-.29.33-.29 1.03M-25.35-114.31h.62v1.9q0 .39.1.72.07.21.23.33t.36.12q.23 0 .45-.13l.21.57q-.32.2-.63.2-.21 0-.4-.12-.17-.13-.39-.51v.55h-.55zM-22.68-111q-.56-.49-.56-1.5 0-.92.47-1.4.47-.5 1.23-.5.48 0 .88.23.4.22.61.62t.21 1.1q0 .87-.47 1.36-.48.49-1.23.49-.67 0-1.14-.4m.07-1.5q0 .7.3 1.05.31.34.77.34t.76-.35q.3-.34.3-1.02 0-.71-.3-1.06t-.76-.35-.76.35-.3 1.04M-18.97-114.31h.61v3.15h.7v.48h-.7v.33q0 .33.12.45t.4.12q.16 0 .36-.03l.09.53q-.32.06-.58.06-.4 0-.62-.14-.23-.15-.32-.4-.06-.17-.06-.54v-.38h-.54v-.48h.54zM28.04-109.68v-4.64a2.6 2.6 0 0 1 2.58-2.58v-.9h5.16v2.32h-5.16v1.16h5.16v4.64h-5.16v1.16h5.16v2.32h-5.16v-.9a2.6 2.6 0 0 1-2.58-2.58M-28.49-127.13l-.6-.1q.1-.58.47-.87t1.08-.3q.42 0 .76.15t.52.42.18.58q0 .32-.15.53t-.4.32-.91.29q-.45.12-.55.16-.16.06-.23.16t-.08.22q0 .18.18.32t.6.14q.37 0 .56-.15.2-.16.24-.44l.6.08q-.06.35-.2.56-.16.21-.49.34-.32.12-.75.12-.28 0-.53-.07t-.39-.18q-.19-.14-.3-.35t-.11-.45q0-.26.13-.48.14-.22.4-.35t.94-.3q.5-.12.63-.2a.4.4 0 0 0 .18-.33.5.5 0 0 0-.2-.4q-.2-.18-.64-.18-.84.01-.94.76M-25.35-128.31h.62v1.98q0 .43.1.67t.34.39.52.14q.36 0 .56-.21t.2-.67v-2.3h.62v2.3q0 .53-.13.81t-.43.44-.7.16q-.65 0-1.08-.5v1.8h-.62zM-18.34-127.22l-.63.08q-.14-.4-.38-.57-.24-.18-.58-.18-.45 0-.76.32-.3.32-.34.92h2.71v.16q0 .9-.46 1.4t-1.19.49q-.75 0-1.22-.5-.47-.51-.47-1.43 0-.88.47-1.37t1.26-.5q.63 0 1.04.31.4.31.55.87m-.62 1.07H-21q.03.48.32.76t.71.28q.47 0 .76-.35.2-.23.24-.69M-17.57-128.31h.62v1.9q0 .39.1.72.07.21.23.33t.36.12q.23 0 .45-.13l.21.57q-.32.2-.63.2-.22 0-.4-.12-.17-.13-.39-.51v.55h-.55zM-13.55-126.78v.56a.7.7 0 0 0-.43.14.7.7 0 0 0-.22.37q-.06.24-.06.85t-.05.89a.8.8 0 0 1-.55.7q-.15.05-.48.05h-.2v-.53h.11q.33 0 .44-.1.11-.08.13-.31.02-.13.02-.8 0-.73.16-1.04t.56-.5q-.3-.13-.47-.35-.16-.23-.22-.61-.03-.23-.03-1.08 0-.45-.11-.58t-.48-.13h-.1v-.54h.19q.3 0 .42.04.2.06.32.16t.2.28.12.46q.02.18.02.75t.06.8.22.38.43.14M-52.85-126.22v-.56q.27 0 .43-.14t.22-.37q.06-.24.06-.85 0-.62.04-.89.1-.55.55-.7.15-.06.49-.06h.19v.54h-.1q-.33 0-.44.1-.11.09-.14.32l-.01.8q0 .73-.17 1.05t-.55.48q.32.15.47.35t.2.57q.05.23.05 1.13 0 .44.11.57t.47.13h.1v.53h-.18q-.3 0-.43-.03-.19-.05-.31-.16t-.2-.28q-.1-.17-.12-.46-.02-.18-.02-.75t-.06-.8q-.12-.5-.65-.52M-50.26-128.31h.62v5h-.62zM-48.36-125q-.56-.49-.56-1.5 0-.92.47-1.4.47-.5 1.23-.5.48 0 .88.23.4.22.61.62t.21 1.1q0 .87-.47 1.36-.48.49-1.23.49-.67 0-1.14-.4m.07-1.5q0 .7.3 1.05.31.34.77.34t.76-.35q.3-.34.3-1.02 0-.71-.3-1.06t-.76-.35-.76.35-.3 1.04M-41.82-127.06l-.6.08q-.07-.46-.32-.69-.24-.22-.6-.22-.45 0-.73.33t-.28 1.07q0 .72.29 1.05t.75.33q.31 0 .53-.18.21-.19.3-.55l.6.1q-.1.54-.48.84t-.97.3q-.47 0-.87-.22t-.59-.66-.2-1.03q0-.91.46-1.4.45-.48 1.2-.48.59 0 1 .35.4.35.5.98M-41.3-128.31h.62v1.44l.44.41 1.2-1.85h.75l-1.52 2.28 1.38 1.35h-.8l-1.45-1.48v2.86h-.61zM-37.13-128.31h.65l.73 2.79.14-.62.58-2.17h.64l1.13 3.63h-.6l-.62-2.1-.2-.7-.19.7-.54 2.1h-.63l-.58-2.13-.19-.75-.21.78-.58 2.1h-.64zM-32.07-126.31q-.24-.07-.44-.2-.2-.14-.32-.36t-.12-.49q0-.45.32-.74.32-.3.92-.3.36 0 .68.13.31.11.66.4.02-.25.12-.44h.64q-.11.2-.15.43t-.04 1.09v.82q0 .4-.03.57-.06.25-.2.42-.13.16-.42.27-.3.11-.76.11t-.82-.13-.54-.36q-.2-.24-.27-.63l.6-.08q.1.39.3.54.21.15.64.15.47 0 .7-.2.18-.16.18-.54v-.16q-.36-.12-1.1-.21-.37-.04-.55-.1m1.65-.17v-.23q0-.4-.1-.61-.13-.27-.41-.43t-.63-.15-.55.16-.18.41q0 .16.08.3t.24.2.54.12q.67.1 1 .23M29.36-121.65a5.8 5.8 131.42 1 1 1.36.9l2.08-2.08a3.19 3.19 97.15 1 0-1.58-.67zM-34.2-142.7l-.6.09q-.01-.6.38-.88.4-.3 1.05-.3.55 0 .93.21.37.2.54.56.17.35.17 1.2v3.14h-.56v-.44q-.42.52-1.06.52-.48 0-.84-.24t-.55-.68-.18-.96q0-.75.4-1.3.42-.53 1.16-.53.6 0 1 .47.01-.6-.04-.79-.08-.3-.31-.48t-.66-.17q-.4 0-.62.17-.18.13-.21.4m-.1 2.28q0 .65.3.99.28.33.7.33.4 0 .7-.34t.3-1q0-.7-.29-1.03-.28-.32-.7-.32-.43 0-.72.33-.28.32-.28 1.04M-30.8-142.31h.62v1.98q0 .7.29.95t.67.25q.25 0 .43-.11.19-.12.26-.3.07-.19.07-.56v-2.21h.61v2.23q0 .43-.03.6-.05.26-.2.45-.13.2-.4.31-.28.12-.6.12-.76 0-1.16-.6v.52h-.56zM-23.78-141.22l-.64.08q-.14-.4-.38-.57-.24-.18-.57-.18-.46 0-.76.32t-.34.92h2.7v.16q0 .9-.45 1.4-.46.49-1.2.49t-1.22-.5q-.47-.51-.47-1.43 0-.88.47-1.37t1.26-.5q.63 0 1.04.31.4.31.56.87m-.63 1.07h-2.03q.03.48.32.76t.71.28q.47 0 .77-.35.19-.23.23-.69M-21.58-142.3l-.09.54q-.16-.03-.27-.03-.13 0-.2.05-.08.04-.11.12t-.03.34v2.12h.61v.48h-.61v1.27l-.62-.37v-.9h-.45v-.48h.45v-2.09q0-.55.08-.73t.26-.27.52-.11q.2 0 .46.05M-19.39-140.78v.56a.7.7 0 0 0-.43.14.7.7 0 0 0-.22.37q-.05.24-.05.85t-.05.89a.8.8 0 0 1-.55.7q-.15.05-.48.05h-.2v-.53h.11q.33 0 .44-.1.1-.08.13-.31.02-.13.02-.8 0-.73.16-1.04t.55-.5q-.3-.13-.46-.35-.17-.23-.22-.61-.03-.23-.03-1.08 0-.45-.12-.58t-.47-.13h-.1v-.54h.19q.29 0 .42.04.2.06.31.16.13.1.21.28.08.17.12.46l.02.75q0 .57.05.8t.22.38.43.14M-47.02-140.22v-.56q.27 0 .43-.14.17-.15.22-.37.06-.24.06-.85 0-.62.05-.89c.05-.36.26-.6.55-.7q.15-.06.48-.06h.2v.54h-.11q-.33 0-.44.1-.11.09-.14.32l-.01.8q0 .73-.17 1.05t-.55.48q.32.15.47.35t.21.57q.04.23.04 1.13 0 .44.11.57t.48.13h.1v.53h-.19q-.3 0-.42-.03-.2-.05-.32-.16t-.2-.28-.12-.46q-.02-.18-.02-.75t-.06-.8q-.12-.5-.65-.52M-44.41-142.31h.61v1.88q0 .5.1.76t.32.4.48.14q.34 0 .5-.2.14-.21.14-.62v-2.36h.62v2.1q0 .57.25.82.26.26.64.26.21 0 .37-.1.15-.1.21-.26.06-.17.06-.54v-2.28h.62v2.49q0 .62-.3.92-.29.3-.83.3-.69 0-1.12-.64-.1.3-.36.47t-.66.17q-.36 0-.65-.16-.28-.17-.45-.43v.5h-.55zM-37.9-140.31q-.25-.07-.45-.2-.2-.14-.32-.36t-.12-.49q0-.45.32-.74.32-.3.92-.3.36 0 .68.13.32.11.66.4.02-.25.12-.44h.64q-.11.2-.15.43t-.04 1.09v.82q0 .4-.03.57-.06.25-.2.42-.13.16-.42.27-.3.11-.76.11t-.82-.13-.54-.36q-.2-.24-.27-.63l.6-.08q.1.39.3.54.21.15.64.15.47 0 .7-.2.18-.16.18-.54v-.16q-.36-.12-1.1-.21-.37-.04-.55-.1m1.65-.17v-.23q0-.4-.1-.61-.13-.27-.41-.43t-.63-.15-.55.16-.18.41q0 .16.08.3t.24.2.54.12q.67.1 1 .23M34.84-141.64a2.32 2.32 45 1 0-3.28 3.28l2.73 2.73-1.09 1.1-2.73-2.74a3.87 3.87 45 0 1 5.46-5.46l2.74 2.73-1.1 1.1zM-14.09-155.13l-.6-.1q.1-.58.47-.87t1.08-.3q.42 0 .76.15t.52.42.18.58q0 .32-.15.53t-.4.32-.91.29q-.45.12-.55.16-.16.06-.23.16t-.08.22q0 .18.18.32t.6.14q.37 0 .56-.15.2-.16.24-.44l.6.08q-.06.35-.2.56-.16.21-.49.34-.32.12-.75.12-.28 0-.53-.07t-.39-.18q-.19-.14-.3-.35t-.11-.45q0-.26.13-.48.14-.22.4-.35t.94-.3q.5-.12.63-.2a.4.4 0 0 0 .18-.33.5.5 0 0 0-.2-.4q-.2-.18-.64-.18-.84.01-.94.76M-8.57-156.31h.55v3.63h-.62v-1.95q0-.46-.1-.7-.1-.25-.34-.4-.24-.13-.52-.13t-.46.13q-.2.14-.25.39-.04.16-.04.64v2.02h-.61v-2.25q0-.4.03-.58.06-.27.2-.45.13-.19.4-.31.29-.12.6-.12.74 0 1.16.61zM-7.06-156.31h.61v1.9q0 .39.1.72.07.21.23.33t.37.12q.22 0 .45-.13l.2.57q-.31.2-.62.2-.22 0-.4-.12-.18-.13-.39-.51v.55h-.55zM-1.6-155.22l-.64.08q-.14-.4-.38-.57-.24-.18-.58-.18-.45 0-.76.32-.3.32-.33.92h2.7v.16q0 .9-.46 1.4t-1.18.49q-.76 0-1.23-.5-.47-.51-.47-1.43 0-.88.47-1.37t1.26-.5q.63 0 1.04.31.4.31.56.87m-.63 1.07h-2.03q.03.48.32.76t.71.28q.47 0 .76-.35.2-.23.24-.69M.85-154.78v.56a.7.7 0 0 0-.43.14.7.7 0 0 0-.22.37q-.06.24-.06.85t-.05.89a.8.8 0 0 1-.55.7q-.15.05-.48.05h-.2v-.53h.11q.33 0 .44-.1.11-.08.13-.31.02-.13.02-.8 0-.73.16-1.04t.56-.5q-.3-.13-.47-.35-.16-.23-.22-.61-.03-.23-.03-1.08 0-.45-.11-.58t-.48-.13h-.1v-.54h.19q.3 0 .42.04.2.06.32.16t.2.28.12.46q.02.18.02.75t.06.8.22.38.43.14M-67.25-154.22v-.56q.27 0 .43-.14t.22-.37q.06-.24.06-.85 0-.62.04-.89.1-.55.55-.7.15-.06.49-.06h.19v.54h-.1q-.33 0-.44.1-.11.09-.14.32l-.01.8q0 .73-.17 1.05t-.55.48q.32.15.47.35t.2.57q.05.23.05 1.13 0 .44.11.57t.47.13h.1v.53h-.18q-.3 0-.43-.03-.19-.05-.31-.16t-.2-.28q-.1-.17-.12-.46-.02-.18-.02-.75t-.06-.8q-.11-.5-.65-.52M-64.65-156.31h.62v1.88q0 .5.1.76t.32.4.48.14q.34 0 .5-.2.14-.21.14-.62v-2.36h.62v2.1q0 .57.25.82.25.26.64.26.2 0 .36-.1t.22-.26q.06-.17.06-.54v-2.28h.61v2.49q0 .62-.29.92t-.83.3q-.69 0-1.12-.64-.1.3-.36.47t-.66.17q-.37 0-.65-.16-.28-.17-.46-.43v.5h-.55zM-55.7-155.22l-.63.08q-.14-.4-.38-.57-.24-.18-.58-.18-.45 0-.76.32-.3.32-.33.92h2.7v.16q0 .9-.45 1.4-.47.49-1.2.49-.75 0-1.22-.5-.47-.51-.47-1.43 0-.88.47-1.37t1.26-.5q.63 0 1.04.31.4.31.56.87m-.63 1.07h-2.03q.03.48.32.76t.71.28q.47 0 .77-.35.19-.23.23-.69M-54.25-154.31q-.24-.07-.44-.2-.2-.14-.32-.36t-.12-.49q0-.45.32-.74.32-.3.92-.3.36 0 .68.13.32.11.66.4.02-.25.12-.44h.64q-.11.2-.15.43t-.04 1.09v.82q0 .4-.03.57-.06.25-.2.42-.13.16-.42.27-.3.11-.76.11t-.82-.13-.54-.36q-.2-.24-.27-.63l.6-.08q.1.39.3.54.21.15.64.15.47 0 .7-.2.18-.16.18-.54v-.16q-.36-.12-1.1-.21-.37-.04-.55-.1m1.65-.17v-.23q0-.4-.1-.61-.13-.27-.41-.43t-.63-.15-.55.16-.18.41q0 .16.08.3t.24.2.54.12q.67.1 1 .23M-50.67-155.13l-.6-.1q.1-.58.47-.87t1.08-.3q.42 0 .76.15t.52.42.18.58q0 .32-.15.53t-.4.32-.91.29q-.45.12-.55.16-.16.06-.23.16t-.08.22q0 .18.18.32.19.14.6.14.37 0 .56-.15.2-.16.24-.44l.6.08q-.05.35-.2.56t-.49.34-.75.12q-.28 0-.53-.07-.24-.08-.39-.18-.19-.14-.3-.35t-.11-.45q0-.26.13-.48.14-.22.4-.35t.94-.3q.5-.12.63-.2a.4.4 0 0 0 .18-.33.5.5 0 0 0-.2-.4q-.2-.18-.64-.18-.84.01-.94.76M-45.15-156.31h.55v3.63h-.61v-1.95q0-.46-.1-.7-.1-.25-.35-.4-.24-.13-.52-.13-.27 0-.46.13-.2.14-.25.39-.04.16-.04.64v2.02h-.61v-2.25q0-.4.04-.58.05-.27.19-.45.13-.19.4-.31.29-.12.6-.12.74 0 1.16.61zM-43.64-156.31h.61v1.9q0 .39.1.72.07.21.23.33.17.12.37.12.22 0 .45-.13l.21.57q-.32.2-.63.2-.22 0-.4-.12-.18-.13-.39-.51v.55h-.55zM-38.18-155.22l-.64.08q-.14-.4-.38-.57-.24-.18-.58-.18-.45 0-.75.32t-.34.92h2.7v.16q0 .9-.45 1.4-.47.49-1.2.49-.75 0-1.22-.5-.47-.51-.47-1.43 0-.88.47-1.37t1.26-.5q.63 0 1.04.31.4.31.56.87m-.63 1.07h-2.03q.03.48.32.76t.71.28q.47 0 .77-.35.19-.23.23-.69M-35.73-154.78v.56a.7.7 0 0 0-.43.14.7.7 0 0 0-.22.37q-.06.24-.06.85t-.05.89a.8.8 0 0 1-.54.7q-.16.05-.49.05h-.2v-.53h.11q.33 0 .44-.1.11-.08.14-.31l.01-.8q0-.73.16-1.04t.56-.5q-.3-.13-.47-.35-.16-.23-.22-.61-.03-.23-.03-1.08 0-.45-.11-.58t-.48-.13h-.1v-.54h.19q.3 0 .42.04.2.06.32.16t.2.28.12.46q.02.18.02.75t.06.8.22.38.43.14M-35.54-156.31h.7l.55 1.52h2.1l.58-1.52h.75l-2.05 5h-.71zm1.44 2.06.55 1.47q.18.47.27.95.12-.4.36-1.04l.52-1.38zM-30.67-154.22v-.56q.26 0 .43-.14t.22-.37q.05-.24.06-.85 0-.62.04-.89.1-.55.55-.7.15-.06.49-.06h.19v.54h-.1q-.33 0-.44.1-.11.09-.14.32-.02.12-.02.8 0 .73-.16 1.05-.17.32-.55.48.32.15.47.35t.2.57q.04.23.04 1.13 0 .44.12.57t.47.13h.1v.53h-.18q-.3 0-.43-.03-.19-.05-.31-.16t-.2-.28q-.1-.17-.12-.46-.02-.18-.02-.75t-.06-.8q-.11-.5-.65-.52M-28.07-156.31h.62v1.88q0 .5.1.76t.32.4.48.14q.34 0 .49-.2t.15-.62v-2.36h.62v2.1q0 .57.25.82.25.26.63.26.22 0 .37-.1.16-.1.22-.26.06-.17.06-.54v-2.28h.61v2.49q0 .62-.29.92t-.83.3q-.69 0-1.12-.64-.1.3-.36.47t-.67.17q-.36 0-.64-.16-.29-.17-.46-.43v.5h-.55zM-19.11-155.22l-.64.08q-.14-.4-.38-.57-.24-.18-.58-.18-.45 0-.76.32-.3.32-.33.92h2.7v.16q0 .9-.46 1.4t-1.18.49q-.76 0-1.23-.5-.47-.51-.47-1.43 0-.88.47-1.37t1.26-.5q.63 0 1.04.31.4.31.56.87m-.63 1.07h-2.03q.03.48.32.76t.71.28q.47 0 .76-.35.2-.23.24-.69M-17.67-154.31q-.24-.07-.44-.2-.2-.14-.32-.36t-.12-.49q0-.45.32-.74.32-.3.92-.3.36 0 .68.13.31.11.66.4.02-.25.12-.44h.64q-.11.2-.15.43t-.04 1.09v.82q0 .4-.03.57-.06.25-.2.42-.13.16-.42.27-.3.11-.76.11t-.82-.13-.54-.36q-.2-.24-.27-.63l.6-.08q.1.39.3.54.21.15.64.15.47 0 .7-.2.18-.16.18-.54v-.16q-.36-.12-1.1-.21-.37-.04-.55-.1m1.65-.17v-.23q0-.4-.1-.61-.13-.27-.41-.43t-.63-.15-.55.16-.18.41q0 .16.08.3t.24.2.54.12q.67.1 1 .23M44-158.72h.59v.58H44zM45.84-157.55l-.5-.07q.05-.52.4-.84.37-.33.91-.33.61 0 1 .38.4.38.4.92 0 .4-.2.67t-.57.35q.28.13.42.35.15.22.15.5t-.15.53q-.15.25-.44.4-.29.14-.63.14-.49 0-.82-.28t-.42-.8l.5-.08q.06.37.26.56.2.18.5.18t.49-.18q.19-.18.19-.46 0-.36-.27-.53-.26-.17-.58-.17h-.08l-.06-.44q.22.06.36.06.35 0 .58-.23t.23-.58q0-.37-.25-.62-.24-.25-.6-.25-.3 0-.52.2-.2.18-.3.62M26.9-157.55l-.51-.07q.05-.52.41-.84.36-.33.9-.33.62 0 1.01.38.4.38.4.92 0 .4-.2.67t-.58.35q.29.13.43.35t.14.5q0 .28-.15.53t-.43.4q-.3.14-.63.14-.5 0-.82-.28-.34-.28-.43-.8l.51-.08q.06.37.26.56.2.18.5.18t.48-.18q.2-.18.2-.46 0-.36-.27-.53-.26-.17-.59-.17h-.08l-.05-.44q.21.06.35.06.36 0 .59-.23t.23-.58q0-.37-.25-.62t-.6-.25q-.31 0-.52.2-.21.18-.3.62"/><path d="M16.6-152.55v-2.9h.4v1.25h13.46v-1.25h.4v2.9h-.4v-1.25H17v1.25z"/><path d="M20.24-158.72v4.17h-.32q-.14-.27-.46-.55t-.75-.49v-.5q.24.1.54.27t.48.35v-3.25zM23.18-158.72h.51v1h.56v.47h-.56v2.69h-.41l-1.9-2.7v-.46h1.8zm0 1.47h-1.3l1.3 1.87zM25.06-158.72h.58v.58h-.58zM30.86-156.31h.7l.55 1.52h2.1l.58-1.52h.75l-2.05 5h-.71zm1.44 2.06.55 1.47q.18.47.27.95.12-.4.36-1.04l.52-1.38zM35.54-152.55v-2.9h.4v1.25H49.4v-1.25h.4v2.9h-.4v-1.25H35.94v1.25z"/><path d="M39.19-158.72v4.17h-.33q-.13-.27-.45-.55t-.75-.49v-.5q.24.1.54.27t.48.35v-3.25zM42.13-158.72h.5v1h.57v.47h-.56v2.69h-.42l-1.9-2.7v-.46h1.8zm0 1.47h-1.3l1.3 1.87zM-18.17-169.13l-.61-.1q.1-.58.47-.87t1.08-.3q.43 0 .77.15t.52.42.18.58q0 .32-.15.53t-.4.32q-.27.11-.92.29-.45.12-.54.16-.16.06-.24.16t-.07.22q0 .18.18.32t.6.14q.36 0 .56-.15.2-.16.24-.44l.6.08q-.06.35-.21.56-.16.21-.48.34-.32.12-.75.12-.28 0-.53-.07t-.4-.18q-.18-.14-.3-.35-.1-.2-.1-.45 0-.26.13-.48t.4-.35.93-.3q.5-.12.63-.2a.4.4 0 0 0 .18-.33.5.5 0 0 0-.2-.4q-.21-.18-.63-.18-.84.01-.94.76M-12.65-170.31h.55v3.63h-.62v-1.95q0-.46-.1-.7-.1-.25-.34-.4-.25-.13-.52-.13-.28 0-.47.13-.19.14-.24.39-.04.16-.04.64v2.02h-.62v-2.25q0-.4.04-.58.06-.27.19-.45.14-.19.41-.31.28-.12.6-.12.73 0 1.16.61zM-11.15-170.31h.62v1.9q0 .39.1.72.07.21.23.33t.36.12q.23 0 .45-.13l.21.57q-.32.2-.63.2-.21 0-.4-.12-.17-.13-.38-.51v.55h-.56zM-5.69-169.22l-.63.08q-.14-.4-.38-.57-.24-.18-.58-.18-.46 0-.76.32t-.34.92h2.7l.01.16q0 .9-.46 1.4t-1.19.49q-.75 0-1.22-.5-.47-.51-.47-1.43 0-.88.46-1.37t1.27-.5q.63 0 1.03.31t.56.87m-.63 1.07h-2.02q.03.48.32.76.28.28.7.28.48 0 .77-.35.2-.23.23-.69M-3.24-168.78v.56a.7.7 0 0 0-.43.14.7.7 0 0 0-.22.37q-.04.24-.06.85 0 .61-.04.89a.8.8 0 0 1-.55.7q-.15.05-.49.05h-.19v-.53h.1q.33 0 .44-.1.12-.08.14-.31.02-.13.02-.8 0-.73.16-1.04t.55-.5q-.3-.13-.46-.35-.17-.23-.22-.61-.03-.23-.03-1.08 0-.45-.12-.58t-.47-.13h-.1v-.54h.18q.3 0 .43.04.19.06.31.16.13.1.2.28.1.17.12.46.02.18.02.75t.06.8.22.38.43.14M-63.17-168.22v-.56q.27 0 .43-.14.17-.15.22-.37.06-.24.06-.85 0-.62.05-.89.1-.55.55-.7.15-.06.48-.06h.2v.54h-.11q-.33 0-.44.1-.1.09-.14.32l-.01.8q0 .73-.17 1.05t-.54.48q.31.15.46.35t.21.57q.04.23.04 1.13 0 .44.12.57t.47.13h.1v.53h-.19q-.3 0-.42-.03-.2-.05-.32-.16t-.2-.28-.12-.46q-.01-.18-.02-.75 0-.57-.06-.8-.11-.5-.65-.52M-60-170.31v.45q.38-.54 1.01-.53.65 0 1.11.5.46.52.46 1.45 0 .39-.1.74-.21.7-.8.96-.3.15-.63.14-.6 0-1-.49v1.79h-.61v-5.01zm.17.9q-.18.29-.18.94 0 .66.3 1.01.29.35.7.35t.67-.33.28-1.05q0-.7-.29-1.05-.3-.35-.7-.35-.5 0-.78.48M-56.34-167q-.56-.49-.56-1.5 0-.92.47-1.4.47-.5 1.24-.5.47 0 .87.23.4.22.61.62t.21 1.1q0 .87-.47 1.36-.48.49-1.22.49-.68 0-1.15-.4m.08-1.5q0 .7.3 1.05.3.34.77.34.45 0 .76-.35.3-.34.3-1.02 0-.71-.3-1.06t-.76-.35q-.47 0-.77.35t-.3 1.04M-52.79-170.31h.62v5h-.62zM-49.79-170.3l-.09.54q-.16-.03-.27-.03-.13 0-.2.05-.08.04-.11.12t-.03.34v2.12h.61v.48h-.61v1.27l-.62-.37v-.9h-.45v-.48h.45v-2.09q0-.55.08-.73t.26-.27.52-.11q.2 0 .46.05M-48.1-171.79h.44q-1.02 1.65-1.02 3.29 0 .65.15 1.28.12.52.33.99.13.3.54 1.01h-.44q-.64-.85-.95-1.72-.26-.74-.26-1.56 0-.92.35-1.78t.86-1.5M-44.8-170.31v5.03h-.4q-.15-.33-.54-.67t-.9-.59v-.6q.28.11.64.32.37.22.59.43v-3.92zM-42.73-169.88q.42-.51 1.14-.52.55 0 .91.3t.54.84q.2.54.19 1.42 0 .75-.12 1.18-.21.89-.81 1.22-.3.16-.7.16-.55 0-.92-.3-.36-.3-.54-.83a5 5 0 0 1-.18-1.43q0-1.41.5-2.04m.45 3.73q.25.36.68.36t.71-.4.3-1.65-.3-1.64-.7-.41-.72.4-.29 1.65.32 1.7M-39.2-171.79h.45q.5.65.86 1.5.35.87.35 1.8 0 .8-.26 1.55-.31.87-.95 1.72h-.45q.42-.71.56-1.02.2-.47.32-.99.15-.63.15-1.27 0-1.64-1.03-3.29M-35.15-168.78v.56a.7.7 0 0 0-.43.14.7.7 0 0 0-.22.37q-.05.24-.06.85t-.04.89a.8.8 0 0 1-.55.7q-.15.05-.49.05h-.19v-.53h.1q.33 0 .44-.1.12-.08.14-.31.02-.13.02-.8 0-.73.16-1.04t.55-.5q-.3-.13-.46-.35-.17-.23-.22-.61-.03-.23-.03-1.08 0-.45-.12-.58t-.47-.13h-.1v-.54h.18q.3 0 .43.04.19.06.31.16.13.1.2.28.1.17.12.46.02.18.02.75t.06.8.22.38.43.14M-34.76-168.22v-.56q.27 0 .43-.14.17-.15.22-.37.06-.24.06-.85 0-.62.05-.89.1-.55.55-.7.15-.06.48-.06h.2v.54h-.11q-.33 0-.44.1-.1.09-.14.32l-.01.8q0 .73-.17 1.05t-.54.48q.31.15.46.35t.21.57q.04.23.04 1.13 0 .44.12.57t.47.13h.1v.53h-.19q-.3 0-.42-.03-.2-.05-.32-.16t-.2-.28-.12-.46q-.01-.18-.02-.75 0-.57-.06-.8-.12-.5-.65-.52M-32.15-170.31h.61v1.88q0 .5.1.76t.32.4.48.14q.35 0 .5-.2t.15-.62v-2.36h.61v2.1q0 .57.25.82.26.26.64.26.21 0 .37-.1t.22-.26.06-.54v-2.28h.6v2.49q0 .62-.28.92-.3.3-.83.3-.7 0-1.12-.64-.11.3-.37.47t-.66.17q-.36 0-.65-.16-.28-.17-.45-.43v.5h-.55zM-23.2-169.22l-.63.08q-.14-.4-.38-.57-.24-.18-.58-.18-.46 0-.76.32t-.34.92h2.7l.01.16q0 .9-.46 1.4t-1.19.49q-.75 0-1.22-.5-.47-.51-.47-1.43 0-.88.46-1.37t1.26-.5q.64 0 1.04.31t.56.87m-.63 1.07h-2.02q.03.48.31.76.3.28.72.28.47 0 .76-.35.2-.23.23-.69M-21.75-168.31q-.25-.07-.45-.2-.2-.14-.31-.36-.13-.22-.13-.49 0-.45.33-.74.32-.3.92-.3.36 0 .67.13.32.11.66.4.03-.25.13-.44h.64q-.12.2-.16.43t-.04 1.09v.82q0 .4-.03.57-.05.25-.19.42t-.43.27-.75.11-.83-.13-.54-.36-.27-.63l.6-.08q.1.39.3.54.22.15.65.15.46 0 .7-.2.17-.16.17-.54v-.16q-.35-.12-1.1-.21-.36-.04-.54-.1m1.64-.17v-.23q0-.4-.1-.61-.13-.27-.4-.43-.28-.15-.64-.15t-.54.16-.19.41q0 .16.09.3t.24.2.54.12q.67.1 1 .23M42.11-172.72h.58v.58h-.58zM43.85-172.36q.34-.43.94-.43.46 0 .76.25t.44.7.15 1.17q0 .62-.09.98-.19.74-.67 1-.26.14-.59.14-.45 0-.75-.24-.3-.25-.45-.7t-.15-1.18q0-1.17.4-1.69m.38 3.1q.21.3.57.3.35 0 .6-.35.23-.33.23-1.36 0-1.02-.24-1.36t-.59-.34-.59.34-.24 1.36.26 1.4"/><path d="M18.6-162.2a2 2 0 0 1-2-2v-7.6a2 2 0 0 1 2-2h3.16v3.22h10v1.13h.4v1.25H49.4v-1.25h.4v2.9h-.4v-1.25H32.16v1.25h-.4v1.13h-10v3.22z"/><path d="M37.3-172.72v4.17h-.33q-.14-.27-.46-.55t-.74-.49v-.5q.23.1.53.27t.48.35v-3.25zM40.55-170.46q.61.24.61.83 0 .45-.33.77-.33.3-.88.31-.54 0-.86-.3a1 1 0 0 1-.33-.77q0-.61.62-.84-.38-.1-.58-.38-.2-.27-.2-.68 0-.54.37-.9.38-.37 1-.37.6 0 .98.37.38.36.38.9 0 .38-.2.65-.2.28-.58.4m-1.27.87q0 .26.2.45.19.18.48.18t.48-.19q.2-.19.2-.47t-.2-.45q-.18-.19-.48-.19t-.49.19-.19.48m-.16-1.92q0 .36.23.6t.6.23q.37 0 .61-.24.25-.24.25-.6 0-.37-.24-.6-.24-.24-.6-.24-.24 0-.44.11t-.3.32-.11.42M-17.55-182.8h1.89v.61h-1.9zM-14.66-183.88q.42-.51 1.14-.52.55 0 .91.3t.55.84.18 1.42q0 .75-.12 1.18-.21.89-.81 1.22-.3.16-.7.16-.55 0-.92-.3-.36-.3-.54-.83a5 5 0 0 1-.18-1.43q0-1.41.5-2.04m.45 3.73q.25.36.68.36t.72-.4q.28-.41.28-1.65 0-1.23-.28-1.64-.3-.41-.72-.41t-.71.4q-.29.42-.29 1.65t.32 1.7M-8.94-184.31v5.03h-.4q-.16-.33-.54-.67-.4-.35-.9-.59v-.6q.28.11.64.32t.58.43v-3.92zM-7.23-185.79h.44q.5.65.86 1.5.35.87.35 1.8 0 .8-.26 1.55-.3.87-.95 1.72h-.44q.42-.71.55-1.02.2-.47.32-.99.15-.63.15-1.27 0-1.64-1.02-3.29M-3.19-182.78v.56a.7.7 0 0 0-.42.14.7.7 0 0 0-.22.37q-.06.24-.06.85t-.05.89a.8.8 0 0 1-.55.7q-.15.05-.48.05h-.2v-.53h.11q.33 0 .44-.1.1-.08.13-.31.02-.13.02-.8 0-.73.16-1.04t.55-.5q-.3-.13-.46-.35-.16-.23-.22-.61-.03-.23-.03-1.08 0-.45-.12-.58t-.47-.13h-.1v-.54h.19q.3 0 .42.04.2.06.32.16t.2.28.12.46l.02.75q0 .57.06.8t.22.38.42.14M-63.22-182.22v-.56q.27 0 .43-.14t.22-.37q.06-.24.06-.85 0-.62.05-.89.09-.55.54-.7.15-.06.49-.06h.2v.54h-.12q-.32 0-.43.1-.11.09-.14.32l-.01.8q0 .73-.17 1.05t-.55.48q.32.15.47.35t.2.57q.05.23.05 1.13 0 .44.11.57t.47.13h.11v.53h-.2q-.28 0-.41-.03-.2-.05-.32-.16t-.2-.28-.12-.46q-.02-.18-.02-.75t-.06-.8q-.12-.5-.65-.52M-60.61-184.31h.61v1.88q0 .5.1.76t.32.4.48.14q.34 0 .5-.2.14-.21.14-.62v-2.36h.62v2.1q0 .57.25.82.25.26.64.26.2 0 .37-.1.15-.1.21-.26.06-.17.06-.54v-2.28h.61v2.49q0 .62-.29.92t-.83.3q-.69 0-1.12-.64-.1.3-.36.47t-.66.17q-.37 0-.65-.16-.28-.17-.45-.43v.5h-.55zM-54.78-180h.62v.7h-.62zM-54.78-184.31h.62v3.63h-.62zM-50.25-183.06l-.6.08q-.07-.46-.32-.69-.24-.22-.6-.22-.45 0-.73.33t-.28 1.07q0 .72.29 1.05t.75.33q.31 0 .53-.18.21-.19.3-.55l.6.1q-.1.54-.48.84t-.97.3q-.47 0-.87-.22t-.6-.66-.19-1.03q0-.91.46-1.4.45-.48 1.2-.48.59 0 1 .35.4.35.5.98M-49.73-184.31h.61v1.9q0 .39.1.72.07.21.23.33t.36.12q.23 0 .46-.13l.2.57q-.31.2-.62.2-.22 0-.4-.12-.18-.13-.4-.51v.55h-.54zM-47.06-181q-.57-.49-.57-1.5 0-.92.47-1.4.47-.5 1.24-.5.47 0 .87.23.4.22.62.62.2.4.2 1.1 0 .87-.47 1.36t-1.22.49q-.68 0-1.14-.4m.07-1.5q0 .7.3 1.05.3.34.77.34.45 0 .76-.35.3-.34.3-1.02 0-.71-.3-1.06t-.76-.35-.77.35-.3 1.04M-41.19-185.7h.62v5.02h-.56v-.49q-.38.57-1.06.57-.43 0-.79-.22-.36-.23-.55-.66t-.19-.98q0-.9.47-1.42t1.11-.51q.3 0 .55.13t.4.33zm-1.9 3.21q0 .72.28 1.06t.68.34.7-.36.3-1.1q0-.67-.28-1-.29-.34-.68-.34t-.7.35q-.3.35-.3 1.05M-39.62-184.31h.62v1.9q0 .39.1.72.07.21.23.33t.36.12q.23 0 .45-.13l.21.57q-.32.2-.63.2-.21 0-.4-.12-.17-.13-.38-.51v.55h-.56zM-36.1-185.79h.44q-1.02 1.65-1.02 3.29 0 .65.14 1.28.12.52.33.99.13.3.55 1.01h-.44q-.65-.85-.95-1.72-.27-.74-.27-1.56 0-.92.36-1.78.35-.86.86-1.5M-34.87-184.31h.66v2.03h1.29q1.06 0 1.47.45.4.44.4 1.08 0 .37-.15.68t-.4.49-.62.23q-.26.05-.76.05h-1.89zm.66 2.63v1.79h1.29q.45 0 .61-.05.26-.07.42-.3t.16-.53q0-.44-.27-.67t-.91-.24zM-31.27-184.31h.7l.55 1.52h2.1l.58-1.52h.76l-2.05 5h-.72zm1.45 2.06.55 1.47q.17.47.27.95.11-.4.35-1.04l.52-1.38zM-26.04-184.31h.66v2.22h.77q.26 0 .37-.02.15-.04.3-.13.15-.1.34-.34t.48-.69l.66-1.04h.83l-.87 1.36q-.26.4-.55.67-.13.12-.4.25.72.1 1.07.46.34.37.34.9 0 .41-.2.76-.21.34-.56.47-.35.14-1.02.14h-2.22zm.66 2.8v1.65h1.59q.56 0 .81-.22.26-.23.26-.59 0-.24-.13-.45-.14-.2-.4-.3-.25-.1-.7-.1zM-19.85-184.31h.67v4.42h1.65v.59h-3.97v-.6h1.65zM36.68-185.48v-1.55h.77v1.55zM38.23-186.25v-.78H39v.78zM37.45-187.03v-.77h.78v.77zM27.4-181.61h5.41v5.41H27.4zm4.64 4.64v-3.87h-3.87v3.87zM33.59-176.2v-1.55h.77v1.55zM35.13-176.2v-.77h.78v.77zM36.68-176.2v-.77h.77v.77z"/><path d="M38.23-176.2v-.77h-.78v-.78h-.77v.78h-.77v-1.55h1.54v-.77h.78v.77H39v2.32zM28.95-177.75v-2.32h2.32v2.32zM34.36-177.75v-.77h.77v.77zM33.59-179.3v-.77h.77v.78zM35.13-179.3v-.77h.78v.78zM37.45-180.07v-.77h-1.54v-1.55h.77v.78h.77v-.78h.78v-.77H39v3.1zM33.59-180.84v-1.55h-1.55v-.77h1.55v-.77h-.78v-.78h.78v-1.54h-.78v-1.55h3.87v.77h-2.32v1.55h2.32v1.55h-2.32v.77h.77v1.55h-.77v.77zM27.4-182.39v-.77h.77v.77z"/><path d="M36.68-182.39v-.77h.77v.77zM30.5-187.03h1.54v.78h.77v.77H30.5v.77h.78v.78h-.78v.77h-2.32v-.77h1.55v-.78h-.77v-.77H27.4v-.77h.77v-.78h-.77v-.77h3.1zh-1.55v.78h1.54z"/><path d="M31.27-183.16v-.77h.77v.77zM27.4-183.93v-.78h.77v.78zM38.23-184.7v-.78H39v.77zM-23.4-194h.62v.7h-.61zM-23.4-198.31h.62v3.63h-.61zM-21.86-198.31h.62v5h-.62zM-17.17-197.22l-.63.08q-.14-.4-.38-.57-.24-.18-.58-.18-.45 0-.76.32-.3.32-.34.92h2.71v.16q0 .9-.46 1.4t-1.19.49q-.75 0-1.22-.5-.47-.51-.47-1.43 0-.88.46-1.37t1.27-.5q.63 0 1.04.31.4.31.55.87m-.63 1.07h-2.02q.03.48.32.76t.71.28q.47 0 .76-.35.2-.23.23-.69M-14.72-196.78v.56a.7.7 0 0 0-.42.14.7.7 0 0 0-.23.37q-.05.24-.05.85t-.05.89a.8.8 0 0 1-.55.7q-.15.05-.48.05h-.2v-.53h.11q.33 0 .44-.1.1-.08.13-.31.02-.13.02-.8 0-.73.16-1.04t.55-.5q-.3-.13-.46-.35-.17-.23-.22-.61-.03-.23-.03-1.08 0-.45-.12-.58t-.47-.13h-.1v-.54h.19q.3 0 .42.04.2.06.32.16t.2.28.12.46l.02.75q0 .57.05.8t.23.38.42.14M-51.69-196.22v-.56q.27 0 .43-.14.17-.15.22-.37.06-.24.06-.85 0-.62.05-.89c.05-.36.26-.6.54-.7q.15-.06.49-.06h.2v.54h-.11q-.33 0-.44.1-.11.09-.14.32l-.01.8q0 .73-.17 1.05t-.55.48q.32.15.47.35t.21.57q.04.23.04 1.13 0 .44.11.57t.48.13h.1v.53h-.19q-.3 0-.42-.03-.2-.05-.32-.16t-.2-.28-.12-.46q-.02-.18-.02-.75t-.06-.8q-.11-.5-.65-.52M-49.08-198.31h.61v1.98q0 .7.29.95t.68.25q.24 0 .42-.11.19-.12.26-.3.07-.19.07-.56v-2.21h.62v2.23q0 .43-.04.6-.05.26-.19.45-.14.2-.41.31-.28.12-.6.12-.76 0-1.16-.6v.52h-.55zM-42.81-198.31h.55v3.63h-.62v-1.95q0-.46-.1-.7-.1-.25-.34-.4-.24-.13-.52-.13t-.46.13q-.2.14-.25.39-.04.16-.04.64v2.02h-.61v-2.25q0-.4.03-.58.06-.27.2-.45.13-.19.4-.31.29-.12.6-.12.73 0 1.16.61zM-39.87-198.3l-.08.54q-.17-.03-.27-.03-.14 0-.21.05-.08.04-.11.12t-.03.34v2.12h.62v.48h-.62v1.27l-.61-.37v-.9h-.46v-.48h.46v-2.09q0-.55.07-.73t.26-.27.52-.11q.2 0 .46.05M-39.92-199.7h4.08v.44h-4.08zM-35.46-199.7h.62v1.76q.15-.2.4-.32.24-.13.55-.13.42 0 .8.23t.58.69.2 1q0 .52-.18.96t-.54.67-.82.24q-.35 0-.6-.14t-.45-.41v.47h-.56zm.56 3.18q0 .7.3 1.07t.7.37.68-.35.28-1.04q0-.72-.29-1.07-.3-.35-.7-.35t-.69.34-.28 1.03M-31.57-198.31h.61v1.9q0 .39.1.72.07.21.23.33t.37.12q.22 0 .45-.13l.2.57q-.31.2-.62.2-.22 0-.4-.12-.18-.13-.39-.51v.55h-.55zM-28.9-195q-.56-.49-.56-1.5 0-.92.47-1.4.47-.5 1.23-.5.47 0 .87.23.4.22.62.62.2.4.2 1.1 0 .87-.47 1.36t-1.22.49q-.68 0-1.14-.4m.07-1.5q0 .7.3 1.05.3.34.77.34.45 0 .76-.35.3-.34.3-1.02 0-.71-.3-1.06t-.76-.35-.77.35-.3 1.04M-25.2-198.31h.62v3.15h.7v.48h-.7v.33q0 .33.11.45t.4.12q.17 0 .36-.03l.1.53q-.32.06-.58.06-.4 0-.63-.14t-.31-.4q-.07-.17-.07-.54v-.38h-.54v-.48h.54zM35.78-193.68h-5.16v-4.64h5.16zM35.78-199.48h-5.16v-2.32h5.16zM30.62-190.2v-2.32h5.16v2.32zM-8.56-211.06l-.6.08q-.07-.46-.31-.69t-.6-.22q-.46 0-.74.33t-.28 1.07q0 .72.3 1.05.28.33.75.33.3 0 .52-.18.22-.19.3-.55l.6.1q-.1.54-.48.84-.37.3-.97.3-.46 0-.86-.22t-.6-.66-.19-1.03q0-.91.45-1.4.46-.48 1.2-.48.6 0 1 .35t.51.98M-7.7-209q-.56-.49-.56-1.5 0-.92.47-1.4.47-.5 1.23-.5.48 0 .88.23.4.22.61.62t.21 1.1q0 .87-.48 1.36-.47.49-1.22.49-.67 0-1.14-.4m.07-1.5q0 .7.3 1.05.31.34.77.34t.76-.35q.3-.34.3-1.02 0-.71-.3-1.06t-.76-.35-.76.35-.3 1.04M-4.14-212.31h.62v1.88q0 .5.1.76t.32.4.48.14q.34 0 .49-.2t.15-.62v-2.36h.61v2.1q0 .57.26.82.25.26.63.26.21 0 .37-.1t.22-.26.06-.54v-2.28h.61v2.49q0 .62-.3.92-.28.3-.82.3-.7 0-1.12-.64-.1.3-.37.47-.25.17-.66.17-.36 0-.64-.16-.29-.17-.46-.43v.5h-.55zM1.65-213.79h.45q.5.65.86 1.5.35.87.35 1.8 0 .8-.26 1.55-.31.87-.95 1.72h-.45q.42-.71.56-1.02.2-.47.32-.99.15-.63.15-1.27 0-1.64-1.03-3.29M5.7-210.78v.56a.7.7 0 0 0-.43.14.7.7 0 0 0-.22.37q-.04.24-.06.85 0 .61-.04.89a.8.8 0 0 1-.55.7q-.15.05-.49.05h-.19v-.53h.1q.33 0 .44-.1.12-.08.14-.31.02-.13.02-.8 0-.73.16-1.04t.55-.5q-.3-.13-.46-.35-.17-.23-.22-.61-.03-.23-.03-1.08 0-.45-.12-.58t-.47-.13h-.1v-.54h.18q.3 0 .43.04.19.06.31.16.13.1.2.28.1.17.12.46.02.18.02.75t.06.8.22.38.43.14M-72.1-210.22v-.56q.25 0 .42-.14t.22-.37q.06-.24.06-.85 0-.62.05-.89c.05-.36.26-.6.55-.7q.15-.06.48-.06h.2v.54h-.11q-.33 0-.44.1-.1.09-.14.32l-.01.8q0 .73-.17 1.05t-.54.48q.31.15.46.35t.21.57q.04.23.04 1.13 0 .44.12.57t.47.13h.1v.53h-.19q-.3 0-.42-.03-.2-.05-.32-.16t-.2-.28-.12-.46q-.01-.18-.02-.75 0-.57-.06-.8-.11-.5-.65-.52M-67.19-213.7h.62v5.02h-.56v-.49q-.38.57-1.05.57-.44 0-.8-.22-.36-.23-.55-.66t-.19-.98q0-.9.47-1.42t1.11-.51q.3 0 .55.13t.4.33zm-1.9 3.21q0 .72.29 1.06.27.34.67.34t.7-.36.3-1.1q0-.67-.28-1-.28-.34-.68-.34t-.7.35-.3 1.05M-65.61-212.31h.61v1.9q0 .39.1.72.07.21.23.33t.36.12q.23 0 .46-.13l.2.57q-.31.2-.62.2-.22 0-.4-.12-.18-.13-.4-.51v.55h-.54zM-62.1-213.79h.44q-1.02 1.65-1.02 3.29 0 .65.15 1.28.11.52.32.99.14.3.55 1.01h-.44q-.64-.85-.95-1.72-.26-.74-.26-1.56 0-.92.35-1.78t.86-1.5M-60.95-212.31h.62v1.98q0 .43.1.67t.35.39.51.14q.37 0 .57-.21t.2-.67v-2.3h.61v2.3q0 .53-.13.81t-.42.44-.7.16q-.66 0-1.09-.5v1.8h-.62zM-55.62-212.3l-.09.54q-.17-.03-.27-.03-.14 0-.2.05-.08.04-.12.12t-.03.34v2.12h.62v.48h-.62v1.27l-.61-.37v-.9h-.45v-.48h.45v-2.09q0-.55.08-.73t.26-.27.51-.11q.21 0 .47.05M-53.68-212.3l-.08.54q-.17-.03-.27-.03-.14 0-.21.05-.08.04-.11.12t-.03.34v2.12h.62v.48h-.62v1.27l-.61-.37v-.9h-.46v-.48h.46v-2.09q0-.55.07-.73t.26-.27.52-.11q.2 0 .46.05M-53.16-213.7h.61v1.76q.16-.2.4-.32.25-.13.56-.13.42 0 .8.23t.58.69.2 1q0 .52-.18.96t-.54.67-.82.24q-.35 0-.6-.14t-.45-.41v.47h-.56zm.55 3.18q0 .7.3 1.07t.7.37.68-.35.29-1.04q0-.72-.3-1.07-.28-.35-.7-.35-.4 0-.68.34-.29.33-.29 1.03M-48.9-211.13l-.62-.1q.1-.58.48-.87.37-.3 1.08-.3.42 0 .76.15t.52.42.18.58q0 .32-.15.53t-.4.32-.91.29q-.46.12-.55.16-.16.06-.23.16t-.08.22q0 .18.18.32t.6.14q.37 0 .56-.15.2-.16.24-.44l.6.08q-.06.35-.21.56t-.48.34-.75.12q-.28 0-.53-.07t-.39-.18q-.2-.14-.3-.35-.11-.2-.11-.45 0-.26.13-.48.14-.22.4-.35t.94-.3q.5-.12.63-.2a.4.4 0 0 0 .18-.33.5.5 0 0 0-.2-.4q-.22-.18-.64-.18-.84.01-.94.76M-45.6-209.38h.7v.7h-.7zM-45.6-212.31h.7v.7h-.7zM-44.29-212.4h.5l1.45 5.18h-.5zM-42.34-212.4h.5l1.44 5.18h-.49zM-36.81-211.22l-.64.08q-.14-.4-.38-.57-.24-.18-.58-.18-.45 0-.76.32-.3.32-.33.92h2.7v.16q0 .9-.46 1.4t-1.18.49q-.76 0-1.23-.5-.47-.51-.47-1.43 0-.88.47-1.37t1.26-.5q.63 0 1.04.31.4.31.56.87m-.63 1.07h-2.03q.03.48.32.76t.71.28q.47 0 .76-.35.2-.23.24-.69M-36.45-212.31h.74l.96 1.43.2-.3.74-1.13h.76l-1.35 1.92 1.25 1.7h-.74l-.6-.85-.28-.4-.26.4-.55.86h-.77l1.22-1.75zM-31.87-210.31q-.24-.07-.44-.2-.2-.14-.32-.36t-.12-.49q0-.45.32-.74.32-.3.92-.3.36 0 .68.13.31.11.66.4.02-.25.12-.44h.64q-.11.2-.15.43t-.04 1.09v.82q0 .4-.03.57-.06.25-.2.42-.13.16-.42.27-.3.11-.76.11t-.82-.13-.54-.36q-.2-.24-.27-.63l.6-.08q.1.39.3.54.21.15.64.15.47 0 .7-.2.18-.16.18-.54v-.16q-.36-.12-1.1-.21-.37-.04-.55-.1m1.65-.17v-.23q0-.4-.1-.61-.13-.27-.41-.43t-.63-.15-.55.16-.18.41q0 .16.08.3t.24.2.54.12q.67.1 1 .23M-28.65-212.31h.62v1.88q0 .5.1.76t.31.4.49.14q.34 0 .49-.2t.15-.62v-2.36h.61v2.1q0 .57.26.82.25.26.63.26.21 0 .37-.1t.22-.26.06-.54v-2.28h.6v2.49q0 .62-.28.92-.3.3-.83.3-.7 0-1.12-.64-.1.3-.37.47-.25.17-.66.17-.36 0-.64-.16-.29-.17-.46-.43v.5h-.55zM-22.82-213.7h.62v1.76q.15-.2.4-.32.24-.13.55-.13.42 0 .8.23t.58.69.2 1q0 .52-.18.96t-.53.67-.82.24q-.36 0-.61-.14t-.45-.41v.47h-.56zm.56 3.18q0 .7.3 1.07t.7.37.68-.35.28-1.04q0-.72-.29-1.07t-.7-.35q-.4 0-.69.34-.28.33-.28 1.03M-18.94-212.31h.62v5h-.62zM-14.25-211.22l-.63.08q-.14-.4-.38-.57-.24-.18-.58-.18-.46 0-.76.32t-.34.92h2.7l.01.16q0 .9-.46 1.4t-1.19.49q-.75 0-1.22-.5-.47-.51-.47-1.43 0-.88.46-1.37t1.26-.5q.64 0 1.04.31t.56.87m-.63 1.07h-2.02q.03.48.31.76.3.28.72.28.47 0 .76-.35.2-.23.23-.69M-13.3-212.31h.7v.7h-.7zM34.82-215.34v-.46h.47v.46zM35.75-215.34v-.46h.47v.46zM37.14-215.34v-.46h.47v.46zM27.4-207.45h3.25v3.25H27.4zm2.78 2.79v-2.32h-2.32v2.32zM31.58-204.2v-.46h-.47v-.47h.47v-.46h.46v-.47h.46v-.46h.47v.46h.46v-.46h.47v-.93h.46v1.4h-.46v.46h.46v.46h-1.4v.47h-.46v.46z"/><path d="M32.97-204.2v-.46h.46v.46zM33.9-204.2v-.46h.46v.46zM35.75-207.45H39v3.25h-3.25zm2.79 2.79v-2.32h-2.32v2.32z"/><path d="M36.68-208.38h-.46v.47h-.93v3.25h-.47v-2.79h-.46v-.46h.46v-.47h-.92v-.92h1.39v-.47h.46v-.46h.93v.93h.46v-.47h1.4v-.46H39v1.39h-.46v.93h-.47v-.47h-.46v.47h-.93zm.93-.46h.93v-.46h-.93zm-1.86.46h.47v-.92h-.47zM28.33-205.13v-1.39h1.39v1.4z"/><path d="M36.68-205.13v-1.39h1.4v1.4zM31.11-205.6v-.92h.93v.46h-.46v.47zM32.04-206.52v-.93h.46v.93zM31.11-206.98v-1.4h.93v.47h-.46v.93zM32.97-206.98v-.47h-.47v-.46h.93v-.47h.47v.93h-.47v.47zM27.86-207.91v-.93h.93v.46h-.46v.47zM28.8-207.91v-.47h.46v-.46h-.47v-.46h.47v-.47h.92v.47h-.46v.46h.46v.46h.47v.47zM32.04-208.38v-.46h.46v.46zM32.97-208.38v-.46h.46v.46z"/><path d="M27.4-208.84v-3.25h.46v.93h.47v.93h.46v-.93h.47v.46h.46v.47h-.46v.46h-1.4v.93zM30.18-208.84v-.46h.47v.46zM31.58-208.84v-.46h.46v.46zM31.11-209.3v-.47h.47v.47zM32.97-209.3v-.47h.46v.47zM30.18-209.77v-.46h.93v.46zM33.43-209.77v-.46h.47v-.47h.46v-.46h.93v1.4zM31.58-212.55v-.47h-.47v-1.39h.47v-.46h-.47v-.47h.47v-.46h.92v.46h-.46v.47h.93v-.47h.46v-.46h.47v1.86h-.47v1.39h.47v.46h.46v.47h-.93v-.47h-.93v.47h-.46v1.39h-.46v-1.4h-.47v-.92zv.46h.46v-.46zm0-1.86v.47h.46v-.47zm.46.47v.92h.46v-.92zm.46.92v.47h.47v-.47zm.93-.92v-.47h-.46v.47z"/><path d="M32.5-210.23v-.47h.47v.47zM38.54-212.55v.93H39v.92h-.46v.47h-.47v-.47h-.93v.47h-.46v-.93h.46v-.46h.47v-.93zm0 .93h-.47v.46h.47zM30.18-210.7v-.46h.93v.46zM32.97-210.7v-.92h.46v.46h.47v.46z"/><path d="M33.9-213.94h.92v-.47h.47v-.46h.46v.46h.47v.47h.92v2.32h-.46v.46h-.46v.46h-.47v-.46h-.46v-.46h-.47v-1.4h-.92zm2.78 1.85v-1.39h-1.4v1.4zM28.33-211.16v-.46h.46v.46zM29.26-211.16v-.46h.46v-.47h.93v.47h-.47v.46zM28.8-211.62v-.47h.46v.47zM27.4-215.8h3.25v3.25H27.4zm2.78 2.78v-2.32h-2.32v2.32z"/><path d="M35.75-212.55v-.47h.47v.47zM38.54-212.55v-.47H39v.47zM38.07-213.02v-.46h.47v.46zM28.33-213.48v-1.4h1.39v1.4z"/><path d="M38.54-213.48v-.46h-.47v-.47h-1.39v-.46h-.46v-.47h.92v.47h.47v-.47h.93v-.46H39v2.32zM34.36-214.4v-.94h.46v.93zM-29.42-227.7h4.08v.44h-4.08zM-24.96-226.31h.62v1.98q0 .7.28.95t.68.25q.25 0 .43-.11.19-.12.26-.3.07-.19.07-.56v-2.21h.61v2.23q0 .43-.03.6-.06.26-.2.45-.13.2-.4.31-.28.12-.6.12-.76 0-1.16-.6v.52h-.56zM-18.68-226.31h.55v3.63h-.62v-1.95q0-.46-.1-.7-.1-.25-.34-.4-.25-.13-.52-.13-.28 0-.47.13-.19.14-.24.39-.04.16-.04.64v2.02h-.62v-2.25q0-.4.04-.58.06-.27.2-.45.13-.19.4-.31.28-.12.6-.12.73 0 1.16.61zM-15.74-226.3l-.09.54q-.16-.03-.27-.03-.13 0-.2.05-.08.04-.11.12-.04.07-.04.34v2.12h.62v.48h-.62v1.27l-.6-.37v-.9h-.46v-.48h.45v-2.09q0-.55.08-.73t.26-.27.52-.11q.2 0 .46.05M-13.55-224.78v.56a.7.7 0 0 0-.43.14.7.7 0 0 0-.22.37q-.05.24-.05.85t-.05.89a.8.8 0 0 1-.55.7q-.15.05-.48.05h-.2v-.53h.11q.32 0 .44-.1.1-.08.13-.31.02-.13.02-.8 0-.73.16-1.04t.55-.5q-.3-.13-.46-.35-.17-.23-.22-.61-.03-.23-.03-1.08 0-.45-.12-.58t-.47-.13h-.1v-.54h.19q.29 0 .42.04.2.06.31.16.13.1.21.28.08.17.12.46l.02.75q0 .57.05.8t.22.38.43.14M-52.86-224.22v-.56q.27 0 .43-.14.17-.15.22-.37.06-.24.06-.85 0-.62.05-.89.1-.55.55-.7.15-.06.48-.06h.2v.54h-.11q-.33 0-.44.1-.11.09-.14.32l-.01.8q0 .73-.17 1.05t-.55.48q.32.15.47.35t.21.57q.04.23.04 1.13 0 .44.11.57t.48.13h.1v.53h-.19q-.3 0-.42-.03-.2-.05-.32-.16t-.2-.28-.12-.46q-.02-.18-.02-.75t-.06-.8q-.12-.5-.65-.52M-49.89-225.13l-.6-.1q.1-.58.47-.87t1.07-.3q.43 0 .77.15t.52.42.18.58q0 .32-.15.53t-.4.32-.92.29q-.45.12-.54.16-.16.06-.24.16t-.07.22q0 .18.18.32t.6.14q.36 0 .56-.15.2-.16.24-.44l.6.08q-.06.35-.21.56-.16.21-.48.34-.32.12-.75.12-.28 0-.53-.07t-.4-.18q-.18-.14-.3-.35-.1-.2-.1-.45 0-.26.13-.48t.4-.35.93-.3q.5-.12.63-.2a.4.4 0 0 0 .18-.33.5.5 0 0 0-.2-.4q-.21-.18-.63-.18-.84.01-.94.76M-44.44-227.7h.62v5.02h-.56v-.49q-.38.57-1.06.57-.43 0-.79-.22-.36-.23-.55-.66t-.19-.98q0-.9.47-1.42t1.11-.51q.3 0 .55.13t.4.33zm-1.9 3.21q0 .72.28 1.06t.68.34.7-.36.3-1.1q0-.67-.28-1-.28-.34-.68-.34t-.7.35-.3 1.05M-40.48-226.31h.55v3.63h-.62v-1.95q0-.46-.1-.7-.1-.25-.34-.4-.24-.13-.52-.13t-.46.13q-.2.14-.25.39-.04.16-.04.64v2.02h-.61v-2.25q0-.4.03-.58.06-.27.2-.45.13-.19.4-.31.29-.12.6-.12.74 0 1.16.61zM-38.3-224.31q-.24-.07-.44-.2-.2-.14-.31-.36-.12-.22-.12-.49 0-.45.32-.74.32-.3.92-.3.36 0 .67.13.32.11.66.4.03-.25.13-.44h.64q-.12.2-.16.43t-.04 1.09v.82q0 .4-.03.57-.05.25-.19.42t-.43.27-.75.11-.83-.13-.54-.36-.27-.63l.6-.08q.1.39.3.54.22.15.65.15.46 0 .7-.2.17-.16.17-.54v-.16q-.35-.12-1.1-.21-.36-.04-.54-.1m1.64-.17v-.23q0-.4-.1-.61-.13-.27-.4-.43-.28-.15-.64-.15t-.54.16-.19.41q0 .16.09.3t.24.2.54.12q.67.1 1 .23M-35.08-226.31h.62v1.9q0 .39.1.72.07.21.23.33t.36.12q.22 0 .45-.13l.21.57q-.32.2-.63.2-.22 0-.4-.12-.17-.13-.39-.51v.55h-.55zM-29.62-225.22l-.64.08q-.14-.4-.38-.57-.24-.18-.57-.18-.46 0-.76.32t-.34.92h2.7v.16q0 .9-.45 1.4-.46.49-1.2.49t-1.22-.5q-.47-.51-.47-1.43 0-.88.47-1.37t1.26-.5q.63 0 1.04.31.4.31.56.87m-.63 1.07h-2.03q.03.48.32.76t.72.28q.46 0 .76-.35.19-.23.23-.69M27.4-218.2v-11.6H39v11.6zm8.99-5.8a3.19 3.19 0 0 0-6.38 0 3.19 3.19 0 0 0 6.38 0M-19.72-239.13l-.61-.1q.1-.58.47-.87t1.08-.3q.43 0 .77.15.33.15.51.42.18.28.18.58 0 .32-.14.53t-.4.32q-.27.11-.92.29-.45.12-.54.16-.16.06-.24.16t-.07.22q0 .18.18.32t.6.14q.36 0 .56-.15.2-.16.24-.44l.6.08q-.06.35-.22.56-.15.21-.47.34-.33.12-.75.12-.29 0-.53-.07t-.4-.18q-.19-.14-.3-.35t-.1-.45q0-.26.13-.48t.4-.35q.25-.12.93-.3.5-.12.63-.2a.4.4 0 0 0 .18-.33.5.5 0 0 0-.2-.4q-.21-.18-.63-.18-.84.01-.94.76M-13.46-239.22l-.64.08q-.14-.4-.38-.57-.24-.18-.58-.18-.45 0-.76.32-.3.32-.33.92h2.7v.16q0 .9-.46 1.4t-1.19.49q-.75 0-1.22-.5-.47-.51-.47-1.43 0-.88.47-1.37t1.26-.5q.63 0 1.04.31.4.31.56.87m-.63 1.07h-2.03q.03.48.32.76t.71.28q.47 0 .76-.35.2-.23.24-.69M-12.7-240.31h.62v1.9q0 .39.1.72.07.21.23.33t.36.12q.23 0 .45-.13l.21.57q-.32.2-.63.2-.21 0-.4-.12-.17-.13-.39-.51v.55h-.55zM-8.93-240.3l-.09.54q-.17-.03-.27-.03-.13 0-.2.05-.08.04-.11.12-.04.07-.04.34v2.12h.62v.48h-.62v1.27l-.6-.37v-.9h-.46v-.48h.45v-2.09q0-.55.08-.73t.26-.27.52-.11q.2 0 .46.05M-6.74-238.78v.56a.7.7 0 0 0-.43.14.7.7 0 0 0-.22.37q-.05.24-.06.85t-.04.89a.8.8 0 0 1-.55.7q-.15.05-.49.05h-.19v-.53h.1q.33 0 .44-.1.12-.08.14-.31.02-.13.02-.8 0-.73.16-1.04t.55-.5q-.3-.13-.46-.35-.17-.23-.22-.61-.03-.23-.03-1.08 0-.45-.12-.58t-.47-.13h-.1v-.54h.18q.3 0 .43.04.19.06.31.16.13.1.2.28.1.17.12.46.02.18.02.75t.06.8.22.38.43.14M-59.67-238.22v-.56q.27 0 .43-.14.17-.15.22-.37.06-.24.06-.85 0-.62.05-.89.1-.55.55-.7.15-.06.48-.06h.2v.54h-.11q-.33 0-.44.1-.1.09-.14.32l-.01.8q0 .73-.17 1.05t-.54.48q.31.15.46.35t.21.57q.04.23.04 1.13 0 .44.12.57t.47.13h.1v.53h-.19q-.3 0-.42-.03-.2-.05-.32-.16t-.2-.28-.12-.46q-.01-.18-.02-.75 0-.57-.06-.8-.11-.5-.65-.52M-55.63-240.3l-.09.54q-.17-.03-.27-.03-.13 0-.2.05-.08.04-.11.12-.04.07-.04.34v2.12h.62v.48h-.62v1.27l-.6-.37v-.9h-.46v-.48h.45v-2.09q0-.55.08-.73t.26-.27.52-.11q.2 0 .46.05M-55.12-240.31h.62v1.98q0 .43.1.67t.35.39.51.14q.37 0 .57-.21t.2-.67v-2.3h.61v2.3q0 .53-.13.81t-.42.44-.7.16q-.66 0-1.1-.5v1.8h-.6zM-51.23-240.31h.62v1.9q0 .39.1.72.07.21.23.33t.36.12q.22 0 .45-.13l.21.57q-.32.2-.63.2-.22 0-.4-.12-.17-.13-.39-.51v.55h-.55zM-45.77-239.22l-.64.08q-.14-.4-.38-.57-.24-.18-.57-.18-.46 0-.76.32t-.34.92h2.7v.16q0 .9-.45 1.4-.46.49-1.2.49t-1.22-.5q-.47-.51-.47-1.43 0-.88.47-1.37t1.26-.5q.63 0 1.04.31.4.31.56.87m-.63 1.07h-2.03q.03.48.32.76t.72.28q.46 0 .76-.35.19-.23.23-.69M-44.33-238.31q-.24-.07-.44-.2-.2-.14-.32-.36t-.12-.49q0-.45.32-.74.33-.3.92-.3.37 0 .68.13.32.11.66.4.03-.25.12-.44h.65q-.12.2-.16.43t-.04 1.09v.82q0 .4-.03.57-.05.25-.2.42-.13.16-.42.27t-.75.11q-.47 0-.83-.13-.35-.13-.54-.36-.19-.24-.27-.63l.6-.08q.1.39.3.54.21.15.65.15.46 0 .7-.2.17-.16.17-.54v-.16q-.35-.12-1.1-.21-.36-.04-.55-.1m1.65-.17v-.23q0-.4-.1-.61-.13-.27-.4-.43-.28-.15-.64-.15t-.54.16-.2.41q0 .16.1.3.08.13.24.2.15.06.53.12.67.1 1 .23M-38.75-240.31h.57v5h-.61v-1.79q-.16.22-.42.36t-.58.14q-.45 0-.81-.24t-.55-.67-.18-1 .2-.98q.2-.43.57-.67.36-.23.8-.23.66 0 1 .54zm-1.94 1.8q0 .73.28 1.07.27.33.68.33.43 0 .71-.35.29-.35.29-1.1 0-.67-.28-1t-.69-.33-.7.35-.29 1.04M-34.1-239.22l-.63.08q-.14-.4-.38-.57-.24-.18-.57-.18-.46 0-.76.32t-.34.92h2.7v.16q0 .9-.45 1.4-.46.49-1.2.49t-1.22-.5q-.47-.51-.47-1.43 0-.88.47-1.37t1.26-.5q.63 0 1.04.31.4.31.56.87m-.63 1.07h-2.03q.03.48.32.76t.71.28q.47 0 .77-.35.19-.23.23-.69M-30.96-240.31h.57v5h-.62v-1.79q-.16.22-.41.36-.26.14-.59.14-.44 0-.8-.24t-.55-.67-.18-1 .2-.98q.2-.43.56-.67.37-.23.8-.23.67 0 1.02.54zm-1.95 1.8q0 .73.28 1.07.27.33.68.33t.7-.35.3-1.1q0-.67-.29-1t-.68-.33-.7.35-.29 1.04M-30-241.7h4.08v.44h-4.07zM-25.53-240.31h.62v3.63h-.62zM-25.53-236h.62v.7h-.62zM-23.98-240.31h.62v1.98q0 .7.28.95t.68.25q.25 0 .43-.11t.25-.3.08-.56v-2.21h.61v2.23q0 .43-.03.6-.06.26-.2.45-.13.2-.4.31-.28.12-.6.12-.76 0-1.16-.6v.52h-.56zM29.72-240.91v-2.9h6.96v2.9zM37.6-232.2h-8.8a.23.23 180 0 1-.24-.23v-2.44a.23.23 180 0 1 .23-.23h.7a.23.23 180 0 0 .23-.23v-2.44a.23.23 180 0 0-.23-.23h-.7a.23.23 180 0 1-.23-.23v-2.44a.23.23 180 0 1 .23-.23h8.82a.23.23 180 0 1 .23.23v2.44a.23.23 180 0 1-.23.23h-.7a.23.23 180 0 0-.23.23v2.44a.23.23 180 0 0 .23.23h.7a.23.23 180 0 1 .23.23v2.44a.23.23 180 0 1-.23.23m-.34-8h-.98l-1.5 1.5h.98zm-1.88 0h-.99l-1.5 1.5h.98zm-1.88 0h-.98l-1.5 1.5H32zm-1.88 0h-.99l-1.5 1.5h.98zm5.66 5.8h-.98l-1.5 1.5h.98zm-1.88 0h-.99l-1.5 1.5h.98zm-1.88 0h-.98l-1.5 1.5H32zm-1.88 0h-.99l-1.5 1.5h.98zM-37.14-254.3l-.1.54q-.16-.03-.26-.03-.14 0-.21.05-.08.04-.1.12-.04.07-.04.34v2.12h.62v.48h-.62v1.27l-.61-.37v-.9h-.45v-.48h.45v-2.09q0-.55.07-.73t.26-.27.52-.11q.2 0 .47.05M-36.63-254.31h.61v1.98q0 .7.29.95t.68.25q.24 0 .43-.11.18-.12.25-.3.07-.19.07-.56v-2.21h.62v2.23q0 .43-.04.6-.05.26-.19.45-.13.2-.4.31-.28.12-.61.12-.76 0-1.16-.6v.52h-.55zM-30.36-254.31h.55v3.63h-.61v-1.95q0-.46-.1-.7-.1-.25-.35-.4-.24-.13-.52-.13t-.46.13q-.2.14-.25.39-.04.16-.04.64v2.02h-.61v-2.25q0-.4.04-.58.05-.27.19-.45.13-.19.4-.31.29-.12.6-.12.74 0 1.16.61zM-27.41-254.3l-.1.54q-.16-.03-.26-.03-.14 0-.21.05-.08.04-.1.12-.04.07-.04.34v2.12h.62v.48h-.62v1.27l-.61-.37v-.9h-.45v-.48h.45v-2.09q0-.55.07-.73t.26-.27.52-.11q.2 0 .47.05M-25.22-252.78v.56a.7.7 0 0 0-.43.14.7.7 0 0 0-.22.37q-.06.24-.06.85t-.05.89a.8.8 0 0 1-.54.7q-.16.05-.49.05h-.2v-.53h.11q.33 0 .44-.1.11-.08.14-.31l.01-.8q0-.73.16-1.04t.56-.5q-.3-.13-.47-.35-.16-.23-.22-.61-.03-.23-.03-1.08 0-.45-.11-.58t-.48-.13h-.1v-.54h.19q.3 0 .42.04.2.06.32.16t.2.28.12.46q.02.18.02.75t.06.8.22.38.43.14M-41.18-252.22v-.56q.26 0 .43-.14t.22-.37q.05-.24.06-.85 0-.62.04-.89.1-.55.55-.7.15-.06.49-.06h.19v.54h-.1q-.33 0-.44.1-.11.09-.14.32-.02.12-.02.8 0 .73-.16 1.05-.17.32-.55.48.32.15.47.35t.2.57q.04.23.04 1.13 0 .44.12.57t.47.13h.1v.53h-.18q-.3 0-.43-.03-.19-.05-.31-.16t-.2-.28q-.1-.17-.12-.46-.02-.18-.02-.75t-.06-.8q-.12-.5-.65-.52M29.72-247.86v-8.28a1.66 1.66 0 0 1 1.66-1.66h3.64a1.66 1.66 0 0 1 1.66 1.66v8.28a1.66 1.66 0 0 1-1.66 1.66h-3.64a1.66 1.66 0 0 1-1.66-1.66m5.8-4.14a2.32 2.32 0 0 0-4.64 0 2.32 2.32 0 0 0 4.64 0M-18.37-267.13l-.6-.1q.1-.58.47-.87t1.08-.3q.42 0 .76.15t.52.42.18.58q0 .32-.15.53t-.4.32-.91.29q-.46.12-.55.16-.16.06-.23.16t-.08.22q0 .18.18.32t.6.14q.37 0 .56-.15.2-.16.24-.44l.6.08q-.06.35-.21.56t-.48.34-.75.12q-.28 0-.53-.07t-.39-.18q-.2-.14-.3-.35-.11-.2-.11-.45 0-.26.13-.48.14-.22.4-.35t.94-.3q.5-.12.63-.2a.4.4 0 0 0 .18-.33.5.5 0 0 0-.2-.4q-.22-.18-.64-.18-.84.01-.94.76M-13.8-268.3l-.09.54q-.16-.03-.27-.03-.13 0-.2.05-.08.04-.11.12-.04.07-.04.34v2.12h.62v.48h-.62v1.27l-.6-.37v-.9h-.46v-.48h.45v-2.09q0-.55.08-.73t.26-.27.52-.11q.2 0 .46.05M-12.95-265q-.56-.49-.56-1.5 0-.92.47-1.4.47-.5 1.23-.5.47 0 .87.23.4.22.62.62.2.4.2 1.1 0 .87-.47 1.36t-1.22.49q-.68 0-1.14-.4m.07-1.5q0 .7.3 1.05.3.34.77.34.45 0 .76-.35.3-.34.3-1.02 0-.71-.3-1.06t-.76-.35-.77.35-.3 1.04M-9.4-268.31h.62v1.9q0 .39.1.72.07.21.23.33t.36.12q.23 0 .45-.13l.21.57q-.32.2-.63.2-.21 0-.4-.12-.17-.13-.39-.51v.55h-.55zM-5.38-266.78v.56a.7.7 0 0 0-.43.14.7.7 0 0 0-.22.37q-.06.24-.06.85t-.05.89a.8.8 0 0 1-.55.7q-.15.05-.48.05h-.2v-.53h.11q.33 0 .44-.1.11-.08.13-.31.02-.13.02-.8 0-.73.16-1.04t.56-.5q-.3-.13-.47-.35-.16-.23-.22-.61-.03-.23-.03-1.08 0-.45-.11-.58t-.48-.13h-.1v-.54h.19q.3 0 .42.04.2.06.32.16t.2.28.12.46q.02.18.02.75t.06.8.22.38.43.14M-61.02-266.22v-.56q.26 0 .43-.14t.22-.37q.05-.24.06-.85 0-.62.04-.89.1-.55.55-.7.15-.06.49-.06h.19v.54h-.1q-.33 0-.44.1-.11.09-.14.32-.02.12-.02.8 0 .73-.16 1.05-.17.32-.55.48.32.15.47.35t.2.57q.04.23.04 1.13 0 .44.12.57t.47.13h.1v.53h-.18q-.3 0-.43-.03-.19-.05-.31-.16t-.2-.28q-.1-.17-.12-.46-.02-.18-.02-.75t-.06-.8q-.11-.5-.65-.52M-57.4-268.31h.57l1.37 3.63h-.63l-.8-2.22q-.16-.4-.24-.69-.1.38-.23.73l-.78 2.18h-.65zM-54.24-266.31q-.25-.07-.45-.2-.2-.14-.31-.36-.12-.22-.12-.49 0-.45.32-.74.32-.3.92-.3.36 0 .67.13.32.11.66.4.03-.25.13-.44h.64q-.12.2-.16.43t-.04 1.09v.82q0 .4-.03.57-.05.25-.19.42t-.43.27-.75.11-.83-.13-.54-.36-.27-.63l.6-.08q.1.39.3.54.22.15.65.15.46 0 .7-.2.17-.16.17-.54v-.16q-.35-.12-1.1-.21-.36-.04-.54-.1m1.64-.17v-.23q0-.4-.1-.61-.13-.27-.4-.43-.28-.15-.64-.15t-.54.16-.19.41q0 .16.09.3t.24.2.54.12q.67.1 1 .23M-51.03-268.31h.62v1.9q0 .39.1.72.07.21.23.33t.36.12q.22 0 .45-.13l.21.57q-.32.2-.63.2-.22 0-.4-.12-.17-.13-.39-.51v.55h-.55zM-48.69-268.31h.62v3.63h-.62zM-48.69-264h.62v.7h-.62zM-46.46-266.31q-.25-.07-.45-.2-.2-.14-.31-.36-.13-.22-.13-.49 0-.45.33-.74.32-.3.92-.3.36 0 .67.13.32.11.66.4.03-.25.12-.44h.65q-.12.2-.16.43t-.04 1.09v.82q0 .4-.03.57-.05.25-.19.42t-.43.27-.75.11-.83-.13-.54-.36-.27-.63l.6-.08q.1.39.3.54.21.15.65.15.46 0 .7-.2.17-.16.17-.54v-.16q-.35-.12-1.1-.21-.36-.04-.54-.1m1.64-.17v-.23q0-.4-.1-.61-.13-.27-.4-.43-.28-.15-.64-.15t-.54.16-.19.41q0 .16.09.3t.24.2.54.12q.67.1 1 .23M-42.68-268.31v.45q.37-.53 1.01-.53.65 0 1.1.5.48.51.47 1.45 0 .38-.1.74-.22.7-.8.96-.3.15-.64.14-.6 0-1-.49v1.79h-.6v-5.01zm.17.9q-.17.29-.17.94 0 .66.3 1.01.28.35.69.35t.68-.33q.28-.34.28-1.05 0-.7-.3-1.05-.29-.35-.69-.35-.5 0-.79.48M-39.36-268.31h.61v5h-.61zM-34.67-267.22l-.64.08q-.14-.4-.38-.57-.24-.18-.58-.18-.45 0-.76.32-.3.32-.33.92h2.7v.16q0 .9-.46 1.4t-1.19.49q-.75 0-1.22-.5-.47-.51-.47-1.43 0-.88.47-1.37t1.26-.5q.63 0 1.04.31.4.31.56.87m-.63 1.07h-2.03q.03.48.32.76t.71.28q.47 0 .76-.35.2-.23.24-.69M-34.47-269.7h4.08v.44h-4.08zM-30.02-268.31h.62v1.9q0 .39.1.72.07.21.23.33t.36.12q.23 0 .45-.13l.22.57q-.33.2-.64.2-.21 0-.4-.12-.17-.13-.38-.51v.55h-.56zM-24.56-267.22l-.63.08q-.14-.4-.38-.57-.24-.18-.58-.18-.46 0-.76.32t-.34.92h2.7l.01.16q0 .9-.46 1.4t-1.19.49q-.75 0-1.22-.5-.47-.51-.47-1.43 0-.88.46-1.37t1.27-.5q.63 0 1.04.31.4.31.55.87m-.63 1.07h-2.02q.03.48.32.76.28.28.7.28.48 0 .77-.35.2-.23.23-.69M-23.42-267.13l-.61-.1q.1-.58.47-.87t1.08-.3q.43 0 .77.15.33.15.51.42.18.28.18.58 0 .32-.14.53t-.4.32q-.27.11-.92.29-.45.12-.54.16-.16.06-.24.16t-.07.22q0 .18.18.32t.6.14q.36 0 .56-.15.2-.16.24-.44l.6.08q-.06.35-.22.56-.15.21-.47.34-.33.12-.75.12-.29 0-.53-.07t-.4-.18q-.19-.14-.3-.35t-.1-.45q0-.26.13-.48t.4-.35q.25-.12.93-.3.5-.12.63-.2a.4.4 0 0 0 .18-.33.5.5 0 0 0-.2-.4q-.21-.18-.63-.18-.84.01-.94.76M-20.28-268.31h.61v3.63h-.61zM-20.28-264h.61v.7h-.61zM22.43-265.64v-.72h4.58v-1.8h4.53l-1.8-3.1a.36.36 60 0 1 .63-.36l2 3.47h7.02v1.8h4.58v.7h-4.58v1.8h-4.53l1.12 1.95v-1.35a.36.36 90 0 1 .72 0v2.7a.36.36-150 0 1-.54.3l-2.33-1.34a.36.36 30 0 1 .36-.63l1.17.68-1.33-2.3H27v-1.8zm9.53-1.8h-4.23v2.88h5.88zm2.48 2.88h4.23v-2.88H32.8zM-34.71-281.13l-.6-.1q.1-.58.46-.87.38-.3 1.08-.3.43 0 .77.15t.52.42.18.58q0 .32-.15.53t-.4.32-.92.29q-.45.12-.54.16-.16.06-.24.16t-.07.22q0 .18.18.32t.6.14q.36 0 .56-.15.2-.16.24-.44l.6.08q-.06.35-.21.56-.16.21-.48.34-.32.12-.75.12-.28 0-.53-.07t-.4-.18q-.18-.14-.3-.35-.1-.2-.1-.45 0-.26.13-.48t.4-.35.93-.3q.5-.12.63-.2a.4.4 0 0 0 .18-.33.5.5 0 0 0-.2-.4q-.21-.18-.63-.18-.84.01-.94.76M-31.57-282.31h.61v1.98q0 .43.1.67t.35.39.51.14q.37 0 .57-.21t.2-.67v-2.3h.61v2.3q0 .53-.12.81-.13.28-.43.44t-.7.16q-.66 0-1.09-.5v1.8h-.61zM-24.56-281.22l-.64.08q-.14-.4-.37-.57-.24-.18-.58-.18-.46 0-.76.32t-.34.92h2.7l.01.16q0 .9-.46 1.4t-1.19.49q-.75 0-1.22-.5-.48-.51-.48-1.43 0-.88.47-1.37t1.26-.5q.64 0 1.04.31t.56.87m-.63 1.07h-2.03q.04.48.32.76.3.28.72.28.47 0 .76-.35.2-.23.23-.69M-23.8-282.31h.62v1.9q0 .39.1.72.07.21.23.33t.37.12q.22 0 .45-.13l.2.57q-.31.2-.62.2-.22 0-.4-.12-.18-.13-.39-.51v.55h-.55zM-19.78-280.78v.56a.7.7 0 0 0-.43.14.7.7 0 0 0-.22.37q-.05.24-.06.85t-.04.89a.8.8 0 0 1-.55.7q-.15.05-.49.05h-.19v-.53h.1q.33 0 .45-.1.1-.08.13-.31.02-.13.02-.8 0-.73.16-1.04t.55-.5q-.3-.13-.46-.35-.17-.23-.22-.61-.03-.23-.03-1.08 0-.45-.12-.58t-.47-.13h-.1v-.54h.18q.3 0 .43.04.19.06.31.16.13.1.21.28.08.17.11.46.02.18.02.75t.06.8.22.38.43.14M-46.63-280.22v-.56q.27 0 .43-.14.17-.15.22-.37.06-.24.06-.85 0-.62.05-.89c.05-.36.26-.6.55-.7q.15-.06.48-.06h.2v.54h-.11q-.33 0-.44.1-.11.09-.14.32l-.01.8q0 .73-.17 1.05t-.54.48q.31.15.46.35t.21.57q.04.23.04 1.13 0 .44.12.57t.47.13h.1v.53h-.19q-.3 0-.42-.03-.2-.05-.32-.16t-.2-.28-.12-.46q-.01-.18-.02-.75 0-.57-.06-.8-.12-.5-.65-.52M-43.35-282.31h.64l.74 2.79.14-.62.57-2.17h.64l1.14 3.63h-.6l-.62-2.1-.21-.7-.18.7-.55 2.1h-.63l-.58-2.13-.18-.75-.22.78-.58 2.1h-.63zM-38.3-280.31q-.24-.07-.44-.2-.2-.14-.31-.36-.12-.22-.12-.49 0-.45.32-.74.32-.3.92-.3.36 0 .67.13.32.11.66.4.03-.25.13-.44h.64q-.12.2-.16.43t-.04 1.09v.82q0 .4-.03.57-.05.25-.19.42t-.43.27-.75.11-.83-.13-.54-.36-.27-.63l.6-.08q.1.39.3.54.22.15.65.15.46 0 .7-.2.17-.16.17-.54v-.16q-.35-.12-1.1-.21-.36-.04-.54-.1m1.64-.17v-.23q0-.4-.1-.61-.13-.27-.4-.43-.28-.15-.64-.15t-.54.16-.19.41q0 .16.09.3t.24.2.54.12q.67.1 1 .23"/></g></svg>