<svg xmlns="http://www.w3.org/2000/svg" width="101mm" height="139.527" viewBox="-33.886 -12.386 67.771 24.771"><g stroke-linecap="round"><g stroke="none" stroke-width="0"><path d="M19.474 8.01q.265.335.732.335c.472.003.778-.268.934-.729q.116-.348.116-.915 0-.48-.072-.761c-.099-.376-.261-.642-.523-.78a.95.95 0 0 0-.455-.105.9.9 0 0 0-.584.19 1.14 1.14 0 0 0-.349.537q-.117.348-.118.92 0 .906.32 1.309m.291-2.398q.163-.23.435-.23.277 0 .463.261.186.262.186 1.057 0 .791-.186 1.055t-.458.263-.458-.262-.186-1.056.204-1.088M21.88 8.29h.45v-.45h-.45zM-19.12 8.29h.45v-.45h-.45zM-19.24-2.336l.405 1.179h1.881l-2.583-6.786h-1.926l-2.583 6.786h1.881l.405-1.179zm-.468-1.341h-1.584l.792-2.259zM-16.602 8.29V5.055h-.255q-.103.21-.351.431-.249.222-.58.378v.382q.184-.068.416-.204t.375-.273v2.52z"/><path d="M-30.55 3.425v2.25h.4V4.75h19.3v.925h.4v-2.25h-.4v.925h-19.3v-.925z"/><path d="M-22.269 7.91h-1.58q.066-.108.168-.215.1-.106.457-.405.426-.36.61-.567.183-.206.262-.393t.079-.38q0-.38-.27-.638-.27-.257-.734-.257-.46 0-.732.239-.272.238-.314.693l.406.042q.003-.303.174-.475t.457-.171q.27 0 .438.161.168.162.168.397 0 .224-.184.476-.185.251-.71.682-.338.277-.517.488-.18.21-.26.428-.051.132-.047.275h2.13zM-21.526 8.01q.265.335.732.335c.472.003.778-.268.934-.729q.116-.348.116-.915 0-.48-.072-.761c-.099-.376-.261-.642-.523-.78a.95.95 0 0 0-.455-.105.9.9 0 0 0-.584.19 1.14 1.14 0 0 0-.349.537q-.117.348-.118.92 0 .906.32 1.309m.291-2.398q.163-.23.435-.23.277 0 .463.261.186.262.186 1.057 0 .791-.186 1.055t-.458.263-.458-.262-.186-1.056.204-1.088M-2.587-7.943v6.786H.248q.54 0 .971-.126c.576-.167.98-.508 1.202-.999q.167-.369.167-.846 0-.306-.072-.576a1.4 1.4 0 0 0-.239-.486c-.223-.287-.57-.49-1.076-.585q.378-.234.563-.572t.185-.85q0-.846-.487-1.296-.486-.45-1.422-.45zm1.763 5.418v-1.44h.388q.665 0 .953.171t.288.549-.288.549-.953.171zm0-2.754v-1.314H-.5q.829 0 .829.657t-.829.657zM3.898 8.29V5.055h-.255q-.103.21-.351.431-.249.222-.58.378v.382q.184-.068.416-.204t.375-.273v2.52z"/><path d="M-10.05 3.425v2.25h.4V4.75h19.3v.925h.4v-2.25h-.4v.925h-19.3v-.925z"/><path d="M-1.769 7.91h-1.58q.066-.108.168-.215.1-.106.457-.405.426-.36.61-.567.183-.206.262-.393t.079-.38q0-.38-.27-.638-.27-.257-.734-.257-.46 0-.732.239-.272.238-.314.693l.406.042q.003-.303.174-.475t.457-.171q.27 0 .438.161.168.162.168.397 0 .224-.184.476-.185.251-.71.682-.338.277-.517.488-.18.21-.26.428-.051.132-.047.275h2.13zM-1.026 8.01q.266.335.732.335c.472.003.778-.268.934-.729q.116-.348.116-.915 0-.48-.072-.761C.585 5.564.423 5.298.16 5.16a.95.95 0 0 0-.455-.105.9.9 0 0 0-.584.19 1.14 1.14 0 0 0-.349.537q-.118.348-.118.92 0 .906.32 1.309m.291-2.398q.163-.23.435-.23.277 0 .463.261.186.262.186 1.057 0 .791-.186 1.055t-.458.263-.458-.262T-.938 6.7t.204-1.088M1.38 8.29h.45v-.45h-.45zM23.096-5.675v-2.106q-.431-.18-.823-.265t-.797-.086q-.71 0-1.358.266-.648.265-1.139.738-.49.472-.783 1.125-.292.652-.292 1.435t.297 1.445q.296.661.787 1.142.49.482 1.134.747.644.266 1.346.266.342 0 .693-.068.35-.067.755-.211l.18-.063v-2.088q-.675.72-1.52.72-.387 0-.72-.144a1.8 1.8 0 0 1-.968-.99 2 2 0 0 1-.14-.747q0-.396.14-.738.139-.342.383-.59.243-.247.58-.391a1.85 1.85 0 0 1 .734-.144q.9 0 1.511.747M24.398 8.29V5.055h-.255q-.103.21-.351.431-.249.222-.58.378v.382q.184-.068.416-.204t.375-.273v2.52z"/><path d="M10.45 3.425v2.25h.4V4.75h19.3v.925h.4v-2.25h-.4v.925h-19.3v-.925z"/><path d="M18.731 7.91h-1.58q.066-.108.168-.215.1-.106.457-.405.426-.36.61-.567.183-.206.262-.393t.079-.38q0-.38-.27-.638-.27-.257-.734-.257-.46 0-.732.239-.272.238-.314.693l.406.042q.003-.303.174-.475t.457-.171q.27 0 .438.161.168.162.168.397 0 .224-.184.476-.185.251-.71.682-.338.277-.517.488-.18.21-.26.428-.051.132-.047.275h2.13z"/></g><path fill="none" stroke="#000" stroke-width=".671" d="M-33.55-9.64V9.64a2.41 2.41 0 0 0 2.41 2.41h62.28a2.41 2.41 0 0 0 2.41-2.41V-9.64a2.41 2.41 0 0 0-2.41-2.41h-62.28a2.41 2.41 0 0 0-2.41 2.41"/></g></svg>