<svg xmlns="http://www.w3.org/2000/svg" width="101mm" height="139.527" viewBox="-33.886 -12.386 67.771 24.771"><g stroke-linecap="round"><g stroke="none" stroke-width="0"><path d="M19.036 8.01q.267.335.732.335c.472.003.778-.268.934-.729q.116-.348.116-.915 0-.48-.072-.761c-.098-.376-.261-.642-.523-.78a.95.95 0 0 0-.455-.105.9.9 0 0 0-.583.19 1.14 1.14 0 0 0-.35.537q-.117.348-.117.92 0 .906.318 1.309m.293-2.398q.162-.23.435-.23.277 0 .462.261.186.262.186 1.057 0 .791-.186 1.055-.185.263-.458.263-.272 0-.458-.262-.186-.263-.186-1.056t.205-1.088M-21.697 8.01q.265.335.732.335c.472.003.778-.268.934-.729q.116-.348.116-.915 0-.48-.072-.761c-.099-.376-.261-.642-.523-.78a.95.95 0 0 0-.455-.105.9.9 0 0 0-.584.19 1.14 1.14 0 0 0-.349.537q-.117.348-.118.92 0 .906.32 1.309m.291-2.398q.163-.23.435-.23.277 0 .463.261.186.262.186 1.057 0 .791-.186 1.055t-.458.263-.458-.262-.186-1.056.204-1.088M-19.29 8.29h.45v-.45h-.45zM-19.107-2.336l.405 1.179h1.881l-2.583-6.786h-1.926l-2.583 6.786h1.881l.405-1.179zm-.468-1.341h-1.584l.792-2.259zM-16.995 8.29h.396v-.772h.435v-.362h-.435V5.069h-.323l-1.47 2.087v.362h1.397zm0-1.134h-1.008l1.008-1.452z"/><path d="M-30.55 3.425v2.25h.4V4.75h19.567v.925h.8V4.75H9.783v.925h.8V4.75H30.15v.925h.4v-2.25h-.4v.925H10.583v-.925h-.8v.925H-9.783v-.925h-.8v.925H-30.15v-.925z"/><path d="M-22.44 7.91h-1.58q.066-.108.168-.215.1-.106.457-.405.426-.36.61-.567.183-.206.262-.393t.079-.38q0-.38-.27-.638-.27-.257-.734-.257-.46 0-.732.239-.272.238-.314.693l.406.042q.003-.303.174-.475t.457-.171q.27 0 .438.161.168.162.168.397 0 .224-.184.476-.185.251-.71.682-.338.277-.517.488-.18.21-.26.428-.051.132-.047.275h2.13zM1.076 8.29h.45v-.45h-.45zM-2.587-7.943v6.786H.248q.54 0 .971-.126c.576-.167.98-.508 1.202-.999q.167-.369.167-.846 0-.306-.072-.576a1.4 1.4 0 0 0-.239-.486c-.223-.287-.57-.49-1.076-.585q.378-.234.563-.572t.185-.85q0-.846-.487-1.296-.486-.45-1.422-.45zm1.763 5.418v-1.44h.388q.665 0 .953.171t.288.549-.288.549-.953.171zm0-2.754v-1.314H-.5q.829 0 .829.657t-.829.657zM3.372 8.29h.395v-.772h.435v-.362h-.435V5.069h-.323l-1.47 2.087v.362h1.398zm0-1.134H2.363l1.009-1.452zM-2.073 7.91h-1.58q.066-.108.167-.215.101-.106.457-.405.427-.36.61-.567t.263-.393.079-.38q0-.38-.27-.638-.27-.257-.734-.257-.46 0-.732.239-.273.238-.314.693l.406.042q.002-.303.174-.475t.457-.171q.27 0 .438.161.168.162.168.397 0 .224-.184.476-.185.251-.71.682-.338.277-.518.488-.179.21-.26.428-.05.132-.046.275h2.13zM-1.33 8.01q.265.335.731.335c.473.003.778-.268.934-.729q.117-.348.117-.915 0-.48-.073-.761c-.098-.376-.26-.642-.523-.78a.95.95 0 0 0-.455-.105.9.9 0 0 0-.583.19 1.14 1.14 0 0 0-.35.537q-.117.348-.117.92 0 .906.319 1.309m.292-2.398q.163-.23.435-.23.277 0 .463.261.185.262.185 1.057 0 .791-.185 1.055-.186.263-.459.263-.272 0-.458-.262-.185-.263-.185-1.056t.204-1.088M21.442 8.29h.45v-.45h-.45zM22.963-5.675v-2.106q-.432-.18-.823-.265-.392-.086-.797-.086-.71 0-1.359.266-.648.265-1.138.738-.49.472-.783 1.125-.293.652-.293 1.435t.297 1.445.788 1.142q.49.482 1.134.747.643.266 1.345.266.342 0 .693-.068.351-.067.756-.211l.18-.063v-2.088q-.675.72-1.52.72-.388 0-.72-.144a1.8 1.8 0 0 1-.968-.99 2 2 0 0 1-.14-.747q0-.396.14-.738t.382-.59.58-.391a1.85 1.85 0 0 1 .734-.144q.9 0 1.512.747M23.739 8.29h.395v-.772h.435v-.362h-.435V5.069h-.323l-1.47 2.087v.362h1.398zm0-1.134H22.73l1.009-1.452zM18.294 7.91h-1.58q.066-.108.167-.215.101-.106.457-.405.426-.36.61-.567.183-.206.262-.393t.08-.38q0-.38-.27-.638-.271-.257-.735-.257-.46 0-.732.239-.272.238-.314.693l.407.042q.002-.303.173-.475.172-.171.457-.171.27 0 .439.161.168.162.168.397 0 .224-.185.476-.184.251-.71.682-.338.277-.517.488t-.26.428q-.05.132-.046.275h2.129z"/></g><path fill="none" stroke="#000" stroke-width=".671" d="M-33.55-9.64V9.64a2.41 2.41 0 0 0 2.41 2.41h62.28a2.41 2.41 0 0 0 2.41-2.41V-9.64a2.41 2.41 0 0 0-2.41-2.41h-62.28a2.41 2.41 0 0 0-2.41 2.41"/></g></svg>