<svg xmlns="http://www.w3.org/2000/svg" width="101mm" height="139.527" viewBox="-33.886 -12.386 67.771 24.771"><g stroke-linecap="round"><g stroke="none" stroke-width="0"><path d="M20.146 5.518h1.578q-.301.343-.568.843t-.41 1.038-.15.918h.407q.033-.481.152-.885.164-.574.467-1.117.302-.542.61-.87v-.307h-2.086zM22.844 8.317h.45v-.45h-.45zM-12.29 8.289h.45v-.45h-.45zM-25.744-2.336l.405 1.179h1.881l-2.583-6.786h-1.926l-2.583 6.786h1.881l.405-1.179zm-.468-1.341h-1.584l.792-2.259zM-10.847 7.41l-.416.035q.04.406.318.652.278.247.717.247.536 0 .846-.392.255-.318.255-.755 0-.46-.29-.752t-.712-.292q-.318 0-.608.202l.173-.866h1.286v-.378h-1.602l-.312 1.655.371.048q.088-.138.242-.225t.345-.087q.307 0 .497.196.19.195.19.534 0 .356-.197.571-.198.215-.484.215-.237 0-.405-.152-.168-.153-.214-.456"/><path d="M-30.55 3.425v2.25h.4V4.75H3.507v.925h.4v-2.25h-.4v.925H-30.15v-.925z"/><path d="m-17.12 7.386-.396.052q.04.402.32.655t.704.253q.47 0 .778-.294.307-.293.307-.715 0-.312-.158-.52-.158-.207-.444-.273c.293-.131.445-.378.444-.653a.8.8 0 0 0-.117-.415.8.8 0 0 0-.34-.309 1.05 1.05 0 0 0-.485-.113.95.95 0 0 0-.64.219q-.256.219-.33.616l.396.07c.055-.386.278-.58.582-.58q.233 0 .38.143a.48.48 0 0 1 .148.36q0 .276-.202.407a.8.8 0 0 1-.519.128l-.044.347q.167-.044.28-.044.274 0 .452.177t.178.449q0 .286-.193.479-.192.193-.47.193-.236 0-.4-.148-.163-.148-.232-.484M-13.748 8.289h.396v-.772h.435v-.362h-.435V5.067h-.323l-1.47 2.088v.362h1.397zm0-1.134h-1.008l1.008-1.453zM7.746-7.943v6.786h2.835q.54 0 .972-.126c.576-.167.98-.508 1.202-.999q.165-.369.166-.846 0-.306-.072-.576a1.4 1.4 0 0 0-.238-.486c-.223-.287-.57-.49-1.076-.585q.378-.234.563-.572t.184-.85q0-.846-.486-1.296t-1.422-.45zM9.51-2.525v-1.44h.387q.666 0 .954.171t.288.549-.288.549-.954.171zm0-2.754v-1.314h.324q.828 0 .828.657t-.828.657zM11.097 5.888l.394-.03q-.049-.376-.292-.59-.242-.213-.623-.213-.51 0-.81.37-.345.424-.345 1.357 0 .835.312 1.199t.806.364q.29 0 .519-.139.228-.138.359-.399.13-.26.13-.563 0-.462-.277-.753-.278-.29-.674-.29-.226 0-.433.105-.206.105-.349.323.004-.484.112-.745.108-.262.294-.398.143-.105.332-.105.235 0 .396.169.096.105.15.338M9.875 7.246q0-.312.186-.504.187-.193.455-.193.27 0 .448.193.178.192.178.526 0 .347-.18.55-.18.201-.43.201-.172 0-.328-.097-.156-.098-.243-.285-.086-.187-.086-.391"/><path d="M4.307 3.425v2.25h.4V4.75h7.814v.925h.4v-2.25h-.4v.925H4.707v-.925z"/><path d="M7.197 6.543c.32-.118.474-.35.475-.646a.8.8 0 0 0-.257-.597q-.257-.245-.68-.245-.42 0-.672.24a.78.78 0 0 0-.252.59c0 .31.154.539.483.658Q6 6.62 5.84 6.832t-.16.526q0 .422.293.704.292.283.77.283.476 0 .768-.282.292-.28.292-.694 0-.299-.154-.514-.155-.215-.452-.312m-.982-.67q0-.202.15-.347.149-.145.375-.145.224 0 .375.148.15.148.15.366 0 .208-.146.352t-.375.144q-.235 0-.382-.145t-.147-.373M6.087 7.36q0-.277.184-.461.183-.185.462-.185.286 0 .476.187t.19.472q0 .282-.184.464-.185.182-.468.182-.183 0-.341-.086-.158-.087-.238-.245-.08-.159-.08-.328M8.41 8.29h.45v-.45h-.45zM18.514-5.675v-2.106q-.432-.18-.823-.265-.392-.086-.797-.086-.71 0-1.359.266-.648.265-1.138.738-.49.472-.783 1.125-.293.652-.293 1.435t.297 1.445.788 1.142q.49.482 1.134.747.643.266 1.345.266.342 0 .693-.068.351-.067.756-.211l.18-.063v-2.088q-.675.72-1.52.72-.389 0-.72-.144a1.8 1.8 0 0 1-.968-.99 2 2 0 0 1-.14-.747q0-.396.14-.738t.382-.59.58-.391a1.85 1.85 0 0 1 .734-.144q.9 0 1.512.747M25.951 7.937h-1.58q.066-.108.167-.214.101-.107.457-.406.427-.36.61-.566.184-.207.263-.394t.079-.38q0-.38-.27-.637t-.734-.257q-.46 0-.732.238-.272.239-.314.693l.406.042q.002-.303.174-.474.171-.172.457-.172.27 0 .438.162.168.161.168.396 0 .224-.184.476-.185.252-.71.682-.338.277-.517.488-.18.211-.26.429-.051.131-.047.274h2.13z"/><path d="M13.321 3.425v2.25h.4V4.75H30.15v.925h.4v-2.25h-.4v.925H13.721v-.925z"/><path d="M19.107 8.317V5.083h-.255q-.103.209-.352.43-.248.222-.58.378v.383q.185-.068.417-.205t.374-.272v2.52z"/></g><path fill="none" stroke="#000" stroke-width=".671" d="M-33.55-9.64V9.64a2.41 2.41 0 0 0 2.41 2.41h62.28a2.41 2.41 0 0 0 2.41-2.41V-9.64a2.41 2.41 0 0 0-2.41-2.41h-62.28a2.41 2.41 0 0 0-2.41 2.41"/></g></svg>