<?xml version='1.0' encoding='utf-8'?>
<svg width="100.435971mm" height="86.113555mm" viewBox="-52.084934 -5.847434 95.282369 81.694869" version="1.1" xmlns="http://www.w3.org/2000/svg">
  <g transform="scale(1,-1)" stroke-linecap="round">
    <g fill="rgb(0,0,0)" stroke="rgb(0,0,0)" stroke-width="0.09486876881379351" id="Visible">
      <path d="M 43.15,0.0 A 5.8,5.8 0.0 0,1 31.55,-0.0 A 5.8,5.8 0.0 0,1 43.15,0.0 M 39.38,3.516063 L 41.41,0.0 L 39.38,-3.516063 L 35.32,-3.516063 L 33.29,0.0 L 35.32,3.516063 L 39.38,3.516063" />
      <path d="M -35.380013,1.282511 L -35.380013,-1.282495 L -34.475,-1.282495 L -34.475,-0.182495 C -34.475886,0.080633 -34.409153,0.298266 -34.25818,0.42436 C -34.163712,0.502014 -34.04353,0.544271 -33.897632,0.551132 C -33.741971,0.559599 -33.589816,0.530544 -33.455013,0.462508 L -33.455013,1.327498 C -33.52992,1.342066 -33.584593,1.33638 -33.632356,1.337506 C -33.80727,1.337196 -33.96169,1.300926 -34.095615,1.228697 C -34.246356,1.14672 -34.372818,1.024657 -34.475,0.862508 L -34.475,1.282511 L -35.380013,1.282511" />
      <path d="M -33.130013,0.022502 C -33.13057,-0.18953 -33.090428,-0.384357 -33.009586,-0.561982 C -32.931323,-0.733264 -32.823157,-0.880501 -32.685088,-1.003693 C -32.548076,-1.125143 -32.38739,-1.217819 -32.203032,-1.281721 C -31.9939,-1.35491 -31.762597,-1.385027 -31.522637,-1.37596 C -31.307046,-1.368103 -31.105123,-1.327174 -30.916869,-1.253171 C -30.737623,-1.182817 -30.582993,-1.085352 -30.452979,-0.960775 C -30.328746,-0.841441 -30.230806,-0.701736 -30.159159,-0.541661 C -30.077304,-0.358822 -30.042342,-0.152972 -30.051347,0.062896 C -30.058583,0.243419 -30.098035,0.410855 -30.169703,0.565205 C -30.261188,0.761067 -30.394058,0.924632 -30.568313,1.0559 C -30.692663,1.149519 -30.832899,1.223928 -30.98902,1.279128 C -31.199433,1.354021 -31.431321,1.385205 -31.671316,1.375922 C -31.86604,1.368611 -32.048708,1.332658 -32.219319,1.268063 C -32.403537,1.198493 -32.564003,1.102434 -32.700718,0.979885 C -32.831273,0.862355 -32.934136,0.724763 -33.00931,0.567109 C -33.089952,0.397799 -33.130187,0.216263 -33.130013,0.022502 M -32.175,0.012508 C -32.176829,0.171887 -32.10359,0.318017 -32.001092,0.423956 C -31.899291,0.529022 -31.746863,0.593674 -31.589553,0.592505 C -31.42556,0.593387 -31.267803,0.523249 -31.165848,0.410128 C -31.07039,0.305589 -31.002869,0.158939 -31.005014,0.006605 C -31.00354,-0.164278 -31.080952,-0.31753 -31.189026,-0.424027 C -31.290287,-0.522959 -31.438296,-0.58369 -31.590442,-0.582495 C -31.753992,-0.583379 -31.911405,-0.513633 -32.013431,-0.400918 C -32.109168,-0.29573 -32.176964,-0.153378 -32.175,0.012508" />
      <path d="M -27.830013,0.622502 L -27.525,1.212508 C -27.689356,1.280433 -27.85796,1.327499 -28.030812,1.353704 C -28.217521,1.381804 -28.416233,1.385821 -28.595122,1.36166 C -28.905133,1.319217 -29.170738,1.190742 -29.328033,0.980697 C -29.438266,0.834921 -29.49578,0.650604 -29.495002,0.449254 C -29.495355,0.366674 -29.485295,0.290264 -29.464821,0.220024 C -29.437371,0.126484 -29.390391,0.046949 -29.323884,-0.018583 C -29.199539,-0.140296 -28.985222,-0.217912 -28.740007,-0.267489 C -28.582962,-0.299503 -28.48494,-0.32447 -28.428412,-0.359525 C -28.396453,-0.379618 -28.376005,-0.40183 -28.36707,-0.426161 C -28.359094,-0.447501 -28.355076,-0.474339 -28.355014,-0.506676 C -28.354924,-0.526744 -28.358168,-0.545567 -28.364747,-0.563143 C -28.380526,-0.604293 -28.413407,-0.638093 -28.46339,-0.664543 C -28.511014,-0.689344 -28.568452,-0.701991 -28.635704,-0.702482 C -28.681649,-0.702711 -28.728134,-0.69937 -28.775161,-0.692461 C -28.962287,-0.664754 -29.157237,-0.58143 -29.36001,-0.442489 L -29.690007,-1.082495 C -29.36731,-1.272042 -29.016396,-1.379256 -28.661004,-1.377495 C -28.306182,-1.378264 -27.968698,-1.28086 -27.742061,-1.084994 C -27.654089,-1.00856 -27.584187,-0.917613 -27.532354,-0.812152 C -27.473829,-0.691179 -27.444713,-0.558803 -27.445006,-0.415022 C -27.444681,-0.345267 -27.452244,-0.278774 -27.467695,-0.215543 C -27.495975,-0.100853 -27.551014,-0.001369 -27.632812,0.082908 C -27.765131,0.219495 -27.964728,0.302781 -28.190007,0.347502 C -28.280497,0.367602 -28.353812,0.384467 -28.40995,0.398098 C -28.513105,0.422823 -28.564284,0.455226 -28.584588,0.489333 C -28.594984,0.50849 -28.600122,0.534623 -28.6,0.567732 C -28.599929,0.620397 -28.57753,0.66297 -28.532803,0.695449 C -28.472772,0.739495 -28.385161,0.757416 -28.279207,0.751563 C -28.132032,0.744763 -27.982301,0.701743 -27.830013,0.622502" />
      <path d="M -25.28501,0.622502 L -24.979997,1.212508 C -25.144353,1.280433 -25.312957,1.327499 -25.485809,1.353704 C -25.672518,1.381804 -25.87123,1.385821 -26.050119,1.36166 C -26.36013,1.319217 -26.625735,1.190742 -26.783029,0.980697 C -26.893263,0.834921 -26.950777,0.650604 -26.949999,0.449254 C -26.950352,0.366674 -26.940292,0.290264 -26.919818,0.220024 C -26.892367,0.126484 -26.845388,0.046949 -26.778881,-0.018583 C -26.654535,-0.140296 -26.440219,-0.217912 -26.195003,-0.267489 C -26.037959,-0.299503 -25.939937,-0.32447 -25.883408,-0.359525 C -25.851449,-0.379618 -25.831002,-0.40183 -25.822067,-0.426161 C -25.814091,-0.447501 -25.810072,-0.474339 -25.810011,-0.506676 C -25.80992,-0.526744 -25.813165,-0.545567 -25.819744,-0.563143 C -25.835523,-0.604293 -25.868404,-0.638093 -25.918387,-0.664543 C -25.966011,-0.689344 -26.023448,-0.701991 -26.0907,-0.702482 C -26.136645,-0.702711 -26.183131,-0.69937 -26.230158,-0.692461 C -26.417284,-0.664754 -26.612234,-0.58143 -26.815007,-0.442489 L -27.145003,-1.082495 C -26.822307,-1.272042 -26.471392,-1.379256 -26.116001,-1.377495 C -25.761179,-1.378264 -25.423694,-1.28086 -25.197058,-1.084994 C -25.109086,-1.00856 -25.039183,-0.917613 -24.987351,-0.812152 C -24.928826,-0.691179 -24.89971,-0.558803 -24.900003,-0.415022 C -24.899677,-0.345267 -24.90724,-0.278774 -24.922692,-0.215543 C -24.950972,-0.100853 -25.00601,-0.001369 -25.087809,0.082908 C -25.220128,0.219495 -25.419725,0.302781 -25.645003,0.347502 C -25.735494,0.367602 -25.808808,0.384467 -25.864947,0.398098 C -25.968102,0.422823 -26.01928,0.455226 -26.039585,0.489333 C -26.049981,0.50849 -26.055118,0.534623 -26.054997,0.567732 C -26.054926,0.620397 -26.032527,0.66297 -25.9878,0.695449 C -25.927769,0.739495 -25.840158,0.757416 -25.734204,0.751563 C -25.587029,0.744763 -25.437298,0.701743 -25.28501,0.622502" />
      <path d="M -35.895003,0.452498 L -35.895003,1.222502 C -36.074089,1.311681 -36.266993,1.358244 -36.473715,1.362191 C -36.684442,1.366339 -36.883338,1.331902 -37.070404,1.258878 C -37.280568,1.176591 -37.456547,1.054605 -37.598341,0.892921 C -37.69134,0.786296 -37.766648,0.665366 -37.824263,0.53013 C -37.894974,0.362407 -37.930223,0.180679 -37.930011,-0.015053 C -37.930852,-0.219423 -37.891506,-0.406565 -37.811974,-0.576481 C -37.714473,-0.784988 -37.570219,-0.960466 -37.388835,-1.092452 C -37.159687,-1.259725 -36.869706,-1.355041 -36.573473,-1.361915 C -36.353384,-1.367624 -36.127227,-1.319482 -35.895003,-1.217489 L -35.895003,-0.447502 C -35.998762,-0.530465 -36.109958,-0.584134 -36.228593,-0.608509 C -36.358315,-0.6345 -36.496614,-0.624331 -36.614209,-0.57781 C -36.706215,-0.541916 -36.782798,-0.487968 -36.843957,-0.415965 C -36.935396,-0.308819 -36.991716,-0.165617 -36.990006,-0.006758 C -36.992639,0.260593 -36.842309,0.470566 -36.624222,0.562683 C -36.538977,0.598658 -36.446978,0.615157 -36.348226,0.612178 C -36.192745,0.606491 -36.041671,0.553264 -35.895003,0.452498" />
      <path d="M -6.65,0.0 A 5.8,5.8 0.0 0,1 -18.25,-0.0 A 5.8,5.8 0.0 0,1 -6.65,0.0 M -13.262,-0.812 L -16.51,-0.812 L -16.51,0.812 L -13.262,0.812 L -13.262,4.06 L -11.638,4.06 L -11.638,0.812 L -8.39,0.812 L -8.39,-0.812 L -11.638,-0.812 L -11.638,-4.06 L -13.262,-4.06 L -13.262,-0.812" />
      <path d="M 15.079997,2.122502 L 15.079997,-2.027498 L 15.98501,-2.027498 L 15.98501,-0.657495 C 15.984229,-0.462733 16.04094,-0.308874 16.157572,-0.217993 C 16.23651,-0.157204 16.337245,-0.127039 16.459777,-0.127498 C 16.572693,-0.127305 16.669434,-0.162304 16.75,-0.232495 C 16.846248,-0.321868 16.879169,-0.478712 16.879997,-0.732495 L 16.879997,-2.027498 L 17.78501,-2.027498 L 17.78501,-0.397502 C 17.786171,-0.113786 17.709221,0.139845 17.540079,0.322209 C 17.369859,0.511018 17.105264,0.593863 16.806218,0.592504 C 16.641349,0.59382 16.491659,0.567596 16.357149,0.513834 C 16.221699,0.457902 16.096733,0.34854 15.98501,0.212508 L 15.98501,2.122502 L 15.079997,2.122502" />
      <path d="M 19.215007,-0.897502 L 21.120003,-0.897502 L 21.120003,-0.802498 C 21.121975,-0.374193 20.995413,0.003705 20.747491,0.255085 C 20.504514,0.50513 20.139907,0.634353 19.725808,0.632495 C 19.299712,0.635067 18.933618,0.501185 18.683037,0.255587 C 18.433962,0.01339 18.297902,-0.346344 18.300001,-0.7555 C 18.296679,-1.162285 18.446285,-1.512979 18.710872,-1.755251 C 18.955915,-1.981161 19.30576,-2.11021 19.690398,-2.121363 C 20.121043,-2.13444 20.490952,-2.037021 20.742501,-1.808684 C 20.901608,-1.664257 21.015777,-1.475531 21.08501,-1.242505 L 20.21001,-1.242505 C 20.165171,-1.314642 20.109601,-1.370916 20.043301,-1.411326 C 19.963231,-1.459151 19.870531,-1.482874 19.765201,-1.482495 C 19.715108,-1.482554 19.667904,-1.478836 19.623589,-1.471339 C 19.520148,-1.454108 19.435461,-1.414761 19.369529,-1.353296 C 19.262937,-1.253744 19.214507,-1.093761 19.215007,-0.897502 M 20.275,-0.372502 L 19.240007,-0.372502 Q 19.274034,-0.174971 19.406373,-0.063441 Q 19.541217,0.04808 19.749693,0.047502 Q 19.949496,0.047928 20.091046,-0.068352 Q 20.23062,-0.184005 20.275,-0.372502" />
      <path d="M 22.470003,-0.637492 L 21.190007,-2.027498 L 22.38501,-2.027498 L 23.045003,-1.267505 L 23.7,-2.027498 L 24.9,-2.027498 L 23.615007,-0.637492 L 24.680013,0.537508 L 23.5,0.537508 L 23.05,0.007495 L 22.61001,0.537508 L 21.430013,0.537508 L 22.470003,-0.637492" />
      <path d="M -31.109994,-12.869995 L -32.015007,-12.869995 L -32.015007,-15.435002 L -31.109994,-15.435002 L -31.109994,-12.869995" />
      <path d="M -32.075,-11.885002 C -32.076375,-11.606449 -31.843586,-11.373597 -31.564942,-11.375008 C -31.286412,-11.373641 -31.053596,-11.60648 -31.054997,-11.885002 C -31.053597,-12.163528 -31.286417,-12.396363 -31.564942,-12.394995 C -31.843523,-12.396426 -32.076399,-12.163561 -32.075,-11.885002" />
      <path d="M -29.584994,-16.714998 L -29.584994,-15.185002 C -29.38988,-15.388905 -29.132848,-15.502188 -28.847561,-15.513565 C -28.643806,-15.522826 -28.444762,-15.488016 -28.266458,-15.406149 C -28.082628,-15.322242 -27.927884,-15.201693 -27.802225,-15.044503 C -27.609215,-14.804122 -27.496837,-14.489586 -27.5,-14.159062 C -27.497825,-13.811943 -27.619683,-13.474883 -27.835141,-13.228387 C -27.957769,-13.088341 -28.104532,-12.979121 -28.27543,-12.900727 C -28.436497,-12.827131 -28.608061,-12.790224 -28.790122,-12.790007 C -28.840742,-12.789809 -28.890093,-12.792462 -28.938175,-12.797967 C -29.198765,-12.826095 -29.424494,-12.950015 -29.584994,-13.155005 L -29.584994,-12.869995 L -30.490007,-12.869995 L -30.490007,-16.714998 L -29.584994,-16.714998 M -28.445003,-14.160002 C -28.44317,-14.309615 -28.514011,-14.455761 -28.613238,-14.560551 C -28.715348,-14.668664 -28.863447,-14.735618 -29.023354,-14.735 C -29.184701,-14.737235 -29.338697,-14.662526 -29.444787,-14.557806 C -29.547826,-14.455856 -29.611234,-14.310549 -29.609993,-14.154418 C -29.611572,-13.993232 -29.536405,-13.839402 -29.431345,-13.733744 C -29.323171,-13.624979 -29.166404,-13.56149 -29.000268,-13.570678 C -28.839747,-13.577259 -28.696249,-13.652652 -28.595751,-13.759792 C -28.498516,-13.863788 -28.444449,-14.009182 -28.445003,-14.160002" />
      <path d="M -25.28501,-13.530005 L -24.979997,-12.939998 C -25.144353,-12.872073 -25.312957,-12.825008 -25.485809,-12.798802 C -25.672518,-12.770702 -25.87123,-12.766685 -26.050119,-12.790846 C -26.36013,-12.833289 -26.625735,-12.961765 -26.783029,-13.17181 C -26.893263,-13.317586 -26.950777,-13.501902 -26.949999,-13.703253 C -26.950352,-13.785833 -26.940292,-13.862242 -26.919818,-13.932482 C -26.892367,-14.026022 -26.845388,-14.105558 -26.778881,-14.171089 C -26.654535,-14.292802 -26.440219,-14.370418 -26.195003,-14.419995 C -26.037959,-14.45201 -25.939937,-14.476977 -25.883408,-14.512031 C -25.851449,-14.532124 -25.831002,-14.554336 -25.822067,-14.578667 C -25.814091,-14.600007 -25.810072,-14.626846 -25.810011,-14.659182 C -25.80992,-14.679251 -25.813165,-14.698073 -25.819744,-14.715649 C -25.835523,-14.756799 -25.868404,-14.7906 -25.918387,-14.81705 C -25.966011,-14.841851 -26.023448,-14.854497 -26.0907,-14.854988 C -26.136645,-14.855217 -26.183131,-14.851877 -26.230158,-14.844967 C -26.417284,-14.817261 -26.612234,-14.733937 -26.815007,-14.594995 L -27.145003,-15.235002 C -26.822307,-15.424549 -26.471392,-15.531762 -26.116001,-15.530001 C -25.761179,-15.53077 -25.423694,-15.433367 -25.197058,-15.2375 C -25.109086,-15.161066 -25.039183,-15.070119 -24.987351,-14.964658 C -24.928826,-14.843686 -24.89971,-14.711309 -24.900003,-14.567529 C -24.899677,-14.497774 -24.90724,-14.431281 -24.922692,-14.36805 C -24.950972,-14.25336 -25.00601,-14.153876 -25.087809,-14.069599 C -25.220128,-13.933012 -25.419725,-13.849726 -25.645003,-13.805005 C -25.735494,-13.784905 -25.808808,-13.768039 -25.864947,-13.754408 C -25.968102,-13.729684 -26.01928,-13.697281 -26.039585,-13.663173 C -26.049981,-13.644016 -26.055118,-13.617883 -26.054997,-13.584775 C -26.054926,-13.532109 -26.032527,-13.489537 -25.9878,-13.457057 C -25.927769,-13.413012 -25.840158,-13.39509 -25.734204,-13.400944 C -25.587029,-13.407743 -25.437298,-13.450764 -25.28501,-13.530005" />
      <path d="M -42.509994,-16.714998 L -42.509994,-15.185002 C -42.31488,-15.388905 -42.057848,-15.502188 -41.772561,-15.513565 C -41.568806,-15.522826 -41.369762,-15.488016 -41.191458,-15.406149 C -41.007628,-15.322242 -40.852884,-15.201693 -40.727225,-15.044503 C -40.534215,-14.804122 -40.421837,-14.489586 -40.425,-14.159062 C -40.422825,-13.811943 -40.544683,-13.474883 -40.760141,-13.228387 C -40.882769,-13.088341 -41.029532,-12.979121 -41.20043,-12.900727 C -41.361497,-12.827131 -41.533061,-12.790224 -41.715122,-12.790007 C -41.765742,-12.789809 -41.815093,-12.792462 -41.863175,-12.797967 C -42.123765,-12.826095 -42.349494,-12.950015 -42.509994,-13.155005 L -42.509994,-12.869995 L -43.415007,-12.869995 L -43.415007,-16.714998 L -42.509994,-16.714998 M -41.370003,-14.160002 C -41.36817,-14.309615 -41.439011,-14.455761 -41.538238,-14.560551 C -41.640348,-14.668664 -41.788447,-14.735618 -41.948354,-14.735 C -42.109701,-14.737235 -42.263697,-14.662526 -42.369787,-14.557806 C -42.472826,-14.455856 -42.536234,-14.310549 -42.534993,-14.154418 C -42.536572,-13.993232 -42.461405,-13.839402 -42.356345,-13.733744 C -42.248171,-13.624979 -42.091404,-13.56149 -41.925268,-13.570678 C -41.764747,-13.577259 -41.621249,-13.652652 -41.520751,-13.759792 C -41.423516,-13.863788 -41.369449,-14.009182 -41.370003,-14.160002" />
      <path d="M -39.91001,-11.285002 L -39.91001,-15.435002 L -39.004997,-15.435002 L -39.004997,-14.064998 C -39.005777,-13.870236 -38.949066,-13.716377 -38.832434,-13.625496 C -38.753496,-13.564708 -38.652761,-13.534543 -38.53023,-13.535002 C -38.417313,-13.534808 -38.320572,-13.569807 -38.240007,-13.639998 C -38.143758,-13.729371 -38.110838,-13.886215 -38.11001,-14.139998 L -38.11001,-15.435002 L -37.204997,-15.435002 L -37.204997,-13.805005 C -37.203836,-13.52129 -37.280786,-13.267658 -37.449928,-13.085294 C -37.620147,-12.896486 -37.884742,-12.81364 -38.183788,-12.814999 C -38.348658,-12.813684 -38.498348,-12.839907 -38.632858,-12.893669 C -38.768307,-12.949602 -38.893274,-13.058963 -39.004997,-13.194995 L -39.004997,-11.285002 L -39.91001,-11.285002" />
      <path d="M -35.684994,-12.869995 L -36.590007,-12.869995 L -36.590007,-15.435002 L -35.684994,-15.435002 L -35.684994,-12.869995" />
      <path d="M -36.65,-11.885002 C -36.651375,-11.606449 -36.418586,-11.373597 -36.139942,-11.375008 C -35.861412,-11.373641 -35.628596,-11.60648 -35.629997,-11.885002 C -35.628597,-12.163528 -35.861417,-12.396363 -36.139942,-12.394995 C -36.418523,-12.396426 -36.651399,-12.163561 -36.65,-11.885002" />
      <path d="M -34.159994,-11.285002 L -35.065007,-11.285002 L -35.065007,-15.435002 L -34.159994,-15.435002 L -34.159994,-11.285002" />
      <path d="M -32.634994,-11.285002 L -33.540007,-11.285002 L -33.540007,-15.435002 L -32.634994,-15.435002 L -32.634994,-11.285002" />
      <path d="M -6.65,-14.0 A 5.8,5.8 0.0 0,1 -18.25,-14.0 A 5.8,5.8 0.0 0,1 -6.65,-14.0 M -13.934683,-14.812 L -16.51,-14.812 L -16.51,-13.188 L -13.934683,-13.188 L -13.262,-12.515317 L -13.262,-9.94 L -11.638,-9.94 L -11.638,-12.515317 L -10.965317,-13.188 L -8.39,-13.188 L -8.39,-14.812 L -10.965317,-14.812 L -11.638,-15.484683 L -11.638,-18.06 L -13.262,-18.06 L -13.262,-15.484683 L -13.934683,-14.812" />
      <path d="M 20.832511,-11.285002 L 19.927498,-11.285002 L 19.927498,-15.435002 L 20.832511,-15.435002 L 20.832511,-11.285002" />
      <path d="M 21.352498,-14.130005 C 21.351941,-14.342036 21.392084,-14.536864 21.472925,-14.714488 C 21.551189,-14.88577 21.659354,-15.033007 21.797423,-15.156199 C 21.934436,-15.277649 22.095121,-15.370325 22.27948,-15.434228 C 22.488612,-15.507417 22.719914,-15.537533 22.959874,-15.528466 C 23.175466,-15.52061 23.377388,-15.47968 23.565643,-15.405677 C 23.744889,-15.335323 23.899519,-15.237858 24.029533,-15.113282 C 24.153765,-14.993947 24.251705,-14.854242 24.323352,-14.694168 C 24.405208,-14.511329 24.44017,-14.305478 24.431165,-14.08961 C 24.423928,-13.909088 24.384476,-13.741651 24.312808,-13.587302 C 24.221323,-13.391439 24.088454,-13.227874 23.914198,-13.096607 C 23.789849,-13.002987 23.649613,-12.928578 23.493491,-12.873379 C 23.283079,-12.798485 23.051191,-12.767301 22.811195,-12.776585 C 22.616471,-12.783896 22.433803,-12.819848 22.263192,-12.884443 C 22.078975,-12.954013 21.918508,-13.050073 21.781793,-13.172621 C 21.651239,-13.290152 21.548375,-13.427744 21.473202,-13.585397 C 21.39256,-13.754707 21.352325,-13.936243 21.352498,-14.130005 M 22.307511,-14.139998 C 22.305683,-13.980619 22.378922,-13.83449 22.48142,-13.72855 C 22.58322,-13.623484 22.735648,-13.558833 22.892958,-13.560002 C 23.056951,-13.55912 23.214708,-13.629258 23.316663,-13.742378 C 23.412121,-13.846918 23.479642,-13.993567 23.477498,-14.145901 C 23.478971,-14.316784 23.401559,-14.470036 23.293485,-14.576534 C 23.192225,-14.675465 23.044215,-14.736196 22.89207,-14.735001 C 22.72852,-14.735885 22.571106,-14.666139 22.469081,-14.553424 C 22.373344,-14.448236 22.305548,-14.305885 22.307511,-14.139998" />
      <path d="M 25.977515,-13.625008 L 26.492505,-13.625008 L 26.492505,-12.869995 L 25.977515,-12.869995 L 25.977515,-12.100008 L 25.072518,-12.100008 L 25.072518,-12.869995 L 24.772518,-12.869995 L 24.772518,-13.625008 L 25.072518,-13.625008 L 25.072518,-15.435002 L 25.977515,-15.435002 L 25.977515,-13.625008" />
      <path d="M -0.687492,-16.714998 L -0.687492,-15.185002 C -0.492378,-15.388905 -0.235346,-15.502188 0.049941,-15.513565 C 0.253696,-15.522826 0.45274,-15.488016 0.631043,-15.406149 C 0.814873,-15.322242 0.969618,-15.201693 1.095277,-15.044503 C 1.288287,-14.804122 1.400665,-14.489586 1.397501,-14.159062 C 1.399677,-13.811943 1.277818,-13.474883 1.062361,-13.228387 C 0.939732,-13.088341 0.792969,-12.979121 0.622072,-12.900727 C 0.461005,-12.827131 0.289441,-12.790224 0.10738,-12.790007 C 0.05676,-12.789809 0.007409,-12.792462 -0.040673,-12.797967 C -0.301263,-12.826095 -0.526992,-12.950015 -0.687492,-13.155005 L -0.687492,-12.869995 L -1.592505,-12.869995 L -1.592505,-16.714998 L -0.687492,-16.714998 M 0.452498,-14.160002 C 0.454332,-14.309615 0.383491,-14.455761 0.284264,-14.560551 C 0.182154,-14.668664 0.034055,-14.735618 -0.125852,-14.735 C -0.287199,-14.737235 -0.441196,-14.662526 -0.547285,-14.557806 C -0.650325,-14.455856 -0.713732,-14.310549 -0.712492,-14.154418 C -0.71407,-13.993232 -0.638903,-13.839402 -0.533843,-13.733744 C -0.425669,-13.624979 -0.268902,-13.56149 -0.102766,-13.570678 C 0.057755,-13.577259 0.201252,-13.652652 0.301751,-13.759792 C 0.398985,-13.863788 0.453053,-14.009182 0.452498,-14.160002" />
      <path d="M 1.912492,-11.285002 L 1.912492,-15.435002 L 2.817505,-15.435002 L 2.817505,-14.064998 C 2.816724,-13.870236 2.873435,-13.716377 2.990067,-13.625496 C 3.069006,-13.564708 3.16974,-13.534543 3.292272,-13.535002 C 3.405188,-13.534808 3.50193,-13.569807 3.582495,-13.639998 C 3.678744,-13.729371 3.711664,-13.886215 3.712492,-14.139998 L 3.712492,-15.435002 L 4.617505,-15.435002 L 4.617505,-13.805005 C 4.618666,-13.52129 4.541716,-13.267658 4.372574,-13.085294 C 4.202354,-12.896486 3.93776,-12.81364 3.638714,-12.814999 C 3.473844,-12.813684 3.324154,-12.839907 3.189644,-12.893669 C 3.054195,-12.949602 2.929228,-13.058963 2.817505,-13.194995 L 2.817505,-11.285002 L 1.912492,-11.285002" />
      <path d="M 6.137508,-12.869995 L 5.232495,-12.869995 L 5.232495,-15.435002 L 6.137508,-15.435002 L 6.137508,-12.869995" />
      <path d="M 5.172502,-11.885002 C 5.171127,-11.606449 5.403916,-11.373597 5.68256,-11.375008 C 5.96109,-11.373641 6.193905,-11.60648 6.192505,-11.885002 C 6.193905,-12.163528 5.961084,-12.396363 5.68256,-12.394995 C 5.403979,-12.396426 5.171103,-12.163561 5.172502,-11.885002" />
      <path d="M 7.662508,-11.285002 L 6.757495,-11.285002 L 6.757495,-15.435002 L 7.662508,-15.435002 L 7.662508,-11.285002" />
      <path d="M 9.187508,-11.285002 L 8.282495,-11.285002 L 8.282495,-15.435002 L 9.187508,-15.435002 L 9.187508,-11.285002" />
      <path d="M 10.712508,-12.869995 L 9.807495,-12.869995 L 9.807495,-15.435002 L 10.712508,-15.435002 L 10.712508,-12.869995" />
      <path d="M 9.747502,-11.885002 C 9.746127,-11.606449 9.978916,-11.373597 10.25756,-11.375008 C 10.53609,-11.373641 10.768905,-11.60648 10.767505,-11.885002 C 10.768905,-12.163528 10.536084,-12.396363 10.25756,-12.394995 C 9.978979,-12.396426 9.746103,-12.163561 9.747502,-11.885002" />
      <path d="M 12.237508,-16.714998 L 12.237508,-15.185002 C 12.432622,-15.388905 12.689654,-15.502188 12.974941,-15.513565 C 13.178696,-15.522826 13.37774,-15.488016 13.556043,-15.406149 C 13.739873,-15.322242 13.894618,-15.201693 14.020277,-15.044503 C 14.213287,-14.804122 14.325665,-14.489586 14.322501,-14.159062 C 14.324677,-13.811943 14.202818,-13.474883 13.987361,-13.228387 C 13.864732,-13.088341 13.717969,-12.979121 13.547072,-12.900727 C 13.386005,-12.827131 13.214441,-12.790224 13.03238,-12.790007 C 12.98176,-12.789809 12.932409,-12.792462 12.884327,-12.797967 C 12.623737,-12.826095 12.398008,-12.950015 12.237508,-13.155005 L 12.237508,-12.869995 L 11.332495,-12.869995 L 11.332495,-16.714998 L 12.237508,-16.714998 M 13.377498,-14.160002 C 13.379332,-14.309615 13.308491,-14.455761 13.209264,-14.560551 C 13.107154,-14.668664 12.959055,-14.735618 12.799148,-14.735 C 12.637801,-14.737235 12.483804,-14.662526 12.377715,-14.557806 C 12.274675,-14.455856 12.211268,-14.310549 12.212508,-14.154418 C 12.21093,-13.993232 12.286097,-13.839402 12.391157,-13.733744 C 12.499331,-13.624979 12.656098,-13.56149 12.822234,-13.570678 C 12.982755,-13.577259 13.126252,-13.652652 13.226751,-13.759792 C 13.323985,-13.863788 13.378053,-14.009182 13.377498,-14.160002" />
      <path d="M 16.537492,-13.530005 L 16.842505,-12.939998 C 16.678149,-12.872073 16.509545,-12.825008 16.336693,-12.798802 C 16.149984,-12.770702 15.951272,-12.766685 15.772383,-12.790846 C 15.462372,-12.833289 15.196767,-12.961765 15.039472,-13.17181 C 14.929239,-13.317586 14.871725,-13.501902 14.872503,-13.703253 C 14.87215,-13.785833 14.88221,-13.862242 14.902684,-13.932482 C 14.930134,-14.026022 14.977114,-14.105558 15.043621,-14.171089 C 15.167967,-14.292802 15.382283,-14.370418 15.627498,-14.419995 C 15.784543,-14.45201 15.882565,-14.476977 15.939093,-14.512031 C 15.971052,-14.532124 15.9915,-14.554336 16.000435,-14.578667 C 16.008411,-14.600007 16.012429,-14.626846 16.012491,-14.659182 C 16.012581,-14.679251 16.009337,-14.698073 16.002758,-14.715649 C 15.986979,-14.756799 15.954098,-14.7906 15.904115,-14.81705 C 15.856491,-14.841851 15.799053,-14.854497 15.731802,-14.854988 C 15.685856,-14.855217 15.639371,-14.851877 15.592344,-14.844967 C 15.405218,-14.817261 15.210268,-14.733937 15.007495,-14.594995 L 14.677498,-15.235002 C 15.000195,-15.424549 15.351109,-15.531762 15.706501,-15.530001 C 16.061323,-15.53077 16.398807,-15.433367 16.625444,-15.2375 C 16.713416,-15.161066 16.783318,-15.070119 16.835151,-14.964658 C 16.893676,-14.843686 16.922792,-14.711309 16.922499,-14.567529 C 16.922824,-14.497774 16.915261,-14.431281 16.89981,-14.36805 C 16.87153,-14.25336 16.816491,-14.153876 16.734693,-14.069599 C 16.602374,-13.933012 16.402777,-13.849726 16.177498,-13.805005 C 16.087008,-13.784905 16.013693,-13.768039 15.957555,-13.754408 C 15.8544,-13.729684 15.803221,-13.697281 15.782917,-13.663173 C 15.772521,-13.644016 15.767384,-13.617883 15.767505,-13.584775 C 15.767576,-13.532109 15.789975,-13.489537 15.834702,-13.457057 C 15.894733,-13.413012 15.982344,-13.39509 16.088298,-13.400944 C 16.235473,-13.407743 16.385204,-13.450764 16.537492,-13.530005" />
      <path d="M 19.082495,-13.530005 L 19.387508,-12.939998 C 19.223152,-12.872073 19.054548,-12.825008 18.881696,-12.798802 C 18.694987,-12.770702 18.496275,-12.766685 18.317386,-12.790846 C 18.007375,-12.833289 17.74177,-12.961765 17.584476,-13.17181 C 17.474242,-13.317586 17.416728,-13.501902 17.417506,-13.703253 C 17.417153,-13.785833 17.427214,-13.862242 17.447687,-13.932482 C 17.475138,-14.026022 17.522117,-14.105558 17.588624,-14.171089 C 17.71297,-14.292802 17.927286,-14.370418 18.172502,-14.419995 C 18.329546,-14.45201 18.427568,-14.476977 18.484097,-14.512031 C 18.516056,-14.532124 18.536503,-14.554336 18.545438,-14.578667 C 18.553414,-14.600007 18.557433,-14.626846 18.557494,-14.659182 C 18.557585,-14.679251 18.55434,-14.698073 18.547761,-14.715649 C 18.531982,-14.756799 18.499101,-14.7906 18.449118,-14.81705 C 18.401494,-14.841851 18.344057,-14.854497 18.276805,-14.854988 C 18.23086,-14.855217 18.184374,-14.851877 18.137347,-14.844967 C 17.950221,-14.817261 17.755271,-14.733937 17.552498,-14.594995 L 17.222502,-15.235002 C 17.545198,-15.424549 17.896113,-15.531762 18.251504,-15.530001 C 18.606326,-15.53077 18.943811,-15.433367 19.170447,-15.2375 C 19.258419,-15.161066 19.328322,-15.070119 19.380154,-14.964658 C 19.438679,-14.843686 19.467795,-14.711309 19.467502,-14.567529 C 19.467828,-14.497774 19.460265,-14.431281 19.444813,-14.36805 C 19.416533,-14.25336 19.361495,-14.153876 19.279696,-14.069599 C 19.147377,-13.933012 18.94778,-13.849726 18.722502,-13.805005 C 18.632011,-13.784905 18.558697,-13.768039 18.502558,-13.754408 C 18.399403,-13.729684 18.348225,-13.697281 18.32792,-13.663173 C 18.317524,-13.644016 18.312387,-13.617883 18.312508,-13.584775 C 18.312579,-13.532109 18.334978,-13.489537 18.379705,-13.457057 C 18.439736,-13.413012 18.527348,-13.39509 18.633301,-13.400944 C 18.780476,-13.407743 18.930207,-13.450764 19.082495,-13.530005" />
      <path d="M 38.834683,-13.188 L 43.092879,-13.188 A 5.8,5.8 0.0 0,1 31.607121,-13.188 L 35.865317,-13.188 L 36.538,-12.515317 L 36.538,-9.94 L 38.162,-9.94 L 38.162,-12.515317 L 38.834683,-13.188" />
      <path d="M 31.607121,-14.812 A 5.8,5.8 0.0 0,1 43.092879,-14.812 L 38.834683,-14.812 L 38.162,-15.484683 L 38.162,-18.06 L 36.538,-18.06 L 36.538,-15.484683 L 35.865317,-14.812 L 31.607121,-14.812" />
      <path d="M -31.429981,-26.869995 L -32.334994,-26.869995 L -32.334994,-29.435002 L -31.429981,-29.435002 L -31.429981,-26.869995" />
      <path d="M -32.394987,-25.885002 C -32.396362,-25.606449 -32.163573,-25.373597 -31.884928,-25.375008 C -31.606399,-25.373641 -31.373583,-25.60648 -31.374984,-25.885002 C -31.373584,-26.163528 -31.606404,-26.396363 -31.884928,-26.394995 C -32.16351,-26.396426 -32.396386,-26.163561 -32.394987,-25.885002" />
      <path d="M -30.049984,-26.869995 L -31.069987,-26.869995 L -29.749984,-29.435002 L -29.144987,-29.435002 L -27.809994,-26.869995 L -28.819987,-26.869995 L -29.43999,-28.185002 L -30.049984,-26.869995" />
      <path d="M -26.804997,-28.305005 L -24.9,-28.305005 L -24.9,-28.210002 C -24.898028,-27.781696 -25.02459,-27.403798 -25.272512,-27.152418 C -25.515489,-26.902373 -25.880097,-26.77315 -26.294196,-26.775008 C -26.720291,-26.772436 -27.086385,-26.906319 -27.336966,-27.151916 C -27.586041,-27.394113 -27.722102,-27.753847 -27.720002,-28.163003 C -27.723324,-28.569788 -27.573719,-28.920482 -27.309132,-29.162754 C -27.064088,-29.388664 -26.714244,-29.517713 -26.329605,-29.528866 C -25.89896,-29.541943 -25.529052,-29.444524 -25.277502,-29.216187 C -25.118396,-29.071761 -25.004226,-28.883034 -24.934994,-28.650008 L -25.809994,-28.650008 C -25.854833,-28.722145 -25.910402,-28.778419 -25.976702,-28.81883 C -26.056772,-28.866654 -26.149472,-28.890377 -26.254803,-28.889998 C -26.304896,-28.890058 -26.3521,-28.886339 -26.396414,-28.878842 C -26.499855,-28.861611 -26.584542,-28.822264 -26.650474,-28.760799 C -26.757067,-28.661247 -26.805496,-28.501264 -26.804997,-28.305005 M -25.745003,-27.780005 L -26.779997,-27.780005 Q -26.745969,-27.582475 -26.61363,-27.470944 Q -26.478786,-27.359423 -26.270311,-27.360002 Q -26.070508,-27.359575 -25.928958,-27.475856 Q -25.789383,-27.591509 -25.745003,-27.780005" />
      <path d="M -48.739974,-30.714998 L -48.739974,-29.185002 C -48.54486,-29.388905 -48.287828,-29.502188 -48.002542,-29.513565 C -47.798787,-29.522826 -47.599743,-29.488016 -47.421439,-29.406149 C -47.237609,-29.322242 -47.082864,-29.201693 -46.957205,-29.044503 C -46.764196,-28.804122 -46.651817,-28.489586 -46.654981,-28.159062 C -46.652805,-27.811943 -46.774664,-27.474883 -46.990121,-27.228387 C -47.11275,-27.088341 -47.259513,-26.979121 -47.43041,-26.900727 C -47.591477,-26.827131 -47.763041,-26.790224 -47.945103,-26.790007 C -47.995722,-26.789809 -48.045073,-26.792462 -48.093155,-26.797967 C -48.353745,-26.826095 -48.579474,-26.950015 -48.739974,-27.155005 L -48.739974,-26.869995 L -49.644987,-26.869995 L -49.644987,-30.714998 L -48.739974,-30.714998 M -47.599984,-28.160002 C -47.59815,-28.309615 -47.668991,-28.455761 -47.768218,-28.560551 C -47.870328,-28.668664 -48.018427,-28.735618 -48.178335,-28.735 C -48.339681,-28.737235 -48.493678,-28.662526 -48.599767,-28.557806 C -48.702807,-28.455856 -48.766215,-28.310549 -48.764974,-28.154418 C -48.766552,-27.993232 -48.691386,-27.839402 -48.586326,-27.733744 C -48.478151,-27.624979 -48.321385,-27.56149 -48.155249,-27.570678 C -47.994728,-27.577259 -47.85123,-27.652652 -47.750732,-27.759792 C -47.653497,-27.863788 -47.599429,-28.009182 -47.599984,-28.160002" />
      <path d="M -46.23999,-28.130005 C -46.240547,-28.342036 -46.200405,-28.536864 -46.119563,-28.714488 C -46.0413,-28.88577 -45.933134,-29.033007 -45.795066,-29.156199 C -45.658053,-29.277649 -45.497368,-29.370325 -45.313009,-29.434228 C -45.103877,-29.507417 -44.872575,-29.537533 -44.632615,-29.528466 C -44.417023,-29.52061 -44.2151,-29.47968 -44.026846,-29.405677 C -43.8476,-29.335323 -43.69297,-29.237858 -43.562956,-29.113282 C -43.438723,-28.993947 -43.340784,-28.854242 -43.269137,-28.694168 C -43.187281,-28.511329 -43.152319,-28.305478 -43.161324,-28.08961 C -43.168561,-27.909088 -43.208013,-27.741651 -43.27968,-27.587302 C -43.371165,-27.391439 -43.504035,-27.227874 -43.67829,-27.096607 C -43.80264,-27.002987 -43.942876,-26.928578 -44.098997,-26.873379 C -44.30941,-26.798485 -44.541298,-26.767301 -44.781294,-26.776585 C -44.976018,-26.783896 -45.158685,-26.819848 -45.329297,-26.884443 C -45.513514,-26.954013 -45.673981,-27.050073 -45.810696,-27.172621 C -45.94125,-27.290152 -46.044114,-27.427744 -46.119287,-27.585397 C -46.199929,-27.754707 -46.240164,-27.936243 -46.23999,-28.130005 M -45.284977,-28.139998 C -45.286806,-27.980619 -45.213567,-27.83449 -45.111069,-27.72855 C -45.009269,-27.623484 -44.856841,-27.558833 -44.699531,-27.560002 C -44.535537,-27.55912 -44.37778,-27.629258 -44.275826,-27.742378 C -44.180367,-27.846918 -44.112846,-27.993567 -44.114991,-28.145901 C -44.113518,-28.316784 -44.190929,-28.470036 -44.299003,-28.576534 C -44.400264,-28.675465 -44.548273,-28.736196 -44.700419,-28.735001 C -44.863969,-28.735885 -45.021383,-28.666139 -45.123408,-28.553424 C -45.219145,-28.448236 -45.286941,-28.305885 -45.284977,-28.139998" />
      <path d="M -41.319987,-28.680005 L -40.119987,-26.869995 L -42.674984,-26.869995 L -42.674984,-27.625008 L -41.629981,-27.625008 L -42.83999,-29.435002 L -40.23999,-29.435002 L -40.23999,-28.680005 L -41.319987,-28.680005" />
      <path d="M -38.789974,-26.869995 L -39.694987,-26.869995 L -39.694987,-29.435002 L -38.789974,-29.435002 L -38.789974,-26.869995" />
      <path d="M -39.754981,-25.885002 C -39.756355,-25.606449 -39.523567,-25.373597 -39.244922,-25.375008 C -38.966393,-25.373641 -38.733577,-25.60648 -38.734977,-25.885002 C -38.733577,-26.163528 -38.966398,-26.396363 -39.244922,-26.394995 C -39.523503,-26.396426 -39.756379,-26.163561 -39.754981,-25.885002" />
      <path d="M -36.189974,-25.285002 L -36.189974,-27.125008 C -36.382203,-26.917669 -36.638671,-26.802409 -36.924432,-26.791361 C -37.131905,-26.782484 -37.333522,-26.817302 -37.512444,-26.899757 C -37.693599,-26.98249 -37.845627,-27.099974 -37.968529,-27.25221 C -38.077276,-27.388237 -38.157396,-27.542894 -38.20889,-27.71618 C -38.255652,-27.874914 -38.275619,-28.039117 -38.268789,-28.208788 C -38.258235,-28.535739 -38.13887,-28.845423 -37.939229,-29.07657 C -37.818131,-29.21649 -37.673491,-29.325313 -37.505308,-29.40304 C -37.34237,-29.477845 -37.166755,-29.515163 -36.978464,-29.514994 C -36.930805,-29.515133 -36.884273,-29.512693 -36.838866,-29.507675 C -36.577322,-29.480398 -36.351673,-29.35631 -36.189974,-29.150008 L -36.189974,-29.435002 L -35.279981,-29.435002 L -35.279981,-25.285002 L -36.189974,-25.285002 M -37.329981,-28.144995 C -37.331887,-27.988116 -37.26099,-27.850007 -37.161715,-27.744412 C -37.060142,-27.636249 -36.90603,-27.56938 -36.746535,-27.569997 C -36.593327,-27.568523 -36.444414,-27.629769 -36.342924,-27.729509 C -36.235135,-27.835714 -36.15807,-27.99191 -36.159978,-28.155657 C -36.158331,-28.31463 -36.231431,-28.460402 -36.333613,-28.566165 C -36.435945,-28.67195 -36.589482,-28.736792 -36.747838,-28.734996 C -36.910015,-28.735381 -37.058234,-28.671375 -37.159743,-28.567799 C -37.263631,-28.461742 -37.331303,-28.311579 -37.329981,-28.144995" />
      <path d="M -34.66499,-26.869995 L -34.66499,-29.435002 L -33.759977,-29.435002 L -33.759977,-28.335002 C -33.760863,-28.071873 -33.69413,-27.854241 -33.543157,-27.728146 C -33.448689,-27.650493 -33.328507,-27.608236 -33.18261,-27.601374 C -33.026948,-27.592908 -32.874793,-27.621962 -32.73999,-27.689998 L -32.73999,-26.825008 C -32.814897,-26.810441 -32.86957,-26.816126 -32.917333,-26.815001 C -33.092247,-26.815311 -33.246667,-26.851581 -33.380592,-26.923809 C -33.531333,-27.005786 -33.657795,-27.127849 -33.759977,-27.289998 L -33.759977,-26.869995 L -34.66499,-26.869995" />
      <path d="M -6.65,-28.0 A 5.8,5.8 0.0 0,1 -18.25,-28.0 A 5.8,5.8 0.0 0,1 -6.65,-28.0 M -13.934683,-28.812 L -16.51,-28.812 L -16.51,-27.188 L -13.934683,-27.188 L -13.885427,-27.138744 L -15.607939,-25.416232 L -15.033768,-24.842061 L -13.311256,-26.564573 L -13.262,-26.515317 L -13.262,-23.94 L -11.638,-23.94 L -11.638,-26.515317 L -11.588744,-26.564573 L -9.866232,-24.842061 L -9.292061,-25.416232 L -11.014573,-27.138744 L -10.965317,-27.188 L -8.39,-27.188 L -8.39,-28.812 L -10.965317,-28.812 L -11.014573,-28.861256 L -9.292061,-30.583768 L -9.866232,-31.157939 L -11.588744,-29.435427 L -11.638,-29.484683 L -11.638,-32.06 L -13.262,-32.06 L -13.262,-29.484683 L -13.311256,-29.435427 L -15.033768,-31.157939 L -15.607939,-30.583768 L -13.885427,-28.861256 L -13.934683,-28.812" />
      <path d="M 19.240007,-25.877498 L 18.334993,-25.877498 L 18.334993,-30.027498 L 19.240007,-30.027498 L 19.240007,-25.877498" />
      <path d="M 19.759993,-28.722502 C 19.759437,-28.934533 19.799579,-29.129361 19.88042,-29.306985 C 19.958684,-29.478267 20.06685,-29.625504 20.204918,-29.748696 C 20.341931,-29.870146 20.502616,-29.962822 20.686975,-30.026725 C 20.896107,-30.099914 21.127409,-30.13003 21.367369,-30.120963 C 21.582961,-30.113107 21.784884,-30.072177 21.973138,-29.998174 C 22.152384,-29.92782 22.307014,-29.830355 22.437028,-29.705779 C 22.56126,-29.586444 22.6592,-29.446739 22.730847,-29.286664 C 22.812703,-29.103825 22.847665,-28.897975 22.83866,-28.682107 C 22.831423,-28.501584 22.791971,-28.334148 22.720303,-28.179799 C 22.628819,-27.983936 22.495949,-27.820371 22.321694,-27.689103 C 22.197344,-27.595484 22.057108,-27.521075 21.900986,-27.465875 C 21.690574,-27.390982 21.458686,-27.359798 21.21869,-27.369081 C 21.023966,-27.376392 20.841299,-27.412345 20.670687,-27.47694 C 20.48647,-27.54651 20.326003,-27.642569 20.189288,-27.765118 C 20.058734,-27.882648 19.95587,-28.02024 19.880697,-28.177894 C 19.800055,-28.347204 19.75982,-28.52874 19.759993,-28.722502 M 20.715007,-28.732495 C 20.713178,-28.573116 20.786417,-28.426987 20.888915,-28.321047 C 20.990715,-28.215981 21.143143,-28.15133 21.300453,-28.152498 C 21.464446,-28.151617 21.622203,-28.221755 21.724158,-28.334875 C 21.819616,-28.439415 21.887137,-28.586064 21.884993,-28.738398 C 21.886466,-28.909281 21.809054,-29.062533 21.70098,-29.169031 C 21.59972,-29.267962 21.45171,-29.328693 21.299565,-29.327498 C 21.136015,-29.328382 20.978601,-29.258636 20.876576,-29.145921 C 20.780839,-29.040733 20.713043,-28.898381 20.715007,-28.732495" />
      <path d="M 24.38501,-28.217505 L 24.9,-28.217505 L 24.9,-27.462492 L 24.38501,-27.462492 L 24.38501,-26.692505 L 23.480013,-26.692505 L 23.480013,-27.462492 L 23.180013,-27.462492 L 23.180013,-28.217505 L 23.480013,-28.217505 L 23.480013,-30.027498 L 24.38501,-30.027498 L 24.38501,-28.217505" />
      <path d="M 17.48999,-28.122502 L 17.795003,-27.532495 C 17.630647,-27.46457 17.462043,-27.417504 17.289191,-27.391299 C 17.102482,-27.363199 16.90377,-27.359182 16.724882,-27.383343 C 16.41487,-27.425786 16.149265,-27.554262 15.991971,-27.764307 C 15.881737,-27.910082 15.824223,-28.094399 15.825001,-28.295749 C 15.824648,-28.378329 15.834709,-28.454739 15.855182,-28.524979 C 15.882633,-28.618519 15.929612,-28.698054 15.99612,-28.763586 C 16.120465,-28.885299 16.334781,-28.962915 16.579997,-29.012492 C 16.737041,-29.044507 16.835063,-29.069474 16.891592,-29.104528 C 16.923551,-29.124621 16.943998,-29.146833 16.952934,-29.171164 C 16.960909,-29.192504 16.964928,-29.219342 16.964989,-29.251679 C 16.96508,-29.271748 16.961835,-29.29057 16.955256,-29.308146 C 16.939477,-29.349296 16.906596,-29.383096 16.856613,-29.409547 C 16.80899,-29.434348 16.751552,-29.446994 16.6843,-29.447485 C 16.638355,-29.447714 16.591869,-29.444374 16.544843,-29.437464 C 16.357716,-29.409758 16.162766,-29.326434 15.959993,-29.187492 L 15.629997,-29.827498 C 15.952693,-30.017046 16.303608,-30.124259 16.658999,-30.122498 C 17.013821,-30.123267 17.351306,-30.025863 17.577942,-29.829997 C 17.665914,-29.753563 17.735817,-29.662616 17.787649,-29.557155 C 17.846174,-29.436183 17.87529,-29.303806 17.874997,-29.160025 C 17.875323,-29.09027 17.86776,-29.023777 17.852308,-28.960546 C 17.824029,-28.845856 17.76899,-28.746373 17.687191,-28.662096 C 17.554872,-28.525508 17.355275,-28.442223 17.129997,-28.397502 C 17.039506,-28.377402 16.966192,-28.360536 16.910053,-28.346905 C 16.806898,-28.32218 16.75572,-28.289778 16.735415,-28.25567 C 16.725019,-28.236513 16.719882,-28.21038 16.720003,-28.177271 C 16.720074,-28.124606 16.742473,-28.082033 16.7872,-28.049554 C 16.847231,-28.005509 16.934843,-27.987587 17.040796,-27.993441 C 17.187971,-28.00024 17.337702,-28.04326 17.48999,-28.122502" />
      <path d="M 43.092879,-27.188 A 5.8,5.8 0.0 0,1 31.607121,-27.188 L 43.092879,-27.188" />
      <path d="M 31.607121,-28.812 A 5.8,5.8 0.0 0,1 43.092879,-28.812 L 31.607121,-28.812" />
      <path d="M -35.924984,-40.124992 L -36.829997,-40.124992 L -36.829997,-41.744995 C -36.834264,-42.091304 -36.703317,-42.392891 -36.433482,-42.563018 C -36.179781,-42.728448 -35.831348,-42.785056 -35.46499,-42.785002 C -35.098632,-42.785056 -34.750199,-42.728448 -34.496499,-42.563018 C -34.226664,-42.392892 -34.095717,-42.091304 -34.099984,-41.744995 L -34.099984,-40.124992 L -35.004997,-40.124992 L -35.004997,-41.569995 C -35.004419,-41.719255 -35.040741,-41.850789 -35.127473,-41.933724 C -35.207355,-42.011991 -35.328112,-42.045487 -35.46499,-42.044995 C -35.601868,-42.045487 -35.722625,-42.011991 -35.802508,-41.933724 C -35.88924,-41.850789 -35.925562,-41.719255 -35.924984,-41.569995 L -35.924984,-40.124992" />
      <path d="M -31.504981,-40.124992 L -31.504981,-40.380005 C -31.696008,-40.174013 -31.950416,-40.058803 -32.234036,-40.046615 C -32.442967,-40.03687 -32.646145,-40.071431 -32.825012,-40.154809 C -32.998694,-40.235032 -33.145969,-40.347716 -33.266838,-40.492861 C -33.470653,-40.737555 -33.587302,-41.067219 -33.584993,-41.401282 C -33.585505,-41.595488 -33.552401,-41.778265 -33.485682,-41.949614 C -33.367624,-42.254085 -33.144626,-42.502864 -32.860751,-42.641598 C -32.686365,-42.727601 -32.496628,-42.770399 -32.29154,-42.769994 C -32.242237,-42.770067 -32.194169,-42.767378 -32.147338,-42.761928 C -31.888425,-42.733339 -31.665434,-42.609595 -31.504981,-42.405005 L -31.504981,-42.689998 L -30.594987,-42.689998 L -30.594987,-40.124992 L -31.504981,-40.124992 M -32.644987,-41.399992 C -32.646371,-41.242913 -32.581171,-41.104538 -32.481228,-40.998895 C -32.37885,-40.890701 -32.227026,-40.824021 -32.06038,-40.824992 C -31.896321,-40.823888 -31.7385,-40.893813 -31.636377,-41.006771 C -31.540803,-41.111176 -31.473087,-41.257719 -31.474984,-41.410002 C -31.473151,-41.569344 -31.546391,-41.715476 -31.648879,-41.821428 C -31.750666,-41.926504 -31.903092,-41.991147 -32.06038,-41.989998 C -32.219153,-41.991024 -32.364966,-41.930157 -32.466519,-41.83099 C -32.575301,-41.724343 -32.646262,-41.57086 -32.644987,-41.399992" />
      <path d="M -29.979997,-40.124992 L -29.979997,-42.689998 L -29.074984,-42.689998 L -29.074984,-41.589998 C -29.075869,-41.32687 -29.009137,-41.109237 -28.858164,-40.983143 C -28.763696,-40.90549 -28.643513,-40.863232 -28.497616,-40.856371 C -28.341955,-40.847905 -28.1898,-40.876959 -28.054997,-40.944995 L -28.054997,-40.080005 C -28.129904,-40.065437 -28.184577,-40.071123 -28.232339,-40.069997 C -28.407254,-40.070308 -28.561674,-40.106577 -28.695599,-40.178806 C -28.84634,-40.260783 -28.972802,-40.382846 -29.074984,-40.544995 L -29.074984,-40.124992 L -29.979997,-40.124992" />
      <path d="M -26.804997,-41.560002 L -24.9,-41.560002 L -24.9,-41.464998 C -24.898028,-41.036693 -25.02459,-40.658795 -25.272512,-40.407415 C -25.515489,-40.15737 -25.880097,-40.028147 -26.294196,-40.030005 C -26.720291,-40.027433 -27.086385,-40.161315 -27.336966,-40.406913 C -27.586041,-40.64911 -27.722102,-41.008844 -27.720002,-41.418 C -27.723324,-41.824785 -27.573719,-42.175479 -27.309132,-42.417751 C -27.064088,-42.643661 -26.714244,-42.77271 -26.329605,-42.783863 C -25.89896,-42.79694 -25.529052,-42.699521 -25.277502,-42.471184 C -25.118396,-42.326757 -25.004226,-42.138031 -24.934994,-41.905005 L -25.809994,-41.905005 C -25.854833,-41.977142 -25.910402,-42.033416 -25.976702,-42.073826 C -26.056772,-42.121651 -26.149472,-42.145374 -26.254803,-42.144995 C -26.304896,-42.145054 -26.3521,-42.141336 -26.396414,-42.133839 C -26.499855,-42.116608 -26.584542,-42.077261 -26.650474,-42.015796 C -26.757067,-41.916244 -26.805496,-41.756261 -26.804997,-41.560002 M -25.745003,-41.035002 L -26.779997,-41.035002 Q -26.745969,-40.837471 -26.61363,-40.725941 Q -26.478786,-40.61442 -26.270311,-40.614998 Q -26.070508,-40.614572 -25.928958,-40.730852 Q -25.789383,-40.846505 -25.745003,-41.035002" />
      <path d="M -41.26499,-40.785002 L -40.959977,-40.194995 C -41.124333,-40.12707 -41.292937,-40.080005 -41.465789,-40.053799 C -41.652499,-40.025699 -41.85121,-40.021682 -42.030099,-40.045843 C -42.34011,-40.088286 -42.605716,-40.216762 -42.76301,-40.426807 C -42.873244,-40.572583 -42.930757,-40.756899 -42.929979,-40.95825 C -42.930332,-41.040829 -42.920272,-41.117239 -42.899799,-41.187479 C -42.872348,-41.281019 -42.825369,-41.360554 -42.758861,-41.426086 C -42.634516,-41.547799 -42.420199,-41.625415 -42.174984,-41.674992 C -42.017939,-41.707007 -41.919917,-41.731974 -41.863389,-41.767028 C -41.83143,-41.787121 -41.810983,-41.809333 -41.802047,-41.833664 C -41.794071,-41.855004 -41.790053,-41.881842 -41.789991,-41.914179 C -41.789901,-41.934248 -41.793145,-41.95307 -41.799725,-41.970646 C -41.815503,-42.011796 -41.848384,-42.045596 -41.898367,-42.072047 C -41.945991,-42.096848 -42.003429,-42.109494 -42.070681,-42.109985 C -42.116626,-42.110214 -42.163112,-42.106874 -42.210138,-42.099964 C -42.397264,-42.072258 -42.592214,-41.988934 -42.794987,-41.849992 L -43.124984,-42.489998 C -42.802287,-42.679546 -42.451373,-42.786759 -42.095982,-42.784998 C -41.741159,-42.785767 -41.403675,-42.688363 -41.177039,-42.492497 C -41.089066,-42.416063 -41.019164,-42.325116 -40.967331,-42.219655 C -40.908807,-42.098683 -40.879691,-41.966306 -40.879983,-41.822525 C -40.879658,-41.75277 -40.887221,-41.686277 -40.902672,-41.623047 C -40.930952,-41.508356 -40.985991,-41.408873 -41.067789,-41.324596 C -41.200109,-41.188008 -41.399705,-41.104723 -41.624984,-41.060002 C -41.715474,-41.039902 -41.788789,-41.023036 -41.844928,-41.009405 C -41.948083,-40.98468 -41.999261,-40.952278 -42.019566,-40.91817 C -42.029962,-40.899013 -42.035099,-40.87288 -42.034977,-40.839772 C -42.034907,-40.787106 -42.012508,-40.744533 -41.96778,-40.712054 C -41.90775,-40.668009 -41.820138,-40.650087 -41.714184,-40.655941 C -41.56701,-40.66274 -41.417278,-40.70576 -41.26499,-40.785002" />
      <path d="M -38.439974,-43.969995 L -37.529981,-43.969995 L -37.529981,-40.124992 L -38.439974,-40.124992 L -38.439974,-40.410002 C -38.615335,-40.184949 -38.86966,-40.05874 -39.159556,-40.046635 C -39.363169,-40.036783 -39.562928,-40.071325 -39.741591,-40.152973 C -40.036446,-40.284832 -40.270581,-40.527851 -40.401178,-40.830057 C -40.480888,-41.01249 -40.520492,-41.207158 -40.519987,-41.414059 C -40.520445,-41.60079 -40.487353,-41.778429 -40.420712,-41.946978 C -40.297526,-42.261134 -40.064807,-42.518642 -39.763666,-42.656477 C -39.562053,-42.751951 -39.327769,-42.786151 -39.099379,-42.763071 C -38.844242,-42.73779 -38.615494,-42.625981 -38.439974,-42.439998 L -38.439974,-43.969995 M -39.579981,-41.399992 C -39.581887,-41.243123 -39.510999,-41.105022 -39.411736,-40.99943 C -39.310176,-40.891269 -39.156082,-40.824394 -38.996601,-40.824994 C -38.842095,-40.823507 -38.692067,-40.885718 -38.590426,-40.986962 C -38.484163,-41.093624 -38.408061,-41.242592 -38.409978,-41.405526 C -38.408442,-41.569308 -38.485793,-41.72532 -38.593724,-41.831265 C -38.695547,-41.930894 -38.844628,-41.991781 -38.997771,-41.989993 C -39.159963,-41.990395 -39.3082,-41.926395 -39.409722,-41.822817 C -39.513622,-41.716758 -39.581303,-41.566587 -39.579981,-41.399992" />
      <path d="M -6.65,-42.0 A 5.8,5.8 0.0 0,1 -18.25,-42.0 A 5.8,5.8 0.0 0,1 -6.65,-42.0 M -9.004976,-42.0 L -12.45,-45.445024 L -15.895024,-42.0 L -12.45,-38.554976 L -9.004976,-42.0" />
      <path d="M 15.534993,-42.314998 C 15.534437,-42.52703 15.574579,-42.721857 15.65542,-42.899482 C 15.733684,-43.070764 15.84185,-43.218001 15.979918,-43.341193 C 16.116931,-43.462643 16.277616,-43.555319 16.461975,-43.619221 C 16.671107,-43.69241 16.902409,-43.722527 17.142369,-43.71346 C 17.357961,-43.705603 17.559884,-43.664674 17.748138,-43.590671 C 17.927384,-43.520317 18.082014,-43.422852 18.212028,-43.298275 C 18.33626,-43.178941 18.4342,-43.039236 18.505847,-42.879161 C 18.587703,-42.696322 18.622665,-42.490472 18.61366,-42.274604 C 18.606423,-42.094081 18.566971,-41.926645 18.495303,-41.772295 C 18.403819,-41.576433 18.270949,-41.412868 18.096694,-41.2816 C 17.972344,-41.187981 17.832108,-41.113571 17.675986,-41.058372 C 17.465574,-40.983479 17.233686,-40.952295 16.99369,-40.961578 C 16.798966,-40.968889 16.616299,-41.004842 16.445687,-41.069437 C 16.26147,-41.139007 16.101003,-41.235066 15.964288,-41.357615 C 15.833734,-41.475145 15.73087,-41.612737 15.655697,-41.770391 C 15.575055,-41.939701 15.53482,-42.121237 15.534993,-42.314998 M 16.490007,-42.324992 C 16.488178,-42.165613 16.561417,-42.019483 16.663915,-41.913543 C 16.765715,-41.808477 16.918143,-41.743826 17.075453,-41.744995 C 17.239446,-41.744113 17.397203,-41.814251 17.499158,-41.927372 C 17.594616,-42.031911 17.662137,-42.178561 17.659993,-42.330895 C 17.661466,-42.501778 17.584054,-42.65503 17.47598,-42.761527 C 17.37472,-42.860459 17.22671,-42.92119 17.074565,-42.919995 C 16.911015,-42.920879 16.753601,-42.851133 16.651576,-42.738418 C 16.555839,-42.63323 16.488043,-42.490878 16.490007,-42.324992" />
      <path d="M 19.134993,-41.054989 L 19.134993,-43.619995 L 20.040007,-43.619995 L 20.040007,-42.519995 C 20.039121,-42.256867 20.105853,-42.039234 20.256827,-41.91314 C 20.351294,-41.835486 20.471477,-41.793229 20.617374,-41.786368 C 20.773036,-41.777901 20.925191,-41.806956 21.059993,-41.874992 L 21.059993,-41.010002 C 20.985087,-40.995434 20.930413,-41.00112 20.882651,-40.999994 C 20.707737,-41.000304 20.553317,-41.036574 20.419391,-41.108803 C 20.26865,-41.19078 20.142189,-41.312843 20.040007,-41.474992 L 20.040007,-41.054989 L 19.134993,-41.054989" />
      <path d="M 22.470003,-42.229989 L 21.190007,-43.619995 L 22.38501,-43.619995 L 23.045003,-42.860002 L 23.7,-43.619995 L 24.9,-43.619995 L 23.615007,-42.229989 L 24.680013,-41.054989 L 23.5,-41.054989 L 23.05,-41.585002 L 22.61001,-41.054989 L 21.430013,-41.054989 L 22.470003,-42.229989" />
      <path d="M 14.734993,-41.810002 L 15.249984,-41.810002 L 15.249984,-41.054989 L 14.734993,-41.054989 L 14.734993,-40.285002 L 13.829997,-40.285002 L 13.829997,-41.054989 L 13.529997,-41.054989 L 13.529997,-41.810002 L 13.829997,-41.810002 L 13.829997,-43.619995 L 14.734993,-43.619995 L 14.734993,-41.810002" />
      <path d="M 43.15,-42.0 A 5.8,5.8 0.0 0,1 31.55,-42.0 A 5.8,5.8 0.0 0,1 43.15,-42.0 M 40.253618,-41.228366 A 3.0043999999999995,3.0043999999999995 0.0 0,0 40.253681,-41.2286 L 40.6792,-41.2286 A 0.7714,0.7714 180.0 0,0 40.6792,-42.7714 L 40.253681,-42.7714 A 3.0043999999999995,3.0043999999999995 0.0 0,0 40.253618,-42.771634 A 0.8931999999999999,0.8931999999999999 -30.00000000000003 0,1 39.470064,-44.12879 A 3.0043999999999995,3.0043999999999995 0.0 0,0 39.469892,-44.128961 L 39.682652,-44.497472 A 0.7714000030490012,0.7714000030490012 119.99999999999999 0,0 38.346548,-45.268872 L 38.133788,-44.900361 A 3.0043999999999995,3.0043999999999995 0.0 0,0 38.133555,-44.900424 A 0.8931999999999999,0.8931999999999999 -90.00000000000001 0,1 36.566445,-44.900424 A 3.0043999999999995,3.0043999999999995 0.0 0,0 36.566212,-44.900361 L 36.353452,-45.268872 A 0.7714000030490014,0.7714000030490014 59.99999999999997 0,0 35.017348,-44.497472 L 35.230108,-44.128961 A 3.0043999999999995,3.0043999999999995 0.0 0,0 35.229936,-44.12879 A 0.8931999999999999,0.8931999999999999 -149.99999999999997 0,1 34.446382,-42.771634 A 3.0043999999999995,3.0043999999999995 0.0 0,0 34.446319,-42.7714 L 34.0208,-42.7714 A 0.7714,0.7714 0.0 0,0 34.0208,-41.2286 L 34.446319,-41.2286 A 3.0043999999999995,3.0043999999999995 0.0 0,0 34.446382,-41.228366 A 0.8931999999999999,0.8931999999999999 150.0 0,1 35.229936,-39.87121 A 3.0043999999999995,3.0043999999999995 0.0 0,0 35.230108,-39.871039 L 35.017348,-39.502528 A 0.7714000030490012,0.7714000030490012 -60.00000000000002 0,0 36.353452,-38.731128 L 36.566212,-39.099639 A 3.0043999999999995,3.0043999999999995 0.0 0,0 36.566445,-39.099576 A 0.8931999999999999,0.8931999999999999 90.0 0,1 38.133555,-39.099576 A 3.0043999999999995,3.0043999999999995 0.0 0,0 38.133788,-39.099639 L 38.346548,-38.731128 A 0.7714000030490014,0.7714000030490014 -120.00000000000004 0,0 39.682652,-39.502528 L 39.469892,-39.871039 A 3.0043999999999995,3.0043999999999995 0.0 0,0 39.470064,-39.87121 A 0.8931999999999999,0.8931999999999999 29.999999999999993 0,1 40.253618,-41.228366" />
      <path d="M -36.040007,-54.86499 L -36.040007,-57.429997 L -35.134994,-57.429997 L -35.134994,-56.059993 C -35.136045,-55.891486 -35.09423,-55.759562 -35.009549,-55.664221 C -34.926157,-55.574168 -34.809829,-55.529426 -34.660564,-55.529997 C -34.547527,-55.530685 -34.442568,-55.559523 -34.363321,-55.641689 C -34.316224,-55.690186 -34.284024,-55.753255 -34.266719,-55.830897 C -34.248252,-55.916432 -34.239348,-56.017797 -34.240007,-56.134993 L -34.240007,-57.429997 L -33.334994,-57.429997 L -33.334994,-55.8 Q -33.334739,-55.598192 -33.374681,-55.436282 Q -33.414696,-55.27529 -33.525,-55.145003 Q -33.661107,-54.983754 -33.855278,-54.896236 Q -34.051996,-54.80913 -34.314394,-54.809994 Q -34.567048,-54.809096 -34.762902,-54.888684 Q -34.958403,-54.972439 -35.134994,-55.18999 L -35.134994,-54.86499 L -36.040007,-54.86499" />
      <path d="M -29.85,-54.86499 L -30.754997,-54.86499 L -30.754997,-55.134993 C -30.944501,-54.924135 -31.194991,-54.804522 -31.47435,-54.795873 C -31.678215,-54.788625 -31.868814,-54.825483 -32.046147,-54.906448 C -32.341584,-55.040337 -32.568771,-55.285183 -32.699593,-55.588365 C -32.780606,-55.774124 -32.820742,-55.973374 -32.820003,-56.186117 C -32.820763,-56.377264 -32.788843,-56.555485 -32.724243,-56.720779 C -32.609661,-57.015266 -32.389311,-57.244054 -32.105676,-57.369636 C -31.939809,-57.44357 -31.760527,-57.480356 -31.56783,-57.479994 C -31.505269,-57.480153 -31.445552,-57.476871 -31.388679,-57.470147 C -31.15149,-57.443336 -30.956747,-57.336186 -30.754997,-57.145003 L -30.754997,-57.38999 C -30.753757,-57.574906 -30.803971,-57.72259 -30.905638,-57.833043 C -31.008443,-57.939596 -31.150191,-57.99355 -31.330883,-57.994904 C -31.552401,-58.000228 -31.712147,-57.915458 -31.775,-57.73999 L -32.795003,-57.73999 C -32.742812,-58.021179 -32.572077,-58.266852 -32.32322,-58.440504 C -32.084311,-58.60717 -31.766339,-58.70953 -31.411506,-58.718916 C -31.219307,-58.725106 -31.038104,-58.707214 -30.867898,-58.665242 C -30.716879,-58.627362 -30.579901,-58.573858 -30.456963,-58.504732 C -30.213456,-58.367822 -30.02649,-58.166728 -29.945003,-57.93999 Q -29.851353,-57.674209 -29.85,-57.254997 L -29.85,-54.86499 M -31.879997,-56.134993 C -31.88165,-55.983173 -31.815729,-55.841464 -31.717808,-55.7403 C -31.610547,-55.631126 -31.459307,-55.552852 -31.293565,-55.554998 C -31.140859,-55.554402 -30.985742,-55.621199 -30.881183,-55.728844 C -30.778413,-55.834301 -30.708758,-55.975549 -30.709996,-56.138384 C -30.707846,-56.303528 -30.785751,-56.460786 -30.894818,-56.567312 C -31.002072,-56.671777 -31.160898,-56.732637 -31.321987,-56.724468 C -31.474319,-56.719142 -31.613352,-56.656172 -31.709742,-56.557814 C -31.813681,-56.451722 -31.881326,-56.301496 -31.879997,-56.134993" />
      <path d="M -28.23999,-53.279997 L -29.145003,-53.279997 L -29.145003,-57.429997 L -28.23999,-57.429997 L -28.23999,-53.279997" />
      <path d="M -26.804997,-56.3 L -24.9,-56.3 L -24.9,-56.204997 C -24.898028,-55.776691 -25.02459,-55.398793 -25.272512,-55.147413 C -25.515489,-54.897368 -25.880097,-54.768145 -26.294196,-54.770003 C -26.720291,-54.767431 -27.086385,-54.901314 -27.336966,-55.146911 C -27.586041,-55.389108 -27.722102,-55.748842 -27.720002,-56.157998 C -27.723324,-56.564784 -27.573719,-56.915477 -27.309132,-57.157749 C -27.064088,-57.383659 -26.714244,-57.512708 -26.329605,-57.523861 C -25.89896,-57.536939 -25.529052,-57.439519 -25.277502,-57.211182 C -25.118396,-57.066756 -25.004226,-56.878029 -24.934994,-56.645003 L -25.809994,-56.645003 C -25.854833,-56.71714 -25.910402,-56.773414 -25.976702,-56.813825 C -26.056772,-56.86165 -26.149472,-56.885372 -26.254803,-56.884993 C -26.304896,-56.885053 -26.3521,-56.881334 -26.396414,-56.873837 C -26.499855,-56.856607 -26.584542,-56.817259 -26.650474,-56.755794 C -26.757067,-56.656242 -26.805496,-56.496259 -26.804997,-56.3 M -25.745003,-55.775 L -26.779997,-55.775 Q -26.745969,-55.57747 -26.61363,-55.46594 Q -26.478786,-55.354418 -26.270311,-55.354997 Q -26.070508,-55.35457 -25.928958,-55.470851 Q -25.789383,-55.586504 -25.745003,-55.775" />
      <path d="M -44.254997,-55.620003 L -43.740007,-55.620003 L -43.740007,-54.86499 L -44.254997,-54.86499 L -44.254997,-54.095003 L -45.159994,-54.095003 L -45.159994,-54.86499 L -45.459994,-54.86499 L -45.459994,-55.620003 L -45.159994,-55.620003 L -45.159994,-57.429997 L -44.254997,-57.429997 L -44.254997,-55.620003" />
      <path d="M -43.4,-54.86499 L -43.4,-57.429997 L -42.494987,-57.429997 L -42.494987,-56.329997 C -42.495873,-56.066868 -42.42914,-55.849236 -42.278167,-55.723141 C -42.183699,-55.645488 -42.063517,-55.603231 -41.917619,-55.596369 C -41.761958,-55.587903 -41.609803,-55.616957 -41.475,-55.684993 L -41.475,-54.820003 C -41.549907,-54.805436 -41.60458,-54.811122 -41.652343,-54.809996 C -41.827257,-54.810306 -41.981677,-54.846576 -42.115602,-54.918805 C -42.266343,-55.000781 -42.392805,-55.122844 -42.494987,-55.284993 L -42.494987,-54.86499 L -43.4,-54.86499" />
      <path d="M -40.16499,-54.86499 L -41.070003,-54.86499 L -41.070003,-57.429997 L -40.16499,-57.429997 L -40.16499,-54.86499" />
      <path d="M -41.129997,-53.879997 C -41.131372,-53.601444 -40.898583,-53.368593 -40.619938,-53.370003 C -40.341409,-53.368636 -40.108593,-53.601476 -40.109994,-53.879997 C -40.108594,-54.158523 -40.341414,-54.391358 -40.619938,-54.38999 C -40.89852,-54.391421 -41.131395,-54.158557 -41.129997,-53.879997" />
      <path d="M -37.56499,-54.86499 L -37.56499,-55.120003 C -37.756018,-54.914011 -38.010425,-54.798801 -38.294046,-54.786613 C -38.502977,-54.776869 -38.706155,-54.811429 -38.885022,-54.894808 C -39.058704,-54.975031 -39.205979,-55.087714 -39.326848,-55.23286 C -39.530662,-55.477553 -39.647312,-55.807217 -39.645003,-56.14128 C -39.645515,-56.335486 -39.612411,-56.518263 -39.545692,-56.689612 C -39.427634,-56.994083 -39.204636,-57.242862 -38.92076,-57.381596 C -38.746375,-57.467599 -38.556638,-57.510398 -38.35155,-57.509993 C -38.302246,-57.510065 -38.254179,-57.507376 -38.207348,-57.501926 C -37.948435,-57.473337 -37.725444,-57.349593 -37.56499,-57.145003 L -37.56499,-57.429997 L -36.654997,-57.429997 L -36.654997,-54.86499 L -37.56499,-54.86499 M -38.704997,-56.13999 C -38.706381,-55.982911 -38.64118,-55.844536 -38.541238,-55.738894 C -38.43886,-55.630699 -38.287036,-55.564019 -38.12039,-55.56499 C -37.95633,-55.563886 -37.79851,-55.633812 -37.696386,-55.746769 C -37.600812,-55.851174 -37.533097,-55.997717 -37.534994,-56.15 C -37.533161,-56.309342 -37.606401,-56.455475 -37.708888,-56.561426 C -37.810676,-56.666502 -37.963102,-56.731145 -38.12039,-56.729997 C -38.279162,-56.731023 -38.424976,-56.670155 -38.526529,-56.570989 C -38.635311,-56.464341 -38.706271,-56.310858 -38.704997,-56.13999" />
      <path d="M -6.65,-56.0 A 5.8,5.8 0.0 0,1 -18.25,-56.0 A 5.8,5.8 0.0 0,1 -6.65,-56.0 M -8.593,-58.22684 L -16.307,-58.22684 L -12.45,-51.54632 L -8.593,-58.22684" />
      <path d="M 23.337508,-54.86499 L 22.432511,-54.86499 L 22.432511,-55.134993 C 22.243007,-54.924135 21.992517,-54.804522 21.713158,-54.795873 C 21.509293,-54.788625 21.318694,-54.825483 21.141361,-54.906448 C 20.845925,-55.040337 20.618737,-55.285183 20.487915,-55.588365 C 20.406902,-55.774124 20.366766,-55.973374 20.367505,-56.186117 C 20.366745,-56.377264 20.398665,-56.555485 20.463265,-56.720779 C 20.577847,-57.015266 20.798197,-57.244054 21.081833,-57.369636 C 21.247699,-57.44357 21.426981,-57.480356 21.619679,-57.479994 C 21.68224,-57.480153 21.741957,-57.476871 21.79883,-57.470147 C 22.036019,-57.443336 22.230762,-57.336186 22.432511,-57.145003 L 22.432511,-57.38999 C 22.433751,-57.574906 22.383538,-57.72259 22.28187,-57.833043 C 22.179066,-57.939596 22.037317,-57.99355 21.856625,-57.994904 C 21.635108,-58.000228 21.475361,-57.915458 21.412508,-57.73999 L 20.392505,-57.73999 C 20.444696,-58.021179 20.615431,-58.266852 20.864288,-58.440504 C 21.103198,-58.60717 21.42117,-58.70953 21.776002,-58.718916 C 21.968201,-58.725106 22.149404,-58.707214 22.31961,-58.665242 C 22.470629,-58.627362 22.607607,-58.573858 22.730545,-58.504732 C 22.974052,-58.367822 23.161019,-58.166728 23.242505,-57.93999 Q 23.336156,-57.674209 23.337508,-57.254997 L 23.337508,-54.86499 M 21.307511,-56.134993 C 21.305858,-55.983173 21.37178,-55.841464 21.4697,-55.7403 C 21.576961,-55.631126 21.728201,-55.552852 21.893943,-55.554998 C 22.046649,-55.554402 22.201766,-55.621199 22.306325,-55.728844 C 22.409095,-55.834301 22.47875,-55.975549 22.477513,-56.138384 C 22.479663,-56.303528 22.401757,-56.460786 22.29269,-56.567312 C 22.185436,-56.671777 22.02661,-56.732637 21.865522,-56.724468 C 21.713189,-56.719142 21.574156,-56.656172 21.477766,-56.557814 C 21.373827,-56.451722 21.306182,-56.301496 21.307511,-56.134993" />
      <path d="M 24.947518,-53.279997 L 24.042505,-53.279997 L 24.042505,-57.429997 L 24.947518,-57.429997 L 24.947518,-53.279997" />
      <path d="M 26.382511,-56.3 L 28.287508,-56.3 L 28.287508,-56.204997 C 28.28948,-55.776691 28.162918,-55.398793 27.914996,-55.147413 C 27.672019,-54.897368 27.307412,-54.768145 26.893312,-54.770003 C 26.467217,-54.767431 26.101123,-54.901314 25.850542,-55.146911 C 25.601467,-55.389108 25.465407,-55.748842 25.467506,-56.157998 C 25.464184,-56.564784 25.61379,-56.915477 25.878376,-57.157749 C 26.12342,-57.383659 26.473264,-57.512708 26.857903,-57.523861 C 27.288548,-57.536939 27.658456,-57.439519 27.910006,-57.211182 C 28.069113,-57.066756 28.183282,-56.878029 28.252515,-56.645003 L 27.377515,-56.645003 C 27.332675,-56.71714 27.277106,-56.773414 27.210806,-56.813825 C 27.130736,-56.86165 27.038036,-56.885372 26.932706,-56.884993 C 26.882613,-56.885053 26.835409,-56.881334 26.791094,-56.873837 C 26.687653,-56.856607 26.602966,-56.817259 26.537034,-56.755794 C 26.430442,-56.656242 26.382012,-56.496259 26.382511,-56.3 M 27.442505,-55.775 L 26.407511,-55.775 Q 26.441539,-55.57747 26.573878,-55.46594 Q 26.708722,-55.354418 26.917198,-55.354997 Q 27.117001,-55.35457 27.258551,-55.470851 Q 27.398125,-55.586504 27.442505,-55.775" />
      <path d="M -1.527515,-55.525 L -1.222502,-54.934993 C -1.386857,-54.867068 -1.555462,-54.820003 -1.728314,-54.793797 C -1.915023,-54.765697 -2.113735,-54.76168 -2.292623,-54.785842 C -2.602635,-54.828284 -2.86824,-54.95676 -3.025534,-55.166805 C -3.135768,-55.312581 -3.193282,-55.496898 -3.192504,-55.698248 C -3.192856,-55.780828 -3.182796,-55.857237 -3.162323,-55.927477 C -3.134872,-56.021017 -3.087893,-56.100553 -3.021385,-56.166084 C -2.89704,-56.287797 -2.682723,-56.365413 -2.437508,-56.41499 C -2.280464,-56.447005 -2.182442,-56.471972 -2.125913,-56.507026 C -2.093954,-56.527119 -2.073507,-56.549331 -2.064571,-56.573662 C -2.056596,-56.595002 -2.052577,-56.621841 -2.052515,-56.654177 C -2.052425,-56.674246 -2.05567,-56.693068 -2.062249,-56.710644 C -2.078028,-56.751794 -2.110908,-56.785595 -2.160892,-56.812045 C -2.208515,-56.836846 -2.265953,-56.849492 -2.333205,-56.849984 C -2.37915,-56.850212 -2.425636,-56.846872 -2.472662,-56.839962 C -2.659789,-56.812256 -2.854738,-56.728932 -3.057511,-56.58999 L -3.387508,-57.229997 C -3.064812,-57.419544 -2.713897,-57.526757 -2.358506,-57.524996 C -2.003683,-57.525765 -1.666199,-57.428362 -1.439563,-57.232495 C -1.351591,-57.156062 -1.281688,-57.065114 -1.229856,-56.959653 C -1.171331,-56.838681 -1.142215,-56.706305 -1.142508,-56.562524 C -1.142182,-56.492769 -1.149745,-56.426276 -1.165197,-56.363045 C -1.193476,-56.248355 -1.248515,-56.148871 -1.330313,-56.064594 C -1.462633,-55.928007 -1.662229,-55.844721 -1.887508,-55.8 C -1.977999,-55.7799 -2.051313,-55.763035 -2.107452,-55.749403 C -2.210607,-55.724679 -2.261785,-55.692276 -2.28209,-55.658169 C -2.292486,-55.639011 -2.297623,-55.612878 -2.297501,-55.57977 C -2.297431,-55.527104 -2.275032,-55.484532 -2.230305,-55.452052 C -2.170274,-55.408007 -2.082662,-55.390085 -1.976708,-55.395939 C -1.829534,-55.402738 -1.679803,-55.445759 -1.527515,-55.525" />
      <path d="M 0.222502,-53.279997 L -0.682511,-53.279997 L -0.682511,-57.429997 L 0.222502,-57.429997 L 0.222502,-53.279997" />
      <path d="M 0.742489,-56.125 C 0.741932,-56.337031 0.782074,-56.531859 0.862916,-56.709484 C 0.941179,-56.880765 1.049345,-57.028002 1.187413,-57.151194 C 1.324426,-57.272644 1.485111,-57.36532 1.66947,-57.429223 C 1.878602,-57.502412 2.109904,-57.532528 2.349864,-57.523461 C 2.565456,-57.515605 2.767379,-57.474675 2.955633,-57.400672 C 3.134879,-57.330318 3.289509,-57.232853 3.419523,-57.108277 C 3.543755,-56.988942 3.641695,-56.849237 3.713342,-56.689163 C 3.795198,-56.506324 3.83016,-56.300473 3.821155,-56.084605 C 3.813918,-55.904083 3.774466,-55.736646 3.702799,-55.582297 C 3.611314,-55.386434 3.478444,-55.222869 3.304189,-55.091602 C 3.179839,-54.997982 3.039603,-54.923573 2.883482,-54.868374 C 2.673069,-54.79348 2.441181,-54.762296 2.201185,-54.77158 C 2.006461,-54.778891 1.823794,-54.814843 1.653182,-54.879438 C 1.468965,-54.949008 1.308498,-55.045068 1.171783,-55.167616 C 1.041229,-55.285147 0.938365,-55.422739 0.863192,-55.580392 C 0.78255,-55.749703 0.742315,-55.931238 0.742489,-56.125 M 1.697502,-56.134993 C 1.695673,-55.975614 1.768912,-55.829485 1.87141,-55.723545 C 1.97321,-55.618479 2.125638,-55.553828 2.282948,-55.554997 C 2.446942,-55.554115 2.604699,-55.624253 2.706653,-55.737374 C 2.802112,-55.841913 2.869633,-55.988562 2.867488,-56.140896 C 2.868961,-56.311779 2.79155,-56.465031 2.683476,-56.571529 C 2.582215,-56.67046 2.434206,-56.731191 2.28206,-56.729997 C 2.11851,-56.730881 1.961096,-56.661135 1.859071,-56.548419 C 1.763334,-56.443232 1.695538,-56.30088 1.697502,-56.134993" />
      <path d="M 5.367505,-55.620003 L 5.882495,-55.620003 L 5.882495,-54.86499 L 5.367505,-54.86499 L 5.367505,-54.095003 L 4.462508,-54.095003 L 4.462508,-54.86499 L 4.162508,-54.86499 L 4.162508,-55.620003 L 4.462508,-55.620003 L 4.462508,-57.429997 L 5.367505,-57.429997 L 5.367505,-55.620003" />
      <path d="M 6.502515,-56.475 L 5.852515,-58.129997 L 6.432511,-58.129997 L 7.352515,-56.475 L 6.502515,-56.475" />
      <path d="M 8.932511,-55.620003 L 9.447502,-55.620003 L 9.447502,-54.86499 L 8.932511,-54.86499 L 8.932511,-54.095003 L 8.027515,-54.095003 L 8.027515,-54.86499 L 7.727515,-54.86499 L 7.727515,-55.620003 L 8.027515,-55.620003 L 8.027515,-57.429997 L 8.932511,-57.429997 L 8.932511,-55.620003" />
      <path d="M 9.787508,-54.86499 L 9.787508,-57.429997 L 10.692521,-57.429997 L 10.692521,-56.329997 C 10.691636,-56.066868 10.758368,-55.849236 10.909341,-55.723141 C 11.003809,-55.645488 11.123992,-55.603231 11.269889,-55.596369 C 11.42555,-55.587903 11.577705,-55.616957 11.712508,-55.684993 L 11.712508,-54.820003 C 11.637601,-54.805436 11.582928,-54.811122 11.535165,-54.809996 C 11.360251,-54.810306 11.205831,-54.846576 11.071906,-54.918805 C 10.921165,-55.000781 10.794703,-55.122844 10.692521,-55.284993 L 10.692521,-54.86499 L 9.787508,-54.86499" />
      <path d="M 12.057511,-53.879997 C 12.056137,-53.601444 12.288925,-53.368593 12.56757,-53.370003 C 12.846099,-53.368636 13.078915,-53.601476 13.077515,-53.879997 C 13.078915,-54.158523 12.846094,-54.391358 12.56757,-54.38999 C 12.288988,-54.391421 12.056113,-54.158557 12.057511,-53.879997" />
      <path d="M 13.022518,-54.86499 L 12.117505,-54.86499 L 12.117505,-57.429997 L 13.022518,-57.429997 L 13.022518,-54.86499" />
      <path d="M 15.622518,-54.86499 L 15.622518,-55.120003 C 15.431491,-54.914011 15.177083,-54.798801 14.893462,-54.786613 C 14.684532,-54.776869 14.481354,-54.811429 14.302486,-54.894808 C 14.128804,-54.975031 13.981529,-55.087714 13.86066,-55.23286 C 13.656846,-55.477553 13.540197,-55.807217 13.542505,-56.14128 C 13.541994,-56.335486 13.575097,-56.518263 13.641817,-56.689612 C 13.759874,-56.994083 13.982873,-57.242862 14.266748,-57.381596 C 14.441134,-57.467599 14.63087,-57.510398 14.835959,-57.509993 C 14.885262,-57.510065 14.933329,-57.507376 14.980161,-57.501926 C 15.239073,-57.473337 15.462065,-57.349593 15.622518,-57.145003 L 15.622518,-57.429997 L 16.532511,-57.429997 L 16.532511,-54.86499 L 15.622518,-54.86499 M 14.482511,-56.13999 C 14.481128,-55.982911 14.546328,-55.844536 14.64627,-55.738894 C 14.748649,-55.630699 14.900472,-55.564019 15.067118,-55.56499 C 15.231178,-55.563886 15.388999,-55.633812 15.491122,-55.746769 C 15.586696,-55.851174 15.654411,-55.997717 15.652515,-56.15 C 15.654348,-56.309342 15.581108,-56.455475 15.47862,-56.561426 C 15.376832,-56.666502 15.224406,-56.731145 15.067118,-56.729997 C 14.908346,-56.731023 14.762532,-56.670155 14.660979,-56.570989 C 14.552197,-56.464341 14.481237,-56.310858 14.482511,-56.13999" />
      <path d="M 17.147502,-54.86499 L 17.147502,-57.429997 L 18.052515,-57.429997 L 18.052515,-56.059993 C 18.051463,-55.891486 18.093278,-55.759562 18.17796,-55.664221 C 18.261351,-55.574168 18.377679,-55.529426 18.526944,-55.529997 C 18.639981,-55.530685 18.74494,-55.559523 18.824188,-55.641689 C 18.871284,-55.690186 18.903485,-55.753255 18.920789,-55.830897 C 18.939256,-55.916432 18.948161,-56.017797 18.947502,-56.134993 L 18.947502,-57.429997 L 19.852515,-57.429997 L 19.852515,-55.8 Q 19.85277,-55.598192 19.812828,-55.436282 Q 19.772812,-55.27529 19.662508,-55.145003 Q 19.526401,-54.983754 19.33223,-54.896236 Q 19.135513,-54.80913 18.873115,-54.809994 Q 18.62046,-54.809096 18.424606,-54.888684 Q 18.229105,-54.972439 18.052515,-55.18999 L 18.052515,-54.86499 L 17.147502,-54.86499" />
      <path d="M 37.35,-51.54632 L 39.452525,-55.188 L 43.092879,-55.188 A 5.8,5.8 0.0 0,1 31.607121,-55.188 L 35.247475,-55.188 L 37.35,-51.54632" />
      <path d="M 31.607121,-56.812 A 5.8,5.8 0.0 0,1 43.092879,-56.812 L 40.390142,-56.812 L 41.207,-58.22684 L 33.493,-58.22684 L 34.309858,-56.812 L 31.607121,-56.812" />
      <path d="M -33.687484,-68.869995 L -34.592497,-68.869995 L -34.592497,-70.489998 C -34.596764,-70.836307 -34.465817,-71.137894 -34.195982,-71.308022 C -33.942281,-71.473451 -33.593848,-71.530059 -33.22749,-71.530005 C -32.861132,-71.530059 -32.512699,-71.473451 -32.258999,-71.308022 C -31.989164,-71.137895 -31.858217,-70.836308 -31.862484,-70.489998 L -31.862484,-68.869995 L -32.767497,-68.869995 L -32.767497,-70.314998 C -32.766919,-70.464258 -32.803241,-70.595792 -32.889973,-70.678727 C -32.969855,-70.756995 -33.090612,-70.790491 -33.22749,-70.789998 C -33.364368,-70.790491 -33.485125,-70.756995 -33.565008,-70.678727 C -33.65174,-70.595792 -33.688062,-70.464258 -33.687484,-70.314998 L -33.687484,-68.869995" />
      <path d="M -29.26748,-68.869995 L -29.26748,-69.125008 C -29.458508,-68.919016 -29.712916,-68.803806 -29.996536,-68.791618 C -30.205467,-68.781874 -30.408645,-68.816434 -30.587512,-68.899813 C -30.761194,-68.980035 -30.908469,-69.092719 -31.029338,-69.237865 C -31.233153,-69.482558 -31.349802,-69.812222 -31.347493,-70.146285 C -31.348005,-70.340491 -31.314901,-70.523268 -31.248182,-70.694617 C -31.130124,-70.999088 -30.907126,-71.247867 -30.62325,-71.386601 C -30.448865,-71.472604 -30.259128,-71.515403 -30.05404,-71.514998 C -30.004737,-71.51507 -29.956669,-71.512381 -29.909838,-71.506931 C -29.650925,-71.478342 -29.427934,-71.354598 -29.26748,-71.150008 L -29.26748,-71.435002 L -28.357487,-71.435002 L -28.357487,-68.869995 L -29.26748,-68.869995 M -30.407487,-70.144995 C -30.408871,-69.987916 -30.343671,-69.849541 -30.243728,-69.743898 C -30.14135,-69.635704 -29.989526,-69.569024 -29.82288,-69.569995 C -29.658821,-69.568891 -29.501,-69.638816 -29.398877,-69.751774 C -29.303303,-69.856179 -29.235587,-70.002722 -29.237484,-70.155005 C -29.235651,-70.314347 -29.308891,-70.46048 -29.411378,-70.566431 C -29.513166,-70.671507 -29.665592,-70.73615 -29.82288,-70.735001 C -29.981652,-70.736027 -30.127466,-70.67516 -30.229019,-70.575993 C -30.337801,-70.469346 -30.408762,-70.315863 -30.407487,-70.144995" />
      <path d="M -27.742497,-68.869995 L -27.742497,-71.435002 L -26.837484,-71.435002 L -26.837484,-70.335002 C -26.838369,-70.071873 -26.771637,-69.854241 -26.620664,-69.728146 C -26.526196,-69.650493 -26.406013,-69.608236 -26.260116,-69.601374 C -26.104455,-69.592908 -25.9523,-69.621962 -25.817497,-69.689998 L -25.817497,-68.825008 C -25.892404,-68.810441 -25.947077,-68.816126 -25.994839,-68.815 C -26.169754,-68.815311 -26.324173,-68.851581 -26.458099,-68.923809 C -26.60884,-69.005786 -26.735301,-69.127849 -26.837484,-69.289998 L -26.837484,-68.869995 L -27.742497,-68.869995" />
      <path d="M -24.567497,-70.305005 L -22.6625,-70.305005 L -22.6625,-70.210002 C -22.660528,-69.781696 -22.78709,-69.403798 -23.035012,-69.152418 C -23.277989,-68.902373 -23.642596,-68.77315 -24.056696,-68.775008 C -24.482791,-68.772436 -24.848885,-68.906319 -25.099466,-69.151916 C -25.348541,-69.394113 -25.484601,-69.753847 -25.482502,-70.163003 C -25.485824,-70.569788 -25.336218,-70.920482 -25.071632,-71.162754 C -24.826588,-71.388664 -24.476744,-71.517713 -24.092105,-71.528866 C -23.66146,-71.541943 -23.291552,-71.444524 -23.040002,-71.216187 C -22.880895,-71.071761 -22.766726,-70.883034 -22.697493,-70.650008 L -23.572493,-70.650008 C -23.617333,-70.722145 -23.672902,-70.778419 -23.739202,-70.81883 C -23.819272,-70.866654 -23.911972,-70.890377 -24.017303,-70.889998 C -24.067396,-70.890058 -24.114599,-70.886339 -24.158914,-70.878842 C -24.262355,-70.861611 -24.347042,-70.822264 -24.412974,-70.760799 C -24.519566,-70.661247 -24.567996,-70.501264 -24.567497,-70.305005 M -23.507503,-69.780005 L -24.542497,-69.780005 Q -24.508469,-69.582475 -24.37613,-69.470944 Q -24.241286,-69.359423 -24.032811,-69.360002 Q -23.833007,-69.359575 -23.691458,-69.475856 Q -23.551883,-69.591509 -23.507503,-69.780005" />
      <path d="M -50.177507,-69.530005 L -49.872493,-68.939998 C -50.036849,-68.872073 -50.205453,-68.825008 -50.378306,-68.798802 C -50.565015,-68.770702 -50.763727,-68.766685 -50.942615,-68.790846 C -51.252627,-68.833289 -51.518232,-68.961765 -51.675526,-69.17181 C -51.78576,-69.317586 -51.843274,-69.501902 -51.842495,-69.703253 C -51.842848,-69.785833 -51.832788,-69.862242 -51.812315,-69.932482 C -51.784864,-70.026022 -51.737885,-70.105558 -51.671377,-70.171089 C -51.547032,-70.292802 -51.332715,-70.370418 -51.0875,-70.419995 C -50.930456,-70.45201 -50.832433,-70.476977 -50.775905,-70.512031 C -50.743946,-70.532124 -50.723499,-70.554336 -50.714563,-70.578667 C -50.706588,-70.600007 -50.702569,-70.626846 -50.702507,-70.659182 C -50.702417,-70.679251 -50.705662,-70.698073 -50.712241,-70.715649 C -50.728019,-70.756799 -50.7609,-70.7906 -50.810883,-70.81705 C -50.858507,-70.841851 -50.915945,-70.854497 -50.983197,-70.854988 C -51.029142,-70.855217 -51.075628,-70.851877 -51.122654,-70.844967 C -51.309781,-70.817261 -51.50473,-70.733937 -51.707503,-70.594995 L -52.0375,-71.235002 C -51.714804,-71.424549 -51.363889,-71.531762 -51.008498,-71.530001 C -50.653675,-71.53077 -50.316191,-71.433367 -50.089555,-71.2375 C -50.001583,-71.161066 -49.93168,-71.070119 -49.879847,-70.964658 C -49.821323,-70.843686 -49.792207,-70.711309 -49.7925,-70.567529 C -49.792174,-70.497774 -49.799737,-70.431281 -49.815189,-70.36805 C -49.843468,-70.25336 -49.898507,-70.153876 -49.980305,-70.069599 C -50.112625,-69.933012 -50.312221,-69.849726 -50.5375,-69.805005 C -50.62799,-69.784905 -50.701305,-69.768039 -50.757444,-69.754408 C -50.860599,-69.729684 -50.911777,-69.697281 -50.932082,-69.663173 C -50.942478,-69.644016 -50.947615,-69.617883 -50.947493,-69.584775 C -50.947423,-69.532109 -50.925024,-69.489537 -50.880297,-69.457057 C -50.820266,-69.413012 -50.732654,-69.39509 -50.6267,-69.400944 C -50.479526,-69.407743 -50.329795,-69.450764 -50.177507,-69.530005" />
      <path d="M -48.42749,-67.285002 L -49.332503,-67.285002 L -49.332503,-71.435002 L -48.42749,-71.435002 L -48.42749,-67.285002" />
      <path d="M -47.907503,-70.130005 C -47.90806,-70.342036 -47.867918,-70.536864 -47.787076,-70.714488 C -47.708813,-70.88577 -47.600647,-71.033007 -47.462579,-71.156199 C -47.325566,-71.277649 -47.16488,-71.370325 -46.980522,-71.434228 C -46.77139,-71.507417 -46.540088,-71.537533 -46.300128,-71.528466 C -46.084536,-71.52061 -45.882613,-71.47968 -45.694359,-71.405677 C -45.515113,-71.335323 -45.360483,-71.237858 -45.230469,-71.113282 C -45.106236,-70.993947 -45.008297,-70.854242 -44.93665,-70.694168 C -44.854794,-70.511329 -44.819832,-70.305478 -44.828837,-70.08961 C -44.836073,-69.909087 -44.875526,-69.741651 -44.947193,-69.587302 C -45.038678,-69.391439 -45.171548,-69.227874 -45.345803,-69.096607 C -45.470153,-69.002987 -45.610389,-68.928578 -45.76651,-68.873379 C -45.976923,-68.798485 -46.208811,-68.767301 -46.448807,-68.776585 C -46.643531,-68.783895 -46.826198,-68.819848 -46.996809,-68.884443 C -47.181027,-68.954013 -47.341493,-69.050073 -47.478208,-69.172621 C -47.608763,-69.290152 -47.711627,-69.427744 -47.7868,-69.585397 C -47.867442,-69.754707 -47.907677,-69.936243 -47.907503,-70.130005 M -46.95249,-70.139998 C -46.954319,-69.980619 -46.88108,-69.83449 -46.778582,-69.72855 C -46.676782,-69.623484 -46.524353,-69.558833 -46.367044,-69.560002 C -46.20305,-69.55912 -46.045293,-69.629258 -45.943339,-69.742378 C -45.84788,-69.846918 -45.780359,-69.993567 -45.782504,-70.145901 C -45.78103,-70.316784 -45.858442,-70.470036 -45.966516,-70.576534 C -46.067777,-70.675465 -46.215786,-70.736196 -46.367932,-70.735001 C -46.531482,-70.735885 -46.688895,-70.666139 -46.790921,-70.553424 C -46.886658,-70.448236 -46.954454,-70.305884 -46.95249,-70.139998" />
      <path d="M -43.282487,-69.625008 L -42.767497,-69.625008 L -42.767497,-68.869995 L -43.282487,-68.869995 L -43.282487,-68.100008 L -44.187484,-68.100008 L -44.187484,-68.869995 L -44.487484,-68.869995 L -44.487484,-69.625008 L -44.187484,-69.625008 L -44.187484,-71.435002 L -43.282487,-71.435002 L -43.282487,-69.625008" />
      <path d="M -42.147477,-70.480005 L -42.797477,-72.135002 L -42.21748,-72.135002 L -41.297477,-70.480005 L -42.147477,-70.480005" />
      <path d="M -39.02749,-69.530005 L -38.722477,-68.939998 C -38.886833,-68.872073 -39.055437,-68.825008 -39.228289,-68.798802 C -39.414998,-68.770702 -39.61371,-68.766685 -39.792599,-68.790846 C -40.10261,-68.833289 -40.368215,-68.961765 -40.52551,-69.17181 C -40.635744,-69.317586 -40.693257,-69.501902 -40.692479,-69.703253 C -40.692832,-69.785833 -40.682772,-69.862242 -40.662299,-69.932482 C -40.634848,-70.026022 -40.587868,-70.105558 -40.521361,-70.171089 C -40.397016,-70.292802 -40.182699,-70.370418 -39.937484,-70.419995 C -39.780439,-70.45201 -39.682417,-70.476977 -39.625889,-70.512031 C -39.59393,-70.532124 -39.573482,-70.554336 -39.564547,-70.578667 C -39.556571,-70.600007 -39.552553,-70.626846 -39.552491,-70.659182 C -39.552401,-70.679251 -39.555645,-70.698073 -39.562224,-70.715649 C -39.578003,-70.756799 -39.610884,-70.7906 -39.660867,-70.81705 C -39.708491,-70.841851 -39.765929,-70.854497 -39.833181,-70.854988 C -39.879126,-70.855217 -39.925612,-70.851877 -39.972638,-70.844967 C -40.159764,-70.817261 -40.354714,-70.733937 -40.557487,-70.594995 L -40.887484,-71.235002 C -40.564787,-71.424549 -40.213873,-71.531762 -39.858481,-71.530001 C -39.503659,-71.53077 -39.166175,-71.433367 -38.939538,-71.2375 C -38.851566,-71.161066 -38.781664,-71.070119 -38.729831,-70.964658 C -38.671307,-70.843686 -38.642191,-70.711309 -38.642483,-70.567529 C -38.642158,-70.497774 -38.649721,-70.431281 -38.665172,-70.36805 C -38.693452,-70.25336 -38.748491,-70.153876 -38.830289,-70.069599 C -38.962609,-69.933012 -39.162205,-69.849726 -39.387484,-69.805005 C -39.477974,-69.784905 -39.551289,-69.768039 -39.607428,-69.754408 C -39.710583,-69.729684 -39.761761,-69.697281 -39.782066,-69.663173 C -39.792461,-69.644016 -39.797599,-69.617883 -39.797477,-69.584775 C -39.797406,-69.532109 -39.775008,-69.489537 -39.73028,-69.457057 C -39.670249,-69.413012 -39.582638,-69.39509 -39.476684,-69.400944 C -39.32951,-69.407743 -39.179778,-69.450764 -39.02749,-69.530005" />
      <path d="M -36.202474,-72.714998 L -35.29248,-72.714998 L -35.29248,-68.869995 L -36.202474,-68.869995 L -36.202474,-69.155005 C -36.377835,-68.929952 -36.63216,-68.803743 -36.922056,-68.791638 C -37.125669,-68.781786 -37.325428,-68.816328 -37.504091,-68.897976 C -37.798946,-69.029835 -38.033081,-69.272855 -38.163677,-69.57506 C -38.243388,-69.757493 -38.282991,-69.952161 -38.282487,-70.159062 C -38.282945,-70.345793 -38.249853,-70.523433 -38.183212,-70.691981 C -38.060026,-71.006137 -37.827307,-71.263645 -37.526166,-71.40148 C -37.324552,-71.496954 -37.090269,-71.531154 -36.861879,-71.508074 C -36.606742,-71.482793 -36.377994,-71.370985 -36.202474,-71.185002 L -36.202474,-72.714998 M -37.34248,-70.144995 C -37.344387,-69.988127 -37.273499,-69.850025 -37.174236,-69.744434 C -37.072676,-69.636273 -36.918582,-69.569397 -36.759101,-69.569997 C -36.604595,-69.568511 -36.454567,-69.630721 -36.352926,-69.731965 C -36.246663,-69.838627 -36.170561,-69.987595 -36.172477,-70.150529 C -36.170942,-70.314311 -36.248293,-70.470324 -36.356224,-70.576268 C -36.458047,-70.675897 -36.607128,-70.736784 -36.760271,-70.734996 C -36.922463,-70.735398 -37.0707,-70.671398 -37.172221,-70.567821 C -37.276122,-70.461761 -37.343803,-70.31159 -37.34248,-70.144995" />
      <path d="M -12.45,-66.554976 L -9.816976,-69.188 L -6.707121,-69.188 A 5.8,5.8 0.0 0,1 -18.192879,-69.188 L -15.083024,-69.188 L -12.45,-66.554976" />
      <path d="M -18.192879,-70.812 A 5.8,5.8 0.0 0,1 -6.707121,-70.812 L -9.816976,-70.812 L -12.45,-73.445024 L -15.083024,-70.812 L -18.192879,-70.812" />
      <path d="M 23.7375,-68.824992 L 22.832487,-68.824992 L 22.832487,-71.389998 L 23.7375,-71.389998 L 23.7375,-68.824992" />
      <path d="M 25.367497,-69.580005 L 25.882487,-69.580005 L 25.882487,-68.824992 L 25.367497,-68.824992 L 25.367497,-68.055005 L 24.4625,-68.055005 L 24.4625,-68.824992 L 24.1625,-68.824992 L 24.1625,-69.580005 L 24.4625,-69.580005 L 24.4625,-71.389998 L 25.367497,-71.389998 L 25.367497,-69.580005" />
      <path d="M 27.152507,-71.039998 L 26.277507,-72.669995 L 27.292497,-72.669995 L 29.352507,-68.824992 L 28.3125,-68.824992 L 27.647493,-70.139998 L 26.9625,-68.824992 L 25.9125,-68.824992 L 27.152507,-71.039998" />
      <path d="M -3.24751,-69.580005 L -2.73252,-69.580005 L -2.73252,-68.824992 L -3.24751,-68.824992 L -3.24751,-68.055005 L -4.152507,-68.055005 L -4.152507,-68.824992 L -4.452507,-68.824992 L -4.452507,-69.580005 L -4.152507,-69.580005 L -4.152507,-71.389998 L -3.24751,-71.389998 L -3.24751,-69.580005" />
      <path d="M -2.44751,-70.085002 C -2.448067,-70.297033 -2.407924,-70.491861 -2.327083,-70.669485 C -2.24882,-70.840767 -2.140654,-70.988004 -2.002585,-71.111196 C -1.865573,-71.232646 -1.704887,-71.325322 -1.520528,-71.389225 C -1.311396,-71.462414 -1.080094,-71.49253 -0.840134,-71.483463 C -0.624543,-71.475607 -0.42262,-71.434677 -0.234366,-71.360674 C -0.055119,-71.29032 0.099511,-71.192855 0.229524,-71.068279 C 0.353757,-70.948944 0.451697,-70.809239 0.523344,-70.649165 C 0.6052,-70.466325 0.640161,-70.260475 0.631157,-70.044607 C 0.62392,-69.864084 0.584468,-69.696648 0.5128,-69.542299 C 0.421315,-69.346436 0.288445,-69.182871 0.11419,-69.051604 C -0.01016,-68.957984 -0.150395,-68.883575 -0.306517,-68.828375 C -0.516929,-68.753482 -0.748818,-68.722298 -0.988813,-68.731581 C -1.183537,-68.738892 -1.366205,-68.774845 -1.536816,-68.83944 C -1.721034,-68.90901 -1.8815,-69.005069 -2.018215,-69.127618 C -2.148769,-69.245148 -2.251633,-69.38274 -2.326806,-69.540394 C -2.407449,-69.709704 -2.447683,-69.89124 -2.44751,-70.085002 M -1.492497,-70.094995 C -1.494325,-69.935616 -1.421087,-69.789487 -1.318588,-69.683547 C -1.216788,-69.578481 -1.06436,-69.51383 -0.90705,-69.514999 C -0.743057,-69.514117 -0.5853,-69.584255 -0.483345,-69.697375 C -0.387887,-69.801915 -0.320366,-69.948564 -0.32251,-70.100898 C -0.321037,-70.271781 -0.398449,-70.425033 -0.506523,-70.531531 C -0.607783,-70.630462 -0.755793,-70.691193 -0.907938,-70.689998 C -1.071488,-70.690882 -1.228902,-70.621136 -1.330928,-70.508421 C -1.426664,-70.403233 -1.49446,-70.260881 -1.492497,-70.094995" />
      <path d="M 1.15249,-68.824992 L 1.15249,-71.389998 L 2.057503,-71.389998 L 2.057503,-70.289998 C 2.056618,-70.02687 2.12335,-69.809238 2.274323,-69.683143 C 2.368791,-69.60549 2.488974,-69.563232 2.634871,-69.556371 C 2.790532,-69.547905 2.942687,-69.576959 3.07749,-69.644995 L 3.07749,-68.780005 C 3.002583,-68.765437 2.94791,-68.771123 2.900148,-68.769997 C 2.725233,-68.770308 2.570814,-68.806577 2.436888,-68.878806 C 2.286147,-68.960783 2.159686,-69.082846 2.057503,-69.244995 L 2.057503,-68.824992 L 1.15249,-68.824992" />
      <path d="M 4.4875,-69.999992 L 3.207503,-71.389998 L 4.402507,-71.389998 L 5.0625,-70.630005 L 5.717497,-71.389998 L 6.917497,-71.389998 L 5.632503,-69.999992 L 6.69751,-68.824992 L 5.517497,-68.824992 L 5.067497,-69.355005 L 4.627507,-68.824992 L 3.44751,-68.824992 L 4.4875,-69.999992" />
      <path d="M 7.507503,-70.435002 L 6.857503,-72.089998 L 7.4375,-72.089998 L 8.357503,-70.435002 L 7.507503,-70.435002" />
      <path d="M 10.62749,-69.485002 L 10.932503,-68.894995 C 10.768147,-68.82707 10.599543,-68.780005 10.426691,-68.753799 C 10.239982,-68.725699 10.04127,-68.721682 9.862382,-68.745843 C 9.55237,-68.788286 9.286765,-68.916762 9.129471,-69.126807 C 9.019237,-69.272583 8.961723,-69.456899 8.962501,-69.65825 C 8.962148,-69.740829 8.972209,-69.817239 8.992682,-69.887479 C 9.020133,-69.981019 9.067112,-70.060554 9.13362,-70.126086 C 9.257965,-70.247799 9.472281,-70.325415 9.717497,-70.374992 C 9.874541,-70.407007 9.972563,-70.431974 10.029092,-70.467028 C 10.061051,-70.487121 10.081498,-70.509333 10.090434,-70.533664 C 10.098409,-70.555004 10.102428,-70.581842 10.102489,-70.614179 C 10.10258,-70.634248 10.099335,-70.65307 10.092756,-70.670646 C 10.076977,-70.711796 10.044096,-70.745596 9.994113,-70.772047 C 9.94649,-70.796848 9.889052,-70.809494 9.8218,-70.809985 C 9.775855,-70.810214 9.729369,-70.806874 9.682343,-70.799964 C 9.495216,-70.772258 9.300266,-70.688934 9.097493,-70.549992 L 8.767497,-71.189998 C 9.090193,-71.379546 9.441108,-71.486759 9.796499,-71.484998 C 10.151321,-71.485767 10.488806,-71.388363 10.715442,-71.192497 C 10.803414,-71.116063 10.873317,-71.025116 10.925149,-70.919655 C 10.983674,-70.798683 11.01279,-70.666306 11.012497,-70.522526 C 11.012823,-70.45277 11.00526,-70.386277 10.989808,-70.323047 C 10.961529,-70.208356 10.90649,-70.108873 10.824691,-70.024596 C 10.692372,-69.888008 10.492775,-69.804723 10.267497,-69.760002 C 10.177006,-69.739902 10.103692,-69.723036 10.047553,-69.709405 C 9.944398,-69.684681 9.89322,-69.652278 9.872915,-69.61817 C 9.862519,-69.599013 9.857382,-69.57288 9.857503,-69.539772 C 9.857574,-69.487106 9.879973,-69.444533 9.9247,-69.412054 C 9.984731,-69.368009 10.072343,-69.350087 10.178296,-69.355941 C 10.325471,-69.36274 10.475202,-69.40576 10.62749,-69.485002" />
      <path d="M 12.2875,-70.260002 L 14.192497,-70.260002 L 14.192497,-70.164998 C 14.194469,-69.736693 14.067906,-69.358795 13.819985,-69.107415 C 13.577008,-68.85737 13.2124,-68.728147 12.798301,-68.730005 C 12.372205,-68.727433 12.006112,-68.861315 11.755531,-69.106913 C 11.506456,-69.34911 11.370395,-69.708844 11.372494,-70.118 C 11.369173,-70.524785 11.518778,-70.875479 11.783365,-71.117751 C 12.028408,-71.343661 12.378253,-71.47271 12.762892,-71.483863 C 13.193537,-71.49694 13.563445,-71.399521 13.814995,-71.171184 C 13.974101,-71.026757 14.088271,-70.838031 14.157503,-70.605005 L 13.282503,-70.605005 C 13.237664,-70.677142 13.182095,-70.733416 13.115795,-70.773826 C 13.035725,-70.821651 12.943024,-70.845374 12.837694,-70.844995 C 12.787601,-70.845054 12.740397,-70.841336 12.696083,-70.833839 C 12.592642,-70.816608 12.507955,-70.777261 12.442023,-70.715796 C 12.33543,-70.616244 12.287001,-70.456261 12.2875,-70.260002 M 13.347493,-69.735002 L 12.3125,-69.735002 Q 12.346528,-69.537472 12.478867,-69.425941 Q 12.61371,-69.31442 12.822186,-69.314998 Q 13.021989,-69.314572 13.163539,-69.430852 Q 13.303114,-69.546505 13.347493,-69.735002" />
      <path d="M 16.642497,-69.655005 L 16.642497,-68.885002 C 16.463411,-68.795823 16.270507,-68.749259 16.063785,-68.745312 C 15.853058,-68.741164 15.654162,-68.775602 15.467096,-68.848625 C 15.256932,-68.930912 15.080953,-69.052898 14.939159,-69.214582 C 14.84616,-69.321207 14.770852,-69.442138 14.713237,-69.577373 C 14.642526,-69.745096 14.607277,-69.926824 14.607489,-70.122556 C 14.606648,-70.326926 14.645994,-70.514069 14.725526,-70.683984 C 14.823027,-70.892491 14.967281,-71.067969 15.148665,-71.199955 C 15.377813,-71.367228 15.667794,-71.462544 15.964027,-71.469419 C 16.184116,-71.475127 16.410273,-71.426985 16.642497,-71.324992 L 16.642497,-70.555005 C 16.538738,-70.637968 16.427542,-70.691637 16.308907,-70.716013 C 16.179185,-70.742003 16.040886,-70.731834 15.923291,-70.685313 C 15.831285,-70.649419 15.754702,-70.595471 15.693543,-70.523469 C 15.602104,-70.416322 15.545784,-70.27312 15.547494,-70.114261 C 15.544861,-69.846911 15.695191,-69.636938 15.913278,-69.544821 C 15.998523,-69.508845 16.090522,-69.492347 16.189274,-69.495325 C 16.344755,-69.501012 16.495829,-69.554239 16.642497,-69.655005" />
      <path d="M 18.0625,-68.824992 L 17.157487,-68.824992 L 17.157487,-70.444995 C 17.15322,-70.791304 17.284167,-71.092891 17.554002,-71.263019 C 17.807702,-71.428448 18.156135,-71.485056 18.522493,-71.485002 C 18.888852,-71.485056 19.237285,-71.428448 19.490985,-71.263019 C 19.760819,-71.092892 19.891767,-70.791304 19.8875,-70.444995 L 19.8875,-68.824992 L 18.982487,-68.824992 L 18.982487,-70.269995 C 18.983065,-70.419255 18.946743,-70.550789 18.860011,-70.633724 C 18.780128,-70.711991 18.659372,-70.745487 18.522493,-70.744995 C 18.385615,-70.745487 18.264859,-70.711991 18.184976,-70.633724 C 18.098244,-70.550789 18.061922,-70.419255 18.0625,-70.269995 L 18.0625,-68.824992" />
      <path d="M 20.50249,-68.824992 L 20.50249,-71.389998 L 21.407503,-71.389998 L 21.407503,-70.289998 C 21.406618,-70.02687 21.47335,-69.809238 21.624323,-69.683143 C 21.718791,-69.60549 21.838974,-69.563232 21.984871,-69.556371 C 22.140532,-69.547905 22.292687,-69.576959 22.42749,-69.644995 L 22.42749,-68.780005 C 22.352583,-68.765437 22.29791,-68.771123 22.250148,-68.769997 C 22.075233,-68.770308 21.920814,-68.806577 21.786888,-68.878806 C 21.636147,-68.960783 21.509686,-69.082846 21.407503,-69.244995 L 21.407503,-68.824992 L 20.50249,-68.824992" />
      <path d="M 22.772493,-67.839998 C 22.771119,-67.561446 23.003908,-67.328594 23.282552,-67.330005 C 23.561081,-67.328638 23.793897,-67.561477 23.792497,-67.839998 C 23.793897,-68.118525 23.561076,-68.351359 23.282552,-68.349992 C 23.003971,-68.351423 22.771095,-68.118558 22.772493,-67.839998" />
      <path d="M 43.15,-70.0 A 5.8,5.8 0.0 0,1 31.55,-70.0 A 5.8,5.8 0.0 0,1 43.15,-70.0 M 40.253618,-69.228366 A 3.0043999999999995,3.0043999999999995 0.0 0,0 40.253681,-69.2286 L 40.6792,-69.2286 A 0.7714,0.7714 180.0 0,0 40.6792,-70.7714 L 40.253681,-70.7714 A 3.0043999999999995,3.0043999999999995 0.0 0,0 40.253618,-70.771634 A 0.8931999999999999,0.8931999999999999 -30.00000000000003 0,1 39.470064,-72.12879 A 3.0043999999999995,3.0043999999999995 0.0 0,0 39.469892,-72.128961 L 39.682652,-72.497472 A 0.7714000030490012,0.7714000030490012 119.99999999999999 0,0 38.346548,-73.268872 L 38.133788,-72.900361 A 3.0043999999999995,3.0043999999999995 0.0 0,0 38.133555,-72.900424 A 0.8931999999999999,0.8931999999999999 -90.00000000000001 0,1 36.566445,-72.900424 A 3.0043999999999995,3.0043999999999995 0.0 0,0 36.566212,-72.900361 L 36.353452,-73.268872 A 0.7714000030490014,0.7714000030490014 59.99999999999997 0,0 35.017348,-72.497472 L 35.230108,-72.128961 A 3.0043999999999995,3.0043999999999995 0.0 0,0 35.229936,-72.12879 A 0.8931999999999999,0.8931999999999999 -149.99999999999997 0,1 34.446382,-70.771634 A 3.0043999999999995,3.0043999999999995 0.0 0,0 34.446319,-70.7714 L 34.0208,-70.7714 A 0.7714,0.7714 0.0 0,0 34.0208,-69.2286 L 34.446319,-69.2286 A 3.0043999999999995,3.0043999999999995 0.0 0,0 34.446382,-69.228366 A 0.8931999999999999,0.8931999999999999 150.0 0,1 35.229936,-67.87121 A 3.0043999999999995,3.0043999999999995 0.0 0,0 35.230108,-67.871039 L 35.017348,-67.502528 A 0.7714000030490012,0.7714000030490012 -60.00000000000002 0,0 36.353452,-66.731128 L 36.566212,-67.099639 A 3.0043999999999995,3.0043999999999995 0.0 0,0 36.566445,-67.099576 A 0.8931999999999999,0.8931999999999999 90.0 0,1 38.133555,-67.099576 A 3.0043999999999995,3.0043999999999995 0.0 0,0 38.133788,-67.099639 L 38.346548,-66.731128 A 0.7714000030490014,0.7714000030490014 -120.00000000000004 0,0 39.682652,-67.502528 L 39.469892,-67.871039 A 3.0043999999999995,3.0043999999999995 0.0 0,0 39.470064,-67.87121 A 0.8931999999999999,0.8931999999999999 29.999999999999993 0,1 40.253618,-69.228366" />
      <circle cx="37.35" cy="-70.0" r="0.8119999999999999" />
    </g>
  </g>
</svg>