<svg xmlns="http://www.w3.org/2000/svg" width="246.47" height="378.29" viewBox="-73.99 -3.62 124.77 191.51"><g stroke="none" stroke-linecap="round" stroke-width="0"><path d="M39 182a5.8 5.8 0 0 0-11.6 0 5.8 5.8 0 0 0 11.6 0m-2.61 0a3.19 3.19 0 0 1-6.38 0 3.19 3.19 0 0 1 6.38 0M-37.28 1.62q.01.36.23.59.24.22.58.23.35-.01.59-.23a.8.8 0 0 0 .23-.59.8.8 0 0 0-.23-.58.8.8 0 0 0-.59-.23.8.8 0 0 0-.58.23.8.8 0 0 0-.23.58M-34.9 1.62q.01.36.23.59.24.22.58.23.35-.01.59-.23a.8.8 0 0 0 .23-.59.8.8 0 0 0-.23-.58.8.8 0 0 0-.59-.23.8.8 0 0 0-.58.23.8.8 0 0 0-.23.58M-32.52 1.62q.01.36.23.59.24.22.58.23.36-.01.59-.23a.8.8 0 0 0 .23-.59.8.8 0 0 0-.23-.58.8.8 0 0 0-.59-.23.8.8 0 0 0-.58.23.8.8 0 0 0-.23.58M-29.57-1q-.01.38.1.6.1.23.38.4a1 1 0 0 0-.38.38q-.1.2-.1.61v1.18q0 .29-.09.38c-.07.07-.2.07-.4.08h-.14v.9h.59q.57 0 .81-.26t.24-.88V1.07q0-.5.44-.6V-.4q-.24-.05-.34-.2t-.1-.48V-2.4q0-.63-.25-.89t-.79-.26h-.6v.9h.15q.29 0 .39.09t.09.37zM-22.54 2.3-24.19.13q1.13-.27 1.14-1.48 0-.69-.43-1.15a2 2 0 0 0-.54-.35 2 2 0 0 0-.77-.13h-2.13V2.3h1.37V.27l1.3 2.03zm-3.01-2.92v-1.3h.26q.4 0 .62.16.22.17.22.49t-.22.48-.62.17zM-42.5-2.98h-1.36V2.3h3.01V1.13h-1.64zM-38.6 1q0-.38-.1-.6a1 1 0 0 0-.38-.4q.27-.17.38-.38l.07-.25q.03-.15.02-.37v-1.17q0-.29.09-.38c.07-.07.2-.07.4-.08h.14v-.9h-.58q-.58 0-.82.26t-.24.88v1.32q0 .52-.44.6V.4q.24.05.34.2t.1.48V2.4c0 .43.07.7.24.89q.25.26.8.26h.6v-.91h-.14q-.32 0-.4-.09-.1-.1-.09-.37zM17.97-2.64H16.6v5.28h3.02V1.48h-1.65zM49.8 2.64 48.14.48Q49.28.2 49.3-1.01c0-.44-.15-.85-.43-1.15a2 2 0 0 0-.54-.35 2 2 0 0 0-.77-.13H45.4v5.28h1.37V.6l1.31 2.03zM46.78-.28v-1.3h.26q.4 0 .63.17.21.16.21.48t-.22.48q-.21.17-.62.17zM-37.25 15.8h-1.26v3.6h1.26zM-36.38 15.8v3.6h1.27v-1.92q0-.36.17-.55t.5-.2q.24-.01.4.16.1.1.14.26t.04.43v1.81h1.27v-2.28q0-.28-.06-.5-.05-.23-.2-.41-.2-.23-.47-.35t-.64-.12q-.36 0-.63.1-.26.11-.52.43v-.46zM-29.68 12.12H-27V12q0-.94-.52-1.48a2 2 0 0 0-1.43-.53q-.93.02-1.46.53-.53.5-.54 1.42.02.87.57 1.38.27.25.64.4.38.13.84.13 1.48 0 1.85-1.23h-1.22q-.21.33-.63.33-.77 0-.77-.82m1.49-.73h-1.45q.05-.28.23-.44.19-.15.48-.15t.48.16q.2.16.26.43M-24.92 11.17h.9v-1.06h-.9v-.44q0-.25.03-.4.03-.13.1-.21.14-.14.3-.13.23 0 .46.13v-1.1a1.3 1.3 0 0 0-1.04-.06 2 2 0 0 0-.8.54q-.15.2-.23.42-.08.27-.08.72v.53h-.46v1.06h.46v2.54h1.26zM-21.95 11.17h.72v-1.06h-.72V9.04h-1.26v1.07h-.42v1.06h.42v2.54h1.26zM-43.72 12.41q0-.38-.1-.6a1 1 0 0 0-.38-.4c.19-.13.31-.23.38-.38l.07-.25q.03-.15.03-.37V9.24q-.01-.29.08-.38.1-.09.4-.08h.15v-.9h-.59q-.58 0-.82.26t-.24.88v1.32q0 .52-.43.6v.86q.23.05.33.2t.1.48v1.32q0 .62.25.89.23.26.8.25h.6v-.9h-.15q-.31 0-.4-.09-.1-.1-.08-.37zM-38.68 8.5l-3.43 1.9v1.25l3.43 1.9v-1.48l-1.85-1.04 1.85-1.03zM-37.07 9.23v1.18q0 .38.1.6.1.23.38.4a1 1 0 0 0-.38.38q-.1.2-.1.61v1.18l-.01.24q-.04.17-.22.2a.7.7 0 0 0-.58-.31.7.7 0 0 0-.5.21.7.7 0 0 0 .22 1.16q.13.06.28.06a.7.7 0 0 0 .48-.2h.3q.56 0 .8-.26.25-.26.25-.88v-1.32q0-.5.43-.6v-.86q-.24-.05-.33-.2t-.1-.48V9.02q0-.63-.25-.89-.26-.26-.8-.26h-.6v.9h.15q.3 0 .39.08.1.1.1.38M-33.05 8.43h-1.37v5.28h3.02v-1.17h-1.65zM-30.59 17.81h2.67v-.13q-.01-.94-.52-1.48a2 2 0 0 0-1.44-.53q-.92.02-1.45.53-.52.5-.54 1.42.01.87.56 1.38.27.25.65.4.38.13.83.13 1.5 0 1.86-1.23h-1.23q-.2.33-.62.33-.77 0-.77-.82m1.48-.73h-1.44q.04-.28.23-.44t.48-.15.48.16.25.43M-24.82 16.73l.43-.83a3 3 0 0 0-1.16-.23q-.36 0-.66.1-.6.17-.83.66-.1.24-.11.54 0 .42.23.65t.82.35q.35.07.45.14l.08.08.01.12q0 .11-.1.2a.5.5 0 0 1-.3.07 2 2 0 0 1-1-.36l-.47.9q.71.4 1.44.4c.5 0 .94-.13 1.23-.35q.46-.36.48-1 0-.84-1.05-1.06l-.3-.07q-.22-.05-.25-.13l-.02-.1q0-.13.1-.2a.5.5 0 0 1 .3-.06q.33 0 .68.18M-40.75 14.12h-1.37v5.27h3.02v-1.16h-1.65zM22.34 15.93v3.59h1.27V17.6q0-.36.17-.55t.5-.2q.24 0 .4.16.1.1.14.26.04.17.04.43v1.82h1.27v-2.29q0-.28-.06-.5-.06-.23-.2-.41-.2-.23-.47-.35t-.65-.12q-.35 0-.62.1-.26.12-.52.43v-.45zM21.35 12.55H24v-.13q0-.94-.52-1.48-.25-.25-.61-.4-.37-.12-.82-.13-.45 0-.83.14-.74.28-1.03 1a2.2 2.2 0 0 0 .01 1.6q.18.4.53.69a.71.71 0 1 0 .71.35q.3.08.66.08 1.48 0 1.85-1.23h-1.22q-.21.33-.62.33-.77 0-.77-.82m1.48-.73h-1.45q.05-.28.24-.43.18-.16.47-.16t.48.16q.2.16.26.43M26.1 11.6h.9v-1.05h-.9v-.45q0-.25.03-.4.03-.13.1-.21.14-.13.3-.13.23 0 .46.13v-1.1a1.3 1.3 0 0 0-1.04-.06q-.48.15-.8.55-.15.18-.23.41-.08.27-.08.72v.54h-.46v1.05h.46v2.54h1.27zM29.07 11.6h.72v-1.05h-.72V9.47h-1.26v1.08h-.42v1.05h.42v2.54h1.26zM17.97 8.86H16.6v5.28h3.02v-1.17h-1.65zM28.13 17.93h2.67v-.13q-.01-.94-.52-1.48a2 2 0 0 0-1.44-.53q-.92.02-1.45.53-.53.5-.54 1.42.01.88.56 1.38.27.25.65.4.38.12.83.13 1.5 0 1.86-1.23h-1.23q-.2.33-.62.33-.77 0-.77-.82m1.48-.73h-1.45q.05-.28.24-.43.18-.16.48-.16.28 0 .47.16.2.16.26.43M33.9 16.85l.42-.83a3 3 0 0 0-1.15-.23q-.36 0-.66.1-.6.17-.83.66-.11.24-.11.54 0 .42.23.65t.82.36q.34.06.45.13.06.05.07.09.03.04.02.11 0 .12-.11.2a.5.5 0 0 1-.29.07 2 2 0 0 1-1-.36l-.47.9q.7.4 1.44.4.77 0 1.23-.35t.48-1q0-.84-1.05-1.06l-.3-.07q-.23-.05-.25-.13l-.02-.1q0-.12.1-.2a.5.5 0 0 1 .3-.06q.32 0 .68.18M17.97 14.24H16.6v5.28h3.02v-1.17h-1.65zM21.47 15.93H20.2v3.59h1.27zM-31.03 26.42h-1.27v3.6h1.27zM-32.38 25.04q.01.31.2.5a.7.7 0 0 0 1.01 0 .7.7 0 0 0 0-1 .7.7 0 0 0-1 0 .7.7 0 0 0-.21.5M-26.15 26.42h-1.26v.38a1.4 1.4 0 0 0-1.08-.48q-.39 0-.72.15-.67.31-.96 1.03-.14.36-.14.77 0 .4.13.74.27.67.92.94a2 2 0 0 0 1.03.1q.29-.04.55-.22.12-.08.27-.22v.35q0 .4-.22.62-.21.22-.61.22-.47 0-.6-.35h-1.43q.12.6.65.97.54.39 1.39.4.74-.01 1.26-.32.51-.3.69-.77.12-.37.13-.96zm-2.84 1.78q.01-.34.25-.57a.8.8 0 0 1 .57-.24.82.82 0 1 1-.58 1.4.8.8 0 0 1-.24-.6M-25.29 24.2v5.81h1.27V28.1q0-.35.17-.54t.5-.2q.23 0 .4.15.19.16.18.7V30h1.27v-2.28q0-.64-.35-1.01-.34-.38-1.02-.38-.36 0-.62.11-.27.11-.53.43V24.2zM-19.22 27.48h.72v-1.06h-.72v-1.08h-1.27v1.08h-.42v1.06h.42V30h1.27zM-46.45 28.72q.01-.39-.1-.6a1 1 0 0 0-.37-.4c.18-.14.3-.24.38-.38a1 1 0 0 0 .07-.26q.03-.15.02-.36v-1.17q0-.29.09-.38.1-.1.4-.08h.14v-.9h-.58q-.58 0-.82.25-.24.27-.24.88v1.33q0 .51-.44.6v.86q.24.05.34.2t.1.48v1.32q0 .62.24.89.25.26.8.25h.6v-.9h-.14q-.32 0-.4-.1-.1-.09-.09-.36zM-44.83 29.86l3.43-1.9v-1.25l-3.43-1.9v1.48l1.84 1.04-1.84 1.04zM-39.79 26.72q-.01.38.1.6t.38.4a1 1 0 0 0-.38.37c-.07.16-.1.34-.1.62v1.18q0 .28-.09.37-.1.1-.4.08h-.14v.91h.59q.57 0 .81-.26t.24-.88V28.8q0-.5.44-.6v-.87q-.24-.04-.34-.2-.1-.15-.1-.47v-1.33q0-.63-.25-.88-.25-.26-.79-.26h-.6v.9h.15q.29-.01.39.08.1.1.09.38zM-32.76 30.01l-1.65-2.16q1.13-.27 1.14-1.48c0-.45-.14-.86-.43-1.15a2 2 0 0 0-.54-.36 2 2 0 0 0-.77-.13h-2.13v5.28h1.37v-2.03l1.3 2.03zm-3.01-2.92v-1.3h.26q.4 0 .62.17t.22.48-.22.49-.62.16zM35.92 25.03q.01.31.2.5a.7.7 0 0 0 1.02 0 .7.7 0 0 0 0-1 .7.7 0 0 0-1.01 0 .7.7 0 0 0-.21.5M42.16 26.41h-1.27v.38a1.4 1.4 0 0 0-1.07-.48q-.39 0-.73.15-.67.31-.95 1.03-.15.36-.14.77 0 .4.13.74.27.67.92.94a1.8 1.8 0 0 0 1.3.03q.27-.11.54-.37v.35q0 .4-.21.62-.22.22-.62.22-.47 0-.6-.35h-1.43q.12.6.66.97.53.39 1.38.4.76-.01 1.26-.32t.7-.77q.13-.37.13-.96zM39.3 28.2q.01-.34.25-.57a.8.8 0 0 1 .57-.24.82.82 0 1 1-.58 1.4.8.8 0 0 1-.24-.6M43.02 24.2V30h1.26v-1.92q0-.35.18-.55.17-.19.49-.19.24 0 .4.15.2.16.19.7V30h1.26v-2.28q0-.64-.34-1.01-.35-.38-1.03-.38-.35 0-.62.11t-.53.43v-2.68zM49.08 27.47h.72V26.4h-.72v-1.08H47.8v1.08h-.42v1.06h.42V30h1.27zM35.55 30l-1.66-2.16q1.14-.27 1.15-1.48 0-.7-.43-1.15a2 2 0 0 0-.55-.36 2 2 0 0 0-.77-.13h-2.13V30h1.37v-2.03L33.84 30zm-3-2.92v-1.3h.25q.4 0 .62.17t.22.48-.22.48-.62.17zM37.27 26.41H36v3.6h1.27zM-32.56 44.3v-1.17h-1.7l.87-.82q.4-.38.59-.75t.18-.8q0-.4-.15-.75t-.43-.6-.64-.4q-.38-.13-.82-.13-.45 0-.82.15-.38.14-.65.42t-.42.65-.15.84h1.5l-.03-.23q0-.27.16-.45.15-.18.44-.18t.44.19q.08.09.11.2l.04.23a1.3 1.3 0 0 1-.21.7q-.15.24-.44.62t-.81.92l-1.3 1.36zM-31.87 43.62q.01.35.23.59.23.22.59.23.34-.01.58-.23a.8.8 0 0 0 .23-.59.8.8 0 0 0-.23-.58.8.8 0 0 0-.58-.23.8.8 0 0 0-.59.23.8.8 0 0 0-.23.58M-25.94 40.18v-1.16h-2.77l-.44 2.83q.5-.22.99-.21.53 0 .86.24t.33.63q0 .34-.25.56a1 1 0 0 1-.66.23q-.33 0-.7-.16-.36-.15-.71-.45l-.2 1.28q.76.48 1.71.47.5 0 .92-.13.82-.27 1.14-.95.16-.35.16-.77 0-.4-.14-.75a1.8 1.8 0 0 0-1.71-1.11c-.16 0-.28.01-.45.03l.09-.58zM-24.16 41q-.01.38.1.6.1.23.38.4a1 1 0 0 0-.38.38q-.1.2-.1.61v1.18q0 .29-.09.38c-.07.07-.2.07-.4.08h-.14v.9h.59q.57 0 .81-.26t.25-.88v-1.32q0-.5.43-.6v-.86q-.24-.05-.34-.2t-.1-.48V39.6q0-.63-.25-.89-.25-.25-.79-.25h-.6v.9h.15q.28-.02.39.08.1.09.09.37zM-20.44 39.23h.72v-.74h-1.72v7.02h1.72v-.75h-.72zM-45.96 44.77h-.72v.74h1.72v-7.02h-1.72v.74h.72zM-42.24 43q.01-.38-.1-.6a1 1 0 0 0-.38-.4c.2-.13.31-.23.38-.38a1 1 0 0 0 .08-.25l.02-.37v-1.17q0-.29.09-.38.1-.09.4-.08h.14v-.9h-.58q-.58 0-.82.26-.25.26-.25.88v1.32q0 .52-.43.6v.86q.24.05.34.2t.1.48v1.32q0 .63.24.89t.8.25h.6v-.9h-.15q-.3 0-.4-.09-.09-.1-.08-.37zM-39.43 40.18v4.12h1.37v-5.28h-2.14v1.16zM25.95 44.77h-.72v.74h1.72V38.5h-1.72v.75h.72zM40.45 39.23h.72v-.74h-1.72v7.02h1.72v-.75h-.72zM-30.95 52.71l-.76-.43a5 5 0 0 0-.75 1.67 8 8 0 0 0 0 4.1q.26.96.75 1.67l.76-.43q-.18-.28-.32-.65-.15-.38-.26-.81-.1-.44-.16-.91t-.06-.93q0-1.9.8-3.28M-28.48 55.08v.86q.14-.04.27-.04.29 0 .48.18.2.17.2.51 0 .3-.16.49-.17.2-.53.2a.8.8 0 0 1-.55-.2q-.2-.19-.22-.56h-1.35q0 .24.04.47.05.23.18.46.3.52.78.75.5.24 1.1.24.46 0 .84-.12.38-.13.66-.36.27-.23.43-.55t.15-.72q0-.47-.23-.8-.22-.32-.63-.45.26-.18.41-.42t.14-.62a1.44 1.44 0 0 0-1.01-1.42 2 2 0 0 0-.71-.1q-.4 0-.73.1-.33.12-.58.34-.5.45-.6 1.28h1.26q0-.27.16-.43.15-.17.4-.17.24 0 .39.15t.15.38-.16.4q-.16.15-.42.15zM-21.9 54.18v-1.16h-2.76l-.44 2.83q.5-.22.99-.21.53 0 .86.24t.33.63q0 .34-.25.56a1 1 0 0 1-.66.23q-.33 0-.7-.16-.36-.15-.71-.45l-.2 1.28q.76.47 1.71.47.5 0 .92-.13.82-.27 1.14-.95.15-.35.16-.77 0-.4-.14-.75a1.8 1.8 0 0 0-1.71-1.11c-.16 0-.28.01-.45.03l.09-.58zM-20.68 59.29l.76.43q.24-.35.43-.77.2-.43.32-.9.13-.47.2-.97.06-.5.06-1.01 0-1.16-.26-2.12t-.75-1.67l-.76.43q.17.27.32.65t.25.82.17.91.06.92q0 1.9-.8 3.28M-17.44 55q0 .38.1.6.1.23.38.4a1 1 0 0 0-.37.38q-.1.2-.1.61v1.18q.01.29-.1.38-.09.09-.4.07h-.14v.91h.6q.57 0 .8-.26.25-.26.25-.88v-1.32q0-.5.43-.6v-.86q-.24-.05-.33-.2t-.1-.48V53.6q0-.63-.25-.89t-.8-.26h-.6v.9h.15q.3 0 .39.09t.1.37zM-48.96 57q0-.38-.1-.6a1 1 0 0 0-.38-.4c.19-.13.31-.23.38-.38a1 1 0 0 0 .08-.25l.02-.37v-1.17q-.01-.29.08-.38.1-.08.4-.08h.15v-.9h-.58q-.59 0-.83.26t-.24.88v1.32q0 .52-.43.6v.86q.24.05.33.2t.1.48v1.32q0 .63.25.89.24.26.8.25h.6v-.9h-.15q-.31 0-.4-.09-.1-.1-.08-.37zM-46.31 52.49h-1.27v5.8h1.27v-.4q.4.52 1.1.52.39 0 .72-.15.67-.32.96-1.02a2 2 0 0 0 0-1.49 1.72 1.72 0 0 0-1.67-1.16q-.66 0-1.11.47zm1.6 4.02q-.01.33-.25.57a.8.8 0 0 1-.57.24.8.8 0 0 1-.58-.25.8.8 0 0 1-.24-.57q.01-.34.25-.58a.81.81 0 0 1 1.15 0q.23.25.24.6M-42.81 56.47q0 .44.16.8t.44.62.68.4.85.14.88-.14.69-.4.45-.6q.16-.36.16-.79 0-.42-.16-.78-.16-.35-.45-.6-.3-.26-.69-.4-.4-.15-.85-.15-.47 0-.87.15t-.68.4-.45.6-.16.75m1.34.01q.02-.34.24-.57a.8.8 0 0 1 .58-.24.8.8 0 0 1 .57.24c.14.15.25.36.24.58q-.02.35-.24.59a.8.8 0 0 1-.57.24.8.8 0 0 1-.58-.24.8.8 0 0 1-.24-.6M-36.65 56.35l-1.8 1.95h1.68l.92-1.07.92 1.07h1.68l-1.8-1.95 1.5-1.65h-1.66l-.63.75-.61-.75h-1.66zM15.7 50.77v10.46h35V50.77zM-35.17 66.49v5.8h1.27v-1.91q0-.36.17-.55t.5-.2q.23 0 .4.15.19.18.18.7v1.82h1.27V70q0-.63-.35-1-.34-.38-1.02-.38-.36 0-.62.1-.27.11-.53.43v-2.67zM-29.38 70.71h2.67v-.13q0-.94-.52-1.48a2 2 0 0 0-1.43-.53q-.94.02-1.46.53-.52.5-.54 1.42.01.88.56 1.38.27.25.65.4.37.13.84.13 1.47 0 1.85-1.23h-1.22q-.21.33-.63.33-.77 0-.77-.82m1.49-.73h-1.45q.05-.28.23-.43.19-.16.48-.16t.48.16q.2.16.26.43M-23.22 68.7v.36q-.44-.47-1.11-.47A1.7 1.7 0 0 0-26 69.76q-.13.34-.13.73 0 .42.14.76.13.36.38.61a1.7 1.7 0 0 0 1.3.55q.69 0 1.1-.51v.4h1.27v-3.6zm-1.6 1.79a.8.8 0 0 1 .82-.8.8.8 0 0 1 .58.23c.14.15.25.36.24.58q-.02.35-.24.58a.8.8 0 0 1-.57.24.8.8 0 0 1-.82-.83M-18.31 66.49v2.57q-.45-.47-1.11-.47a1.75 1.75 0 0 0-1.67 1.17 2 2 0 0 0 0 1.49q.29.7.96 1.01.33.15.72.15.7 0 1.1-.51v.4h1.27v-5.81zm-1.6 4q.02-.34.24-.57a.8.8 0 0 1 .58-.23.8.8 0 0 1 .58.23q.22.24.24.58-.02.35-.24.58a.8.8 0 0 1-.58.24.8.8 0 0 1-.82-.83M-15.66 69q0 .38.09.6.1.23.38.4a1 1 0 0 0-.37.38q-.1.2-.1.61v1.18q.01.29-.1.38-.09.08-.4.08h-.14v.9h.6q.57 0 .8-.26.25-.26.25-.88v-1.32q0-.5.43-.6v-.86q-.23-.05-.33-.2t-.1-.48V67.6q0-.63-.25-.89-.25-.25-.8-.25h-.6v.9h.15c.2 0 .32 0 .4.08q.08.09.09.37zM-50.73 71q0-.38-.1-.6a1 1 0 0 0-.38-.4q.28-.17.38-.38l.07-.25q.03-.15.03-.37v-1.17q-.01-.29.08-.38.1-.08.4-.08h.15v-.9h-.59q-.58 0-.82.26t-.24.88v1.32q0 .52-.43.6v.86q.23.05.33.2t.1.48v1.32c0 .43.08.7.25.89q.23.26.8.25h.6v-.9h-.15q-.31 0-.4-.09-.1-.1-.08-.37zM-49.35 66.49v5.8h1.27v-1.91q0-.36.17-.55t.5-.2q.23 0 .4.15.19.18.18.7v1.82h1.27V70q0-.63-.35-1-.34-.38-1.02-.38-.36 0-.63.1-.26.11-.52.43v-2.67zM-43.56 70.71h2.67v-.13q-.01-.94-.52-1.48a2 2 0 0 0-1.44-.53q-.92.02-1.45.53-.53.5-.54 1.42.01.88.56 1.38.27.25.65.4.38.13.83.13 1.5 0 1.86-1.23h-1.23q-.2.33-.62.33-.77 0-.77-.82m1.48-.73h-1.44q.04-.28.23-.43.19-.16.48-.16t.48.16q.2.16.25.43M-39 70.35l-1.8 1.95h1.68l.92-1.07.92 1.07h1.68l-1.8-1.95 1.5-1.64h-1.66l-.63.74-.62-.75h-1.65zM39 70l-2.9-5.02h-5.8L27.4 70l2.9 5.02h5.8zM-40.12 85q.01-.38-.1-.6a1 1 0 0 0-.38-.4q.3-.17.39-.38l.07-.25.02-.37v-1.17q0-.29.09-.38.1-.08.4-.08h.14v-.9h-.58q-.58 0-.82.26t-.24.88v1.32q0 .52-.44.6v.86q.24.05.34.2t.1.48v1.32c0 .43.07.7.24.89q.24.26.8.25h.6v-.9h-.15q-.3 0-.4-.09-.09-.1-.08-.37zM-38.73 82.7v3.6h1.26v-1.92q0-.36.17-.55t.5-.2q.24 0 .41.16.1.1.14.26.04.17.04.43v1.82h1.26V84q0-.28-.05-.5-.06-.23-.21-.41-.2-.23-.46-.35-.27-.12-.65-.12-.36 0-.62.1-.27.11-.53.43v-.45zM-32.82 82.7h-1.27v2.27q0 1.46 1.92 1.46 1.9 0 1.9-1.46V82.7h-1.26v2.03q0 .66-.64.66-.65 0-.65-.66zM-27.99 83.76h.72V82.7h-.72v-1.07h-1.27v1.08h-.42v1.05h.42v2.54h1.27zM-26.28 83q-.01.38.1.6.1.23.38.4a1 1 0 0 0-.38.38q-.1.2-.1.61v1.18q0 .29-.09.38-.1.08-.4.08h-.14v.9h.59q.57 0 .81-.26t.24-.88v-1.32q0-.5.44-.6v-.86q-.24-.05-.34-.2t-.1-.48V81.6q0-.63-.25-.89-.25-.25-.79-.25h-.6v.9h.15c.2 0 .31 0 .39.08q.1.09.09.37zM39 84l-2.9-5.02h-5.8L27.4 84l2.9 5.02h5.8zm-3.48 0a2.32 2.32 0 0 1-4.64 0 2.32 2.32 0 0 1 4.64 0M-24.66 97.63l.42-.83a3 3 0 0 0-1.15-.23q-.36 0-.66.1-.6.17-.83.66-.11.24-.11.54 0 .42.23.65t.82.36q.34.06.45.13.06.05.07.09t.02.11q0 .12-.11.2a.5.5 0 0 1-.29.07 2 2 0 0 1-1-.36l-.47.9q.7.4 1.44.4.76 0 1.23-.35t.48-1q0-.84-1.05-1.06-.37-.06-.48-.13l-.07-.07-.02-.1q0-.12.1-.2a.5.5 0 0 1 .3-.06q.32 0 .68.18M-23.48 94.49v5.8h1.27v-1.91q0-.36.17-.55t.5-.2q.23 0 .4.15.19.18.18.7v1.82h1.27V98q0-.63-.35-1-.35-.38-1.03-.38-.35 0-.62.1-.26.11-.52.43v-2.67zM-17.7 98.71h2.68v-.13q-.01-.94-.52-1.48a2 2 0 0 0-1.44-.53q-.93.02-1.45.53-.53.5-.54 1.42.01.88.56 1.38.27.25.65.4.38.13.83.13 1.48 0 1.86-1.23h-1.23q-.2.33-.62.33-.77 0-.77-.82m1.48-.73h-1.45q.05-.28.24-.43.18-.16.48-.16.28 0 .47.16.2.16.26.43M-14.3 96.7v3.6h1.26v-1.54q0-.5.22-.77.22-.26.67-.26.29 0 .54.12v-1.2q-.15-.03-.24-.02a1.3 1.3 0 0 0-1.19.66v-.59zM-10.54 97q0 .38.1.6.1.23.38.4a1 1 0 0 0-.38.38q-.1.2-.1.61v1.18q.01.29-.08.38-.11.08-.4.08h-.15v.9h.6q.56 0 .8-.26.25-.26.25-.88v-1.32q0-.5.43-.6v-.86q-.24-.05-.33-.2t-.1-.48V95.6q0-.63-.25-.89-.26-.25-.8-.25h-.6v.9h.15c.2 0 .32 0 .39.08q.1.09.1.37zM-55.86 99q.01-.38-.1-.6a1 1 0 0 0-.38-.4q.28-.17.38-.38a1 1 0 0 0 .08-.25l.02-.37v-1.17q-.02-.29.09-.38.1-.08.4-.08h.14v-.9h-.58q-.58 0-.83.26-.24.26-.24.88v1.32q0 .52-.43.6v.86q.24.05.33.2t.1.48v1.32c0 .43.08.7.25.89q.24.26.8.25h.6v-.9h-.15q-.31 0-.4-.09-.1-.1-.08-.37zM-53.2 94.49h-1.28v5.8h1.27zM-52.48 98.47q0 .44.16.8t.44.62.68.4.85.14.88-.14.68-.4q.3-.25.46-.6.16-.36.16-.79 0-.42-.16-.78-.16-.35-.45-.6-.3-.26-.69-.4-.4-.15-.86-.15t-.86.15-.68.4q-.29.26-.45.6-.16.35-.16.75m1.34.01q.02-.34.24-.57a.8.8 0 0 1 .57-.24.8.8 0 0 1 .58.24c.14.15.25.36.24.58q-.02.35-.24.59a.8.8 0 0 1-.58.24.8.8 0 0 1-.57-.24.8.8 0 0 1-.24-.6M-44.73 97.87v-1.08q-.4-.2-.86-.2-.42 0-.78.15a1.85 1.85 0 0 0-1.21 1.79 1.8 1.8 0 0 0 .59 1.36q.27.25.62.39a2 2 0 0 0 1.64-.08v-1.07q-.3.24-.67.24a1 1 0 0 1-.34-.06 1 1 0 0 1-.28-.18.9.9 0 0 1-.25-.62.83.83 0 0 1 .53-.8 1 1 0 0 1 .34-.07q.34 0 .67.23M-42.57 94.49h-1.27v5.8h1.27v-1.46l1.4 1.47h1.77l-1.9-1.94 1.8-1.66h-1.74l-1.33 1.3zM-37.97 96.7h-1.41l1.84 3.6h.86l.85-1.97.9 1.97h.84l1.88-3.6h-1.4l-.9 1.95-.9-1.95h-.8l-.9 1.9zM-29.18 96.7v.36q-.44-.47-1.11-.47a1.7 1.7 0 0 0-1.67 1.17q-.13.34-.13.73 0 .42.14.76.13.36.38.61a1.7 1.7 0 0 0 1.3.55q.68 0 1.1-.51v.4h1.27v-3.6zm-1.6 1.79a.8.8 0 0 1 .82-.8.8.8 0 0 1 .58.23c.14.15.25.36.24.58q-.02.35-.24.58a.8.8 0 0 1-.58.24.8.8 0 0 1-.81-.83M29.36 93.65a5.8 5.8 0 1 0 1.36-.9l2.08 2.08a3.19 3.19 0 1 1-1.58.67zM-31.18 110.42h-1.26v.38a1.4 1.4 0 0 0-1.08-.48 1.7 1.7 0 0 0-1.3.57 2 2 0 0 0-.52 1.38q0 .4.13.74.28.67.93.94a2 2 0 0 0 1.02.1q.29-.03.55-.22.12-.08.27-.22v.35q0 .4-.22.62-.21.22-.61.22-.47 0-.6-.35h-1.43q.11.6.65.97.54.39 1.39.4.74-.01 1.26-.32.51-.3.69-.77.13-.37.13-.96zm-2.84 1.78q.01-.35.25-.57a.8.8 0 0 1 .57-.24.82.82 0 1 1-.58 1.4.8.8 0 0 1-.24-.6M-30.32 110.42v3.6h1.27v-1.93q0-.35.17-.55.17-.19.5-.19.24-.01.4.16.1.1.15.26.03.15.03.43V114h1.27v-2.28q0-.29-.05-.51t-.22-.4q-.18-.23-.45-.35-.27-.13-.65-.13-.36 0-.62.11-.27.11-.53.43v-.46zM-24.53 112.43h2.67v-.13q0-.96-.52-1.48a2 2 0 0 0-1.43-.53q-.94.01-1.46.52-.52.52-.54 1.42 0 .88.57 1.4.27.24.64.38.38.14.84.14 1.48 0 1.85-1.24h-1.22q-.21.34-.63.34-.77 0-.77-.82m1.49-.73h-1.45q.05-.28.23-.44.19-.15.48-.15t.48.16q.2.16.26.43M-19.68 111.48h.72v-1.06h-.72v-1.08h-1.26v1.08h-.42v1.06h.42V114h1.26zM-17.97 110.72q0 .38.1.6t.38.4a1 1 0 0 0-.38.37q-.1.22-.1.62v1.18q.02.28-.09.37-.1.1-.4.08h-.14v.91h.59q.57 0 .82-.26.24-.26.24-.88v-1.32q0-.5.43-.6v-.87q-.24-.04-.34-.2-.1-.15-.1-.47v-1.33q0-.63-.24-.88-.26-.26-.8-.26h-.6v.9h.15q.3-.01.39.08.1.1.1.38zM-48.43 112.72q.01-.39-.1-.6a1 1 0 0 0-.38-.4c.19-.14.31-.24.38-.39a1 1 0 0 0 .08-.25l.02-.36v-1.17q-.02-.29.09-.38t.4-.08h.14v-.9h-.58q-.58 0-.83.25-.24.27-.24.88v1.33q0 .51-.43.6v.86q.24.05.34.2t.1.48v1.32q0 .62.24.89.24.26.8.25h.6v-.9h-.15q-.31 0-.4-.1-.09-.09-.08-.36zM-47.05 110.42v3.6h1.27v-1.78c0-.38.07-.6.17-.74s.25-.17.41-.18q.28-.02.42.19t.14.73v1.77h1.26v-1.77q0-.9.61-.89.23-.01.38.17t.15.72v1.77h1.27v-2.33q-.02-.7-.35-1.02a1 1 0 0 0-.38-.23q-.23-.07-.48-.07-.79 0-1.22.68-.42-.67-1.22-.67-.64 0-1.16.5v-.45zM-37.33 110.42v.36q-.44-.47-1.11-.47a1.7 1.7 0 0 0-1.67 1.16q-.13.36-.13.74 0 .41.13.76.14.35.39.6a1.7 1.7 0 0 0 1.3.55q.68 0 1.09-.5v.4h1.27v-3.6zm-1.6 1.79a.8.8 0 0 1 .82-.8.8.8 0 0 1 .58.23q.22.24.24.58-.02.34-.24.57a.8.8 0 0 1-.58.24.8.8 0 0 1-.82-.82M34.84 113.64a2.32 2.32 0 1 1-3.28-3.28l2.73-2.73-1.09-1.1-2.73 2.74a3.87 3.87 0 0 0 5.46 5.46l2.74-2.73-1.1-1.1zM-8.16 125.63l.43-.83a3 3 0 0 0-1.16-.23q-.36 0-.66.1-.6.17-.83.66-.1.24-.1.54 0 .42.23.65t.82.36q.34.06.45.13.05.05.07.09l.02.11q0 .12-.11.2a.5.5 0 0 1-.3.07 2 2 0 0 1-1-.36l-.46.9q.7.4 1.43.4.77 0 1.24-.35t.47-1q0-.84-1.04-1.06-.2-.03-.3-.07-.23-.05-.26-.13l-.02-.1q0-.12.11-.2a.5.5 0 0 1 .29-.06q.33 0 .68.18M-5.7 124.7h-1.27v2.27q0 1.46 1.9 1.46 1.92 0 1.92-1.46v-2.27h-1.27v2.03q0 .66-.64.66-.65 0-.65-.66zM-2.3 124.7v3.6h1.28v-1.54q0-.5.22-.77.22-.26.66-.26.3 0 .54.12v-1.2q-.15-.03-.24-.02a1.3 1.3 0 0 0-1.18.66v-.59zM2.15 126.71h2.67v-.13q0-.94-.52-1.48a2 2 0 0 0-1.43-.53q-.93.02-1.46.53-.53.5-.54 1.42 0 .88.57 1.38.28.25.64.4.38.13.84.13 1.48 0 1.85-1.23H3.55q-.21.33-.63.33-.77 0-.77-.82m1.49-.73H2.19q.05-.28.23-.43.19-.16.48-.16t.48.16q.2.16.26.43M6.05 125q0 .38.1.6.1.23.38.4a1 1 0 0 0-.38.38q-.1.2-.1.61v1.18q.02.29-.09.38t-.4.07h-.14v.91h.59q.57 0 .82-.26.24-.26.24-.88v-1.32q0-.5.43-.6v-.86q-.24-.05-.33-.2t-.1-.48v-1.32q0-.63-.25-.89-.26-.25-.8-.25h-.6v.9h.15c.2 0 .32 0 .39.08q.1.09.1.37zM-72.45 127q.01-.38-.1-.6a1 1 0 0 0-.38-.4q.28-.17.38-.38a1 1 0 0 0 .08-.25l.02-.37v-1.17q-.02-.29.09-.38.1-.08.4-.08h.14v-.9h-.58q-.58 0-.83.26-.24.26-.24.88v1.32q0 .52-.43.6v.86q.24.05.33.2t.1.48v1.32c0 .43.08.7.25.89q.24.26.8.25h.6v-.9h-.15q-.31 0-.4-.09-.1-.1-.08-.37zM-71.07 124.7v3.6h1.27v-1.78q.01-.55.17-.74t.41-.17q.28-.01.42.18.13.2.13.73v1.78h1.27v-1.78q0-.88.61-.88.24-.02.38.16.15.2.15.73v1.77h1.27v-2.34q-.02-.7-.35-1.01a1 1 0 0 0-.39-.23q-.21-.08-.47-.08-.79 0-1.22.68-.42-.67-1.22-.67-.64 0-1.16.5v-.45zM-62.98 126.71h2.67v-.13q-.01-.94-.52-1.48a2 2 0 0 0-1.44-.53q-.93.02-1.45.53-.53.5-.54 1.42.01.88.56 1.38.27.25.65.4.38.13.83.13 1.48 0 1.86-1.23h-1.23q-.2.33-.62.33-.77 0-.77-.82m1.48-.73h-1.45q.05-.28.24-.43.18-.16.48-.16.28 0 .47.16.2.16.26.43M-56.82 124.7v.36q-.44-.47-1.11-.47-.4 0-.73.15t-.57.41-.37.6q-.13.36-.13.74 0 .41.13.76.14.35.38.61.25.26.58.4t.72.15q.7 0 1.1-.51v.4h1.27v-3.6zm-1.6 1.79a.8.8 0 0 1 .82-.8.8.8 0 0 1 .58.23q.23.24.24.58-.02.35-.24.58a.8.8 0 0 1-.58.24.8.8 0 0 1-.82-.83M-52.3 125.63l.42-.83a3 3 0 0 0-1.15-.23q-.37 0-.67.1-.6.17-.83.66-.1.24-.1.54 0 .42.23.65t.82.36q.34.06.45.13.05.05.07.09l.02.11q0 .12-.11.2a.5.5 0 0 1-.29.07 2 2 0 0 1-1-.36l-.47.9q.7.4 1.43.4.77 0 1.24-.35t.47-1q0-.84-1.04-1.06-.2-.03-.3-.07-.23-.05-.26-.13l-.01-.1q0-.12.1-.2a.5.5 0 0 1 .29-.06q.33 0 .68.18M-49.86 124.7h-1.26v2.27q0 1.46 1.9 1.46 1.92 0 1.92-1.46v-2.27h-1.27v2.03q0 .66-.64.66-.65 0-.65-.66zM-46.44 124.7v3.6h1.27v-1.54q0-.5.22-.77.22-.26.66-.26.3 0 .54.12v-1.2q-.14-.03-.24-.02a1.3 1.3 0 0 0-1.18.66v-.59zM-42 126.71h2.67v-.13q0-.94-.52-1.48a2 2 0 0 0-1.43-.53q-.93.02-1.46.53-.52.5-.54 1.42.01.88.57 1.38.28.25.64.4.38.13.84.13 1.48 0 1.85-1.23h-1.22q-.21.33-.63.33-.77 0-.77-.82m1.49-.73h-1.45q.05-.28.23-.43.19-.16.48-.16t.48.16q.2.16.26.43M-38.1 125q0 .38.1.6.1.23.38.4a1 1 0 0 0-.37.38q-.11.2-.1.61v1.18q.01.29-.1.38t-.4.07h-.14v.91h.6q.57 0 .8-.26.25-.26.25-.88v-1.32q0-.5.43-.6v-.86q-.24-.05-.33-.2t-.1-.48v-1.32q0-.63-.25-.89-.26-.25-.8-.25h-.6v.9h.15c.2 0 .32 0 .39.08q.1.09.1.37zM-32.22 127.38l.32.92h1.46l-2-5.28h-1.5l-2.01 5.28h1.46l.31-.92zm-.36-1.04h-1.23l.61-1.76zM-28.3 127q0-.38-.1-.6a1 1 0 0 0-.38-.4q.28-.17.38-.38a1 1 0 0 0 .08-.25l.02-.37v-1.17q-.01-.29.08-.38.11-.08.4-.08h.15v-.9h-.58q-.59 0-.83.26t-.24.88v1.32q0 .52-.43.6v.86q.24.05.33.2t.1.48v1.32c0 .43.08.7.25.89q.24.26.8.25h.6v-.9h-.15q-.31 0-.4-.09-.1-.1-.08-.37zM-26.92 124.7v3.6h1.27v-1.78q0-.55.17-.74.16-.19.41-.17.29-.01.42.18.13.2.13.73v1.78h1.27v-1.78q0-.88.61-.88.23-.02.38.16.15.2.15.73v1.77h1.27v-2.34q-.02-.7-.35-1.01a1 1 0 0 0-.39-.23q-.22-.08-.47-.08-.8 0-1.22.68-.42-.67-1.22-.67-.64 0-1.16.5v-.45zM-18.83 126.71h2.66v-.13q0-.94-.51-1.48a2 2 0 0 0-1.44-.53q-.93.02-1.45.53-.54.5-.54 1.42.01.88.56 1.38.27.25.65.4.38.13.83.13 1.48 0 1.86-1.23h-1.23q-.2.33-.62.33-.77 0-.77-.82m1.48-.73h-1.45q.05-.28.24-.43.18-.16.48-.16.28 0 .47.16.2.16.26.43M-12.67 124.7v.36q-.44-.47-1.12-.47-.4 0-.72.15-.33.15-.57.41t-.37.6q-.13.36-.13.74 0 .41.13.76.14.35.38.61.25.26.58.4t.72.15q.7 0 1.1-.51v.4h1.27v-3.6zm-1.6 1.79a.8.8 0 0 1 .82-.8.8.8 0 0 1 .58.23q.23.24.24.58-.01.35-.24.58a.8.8 0 0 1-.58.24.8.8 0 0 1-.82-.83M44.02 130.85h.59v-.58h-.59zM47.3 128.6q.61-.25.61-.84 0-.44-.33-.77a1.2 1.2 0 0 0-.88-.31q-.54 0-.86.3a1 1 0 0 0-.33.77q0 .61.62.85-.38.1-.58.37t-.2.68q0 .54.37.9.38.37 1 .37.6 0 .98-.36.38-.37.38-.9 0-.38-.2-.66t-.58-.4m-1.27-.87q0-.26.2-.45.19-.18.48-.18t.48.19q.2.19.2.47t-.2.46-.48.18q-.3 0-.49-.19-.19-.18-.19-.48m-.16 1.92q0-.36.23-.6t.6-.23q.37 0 .61.24.25.24.25.6 0 .37-.24.6-.24.24-.6.24-.24 0-.44-.11t-.3-.32-.11-.42M27.94 128.6q.61-.25.61-.84 0-.44-.33-.77a1.2 1.2 0 0 0-.87-.31q-.54 0-.87.3a1 1 0 0 0-.33.77q0 .61.63.85-.38.1-.59.37t-.2.68q0 .54.37.9.38.37 1 .37.6 0 .99-.36.37-.37.37-.9 0-.38-.2-.66t-.58-.4m-1.27-.87q0-.26.2-.45.19-.18.48-.18t.48.19q.2.19.2.47t-.19.46-.48.18q-.3 0-.5-.19-.19-.18-.19-.48m-.16 1.92q0-.36.24-.6t.6-.23.6.24.25.6-.24.6-.6.24q-.24 0-.44-.11t-.3-.32-.11-.42"/><path d="M16.6 124.55v2.9h.4v-1.25h13.04v1.25h.4v-2.9h-.4v1.25H17v-1.25z"/><path d="M19.85 130.85v-4.17h-.33q-.13.27-.45.55t-.75.5v.48q.24-.08.54-.26t.48-.35v3.25zM21.67 129.68l-.51.07q.05.52.41.85t.9.32q.61 0 1.01-.38.4-.37.4-.92 0-.4-.2-.67t-.58-.35q.28-.13.43-.35t.14-.5q0-.28-.15-.53t-.44-.4-.62-.14q-.5 0-.83.28t-.42.8l.5.09q.07-.38.26-.57.2-.18.5-.18t.49.18.19.47q0 .35-.26.52t-.59.17h-.08l-.06.44q.22-.05.36-.05.36 0 .59.22.23.23.23.58 0 .37-.25.62t-.61.25q-.3 0-.51-.2-.21-.18-.3-.62M24.67 130.85h.58v-.58h-.58zM34.18 127.72l.31.92h1.47l-2.01-5.28h-1.5l-2 5.28h1.46l.31-.92zm-.36-1.04h-1.24l.62-1.76zM35.96 124.55v2.9h.4v-1.25H49.4v1.25h.4v-2.9h-.4v1.25H36.36v-1.25z"/><path d="M39.2 130.85v-4.17h-.32q-.13.27-.45.55t-.75.5v.48q.24-.08.53-.26t.49-.35v3.25zM41.03 129.68l-.51.07q.05.52.4.85.37.32.92.32.6 0 1-.38.4-.37.4-.92 0-.4-.2-.67t-.58-.35q.28-.13.43-.35t.14-.5q0-.28-.15-.53t-.44-.4-.62-.14q-.5 0-.83.28t-.42.8l.5.09q.06-.38.26-.57t.5-.18.49.18.19.47q0 .35-.26.52t-.59.17h-.08l-.06.44q.22-.05.36-.05.35 0 .58.22.23.23.23.58 0 .37-.24.62-.25.25-.61.25-.3 0-.52-.2-.2-.18-.3-.62M-12.62 139.63l.42-.83a3 3 0 0 0-1.15-.23q-.36 0-.66.1-.6.17-.83.66-.11.24-.11.54 0 .42.23.65t.82.35q.34.07.45.14.06.04.07.09t.02.11q0 .12-.11.2a.5.5 0 0 1-.29.07 2 2 0 0 1-1-.36l-.47.9q.7.4 1.44.4.77 0 1.23-.35t.48-1q0-.84-1.05-1.06l-.3-.07q-.23-.05-.25-.13l-.02-.1q0-.12.1-.2a.5.5 0 0 1 .3-.06q.32 0 .68.18M-10.17 138.7h-1.27v2.27q0 1.46 1.91 1.46 1.9 0 1.91-1.46v-2.27h-1.27v2.03q0 .66-.64.66t-.64-.66zM-6.76 138.7v3.6h1.27v-1.54q0-.5.22-.77.22-.26.66-.26.3 0 .55.12v-1.2q-.15-.03-.25-.02a1.3 1.3 0 0 0-1.18.66v-.59zM-2.31 140.71H.35v-.13q0-.94-.51-1.48a2 2 0 0 0-1.44-.53q-.93.02-1.45.53-.54.5-.54 1.42.01.88.56 1.38.27.25.65.4.38.13.83.13 1.48 0 1.86-1.23H-.92q-.2.33-.62.33-.77 0-.77-.82m1.48-.73h-1.45q.05-.28.24-.44.18-.15.48-.15.28 0 .47.16.2.16.26.43M1.59 139q-.01.38.1.6.1.23.37.4a1 1 0 0 0-.37.38q-.1.2-.1.61v1.18q.01.29-.1.38-.09.09-.4.07H.97v.91h.58q.58 0 .82-.26t.24-.88v-1.32q0-.5.44-.6v-.86q-.24-.05-.34-.2t-.1-.48v-1.32q0-.63-.25-.89t-.8-.26h-.6v.9h.15q.29 0 .4.08.09.1.09.38zM-67.99 141q.01-.38-.1-.6a1 1 0 0 0-.37-.4c.18-.13.3-.23.38-.38l.07-.25q.03-.15.02-.37v-1.17q-.01-.29.1-.38.09-.08.4-.08h.13v-.9h-.58q-.58 0-.82.26t-.24.88v1.32q0 .52-.44.6v.86q.24.05.34.2t.1.48v1.32c0 .43.07.7.24.89q.25.26.8.25h.6v-.9h-.14q-.31 0-.4-.09-.1-.1-.09-.37zM-65.33 136.49h-1.27v5.8h1.27v-.4q.4.52 1.1.52.39 0 .72-.15t.58-.41q.24-.26.38-.61t.14-.75-.14-.74q-.13-.35-.36-.6-.24-.26-.57-.4-.33-.16-.73-.16-.68 0-1.12.47zm1.6 4.02q-.01.33-.25.57a.8.8 0 0 1-.57.24.8.8 0 0 1-.58-.25.8.8 0 0 1-.24-.57q.02-.34.24-.58a.81.81 0 0 1 1.15 0q.23.25.24.6M-61.83 140.47q0 .44.16.8t.44.62.68.4.85.14.87-.14.7-.4.44-.6.17-.79-.16-.78-.45-.6-.69-.4q-.4-.15-.86-.15-.47 0-.86.15-.4.15-.68.4-.3.26-.45.6-.16.35-.16.75m1.33.01q.01-.34.25-.57a.8.8 0 0 1 .57-.24.8.8 0 0 1 .58.24q.23.24.24.58-.02.35-.24.59a.8.8 0 0 1-.58.24.8.8 0 0 1-.57-.24.8.8 0 0 1-.25-.6M-55.53 136.49h-1.26v5.8h1.26zM-53.24 139.76h.72v-1.06h-.72v-1.07h-1.27v1.07h-.42v1.06h.42v2.54h1.27zM-50.18 136.71l-.76-.43a5 5 0 0 0-.76 1.67 8 8 0 0 0 0 4.1q.27.96.76 1.67l.76-.43q-.18-.28-.33-.65-.14-.38-.25-.81t-.16-.91-.06-.93q0-1.9.8-3.28M-47.95 138.18v4.12h1.37v-5.28h-2.14v1.16zM-45.19 139.65q0 .63.17 1.14.16.52.46.89.3.36.7.56.42.2.91.2t.9-.2.71-.56.46-.89.17-1.14-.17-1.14-.46-.88-.7-.57q-.42-.2-.9-.2-.5 0-.91.2t-.71.57-.46.88-.17 1.14m1.36 0c0-.45.09-.86.24-1.13q.24-.42.64-.44c.26 0 .5.17.64.44q.1.2.17.5a3 3 0 0 1-.17 1.76q-.24.44-.64.44-.4-.01-.64-.44a2.4 2.4 0 0 1-.24-1.13M-40.2 143.29l.77.43q.24-.35.43-.77t.32-.9.2-.97q.06-.5.06-1.01 0-1.16-.26-2.12t-.75-1.67l-.77.43q.18.27.33.65.14.38.25.82t.17.91.06.92q0 1.9-.8 3.28M-36.95 139q-.01.38.1.6.1.23.38.4a1 1 0 0 0-.38.38q-.1.2-.1.61v1.18q.02.29-.09.38t-.4.07h-.14v.91h.59q.57 0 .82-.26.24-.26.24-.88v-1.32q0-.5.43-.6v-.86q-.24-.05-.34-.2t-.1-.48v-1.32q0-.63-.25-.89t-.79-.26h-.6v.9h.15q.3 0 .39.08.1.1.1.38zM-32.77 141q.01-.38-.1-.6a1 1 0 0 0-.38-.4c.2-.13.32-.23.39-.38l.07-.25.02-.37v-1.17q0-.29.09-.38.1-.08.4-.08h.14v-.9h-.58q-.58 0-.82.26t-.24.88v1.32q0 .52-.44.6v.86q.24.05.34.2t.1.48v1.32c0 .43.07.7.24.89q.24.26.8.25h.6v-.9h-.15q-.3 0-.4-.09-.09-.1-.08-.37zM-31.38 138.7v3.6h1.26v-1.78c0-.38.07-.6.18-.74q.16-.19.4-.17.3-.01.42.18.14.2.14.73v1.78h1.26v-1.78q0-.88.61-.88.23-.02.39.16.15.2.15.72v1.78h1.26v-2.34q-.02-.7-.35-1.01a1 1 0 0 0-.38-.23q-.22-.08-.48-.08-.79 0-1.22.68-.42-.67-1.21-.67-.65 0-1.17.5v-.45zM-23.3 140.71h2.67v-.13q0-.94-.52-1.48a2 2 0 0 0-1.43-.53q-.94.02-1.46.53-.52.5-.54 1.42.01.88.56 1.38.27.25.65.4.38.13.83.13 1.5 0 1.86-1.23h-1.23q-.2.33-.62.33-.77 0-.77-.82m1.49-.73h-1.45q.05-.28.23-.44.19-.15.48-.15t.48.16q.2.16.26.43M-17.14 138.7v.36q-.44-.47-1.11-.47-.4 0-.73.15t-.57.41-.37.6-.13.74q0 .41.14.76.13.35.38.61.24.26.57.4t.72.15q.7 0 1.1-.51v.4h1.28v-3.6zm-1.6 1.79a.8.8 0 0 1 .82-.8.8.8 0 0 1 .58.23c.14.15.25.36.24.58q-.02.35-.24.58a.8.8 0 0 1-.58.24.8.8 0 0 1-.81-.83M41.93 144.85h.59v-.58h-.59zM43.67 144.49q.34.43.94.43.45 0 .76-.25.3-.24.45-.69t.15-1.18q0-.62-.1-.98-.17-.73-.67-1a1 1 0 0 0-.59-.14q-.45 0-.75.24-.3.25-.45.7-.15.46-.15 1.18 0 1.17.41 1.69m.38-3.09q.2-.3.56-.3.35 0 .6.34.23.34.23 1.36t-.24 1.36-.59.34-.59-.34-.24-1.36.27-1.4"/><path d="M18.6 134.2a2 2 0 0 0-2 2v7.6a2 2 0 0 0 2 2h3.16v-3.22h10v-1.13h.4v-1.25H49.4v1.25h.4v-2.9h-.4v1.25H32.16v-1.25h-.4v-1.13h-10v-3.22z"/><path d="M37.12 144.85v-4.17h-.33q-.13.27-.45.56-.32.28-.75.48v.5q.24-.1.53-.27t.49-.35v3.25zM40.37 142.6q.61-.24.61-.84 0-.45-.33-.76a1.2 1.2 0 0 0-.87-.32q-.54 0-.87.3a1 1 0 0 0-.33.77q0 .61.63.85-.38.1-.59.37t-.2.68q0 .54.37.9.38.37 1 .37.61 0 .99-.36.37-.37.37-.9 0-.38-.2-.66t-.58-.4m-1.26-.87q0-.26.19-.44.2-.2.48-.2.3 0 .49.2t.19.47q0 .27-.19.46-.19.18-.48.18-.3 0-.5-.18-.18-.2-.18-.49m-.17 1.92q0-.36.24-.6t.6-.23.6.24.25.6-.24.6-.6.24q-.23 0-.44-.11t-.3-.32-.1-.42M-14.81 153.62l.43-.82a3 3 0 0 0-1.16-.23q-.36 0-.66.09-.6.18-.83.66-.1.25-.11.55 0 .41.23.64t.82.36l.29.06q.2.07.24.16l.01.11q0 .12-.1.2a.5.5 0 0 1-.3.08 2 2 0 0 1-1-.37l-.46.9q.7.4 1.43.41c.5 0 .94-.13 1.23-.36q.46-.35.48-.99 0-.84-1.04-1.06-.37-.08-.48-.14l-.08-.07-.02-.1q0-.12.11-.19a1 1 0 0 1 .28-.07q.35 0 .69.18M-12.49 154.7h2.67v-.13q0-.94-.52-1.47a2 2 0 0 0-1.43-.53q-.94.01-1.46.52-.53.52-.54 1.42 0 .88.57 1.39.28.25.64.39.38.13.84.13 1.48 0 1.85-1.23h-1.22q-.21.34-.63.34-.77 0-.77-.82m1.49-.74h-1.45q.05-.28.23-.43.19-.16.48-.16t.48.16q.2.17.26.43M-9.1 152.7v3.59h1.27v-1.54q0-.5.22-.77.22-.26.66-.26.3 0 .55.13v-1.21q-.15-.03-.25-.02a1.3 1.3 0 0 0-1.18.67v-.6zM-4.29 153.76h.72v-1.06h-.72v-1.08h-1.27v1.08h-.42v1.06h.42v2.53h1.27zM-2.58 153q-.01.38.1.6t.37.4a1 1 0 0 0-.37.37c-.07.15-.1.33-.1.62v1.17q0 .29-.09.38-.1.1-.4.08h-.14v.9h.59q.57 0 .81-.25.24-.27.24-.88v-1.33q0-.5.44-.6v-.86q-.24-.05-.34-.2t-.1-.48v-1.32q0-.63-.25-.89-.25-.25-.79-.25h-.6v.9h.15q.29-.01.38.08t.1.38zM-63.82 155q.01-.4-.1-.61a1 1 0 0 0-.37-.4q.27-.18.38-.38l.07-.25q.02-.15.02-.37v-1.17q0-.28.09-.37.1-.1.4-.08h.14v-.91h-.58q-.58 0-.82.26t-.24.88v1.32q0 .52-.44.6v.87q.24.04.34.2.1.15.1.47v1.33q0 .62.24.88.25.27.8.26h.6v-.91h-.15q-.3 0-.4-.09-.09-.09-.08-.37zM-61.02 153.76h.72v-1.06h-.72v-1.08h-1.26v1.08h-.42v1.06h.42v2.53h1.26zM-59.66 150.48v5.8h1.27v-1.9q0-.37.17-.56t.5-.2q.23 0 .4.16.19.16.18.7v1.8h1.27v-2.27q0-.64-.35-1.01-.35-.38-1.02-.38-.36 0-.63.1-.26.12-.52.43v-2.67zM-55.01 152.7v3.59h1.27v-1.54q0-.5.22-.77.22-.26.66-.26.3 0 .54.13v-1.21q-.15-.03-.24-.02a1.3 1.3 0 0 0-1.18.67v-.6zM-50.57 154.7h2.67v-.13q0-.94-.52-1.47a2 2 0 0 0-1.43-.53q-.94.01-1.46.52-.53.52-.54 1.42 0 .88.57 1.39.27.25.64.39.38.13.84.13 1.48 0 1.85-1.23h-1.22q-.21.34-.63.34-.77 0-.77-.82m1.49-.74h-1.45q.05-.28.23-.43.19-.16.48-.16t.48.16q.2.17.26.43M-44.4 152.7v.36q-.45-.47-1.12-.47-.4 0-.73.15t-.56.4q-.24.27-.38.61-.13.35-.13.73 0 .42.14.77.13.35.38.6.24.26.57.4t.72.15q.7 0 1.1-.51v.4h1.28v-3.6zm-1.6 1.8a.8.8 0 0 1 .83-.81.8.8 0 0 1 .57.24c.15.14.25.36.25.58q-.01.34-.25.57a.8.8 0 0 1-.57.24.8.8 0 0 1-.82-.83M-39.5 150.48v2.58q-.44-.47-1.11-.47a1.75 1.75 0 0 0-1.67 1.16 2 2 0 0 0 0 1.49 1.9 1.9 0 0 0 .96 1.01q.33.15.72.15.7 0 1.1-.51v.4h1.27v-5.81zm-1.6 4q.01-.34.25-.56a.8.8 0 0 1 .57-.24.8.8 0 0 1 .58.24c.14.14.24.36.24.58q-.02.34-.24.57a.8.8 0 0 1-.58.24.8.8 0 0 1-.82-.83M-36.22 154.7h2.66v-.13q0-.94-.51-1.47a2 2 0 0 0-1.44-.53q-.92.01-1.46.52-.52.52-.54 1.42.01.88.57 1.39.27.25.65.39.38.13.83.13 1.48 0 1.85-1.23h-1.22q-.21.34-.62.34-.77 0-.77-.82m1.48-.74h-1.45q.05-.28.24-.43.18-.16.48-.16.27 0 .47.16.2.17.26.43M-30.06 150.48v2.58q-.45-.47-1.12-.47a1.75 1.75 0 0 0-1.67 1.16 2 2 0 0 0 .01 1.49 1.9 1.9 0 0 0 .96 1.01q.33.15.72.15.7 0 1.1-.51v.4h1.27v-5.81zm-1.6 4q.02-.34.24-.56a.8.8 0 0 1 .58-.24.8.8 0 0 1 .58.24c.14.14.24.36.24.58q-.02.34-.24.57a.8.8 0 0 1-.58.24.8.8 0 0 1-.82-.83M-28.36 156.67v.87h3.95v-.87zM-24.06 151.32q0 .3.21.5a.7.7 0 0 0 1.01 0 .7.7 0 0 0 0-1 .7.7 0 0 0-1 0 .7.7 0 0 0-.22.5M-22.7 152.7h-1.27v3.59h1.26zM-21.84 152.7v3.59h1.27v-1.92q0-.36.17-.55t.5-.2q.24 0 .4.16.1.1.14.27.04.16.04.43v1.8h1.27v-2.27q0-.29-.06-.51t-.2-.41q-.2-.22-.47-.35t-.64-.12q-.36 0-.63.1-.26.12-.52.43v-.45zM38.77 148.2H27.63a.23.23 0 0 0-.23.23v2.44a.23.23 0 0 0 .23.23h1.86a.23.23 0 0 1 .23.23v5.34a.23.23 0 0 1-.23.23h-1.86a.23.23 0 0 0-.23.23v2.44a.23.23 0 0 0 .23.23h11.14a.23.23 0 0 0 .23-.23v-2.44a.23.23 0 0 0-.23-.23H36.9a.23.23 0 0 1-.23-.23v-5.34a.23.23 0 0 1 .23-.23h1.86a.23.23 0 0 0 .23-.23v-2.44a.23.23 0 0 0-.23-.23m-.55 10.9h-.99l-1.5-1.5h.98zm-1.88 0h-.98l-1.51-1.5h.98zm-1.88 0h-.99l-1.5-1.5h.98zm-1.88 0h-.98l-1.51-1.5h.98zm-1.88 0h-.99l-1.5-1.5h.98zm7.55-8.7h-.99l-1.5-1.5h.98zm-1.88 0h-.98l-1.51-1.5h.98zm-1.88 0h-.99l-1.5-1.5h.98zm-1.88 0h-.98l-1.51-1.5h.98zm-1.88 0h-.99l-1.5-1.5h.98zM-13.3 167.62l.43-.82a3 3 0 0 0-1.16-.23q-.36 0-.66.09-.6.18-.83.66-.1.25-.11.55 0 .41.23.64t.83.36q.34.07.44.13.06.04.08.09l.02.11q0 .12-.12.2a.5.5 0 0 1-.28.08 2 2 0 0 1-1.01-.37l-.46.9q.7.4 1.43.41c.5 0 .94-.13 1.23-.36q.46-.35.48-.99 0-.84-1.04-1.06l-.3-.07q-.23-.06-.26-.14l-.02-.1q0-.12.11-.19a1 1 0 0 1 .28-.07q.34 0 .7.18M-10.6 167.76h.72v-1.06h-.72v-1.08h-1.27v1.08h-.42v1.06h.42v2.53h1.27zM-9.48 168.46q0 .44.16.8t.44.62.68.4.85.14.87-.14.7-.4.44-.6.17-.78-.16-.78-.45-.61-.7-.4-.85-.14-.86.14-.69.4-.44.6-.16.75m1.33.02q.02-.35.24-.58a.8.8 0 0 1 .58-.24.8.8 0 0 1 .58.24q.22.24.24.58-.01.35-.24.6a.8.8 0 0 1-.58.23.8.8 0 0 1-.58-.24.8.8 0 0 1-.24-.6M-4.44 166.7v3.59h1.26v-1.54q0-.5.22-.77.22-.26.67-.26.29 0 .54.13v-1.21q-.15-.03-.24-.02a1.3 1.3 0 0 0-1.19.67v-.6zM-.68 167q0 .38.1.6t.38.4a1 1 0 0 0-.38.37c-.07.15-.1.33-.1.62v1.17q.01.29-.09.38t-.4.08h-.14v.9h.59q.57 0 .82-.25.24-.27.24-.88v-1.33q0-.5.43-.6v-.86q-.24-.05-.33-.2t-.1-.48v-1.32q0-.63-.25-.89-.26-.25-.8-.25h-.6v.9h.15q.3-.01.39.08t.1.38zM-65.72 169q.01-.4-.1-.61a1 1 0 0 0-.38-.4q.28-.18.38-.38a1 1 0 0 0 .08-.25l.02-.37v-1.17q-.02-.28.09-.37.1-.1.4-.08h.14v-.91h-.58q-.58 0-.83.26-.24.26-.24.88v1.32q0 .52-.43.6v.87q.24.04.34.2.1.15.1.47v1.33q0 .62.24.88.24.27.8.26h.6v-.91h-.15q-.31 0-.4-.09-.08-.09-.08-.37zM-63.34 166.7h-1.43l1.85 3.59h.85l1.86-3.6h-1.41l-.87 1.85zM-57.17 166.7v.36q-.45-.47-1.12-.47-.4 0-.73.15t-.56.4q-.24.27-.37.61-.14.35-.14.73 0 .42.14.77t.38.6.58.4q.32.15.72.15.69 0 1.1-.51v.4h1.27v-3.6zm-1.6 1.8a.8.8 0 0 1 .82-.81.8.8 0 0 1 .58.24c.14.14.24.36.24.58q-.02.34-.24.57a.8.8 0 0 1-.58.24.8.8 0 0 1-.82-.83M-55.04 166.7v3.59h1.27v-1.54q0-.5.22-.77.22-.26.66-.26.3 0 .55.13v-1.21q-.15-.03-.25-.02a1.3 1.3 0 0 0-1.18.67v-.6zM-50.51 166.7h-1.27v3.59h1.27zM-51.86 165.32q.01.3.2.5a.7.7 0 0 0 1.02 0 .7.7 0 0 0 0-1 .7.7 0 0 0-1.01 0 .7.7 0 0 0-.21.5M-46.87 166.7v.36q-.44-.47-1.11-.47-.4 0-.73.15t-.57.4q-.24.27-.37.61-.13.35-.13.73 0 .42.13.77.14.35.38.6.25.26.58.4t.72.15q.7 0 1.1-.51v.4h1.27v-3.6zm-1.6 1.8a.8.8 0 0 1 .82-.81.8.8 0 0 1 .58.24c.14.14.24.36.24.58q-.02.34-.24.57a.8.8 0 0 1-.58.24.8.8 0 0 1-.82-.83M-43.47 164.48h-1.27v5.8h1.27v-.39q.4.51 1.1.51.4 0 .72-.15.34-.15.58-.4.25-.27.38-.62.14-.35.14-.75 0-.39-.13-.74-.14-.34-.37-.6t-.57-.4-.73-.15q-.67 0-1.12.47zm1.6 4.02q-.01.34-.24.57a.8.8 0 0 1-.58.24.8.8 0 0 1-.58-.24.8.8 0 0 1-.23-.57q.02-.35.24-.58a.81.81 0 0 1 1.15 0q.23.24.24.58M-38.56 164.48h-1.27v5.8h1.27zM-36.55 168.7h2.66v-.13q0-.94-.51-1.47a2 2 0 0 0-1.44-.53q-.92.01-1.46.52-.53.52-.53 1.42.01.88.56 1.39.27.25.65.39.38.13.83.13 1.48 0 1.85-1.23h-1.22q-.21.34-.62.34-.77 0-.77-.82m1.48-.74h-1.45q.05-.28.24-.43.18-.16.48-.16.28 0 .47.16.2.17.26.43M-33.6 170.67v.87h3.96v-.87zM-29.21 166.7v3.59h1.27v-1.54q0-.5.22-.77.22-.26.66-.26.3 0 .54.13v-1.21q-.14-.03-.24-.02a1.3 1.3 0 0 0-1.18.67v-.6zM-24.77 168.7h2.67v-.13q0-.94-.52-1.47a2 2 0 0 0-1.43-.53q-.93.01-1.46.52-.52.52-.54 1.42.02.88.57 1.39.28.25.64.39.38.13.84.13 1.48 0 1.85-1.23h-1.22q-.21.34-.63.34-.77 0-.77-.82m1.49-.74h-1.45q.05-.28.23-.43.19-.16.48-.16t.48.16q.2.17.26.43M-19 167.62l.43-.82a3 3 0 0 0-1.16-.23q-.36 0-.66.09-.6.18-.83.66-.1.25-.1.55 0 .41.23.64t.82.36q.34.07.45.13.05.04.07.09l.02.11q0 .12-.11.2a.5.5 0 0 1-.3.08 2 2 0 0 1-1-.37l-.46.9q.7.4 1.43.41c.5 0 .94-.13 1.24-.36q.46-.35.47-.99 0-.84-1.04-1.06l-.3-.07q-.23-.06-.26-.14l-.02-.1q0-.12.11-.19a.5.5 0 0 1 .29-.07q.33 0 .68.18M-16.55 166.7h-1.26v3.59h1.26zM-17.9 165.32q0 .3.21.5a.7.7 0 0 0 1.01 0 .7.7 0 0 0 0-1 .7.7 0 0 0-1 0 .7.7 0 0 0-.22.5M22.43 167.64v.72h4.58v1.8h4.53l-1.8 3.1a.36.36 0 0 0 .63.36l2-3.47h7.02v-1.8h4.58v-.7h-4.58v-1.8h-4.53l1.12-1.95v1.35a.36.36 0 0 0 .72 0v-2.7a.36.36 0 0 0-.54-.3l-2.33 1.34a.36.36 0 0 0 .36.63l1.17-.68-1.33 2.3H27v1.8zm9.53 1.8h-4.23v-2.88h5.88zm2.48-2.88h4.23v2.88H32.8zM-32.43 181.63l.43-.83a3 3 0 0 0-1.15-.23q-.37 0-.67.1-.6.17-.83.66-.1.24-.1.54 0 .42.23.65t.82.35l.28.07q.22.06.24.16l.02.11q0 .12-.11.2a.5.5 0 0 1-.29.07 2 2 0 0 1-1-.36l-.47.9q.7.4 1.43.4.77 0 1.24-.35t.47-1q0-.84-1.04-1.06-.2-.04-.3-.07-.23-.05-.26-.13l-.01-.1q0-.12.1-.2a.5.5 0 0 1 .29-.06q.33 0 .68.18M-31.24 178.49v5.8h1.26v-1.91q0-.36.18-.55t.49-.2q.24 0 .4.15.2.18.19.7v1.82h1.26V182q0-.63-.34-1-.35-.38-1.03-.38-.36 0-.62.1-.27.12-.53.43v-2.67zM-25.45 182.71h2.66v-.13q0-.94-.52-1.48a2 2 0 0 0-1.43-.53q-.93.02-1.46.53-.52.5-.54 1.42.02.88.57 1.38.27.25.65.4.38.13.83.13 1.48 0 1.85-1.23h-1.22q-.21.33-.62.33-.77 0-.77-.82m1.48-.73h-1.45q.05-.28.24-.43.18-.16.47-.16t.48.16q.2.16.26.43M-22.07 180.7v3.6h1.27v-1.54q0-.5.22-.77.22-.26.66-.26.3 0 .55.12v-1.2q-.15-.03-.25-.02a1.3 1.3 0 0 0-1.18.66v-.58zM-18.3 181q-.01.38.1.6.1.23.38.4a1 1 0 0 0-.38.38q-.1.2-.1.61v1.18q0 .29-.09.38-.1.09-.4.07h-.14v.91h.59q.57 0 .81-.26t.24-.88v-1.32q0-.5.44-.6v-.86q-.24-.05-.34-.2t-.1-.48v-1.32q0-.63-.25-.89-.25-.25-.79-.25h-.6v.9h.15q.29-.02.39.08.1.09.09.37zM-48.1 183q.01-.38-.1-.6a1 1 0 0 0-.38-.4c.2-.13.32-.23.39-.38l.07-.25.02-.37v-1.17q0-.29.09-.38.1-.09.4-.07h.14v-.91h-.58q-.58 0-.82.26t-.24.88v1.32q0 .52-.44.6v.86q.24.05.34.2t.1.48v1.32c0 .43.07.7.24.89q.24.26.8.25h.6v-.9h-.15q-.3 0-.4-.09-.09-.1-.08-.37zM-45.73 180.7h-1.42l1.84 3.6h.86l.86-1.97.9 1.97h.84l1.88-3.6h-1.4l-.91 1.95-.9-1.94h-.8l-.9 1.88zM-36.94 180.7v.36q-.45-.47-1.11-.47a1.7 1.7 0 0 0-1.67 1.17q-.13.34-.13.73 0 .42.13.76.15.36.38.61a1.7 1.7 0 0 0 1.3.55q.7 0 1.1-.51v.4h1.27v-3.6zm-1.6 1.79a.8.8 0 0 1 .82-.8.8.8 0 0 1 .58.23q.22.24.24.58-.02.35-.24.58a.8.8 0 0 1-.58.24.8.8 0 0 1-.82-.83"/></g></svg>