<?xml version='1.0' encoding='utf-8'?>
<svg width="100.124083mm" height="79.303103mm" viewBox="-67.229908 -3.593921 117.988829 93.452843" version="1.1" xmlns="http://www.w3.org/2000/svg">
  <g transform="scale(1,-1)" stroke-linecap="round">
    <g fill="rgb(0,0,0)" stroke="rgb(0,0,0)" stroke-width="0.11784260615454104" id="Visible">
      <path d="M 17.971995,2.639002 L 16.6,2.639002 L 16.6,-2.639002 L 19.616995,-2.639002 L 19.616995,-1.477007 L 17.971995,-1.477007 L 17.971995,2.639002" />
      <path d="M -34.904495,-1.624014 C -34.90598,-1.402905 -34.814826,-1.190573 -34.666502,-1.043005 C -34.518916,-0.8947 -34.306617,-0.803512 -34.085505,-0.805 C -33.864393,-0.803512 -33.652093,-0.8947 -33.504507,-1.043005 C -33.356183,-1.190573 -33.265029,-1.402905 -33.266514,-1.624014 C -33.265029,-1.845126 -33.356184,-2.057426 -33.504507,-2.205011 C -33.652093,-2.353334 -33.864393,-2.44449 -34.085505,-2.443005 C -34.306617,-2.44449 -34.518917,-2.353334 -34.666502,-2.205011 C -34.814825,-2.057426 -34.90598,-1.845126 -34.904495,-1.624014" />
      <path d="M -32.524495,-1.624014 C -32.52598,-1.402905 -32.434826,-1.190573 -32.286502,-1.043005 C -32.138916,-0.8947 -31.926617,-0.803512 -31.705505,-0.805 C -31.484393,-0.803512 -31.272093,-0.8947 -31.124507,-1.043005 C -30.976183,-1.190573 -30.885029,-1.402905 -30.886514,-1.624014 C -30.885029,-1.845126 -30.976184,-2.057426 -31.124507,-2.205011 C -31.272093,-2.353334 -31.484393,-2.44449 -31.705505,-2.443005 C -31.926617,-2.44449 -32.138917,-2.353334 -32.286502,-2.205011 C -32.434825,-2.057426 -32.52598,-1.845126 -32.524495,-1.624014" />
      <path d="M -29.570505,1.000986 C -29.569437,0.748157 -29.548945,0.559253 -29.479337,0.402917 C -29.40948,0.24261 -29.28177,0.123115 -29.094495,-0.0 C -29.2796,-0.122386 -29.398431,-0.225481 -29.469433,-0.378901 C -29.540924,-0.532881 -29.570323,-0.720203 -29.570505,-0.994014 L -29.570505,-2.17 C -29.572306,-2.364106 -29.585483,-2.481443 -29.658425,-2.548407 C -29.730091,-2.616401 -29.858829,-2.622751 -30.060505,-2.625 L -30.200505,-2.625 L -30.200505,-3.535 L -29.6125,-3.535 C -29.277246,-3.53611 -28.971206,-3.464933 -28.796042,-3.271449 C -28.615508,-3.074761 -28.555121,-2.746281 -28.555505,-2.394014 L -28.555505,-1.071009 C -28.556175,-0.892655 -28.512755,-0.732194 -28.410013,-0.623491 C -28.335746,-0.54608 -28.239579,-0.494588 -28.121514,-0.469014 L -28.121514,0.391995 C -28.277849,0.42323 -28.389975,0.489929 -28.457892,0.592094 C -28.526645,0.697671 -28.555655,0.866402 -28.555505,1.070986 L -28.555505,2.393991 C -28.555068,2.751294 -28.61714,3.086028 -28.806493,3.278472 C -28.986041,3.463479 -29.276653,3.536146 -29.598509,3.535 L -30.200505,3.535 L -30.200505,2.631995 L -30.053509,2.631995 C -29.860524,2.62976 -29.737007,2.623276 -29.665421,2.55538 C -29.593196,2.488406 -29.571522,2.37111 -29.570505,2.176995 L -29.570505,1.000986" />
      <path d="M -22.535505,-2.296009 L -24.194495,-0.133005 C -23.840516,-0.051542 -23.532419,0.116585 -23.332731,0.380026 C -23.204926,0.549475 -23.12076,0.74516 -23.080233,0.967082 C -23.039229,1.189393 -23.034007,1.439747 -23.072435,1.669542 C -23.124957,1.985688 -23.263198,2.279734 -23.482663,2.504887 C -23.632312,2.657 -23.812709,2.773435 -24.023854,2.854192 C -24.257741,2.945514 -24.519943,2.982063 -24.789495,2.981995 L -26.924495,2.981995 L -26.924495,-2.296009 L -25.5525,-2.296009 L -25.5525,-0.266009 L -24.243509,-2.296009 L -22.535505,-2.296009 M -25.5525,0.622982 L -25.5525,1.925 L -25.293509,1.925 C -25.047557,1.925383 -24.832347,1.877617 -24.681029,1.764963 C -24.530783,1.655283 -24.454725,1.487771 -24.453565,1.284033 C -24.450149,1.07558 -24.52275,0.902851 -24.672244,0.789645 C -24.823935,0.672331 -25.042757,0.622548 -25.293509,0.622982 L -25.5525,0.622982" />
      <path d="M -42.4925,2.981995 L -43.864495,2.981995 L -43.864495,-2.296009 L -40.8475,-2.296009 L -40.8475,-1.134014 L -42.4925,-1.134014 L -42.4925,2.981995" />
      <path d="M -38.6075,-1.001009 C -38.608915,-0.74362 -38.628367,-0.552303 -38.705965,-0.394581 C -38.782116,-0.238473 -38.898422,-0.120989 -39.083509,-0.0 C -38.899481,0.131792 -38.772074,0.232991 -38.701599,0.38236 C -38.666535,0.455306 -38.642116,0.539401 -38.628341,0.634647 C -38.614272,0.733268 -38.607325,0.855381 -38.6075,1.000986 L -38.6075,2.17 C -38.605699,2.364075 -38.592521,2.481423 -38.519579,2.548385 C -38.44791,2.616376 -38.319209,2.622754 -38.1175,2.625 L -37.9775,2.625 L -37.9775,3.535 L -38.558509,3.535 C -38.896571,3.536062 -39.206106,3.46561 -39.381974,3.271449 C -39.562503,3.074757 -39.622883,2.746266 -39.6225,2.393991 L -39.6225,1.070986 C -39.621744,0.883844 -39.667177,0.715706 -39.777186,0.607175 C -39.850363,0.53592 -39.943472,0.489858 -40.056514,0.468991 L -40.056514,-0.392018 C -39.900164,-0.423252 -39.788031,-0.489951 -39.720113,-0.592116 C -39.65136,-0.697694 -39.62235,-0.866425 -39.6225,-1.071009 L -39.6225,-2.394014 C -39.622552,-2.790704 -39.55317,-3.091582 -39.376502,-3.280598 C -39.20462,-3.46856 -38.93604,-3.533908 -38.579518,-3.535 L -37.9775,-3.535 L -37.9775,-2.625 L -38.124518,-2.625 C -38.33584,-2.623579 -38.455309,-2.608782 -38.523117,-2.541401 C -38.590906,-2.475054 -38.606059,-2.354567 -38.6075,-2.17 L -38.6075,-1.001009" />
      <path d="M -37.284495,-1.624014 C -37.28598,-1.402905 -37.194826,-1.190573 -37.046502,-1.043005 C -36.898916,-0.8947 -36.686617,-0.803512 -36.465505,-0.805 C -36.244393,-0.803512 -36.032093,-0.8947 -35.884507,-1.043005 C -35.736183,-1.190573 -35.645029,-1.402905 -35.646514,-1.624014 C -35.645029,-1.845126 -35.736184,-2.057426 -35.884507,-2.205011 C -36.032093,-2.353334 -36.244393,-2.44449 -36.465505,-2.443005 C -36.686617,-2.44449 -36.898917,-2.353334 -37.046502,-2.205011 C -37.194825,-2.057426 -37.28598,-1.845126 -37.284495,-1.624014" />
      <path d="M 49.8,-2.639002 L 48.141009,-0.475998 C 48.494988,-0.394536 48.803085,-0.226409 49.002774,0.037033 C 49.130578,0.206482 49.214744,0.402167 49.255272,0.624089 C 49.296276,0.8464 49.301497,1.096754 49.263069,1.326549 C 49.210548,1.642695 49.072307,1.936741 48.852841,2.161894 C 48.703192,2.314007 48.522795,2.430442 48.31165,2.511199 C 48.077764,2.60252 47.815562,2.63907 47.546009,2.639002 L 45.411009,2.639002 L 45.411009,-2.639002 L 46.783004,-2.639002 L 46.783004,-0.609002 L 48.091995,-2.639002 L 49.8,-2.639002 M 46.783004,0.279989 L 46.783004,1.582007 L 47.041995,1.582007 C 47.287948,1.58239 47.503158,1.534624 47.654475,1.42197 C 47.804722,1.31229 47.88078,1.144778 47.88194,0.94104 C 47.885355,0.732587 47.812754,0.559858 47.663261,0.446652 C 47.511569,0.329338 47.292748,0.279555 47.041995,0.279989 L 46.783004,0.279989" />
      <path d="M -31.873498,-15.624014 C -31.874982,-15.402905 -31.783828,-15.190573 -31.635505,-15.043005 C -31.487918,-14.8947 -31.275619,-14.803512 -31.054507,-14.805 C -30.833395,-14.803512 -30.621096,-14.8947 -30.473509,-15.043005 C -30.325186,-15.190573 -30.234031,-15.402905 -30.235516,-15.624014 C -30.234031,-15.845126 -30.325187,-16.057426 -30.473509,-16.205011 C -30.621095,-16.353334 -30.833395,-16.44449 -31.054507,-16.443005 C -31.275619,-16.44449 -31.487919,-16.353334 -31.635505,-16.205011 C -31.783827,-16.057426 -31.874983,-15.845126 -31.873498,-15.624014" />
      <path d="M -25.944507,-12.18 L -25.944507,-11.018005 L -28.709507,-11.018005 L -29.150516,-13.853005 C -28.834591,-13.706864 -28.493819,-13.63896 -28.178252,-13.636059 C -27.989846,-13.634539 -27.818279,-13.656444 -27.663549,-13.701773 C -27.517098,-13.744985 -27.388221,-13.810029 -27.276919,-13.896906 C -27.169592,-13.980763 -27.090507,-14.078357 -27.039665,-14.189689 C -26.984378,-14.309495 -26.963924,-14.452417 -26.977609,-14.596241 C -26.997522,-14.795036 -27.086651,-14.962296 -27.244994,-15.098023 C -27.400882,-15.228574 -27.601445,-15.296424 -27.846683,-15.301573 C -28.08287,-15.306801 -28.327899,-15.253689 -28.581771,-15.142236 C -28.827019,-15.034459 -29.063268,-14.882383 -29.290516,-14.686009 L -29.493498,-15.974014 Q -29.017257,-16.273001 -28.461667,-16.379064 Q -28.131875,-16.442728 -27.785943,-16.442997 Q -27.5715,-16.443539 -27.36924,-16.419933 Q -27.049305,-16.382672 -26.766216,-16.281542 Q -26.442492,-16.166686 -26.193005,-15.968379 Q -25.877254,-15.71481 -25.710929,-15.344607 Q -25.557671,-14.99764 -25.559507,-14.587004 Q -25.558759,-14.230301 -25.671376,-13.912504 Q -25.79985,-13.556346 -26.043918,-13.293043 Q -26.307244,-13.012212 -26.681205,-12.862487 Q -26.984096,-12.741372 -27.322555,-12.727899 Q -27.471983,-12.721878 -27.616169,-12.735039 Q -27.730546,-12.746301 -27.862511,-12.761009 L -27.771502,-12.18 L -25.944507,-12.18" />
      <path d="M -24.159507,-12.999014 C -24.158439,-13.251843 -24.137948,-13.440747 -24.068339,-13.597083 C -23.998482,-13.75739 -23.870773,-13.876885 -23.683498,-14.0 C -23.868602,-14.122386 -23.987433,-14.225481 -24.058436,-14.378901 C -24.129927,-14.532881 -24.159325,-14.720203 -24.159507,-14.994014 L -24.159507,-16.17 C -24.161308,-16.364106 -24.174486,-16.481443 -24.247428,-16.548407 C -24.319093,-16.616401 -24.447831,-16.622751 -24.649507,-16.625 L -24.789507,-16.625 L -24.789507,-17.535 L -24.201502,-17.535 C -23.866248,-17.53611 -23.560208,-17.464933 -23.385044,-17.271449 C -23.20451,-17.074761 -23.144123,-16.746281 -23.144507,-16.394014 L -23.144507,-15.071009 C -23.145177,-14.892655 -23.101757,-14.732194 -22.999015,-14.623491 C -22.924748,-14.54608 -22.828581,-14.494588 -22.710516,-14.469014 L -22.710516,-13.608005 C -22.866851,-13.57677 -22.978977,-13.510071 -23.046894,-13.407906 C -23.115647,-13.302329 -23.144657,-13.133598 -23.144507,-12.929014 L -23.144507,-11.606009 C -23.14407,-11.248706 -23.206143,-10.913972 -23.395495,-10.721528 C -23.575043,-10.536521 -23.865655,-10.463854 -24.187511,-10.465 L -24.789507,-10.465 L -24.789507,-11.368005 L -24.642511,-11.368005 C -24.449526,-11.37024 -24.326009,-11.376724 -24.254423,-11.44462 C -24.182198,-11.511594 -24.160524,-11.62889 -24.159507,-11.823005 L -24.159507,-12.999014" />
      <path d="M -20.435493,-11.228005 L -19.721502,-11.228005 L -19.721502,-10.486009 L -21.436502,-10.486009 L -21.436502,-17.507018 L -19.721502,-17.507018 L -19.721502,-16.758005 L -20.435493,-16.758005 L -20.435493,-11.228005" />
      <path d="M -45.964507,-16.765 L -46.678498,-16.765 L -46.678498,-17.507018 L -44.956502,-17.507018 L -44.956502,-10.486009 L -46.678498,-10.486009 L -46.678498,-11.235 L -45.964507,-11.235 L -45.964507,-16.765" />
      <path d="M -42.240493,-15.001009 C -42.241908,-14.74362 -42.261361,-14.552303 -42.338958,-14.394581 C -42.415109,-14.238473 -42.531415,-14.120989 -42.716502,-14.0 C -42.532474,-13.868208 -42.405067,-13.767009 -42.334592,-13.61764 C -42.299528,-13.544694 -42.275109,-13.460599 -42.261335,-13.365353 C -42.247265,-13.266732 -42.240318,-13.144619 -42.240493,-12.999014 L -42.240493,-11.83 C -42.238692,-11.635925 -42.225514,-11.518577 -42.152572,-11.451615 C -42.080903,-11.383624 -41.952202,-11.377246 -41.750493,-11.375 L -41.610493,-11.375 L -41.610493,-10.465 L -42.191502,-10.465 C -42.529564,-10.463938 -42.839099,-10.53439 -43.014967,-10.728551 C -43.195496,-10.925243 -43.255877,-11.253734 -43.255493,-11.606009 L -43.255493,-12.929014 C -43.254737,-13.116156 -43.30017,-13.284294 -43.41018,-13.392825 C -43.483356,-13.46408 -43.576465,-13.510142 -43.689507,-13.531009 L -43.689507,-14.392018 C -43.533157,-14.423252 -43.421024,-14.489951 -43.353106,-14.592116 C -43.284353,-14.697694 -43.255343,-14.866425 -43.255493,-15.071009 L -43.255493,-16.394014 C -43.255546,-16.790704 -43.186163,-17.091582 -43.009495,-17.280598 C -42.837613,-17.46856 -42.569033,-17.533908 -42.212511,-17.535 L -41.610493,-17.535 L -41.610493,-16.625 L -41.757511,-16.625 C -41.968833,-16.623579 -42.088302,-16.608782 -42.15611,-16.541401 C -42.223899,-16.475054 -42.239052,-16.354567 -42.240493,-16.17 L -42.240493,-15.001009" />
      <path d="M -39.433498,-12.18 L -39.433498,-16.296009 L -38.061502,-16.296009 L -38.061502,-11.018005 L -40.203498,-11.018005 L -40.203498,-12.18 L -39.433498,-12.18" />
      <path d="M -32.559507,-16.296009 L -32.559507,-15.134014 L -34.267511,-15.134014 L -33.392511,-14.315 C -33.143994,-14.079335 -32.936673,-13.828969 -32.803793,-13.567992 C -32.677108,-13.317359 -32.61435,-13.047165 -32.615519,-12.757411 C -32.615365,-12.520573 -32.656201,-12.296131 -32.738026,-12.084085 C -32.805969,-11.911112 -32.896342,-11.753576 -33.009142,-11.611477 C -33.223394,-11.341538 -33.515227,-11.137935 -33.85436,-11.014164 C -34.107982,-10.922114 -34.377345,-10.876728 -34.662449,-10.878006 C -35.158768,-10.875413 -35.627006,-11.026301 -35.981013,-11.311836 C -36.217694,-11.501627 -36.403297,-11.748061 -36.526685,-12.03285 C -36.647428,-12.307166 -36.703893,-12.613908 -36.703498,-12.936009 L -35.205516,-12.936009 C -35.219917,-12.835516 -35.226907,-12.758952 -35.226485,-12.706318 C -35.225715,-12.572711 -35.196343,-12.455439 -35.138371,-12.354501 C -35.096106,-12.281156 -35.037103,-12.212972 -34.967926,-12.167136 C -34.876156,-12.1056 -34.763893,-12.074888 -34.631137,-12.075 C -34.448154,-12.073085 -34.313125,-12.142734 -34.211636,-12.244752 C -34.125025,-12.331984 -34.070205,-12.44684 -34.048018,-12.569936 C -34.040027,-12.613638 -34.036195,-12.658108 -34.036522,-12.703345 C -34.037119,-12.778511 -34.049127,-12.869304 -34.072545,-12.975723 C -34.098166,-13.08707 -34.159085,-13.228671 -34.255301,-13.400524 C -34.346068,-13.561222 -34.472191,-13.746136 -34.63367,-13.955267 C -34.849333,-14.237923 -35.15072,-14.575256 -35.499507,-14.938005 L -36.808498,-16.296009 L -32.559507,-16.296009" />
      <path d="M 40.454507,-11.231491 L 41.168498,-11.231491 L 41.168498,-10.489495 L 39.453498,-10.489495 L 39.453498,-17.510505 L 41.168498,-17.510505 L 41.168498,-16.761491 L 40.454507,-16.761491 L 40.454507,-11.231491" />
      <path d="M 25.945493,-16.768486 L 25.231502,-16.768486 L 25.231502,-17.510505 L 26.953498,-17.510505 L 26.953498,-10.489495 L 25.231502,-10.489495 L 25.231502,-11.238486 L 25.945493,-11.238486 L 25.945493,-16.768486" />
      <path d="M -28.481995,-27.075998 L -28.481995,-27.937007 C -28.377301,-27.919072 -28.304305,-27.901244 -28.208815,-27.902007 C -28.015588,-27.902035 -27.849937,-27.964574 -27.711862,-28.089624 C -27.59236,-28.200332 -27.529578,-28.357453 -27.523516,-28.560985 C -27.518359,-28.711286 -27.546942,-28.844154 -27.609263,-28.959587 C -27.637881,-29.012709 -27.67376,-29.061482 -27.716902,-29.105907 C -27.830751,-29.218475 -27.999849,-29.274507 -28.224194,-29.274002 C -28.45346,-29.27401 -28.636163,-29.208792 -28.772303,-29.078349 C -28.905899,-28.949004 -28.977135,-28.762219 -28.986009,-28.517993 L -30.343991,-28.517993 Q -30.344012,-28.756716 -30.298132,-28.988843 Q -30.251347,-29.221791 -30.12,-29.449002 C -29.979126,-29.698064 -29.794855,-29.910788 -29.570249,-30.067461 C -29.345526,-30.223824 -29.084034,-30.324775 -28.812493,-30.384307 C -28.626003,-30.423877 -28.434159,-30.44344 -28.236961,-30.442993 C -27.956234,-30.444291 -27.68862,-30.405897 -27.434118,-30.327811 C -27.180705,-30.249513 -26.956319,-30.131979 -26.760959,-29.97521 C -26.560402,-29.812321 -26.406601,-29.614015 -26.299555,-29.380292 C -26.189456,-29.140123 -26.145916,-28.866553 -26.160773,-28.589816 C -26.174518,-28.326771 -26.248425,-28.083492 -26.390146,-27.884908 C -26.54074,-27.670505 -26.75883,-27.519611 -27.018991,-27.439989 C -26.841571,-27.324071 -26.703779,-27.183034 -26.605615,-27.016877 C -26.50885,-26.851106 -26.465874,-26.640591 -26.466009,-26.404841 C -26.465896,-26.300597 -26.474128,-26.200023 -26.490703,-26.10312 C -26.531792,-25.860736 -26.630762,-25.638817 -26.775216,-25.458153 C -26.952875,-25.235833 -27.202336,-25.073132 -27.4954,-24.975824 C -27.711538,-24.905 -27.94455,-24.870058 -28.194437,-24.870998 C -28.3137,-24.870899 -28.429262,-24.878752 -28.541121,-24.894558 C -28.878063,-24.942154 -29.182439,-25.066838 -29.426194,-25.262375 C -29.614356,-25.41405 -29.76621,-25.603123 -29.881756,-25.829594 C -29.999033,-26.060593 -30.073784,-26.317391 -30.106009,-26.599989 L -28.838991,-26.599989 C -28.839483,-26.463735 -28.808291,-26.345351 -28.745413,-26.244836 C -28.69991,-26.173035 -28.63697,-26.110407 -28.566109,-26.069505 C -28.483,-26.021512 -28.387257,-25.997675 -28.27888,-25.997993 C -28.109644,-25.997657 -27.972912,-26.054213 -27.868684,-26.167664 C -27.785709,-26.260248 -27.742876,-26.375482 -27.740186,-26.513367 C -27.737388,-26.62485 -27.759973,-26.723694 -27.807941,-26.809899 C -27.84859,-26.882675 -27.911536,-26.948133 -27.983975,-26.994075 C -28.07833,-27.053212 -28.189345,-27.082849 -28.317019,-27.082984 C -28.355599,-27.082135 -28.404014,-27.086326 -28.481995,-27.075998" />
      <path d="M -21.895,-26.179989 L -21.895,-25.017993 L -24.66,-25.017993 L -25.101009,-27.852993 C -24.785084,-27.706853 -24.444312,-27.638948 -24.128745,-27.636048 C -23.94034,-27.634528 -23.768772,-27.656432 -23.614042,-27.701761 C -23.467591,-27.744974 -23.338714,-27.810018 -23.227412,-27.896895 C -23.120085,-27.980751 -23.041,-28.078346 -22.990158,-28.189678 C -22.934871,-28.309484 -22.914417,-28.452406 -22.928102,-28.59623 C -22.948016,-28.795024 -23.037144,-28.962285 -23.195487,-29.098012 C -23.351375,-29.228563 -23.551938,-29.296413 -23.797176,-29.301562 C -24.033363,-29.30679 -24.278392,-29.253677 -24.532264,-29.142224 C -24.777513,-29.034448 -25.013761,-28.882372 -25.241009,-28.685998 L -25.443991,-29.974002 Q -24.96775,-30.27299 -24.41216,-30.379053 Q -24.082369,-30.442717 -23.736437,-30.442986 Q -23.521993,-30.443527 -23.319733,-30.419921 Q -22.999798,-30.382661 -22.716709,-30.281531 Q -22.392985,-30.166675 -22.143498,-29.968368 Q -21.827747,-29.714799 -21.661423,-29.344595 Q -21.508164,-28.997629 -21.51,-28.586992 Q -21.509252,-28.23029 -21.621869,-27.912493 Q -21.750343,-27.556335 -21.994411,-27.293032 Q -22.257737,-27.0122 -22.631698,-26.862475 Q -22.934589,-26.74136 -23.273048,-26.727887 Q -23.422476,-26.721866 -23.566662,-26.735028 Q -23.681039,-26.74629 -23.813005,-26.760998 L -23.721995,-26.179989 L -21.895,-26.179989" />
      <path d="M -20.683991,-31.289989 L -19.921009,-31.724002 C -19.581816,-31.240867 -19.335293,-30.652954 -19.166308,-30.04305 C -18.992358,-29.409731 -18.905539,-28.729583 -18.906013,-28.061565 C -18.906496,-27.322579 -18.988391,-26.612414 -19.168483,-25.952583 C -19.33775,-25.330933 -19.585958,-24.763702 -19.921009,-24.275998 L -20.683991,-24.709989 C -20.555651,-24.91255 -20.442465,-25.144803 -20.344433,-25.406748 C -20.247361,-25.664181 -20.164726,-25.935613 -20.096527,-26.221044 C -20.028464,-26.505309 -19.975795,-26.796073 -19.938518,-27.093335 C -19.898691,-27.407393 -19.878851,-27.717486 -19.878996,-28.023612 C -19.878367,-29.227465 -20.133319,-30.346299 -20.683991,-31.289989" />
      <path d="M -17.436009,-26.999002 C -17.434942,-27.251831 -17.41445,-27.440736 -17.344841,-27.597072 C -17.274985,-27.757378 -17.147275,-27.876873 -16.96,-27.999989 C -17.145104,-28.122375 -17.263935,-28.22547 -17.334938,-28.37889 C -17.406429,-28.53287 -17.435827,-28.720191 -17.436009,-28.994002 L -17.436009,-30.169989 C -17.43781,-30.364094 -17.450988,-30.481432 -17.52393,-30.548396 C -17.595595,-30.616389 -17.724333,-30.62274 -17.926009,-30.624989 L -18.066009,-30.624989 L -18.066009,-31.534989 L -17.478005,-31.534989 C -17.14275,-31.536099 -16.83671,-31.464922 -16.661546,-31.271437 C -16.481012,-31.07475 -16.420625,-30.74627 -16.421009,-30.394002 L -16.421009,-29.070998 C -16.42168,-28.892643 -16.37826,-28.732183 -16.275518,-28.62348 C -16.20125,-28.546069 -16.105084,-28.494576 -15.987018,-28.469002 L -15.987018,-27.607993 C -16.143354,-27.576759 -16.25548,-27.510059 -16.323396,-27.407895 C -16.392149,-27.302318 -16.421159,-27.133586 -16.421009,-26.929002 L -16.421009,-25.605998 C -16.420572,-25.248695 -16.482645,-24.913961 -16.671998,-24.721517 C -16.851546,-24.53651 -17.142157,-24.463843 -17.464014,-24.464989 L -18.066009,-24.464989 L -18.066009,-25.367993 L -17.919014,-25.367993 C -17.726028,-25.370229 -17.602511,-25.376712 -17.530925,-25.444609 C -17.4587,-25.511583 -17.437026,-25.628878 -17.436009,-25.822993 L -17.436009,-26.999002" />
      <path d="M -48.963968,-29.000998 C -48.965383,-28.743609 -48.984835,-28.552292 -49.062433,-28.394569 C -49.138584,-28.238461 -49.25489,-28.120978 -49.439977,-27.999989 C -49.255949,-27.868197 -49.128542,-27.766997 -49.058067,-27.617629 C -49.023003,-27.544683 -48.998584,-27.460587 -48.984809,-27.365342 C -48.97074,-27.266721 -48.963793,-27.144608 -48.963968,-26.999002 L -48.963968,-25.829989 C -48.962167,-25.635914 -48.948989,-25.518566 -48.876047,-25.451604 C -48.804378,-25.383613 -48.675677,-25.377234 -48.473968,-25.374989 L -48.333968,-25.374989 L -48.333968,-24.464989 L -48.914977,-24.464989 C -49.253039,-24.463926 -49.562574,-24.534379 -49.738442,-24.72854 C -49.918971,-24.925231 -49.979351,-25.253722 -49.978968,-25.605998 L -49.978968,-26.929002 C -49.978212,-27.116144 -50.023645,-27.284283 -50.133654,-27.392813 C -50.206831,-27.464069 -50.29994,-27.51013 -50.412982,-27.530998 L -50.412982,-28.392007 C -50.256632,-28.423241 -50.144499,-28.48994 -50.076581,-28.592105 C -50.007828,-28.697682 -49.978818,-28.866414 -49.978968,-29.070998 L -49.978968,-30.394002 C -49.97902,-30.790693 -49.909638,-31.091571 -49.73297,-31.280586 C -49.561088,-31.468549 -49.292508,-31.533896 -48.935986,-31.534989 L -48.333968,-31.534989 L -48.333968,-30.624989 L -48.480986,-30.624989 C -48.692308,-30.623568 -48.811777,-30.60877 -48.879585,-30.541389 C -48.947374,-30.475043 -48.962527,-30.354556 -48.963968,-30.169989 L -48.963968,-29.000998" />
      <path d="M -46.310964,-24.485998 L -47.577982,-24.485998 L -47.577982,-30.295998 L -46.310964,-30.295998 L -46.310964,-29.897007 C -46.090364,-30.18049 -45.771078,-30.356722 -45.412772,-30.395974 C -45.095611,-30.432293 -44.767066,-30.386887 -44.481077,-30.254589 C -44.23255,-30.141613 -44.013226,-29.976284 -43.83897,-29.768318 C -43.548364,-29.422415 -43.389213,-28.960869 -43.391974,-28.49231 C -43.39103,-28.229183 -43.437009,-27.977998 -43.529913,-27.738754 C -43.692978,-27.314015 -43.999986,-26.962529 -44.408143,-26.767643 C -44.686375,-26.628864 -45.009036,-26.575165 -45.328524,-26.598081 C -45.705316,-26.623073 -46.052824,-26.786852 -46.310964,-27.062007 L -46.310964,-24.485998 M -44.714977,-28.510998 C -44.712443,-28.72044 -44.811466,-28.924898 -44.950505,-29.071766 C -45.093633,-29.223347 -45.301258,-29.3169 -45.524668,-29.315995 C -45.750343,-29.319099 -45.96582,-29.214805 -46.114674,-29.067924 C -46.259149,-28.925012 -46.347732,-28.721316 -46.345963,-28.503181 C -46.345865,-28.389237 -46.322767,-28.281246 -46.27667,-28.179208 C -46.231064,-28.077767 -46.170793,-27.989444 -46.095856,-27.914237 C -45.944218,-27.761702 -45.724353,-27.673071 -45.492398,-27.685945 C -45.280771,-27.6942 -45.096269,-27.789849 -44.956933,-27.926062 C -44.806218,-28.073934 -44.713518,-28.287835 -44.714977,-28.510998" />
      <path d="M -42.810986,-28.469002 C -42.812217,-28.763548 -42.756018,-29.036307 -42.642389,-29.287279 C -42.533099,-29.526671 -42.381667,-29.732803 -42.188092,-29.905674 C -41.994887,-30.076488 -41.769927,-30.206234 -41.513212,-30.294915 C -41.217985,-30.398222 -40.89347,-30.439454 -40.56066,-30.426848 C -40.260608,-30.416205 -39.977916,-30.358903 -39.712584,-30.254943 C -39.46299,-30.157282 -39.246508,-30.020831 -39.063139,-29.84559 C -38.888982,-29.678174 -38.751866,-29.482588 -38.651791,-29.25883 C -38.536449,-29.001332 -38.48827,-28.711944 -38.500854,-28.41245 C -38.510706,-28.160943 -38.565939,-27.926532 -38.666552,-27.709218 C -38.79478,-27.434864 -38.980798,-27.205873 -39.224606,-27.022245 C -39.399862,-26.890566 -39.596192,-26.786392 -39.813596,-26.709726 C -40.110321,-26.604113 -40.435664,-26.561288 -40.768811,-26.574214 C -41.039801,-26.584135 -41.295536,-26.634469 -41.536015,-26.725216 C -41.792468,-26.82176 -42.017121,-26.956243 -42.209974,-27.128665 C -42.392715,-27.293177 -42.536724,-27.485806 -42.642001,-27.706552 C -42.755057,-27.944374 -42.811385,-28.198525 -42.810986,-28.469002 M -41.473968,-28.482993 C -41.476553,-28.260252 -41.374222,-28.055485 -41.230496,-27.906966 C -41.087682,-27.759596 -40.874207,-27.669362 -40.654343,-27.670998 C -40.54292,-27.671051 -40.437139,-27.69198 -40.336998,-27.733785 C -40.228905,-27.778956 -40.136958,-27.843136 -40.061156,-27.926325 C -39.989805,-28.004267 -39.93314,-28.094975 -39.891161,-28.198449 C -39.854201,-28.291323 -39.835809,-28.388926 -39.835987,-28.491257 C -39.836094,-28.609777 -39.859274,-28.720134 -39.905527,-28.822327 C -39.952628,-28.926945 -40.015321,-29.01755 -40.093605,-29.094143 C -40.235648,-29.232894 -40.442898,-29.317663 -40.655586,-29.315998 C -40.767805,-29.315948 -40.874297,-29.294724 -40.975063,-29.252327 C -41.081697,-29.207452 -41.172599,-29.14394 -41.247771,-29.06179 C -41.382168,-28.914246 -41.476789,-28.71438 -41.473968,-28.482993" />
      <path d="M -36.650986,-28.349989 L -38.442982,-30.295998 L -36.769977,-30.295998 L -35.845986,-29.232007 L -34.928991,-30.295998 L -33.248991,-30.295998 L -35.047982,-28.349989 L -33.556973,-26.704989 L -35.208991,-26.704989 L -35.838991,-27.447007 L -36.454977,-26.704989 L -38.106973,-26.704989 L -36.650986,-28.349989" />
      <path d="M -30.945986,-24.709989 L -31.708991,-24.275998 C -32.064894,-24.768828 -32.315239,-25.366608 -32.478706,-26.00158 C -32.63931,-26.628294 -32.724993,-27.291175 -32.723988,-27.945041 C -32.723538,-28.676271 -32.641347,-29.381154 -32.462543,-30.040114 C -32.293324,-30.665162 -32.045089,-31.234678 -31.708991,-31.724002 L -30.945986,-31.289989 C -31.20843,-30.886449 -31.402513,-30.35138 -31.536672,-29.786506 C -31.607126,-29.486911 -31.661104,-29.178816 -31.698607,-28.862222 C -31.733852,-28.565263 -31.75131,-28.269528 -31.75098,-27.975017 C -31.751478,-26.768209 -31.498576,-25.647295 -30.945986,-24.709989" />
      <path d="M 15.7,-22.773371 L 15.7,-33.226629 L 50.7,-33.226629 L 50.7,-22.773371 L 15.7,-22.773371" />
      <path d="M -38.733509,-40.705 L -38.733509,-44.296009 L -37.466491,-44.296009 L -37.466491,-42.378005 C -37.466962,-42.158943 -37.416615,-41.970969 -37.304346,-41.839272 C -37.210403,-41.729615 -37.084281,-41.664502 -36.925979,-41.643935 C -36.814308,-41.629107 -36.688702,-41.633738 -36.583546,-41.669026 C -36.509506,-41.692801 -36.443707,-41.733918 -36.386149,-41.792379 C -36.319614,-41.861484 -36.274533,-41.94978 -36.250906,-42.057269 C -36.224616,-42.182098 -36.21215,-42.32401 -36.213509,-42.483005 L -36.213509,-44.296009 L -34.946491,-44.296009 L -34.946491,-42.014014 Q -34.945891,-41.73843 -35.000282,-41.512001 Q -35.05576,-41.282081 -35.2125,-41.097018 C -35.339628,-40.946461 -35.493757,-40.83037 -35.67489,-40.748744 C -35.861759,-40.666849 -36.076012,-40.626602 -36.317651,-40.628005 C -36.550586,-40.626675 -36.75989,-40.663397 -36.945563,-40.738171 C -37.131353,-40.814824 -37.306552,-40.965198 -37.466491,-41.16 L -37.466491,-40.705 L -38.733509,-40.705" />
      <path d="M -32.818486,-40.705 L -34.085505,-40.705 L -34.085505,-42.973005 C -34.087051,-43.164554 -34.059391,-43.345457 -34.002523,-43.515712 C -33.917234,-43.767166 -33.750915,-43.977454 -33.526253,-44.120922 C -33.157196,-44.358126 -32.667764,-44.428364 -32.174495,-44.429014 C -31.679406,-44.428366 -31.188032,-44.357587 -30.818607,-44.118237 C -30.595987,-43.974895 -30.431254,-43.765594 -30.346468,-43.515712 C -30.2896,-43.345457 -30.26194,-43.164554 -30.263486,-42.973005 L -30.263486,-40.705 L -31.530505,-40.705 L -31.530505,-42.728005 C -31.529581,-42.928955 -31.577151,-43.117929 -31.701971,-43.237224 C -31.816484,-43.349555 -31.989575,-43.393824 -32.174495,-43.393005 C -32.359416,-43.393824 -32.532507,-43.349555 -32.64702,-43.237224 C -32.77184,-43.117929 -32.81941,-42.928955 -32.818486,-42.728005 L -32.818486,-40.705" />
      <path d="M -27.988486,-41.762018 L -27.2675,-41.762018 L -27.2675,-40.705 L -27.988486,-40.705 L -27.988486,-39.627018 L -29.255482,-39.627018 L -29.255482,-40.705 L -29.675482,-40.705 L -29.675482,-41.762018 L -29.255482,-41.762018 L -29.255482,-44.296009 L -27.988486,-44.296009 L -27.988486,-41.762018" />
      <path d="M -26.280482,-40.999014 C -26.279414,-41.251843 -26.258923,-41.440747 -26.189314,-41.597083 C -26.119457,-41.75739 -25.991747,-41.876885 -25.804473,-42.0 C -25.989577,-42.122386 -26.108408,-42.225481 -26.17941,-42.378901 C -26.250901,-42.532881 -26.2803,-42.720203 -26.280482,-42.994014 L -26.280482,-44.17 C -26.282283,-44.364106 -26.295461,-44.481443 -26.368402,-44.548407 C -26.440068,-44.616401 -26.568806,-44.622751 -26.770482,-44.625 L -26.910482,-44.625 L -26.910482,-45.535 L -26.322477,-45.535 C -25.987223,-45.53611 -25.681183,-45.464933 -25.506019,-45.271449 C -25.325485,-45.074761 -25.265098,-44.746281 -25.265482,-44.394014 L -25.265482,-43.071009 C -25.266152,-42.892655 -25.222732,-42.732194 -25.11999,-42.623491 C -25.045723,-42.54608 -24.949556,-42.494588 -24.831491,-42.469014 L -24.831491,-41.608005 C -24.987826,-41.57677 -25.099952,-41.510071 -25.167869,-41.407906 C -25.236622,-41.302329 -25.265632,-41.133598 -25.265482,-40.929014 L -25.265482,-39.606009 C -25.265045,-39.248706 -25.327118,-38.913972 -25.51647,-38.721528 C -25.696018,-38.536521 -25.98663,-38.463854 -26.308486,-38.465 L -26.910482,-38.465 L -26.910482,-39.368005 L -26.763486,-39.368005 C -26.570501,-39.37024 -26.446984,-39.376724 -26.375398,-39.44462 C -26.303173,-39.511594 -26.281499,-39.62889 -26.280482,-39.823005 L -26.280482,-40.999014" />
      <path d="M -40.119495,-43.001009 C -40.12091,-42.74362 -40.140363,-42.552303 -40.21796,-42.394581 C -40.294111,-42.238473 -40.410418,-42.120989 -40.595505,-42.0 C -40.411476,-41.868208 -40.28407,-41.767009 -40.213594,-41.61764 C -40.17853,-41.544694 -40.154111,-41.460599 -40.140337,-41.365353 C -40.126267,-41.266732 -40.11932,-41.144619 -40.119495,-40.999014 L -40.119495,-39.83 C -40.117694,-39.635925 -40.104516,-39.518577 -40.031575,-39.451615 C -39.959905,-39.383624 -39.831204,-39.377246 -39.629495,-39.375 L -39.489495,-39.375 L -39.489495,-38.465 L -40.070505,-38.465 C -40.408566,-38.463938 -40.718102,-38.53439 -40.89397,-38.728551 C -41.074498,-38.925243 -41.134879,-39.253734 -41.134495,-39.606009 L -41.134495,-40.929014 C -41.133739,-41.116156 -41.179172,-41.284294 -41.289182,-41.392825 C -41.362358,-41.46408 -41.455467,-41.510142 -41.568509,-41.531009 L -41.568509,-42.392018 C -41.41216,-42.423252 -41.300026,-42.489951 -41.232108,-42.592116 C -41.163355,-42.697694 -41.134345,-42.866425 -41.134495,-43.071009 L -41.134495,-44.394014 C -41.134548,-44.790704 -41.065166,-45.091582 -40.888498,-45.280598 C -40.716615,-45.46856 -40.448035,-45.533908 -40.091514,-45.535 L -39.489495,-45.535 L -39.489495,-44.625 L -39.636514,-44.625 C -39.847835,-44.623579 -39.967304,-44.608782 -40.035112,-44.541401 C -40.102902,-44.475054 -40.118054,-44.354567 -40.119495,-44.17 L -40.119495,-43.001009" />
      <path d="M 36.1,-47.022947 L 39.0,-42.0 L 36.1,-36.977053 L 30.3,-36.977053 L 27.4,-42.0 L 30.3,-47.022947 L 36.1,-47.022947 M 35.52,-42.0 A 2.320000000000002,2.320000000000002 0.0 0,0 30.88,-42.0 A 2.320000000000002,2.320000000000002 0.0 0,0 35.52,-42.0" />
      <path d="M -12.486995,-56.707007 L -9.82,-56.707007 L -9.82,-56.574002 C -9.816928,-55.990142 -9.98699,-55.457287 -10.333856,-55.101263 C -10.678521,-54.740701 -11.20043,-54.561717 -11.771874,-54.565012 C -12.077069,-54.563495 -12.358103,-54.610552 -12.614979,-54.706182 C -12.852985,-54.795628 -13.058576,-54.924462 -13.231753,-55.092683 C -13.408829,-55.266848 -13.543086,-55.475798 -13.634524,-55.719535 C -13.724499,-55.96252 -13.768992,-56.22541 -13.768003,-56.508205 C -13.769538,-56.79707 -13.718865,-57.063281 -13.615983,-57.306839 C -13.516921,-57.538975 -13.375855,-57.739314 -13.192784,-57.907856 C -12.845075,-58.228527 -12.351013,-58.405364 -11.821447,-58.420412 C -11.500732,-58.429703 -11.194052,-58.396165 -10.92609,-58.308643 C -10.704554,-58.237104 -10.512025,-58.128444 -10.348503,-57.982662 C -10.123712,-57.78166 -9.96456,-57.509258 -9.868991,-57.190011 L -11.093991,-57.190011 C -11.205148,-57.370767 -11.373352,-57.48533 -11.578618,-57.515702 C -11.698596,-57.533809 -11.832256,-57.526932 -11.943173,-57.505135 C -12.17102,-57.461205 -12.339381,-57.328242 -12.419294,-57.120691 C -12.465578,-56.999606 -12.488146,-56.861711 -12.486995,-56.707007 M -11.003005,-55.972007 L -12.451995,-55.972007 Q -12.405229,-55.697192 -12.219082,-55.539322 Q -12.027963,-55.382493 -11.738435,-55.384002 Q -11.459897,-55.383054 -11.260541,-55.546198 Q -11.064678,-55.708951 -11.003005,-55.972007" />
      <path d="M -9.099014,-54.697993 L -9.099014,-58.289002 L -7.831995,-58.289002 L -7.831995,-56.749002 C -7.833626,-56.394492 -7.745381,-56.080076 -7.528447,-55.899405 C -7.381038,-55.774648 -7.177814,-55.719334 -6.950023,-55.720011 C -6.755714,-55.719667 -6.573711,-55.761663 -6.404014,-55.845998 L -6.404014,-54.635011 C -6.508668,-54.614643 -6.585352,-54.622565 -6.652293,-54.621001 C -6.897112,-54.621422 -7.113299,-54.672199 -7.300857,-54.773333 C -7.511932,-54.888139 -7.688978,-55.059027 -7.831995,-55.285998 L -7.831995,-54.697993 L -9.099014,-54.697993" />
      <path d="M -4.29,-55.755011 L -3.569014,-55.755011 L -3.569014,-54.697993 L -4.29,-54.697993 L -4.29,-53.620011 L -5.556995,-53.620011 L -5.556995,-54.697993 L -5.976995,-54.697993 L -5.976995,-55.755011 L -5.556995,-55.755011 L -5.556995,-58.289002 L -4.29,-58.289002 L -4.29,-55.755011" />
      <path d="M -2.581995,-54.992007 C -2.580928,-55.244836 -2.560436,-55.433741 -2.490828,-55.590076 C -2.420971,-55.750383 -2.293261,-55.869878 -2.105986,-55.992993 C -2.29109,-56.115379 -2.409921,-56.218474 -2.480924,-56.371894 C -2.552415,-56.525874 -2.581814,-56.713196 -2.581995,-56.987007 L -2.581995,-58.162993 C -2.583796,-58.357099 -2.596974,-58.474437 -2.669916,-58.541401 C -2.741582,-58.609394 -2.870319,-58.615745 -3.071995,-58.617993 L -3.211995,-58.617993 L -3.211995,-59.527993 L -2.623991,-59.527993 C -2.288737,-59.529103 -1.982696,-59.457926 -1.807533,-59.264442 C -1.626999,-59.067754 -1.566612,-58.739274 -1.566995,-58.387007 L -1.566995,-57.064002 C -1.567666,-56.885648 -1.524246,-56.725187 -1.421504,-56.616484 C -1.347237,-56.539073 -1.25107,-56.487581 -1.133005,-56.462007 L -1.133005,-55.600998 C -1.28934,-55.569763 -1.401466,-55.503064 -1.469383,-55.4009 C -1.538136,-55.295322 -1.567146,-55.126591 -1.566995,-54.922007 L -1.566995,-53.599002 C -1.566559,-53.241699 -1.628631,-52.906965 -1.817984,-52.714521 C -1.997532,-52.529515 -2.288144,-52.456847 -2.61,-52.457993 L -3.211995,-52.457993 L -3.211995,-53.360998 L -3.065,-53.360998 C -2.872015,-53.363233 -2.748498,-53.369717 -2.676912,-53.437613 C -2.604687,-53.504587 -2.583013,-53.621883 -2.581995,-53.815998 L -2.581995,-54.992007" />
      <path d="M -63.817982,-56.994002 C -63.819396,-56.736614 -63.838849,-56.545297 -63.916446,-56.387574 C -63.992598,-56.231466 -64.108904,-56.113983 -64.293991,-55.992993 C -64.109963,-55.861202 -63.982556,-55.760002 -63.912081,-55.610634 C -63.877017,-55.537688 -63.852598,-55.453592 -63.838823,-55.358346 C -63.824754,-55.259725 -63.817807,-55.137612 -63.817982,-54.992007 L -63.817982,-53.822993 C -63.816181,-53.628918 -63.803003,-53.511571 -63.730061,-53.444609 C -63.658392,-53.376617 -63.529691,-53.370239 -63.327982,-53.367993 L -63.187982,-53.367993 L -63.187982,-52.457993 L -63.768991,-52.457993 C -64.107052,-52.456931 -64.416588,-52.527384 -64.592456,-52.721545 C -64.772984,-52.918236 -64.833365,-53.246727 -64.832982,-53.599002 L -64.832982,-54.922007 C -64.832226,-55.109149 -64.877659,-55.277287 -64.987668,-55.385818 C -65.060844,-55.457073 -65.153953,-55.503135 -65.266995,-55.524002 L -65.266995,-56.385011 C -65.110646,-56.416245 -64.998512,-56.482945 -64.930595,-56.58511 C -64.861841,-56.690687 -64.832831,-56.859418 -64.832982,-57.064002 L -64.832982,-58.387007 C -64.833034,-58.783697 -64.763652,-59.084576 -64.586984,-59.273591 C -64.415101,-59.461554 -64.146521,-59.526901 -63.79,-59.527993 L -63.187982,-59.527993 L -63.187982,-58.617993 L -63.335,-58.617993 C -63.546322,-58.616572 -63.665791,-58.601775 -63.733598,-58.534394 C -63.801388,-58.468047 -63.816541,-58.34756 -63.817982,-58.162993 L -63.817982,-56.994002" />
      <path d="M -61.017982,-55.755011 L -60.296995,-55.755011 L -60.296995,-54.697993 L -61.017982,-54.697993 L -61.017982,-53.620011 L -62.284977,-53.620011 L -62.284977,-54.697993 L -62.704977,-54.697993 L -62.704977,-55.755011 L -62.284977,-55.755011 L -62.284977,-58.289002 L -61.017982,-58.289002 L -61.017982,-55.755011" />
      <path d="M -59.659977,-52.479002 L -59.659977,-58.289002 L -58.392959,-58.289002 L -58.392959,-56.370998 C -58.394446,-56.105035 -58.317151,-55.884226 -58.151372,-55.755695 C -58.039049,-55.670081 -57.898021,-55.627851 -57.728285,-55.629002 C -57.570705,-55.628588 -57.435267,-55.677587 -57.321973,-55.775998 Q -57.222804,-55.868841 -57.181637,-56.036346 Q -57.139218,-56.212242 -57.139977,-56.475998 L -57.139977,-58.289002 L -55.872959,-58.289002 L -55.872959,-56.007007 C -55.871756,-55.661278 -55.953232,-55.334973 -56.14431,-55.085162 C -56.312286,-54.857032 -56.568316,-54.710957 -56.863607,-54.655462 C -57.013231,-54.62717 -57.16836,-54.616198 -57.328992,-54.622547 C -57.511354,-54.628029 -57.681975,-54.660116 -57.840855,-54.718807 C -58.048674,-54.795731 -58.23314,-54.958499 -58.392959,-55.152993 L -58.392959,-52.479002 L -59.659977,-52.479002" />
      <path d="M -55.011973,-54.697993 L -55.011973,-58.289002 L -53.744954,-58.289002 L -53.744954,-56.749002 C -53.746585,-56.394492 -53.65834,-56.080076 -53.441406,-55.899405 C -53.293997,-55.774648 -53.090773,-55.719334 -52.862982,-55.720011 C -52.668673,-55.719667 -52.48667,-55.761663 -52.316973,-55.845998 L -52.316973,-54.635011 C -52.421627,-54.614643 -52.498311,-54.622565 -52.565252,-54.621001 C -52.810071,-54.621422 -53.026258,-54.672199 -53.213816,-54.773333 C -53.424891,-54.888139 -53.601937,-55.059027 -53.744954,-55.285998 L -53.744954,-54.697993 L -55.011973,-54.697993" />
      <path d="M -50.566973,-56.707007 L -47.899977,-56.707007 L -47.899977,-56.574002 C -47.896905,-55.990142 -48.066967,-55.457287 -48.413834,-55.101263 C -48.758498,-54.740701 -49.280407,-54.561717 -49.851851,-54.565012 C -50.157046,-54.563495 -50.438081,-54.610552 -50.694956,-54.706182 C -50.932962,-54.795628 -51.138553,-54.924462 -51.31173,-55.092683 C -51.488806,-55.266848 -51.623063,-55.475798 -51.714501,-55.719535 C -51.804476,-55.96252 -51.848969,-56.22541 -51.84798,-56.508205 C -51.849515,-56.79707 -51.798842,-57.063281 -51.69596,-57.306839 C -51.596899,-57.538975 -51.455832,-57.739314 -51.272762,-57.907856 C -50.925052,-58.228527 -50.43099,-58.405364 -49.901424,-58.420412 C -49.580709,-58.429703 -49.274029,-58.396165 -49.006067,-58.308643 C -48.784532,-58.237104 -48.592003,-58.128444 -48.42848,-57.982662 C -48.203689,-57.78166 -48.044537,-57.509258 -47.948968,-57.190011 L -49.173968,-57.190011 C -49.285125,-57.370767 -49.453329,-57.48533 -49.658595,-57.515702 C -49.778573,-57.533809 -49.912234,-57.526932 -50.023151,-57.505135 C -50.250998,-57.461205 -50.419358,-57.328242 -50.499271,-57.120691 C -50.545556,-56.999606 -50.568123,-56.861711 -50.566973,-56.707007 M -49.082982,-55.972007 L -50.531973,-55.972007 Q -50.485206,-55.697192 -50.299059,-55.539322 Q -50.107941,-55.382493 -49.818412,-55.384002 Q -49.539874,-55.383054 -49.340518,-55.546198 Q -49.144655,-55.708951 -49.082982,-55.972007" />
      <path d="M -44.406973,-54.697993 L -44.406973,-55.055011 C -44.661857,-54.779236 -45.00585,-54.616447 -45.3817,-54.591146 C -45.684551,-54.569564 -45.989753,-54.615797 -46.255017,-54.739738 C -46.49778,-54.851777 -46.703965,-55.009534 -46.873573,-55.21301 C -47.023539,-55.394745 -47.137049,-55.60027 -47.214106,-55.829584 C -47.285564,-56.043428 -47.320517,-56.264877 -47.318967,-56.49393 C -47.319011,-56.7605 -47.272674,-57.013344 -47.179954,-57.252464 C -47.016141,-57.676027 -46.703139,-58.027139 -46.305051,-58.221242 C -46.064741,-58.341417 -45.795433,-58.400222 -45.51682,-58.40097 C -45.40299,-58.401837 -45.292942,-58.391824 -45.186674,-58.370932 C -44.87569,-58.311266 -44.6045,-58.141955 -44.406973,-57.890011 L -44.406973,-58.289002 L -43.132982,-58.289002 L -43.132982,-54.697993 L -44.406973,-54.697993 M -46.002982,-56.482993 C -46.004989,-56.263602 -45.913786,-56.069413 -45.77372,-55.921458 C -45.630083,-55.769615 -45.417098,-55.676583 -45.184532,-55.677993 C -44.955323,-55.676458 -44.734386,-55.773904 -44.590927,-55.932484 C -44.51948,-56.010338 -44.462709,-56.100948 -44.420612,-56.204315 C -44.383496,-56.297154 -44.364951,-56.394718 -44.364977,-56.497007 C -44.362384,-56.719669 -44.464703,-56.924452 -44.60843,-57.073004 C -44.751257,-57.220418 -44.964751,-57.310613 -45.184532,-57.309002 C -45.406135,-57.310474 -45.610631,-57.225574 -45.753127,-57.086391 C -45.905785,-56.936789 -46.004826,-56.721461 -46.002982,-56.482993" />
      <path d="M -39.499977,-52.479002 L -39.499977,-55.055011 C -39.756622,-54.777239 -40.103715,-54.614294 -40.482578,-54.590567 C -40.78363,-54.570365 -41.086344,-54.61719 -41.351435,-54.73966 C -41.786091,-54.934142 -42.117915,-55.302449 -42.282239,-55.750835 C -42.379997,-56.010663 -42.421439,-56.290296 -42.410319,-56.572303 C -42.395792,-57.02536 -42.231185,-57.460342 -41.948934,-57.787198 C -41.779352,-57.983098 -41.576856,-58.135451 -41.341444,-58.244256 C -41.111574,-58.349334 -40.865713,-58.401579 -40.603863,-58.400992 C -40.489194,-58.401502 -40.378487,-58.390948 -40.271743,-58.369331 C -39.964074,-58.308497 -39.69573,-58.13966 -39.499977,-57.890011 L -39.499977,-58.289002 L -38.225986,-58.289002 L -38.225986,-52.479002 L -39.499977,-52.479002 M -41.095986,-56.482993 C -41.098712,-56.263814 -40.999558,-56.070094 -40.860415,-55.922177 C -40.717918,-55.770464 -40.502077,-55.677128 -40.279163,-55.677996 C -40.064866,-55.675939 -39.856376,-55.761515 -39.714107,-55.901312 C -39.635997,-55.978139 -39.57349,-56.068958 -39.526588,-56.173769 C -39.480703,-56.275916 -39.457834,-56.383966 -39.457982,-56.49792 C -39.455652,-56.720098 -39.557791,-56.924359 -39.701071,-57.072631 C -39.844633,-57.22101 -40.059665,-57.311508 -40.280987,-57.308994 C -40.507383,-57.309577 -40.715254,-57.220256 -40.857653,-57.074919 C -41.003403,-56.926182 -41.097883,-56.715579 -41.095986,-56.482993" />
      <path d="M -36.223991,-56.707007 L -33.556995,-56.707007 L -33.556995,-56.574002 C -33.553923,-55.990142 -33.723985,-55.457287 -34.070852,-55.101263 C -34.415516,-54.740701 -34.937426,-54.561717 -35.508869,-54.565012 C -35.814064,-54.563495 -36.095099,-54.610552 -36.351974,-54.706182 C -36.58998,-54.795628 -36.795572,-54.924462 -36.968748,-55.092683 C -37.145824,-55.266848 -37.280081,-55.475798 -37.371519,-55.719535 C -37.461494,-55.96252 -37.505988,-56.22541 -37.504999,-56.508205 C -37.506534,-56.79707 -37.45586,-57.063281 -37.352979,-57.306839 C -37.253917,-57.538975 -37.112851,-57.739314 -36.92978,-57.907856 C -36.58207,-58.228527 -36.088008,-58.405364 -35.558442,-58.420412 C -35.237727,-58.429703 -34.931047,-58.396165 -34.663085,-58.308643 C -34.44155,-58.237104 -34.249021,-58.128444 -34.085498,-57.982662 C -33.860708,-57.78166 -33.701555,-57.509258 -33.605986,-57.190011 L -34.830986,-57.190011 C -34.942143,-57.370767 -35.110347,-57.48533 -35.315613,-57.515702 C -35.435591,-57.533809 -35.569252,-57.526932 -35.680169,-57.505135 C -35.908016,-57.461205 -36.076377,-57.328242 -36.15629,-57.120691 C -36.202574,-56.999606 -36.225141,-56.861711 -36.223991,-56.707007 M -34.74,-55.972007 L -36.188991,-55.972007 Q -36.142224,-55.697192 -35.956077,-55.539322 Q -35.764959,-55.382493 -35.47543,-55.384002 Q -35.196892,-55.383054 -34.997536,-55.546198 Q -34.801673,-55.708951 -34.74,-55.972007" />
      <path d="M -30.063991,-52.479002 L -30.063991,-55.055011 C -30.320636,-54.777239 -30.667729,-54.614294 -31.046592,-54.590567 C -31.347644,-54.570365 -31.650358,-54.61719 -31.915449,-54.73966 C -32.350105,-54.934142 -32.681929,-55.302449 -32.846253,-55.750835 C -32.944011,-56.010663 -32.985452,-56.290296 -32.974332,-56.572303 C -32.959806,-57.02536 -32.795198,-57.460342 -32.512948,-57.787198 C -32.343366,-57.983098 -32.140869,-58.135451 -31.905458,-58.244256 C -31.675588,-58.349334 -31.429727,-58.401579 -31.167876,-58.400992 C -31.053208,-58.401502 -30.942501,-58.390948 -30.835756,-58.369331 C -30.528088,-58.308497 -30.259744,-58.13966 -30.063991,-57.890011 L -30.063991,-58.289002 L -28.79,-58.289002 L -28.79,-52.479002 L -30.063991,-52.479002 M -31.66,-56.482993 C -31.662725,-56.263814 -31.563571,-56.070094 -31.424429,-55.922177 C -31.281931,-55.770464 -31.06609,-55.677128 -30.843177,-55.677996 C -30.62888,-55.675939 -30.42039,-55.761515 -30.278121,-55.901312 C -30.20001,-55.978139 -30.137504,-56.068958 -30.090602,-56.173769 C -30.044717,-56.275916 -30.021848,-56.383966 -30.021996,-56.49792 C -30.019665,-56.720098 -30.121805,-56.924359 -30.265085,-57.072631 C -30.408646,-57.22101 -30.623679,-57.311508 -30.845001,-57.308994 C -31.071397,-57.309577 -31.279267,-57.220256 -31.421667,-57.074919 C -31.567416,-56.926182 -31.661896,-56.715579 -31.66,-56.482993" />
      <path d="M -28.363005,-58.667007 L -28.363005,-59.542007 L -24.408005,-59.542007 L -24.408005,-58.667007 L -28.363005,-58.667007" />
      <path d="M -24.058005,-53.319002 C -24.059514,-53.125007 -23.977449,-52.94435 -23.847974,-52.81497 C -23.718516,-52.685556 -23.53816,-52.60351 -23.343923,-52.605011 C -23.149928,-52.603525 -22.969349,-52.685592 -22.83997,-52.81503 C -22.710528,-52.944407 -22.628489,-53.125042 -22.63,-53.319002 C -22.62849,-53.512968 -22.710531,-53.6936 -22.83997,-53.822974 C -22.969352,-53.952415 -23.149933,-54.034481 -23.343923,-54.032993 C -23.537996,-54.034519 -23.718546,-53.952469 -23.847974,-53.823035 C -23.977452,-53.693653 -24.059515,-53.512993 -24.058005,-53.319002" />
      <path d="M -22.706995,-54.697993 L -23.974014,-54.697993 L -23.974014,-58.289002 L -22.706995,-58.289002 L -22.706995,-54.697993" />
      <path d="M -21.839014,-54.697993 L -21.839014,-58.289002 L -20.571995,-58.289002 L -20.571995,-56.370998 C -20.572466,-56.151937 -20.52212,-55.963962 -20.40985,-55.832266 C -20.315908,-55.722608 -20.189785,-55.657495 -20.031483,-55.636929 C -19.919812,-55.6221 -19.794207,-55.626731 -19.689051,-55.66202 C -19.61501,-55.685794 -19.549211,-55.726912 -19.491653,-55.785372 C -19.425118,-55.854477 -19.380038,-55.942774 -19.356411,-56.050262 C -19.33012,-56.175092 -19.317655,-56.317004 -19.319014,-56.475998 L -19.319014,-58.289002 L -18.051995,-58.289002 L -18.051995,-56.007007 Q -18.051396,-55.731423 -18.105787,-55.504994 Q -18.161265,-55.275074 -18.318005,-55.090011 C -18.445132,-54.939454 -18.599262,-54.823363 -18.780394,-54.741738 C -18.967263,-54.659842 -19.181517,-54.619596 -19.423156,-54.620998 C -19.656091,-54.619668 -19.865395,-54.65639 -20.051068,-54.731164 C -20.236857,-54.807817 -20.412057,-54.958192 -20.571995,-55.152993 L -20.571995,-54.697993 L -21.839014,-54.697993" />
      <path d="M -14.811009,-55.622007 L -14.383991,-54.795998 C -14.613509,-54.701068 -14.849554,-54.635177 -15.092128,-54.598323 C -15.294075,-54.567832 -15.50374,-54.557979 -15.705633,-54.56999 C -16.198152,-54.598883 -16.652854,-54.779372 -16.908236,-55.120534 C -17.063885,-55.325907 -17.143316,-55.586655 -17.141994,-55.864554 C -17.142837,-56.085759 -17.091124,-56.28422 -16.974223,-56.43797 C -16.805292,-56.667801 -16.458622,-56.791924 -16.085,-56.867993 C -15.868073,-56.912233 -15.728425,-56.947366 -15.648767,-56.996844 C -15.604062,-57.024934 -15.575435,-57.056031 -15.562888,-57.090134 C -15.551716,-57.120055 -15.54609,-57.157629 -15.54601,-57.202855 C -15.545883,-57.230948 -15.550426,-57.257299 -15.559637,-57.281909 C -15.581787,-57.33958 -15.627821,-57.3869 -15.697737,-57.42387 C -15.764555,-57.458622 -15.844968,-57.476327 -15.938976,-57.476984 C -16.003322,-57.477303 -16.068402,-57.472626 -16.134216,-57.462954 C -16.397187,-57.423734 -16.670116,-57.307081 -16.953005,-57.112993 L -17.415,-58.009002 C -16.988394,-58.259686 -16.518048,-58.411627 -16.039319,-58.421321 C -15.542972,-58.433561 -15.050711,-58.31164 -14.709836,-58.031117 C -14.576328,-57.920394 -14.471145,-57.786862 -14.394286,-57.630522 C -14.299059,-57.437934 -14.261593,-57.214592 -14.274528,-56.989401 C -14.287988,-56.754581 -14.375171,-56.539553 -14.534927,-56.377439 C -14.725994,-56.18065 -15.009992,-56.067702 -15.315,-56.007007 C -15.440655,-55.979104 -15.543296,-55.955492 -15.622921,-55.936172 C -15.76649,-55.901808 -15.839015,-55.856363 -15.867415,-55.808443 C -15.881976,-55.781582 -15.889168,-55.744996 -15.888991,-55.698685 C -15.888883,-55.624943 -15.857525,-55.565341 -15.794915,-55.51988 C -15.710713,-55.458088 -15.587827,-55.433139 -15.43988,-55.441322 C -15.233529,-55.450931 -15.023905,-55.51116 -14.811009,-55.622007" />
      <path d="M 38.768,-50.2 L 27.632,-50.2 A 0.23199999999999998,0.23199999999999998 180.0 0,1 27.4,-50.432 L 27.4,-52.868 A 0.23199999999999998,0.23199999999999998 180.0 0,1 27.632,-53.1 L 29.488,-53.1 A 0.23199999999999998,0.23199999999999998 180.0 0,0 29.72,-53.332 L 29.72,-58.668 A 0.23199999999999998,0.23199999999999998 180.0 0,0 29.488,-58.9 L 27.632,-58.9 A 0.23199999999999998,0.23199999999999998 180.0 0,1 27.4,-59.132 L 27.4,-61.568 A 0.23199999999999998,0.23199999999999998 180.0 0,1 27.632,-61.8 L 38.768,-61.8 A 0.23199999999999998,0.23199999999999998 180.0 0,1 39.0,-61.568 L 39.0,-59.132 A 0.23199999999999998,0.23199999999999998 180.0 0,1 38.768,-58.9 L 36.912,-58.9 A 0.23199999999999998,0.23199999999999998 180.0 0,0 36.68,-58.668 L 36.68,-53.332 A 0.23199999999999998,0.23199999999999998 180.0 0,0 36.912,-53.1 L 38.768,-53.1 A 0.23199999999999998,0.23199999999999998 180.0 0,1 39.0,-52.868 L 39.0,-50.432 A 0.23199999999999998,0.23199999999999998 180.0 0,1 38.768,-50.2 M 29.16784,-59.596 L 30.67584,-61.104 L 29.69216,-61.104 L 28.18416,-59.596 L 29.16784,-59.596 M 31.05284,-59.596 L 32.56084,-61.104 L 31.57716,-61.104 L 30.06916,-59.596 L 31.05284,-59.596 M 32.93784,-59.596 L 34.44584,-61.104 L 33.46216,-61.104 L 31.95416,-59.596 L 32.93784,-59.596 M 34.82284,-59.596 L 36.33084,-61.104 L 35.34716,-61.104 L 33.83916,-59.596 L 34.82284,-59.596 M 36.70784,-59.596 L 38.21584,-61.104 L 37.23216,-61.104 L 35.72416,-59.596 L 36.70784,-59.596 M 29.16784,-50.896 L 30.67584,-52.404 L 29.69216,-52.404 L 28.18416,-50.896 L 29.16784,-50.896 M 31.05284,-50.896 L 32.56084,-52.404 L 31.57716,-52.404 L 30.06916,-50.896 L 31.05284,-50.896 M 32.93784,-50.896 L 34.44584,-52.404 L 33.46216,-52.404 L 31.95416,-50.896 L 32.93784,-50.896 M 34.82284,-50.896 L 36.33084,-52.404 L 35.34716,-52.404 L 33.83916,-50.896 L 34.82284,-50.896 M 36.70784,-50.896 L 38.21584,-52.404 L 37.23216,-52.404 L 35.72416,-50.896 L 36.70784,-50.896" />
      <path d="M -10.604014,-69.755011 L -9.883027,-69.755011 L -9.883027,-68.697993 L -10.604014,-68.697993 L -10.604014,-67.620011 L -11.871009,-67.620011 L -11.871009,-68.697993 L -12.291009,-68.697993 L -12.291009,-69.755011 L -11.871009,-69.755011 L -11.871009,-72.289002 L -10.604014,-72.289002 L -10.604014,-69.755011" />
      <path d="M -9.484014,-70.462007 C -9.485245,-70.756553 -9.429046,-71.029312 -9.315416,-71.280284 C -9.206126,-71.519675 -9.054694,-71.725807 -8.861119,-71.898679 C -8.667914,-72.069492 -8.442954,-72.199239 -8.18624,-72.287919 C -7.891012,-72.391227 -7.566498,-72.432458 -7.233688,-72.419853 C -6.933635,-72.40921 -6.650943,-72.351908 -6.385612,-72.247948 C -6.136017,-72.150287 -5.919535,-72.013836 -5.736166,-71.838595 C -5.562009,-71.671179 -5.424894,-71.475592 -5.324818,-71.251835 C -5.209477,-70.994337 -5.161297,-70.704949 -5.173881,-70.405454 C -5.183733,-70.153948 -5.238966,-69.919537 -5.33958,-69.702223 C -5.467807,-69.427869 -5.653825,-69.198878 -5.897634,-69.01525 C -6.07289,-68.88357 -6.26922,-68.779397 -6.486624,-68.70273 C -6.783348,-68.597117 -7.108691,-68.554293 -7.441838,-68.567219 C -7.712829,-68.57714 -7.968563,-68.627474 -8.209042,-68.718221 C -8.465495,-68.814764 -8.690148,-68.949247 -8.883001,-69.12167 C -9.065742,-69.286182 -9.209751,-69.478811 -9.315029,-69.699556 C -9.428084,-69.937379 -9.484412,-70.191529 -9.484014,-70.462007 M -8.146995,-70.475998 C -8.149581,-70.253256 -8.047249,-70.04849 -7.903524,-69.89997 C -7.760709,-69.7526 -7.547234,-69.662367 -7.32737,-69.664003 C -7.215948,-69.664055 -7.110166,-69.684984 -7.010026,-69.72679 C -6.901932,-69.77196 -6.809985,-69.836141 -6.734183,-69.91933 C -6.662832,-69.997272 -6.606168,-70.087979 -6.564189,-70.191453 C -6.527228,-70.284328 -6.508837,-70.381931 -6.509015,-70.484262 C -6.509122,-70.602781 -6.532302,-70.713138 -6.578554,-70.815332 C -6.625656,-70.91995 -6.688348,-71.010555 -6.766632,-71.087148 C -6.908675,-71.225899 -7.115925,-71.310668 -7.328614,-71.309002 C -7.440832,-71.308952 -7.547324,-71.287729 -7.64809,-71.245331 C -7.754724,-71.200457 -7.845627,-71.136945 -7.920799,-71.054794 C -8.055195,-70.90725 -8.149816,-70.707385 -8.146995,-70.475998" />
      <path d="M -4.444014,-68.697993 L -4.444014,-72.289002 L -3.176995,-72.289002 L -3.176995,-70.749002 C -3.178626,-70.394492 -3.090381,-70.080076 -2.873447,-69.899405 C -2.726038,-69.774648 -2.522814,-69.719334 -2.295023,-69.720011 C -2.100714,-69.719667 -1.918711,-69.761663 -1.749014,-69.845998 L -1.749014,-68.635011 C -1.853668,-68.614643 -1.930352,-68.622565 -1.997293,-68.621001 C -2.242112,-68.621422 -2.458299,-68.672199 -2.645857,-68.773333 C -2.856932,-68.888139 -3.033978,-69.059027 -3.176995,-69.285998 L -3.176995,-68.697993 L -4.444014,-68.697993" />
      <path d="M -0.678005,-68.992007 C -0.676937,-69.244836 -0.656445,-69.433741 -0.586837,-69.590076 C -0.51698,-69.750383 -0.38927,-69.869878 -0.201995,-69.992993 C -0.3871,-70.115379 -0.50593,-70.218474 -0.576933,-70.371894 C -0.648424,-70.525874 -0.677823,-70.713196 -0.678005,-70.987007 L -0.678005,-72.162993 C -0.679806,-72.357099 -0.692983,-72.474437 -0.765925,-72.541401 C -0.837591,-72.609394 -0.966328,-72.615745 -1.168005,-72.617993 L -1.308005,-72.617993 L -1.308005,-73.527993 L -0.72,-73.527993 C -0.384746,-73.529103 -0.078706,-73.457926 0.096458,-73.264442 C 0.276992,-73.067754 0.337379,-72.739274 0.336995,-72.387007 L 0.336995,-71.064002 C 0.336325,-70.885648 0.379745,-70.725187 0.482487,-70.616484 C 0.556754,-70.539073 0.652921,-70.487581 0.770986,-70.462007 L 0.770986,-69.600998 C 0.614651,-69.569763 0.502525,-69.503064 0.434608,-69.4009 C 0.365855,-69.295322 0.336845,-69.126591 0.336995,-68.922007 L 0.336995,-67.599002 C 0.337432,-67.241699 0.27536,-66.906965 0.086007,-66.714521 C -0.093541,-66.529515 -0.384153,-66.456847 -0.706009,-66.457993 L -1.308005,-66.457993 L -1.308005,-67.360998 L -1.161009,-67.360998 C -0.968024,-67.363233 -0.844507,-67.369717 -0.772921,-67.437613 C -0.700696,-67.504587 -0.679022,-67.621883 -0.678005,-67.815998 L -0.678005,-68.992007" />
      <path d="M -65.721973,-70.994002 C -65.723387,-70.736614 -65.74284,-70.545297 -65.820437,-70.387574 C -65.896588,-70.231466 -66.012895,-70.113983 -66.197982,-69.992993 C -66.013953,-69.861202 -65.886547,-69.760002 -65.816071,-69.610634 C -65.781008,-69.537688 -65.756589,-69.453592 -65.742814,-69.358346 C -65.728745,-69.259725 -65.721797,-69.137612 -65.721973,-68.992007 L -65.721973,-67.822993 C -65.720172,-67.628918 -65.706994,-67.511571 -65.634052,-67.444609 C -65.562383,-67.376617 -65.433682,-67.370239 -65.231973,-67.367993 L -65.091973,-67.367993 L -65.091973,-66.457993 L -65.672982,-66.457993 C -66.011043,-66.456931 -66.320579,-66.527384 -66.496447,-66.721545 C -66.676975,-66.918236 -66.737356,-67.246727 -66.736973,-67.599002 L -66.736973,-68.922007 C -66.736216,-69.109149 -66.78165,-69.277287 -66.891659,-69.385818 C -66.964835,-69.457073 -67.057944,-69.503135 -67.170986,-69.524002 L -67.170986,-70.385011 C -67.014637,-70.416245 -66.902503,-70.482945 -66.834586,-70.58511 C -66.765832,-70.690687 -66.736822,-70.859418 -66.736973,-71.064002 L -66.736973,-72.387007 C -66.737025,-72.783697 -66.667643,-73.084576 -66.490975,-73.273591 C -66.319092,-73.461554 -66.050512,-73.526901 -65.693991,-73.527993 L -65.091973,-73.527993 L -65.091973,-72.617993 L -65.238991,-72.617993 C -65.450312,-72.616572 -65.569782,-72.601775 -65.637589,-72.534394 C -65.705379,-72.468047 -65.720532,-72.34756 -65.721973,-72.162993 L -65.721973,-70.994002" />
      <path d="M -63.341973,-68.697993 L -64.769977,-68.697993 L -62.921973,-72.289002 L -62.074977,-72.289002 L -60.205986,-68.697993 L -61.619977,-68.697993 L -62.487982,-70.539002 L -63.341973,-68.697993" />
      <path d="M -57.174977,-68.697993 L -57.174977,-69.055011 C -57.429862,-68.779236 -57.773854,-68.616447 -58.149705,-68.591146 C -58.452556,-68.569564 -58.757757,-68.615797 -59.023021,-68.739738 C -59.265784,-68.851777 -59.47197,-69.009534 -59.641578,-69.21301 C -59.791543,-69.394745 -59.905054,-69.60027 -59.98211,-69.829584 C -60.053568,-70.043428 -60.088522,-70.264877 -60.086971,-70.49393 C -60.087016,-70.7605 -60.040679,-71.013344 -59.947959,-71.252464 C -59.784146,-71.676027 -59.471144,-72.027139 -59.073055,-72.221242 C -58.832746,-72.341417 -58.563437,-72.400222 -58.284825,-72.40097 C -58.170995,-72.401837 -58.060946,-72.391824 -57.954678,-72.370932 C -57.643694,-72.311266 -57.372505,-72.141955 -57.174977,-71.890011 L -57.174977,-72.289002 L -55.900986,-72.289002 L -55.900986,-68.697993 L -57.174977,-68.697993 M -58.770986,-70.482993 C -58.772993,-70.263602 -58.68179,-70.069413 -58.541724,-69.921458 C -58.398088,-69.769615 -58.185103,-69.676583 -57.952537,-69.677993 C -57.723327,-69.676458 -57.502391,-69.773904 -57.358932,-69.932484 C -57.287485,-70.010338 -57.230713,-70.100948 -57.188617,-70.204315 C -57.1515,-70.297154 -57.132955,-70.394718 -57.132982,-70.497007 C -57.130389,-70.719669 -57.232707,-70.924452 -57.376434,-71.073004 C -57.519261,-71.220418 -57.732756,-71.310613 -57.952537,-71.309002 C -58.17414,-71.310474 -58.378635,-71.225574 -58.521131,-71.086391 C -58.67379,-70.936789 -58.772831,-70.721461 -58.770986,-70.482993" />
      <path d="M -55.04,-68.697993 L -55.04,-72.289002 L -53.772982,-72.289002 L -53.772982,-70.749002 C -53.774612,-70.394492 -53.686367,-70.080076 -53.469434,-69.899405 C -53.322025,-69.774648 -53.1188,-69.719334 -52.891009,-69.720011 C -52.6967,-69.719667 -52.514697,-69.761663 -52.345,-69.845998 L -52.345,-68.635011 C -52.449654,-68.614643 -52.526339,-68.622565 -52.59328,-68.621001 C -52.838098,-68.621422 -53.054286,-68.672199 -53.241843,-68.773333 C -53.452919,-68.888139 -53.629965,-69.059027 -53.772982,-69.285998 L -53.772982,-68.697993 L -55.04,-68.697993" />
      <path d="M -50.510986,-68.697993 L -51.778005,-68.697993 L -51.778005,-72.289002 L -50.510986,-72.289002 L -50.510986,-68.697993" />
      <path d="M -51.861995,-67.319002 C -51.863505,-67.125007 -51.78144,-66.94435 -51.651965,-66.81497 C -51.522507,-66.685556 -51.342151,-66.60351 -51.147913,-66.605011 C -50.953919,-66.603525 -50.77334,-66.685592 -50.643961,-66.81503 C -50.514519,-66.944407 -50.43248,-67.125042 -50.433991,-67.319002 C -50.432481,-67.512968 -50.514522,-67.6936 -50.643961,-67.822974 C -50.773343,-67.952415 -50.953924,-68.034481 -51.147913,-68.032993 C -51.341987,-68.034519 -51.522537,-67.952469 -51.651965,-67.823035 C -51.781443,-67.693653 -51.863506,-67.512993 -51.861995,-67.319002" />
      <path d="M -46.870986,-68.697993 L -46.870986,-69.055011 C -47.125871,-68.779236 -47.469863,-68.616447 -47.845714,-68.591146 C -48.148565,-68.569564 -48.453766,-68.615797 -48.71903,-68.739738 C -48.961794,-68.851777 -49.167979,-69.009534 -49.337587,-69.21301 C -49.487552,-69.394745 -49.601063,-69.60027 -49.678119,-69.829584 C -49.749577,-70.043428 -49.784531,-70.264877 -49.782981,-70.49393 C -49.783025,-70.7605 -49.736688,-71.013344 -49.643968,-71.252464 C -49.480155,-71.676027 -49.167153,-72.027139 -48.769064,-72.221242 C -48.528755,-72.341417 -48.259447,-72.400222 -47.980834,-72.40097 C -47.867004,-72.401837 -47.756955,-72.391824 -47.650688,-72.370932 C -47.339703,-72.311266 -47.068514,-72.141955 -46.870986,-71.890011 L -46.870986,-72.289002 L -45.596995,-72.289002 L -45.596995,-68.697993 L -46.870986,-68.697993 M -48.466995,-70.482993 C -48.469002,-70.263602 -48.377799,-70.069413 -48.237733,-69.921458 C -48.094097,-69.769615 -47.881112,-69.676583 -47.648546,-69.677993 C -47.419336,-69.676458 -47.1984,-69.773904 -47.054941,-69.932484 C -46.983494,-70.010338 -46.926722,-70.100948 -46.884626,-70.204315 C -46.847509,-70.297154 -46.828964,-70.394718 -46.828991,-70.497007 C -46.826398,-70.719669 -46.928716,-70.924452 -47.072443,-71.073004 C -47.215271,-71.220418 -47.428765,-71.310613 -47.648546,-71.309002 C -47.870149,-71.310474 -48.074644,-71.225574 -48.217141,-71.086391 C -48.369799,-70.936789 -48.46884,-70.721461 -48.466995,-70.482993" />
      <path d="M -43.468991,-66.479002 L -44.736009,-66.479002 L -44.736009,-72.289002 L -43.468991,-72.289002 L -43.468991,-71.890011 C -43.248391,-72.173495 -42.929106,-72.349727 -42.5708,-72.388979 C -42.253638,-72.425298 -41.925094,-72.379892 -41.639104,-72.247594 C -41.390577,-72.134617 -41.171254,-71.969289 -40.996998,-71.761323 C -40.706391,-71.41542 -40.54724,-70.953873 -40.550001,-70.485314 C -40.549057,-70.222188 -40.595037,-69.971003 -40.68794,-69.731759 C -40.851006,-69.307019 -41.158014,-68.955534 -41.56617,-68.760647 C -41.844403,-68.621868 -42.167063,-68.56817 -42.486551,-68.591086 C -42.863343,-68.616077 -43.210852,-68.779857 -43.468991,-69.055011 L -43.468991,-66.479002 M -41.873005,-70.504002 C -41.870471,-70.713445 -41.969493,-70.917903 -42.108532,-71.064771 C -42.25166,-71.216352 -42.459286,-71.309905 -42.682696,-71.308999 C -42.90837,-71.312103 -43.123847,-71.207809 -43.272702,-71.060928 C -43.417176,-70.918016 -43.505759,-70.71432 -43.50399,-70.496186 C -43.503892,-70.382242 -43.480795,-70.274251 -43.434697,-70.172212 C -43.389092,-70.070772 -43.32882,-69.982448 -43.253883,-69.907242 C -43.102245,-69.754707 -42.88238,-69.666075 -42.650426,-69.67895 C -42.438798,-69.687204 -42.254296,-69.782854 -42.11496,-69.919067 C -41.964246,-70.066939 -41.871546,-70.28084 -41.873005,-70.504002" />
      <path d="M -38.561995,-66.479002 L -39.829014,-66.479002 L -39.829014,-72.289002 L -38.561995,-72.289002 L -38.561995,-66.479002" />
      <path d="M -36.553005,-70.707007 L -33.886009,-70.707007 L -33.886009,-70.574002 C -33.882937,-69.990142 -34.052999,-69.457287 -34.399866,-69.101263 C -34.74453,-68.740701 -35.266439,-68.561717 -35.837883,-68.565012 C -36.143078,-68.563495 -36.424113,-68.610552 -36.680988,-68.706182 C -36.918994,-68.795628 -37.124585,-68.924462 -37.297762,-69.092683 C -37.474838,-69.266848 -37.609095,-69.475798 -37.700533,-69.719535 C -37.790508,-69.96252 -37.835001,-70.22541 -37.834012,-70.508205 C -37.835547,-70.79707 -37.784874,-71.063281 -37.681992,-71.306839 C -37.58293,-71.538975 -37.441864,-71.739314 -37.258793,-71.907856 C -36.911084,-72.228527 -36.417022,-72.405364 -35.887456,-72.420412 C -35.566741,-72.429703 -35.260061,-72.396165 -34.992099,-72.308643 C -34.770563,-72.237104 -34.578035,-72.128444 -34.414512,-71.982662 C -34.189721,-71.78166 -34.030569,-71.509258 -33.935,-71.190011 L -35.16,-71.190011 C -35.271157,-71.370767 -35.439361,-71.48533 -35.644627,-71.515702 C -35.764605,-71.533809 -35.898265,-71.526932 -36.009183,-71.505135 C -36.23703,-71.461205 -36.40539,-71.328242 -36.485303,-71.120691 C -36.531588,-70.999606 -36.554155,-70.861711 -36.553005,-70.707007 M -35.069014,-69.972007 L -36.518005,-69.972007 Q -36.471238,-69.697192 -36.285091,-69.539322 Q -36.093973,-69.382493 -35.804444,-69.384002 Q -35.525906,-69.383054 -35.32655,-69.546198 Q -35.130687,-69.708951 -35.069014,-69.972007" />
      <path d="M -33.599014,-72.667007 L -33.599014,-73.542007 L -29.644014,-73.542007 L -29.644014,-72.667007 L -33.599014,-72.667007" />
      <path d="M -29.210023,-68.697993 L -29.210023,-72.289002 L -27.943005,-72.289002 L -27.943005,-70.749002 C -27.944635,-70.394492 -27.85639,-70.080076 -27.639456,-69.899405 C -27.492047,-69.774648 -27.288823,-69.719334 -27.061032,-69.720011 C -26.866723,-69.719667 -26.68472,-69.761663 -26.515023,-69.845998 L -26.515023,-68.635011 C -26.619677,-68.614643 -26.696362,-68.622565 -26.763303,-68.621001 C -27.008121,-68.621422 -27.224309,-68.672199 -27.411866,-68.773333 C -27.622941,-68.888139 -27.799988,-69.059027 -27.943005,-69.285998 L -27.943005,-68.697993 L -29.210023,-68.697993" />
      <path d="M -24.765023,-70.707007 L -22.098027,-70.707007 L -22.098027,-70.574002 C -22.094955,-69.990142 -22.265017,-69.457287 -22.611884,-69.101263 C -22.956548,-68.740701 -23.478458,-68.561717 -24.049901,-68.565012 C -24.355096,-68.563495 -24.636131,-68.610552 -24.893006,-68.706182 C -25.131012,-68.795628 -25.336604,-68.924462 -25.50978,-69.092683 C -25.686856,-69.266848 -25.821113,-69.475798 -25.912551,-69.719535 C -26.002526,-69.96252 -26.047019,-70.22541 -26.046031,-70.508205 C -26.047566,-70.79707 -25.996892,-71.063281 -25.894011,-71.306839 C -25.794949,-71.538975 -25.653882,-71.739314 -25.470812,-71.907856 C -25.123102,-72.228527 -24.62904,-72.405364 -24.099474,-72.420412 C -23.778759,-72.429703 -23.472079,-72.396165 -23.204117,-72.308643 C -22.982582,-72.237104 -22.790053,-72.128444 -22.62653,-71.982662 C -22.401739,-71.78166 -22.242587,-71.509258 -22.147018,-71.190011 L -23.372018,-71.190011 C -23.483175,-71.370767 -23.651379,-71.48533 -23.856645,-71.515702 C -23.976623,-71.533809 -24.110284,-71.526932 -24.221201,-71.505135 C -24.449048,-71.461205 -24.617409,-71.328242 -24.697322,-71.120691 C -24.743606,-70.999606 -24.766173,-70.861711 -24.765023,-70.707007 M -23.281032,-69.972007 L -24.730023,-69.972007 Q -24.683256,-69.697192 -24.497109,-69.539322 Q -24.305991,-69.382493 -24.016462,-69.384002 Q -23.737924,-69.383054 -23.538568,-69.546198 Q -23.342705,-69.708951 -23.281032,-69.972007" />
      <path d="M -18.997041,-69.622007 L -18.570023,-68.795998 C -18.79954,-68.701068 -19.035586,-68.635177 -19.27816,-68.598323 C -19.480107,-68.567832 -19.689772,-68.557979 -19.891665,-68.56999 C -20.384184,-68.598883 -20.838886,-68.779372 -21.094268,-69.120534 C -21.249917,-69.325907 -21.329348,-69.586655 -21.328025,-69.864554 C -21.328869,-70.085759 -21.277156,-70.28422 -21.160255,-70.43797 C -20.991324,-70.667801 -20.644654,-70.791924 -20.271032,-70.867993 C -20.054104,-70.912233 -19.914457,-70.947366 -19.834799,-70.996844 C -19.790093,-71.024934 -19.761467,-71.056031 -19.74892,-71.090134 C -19.737748,-71.120055 -19.732122,-71.157629 -19.732042,-71.202855 C -19.731915,-71.230948 -19.736457,-71.257299 -19.745669,-71.281909 C -19.767819,-71.33958 -19.813852,-71.3869 -19.883769,-71.42387 C -19.950587,-71.458622 -20.031,-71.476327 -20.125008,-71.476984 C -20.189353,-71.477303 -20.254434,-71.472626 -20.320248,-71.462954 C -20.583219,-71.423734 -20.856148,-71.307081 -21.139036,-71.112993 L -21.601032,-72.009002 C -21.174425,-72.259686 -20.70408,-72.411627 -20.225351,-72.421321 C -19.729004,-72.433561 -19.236743,-72.31164 -18.895868,-72.031117 C -18.76236,-71.920394 -18.657177,-71.786862 -18.580318,-71.630522 C -18.485091,-71.437934 -18.447625,-71.214592 -18.46056,-70.989401 C -18.47402,-70.754581 -18.561203,-70.539553 -18.720959,-70.377439 C -18.912026,-70.18065 -19.196024,-70.067702 -19.501032,-70.007007 C -19.626687,-69.979104 -19.729327,-69.955492 -19.808953,-69.936172 C -19.952522,-69.901808 -20.025047,-69.856363 -20.053447,-69.808443 C -20.068008,-69.781582 -20.0752,-69.744996 -20.075023,-69.698685 C -20.074915,-69.624943 -20.043557,-69.565341 -19.980947,-69.51988 C -19.896745,-69.458088 -19.773859,-69.433139 -19.625912,-69.441322 C -19.419561,-69.450931 -19.209937,-69.51116 -18.997041,-69.622007" />
      <path d="M -16.547018,-68.697993 L -17.814036,-68.697993 L -17.814036,-72.289002 L -16.547018,-72.289002 L -16.547018,-68.697993" />
      <path d="M -17.898027,-67.319002 C -17.899537,-67.125007 -17.817472,-66.94435 -17.687997,-66.81497 C -17.558539,-66.685556 -17.378183,-66.60351 -17.183945,-66.605011 C -16.989951,-66.603525 -16.809372,-66.685592 -16.679992,-66.81503 C -16.550551,-66.944407 -16.468512,-67.125042 -16.470023,-67.319002 C -16.468513,-67.512968 -16.550554,-67.6936 -16.679992,-67.822974 C -16.809375,-67.952415 -16.989956,-68.034481 -17.183945,-68.032993 C -17.378019,-68.034519 -17.558569,-67.952469 -17.687997,-67.823035 C -17.817475,-67.693653 -17.899538,-67.512993 -17.898027,-67.319002" />
      <path d="M -13.299036,-69.622007 L -12.872018,-68.795998 C -13.101536,-68.701068 -13.337582,-68.635177 -13.580155,-68.598323 C -13.782103,-68.567832 -13.991767,-68.557979 -14.19366,-68.56999 C -14.68618,-68.598883 -15.140881,-68.779372 -15.396264,-69.120534 C -15.551912,-69.325907 -15.631343,-69.586655 -15.630021,-69.864554 C -15.630864,-70.085759 -15.579151,-70.28422 -15.462251,-70.43797 C -15.29332,-70.667801 -14.94665,-70.791924 -14.573027,-70.867993 C -14.3561,-70.912233 -14.216452,-70.947366 -14.136794,-70.996844 C -14.092089,-71.024934 -14.063463,-71.056031 -14.050916,-71.090134 C -14.039743,-71.120055 -14.034117,-71.157629 -14.034038,-71.202855 C -14.033911,-71.230948 -14.038453,-71.257299 -14.047664,-71.281909 C -14.069815,-71.33958 -14.115848,-71.3869 -14.185764,-71.42387 C -14.252582,-71.458622 -14.332995,-71.476327 -14.427003,-71.476984 C -14.491349,-71.477303 -14.556429,-71.472626 -14.622243,-71.462954 C -14.885214,-71.423734 -15.158144,-71.307081 -15.441032,-71.112993 L -15.903027,-72.009002 C -15.476421,-72.259686 -15.006075,-72.411627 -14.527347,-72.421321 C -14.030999,-72.433561 -13.538738,-72.31164 -13.197863,-72.031117 C -13.064355,-71.920394 -12.959172,-71.786862 -12.882314,-71.630522 C -12.787087,-71.437934 -12.74962,-71.214592 -12.762556,-70.989401 C -12.776015,-70.754581 -12.863198,-70.539553 -13.022955,-70.377439 C -13.214021,-70.18065 -13.498019,-70.067702 -13.803027,-70.007007 C -13.928682,-69.979104 -14.031323,-69.955492 -14.110949,-69.936172 C -14.254518,-69.901808 -14.327042,-69.856363 -14.355442,-69.808443 C -14.370004,-69.781582 -14.377196,-69.744996 -14.377018,-69.698685 C -14.376911,-69.624943 -14.345552,-69.565341 -14.282942,-69.51988 C -14.19874,-69.458088 -14.075855,-69.433139 -13.927908,-69.441322 C -13.721556,-69.450931 -13.511933,-69.51116 -13.299036,-69.622007" />
      <path d="M 26.705543,-69.62351 L 21.905292,-69.62351 L 21.905292,-70.37649 L 26.705543,-70.37649 L 26.705543,-72.258942 L 31.461066,-72.258942 L 29.57966,-75.517632 L 30.23176,-75.894123 L 32.330533,-72.258942 L 39.694457,-72.258942 L 39.694457,-70.37649 L 44.494708,-70.37649 L 44.494708,-69.62351 L 39.694457,-69.62351 L 39.694457,-67.741058 L 36.134451,-67.741058 L 36.49429,-67.1178 L 36.49429,-64.294123 L 34.048914,-65.705961 L 33.672424,-66.358061 L 35.465699,-65.322713 L 34.069467,-67.741058 L 26.705543,-67.741058 L 26.705543,-69.62351 M 33.634734,-68.494039 L 31.895799,-71.505961 L 27.458523,-71.505961 L 27.458523,-68.494039 L 33.634734,-68.494039 M 32.765266,-71.505961 L 34.504201,-68.494039 L 38.941477,-68.494039 L 38.941477,-71.505961 L 32.765266,-71.505961 M 36.1178,-65.699203 L 36.1178,-67.741058 L 34.938934,-67.741058 L 36.1178,-65.699203" />
      <path d="M -31.243498,-80.486009 L -31.243498,-86.296009 L -29.976479,-86.296009 L -29.976479,-84.378005 C -29.977967,-84.112042 -29.900672,-83.891233 -29.734892,-83.762702 C -29.62257,-83.677088 -29.481541,-83.634857 -29.311806,-83.636009 C -29.154225,-83.635595 -29.018788,-83.684594 -28.905493,-83.783005 Q -28.806324,-83.875848 -28.765158,-84.043352 Q -28.722739,-84.219249 -28.723498,-84.483005 L -28.723498,-86.296009 L -27.456479,-86.296009 L -27.456479,-84.014014 C -27.455277,-83.668284 -27.536752,-83.34198 -27.727831,-83.092169 C -27.895806,-82.864038 -28.151837,-82.717964 -28.447127,-82.662469 C -28.596752,-82.634177 -28.75188,-82.623205 -28.912512,-82.629554 C -29.094875,-82.635036 -29.265496,-82.667122 -29.424375,-82.725814 C -29.632195,-82.802738 -29.816661,-82.965506 -29.976479,-83.16 L -29.976479,-80.486009 L -31.243498,-80.486009" />
      <path d="M -25.454484,-84.714014 L -22.787489,-84.714014 L -22.787489,-84.581009 C -22.784416,-83.997149 -22.954478,-83.464294 -23.301345,-83.10827 C -23.646009,-82.747708 -24.167919,-82.568723 -24.739363,-82.572018 C -25.044557,-82.570502 -25.325592,-82.617559 -25.582467,-82.713189 C -25.820473,-82.802635 -26.026065,-82.931468 -26.199241,-83.099689 C -26.376317,-83.273854 -26.510574,-83.482805 -26.602012,-83.726542 C -26.691988,-83.969527 -26.736481,-84.232417 -26.735492,-84.515212 C -26.737027,-84.804077 -26.686354,-85.070288 -26.583472,-85.313845 C -26.48441,-85.545982 -26.343344,-85.746321 -26.160273,-85.914863 C -25.812563,-86.235534 -25.318501,-86.412371 -24.788936,-86.427419 C -24.468221,-86.43671 -24.16154,-86.403172 -23.893578,-86.31565 C -23.672043,-86.244111 -23.479514,-86.135451 -23.315991,-85.989668 C -23.091201,-85.788667 -22.932048,-85.516265 -22.836479,-85.197018 L -24.061479,-85.197018 C -24.172636,-85.377774 -24.34084,-85.492337 -24.546107,-85.522708 C -24.666085,-85.540816 -24.799745,-85.533939 -24.910662,-85.512142 C -25.138509,-85.468211 -25.30687,-85.335248 -25.386783,-85.127698 C -25.433067,-85.006612 -25.455634,-84.868718 -25.454484,-84.714014 M -23.970493,-83.979014 L -25.419484,-83.979014 Q -25.372717,-83.704199 -25.186571,-83.546329 Q -24.995452,-83.3895 -24.705923,-83.391009 Q -24.427385,-83.390061 -24.228029,-83.553205 Q -24.032166,-83.715958 -23.970493,-83.979014" />
      <path d="M -22.066502,-82.705 L -22.066502,-86.296009 L -20.799484,-86.296009 L -20.799484,-84.756009 C -20.801115,-84.401499 -20.712869,-84.087083 -20.495936,-83.906411 C -20.348527,-83.781655 -20.145302,-83.726341 -19.917511,-83.727018 C -19.723202,-83.726674 -19.541199,-83.76867 -19.371502,-83.853005 L -19.371502,-82.642018 C -19.476156,-82.62165 -19.552841,-82.629572 -19.619782,-82.628008 C -19.8646,-82.628428 -20.080788,-82.679206 -20.268345,-82.78034 C -20.479421,-82.895146 -20.656467,-83.066034 -20.799484,-83.293005 L -20.799484,-82.705 L -22.066502,-82.705" />
      <path d="M -18.300493,-82.999014 C -18.299426,-83.251843 -18.278934,-83.440747 -18.209325,-83.597083 C -18.139469,-83.75739 -18.011759,-83.876885 -17.824484,-84.0 C -18.009588,-84.122386 -18.128419,-84.225481 -18.199422,-84.378901 C -18.270913,-84.532881 -18.300311,-84.720203 -18.300493,-84.994014 L -18.300493,-86.17 C -18.302294,-86.364106 -18.315472,-86.481443 -18.388414,-86.548407 C -18.460079,-86.616401 -18.588817,-86.622751 -18.790493,-86.625 L -18.930493,-86.625 L -18.930493,-87.535 L -18.342489,-87.535 C -18.007234,-87.53611 -17.701194,-87.464933 -17.52603,-87.271449 C -17.345496,-87.074761 -17.285109,-86.746281 -17.285493,-86.394014 L -17.285493,-85.071009 C -17.286164,-84.892655 -17.242744,-84.732194 -17.140002,-84.623491 C -17.065734,-84.54608 -16.969568,-84.494588 -16.851502,-84.469014 L -16.851502,-83.608005 C -17.007838,-83.57677 -17.119964,-83.510071 -17.18788,-83.407906 C -17.256634,-83.302329 -17.285643,-83.133598 -17.285493,-82.929014 L -17.285493,-81.606009 C -17.285057,-81.248706 -17.347129,-80.913972 -17.536482,-80.721528 C -17.71603,-80.536521 -18.006641,-80.463854 -18.328498,-80.465 L -18.930493,-80.465 L -18.930493,-81.368005 L -18.783498,-81.368005 C -18.590512,-81.37024 -18.466995,-81.376724 -18.395409,-81.44462 C -18.323185,-81.511594 -18.30151,-81.62889 -18.300493,-81.823005 L -18.300493,-82.999014" />
      <path d="M -48.099484,-85.001009 C -48.100899,-84.74362 -48.120351,-84.552303 -48.197949,-84.394581 C -48.2741,-84.238473 -48.390406,-84.120989 -48.575493,-84.0 C -48.391465,-83.868208 -48.264058,-83.767009 -48.193583,-83.61764 C -48.158519,-83.544694 -48.1341,-83.460599 -48.120325,-83.365353 C -48.106256,-83.266732 -48.099309,-83.144619 -48.099484,-82.999014 L -48.099484,-81.83 C -48.097683,-81.635925 -48.084505,-81.518577 -48.011563,-81.451615 C -47.939894,-81.383624 -47.811193,-81.377246 -47.609484,-81.375 L -47.469484,-81.375 L -47.469484,-80.465 L -48.050493,-80.465 C -48.388555,-80.463938 -48.69809,-80.53439 -48.873958,-80.728551 C -49.054487,-80.925243 -49.114867,-81.253734 -49.114484,-81.606009 L -49.114484,-82.929014 C -49.113728,-83.116156 -49.159161,-83.284294 -49.26917,-83.392825 C -49.342347,-83.46408 -49.435456,-83.510142 -49.548498,-83.531009 L -49.548498,-84.392018 C -49.392148,-84.423252 -49.280015,-84.489951 -49.212097,-84.592116 C -49.143344,-84.697694 -49.114334,-84.866425 -49.114484,-85.071009 L -49.114484,-86.394014 C -49.114536,-86.790704 -49.045154,-87.091582 -48.868486,-87.280598 C -48.696604,-87.46856 -48.428024,-87.533908 -48.071502,-87.535 L -47.469484,-87.535 L -47.469484,-86.625 L -47.616502,-86.625 C -47.827824,-86.623579 -47.947293,-86.608782 -48.015101,-86.541401 C -48.08289,-86.475054 -48.098043,-86.354567 -48.099484,-86.17 L -48.099484,-85.001009" />
      <path d="M -45.733498,-82.705 L -47.147489,-82.705 L -45.306479,-86.296009 L -44.445493,-86.296009 L -43.591479,-84.329014 L -42.695493,-86.296009 L -41.848498,-86.296009 L -39.972489,-82.705 L -41.379484,-82.705 L -42.282489,-84.651009 L -43.178498,-82.705 L -43.976479,-82.705 L -44.872489,-84.595 L -45.733498,-82.705" />
      <path d="M -36.941479,-82.705 L -36.941479,-83.062018 C -37.196364,-82.786243 -37.540357,-82.623454 -37.916207,-82.598153 C -38.219058,-82.576571 -38.52426,-82.622804 -38.789524,-82.746745 C -39.032287,-82.858784 -39.238472,-83.016541 -39.40808,-83.220017 C -39.558045,-83.401752 -39.671556,-83.607276 -39.748613,-83.83659 C -39.82007,-84.050435 -39.855024,-84.271884 -39.853474,-84.500937 C -39.853518,-84.767506 -39.807181,-85.020351 -39.714461,-85.259471 C -39.550648,-85.683034 -39.237646,-86.034146 -38.839558,-86.228248 C -38.599248,-86.348424 -38.32994,-86.407229 -38.051327,-86.407977 C -37.937497,-86.408844 -37.827448,-86.398831 -37.721181,-86.377939 C -37.410197,-86.318273 -37.139007,-86.148961 -36.941479,-85.897018 L -36.941479,-86.296009 L -35.667489,-86.296009 L -35.667489,-82.705 L -36.941479,-82.705 M -38.537489,-84.49 C -38.539495,-84.270609 -38.448293,-84.076419 -38.308227,-83.928465 C -38.16459,-83.776622 -37.951605,-83.68359 -37.719039,-83.685 C -37.48983,-83.683465 -37.268893,-83.780911 -37.125434,-83.939491 C -37.053987,-84.017345 -36.997215,-84.107955 -36.955119,-84.211322 C -36.918003,-84.304161 -36.899458,-84.401725 -36.899484,-84.504014 C -36.896891,-84.726676 -36.99921,-84.931459 -37.142937,-85.08001 C -37.285764,-85.227424 -37.499258,-85.31762 -37.719039,-85.316009 C -37.940642,-85.317481 -38.145138,-85.232581 -38.287634,-85.093398 C -38.440292,-84.943796 -38.539333,-84.728468 -38.537489,-84.49" />
      <path d="M -32.426502,-83.629014 L -31.999484,-82.803005 C -32.229002,-82.708075 -32.465047,-82.642183 -32.707621,-82.60533 C -32.909569,-82.574839 -33.119233,-82.564985 -33.321126,-82.576996 C -33.813645,-82.60589 -34.268347,-82.786379 -34.52373,-83.127541 C -34.679378,-83.332914 -34.758809,-83.593662 -34.757487,-83.871561 C -34.75833,-84.092766 -34.706617,-84.291227 -34.589716,-84.444976 C -34.420785,-84.674808 -34.074116,-84.798931 -33.700493,-84.875 C -33.483566,-84.91924 -33.343918,-84.954373 -33.26426,-85.003851 C -33.219555,-85.031941 -33.190929,-85.063038 -33.178382,-85.097141 C -33.167209,-85.127062 -33.161583,-85.164635 -33.161503,-85.209862 C -33.161376,-85.237955 -33.165919,-85.264306 -33.17513,-85.288916 C -33.19728,-85.346587 -33.243314,-85.393907 -33.31323,-85.430877 C -33.380048,-85.465629 -33.460461,-85.483334 -33.554469,-85.483991 C -33.618815,-85.484309 -33.683895,-85.479633 -33.749709,-85.469961 C -34.01268,-85.430741 -34.28561,-85.314087 -34.568498,-85.12 L -35.030493,-86.016009 C -34.603887,-86.266692 -34.133541,-86.418634 -33.654812,-86.428327 C -33.158465,-86.440568 -32.666204,-86.318647 -32.325329,-86.038124 C -32.191821,-85.927401 -32.086638,-85.793869 -32.00978,-85.637528 C -31.914552,-85.444941 -31.877086,-85.221599 -31.890022,-84.996408 C -31.903481,-84.761588 -31.990664,-84.54656 -32.150421,-84.384445 C -32.341487,-84.187657 -32.625485,-84.074709 -32.930493,-84.014014 C -33.056148,-83.986111 -33.158789,-83.962499 -33.238415,-83.943178 C -33.381984,-83.908815 -33.454508,-83.86337 -33.482908,-83.81545 C -33.49747,-83.788589 -33.504662,-83.752003 -33.504484,-83.705692 C -33.504376,-83.631949 -33.473018,-83.572348 -33.410408,-83.526887 C -33.326206,-83.465095 -33.203321,-83.440146 -33.055374,-83.448328 C -32.849022,-83.457938 -32.639398,-83.518166 -32.426502,-83.629014" />
      <path d="M 39.0,-84.0 A 5.8,5.8 0.0 0,1 27.4,-84.0 A 5.8,5.8 0.0 0,1 39.0,-84.0 M 35.52,-84.0 A 2.320000000000002,2.320000000000002 0.0 0,0 30.88,-84.0 A 2.320000000000002,2.320000000000002 0.0 0,0 35.52,-84.0" />
    </g>
  </g>
</svg>